%FSTAX23Y23*%
%MOIN*%
%SFA1B1*%

%IPPOS*%
%ADD21R,0.031496X0.031496*%
%ADD39R,0.017716X0.015748*%
%ADD41R,0.051181X0.059055*%
%ADD42R,0.059055X0.051181*%
%ADD46R,0.035433X0.037402*%
%ADD47R,0.035433X0.037402*%
%ADD54R,0.037000X0.046000*%
%ADD55R,0.021000X0.046000*%
%ADD59R,0.015748X0.035528*%
%ADD64R,0.023622X0.019685*%
%ADD65R,0.019685X0.023622*%
%ADD72R,0.019685X0.019685*%
%ADD73R,0.019685X0.019685*%
%ADD80R,0.022000X0.078000*%
%ADD198R,0.040000X0.009055*%
%ADD199R,0.009055X0.040000*%
%ADD200R,0.078000X0.021000*%
%ADD201R,0.030000X0.075000*%
%ADD203R,0.055118X0.055118*%
%LNsyncbox_paste_bot-1*%
%LPD*%
G54D21*
X0233Y05045D03*
X02389D03*
G54D39*
X0268Y00733D03*
Y00765D03*
X02638Y00749D03*
X03022Y00713D03*
Y00745D03*
X0298Y00729D03*
X02838Y00746D03*
Y00715D03*
X0288Y0073D03*
X033Y00616D03*
Y00585D03*
X03341Y006D03*
G54D41*
X0713Y05325D03*
X0703D03*
X0713Y0568D03*
X0703D03*
G54D42*
X07935Y05665D03*
Y05565D03*
X0758Y05665D03*
Y05565D03*
G54D46*
X05135Y0534D03*
X05097Y05439D03*
G54D47*
X05172Y05439D03*
G54D54*
X01894Y00791D03*
G54D55*
X01961Y00791D03*
Y00711D03*
X01886D03*
G54D59*
X02109Y00792D03*
X0214D03*
X02109Y00713D03*
X0214D03*
X02194Y00792D03*
X02225D03*
X02194Y00713D03*
X02225D03*
X03119Y00959D03*
X0315D03*
X03119Y0088D03*
X0315D03*
X02734Y00959D03*
X02765D03*
X02734Y0088D03*
X02765D03*
X02938Y00959D03*
X0297D03*
X02938Y0088D03*
X0297D03*
G54D64*
X0758Y0574D03*
Y0578D03*
X07135Y05254D03*
Y05215D03*
X0713Y05789D03*
Y0575D03*
X02105Y0485D03*
Y0489D03*
X0206Y0485D03*
Y0489D03*
X02155D03*
Y0485D03*
X02175Y05389D03*
Y0535D03*
X024Y04855D03*
Y04895D03*
X02455Y04855D03*
Y04895D03*
G54D65*
X07969Y0574D03*
X0793D03*
X02325Y05145D03*
X02364D03*
X02325Y0519D03*
X02364D03*
X01755Y0518D03*
X01794D03*
X01779Y0482D03*
X0174D03*
X02279Y0476D03*
X0224D03*
G54D72*
X02365Y0524D03*
X02325D03*
X02325Y051D03*
X02364D03*
X02365Y04995D03*
X02325D03*
X03105Y01195D03*
X03145D03*
X03105Y0114D03*
X03145D03*
G54D73*
X04095Y05735D03*
Y05775D03*
X01755Y05264D03*
Y05225D03*
X0174Y04865D03*
Y04904D03*
G54D80*
X0321Y01257D03*
X0326D03*
X0331D03*
X0336D03*
Y01063D03*
X0331D03*
X0326D03*
X0321D03*
G54D198*
X02227Y05178D03*
Y05159D03*
Y05139D03*
Y05119D03*
Y051D03*
Y0508D03*
Y0506D03*
Y05041D03*
X02022D03*
Y0506D03*
Y0508D03*
Y051D03*
Y05119D03*
Y05139D03*
Y05159D03*
Y05178D03*
G54D199*
X02193Y05007D03*
X02174D03*
X02154D03*
X02134D03*
X02115D03*
X02095D03*
X02075D03*
X02056D03*
Y05212D03*
X02075D03*
X02095D03*
X02115D03*
X02134D03*
X02154D03*
X02174D03*
X02193D03*
G54D200*
X04292Y0554D03*
Y0559D03*
Y0564D03*
Y0569D03*
X04098D03*
Y0564D03*
Y0559D03*
Y0554D03*
G54D201*
X01595Y0098D03*
X01545D03*
X01495D03*
X01445D03*
X01395D03*
X01345D03*
X01295D03*
X01245D03*
X01195D03*
X01145D03*
X01095D03*
X01045D03*
X01595Y01555D03*
X01545D03*
X01495D03*
X01445D03*
X01395D03*
X01345D03*
X01295D03*
X01245D03*
X01195D03*
X01145D03*
X01095D03*
X01045D03*
G54D203*
X02156Y05141D03*
X02093D03*
X02156Y05078D03*
X02093D03*
M02*