%FSTAX23Y23*%
%MOIN*%
%SFA1B1*%

%IPPOS*%
%ADD196C,0.006000*%
%ADD204C,0.010000*%
%ADD205C,0.003937*%
%ADD206C,0.009842*%
%ADD207C,0.020000*%
%ADD208C,0.007874*%
%ADD209C,0.001000*%
%ADD210C,0.005906*%
%LNsyncbox_legend_bot-1*%
%LPD*%
G54D196*
X0182Y008D02*
D01*
X01819Y008*
X01819Y008*
X01819Y00801*
X01819Y00801*
X01819Y00801*
X01819Y00802*
X01819Y00802*
X01819Y00802*
X01819Y00802*
X01818Y00803*
X01818Y00803*
X01818Y00803*
X01818Y00803*
X01817Y00804*
X01817Y00804*
X01817Y00804*
X01816Y00804*
X01816Y00804*
X01816Y00804*
X01815Y00804*
X01815Y00804*
X01815Y00804*
X01814*
X01814Y00804*
X01814Y00804*
X01813Y00804*
X01813Y00804*
X01813Y00804*
X01812Y00804*
X01812Y00804*
X01812Y00804*
X01811Y00803*
X01811Y00803*
X01811Y00803*
X01811Y00803*
X0181Y00802*
X0181Y00802*
X0181Y00802*
X0181Y00802*
X0181Y00801*
X0181Y00801*
X0181Y00801*
X0181Y008*
X0181Y008*
X0181Y008*
X0181Y00799*
X0181Y00799*
X0181Y00798*
X0181Y00798*
X0181Y00798*
X0181Y00797*
X0181Y00797*
X0181Y00797*
X0181Y00797*
X01811Y00796*
X01811Y00796*
X01811Y00796*
X01811Y00796*
X01812Y00795*
X01812Y00795*
X01812Y00795*
X01813Y00795*
X01813Y00795*
X01813Y00795*
X01814Y00795*
X01814Y00795*
X01814Y00795*
X01815*
X01815Y00795*
X01815Y00795*
X01816Y00795*
X01816Y00795*
X01816Y00795*
X01817Y00795*
X01817Y00795*
X01817Y00795*
X01818Y00796*
X01818Y00796*
X01818Y00796*
X01818Y00796*
X01819Y00797*
X01819Y00797*
X01819Y00797*
X01819Y00797*
X01819Y00798*
X01819Y00798*
X01819Y00798*
X01819Y00799*
X01819Y00799*
X0182Y008*
X04111Y05511D02*
X04278D01*
X04111Y05718D02*
X04278D01*
X0191Y00723D02*
X01937D01*
X01983Y0074D02*
Y00761D01*
X01926Y00778D02*
X01937D01*
X01865Y0074D02*
Y00761D01*
X03388Y01076D02*
Y01243D01*
X03181Y01076D02*
Y01243D01*
G54D204*
X02237Y0522D02*
D01*
X02237Y0522*
X02237Y0522*
X02237Y05221*
X02237Y05221*
X02237Y05221*
X02236Y05222*
X02236Y05222*
X02236Y05222*
X02236Y05223*
X02236Y05223*
X02235Y05223*
X02235Y05223*
X02235Y05224*
X02235Y05224*
X02234Y05224*
X02234Y05224*
X02234Y05224*
X02233Y05224*
X02233Y05225*
X02233Y05225*
X02232Y05225*
X02232Y05225*
X02232*
X02231Y05225*
X02231Y05225*
X02231Y05225*
X0223Y05224*
X0223Y05224*
X0223Y05224*
X02229Y05224*
X02229Y05224*
X02229Y05224*
X02229Y05223*
X02228Y05223*
X02228Y05223*
X02228Y05223*
X02228Y05222*
X02227Y05222*
X02227Y05222*
X02227Y05221*
X02227Y05221*
X02227Y05221*
X02227Y0522*
X02227Y0522*
X02227Y0522*
X02227Y05219*
X02227Y05219*
X02227Y05219*
X02227Y05218*
X02227Y05218*
X02227Y05218*
X02227Y05217*
X02228Y05217*
X02228Y05217*
X02228Y05217*
X02228Y05216*
X02229Y05216*
X02229Y05216*
X02229Y05216*
X02229Y05215*
X0223Y05215*
X0223Y05215*
X0223Y05215*
X02231Y05215*
X02231Y05215*
X02231Y05215*
X02232Y05215*
X02232*
X02232Y05215*
X02233Y05215*
X02233Y05215*
X02233Y05215*
X02234Y05215*
X02234Y05215*
X02234Y05215*
X02235Y05216*
X02235Y05216*
X02235Y05216*
X02235Y05216*
X02236Y05217*
X02236Y05217*
X02236Y05217*
X02236Y05217*
X02236Y05218*
X02237Y05218*
X02237Y05218*
X02237Y05219*
X02237Y05219*
X02237Y05219*
X02237Y0522*
X07889Y05667D02*
D01*
X07889Y05668*
X07889Y05669*
X07889Y0567*
X07888Y05671*
X07888Y05672*
X07888Y05673*
X07887Y05674*
X07887Y05675*
X07886Y05676*
X07885Y05677*
X07884Y05678*
X07884Y05679*
X07883Y0568*
X07882Y0568*
X07881Y05681*
X0788Y05681*
X07879Y05682*
X07878Y05682*
X07877Y05683*
X07875Y05683*
X07874Y05683*
X07873Y05683*
X07872*
X07871Y05683*
X0787Y05683*
X07868Y05683*
X07867Y05682*
X07866Y05682*
X07865Y05681*
X07864Y05681*
X07863Y0568*
X07862Y0568*
X07861Y05679*
X07861Y05678*
X0786Y05677*
X07859Y05676*
X07858Y05675*
X07858Y05674*
X07857Y05673*
X07857Y05672*
X07857Y05671*
X07856Y0567*
X07856Y05669*
X07856Y05668*
X07856Y05667*
X07856Y05665*
X07856Y05664*
X07856Y05663*
X07857Y05662*
X07857Y05661*
X07857Y0566*
X07858Y05659*
X07858Y05658*
X07859Y05657*
X0786Y05656*
X07861Y05655*
X07861Y05654*
X07862Y05653*
X07863Y05653*
X07864Y05652*
X07865Y05652*
X07866Y05651*
X07867Y05651*
X07868Y0565*
X0787Y0565*
X07871Y0565*
X07872Y0565*
X07873*
X07874Y0565*
X07875Y0565*
X07877Y0565*
X07878Y05651*
X07879Y05651*
X0788Y05652*
X07881Y05652*
X07882Y05653*
X07883Y05653*
X07884Y05654*
X07884Y05655*
X07885Y05656*
X07886Y05657*
X07887Y05658*
X07887Y05659*
X07888Y0566*
X07888Y05661*
X07888Y05662*
X07889Y05663*
X07889Y05664*
X07889Y05665*
X07889Y05667*
X07148Y05387D02*
D01*
X07148Y05388*
X07148Y05389*
X07148Y05391*
X07147Y05392*
X07147Y05393*
X07147Y05394*
X07146Y05395*
X07146Y05396*
X07145Y05397*
X07144Y05398*
X07143Y05399*
X07143Y054*
X07142Y054*
X07141Y05401*
X0714Y05402*
X07139Y05402*
X07138Y05403*
X07137Y05403*
X07136Y05403*
X07134Y05404*
X07133Y05404*
X07132Y05404*
X07131*
X0713Y05404*
X07129Y05404*
X07127Y05403*
X07126Y05403*
X07125Y05403*
X07124Y05402*
X07123Y05402*
X07122Y05401*
X07121Y054*
X0712Y054*
X0712Y05399*
X07119Y05398*
X07118Y05397*
X07117Y05396*
X07117Y05395*
X07116Y05394*
X07116Y05393*
X07116Y05392*
X07115Y05391*
X07115Y05389*
X07115Y05388*
X07115Y05387*
X07115Y05386*
X07115Y05385*
X07115Y05384*
X07116Y05383*
X07116Y05381*
X07116Y0538*
X07117Y05379*
X07117Y05378*
X07118Y05377*
X07119Y05376*
X0712Y05376*
X0712Y05375*
X07121Y05374*
X07122Y05373*
X07123Y05373*
X07124Y05372*
X07125Y05372*
X07126Y05371*
X07127Y05371*
X07129Y05371*
X0713Y05371*
X07131Y05371*
X07132*
X07133Y05371*
X07134Y05371*
X07136Y05371*
X07137Y05371*
X07138Y05372*
X07139Y05372*
X0714Y05373*
X07141Y05373*
X07142Y05374*
X07143Y05375*
X07143Y05376*
X07144Y05376*
X07145Y05377*
X07146Y05378*
X07146Y05379*
X07147Y0538*
X07147Y05381*
X07147Y05383*
X07148Y05384*
X07148Y05385*
X07148Y05386*
X07148Y05387*
X04058Y05499D02*
D01*
X04058Y05499*
X04058Y05499*
X04058Y05499*
X04058Y055*
X04058Y055*
X04058Y055*
X04057Y05501*
X04057Y05501*
X04057Y05501*
X04057Y05501*
X04057Y05502*
X04056Y05502*
X04056Y05502*
X04056Y05502*
X04056Y05502*
X04055Y05503*
X04055Y05503*
X04055Y05503*
X04055Y05503*
X04054Y05503*
X04054Y05503*
X04054Y05503*
X04053*
X04053Y05503*
X04053Y05503*
X04052Y05503*
X04052Y05503*
X04052Y05503*
X04052Y05503*
X04051Y05502*
X04051Y05502*
X04051Y05502*
X04051Y05502*
X0405Y05502*
X0405Y05501*
X0405Y05501*
X0405Y05501*
X0405Y05501*
X04049Y055*
X04049Y055*
X04049Y055*
X04049Y05499*
X04049Y05499*
X04049Y05499*
X04049Y05499*
X04049Y05498*
X04049Y05498*
X04049Y05498*
X04049Y05497*
X04049Y05497*
X04049Y05497*
X0405Y05496*
X0405Y05496*
X0405Y05496*
X0405Y05496*
X0405Y05495*
X04051Y05495*
X04051Y05495*
X04051Y05495*
X04051Y05495*
X04052Y05494*
X04052Y05494*
X04052Y05494*
X04052Y05494*
X04053Y05494*
X04053Y05494*
X04053Y05494*
X04054*
X04054Y05494*
X04054Y05494*
X04055Y05494*
X04055Y05494*
X04055Y05494*
X04055Y05494*
X04056Y05495*
X04056Y05495*
X04056Y05495*
X04056Y05495*
X04057Y05495*
X04057Y05496*
X04057Y05496*
X04057Y05496*
X04057Y05496*
X04058Y05497*
X04058Y05497*
X04058Y05497*
X04058Y05498*
X04058Y05498*
X04058Y05498*
X04058Y05499*
X00973Y01232D02*
D01*
X00976Y01232*
X00978Y01232*
X0098Y01232*
X00983Y01233*
X00985Y01234*
X00987Y01235*
X0099Y01236*
X00992Y01237*
X00994Y01238*
X00996Y0124*
X00998Y01242*
X00999Y01243*
X01001Y01245*
X01002Y01247*
X01004Y01249*
X01005Y01252*
X01006Y01254*
X01007Y01256*
X01007Y01259*
X01008Y01261*
X01008Y01263*
X01008Y01266*
Y01268*
X01008Y01271*
X01008Y01273*
X01007Y01276*
X01007Y01278*
X01006Y0128*
X01005Y01283*
X01004Y01285*
X01002Y01287*
X01001Y01289*
X00999Y01291*
X00998Y01293*
X00996Y01294*
X00994Y01296*
X00992Y01297*
X0099Y01298*
X00987Y013*
X00985Y013*
X00983Y01301*
X0098Y01302*
X00978Y01302*
X00976Y01302*
X00973Y01303*
X03179Y01271D02*
D01*
X03179Y01271*
X03179Y01271*
X0318Y01271*
X0318Y01271*
X0318Y01271*
X03181Y01271*
X03181Y01271*
X03182Y01271*
X03182Y01272*
X03182Y01272*
X03183Y01272*
X03183Y01272*
X03183Y01273*
X03183Y01273*
X03184Y01273*
X03184Y01274*
X03184Y01274*
X03184Y01275*
X03184Y01275*
X03184Y01275*
X03184Y01276*
X03184Y01276*
Y01277*
X03184Y01277*
X03184Y01277*
X03184Y01278*
X03184Y01278*
X03184Y01279*
X03184Y01279*
X03184Y01279*
X03183Y0128*
X03183Y0128*
X03183Y0128*
X03183Y01281*
X03182Y01281*
X03182Y01281*
X03182Y01281*
X03181Y01281*
X03181Y01282*
X0318Y01282*
X0318Y01282*
X0318Y01282*
X03179Y01282*
X03179Y01282*
X03179Y01282*
X03178Y01282*
X03178Y01282*
X03177Y01282*
X03177Y01282*
X03177Y01282*
X03176Y01282*
X03176Y01281*
X03175Y01281*
X03175Y01281*
X03175Y01281*
X03174Y01281*
X03174Y0128*
X03174Y0128*
X03174Y0128*
X03173Y01279*
X03173Y01279*
X03173Y01279*
X03173Y01278*
X03173Y01278*
X03173Y01277*
X03173Y01277*
X03173Y01277*
Y01276*
X03173Y01276*
X03173Y01275*
X03173Y01275*
X03173Y01275*
X03173Y01274*
X03173Y01274*
X03173Y01273*
X03174Y01273*
X03174Y01273*
X03174Y01272*
X03174Y01272*
X03175Y01272*
X03175Y01272*
X03175Y01271*
X03176Y01271*
X03176Y01271*
X00973Y01027D02*
X01016D01*
X01623D02*
X01666D01*
X00973Y01507D02*
X01016D01*
X01623D02*
X01666D01*
Y01027D02*
Y01507D01*
X00973Y01027D02*
Y01229D01*
Y01305D02*
Y01507D01*
X01012Y01562D02*
Y01549D01*
Y01556*
X00972*
X00979Y01562*
G54D205*
X07733Y05691D02*
D01*
X07733Y05689*
X07733Y05687*
X07733Y05685*
X07733Y05684*
X07734Y05682*
X07735Y0568*
X07735Y05679*
X07736Y05677*
X07737Y05676*
X07738Y05674*
X0774Y05673*
X07741Y05672*
X07742Y05671*
X07744Y0567*
X07745Y05669*
X07747Y05668*
X07748Y05667*
X0775Y05667*
X07751Y05666*
X07753Y05666*
X07755Y05666*
X07757Y05666*
X07758*
X0776Y05666*
X07762Y05666*
X07764Y05666*
X07765Y05667*
X07767Y05667*
X07768Y05668*
X0777Y05669*
X07771Y0567*
X07773Y05671*
X07774Y05672*
X07775Y05673*
X07777Y05674*
X07778Y05676*
X07779Y05677*
X0778Y05679*
X0778Y0568*
X07781Y05682*
X07782Y05684*
X07782Y05685*
X07782Y05687*
X07782Y05689*
X07783Y05691*
X07156Y05527D02*
D01*
X07154Y05527*
X07152Y05527*
X0715Y05527*
X07149Y05526*
X07147Y05526*
X07145Y05525*
X07144Y05524*
X07142Y05523*
X07141Y05522*
X07139Y05521*
X07138Y0552*
X07137Y05519*
X07136Y05518*
X07135Y05516*
X07134Y05515*
X07133Y05513*
X07132Y05512*
X07132Y0551*
X07131Y05508*
X07131Y05507*
X07131Y05505*
X07131Y05503*
Y05501*
X07131Y055*
X07131Y05498*
X07131Y05496*
X07132Y05494*
X07132Y05493*
X07133Y05491*
X07134Y0549*
X07135Y05488*
X07136Y05487*
X07137Y05485*
X07138Y05484*
X07139Y05483*
X07141Y05482*
X07142Y05481*
X07144Y0548*
X07145Y05479*
X07147Y05479*
X07149Y05478*
X0715Y05478*
X07152Y05477*
X07154Y05477*
X07156Y05477*
X07785Y05695D02*
X07899D01*
X07621Y05532D02*
Y05693D01*
Y05532D02*
X07899D01*
Y05695*
X07621Y05693D02*
X07732D01*
X0716Y05361D02*
Y05475D01*
X06997Y05639D02*
X07158D01*
X06997Y05361D02*
Y05639D01*
Y05361D02*
X0716D01*
X07158Y05527D02*
Y05639D01*
G54D206*
X07928Y05707D02*
D01*
X07928Y05707*
X07928Y05706*
X07928Y05706*
X07928Y05706*
X07928Y05705*
X07928Y05705*
X07928Y05705*
X07928Y05704*
X07929Y05704*
X07929Y05704*
X07929Y05704*
X07929Y05703*
X07929Y05703*
X0793Y05703*
X0793Y05703*
X0793Y05703*
X07931Y05702*
X07931Y05702*
X07931Y05702*
X07932Y05702*
X07932Y05702*
X07932Y05702*
X07933*
X07933Y05702*
X07933Y05702*
X07934Y05702*
X07934Y05702*
X07934Y05702*
X07935Y05703*
X07935Y05703*
X07935Y05703*
X07936Y05703*
X07936Y05703*
X07936Y05704*
X07936Y05704*
X07936Y05704*
X07937Y05704*
X07937Y05705*
X07937Y05705*
X07937Y05705*
X07937Y05706*
X07937Y05706*
X07937Y05706*
X07937Y05707*
X07937Y05707*
X07937Y05707*
X07937Y05708*
X07937Y05708*
X07937Y05708*
X07937Y05709*
X07937Y05709*
X07937Y05709*
X07937Y0571*
X07936Y0571*
X07936Y0571*
X07936Y0571*
X07936Y05711*
X07936Y05711*
X07935Y05711*
X07935Y05711*
X07935Y05711*
X07934Y05712*
X07934Y05712*
X07934Y05712*
X07933Y05712*
X07933Y05712*
X07933Y05712*
X07932*
X07932Y05712*
X07932Y05712*
X07931Y05712*
X07931Y05712*
X07931Y05712*
X0793Y05711*
X0793Y05711*
X0793Y05711*
X07929Y05711*
X07929Y05711*
X07929Y0571*
X07929Y0571*
X07929Y0571*
X07928Y0571*
X07928Y05709*
X07928Y05709*
X07928Y05709*
X07928Y05708*
X07928Y05708*
X07928Y05708*
X07928Y05707*
X07172Y05332D02*
D01*
X07172Y05332*
X07171Y05332*
X07171Y05332*
X07171Y05332*
X0717Y05332*
X0717Y05332*
X0717Y05332*
X07169Y05331*
X07169Y05331*
X07169Y05331*
X07169Y05331*
X07168Y0533*
X07168Y0533*
X07168Y0533*
X07168Y0533*
X07168Y05329*
X07167Y05329*
X07167Y05329*
X07167Y05328*
X07167Y05328*
X07167Y05328*
X07167Y05327*
Y05327*
X07167Y05327*
X07167Y05326*
X07167Y05326*
X07167Y05326*
X07167Y05325*
X07168Y05325*
X07168Y05325*
X07168Y05324*
X07168Y05324*
X07168Y05324*
X07169Y05324*
X07169Y05323*
X07169Y05323*
X07169Y05323*
X0717Y05323*
X0717Y05323*
X0717Y05323*
X07171Y05322*
X07171Y05322*
X07171Y05322*
X07172Y05322*
X07172Y05322*
X07172Y05322*
X07173Y05322*
X07173Y05322*
X07173Y05322*
X07174Y05323*
X07174Y05323*
X07174Y05323*
X07175Y05323*
X07175Y05323*
X07175Y05323*
X07175Y05324*
X07176Y05324*
X07176Y05324*
X07176Y05324*
X07176Y05325*
X07176Y05325*
X07177Y05325*
X07177Y05326*
X07177Y05326*
X07177Y05326*
X07177Y05327*
X07177Y05327*
Y05327*
X07177Y05328*
X07177Y05328*
X07177Y05328*
X07177Y05329*
X07177Y05329*
X07176Y05329*
X07176Y0533*
X07176Y0533*
X07176Y0533*
X07176Y0533*
X07175Y05331*
X07175Y05331*
X07175Y05331*
X07175Y05331*
X07174Y05332*
X07174Y05332*
X07174Y05332*
X07173Y05332*
X07173Y05332*
X07173Y05332*
X07172Y05332*
X0509Y05405D02*
D01*
X05089Y05405*
X05089Y05405*
X05089Y05406*
X05089Y05406*
X05089Y05406*
X05089Y05407*
X05089Y05407*
X05089Y05407*
X05089Y05407*
X05088Y05408*
X05088Y05408*
X05088Y05408*
X05088Y05408*
X05087Y05409*
X05087Y05409*
X05087Y05409*
X05086Y05409*
X05086Y05409*
X05086Y05409*
X05085Y05409*
X05085Y05409*
X05085Y05409*
X05084*
X05084Y05409*
X05084Y05409*
X05083Y05409*
X05083Y05409*
X05083Y05409*
X05082Y05409*
X05082Y05409*
X05082Y05409*
X05082Y05408*
X05081Y05408*
X05081Y05408*
X05081Y05408*
X05081Y05407*
X0508Y05407*
X0508Y05407*
X0508Y05407*
X0508Y05406*
X0508Y05406*
X0508Y05406*
X0508Y05405*
X0508Y05405*
X0508Y05405*
X0508Y05404*
X0508Y05404*
X0508Y05403*
X0508Y05403*
X0508Y05403*
X0508Y05402*
X0508Y05402*
X0508Y05402*
X05081Y05402*
X05081Y05401*
X05081Y05401*
X05081Y05401*
X05082Y05401*
X05082Y054*
X05082Y054*
X05082Y054*
X05083Y054*
X05083Y054*
X05083Y054*
X05084Y054*
X05084Y054*
X05084Y054*
X05085*
X05085Y054*
X05085Y054*
X05086Y054*
X05086Y054*
X05086Y054*
X05087Y054*
X05087Y054*
X05087Y054*
X05088Y05401*
X05088Y05401*
X05088Y05401*
X05088Y05401*
X05089Y05402*
X05089Y05402*
X05089Y05402*
X05089Y05402*
X05089Y05403*
X05089Y05403*
X05089Y05403*
X05089Y05404*
X05089Y05404*
X0509Y05405*
G54D207*
X06142Y01803D02*
D01*
X06142Y01804*
X06142Y01805*
X06142Y01806*
X06142Y01807*
X06142Y01808*
X06141Y01809*
X06141Y0181*
X0614Y01811*
X0614Y01812*
X06139Y01813*
X06138Y01813*
X06138Y01814*
X06137Y01815*
X06136Y01815*
X06135Y01816*
X06134Y01816*
X06133Y01817*
X06132Y01817*
X06131Y01817*
X0613Y01818*
X06129Y01818*
X06128Y01818*
X06127*
X06126Y01818*
X06125Y01818*
X06124Y01817*
X06123Y01817*
X06122Y01817*
X06121Y01816*
X0612Y01816*
X06119Y01815*
X06118Y01815*
X06117Y01814*
X06117Y01813*
X06116Y01813*
X06115Y01812*
X06115Y01811*
X06114Y0181*
X06114Y01809*
X06113Y01808*
X06113Y01807*
X06113Y01806*
X06113Y01805*
X06113Y01804*
X06112Y01803*
X06113Y01802*
X06113Y01801*
X06113Y018*
X06113Y01799*
X06113Y01798*
X06114Y01797*
X06114Y01796*
X06115Y01795*
X06115Y01794*
X06116Y01793*
X06117Y01793*
X06117Y01792*
X06118Y01791*
X06119Y0179*
X0612Y0179*
X06121Y01789*
X06122Y01789*
X06123Y01789*
X06124Y01788*
X06125Y01788*
X06126Y01788*
X06127Y01788*
X06128*
X06129Y01788*
X0613Y01788*
X06131Y01788*
X06132Y01789*
X06133Y01789*
X06134Y01789*
X06135Y0179*
X06136Y0179*
X06137Y01791*
X06138Y01792*
X06138Y01793*
X06139Y01793*
X0614Y01794*
X0614Y01795*
X06141Y01796*
X06141Y01797*
X06142Y01798*
X06142Y01799*
X06142Y018*
X06142Y01801*
X06142Y01802*
X06142Y01803*
G54D208*
X02025Y0521D02*
X02038D01*
X0221D02*
X02225Y05195D01*
X02025D02*
Y0521D01*
Y0501D02*
X02038D01*
X0221D02*
X02223D01*
X02225D02*
Y05025D01*
X02025Y0501D02*
Y05025D01*
X02089Y00709D02*
Y00795D01*
X0216Y00709D02*
Y00795D01*
X02174Y00709D02*
Y00795D01*
X02245Y00709D02*
Y00795D01*
X03099Y00876D02*
Y00963D01*
X0317Y00876D02*
Y00963D01*
X02714Y00876D02*
Y00963D01*
X02785Y00876D02*
Y00963D01*
X02918Y00876D02*
Y00963D01*
X02989Y00876D02*
Y00963D01*
X07556Y05799D02*
X07603D01*
X07556Y0572D02*
Y05799D01*
Y0572D02*
X07603D01*
Y05799*
X0791Y05716D02*
Y05763D01*
Y05716D02*
X07989D01*
Y05763*
X0791D02*
X07989D01*
X07111Y05195D02*
X07158D01*
Y05274*
X07111D02*
X07158D01*
X07111Y05195D02*
Y05274D01*
X07106Y0573D02*
X07153D01*
Y05809*
X07106D02*
X07153D01*
X07106Y0573D02*
Y05809D01*
X02384Y05121D02*
Y05168D01*
X02305D02*
X02384D01*
X02305Y05121D02*
Y05168D01*
Y05121D02*
X02384D01*
X02384Y05166D02*
Y05213D01*
X02305D02*
X02384D01*
X02305Y05166D02*
Y05213D01*
Y05166D02*
X02384D01*
X02081Y04909D02*
X02128D01*
X02081Y0483D02*
Y04909D01*
Y0483D02*
X02128D01*
Y04909*
X02036D02*
X02083D01*
X02036Y0483D02*
Y04909D01*
Y0483D02*
X02083D01*
Y04909*
X02131Y0483D02*
X02178D01*
Y04909*
X02131D02*
X02178D01*
X02131Y0483D02*
Y04909D01*
X02151Y0533D02*
X02198D01*
Y05409*
X02151D02*
X02198D01*
X02151Y0533D02*
Y05409D01*
X02376Y04914D02*
X02423D01*
X02376Y04835D02*
Y04914D01*
Y04835D02*
X02423D01*
Y04914*
X02431D02*
X02478D01*
X02431Y04835D02*
Y04914D01*
Y04835D02*
X02478D01*
Y04914*
X01814Y05156D02*
Y05203D01*
X01735D02*
X01814D01*
X01735Y05156D02*
Y05203D01*
Y05156D02*
X01814D01*
X0172Y04796D02*
Y04843D01*
Y04796D02*
X01799D01*
Y04843*
X0172D02*
X01799D01*
X0222Y04736D02*
Y04783D01*
Y04736D02*
X02299D01*
Y04783*
X0222D02*
X02299D01*
X02304Y05072D02*
X02414D01*
Y05017D02*
Y05072D01*
X02304Y05017D02*
X02414D01*
X02304D02*
Y05072D01*
X04075Y05794D02*
X04114D01*
Y05715D02*
Y05794D01*
X04075Y05715D02*
X04114D01*
X04075D02*
Y05794D01*
X02305Y0522D02*
Y05259D01*
X02384*
Y0522D02*
Y05259D01*
X02305Y0522D02*
X02384D01*
X02384Y0508D02*
Y05119D01*
X02305Y0508D02*
X02384D01*
X02305D02*
Y05119D01*
X02384*
X01735Y05205D02*
X01774D01*
X01735D02*
Y05284D01*
X01774*
Y05205D02*
Y05284D01*
X0172Y04924D02*
X01759D01*
Y04845D02*
Y04924D01*
X0172Y04845D02*
X01759D01*
X0172D02*
Y04924D01*
X02305Y04975D02*
Y05014D01*
X02384*
Y04975D02*
Y05014D01*
X02305Y04975D02*
X02384D01*
X03164Y01175D02*
Y01214D01*
X03085Y01175D02*
X03164D01*
X03085D02*
Y01214D01*
X03164*
Y0112D02*
Y01159D01*
X03085Y0112D02*
X03164D01*
X03085D02*
Y01159D01*
X03164*
G54D209*
X02665Y00779D02*
X02695D01*
X0266D02*
X02665D01*
X02695Y00719D02*
Y00779D01*
X02625D02*
X02665D01*
X02625Y00719D02*
Y00779D01*
Y00719D02*
X02695D01*
X03007Y00759D02*
X03037D01*
X03002D02*
X03007D01*
X03037Y00699D02*
Y00759D01*
X02967D02*
X03007D01*
X02967Y00699D02*
Y00759D01*
Y00699D02*
X03037D01*
X02823Y007D02*
X02853D01*
X02858*
X02823D02*
Y0076D01*
X02853Y007D02*
X02893D01*
Y0076*
X02823D02*
X02893D01*
X03285Y0057D02*
X03315D01*
X0332*
X03285D02*
Y0063D01*
X03315Y0057D02*
X03355D01*
Y0063*
X03285D02*
X03355D01*
G54D210*
X0352Y01194D02*
Y01161D01*
X03513Y01155*
X035*
X03493Y01161*
Y01194*
X0348Y01155D02*
X03467D01*
X03474*
Y01194*
X0348Y01187*
X03421Y01194D02*
X03434Y01187D01*
X03447Y01174*
Y01161*
X03441Y01155*
X03428*
X03421Y01161*
Y01168*
X03428Y01174*
X03447*
X0425Y05494D02*
Y05461D01*
X04243Y05455*
X0423*
X04223Y05461*
Y05494*
X04184Y05455D02*
X0421D01*
X04184Y05481*
Y05487*
X0419Y05494*
X04204*
X0421Y05487*
X04171Y05494D02*
X04145D01*
Y05487*
X04171Y05461*
Y05455*
X03018Y01157D02*
X03025Y01164D01*
X03038*
X03045Y01157*
Y01131*
X03038Y01125*
X03025*
X03018Y01131*
X03005Y01157D02*
X02999Y01164D01*
X02985*
X02979Y01157*
Y01151*
X02985Y01144*
X02992*
X02985*
X02979Y01138*
Y01131*
X02985Y01125*
X02999*
X03005Y01131*
X0294Y01125D02*
X02966D01*
X0294Y01151*
Y01157*
X02946Y01164*
X02959*
X02966Y01157*
X03018Y01212D02*
X03025Y01219D01*
X03038*
X03045Y01212*
Y01186*
X03038Y0118*
X03025*
X03018Y01186*
X03005Y01212D02*
X02999Y01219D01*
X02985*
X02979Y01212*
Y01206*
X02985Y01199*
X02992*
X02985*
X02979Y01193*
Y01186*
X02985Y0118*
X02999*
X03005Y01186*
X02966Y01212D02*
X02959Y01219D01*
X02946*
X0294Y01212*
Y01206*
X02946Y01199*
X02953*
X02946*
X0294Y01193*
Y01186*
X02946Y0118*
X02959*
X02966Y01186*
X02513Y05052D02*
X0252Y05059D01*
X02533*
X0254Y05052*
Y05026*
X02533Y0502*
X0252*
X02513Y05026*
X0248Y0502D02*
Y05059D01*
X025Y05039*
X02474*
X02461Y05052D02*
X02454Y05059D01*
X02441*
X02435Y05052*
Y05026*
X02441Y0502*
X02454*
X02461Y05026*
Y05052*
X02498Y05002D02*
X02505Y05009D01*
X02518*
X02525Y05002*
Y04976*
X02518Y0497*
X02505*
X02498Y04976*
X02465Y0497D02*
Y05009D01*
X02485Y04989*
X02459*
X02446Y0497D02*
X02433D01*
X02439*
Y05009*
X02446Y05002*
X01758Y04972D02*
X01765Y04979D01*
X01778*
X01785Y04972*
Y04946*
X01778Y0494*
X01765*
X01758Y04946*
X01725Y0494D02*
Y04979D01*
X01745Y04959*
X01719*
X0168Y04979D02*
X01693Y04972D01*
X01706Y04959*
Y04946*
X01699Y0494*
X01686*
X0168Y04946*
Y04953*
X01686Y04959*
X01706*
X01768Y05332D02*
X01774Y05339D01*
X01787*
X01794Y05332*
Y05306*
X01787Y053*
X01774*
X01768Y05306*
X01735Y053D02*
Y05339D01*
X01755Y05319*
X01728*
X01715Y05339D02*
X01689D01*
Y05332*
X01715Y05306*
Y053*
X02503Y05107D02*
X0251Y05114D01*
X02523*
X0253Y05107*
Y05081*
X02523Y05075*
X0251*
X02503Y05081*
X02464Y05114D02*
X0249D01*
Y05094*
X02477Y05101*
X0247*
X02464Y05094*
Y05081*
X0247Y05075*
X02484*
X0249Y05081*
X02431Y05075D02*
Y05114D01*
X02451Y05094*
X02425*
X02503Y05257D02*
X0251Y05264D01*
X02523*
X0253Y05257*
Y05231*
X02523Y05225*
X0251*
X02503Y05231*
X02464Y05264D02*
X0249D01*
Y05244*
X02477Y05251*
X0247*
X02464Y05244*
Y05231*
X0247Y05225*
X02484*
X0249Y05231*
X02425Y05264D02*
X02451D01*
Y05244*
X02438Y05251*
X02431*
X02425Y05244*
Y05231*
X02431Y05225*
X02444*
X02451Y05231*
X04118Y05842D02*
X04125Y05849D01*
X04138*
X04145Y05842*
Y05816*
X04138Y0581*
X04125*
X04118Y05816*
X04105Y05842D02*
X04099Y05849D01*
X04085*
X04079Y05842*
Y05836*
X04085Y05829*
X04079Y05823*
Y05816*
X04085Y0581*
X04099*
X04105Y05816*
Y05823*
X04099Y05829*
X04105Y05836*
Y05842*
X04099Y05829D02*
X04085D01*
X04066Y05842D02*
X04059Y05849D01*
X04046*
X0404Y05842*
Y05836*
X04046Y05829*
X04053*
X04046*
X0404Y05823*
Y05816*
X04046Y0581*
X04059*
X04066Y05816*
X0322Y0052D02*
Y0056D01*
X03239*
X03246Y00553*
Y00527*
X03239Y0052*
X0322*
X03285D02*
X03259D01*
Y0054*
X03272Y00533*
X03279*
X03285Y0054*
Y00553*
X03279Y0056*
X03265*
X03259Y00553*
X02885Y00689D02*
Y0065D01*
X02865*
X02858Y00656*
Y00682*
X02865Y00689*
X02885*
X02845Y00656D02*
X02839Y0065D01*
X02825*
X02819Y00656*
Y00682*
X02825Y00689*
X02839*
X02845Y00682*
Y00676*
X02839Y00669*
X02819*
X03055Y00688D02*
Y00649D01*
X03035*
X03029Y00655*
Y00682*
X03035Y00688*
X03055*
X03016Y00649D02*
X03003D01*
X03009*
Y00688*
X03016Y00682*
X02983D02*
X02976Y00688D01*
X02963*
X02957Y00682*
Y00655*
X02963Y00649*
X02976*
X02983Y00655*
Y00682*
X0271Y00704D02*
Y00665D01*
X0269*
X02683Y00671*
Y00697*
X0269Y00704*
X0271*
X0267Y00665D02*
X02657D01*
X02664*
Y00704*
X0267Y00697*
X02637Y00665D02*
X02624D01*
X02631*
Y00704*
X02637Y00697*
X01794Y00778D02*
X01834D01*
Y00758*
X01827Y00751*
X01801*
X01794Y00758*
Y00778*
X01834Y00738D02*
Y00725D01*
Y00732*
X01794*
X01801Y00738*
X01834Y00679D02*
Y00705D01*
X01807Y00679*
X01801*
X01794Y00686*
Y00699*
X01801Y00705*
X0519Y05519D02*
Y0548D01*
X0517*
X05163Y05486*
Y05512*
X0517Y05519*
X0519*
X0515Y0548D02*
X05137D01*
X05144*
Y05519*
X0515Y05512*
X05117D02*
X05111Y05519D01*
X05098*
X05091Y05512*
Y05506*
X05098Y05499*
X05091Y05493*
Y05486*
X05098Y0548*
X05111*
X05117Y05486*
Y05493*
X05111Y05499*
X05117Y05506*
Y05512*
X05111Y05499D02*
X05098D01*
X0298Y00849D02*
Y0081D01*
X02953*
X0294D02*
X02927D01*
X02934*
Y00849*
X0294Y00842*
X028Y00849D02*
Y0081D01*
X02773*
X0274D02*
Y00849D01*
X0276Y00829*
X02734*
X0317Y00849D02*
Y0081D01*
X03143*
X03104Y00849D02*
X03117Y00842D01*
X0313Y00829*
Y00816*
X03124Y0081*
X0311*
X03104Y00816*
Y00823*
X0311Y00829*
X0313*
X02261Y00861D02*
Y00821D01*
X02235*
X02222Y00861D02*
X02196D01*
Y00854*
X02222Y00828*
Y00821*
X0216Y00864D02*
Y00825D01*
X02133*
X0212Y00857D02*
X02114Y00864D01*
X021*
X02094Y00857*
Y00851*
X021Y00844*
X02094Y00838*
Y00831*
X021Y00825*
X02114*
X0212Y00831*
Y00838*
X02114Y00844*
X0212Y00851*
Y00857*
X02114Y00844D02*
X021D01*
X0231Y04685D02*
Y04724D01*
X0229*
X02283Y04717*
Y04704*
X0229Y04698*
X0231*
X02296D02*
X02283Y04685D01*
X02244D02*
X0227D01*
X02244Y04711*
Y04717*
X0225Y04724*
X02264*
X0227Y04717*
X02205Y04724D02*
X02231D01*
Y04704*
X02218Y04711*
X02211*
X02205Y04704*
Y04691*
X02211Y04685*
X02224*
X02231Y04691*
X0181Y0474D02*
Y04779D01*
X0179*
X01783Y04772*
Y04759*
X0179Y04753*
X0181*
X01796D02*
X01783Y0474D01*
X01744D02*
X0177D01*
X01744Y04766*
Y04772*
X0175Y04779*
X01764*
X0177Y04772*
X01705Y04779D02*
X01718Y04772D01*
X01731Y04759*
Y04746*
X01724Y0474*
X01711*
X01705Y04746*
Y04753*
X01711Y04759*
X01731*
X01815Y051D02*
Y05139D01*
X01795*
X01788Y05132*
Y05119*
X01795Y05113*
X01815*
X01801D02*
X01788Y051D01*
X01749D02*
X01775D01*
X01749Y05126*
Y05132*
X01755Y05139*
X01769*
X01775Y05132*
X01736Y05139D02*
X0171D01*
Y05132*
X01736Y05106*
Y051*
X02515Y0478D02*
Y04819D01*
X02495*
X02488Y04812*
Y04799*
X02495Y04793*
X02515*
X02501D02*
X02488Y0478D01*
X02449D02*
X02475D01*
X02449Y04806*
Y04812*
X02455Y04819*
X02469*
X02475Y04812*
X02436D02*
X02429Y04819D01*
X02416*
X0241Y04812*
Y04806*
X02416Y04799*
X0241Y04793*
Y04786*
X02416Y0478*
X02429*
X02436Y04786*
Y04793*
X02429Y04799*
X02436Y04806*
Y04812*
X02429Y04799D02*
X02416D01*
X0245Y04725D02*
Y04764D01*
X0243*
X02423Y04757*
Y04744*
X0243Y04738*
X0245*
X02436D02*
X02423Y04725D01*
X02384D02*
X0241D01*
X02384Y04751*
Y04757*
X0239Y04764*
X02404*
X0241Y04757*
X02371Y04731D02*
X02364Y04725D01*
X02351*
X02345Y04731*
Y04757*
X02351Y04764*
X02364*
X02371Y04757*
Y04751*
X02364Y04744*
X02345*
X02215Y0542D02*
Y05459D01*
X02195*
X02188Y05452*
Y05439*
X02195Y05433*
X02215*
X02201D02*
X02188Y0542D01*
X02175Y05452D02*
X02169Y05459D01*
X02155*
X02149Y05452*
Y05446*
X02155Y05439*
X02162*
X02155*
X02149Y05433*
Y05426*
X02155Y0542*
X02169*
X02175Y05426*
X02136Y05452D02*
X02129Y05459D01*
X02116*
X0211Y05452*
Y05426*
X02116Y0542*
X02129*
X02136Y05426*
Y05452*
X0221Y0492D02*
Y04959D01*
X0219*
X02183Y04952*
Y04939*
X0219Y04933*
X0221*
X02196D02*
X02183Y0492D01*
X0217Y04952D02*
X02164Y04959D01*
X0215*
X02144Y04952*
Y04946*
X0215Y04939*
X02157*
X0215*
X02144Y04933*
Y04926*
X0215Y0492*
X02164*
X0217Y04926*
X02131Y0492D02*
X02118D01*
X02124*
Y04959*
X02131Y04952*
X0209Y0492D02*
Y04959D01*
X0207*
X02063Y04952*
Y04939*
X0207Y04933*
X0209*
X02076D02*
X02063Y0492D01*
X0205Y04952D02*
X02044Y04959D01*
X0203*
X02024Y04952*
Y04946*
X0203Y04939*
X02037*
X0203*
X02024Y04933*
Y04926*
X0203Y0492*
X02044*
X0205Y04926*
X01985Y0492D02*
X02011D01*
X01985Y04946*
Y04952*
X01991Y04959*
X02004*
X02011Y04952*
X0216Y0477D02*
Y04809D01*
X0214*
X02133Y04802*
Y04789*
X0214Y04783*
X0216*
X02146D02*
X02133Y0477D01*
X0212Y04802D02*
X02114Y04809D01*
X021*
X02094Y04802*
Y04796*
X021Y04789*
X02107*
X021*
X02094Y04783*
Y04776*
X021Y0477*
X02114*
X0212Y04776*
X02081Y04802D02*
X02074Y04809D01*
X02061*
X02055Y04802*
Y04796*
X02061Y04789*
X02068*
X02061*
X02055Y04783*
Y04776*
X02061Y0477*
X02074*
X02081Y04776*
X0253Y05175D02*
Y05214D01*
X0251*
X02503Y05207*
Y05194*
X0251Y05188*
X0253*
X02516D02*
X02503Y05175D01*
X0249Y05207D02*
X02484Y05214D01*
X0247*
X02464Y05207*
Y05201*
X0247Y05194*
X02477*
X0247*
X02464Y05188*
Y05181*
X0247Y05175*
X02484*
X0249Y05181*
X02431Y05175D02*
Y05214D01*
X02451Y05194*
X02425*
X0253Y05125D02*
Y05164D01*
X0251*
X02503Y05157*
Y05144*
X0251Y05138*
X0253*
X02516D02*
X02503Y05125D01*
X0249Y05157D02*
X02484Y05164D01*
X0247*
X02464Y05157*
Y05151*
X0247Y05144*
X02477*
X0247*
X02464Y05138*
Y05131*
X0247Y05125*
X02484*
X0249Y05131*
X02425Y05164D02*
X02451D01*
Y05144*
X02438Y05151*
X02431*
X02425Y05144*
Y05131*
X02431Y05125*
X02444*
X02451Y05131*
X07152Y05838D02*
Y05878D01*
X07132*
X07125Y05871*
Y05858*
X07132Y05851*
X07152*
X07138D02*
X07125Y05838D01*
X07086Y05878D02*
X07112D01*
Y05858*
X07099Y05864*
X07092*
X07086Y05858*
Y05845*
X07092Y05838*
X07106*
X07112Y05845*
X07073Y05871D02*
X07066Y05878D01*
X07053*
X07047Y05871*
Y05864*
X07053Y05858*
X07047Y05851*
Y05845*
X07053Y05838*
X07066*
X07073Y05845*
Y05851*
X07066Y05858*
X07073Y05864*
Y05871*
X07066Y05858D02*
X07053D01*
X07275Y05235D02*
Y05274D01*
X07255*
X07248Y05267*
Y05254*
X07255Y05248*
X07275*
X07261D02*
X07248Y05235D01*
X07209Y05274D02*
X07222Y05267D01*
X07235Y05254*
Y05241*
X07229Y05235*
X07215*
X07209Y05241*
Y05248*
X07215Y05254*
X07235*
X0717Y05235D02*
X07196D01*
X0717Y05261*
Y05267*
X07176Y05274*
X07189*
X07196Y05267*
X08015Y0578D02*
Y05819D01*
X07995*
X07988Y05812*
Y05799*
X07995Y05793*
X08015*
X08001D02*
X07988Y0578D01*
X07975Y05819D02*
X07949D01*
Y05812*
X07975Y05786*
Y0578*
X0791D02*
X07936D01*
X0791Y05806*
Y05812*
X07916Y05819*
X07929*
X07936Y05812*
X0763Y0582D02*
Y05859D01*
X0761*
X07603Y05853*
Y05839*
X0761Y05833*
X0763*
X07616D02*
X07603Y0582D01*
X0759Y05859D02*
X07564D01*
Y05853*
X0759Y05826*
Y0582*
X07525Y05859D02*
X07551D01*
Y05839*
X07538Y05846*
X07531*
X07525Y05839*
Y05826*
X07531Y0582*
X07544*
X07551Y05826*
X0095Y01449D02*
X00923D01*
X00936*
Y0141*
X0091D02*
X00897D01*
X00904*
Y01449*
X0091Y01442*
X0218Y05289D02*
Y05256D01*
X02173Y0525*
X0216*
X02153Y05256*
Y05289*
X0214Y0525D02*
X02127D01*
X02134*
Y05289*
X0214Y05282*
X02107Y05289D02*
X02081D01*
Y05282*
X02107Y05256*
Y0525*
X0728Y05529D02*
Y05496D01*
X07273Y0549*
X0726*
X07253Y05496*
Y05529*
X07214Y0549D02*
X0724D01*
X07214Y05516*
Y05522*
X0722Y05529*
X07234*
X0724Y05522*
X07175Y05529D02*
X07188Y05522D01*
X07201Y05509*
Y05496*
X07194Y0549*
X07181*
X07175Y05496*
Y05503*
X07181Y05509*
X07201*
X0781Y05764D02*
Y05731D01*
X07803Y05725*
X0779*
X07783Y05731*
Y05764*
X07744Y05725D02*
X0777D01*
X07744Y05751*
Y05757*
X0775Y05764*
X07764*
X0777Y05757*
X07731Y05731D02*
X07724Y05725D01*
X07711*
X07705Y05731*
Y05757*
X07711Y05764*
X07724*
X07731Y05757*
Y05751*
X07724Y05744*
X07705*
M02*