%FSTAX23Y23*%
%MOIN*%
%SFA1B1*%

%IPPOS*%
%ADD205C,0.003937*%
%ADD313R,0.964570X0.866144*%
%LNsyncbox_mechanical_1-1*%
%LPD*%
G54D205*
X07462Y02252D02*
D01*
X07462Y02256*
X07462Y0226*
X07461Y02265*
X0746Y02269*
X07459Y02273*
X07457Y02277*
X07455Y02281*
X07453Y02285*
X0745Y02289*
X07448Y02292*
X07445Y02295*
X07442Y02298*
X07438Y02301*
X07435Y02304*
X07431Y02306*
X07427Y02308*
X07423Y0231*
X07419Y02311*
X07415Y02313*
X0741Y02314*
X07406Y02314*
X07402Y02314*
X07397*
X07393Y02314*
X07389Y02314*
X07384Y02313*
X0738Y02311*
X07376Y0231*
X07372Y02308*
X07368Y02306*
X07364Y02304*
X07361Y02301*
X07357Y02298*
X07354Y02295*
X07351Y02292*
X07349Y02289*
X07346Y02285*
X07344Y02281*
X07342Y02277*
X0734Y02273*
X07339Y02269*
X07338Y02265*
X07337Y0226*
X07337Y02256*
X07337Y02252*
X07337Y02247*
X07337Y02243*
X07338Y02238*
X07339Y02234*
X0734Y0223*
X07342Y02226*
X07344Y02222*
X07346Y02218*
X07349Y02214*
X07351Y02211*
X07354Y02208*
X07357Y02205*
X07361Y02202*
X07364Y02199*
X07368Y02197*
X07372Y02195*
X07376Y02193*
X0738Y02192*
X07384Y0219*
X07389Y02189*
X07393Y02189*
X07397Y02189*
X07402*
X07406Y02189*
X0741Y02189*
X07415Y0219*
X07419Y02192*
X07423Y02193*
X07427Y02195*
X07431Y02197*
X07435Y02199*
X07438Y02202*
X07442Y02205*
X07445Y02208*
X07448Y02211*
X0745Y02214*
X07453Y02218*
X07455Y02222*
X07457Y02226*
X07459Y0223*
X0746Y02234*
X07461Y02238*
X07462Y02243*
X07462Y02247*
X07462Y02252*
X04336Y00612D02*
X04356D01*
X04336Y00599*
X04356*
Y00583D02*
Y00589D01*
X04352Y00593*
X04339*
X04336Y00589*
Y00583*
X04339Y0058*
X04352*
X04356Y00583*
Y00573D02*
Y0056D01*
Y00566*
X04336*
X04356Y0054D02*
Y00553D01*
X04336*
Y0054*
X04346Y00553D02*
Y00547D01*
X04349Y00534D02*
Y0053D01*
X04346*
Y00534*
X04349*
X04339D02*
Y0053D01*
X04336*
Y00534*
X04339*
X04356Y00498D02*
X04336D01*
X04346*
Y00484*
X04356*
X04336*
Y00475D02*
Y00468D01*
X04339Y00465*
X04346*
X04349Y00468*
Y00475*
X04346Y00478*
X04339*
X04336Y00475*
Y00458D02*
Y00452D01*
Y00455*
X04356*
Y00458*
X04336Y00432D02*
Y00439D01*
X04339Y00442*
X04346*
X04349Y00439*
Y00432*
X04346Y00429*
X04343*
Y00442*
X04336Y00422D02*
Y00412D01*
X04339Y00409*
X04343Y00412*
Y00419*
X04346Y00422*
X04349Y00419*
Y00409*
Y0038D02*
Y00373D01*
X04346Y0037*
X04336*
Y0038*
X04339Y00383*
X04343Y0038*
Y0037*
X04349Y00363D02*
X04336D01*
X04343*
X04346Y0036*
X04349Y00357*
Y00353*
X04336Y00334D02*
Y0034D01*
X04339Y00343*
X04346*
X04349Y0034*
Y00334*
X04346Y0033*
X04343*
Y00343*
X04356Y00304D02*
X04336D01*
Y00294*
X04339Y00291*
X04343*
X04346*
X04349Y00294*
Y00304*
X04336Y00284D02*
Y00278D01*
Y00281*
X04349*
Y00284*
X04329Y00261D02*
Y00258D01*
X04333Y00255*
X04349*
Y00265*
X04346Y00268*
X04339*
X04336Y00265*
Y00255*
X04349Y00225D02*
Y00219D01*
X04346Y00216*
X04336*
Y00225*
X04339Y00229*
X04343Y00225*
Y00216*
X04336Y00209D02*
X04349D01*
Y00199*
X04346Y00196*
X04336*
X04356Y00176D02*
X04336D01*
Y00186*
X04339Y00189*
X04346*
X04349Y00186*
Y00176*
Y00137D02*
Y00147D01*
X04346Y0015*
X04339*
X04336Y00147*
Y00137*
Y00127D02*
Y0012D01*
X04339Y00117*
X04346*
X04349Y0012*
Y00127*
X04346Y0013*
X04339*
X04336Y00127*
Y00111D02*
X04349D01*
Y00101*
X04346Y00097*
X04336*
Y00091D02*
X04349D01*
Y00081*
X04346Y00078*
X04336*
Y00061D02*
Y00068D01*
X04339Y00071*
X04346*
X04349Y00068*
Y00061*
X04346Y00058*
X04343*
Y00071*
X04349Y00038D02*
Y00048D01*
X04346Y00052*
X04339*
X04336Y00048*
Y00038*
X04352Y00029D02*
X04349D01*
Y00032*
Y00025*
Y00029*
X04339*
X04336Y00025*
Y00012D02*
Y00006D01*
X04339Y00002*
X04346*
X04349Y00006*
Y00012*
X04346Y00015*
X04339*
X04336Y00012*
X04349Y-00003D02*
X04336D01*
X04343*
X04346Y-00006*
X04349Y-0001*
Y-00013*
X04308Y00599D02*
X04289D01*
Y00609*
X04292Y00612*
X04299*
X04302Y00609*
Y00599*
X04289Y00589D02*
Y00583D01*
X04292Y0058*
X04299*
X04302Y00583*
Y00589*
X04299Y00593*
X04292*
X04289Y00589*
Y00563D02*
Y0057D01*
X04292Y00573*
X04299*
X04302Y0057*
Y00563*
X04299Y0056*
X04295*
Y00573*
X04289Y00553D02*
Y00544D01*
X04292Y0054*
X04295Y00544*
Y0055*
X04299Y00553*
X04302Y0055*
Y0054*
X04289Y00534D02*
X04302D01*
Y00524*
X04299Y00521*
X04289*
X04305Y00511D02*
X04302D01*
Y00514*
Y00507*
Y00511*
X04292*
X04289Y00507*
Y00475D02*
X04305D01*
X04299*
Y00478*
Y00471*
Y00475*
X04305*
X04308Y00471*
X04289Y00462D02*
Y00455D01*
Y00458*
X04302*
Y00462*
X04305Y00442D02*
X04302D01*
Y00445*
Y00439*
Y00442*
X04292*
X04289Y00439*
Y00406D02*
Y00399D01*
X04292Y00396*
X04299*
X04302Y00399*
Y00406*
X04299Y00409*
X04292*
X04289Y00406*
Y00389D02*
X04302D01*
Y0038*
X04299Y00376*
X04289*
Y00347D02*
Y0034D01*
X04292Y00337*
X04299*
X04302Y0034*
Y00347*
X04299Y0035*
X04292*
X04289Y00347*
Y0033D02*
X04302D01*
Y00321*
X04299Y00317*
X04289*
Y00301D02*
Y00307D01*
X04292Y00311*
X04299*
X04302Y00307*
Y00301*
X04299Y00298*
X04295*
Y00311*
X04282Y00271D02*
X04302D01*
Y00261*
X04299Y00258*
X04292*
X04289Y00261*
Y00271*
Y00252D02*
Y00245D01*
Y00248*
X04308*
Y00252*
X04302Y00232D02*
Y00225D01*
X04299Y00222*
X04289*
Y00232*
X04292Y00235*
X04295Y00232*
Y00222*
X04302Y00202D02*
Y00212D01*
X04299Y00216*
X04292*
X04289Y00212*
Y00202*
Y00186D02*
Y00193D01*
X04292Y00196*
X04299*
X04302Y00193*
Y00186*
X04299Y00183*
X04295*
Y00196*
X04289Y00176D02*
X04292D01*
Y00173*
X04289*
Y00176*
X04308Y0014D02*
X04289D01*
Y0013*
X04292Y00127*
X04295*
X04299Y0013*
Y0014*
Y0013*
X04302Y00127*
X04305*
X04308Y0013*
Y0014*
X04289Y00117D02*
Y00111D01*
X04292Y00107*
X04299*
X04302Y00111*
Y00117*
X04299Y0012*
X04292*
X04289Y00117*
X04305Y00097D02*
X04302D01*
Y00101*
Y00094*
Y00097*
X04292*
X04289Y00094*
X04305Y00081D02*
X04302D01*
Y00084*
Y00078*
Y00081*
X04292*
X04289Y00078*
Y00065D02*
Y00058D01*
X04292Y00055*
X04299*
X04302Y00058*
Y00065*
X04299Y00068*
X04292*
X04289Y00065*
Y00048D02*
X04302D01*
Y00045*
X04299Y00042*
X04289*
X04299*
X04302Y00038*
X04299Y00035*
X04289*
X04235Y00616D02*
X04255D01*
Y00607*
X04251Y00603*
X04245*
X04241Y00607*
Y00616*
Y00597D02*
Y0059D01*
Y00593*
X04261*
Y00597*
X04255Y00577D02*
Y0057D01*
X04251Y00567*
X04241*
Y00577*
X04245Y0058*
X04248Y00577*
Y00567*
X04241Y00561D02*
Y00551D01*
X04245Y00547*
X04248Y00551*
Y00557*
X04251Y00561*
X04255Y00557*
Y00547*
X04258Y00538D02*
X04255D01*
Y00541*
Y00534*
Y00538*
X04245*
X04241Y00534*
Y00525D02*
Y00518D01*
Y00521*
X04255*
Y00525*
Y00495D02*
Y00505D01*
X04251Y00508*
X04245*
X04241Y00505*
Y00495*
Y00469D02*
X04255D01*
Y00465*
X04251Y00462*
X04241*
X04251*
X04255Y00459*
X04251Y00456*
X04241*
X04255Y00446D02*
Y00439D01*
X04251Y00436*
X04241*
Y00446*
X04245Y00449*
X04248Y00446*
Y00436*
X04255Y00429D02*
X04245D01*
X04241Y00426*
Y00416*
X04238*
X04235Y0042*
Y00423*
X04241Y00416D02*
X04255D01*
X04235Y00383D02*
Y0038D01*
X04238Y00377*
X04255*
Y00387*
X04251Y0039*
X04245*
X04241Y00387*
Y00377*
Y00367D02*
Y00361D01*
X04245Y00357*
X04251*
X04255Y00361*
Y00367*
X04251Y0037*
X04245*
X04241Y00367*
Y00328D02*
Y00321D01*
X04245Y00318*
X04251*
X04255Y00321*
Y00328*
X04251Y00331*
X04245*
X04241Y00328*
X04255Y00311D02*
X04241Y00305D01*
X04255Y00298*
X04241Y00282D02*
Y00288D01*
X04245Y00292*
X04251*
X04255Y00288*
Y00282*
X04251Y00279*
X04248*
Y00292*
X04255Y00272D02*
X04241D01*
X04248*
X04251Y00269*
X04255Y00265*
Y00262*
X04258Y00229D02*
X04255D01*
Y00233*
Y00226*
Y00229*
X04245*
X04241Y00226*
X04261Y00216D02*
X04241D01*
X04251*
X04255Y00213*
Y00206*
X04251Y00203*
X04241*
Y00187D02*
Y00193D01*
X04245Y00197*
X04251*
X04255Y00193*
Y00187*
X04251Y00183*
X04248*
Y00197*
X04261Y00157D02*
X04241D01*
Y00147*
X04245Y00144*
X04248*
X04251*
X04255Y00147*
Y00157*
X04241Y00134D02*
Y00128D01*
X04245Y00124*
X04251*
X04255Y00128*
Y00134*
X04251Y00137*
X04245*
X04241Y00134*
X04255Y00115D02*
Y00108D01*
X04251Y00105*
X04241*
Y00115*
X04245Y00118*
X04248Y00115*
Y00105*
X04255Y00098D02*
X04241D01*
X04248*
X04251Y00095*
X04255Y00092*
Y00088*
X04261Y00065D02*
X04241D01*
Y00075*
X04245Y00078*
X04251*
X04255Y00075*
Y00065*
X04241Y00029D02*
Y00036D01*
X04245Y00039*
X04251*
X04255Y00036*
Y00029*
X04251Y00026*
X04248*
Y00039*
X04261Y00006D02*
X04241D01*
Y00016*
X04245Y00019*
X04251*
X04255Y00016*
Y00006*
X04235Y-00006D02*
Y-00009D01*
X04238Y-00012*
X04255*
Y-00003*
X04251Y0*
X04245*
X04241Y-00003*
Y-00012*
Y-00029D02*
Y-00022D01*
X04245Y-00019*
X04251*
X04255Y-00022*
Y-00029*
X04251Y-00032*
X04248*
Y-00019*
G54D313*
X05237Y02558D03*
M02*