%FSTAX23Y23*%
%MOIN*%
%SFA1B1*%

%IPPOS*%
%AMD123*
4,1,8,-0.075000,0.015000,-0.075000,-0.015000,-0.060000,-0.030000,0.060000,-0.030000,0.075000,-0.015000,0.075000,0.015000,0.060000,0.030000,-0.060000,0.030000,-0.075000,0.015000,0.0*
1,1,0.030000,-0.060000,0.015000*
1,1,0.030000,-0.060000,-0.015000*
1,1,0.030000,0.060000,-0.015000*
1,1,0.030000,0.060000,0.015000*
%
%AMD126*
4,1,8,-0.059100,0.029500,-0.059100,-0.029500,-0.029500,-0.059100,0.029500,-0.059100,0.059100,-0.029500,0.059100,0.029500,0.029500,0.059100,-0.029500,0.059100,-0.059100,0.029500,0.0*
1,1,0.059056,-0.029500,0.029500*
1,1,0.059056,-0.029500,-0.029500*
1,1,0.059056,0.029500,-0.029500*
1,1,0.059056,0.029500,0.029500*
%
%ADD21R,0.031496X0.031496*%
%ADD39R,0.017716X0.015748*%
%ADD41R,0.051181X0.059055*%
%ADD42R,0.059055X0.051181*%
%ADD46R,0.035433X0.037402*%
%ADD47R,0.035433X0.037402*%
%ADD54R,0.037000X0.046000*%
%ADD55R,0.021000X0.046000*%
%ADD59R,0.015748X0.035528*%
%ADD64R,0.023622X0.019685*%
%ADD65R,0.019685X0.023622*%
%ADD72R,0.019685X0.019685*%
%ADD73R,0.019685X0.019685*%
%ADD80R,0.022000X0.078000*%
%ADD107C,0.196850*%
%ADD108O,0.157480X0.196850*%
%ADD109R,0.078740X0.062992*%
%ADD110O,0.078740X0.062992*%
%ADD111R,0.062992X0.078740*%
%ADD112O,0.062992X0.078740*%
%ADD113C,0.069000*%
%ADD114R,0.066929X0.066929*%
%ADD115C,0.066929*%
%ADD116C,0.157480*%
%ADD117C,0.149606*%
%ADD118C,0.062992*%
%ADD119R,0.062992X0.062992*%
%ADD120C,0.055118*%
%ADD121R,0.055118X0.055118*%
%ADD122C,0.078740*%
G04~CAMADD=123~8~0.0~0.0~600.0~1500.0~150.0~0.0~15~0.0~0.0~0.0~0.0~0~0.0~0.0~0.0~0.0~0~0.0~0.0~0.0~90.0~1500.0~600.0*
%ADD123D123*%
%ADD124C,0.098425*%
%ADD125O,0.098425X0.102362*%
G04~CAMADD=126~8~0.0~0.0~1181.1~1181.1~295.3~0.0~15~0.0~0.0~0.0~0.0~0~0.0~0.0~0.0~0.0~0~0.0~0.0~0.0~90.0~1182.0~1182.0*
%ADD126D126*%
%ADD127C,0.035433*%
%ADD128O,0.098425X0.047244*%
%ADD129R,0.098425X0.047244*%
%ADD130C,0.029528*%
%ADD131R,0.090000X0.090000*%
%ADD132C,0.090000*%
%ADD133C,0.047244*%
%ADD134C,0.086614*%
%ADD135C,0.070866*%
%ADD136C,0.106299*%
%ADD137C,0.051181*%
%ADD138C,0.127953*%
%ADD139C,0.062000*%
%ADD140C,0.060000*%
%ADD141C,0.118110*%
%ADD142C,0.120000*%
%ADD143C,0.050000*%
%ADD144C,0.118110*%
%ADD145O,0.129921X0.157480*%
%ADD146C,0.060000*%
%ADD197R,0.129921X0.129921*%
%ADD198R,0.040000X0.009055*%
%ADD199R,0.009055X0.040000*%
%ADD200R,0.078000X0.021000*%
%ADD201R,0.030000X0.075000*%
%LNsyncbox_pads_bot-1*%
%LPD*%
G54D21*
X0233Y05045D03*
X02389D03*
G54D39*
X0268Y00733D03*
Y00765D03*
X02638Y00749D03*
X03022Y00713D03*
Y00745D03*
X0298Y00729D03*
X02838Y00746D03*
Y00715D03*
X0288Y0073D03*
X033Y00616D03*
Y00585D03*
X03341Y006D03*
G54D41*
X0713Y05325D03*
X0703D03*
X0713Y0568D03*
X0703D03*
G54D42*
X07935Y05665D03*
Y05565D03*
X0758Y05665D03*
Y05565D03*
G54D46*
X05135Y0534D03*
X05097Y05439D03*
G54D47*
X05172Y05439D03*
G54D54*
X01894Y00791D03*
G54D55*
X01961Y00791D03*
Y00711D03*
X01886D03*
G54D59*
X02109Y00792D03*
X0214D03*
X02109Y00713D03*
X0214D03*
X02194Y00792D03*
X02225D03*
X02194Y00713D03*
X02225D03*
X03119Y00959D03*
X0315D03*
X03119Y0088D03*
X0315D03*
X02734Y00959D03*
X02765D03*
X02734Y0088D03*
X02765D03*
X02938Y00959D03*
X0297D03*
X02938Y0088D03*
X0297D03*
G54D64*
X0758Y0574D03*
Y0578D03*
X07135Y05254D03*
Y05215D03*
X0713Y05789D03*
Y0575D03*
X02105Y0485D03*
Y0489D03*
X0206Y0485D03*
Y0489D03*
X02155D03*
Y0485D03*
X02175Y05389D03*
Y0535D03*
X024Y04855D03*
Y04895D03*
X02455Y04855D03*
Y04895D03*
G54D65*
X07969Y0574D03*
X0793D03*
X02325Y05145D03*
X02364D03*
X02325Y0519D03*
X02364D03*
X01755Y0518D03*
X01794D03*
X01779Y0482D03*
X0174D03*
X02279Y0476D03*
X0224D03*
G54D72*
X02365Y0524D03*
X02325D03*
X02325Y051D03*
X02364D03*
X02365Y04995D03*
X02325D03*
X03105Y01195D03*
X03145D03*
X03105Y0114D03*
X03145D03*
G54D73*
X04095Y05735D03*
Y05775D03*
X01755Y05264D03*
Y05225D03*
X0174Y04865D03*
Y04904D03*
G54D80*
X0321Y01257D03*
X0326D03*
X0331D03*
X0336D03*
Y01063D03*
X0331D03*
X0326D03*
X0321D03*
G54D107*
X01215Y05709D03*
Y05965D03*
G54D108*
X01029Y05827D03*
G54D109*
X0633Y01321D03*
X06549Y01319D03*
X05814Y04231D03*
X05593D03*
X0795Y04915D03*
X08055D03*
X07Y0502D03*
X04697Y00996D03*
X05222Y01771D03*
X05093Y01774D03*
X04548Y00994D03*
X0505Y01111D03*
X04694Y01129D03*
X04547Y01132D03*
X04903Y01008D03*
X05242Y01618D03*
X05104Y01617D03*
X0583Y01272D03*
X0569Y01273D03*
X05048Y01223D03*
X04903Y01325D03*
X068Y04985D03*
G54D110*
X0633Y01221D03*
Y01121D03*
X06549Y01219D03*
Y01119D03*
X05814Y04131D03*
Y04031D03*
X05593Y04131D03*
Y04031D03*
X0795Y04815D03*
Y04715D03*
X08055Y04815D03*
Y04715D03*
X07Y0492D03*
Y0482D03*
X04697Y00896D03*
X05222Y01871D03*
X05093Y01874D03*
X04548Y00894D03*
X0505Y01011D03*
X04694Y01229D03*
X04547Y01232D03*
X04903Y01108D03*
X05242Y01518D03*
X05104Y01517D03*
X0583Y01372D03*
X0569Y01373D03*
X05048Y01323D03*
X04903Y01225D03*
X068Y04885D03*
G54D111*
X06136Y04092D03*
X0718Y0455D03*
G54D112*
X06236Y04092D03*
X06336D03*
X0728Y0455D03*
X0738D03*
G54D113*
X01973Y02359D03*
X04245D03*
G54D114*
X0553Y0373D03*
G54D115*
X0553Y0363D03*
Y0353D03*
Y0343D03*
Y0333D03*
X0563Y0373D03*
Y0363D03*
Y0353D03*
Y0343D03*
Y0333D03*
G54D116*
X0531Y0603D03*
X0511D03*
X0491D03*
X04494Y00178D03*
X05473Y0018D03*
X04493Y00493D03*
X05472Y00491D03*
X058Y00178D03*
X06779Y0018D03*
X05799Y00493D03*
X06778Y00491D03*
G54D117*
X07285Y00295D03*
X07759D03*
G54D118*
X07472Y00401D03*
X07571D03*
X07472Y0048D03*
G54D119*
X07571Y0048D03*
G54D120*
X03725Y05145D03*
X03646D03*
X03567D03*
X04205Y0512D03*
X04126D03*
X04047D03*
G54D121*
X03488Y05145D03*
X03968Y0512D03*
G54D122*
X00915Y02611D03*
Y03917D03*
X0504Y00445D03*
X04931D03*
X04822D03*
X05204Y00295D03*
X05094D03*
X04985D03*
X04876D03*
X04767D03*
X05149Y00183D03*
X0504D03*
X04931D03*
X04822D03*
X05204Y00557D03*
X05095D03*
X04985D03*
X04876D03*
X04767Y00556D03*
X05149Y00445D03*
X06346D03*
X06237D03*
X06128D03*
X0651Y00295D03*
X064D03*
X06291D03*
X06182D03*
X06073D03*
X06455Y00183D03*
X06346D03*
X06237D03*
X06128D03*
X0651Y00557D03*
X06401D03*
X06291D03*
X06182D03*
X06073Y00556D03*
X06455Y00445D03*
X04796Y0256D03*
X05584D03*
G54D123*
X00946Y02527D03*
X00944Y04D03*
G54D124*
X0219Y05605D03*
X01915D03*
X03911Y0603D03*
X04108D03*
X04305D03*
X04501D03*
G54D125*
X03714Y0603D03*
G54D126*
X02616Y00489D03*
X02611Y00266D03*
X03134Y00489D03*
Y00266D03*
G54D127*
X03013Y00345D03*
X02915D03*
X02836D03*
X02737D03*
X02718Y00404D03*
X02796D03*
X02875D03*
X02954D03*
X03033D03*
Y0053D03*
X02954D03*
X02875D03*
X02796D03*
X02718D03*
X02737Y0047D03*
X02836D03*
X02915D03*
X03013D03*
G54D128*
X0656Y0499D03*
Y0489D03*
Y0479D03*
G54D129*
X0656Y0469D03*
G54D130*
X074Y02273D03*
Y0223D03*
G54D131*
X05733Y06035D03*
G54D132*
X05932Y06035D03*
X06132D03*
X06331D03*
X0653D03*
X0673D03*
X06929D03*
X07128D03*
X07327D03*
X07527D03*
X07726D03*
X07925D03*
G54D133*
X07241Y0262D03*
X07399D03*
X03758Y04507D03*
X03915D03*
G54D134*
X02782Y05985D03*
X02507D03*
X02922D03*
X03197D03*
G54D135*
X02733Y06084D03*
X02556D03*
X02971D03*
X03148D03*
G54D136*
X00975Y00272D03*
X01615D03*
G54D137*
X01435Y00237D03*
X01395Y00307D03*
X01355Y00237D03*
X01315Y00307D03*
X01275Y00237D03*
X01235Y00307D03*
X01195Y00237D03*
X01155Y00307D03*
G54D138*
X01045Y00137D03*
X01545D03*
G54D139*
X01475Y00497D03*
X01565D03*
X01115D03*
X01025D03*
G54D140*
X06071Y0186D03*
X06Y0193D03*
X0593Y02001D03*
X05859Y02072D03*
X05788Y02142D03*
X06Y01789D03*
X0593Y0186D03*
X05859Y0193D03*
X05788Y02001D03*
X05717Y02072D03*
X02273Y00397D03*
X01997Y005D03*
X02096D03*
X02175D03*
X02273D03*
X02175Y00397D03*
X02096D03*
X01997D03*
G54D141*
X02394Y0029D03*
X01876D03*
X02394Y00514D03*
X01876D03*
G54D142*
X02381Y0538D03*
X01155Y0454D03*
X0302Y0504D03*
X01595Y0542D03*
G54D143*
X0588Y05325D03*
Y05525D03*
Y05625D03*
Y05725D03*
X0608D03*
Y05625D03*
Y05525D03*
Y05325D03*
X0652Y0532D03*
Y0552D03*
Y0562D03*
Y0572D03*
X0672D03*
Y0562D03*
Y0552D03*
Y0532D03*
G54D144*
X04149Y00224D03*
X03578D03*
G54D145*
X03578Y00459D03*
X04149D03*
G54D146*
X0206Y01417D03*
X0421Y0259D03*
X0142Y0535D03*
G54D197*
X02125Y0511D03*
G54D198*
X02227Y05178D03*
Y05159D03*
Y05139D03*
Y05119D03*
Y051D03*
Y0508D03*
Y0506D03*
Y05041D03*
X02022D03*
Y0506D03*
Y0508D03*
Y051D03*
Y05119D03*
Y05139D03*
Y05159D03*
Y05178D03*
G54D199*
X02193Y05007D03*
X02174D03*
X02154D03*
X02134D03*
X02115D03*
X02095D03*
X02075D03*
X02056D03*
Y05212D03*
X02075D03*
X02095D03*
X02115D03*
X02134D03*
X02154D03*
X02174D03*
X02193D03*
G54D200*
X04292Y0554D03*
Y0559D03*
Y0564D03*
Y0569D03*
X04098D03*
Y0564D03*
Y0559D03*
Y0554D03*
G54D201*
X01595Y0098D03*
X01545D03*
X01495D03*
X01445D03*
X01395D03*
X01345D03*
X01295D03*
X01245D03*
X01195D03*
X01145D03*
X01095D03*
X01045D03*
X01595Y01555D03*
X01545D03*
X01495D03*
X01445D03*
X01395D03*
X01345D03*
X01295D03*
X01245D03*
X01195D03*
X01145D03*
X01095D03*
X01045D03*
M02*