%FSTAX23Y23*%
%MOIN*%
%SFA1B1*%

%IPPOS*%
%AMD154*
1,1,0.145669,0.000000,0.000000*
1,0,0.129921,0.000000,0.000000*
4,0,4,0.044500,0.058400,-0.058400,-0.044500,-0.044500,-0.058400,0.058400,0.044500,0.044500,0.058400,0.0*
4,0,4,-0.044500,0.058400,0.058400,-0.044500,0.044500,-0.058400,-0.058400,0.044500,-0.044500,0.058400,0.0*
%
%AMD155*
1,1,0.082677,0.000000,0.000000*
1,0,0.066929,0.000000,0.000000*
4,0,4,0.022300,0.036100,-0.036100,-0.022300,-0.022300,-0.036100,0.036100,0.022300,0.022300,0.036100,0.0*
4,0,4,-0.022300,0.036100,0.036100,-0.022300,0.022300,-0.036100,-0.036100,0.022300,-0.022300,0.036100,0.0*
%
%AMD157*
1,1,0.078740,0.000000,0.000000*
1,0,0.062992,0.000000,0.000000*
4,0,4,0.020900,0.034700,-0.034700,-0.020900,-0.020900,-0.034700,0.034700,0.020900,0.020900,0.034700,0.0*
4,0,4,-0.020900,0.034700,0.034700,-0.020900,0.020900,-0.034700,-0.034700,0.020900,-0.020900,0.034700,0.0*
%
%AMD159*
1,1,0.109370,0.000000,0.000000*
1,0,0.093622,0.000000,0.000000*
4,0,4,0.031700,0.045500,-0.045500,-0.031700,-0.031700,-0.045500,0.045500,0.031700,0.031700,0.045500,0.0*
4,0,4,-0.031700,0.045500,0.045500,-0.031700,0.031700,-0.045500,-0.045500,0.031700,-0.031700,0.045500,0.0*
%
%AMD160*
1,1,0.070866,0.000000,0.000000*
1,0,0.055118,0.000000,0.000000*
4,0,4,0.018100,0.032000,-0.032000,-0.018100,-0.018100,-0.032000,0.032000,0.018100,0.018100,0.032000,0.0*
4,0,4,-0.018100,0.032000,0.032000,-0.018100,0.018100,-0.032000,-0.032000,0.018100,-0.018100,0.032000,0.0*
%
%AMD165*
1,1,0.165354,0.000000,0.000000*
1,0,0.149606,0.000000,0.000000*
4,0,4,0.051500,0.065300,-0.065300,-0.051500,-0.051500,-0.065300,0.065300,0.051500,0.051500,0.065300,0.0*
4,0,4,-0.051500,0.065300,0.065300,-0.051500,0.051500,-0.065300,-0.065300,0.051500,-0.051500,0.065300,0.0*
%
%AMD166*
1,1,0.102362,0.000000,0.000000*
1,0,0.086614,0.000000,0.000000*
4,0,4,0.029200,0.043100,-0.043100,-0.029200,-0.029200,-0.043100,0.043100,0.029200,0.029200,0.043100,0.0*
4,0,4,-0.029200,0.043100,0.043100,-0.029200,0.029200,-0.043100,-0.043100,0.029200,-0.029200,0.043100,0.0*
%
%AMD168*
1,1,0.129921,0.000000,0.000000*
1,0,0.114173,0.000000,0.000000*
4,0,4,0.039000,0.052800,-0.052800,-0.039000,-0.039000,-0.052800,0.052800,0.039000,0.039000,0.052800,0.0*
4,0,4,-0.039000,0.052800,0.052800,-0.039000,0.039000,-0.052800,-0.052800,0.039000,-0.039000,0.052800,0.0*
%
%AMD169*
1,1,0.066929,0.000000,0.000000*
1,0,0.051181,0.000000,0.000000*
4,0,4,0.016700,0.030500,-0.030500,-0.016700,-0.016700,-0.030500,0.030500,0.016700,0.016700,0.030500,0.0*
4,0,4,-0.016700,0.030500,0.030500,-0.016700,0.016700,-0.030500,-0.030500,0.016700,-0.016700,0.030500,0.0*
%
%AMD171*
4,1,4,0.025600,-0.030600,-0.025500,-0.030600,-0.025500,0.030700,0.025600,0.030700,0.025600,-0.030600,0.0*
4,0,4,0.017800,-0.022800,-0.017700,-0.022800,-0.017700,0.022900,0.017800,0.022900,0.017800,-0.022800,0.0*
20,0,0.019685,0.000000,-0.005000,0.051100,-0.056200,0.0*
20,0,0.019685,0.000000,0.005000,-0.051100,0.056200,0.0*
20,0,0.019685,0.000000,-0.005000,-0.051100,-0.056200,0.0*
20,0,0.019685,0.000000,0.005000,0.051100,0.056200,0.0*
%
%AMD175*
1,1,0.090551,0.000000,0.000000*
1,0,0.074803,0.000000,0.000000*
4,0,4,0.025000,0.038900,-0.038900,-0.025000,-0.025000,-0.038900,0.038900,0.025000,0.025000,0.038900,0.0*
4,0,4,-0.025000,0.038900,0.038900,-0.025000,0.025000,-0.038900,-0.038900,0.025000,-0.025000,0.038900,0.0*
%
%AMD179*
1,1,0.079370,0.000000,0.000000*
1,0,0.063622,0.000000,0.000000*
4,0,4,0.021100,0.034900,-0.034900,-0.021100,-0.021100,-0.034900,0.034900,0.021100,0.021100,0.034900,0.0*
4,0,4,-0.021100,0.034900,0.034900,-0.021100,0.021100,-0.034900,-0.034900,0.021100,-0.021100,0.034900,0.0*
%
%AMD180*
1,1,0.133858,0.000000,0.000000*
1,0,0.118110,0.000000,0.000000*
4,0,4,0.040400,0.054200,-0.054200,-0.040400,-0.040400,-0.054200,0.054200,0.040400,0.040400,0.054200,0.0*
4,0,4,-0.040400,0.054200,0.054200,-0.040400,0.040400,-0.054200,-0.054200,0.040400,-0.040400,0.054200,0.0*
%
%AMD182*
1,1,0.089370,0.000000,0.000000*
1,0,0.073622,0.000000,0.000000*
4,0,4,0.024600,0.038500,-0.038500,-0.024600,-0.024600,-0.038500,0.038500,0.024600,0.024600,0.038500,0.0*
4,0,4,-0.024600,0.038500,0.038500,-0.024600,0.024600,-0.038500,-0.038500,0.024600,-0.024600,0.038500,0.0*
%
%AMD184*
1,1,0.118110,0.000000,0.000000*
1,0,0.102362,0.000000,0.000000*
4,0,4,0.034800,0.048600,-0.048600,-0.034800,-0.034800,-0.048600,0.048600,0.034800,0.034800,0.048600,0.0*
4,0,4,-0.034800,0.048600,0.048600,-0.034800,0.034800,-0.048600,-0.048600,0.034800,-0.034800,0.048600,0.0*
%
%AMD185*
1,1,0.157480,0.000000,0.000000*
1,0,0.141732,0.000000,0.000000*
4,0,4,0.048700,0.062600,-0.062600,-0.048700,-0.048700,-0.062600,0.062600,0.048700,0.048700,0.062600,0.0*
4,0,4,-0.048700,0.062600,0.062600,-0.048700,0.048700,-0.062600,-0.062600,0.048700,-0.048700,0.062600,0.0*
%
%AMD186*
1,1,0.069370,0.000000,0.000000*
1,0,0.053622,0.000000,0.000000*
4,0,4,0.017500,0.031400,-0.031400,-0.017500,-0.017500,-0.031400,0.031400,0.017500,0.017500,0.031400,0.0*
4,0,4,-0.017500,0.031400,0.031400,-0.017500,0.017500,-0.031400,-0.031400,0.017500,-0.017500,0.031400,0.0*
%
%ADD115C,0.066929*%
%ADD117C,0.149606*%
%ADD118C,0.062992*%
%ADD120C,0.055118*%
%ADD137C,0.051181*%
%ADD144C,0.118110*%
%ADD153C,0.039370*%
G04~CAMADD=154~12~0.0~0.0~0.0~0.0~0.0~0.0~0~1456.7~1299.2~0.0~45.0~4~196.8~0.0~0.0~0.0~0~0.0~0.0~0.0~0.0~1456.7~1456.7*
%ADD154D154*%
G04~CAMADD=155~12~0.0~0.0~0.0~0.0~0.0~0.0~0~826.8~669.3~0.0~45.0~4~196.8~0.0~0.0~0.0~0~0.0~0.0~0.0~0.0~826.8~826.8*
%ADD155D155*%
%ADD156C,0.092622*%
G04~CAMADD=157~12~0.0~0.0~0.0~0.0~0.0~0.0~0~787.4~629.9~0.0~45.0~4~196.8~0.0~0.0~0.0~0~0.0~0.0~0.0~0.0~787.4~787.4*
%ADD157D157*%
%ADD158C,0.093622*%
G04~CAMADD=159~12~0.0~0.0~0.0~0.0~0.0~0.0~0~1093.7~936.2~0.0~45.0~4~196.8~0.0~0.0~0.0~0~0.0~0.0~0.0~0.0~1093.7~1093.7*
%ADD159D159*%
G04~CAMADD=160~12~0.0~0.0~0.0~0.0~0.0~0.0~0~708.7~551.2~0.0~45.0~4~196.8~0.0~0.0~0.0~0~0.0~0.0~0.0~0.0~708.7~708.7*
%ADD160D160*%
%ADD161C,0.088622*%
%ADD162O,0.143622X0.053622*%
%ADD163C,0.102362*%
%ADD164C,0.096457*%
G04~CAMADD=165~12~0.0~0.0~0.0~0.0~0.0~0.0~0~1653.5~1496.1~0.0~45.0~4~196.8~0.0~0.0~0.0~0~0.0~0.0~0.0~0.0~1653.5~1653.5*
%ADD165D165*%
G04~CAMADD=166~12~0.0~0.0~0.0~0.0~0.0~0.0~0~1023.6~866.1~0.0~45.0~4~196.8~0.0~0.0~0.0~0~0.0~0.0~0.0~0.0~1023.6~1023.6*
%ADD166D166*%
%ADD167C,0.086614*%
G04~CAMADD=168~12~0.0~0.0~0.0~0.0~0.0~0.0~0~1299.2~1141.7~0.0~45.0~4~196.8~0.0~0.0~0.0~0~0.0~0.0~0.0~0.0~1299.2~1299.2*
%ADD168D168*%
G04~CAMADD=169~12~0.0~0.0~0.0~0.0~0.0~0.0~0~669.3~511.8~0.0~45.0~4~196.8~0.0~0.0~0.0~0~0.0~0.0~0.0~0.0~669.3~669.3*
%ADD169D169*%
%ADD170R,0.035433X0.045622*%
%ADD171D171*%
%ADD172C,0.043307*%
%ADD173C,0.083622*%
%ADD174C,0.047244*%
G04~CAMADD=175~12~0.0~0.0~0.0~0.0~0.0~0.0~0~905.5~748.0~0.0~45.0~4~196.8~0.0~0.0~0.0~0~0.0~0.0~0.0~0.0~905.5~905.5*
%ADD175D175*%
%ADD176C,0.059055*%
%ADD177C,0.151575*%
%ADD178C,0.063622*%
G04~CAMADD=179~12~0.0~0.0~0.0~0.0~0.0~0.0~0~793.7~636.2~0.0~45.0~4~196.8~0.0~0.0~0.0~0~0.0~0.0~0.0~0.0~793.7~793.7*
%ADD179D179*%
G04~CAMADD=180~12~0.0~0.0~0.0~0.0~0.0~0.0~0~1338.6~1181.1~0.0~45.0~4~196.8~0.0~0.0~0.0~0~0.0~0.0~0.0~0.0~1338.6~1338.6*
%ADD180D180*%
%ADD181C,0.073622*%
G04~CAMADD=182~12~0.0~0.0~0.0~0.0~0.0~0.0~0~893.7~736.2~0.0~45.0~4~196.8~0.0~0.0~0.0~0~0.0~0.0~0.0~0.0~893.7~893.7*
%ADD182D182*%
%ADD183C,0.053622*%
G04~CAMADD=184~12~0.0~0.0~0.0~0.0~0.0~0.0~0~1181.1~1023.6~0.0~45.0~4~196.8~0.0~0.0~0.0~0~0.0~0.0~0.0~0.0~1181.1~1181.1*
%ADD184D184*%
G04~CAMADD=185~12~0.0~0.0~0.0~0.0~0.0~0.0~0~1574.8~1417.3~0.0~45.0~4~196.8~0.0~0.0~0.0~0~0.0~0.0~0.0~0.0~1574.8~1574.8*
%ADD185D185*%
G04~CAMADD=186~12~0.0~0.0~0.0~0.0~0.0~0.0~0~693.7~536.2~0.0~45.0~4~196.8~0.0~0.0~0.0~0~0.0~0.0~0.0~0.0~693.7~693.7*
%ADD186D186*%
%ADD187C,0.053622*%
%ADD188C,0.133858*%
%ADD189C,0.149606*%
%ADD190C,0.417323*%
%ADD191C,0.031496*%
%ADD192C,0.043307*%
%ADD193C,0.038622*%
%LNsyncbox_copper_plane_1-1*%
%LPD*%
G54D115*
X0633Y01321D03*
Y01121D03*
X06549Y01319D03*
Y01119D03*
X05814Y04231D03*
Y04031D03*
X05593Y04231D03*
Y04031D03*
X06136Y04092D03*
X06336D03*
X0718Y0455D03*
X0728D03*
X0738D03*
X0795Y04915D03*
Y04815D03*
Y04715D03*
X08055Y04915D03*
Y04815D03*
Y04715D03*
X07Y0502D03*
Y0492D03*
Y0482D03*
X04697Y00996D03*
Y00896D03*
X05222Y01771D03*
Y01871D03*
X05093Y01774D03*
Y01874D03*
X04548Y00994D03*
Y00894D03*
X0505Y01111D03*
Y01011D03*
X04694Y01129D03*
Y01229D03*
X04547Y01132D03*
Y01232D03*
X04903Y01008D03*
Y01108D03*
X05242Y01618D03*
Y01518D03*
X05104Y01617D03*
Y01517D03*
X0583Y01272D03*
Y01372D03*
X0569Y01273D03*
Y01373D03*
X05048Y01223D03*
Y01323D03*
X04903Y01325D03*
Y01225D03*
X068Y04985D03*
Y04885D03*
X0504Y00445D03*
X04931D03*
X04822D03*
X05204Y00295D03*
X05094D03*
X04985D03*
X04876D03*
X05149Y00183D03*
X0504D03*
X04931D03*
X04822D03*
X05204Y00557D03*
X05095D03*
X04985D03*
X04876D03*
X05149Y00445D03*
X06346D03*
X06237D03*
X06128D03*
X0651Y00295D03*
X064D03*
X06291D03*
X06182D03*
X06455Y00183D03*
X06346D03*
X06237D03*
X06128D03*
X0651Y00557D03*
X06401D03*
X06291D03*
X06182D03*
X06455Y00445D03*
G54D117*
X01215Y05709D03*
G54D118*
X0553Y0373D03*
Y0363D03*
Y0353D03*
Y0343D03*
X0563Y0373D03*
Y0363D03*
Y0353D03*
Y0343D03*
Y0333D03*
X07472Y00401D03*
Y0048D03*
X07571D03*
X02556Y06084D03*
X02971D03*
X01997Y005D03*
X02096D03*
X02175D03*
Y00397D03*
X02096D03*
X01997D03*
G54D120*
X03725Y05145D03*
X03488D03*
X04205Y0512D03*
X03968D03*
G54D137*
X03013Y00345D03*
X02915D03*
X02836D03*
X02718Y00404D03*
X02796D03*
X02954D03*
X03033D03*
Y0053D03*
X02954D03*
X02796D03*
X02718D03*
X02836Y0047D03*
X02915D03*
X03013D03*
G54D144*
X07285Y00295D03*
X07759D03*
G54D153*
X-00003Y0015D02*
D01*
X-00003Y00149*
Y00149*
Y00149*
X-00003Y00149*
Y00149*
X0Y02433D02*
D01*
X0Y02433*
X0Y02432*
X0Y02432*
X0Y02432*
X-00001Y02432*
X-00001Y02432*
X-00001Y02432*
X-00001Y02432*
X-00001Y02432*
X-00001Y02432*
X-00002Y02432*
X-00002Y02432*
X-00002Y02431*
X-00002Y02431*
X-00002Y02431*
X-00002Y02431*
X-00002Y02431*
X-00002Y0243*
X-00002Y0243*
X-00002Y0243*
X-00002Y0243*
X-00003Y0243*
X-00003Y0243*
Y04105D02*
D01*
X-00003Y04104*
X-00002Y04104*
X-00002Y04104*
X-00002Y04104*
X-00002Y04103*
X-00002Y04103*
X-00002Y04103*
X-00002Y04103*
X-00002Y04103*
X-00002Y04103*
X-00002Y04102*
X-00002Y04102*
X-00001Y04102*
X-00001Y04102*
X-00001Y04102*
X-00001Y04102*
X-00001Y04102*
X0Y04102*
X0Y04102*
X0Y04102*
X0Y04102*
X0Y04101*
X0Y04101*
X-00003Y05982D02*
D01*
X-00003Y05981*
X-00003Y05981*
Y0598*
X-00003Y0598*
X-00003Y05979*
X-00002Y05996D02*
D01*
X-00002Y05996*
X-00002Y05996*
X-00002Y05996*
X-00002Y05996*
X-00002Y05995*
X-00002Y05995*
X-00002Y05995*
X-00002Y05995*
X-00003Y05995*
X-00003Y05995*
X0016Y06159D02*
D01*
X00148Y06158*
X00135Y06155*
X00123Y06152*
X00111Y06148*
X001Y06143*
X00089Y06138*
X00078Y06131*
X00068Y06124*
X00058Y06116*
X00049Y06107*
X0004Y06098*
X00033Y06089*
X00025Y06078*
X00019Y06068*
X00013Y06056*
X00008Y06045*
X00004Y06033*
X00001Y06021*
X0Y06009*
X-00002Y05996*
X00162Y0616D02*
D01*
X00162Y0616*
X00162Y0616*
X00161Y0616*
X00161Y0616*
X00161Y0616*
X00161Y0616*
X00161Y0616*
X0016Y0616*
X0016Y06159*
X0016Y06159*
X08228Y0616D02*
D01*
X08228Y0616*
X08228Y0616*
X08228Y0616*
X08227Y0616*
X08227Y0616*
X08227Y0616*
X08227*
X08388Y06D02*
D01*
X08387Y06012*
X08384Y06024*
X08381Y06036*
X08377Y06047*
X08373Y06059*
X08367Y0607*
X08361Y0608*
X08354Y0609*
X08346Y061*
X08338Y06109*
X08329Y06117*
X0832Y06125*
X0831Y06132*
X08299Y06138*
X08288Y06144*
X08277Y06148*
X08265Y06152*
X08254Y06156*
X08242Y06158*
X0823Y0616*
X08228Y0616*
X08388Y05999D02*
D01*
X08388Y05999*
X08388Y05999*
X08388Y05999*
X08388Y06*
X08388Y06*
X08388Y06*
X08388Y06*
X08389Y05985D02*
D01*
X08389Y05988*
X08389Y0599*
X08389Y05992*
X08388Y05994*
X08388Y05996*
Y05974D02*
D01*
X08388Y05977*
X08389Y05979*
X08389Y05981*
X08389Y05983*
X08389Y05985*
X08388Y00169D02*
D01*
X08388Y00169*
X08388Y0017*
X08388Y0017*
X08388Y0017*
X08388Y0017*
X08388Y0017*
X08216Y-00002D02*
D01*
X08228Y-00001*
X08241Y0*
X08254Y00003*
X08266Y00007*
X08278Y00011*
X08289Y00017*
X083Y00023*
X08311Y0003*
X08321Y00038*
X08331Y00046*
X0834Y00056*
X08348Y00065*
X08356Y00076*
X08363Y00086*
X08369Y00098*
X08374Y00109*
X08379Y00121*
X08382Y00134*
X08385Y00146*
X08387Y00159*
X08388Y00169*
X08215Y-00003D02*
D01*
X08215Y-00003*
X08215Y-00002*
X08215Y-00002*
X08215Y-00002*
X08216Y-00002*
X08216Y-00002*
X08199Y-00003D02*
D01*
X08202Y-00003*
X08204Y-00003*
X08206*
X08208Y-00003*
X0821Y-00003*
X08199Y-00003D02*
D01*
X08199*
X08199*
X08199*
X08199Y-00003*
X08199*
X-00003Y00149D02*
D01*
X-00002Y00139*
X-00001Y00128*
X0Y00118*
X00002Y00107*
X00006Y00097*
X0001Y00087*
X00014Y00078*
X0002Y00068*
X00026Y00059*
X00032Y00051*
X00039Y00043*
X00047Y00036*
X00055Y00029*
X00064Y00023*
X00073Y00017*
X00082Y00012*
X00092Y00008*
X00102Y00004*
X00112Y00001*
X00123Y0*
X00133Y-00002*
X00144Y-00002*
X00149Y-00003*
X-00003Y00149D02*
D01*
Y00149*
X-00003Y00149*
Y00149*
X-00003Y00149*
Y00149*
Y04105D02*
Y05979D01*
X0Y04101D02*
X00306D01*
Y02433D02*
Y04101D01*
X0Y02433D02*
X00306D01*
X-00003Y0015D02*
Y0243D01*
X00149Y-00003D02*
X08199D01*
X08199Y-00003D02*
X08199Y-00003D01*
X0821D02*
X08215D01*
X08216Y-00002D02*
D01*
X08388Y00169D02*
D01*
X08388Y0017D02*
Y05974D01*
Y05996D02*
Y05999D01*
X08388Y06D02*
D01*
X08228Y0616D02*
D01*
X00162Y0616D02*
X08227D01*
X0016Y06159D02*
Y06159D01*
X-00002Y05996D02*
D01*
X-00003Y05982D02*
Y05995D01*
G54D154*
X01029Y05827D03*
X01215Y05965D03*
G54D155*
X0633Y01221D03*
X06549Y01219D03*
X05814Y04131D03*
X05593D03*
X06236Y04092D03*
X04767Y00295D03*
Y00556D03*
X06073Y00295D03*
Y00556D03*
G54D156*
X01973Y02359D03*
X04245D03*
G54D157*
X0553Y0333D03*
X07571Y00401D03*
X02733Y06084D03*
X03148D03*
X02273Y00397D03*
Y005D03*
G54D158*
X0531Y0603D03*
X0491D03*
G54D159*
X0511Y0603D03*
G54D160*
X03646Y05145D03*
X03567D03*
X04126Y0512D03*
X04047D03*
G54D161*
X00915Y02611D03*
Y03917D03*
G54D162*
X00946Y02527D03*
X00944Y04D03*
G54D163*
X0219Y05605D03*
G54D164*
X01915Y05605D03*
G54D165*
X04494Y00178D03*
X05473Y0018D03*
X04493Y00493D03*
X05472Y00491D03*
X058Y00178D03*
X06779Y0018D03*
X05799Y00493D03*
X06778Y00491D03*
G54D166*
X03714Y0603D03*
X05584Y0256D03*
G54D167*
X03911Y0603D03*
X04108D03*
X04305D03*
X04501D03*
X00975Y00272D03*
X01615D03*
X04796Y0256D03*
G54D168*
X02616Y00489D03*
X02611Y00266D03*
X03134Y00489D03*
Y00266D03*
G54D169*
X02737Y00345D03*
X02875Y00404D03*
Y0053D03*
X02737Y0047D03*
G54D170*
X0656Y0499D03*
Y0489D03*
Y0479D03*
G54D171*
X0656Y0469D03*
G54D172*
X074Y02273D03*
Y0223D03*
G54D173*
X05733Y06035D03*
X05932D03*
X06132D03*
X06331D03*
X0653D03*
X0673D03*
X06929D03*
X07128D03*
X07327D03*
X07527D03*
X07726D03*
X07925D03*
G54D174*
X07241Y0262D03*
X07399D03*
X03758Y04507D03*
X03915D03*
G54D175*
X02782Y05985D03*
X02507D03*
X02922D03*
X03197D03*
G54D176*
X01435Y00237D03*
X01395Y00307D03*
X01355Y00237D03*
X01315Y00307D03*
X01275Y00237D03*
X01235Y00307D03*
X01195Y00237D03*
X01155Y00307D03*
X01475Y00497D03*
X01565D03*
X01115D03*
X01025D03*
G54D177*
X01045Y00137D03*
X01545D03*
G54D178*
X06071Y0186D03*
X06Y0193D03*
X0593Y02001D03*
X05859Y02072D03*
X06Y01789D03*
X0593Y0186D03*
X05859Y0193D03*
X05788Y02001D03*
G54D179*
X05788Y02142D03*
X05717Y02072D03*
G54D180*
X02394Y0029D03*
X01876D03*
X02394Y00514D03*
X01876D03*
G54D181*
X02381Y0538D03*
X01155Y0454D03*
X01595Y0542D03*
G54D182*
X0302Y0504D03*
G54D183*
X0588Y05325D03*
Y05525D03*
Y05625D03*
Y05725D03*
X0608D03*
Y05625D03*
Y05525D03*
Y05325D03*
X0652Y0532D03*
Y0552D03*
Y0562D03*
Y0572D03*
X0672D03*
Y0562D03*
Y0552D03*
Y0532D03*
G54D184*
X04149Y00224D03*
X03578D03*
G54D185*
X03578Y00459D03*
X04149D03*
G54D186*
X0206Y01417D03*
G54D187*
X0421Y0259D03*
X0142Y0535D03*
G54D188*
X01492Y0413D03*
X04483Y04125D03*
X01493Y02277D03*
X04481Y02276D03*
G54D189*
X07798Y04488D03*
Y01663D03*
X00632D03*
Y04488D03*
G54D190*
X07727Y00936D03*
Y05215D03*
X00703Y00936D03*
Y05215D03*
G54D191*
X0371Y00924D03*
X05424Y04015D03*
X05441Y02255D03*
X0473Y02212D03*
X04245Y00964D03*
X04246Y01008D03*
X06146Y03894D03*
X06359Y03901D03*
X05423Y04213D03*
X04049Y01267D03*
X02739Y00902D03*
X02768Y00903D03*
X04054Y00854D03*
X04181Y00954D03*
X0336Y01313D03*
X03707Y01322D03*
X0331Y0131D03*
X03068Y01829D03*
X0326Y01306D03*
X03924Y01262D03*
X03415Y0052D03*
X04214Y00795D03*
X04214Y00888D03*
X05944Y01197D03*
X05494Y01186D03*
X04077Y0545D03*
X06013Y04349D03*
X0483Y02093D03*
X03754Y01005D03*
X03773Y00965D03*
X0401Y02415D03*
X03975Y02416D03*
X038Y01065D03*
X03202Y01046D03*
X02883Y02346D03*
X03088Y02348D03*
X04692Y02839D03*
X02685Y01168D03*
X03048Y04234D03*
X03029Y04252D03*
X06761Y01773D03*
X0622Y02535D03*
X0626Y02575D03*
X06298Y02615D03*
X06358Y02459D03*
X06365Y02483D03*
X06404Y02555D03*
X06438Y02533D03*
X05179Y0504D03*
X05126Y05038D03*
X0671Y01963D03*
X06174Y00915D03*
X06444Y01751D03*
X06682Y02323D03*
X06615Y02407D03*
X06241Y0174D03*
X063Y01766D03*
X06565Y02385D03*
X05722Y00758D03*
X05828Y00796D03*
X04912Y01688D03*
X04932Y01831D03*
X04928Y044D03*
X0485Y04401D03*
X04856Y02165D03*
X05622Y01055D03*
X05591Y01092D03*
X03145Y01225D03*
X03689Y00581D03*
X03462Y01909D03*
X0345Y01874D03*
X03727Y02361D03*
X03632Y02384D03*
X03607D03*
X03397Y02382D03*
X03415Y02364D03*
X0337Y02123D03*
X03396D03*
X03473Y02399D03*
X03445Y02381D03*
X03541Y02068D03*
X03523Y0205D03*
X03577Y02069D03*
Y02095D03*
X03516Y02354D03*
X03535Y02373D03*
X02825Y02395D03*
Y0236D03*
X02473Y02076D03*
X02447Y0208D03*
X02826Y02145D03*
X02855Y0215D03*
X02475Y02365D03*
X02445D03*
X02532Y02397D03*
X0251Y02371D03*
X0304Y01015D03*
X03066Y01015D03*
X02936Y02356D03*
X0291Y02355D03*
X03142Y00844D03*
X03123Y00862D03*
X02811Y01845D03*
X02785D03*
X03009Y00812D03*
Y00838D03*
X02639Y0086D03*
X02666Y00859D03*
X0227Y00762D03*
X02275Y00692D03*
X01737Y00727D03*
X01655Y04766D03*
X0055Y0601D03*
Y05985D03*
Y05955D03*
Y0593D03*
X0087Y0601D03*
X00745Y0599D03*
Y05965D03*
Y0593D03*
X0078Y06025D03*
Y05985D03*
Y05945D03*
X00725Y0601D03*
X00845Y06025D03*
X0397Y02627D03*
X0223Y0482D03*
X0225Y04815D03*
X0229Y0508D03*
X00805Y0221D03*
X02536Y04645D03*
X02415D03*
X02135Y04765D03*
X0161Y0277D03*
X02445D03*
X0257Y02355D03*
X0231Y0232D03*
X02305Y02395D03*
X02309Y0281D03*
X02346D03*
X0213Y03683D03*
Y03646D03*
X02376Y02355D03*
X02414D03*
X0427Y04365D03*
X0398Y0367D03*
X04135Y0239D03*
X0406Y0235D03*
X04015Y0237D03*
X03275Y0352D03*
X03375Y0358D03*
X03796Y03638D03*
X0326Y0236D03*
X03335Y02335D03*
X03695Y02365D03*
X03845Y02335D03*
X01805Y0102D03*
X02174Y01895D03*
X0207Y0175D03*
X02275Y0213D03*
X02215Y02033D03*
X0222Y02119D03*
X0211Y0184D03*
X02149Y01925D03*
X0208Y02055D03*
Y0211D03*
X04144Y0129D03*
X04347Y0148D03*
X06025Y0209D03*
X0599Y0361D03*
X0431Y01336D03*
X01495Y01487D03*
X01345Y01482D03*
X0119D03*
X01045Y01477D03*
X0159Y00887D03*
X01545Y00852D03*
X013Y00877D03*
X0128Y00832D03*
X01123Y00817D03*
X01145Y00872D03*
X01495Y01082D03*
X01345D03*
X0119D03*
X01045Y01077D03*
X03135Y01095D03*
X07365Y0067D03*
X07325Y00825D03*
X06735Y018D03*
X0629Y0248D03*
X06315Y02495D03*
X0636Y02525D03*
X028Y05195D03*
X0272D03*
X02635D03*
X01965Y0539D03*
Y05415D03*
Y0544D03*
X01985Y0539D03*
Y05415D03*
Y0544D03*
X02005Y0539D03*
Y05415D03*
Y0544D03*
X0167Y04745D03*
X01645D03*
X0164Y0511D03*
X01665D03*
Y0515D03*
X0169Y0511D03*
Y0515D03*
X0229Y05135D03*
X045Y0569D03*
X05965Y0315D03*
X0598Y03435D03*
X06295Y01845D03*
X06737Y02363D03*
X06751Y01635D03*
X06725D03*
X0204Y01082D03*
X01765Y01162D03*
X02455Y0492D03*
X0199Y0468D03*
X0197Y04825D03*
X05315Y03475D03*
X0492Y03235D03*
X0514Y03245D03*
X05325Y03252D03*
X05265Y03325D03*
X05315Y0343D03*
X05135Y0391D03*
X05175Y03705D03*
X05295Y0367D03*
X0528Y03535D03*
X05973Y03776D03*
X0421Y05505D03*
X04095Y05775D03*
X06705Y01905D03*
X04535Y0443D03*
X04613Y04431D03*
X04064Y02549D03*
X04085Y0257D03*
X04105Y02595D03*
X04162Y02157D03*
X04143Y02141D03*
X04123Y02166D03*
X04103Y02146D03*
X04084Y0217D03*
X04064Y02145D03*
X03819Y0113D03*
X0703Y0459D03*
X031Y04155D03*
X03125Y05495D03*
X00965Y05565D03*
X0093D03*
Y05525D03*
X0096D03*
X00945Y05545D03*
X03861Y00684D03*
X03877Y00634D03*
X03914Y00652D03*
X04033Y00421D03*
X03914Y00626D03*
X04006Y00424D03*
X04013Y0076D03*
X04068Y00576D03*
X04038Y0076D03*
X04086Y00594D03*
X04075Y0063D03*
X04072Y00757D03*
X03911Y0083D03*
G54D192*
X01755Y05325D03*
X0121Y04915D03*
X06825Y01855D03*
X0206Y0496D03*
X01125Y0299D03*
Y0294D03*
Y0304D03*
X0089Y0334D03*
X00895Y0329D03*
X0089Y0324D03*
X0517Y0549D03*
X0566Y05295D03*
X06275Y0525D03*
X0778Y0481D03*
X07195Y0502D03*
X0806Y0506D03*
X02026Y04853D03*
X06195Y0244D03*
X062Y0237D03*
X06115Y0241D03*
X06415Y02705D03*
X0625Y02365D03*
X0687Y02385D03*
X0645Y018D03*
X06325Y01925D03*
X06208Y02015D03*
X0748Y05D03*
X0738Y0491D03*
X07855Y04915D03*
X0743Y0563D03*
X07455Y05995D03*
X07755Y05565D03*
X0769Y05685D03*
Y0578D03*
X0722Y0579D03*
X0606Y05245D03*
X0669Y05224D03*
X05015Y05455D03*
X05265Y0546D03*
X0421Y0557D03*
X0399Y05675D03*
X0414Y0559D03*
X04333Y05603D03*
X04425Y05645D03*
X01215Y05235D03*
Y05285D03*
X01205Y0481D03*
Y04865D03*
X0213Y05315D03*
X0182Y0483D03*
X0195Y0501D03*
X02405Y0514D03*
X02115Y05265D03*
X02075Y05295D03*
X0222Y05235D03*
X0188Y0499D03*
X0174Y04995D03*
X06645Y01885D03*
X01625Y01285D03*
X0187Y051D03*
X01963Y05138D03*
X01115Y0274D03*
Y0269D03*
Y0264D03*
X08015Y05695D03*
G54D193*
X02944Y04695D03*
X03535Y04865D03*
M02*