%FSTAX23Y23*%
%MOIN*%
%SFA1B1*%

%IPPOS*%
%AMD316*
4,1,4,-0.065800,0.025500,0.025500,-0.065800,0.065800,-0.025500,-0.025500,0.065800,-0.065800,0.025500,0.0*
%
%AMD317*
4,1,4,0.025500,0.065800,-0.065800,-0.025500,-0.025500,-0.065800,0.065800,0.025500,0.025500,0.065800,0.0*
%
%ADD196C,0.006000*%
%ADD315R,0.057000X0.129000*%
G04~CAMADD=316~9~0.0~0.0~1290.0~570.0~0.0~0.0~0~0.0~0.0~0.0~0.0~0~0.0~0.0~0.0~0.0~0~0.0~0.0~0.0~135.0~1316.0~1315.0*
%ADD316D316*%
G04~CAMADD=317~9~0.0~0.0~1290.0~570.0~0.0~0.0~0~0.0~0.0~0.0~0.0~0~0.0~0.0~0.0~0.0~0~0.0~0.0~0.0~45.0~1316.0~1315.0*
%ADD317D317*%
%ADD318R,0.129000X0.057000*%
%ADD319R,0.295000X0.485000*%
%ADD320R,0.357000X0.361000*%
%LNsyncbox_mechanical_15-1*%
%LPD*%
G36*
X05226Y05813D02*
X05238D01*
Y05636*
X05226*
Y05579*
X05034*
Y05636*
X05021*
Y05813*
X05034*
Y05871*
X05226*
Y05813*
G37*
G36*
X04283Y0571D02*
X04341D01*
Y05519*
X04283*
Y05506*
X04106*
Y05519*
X04049*
Y0571*
X04106*
Y05723*
X04283*
Y0571*
G37*
G36*
X01422Y05555D02*
X01462D01*
Y05405*
X01422*
Y05387*
X01418*
Y05405*
X01377*
Y05555*
X01418*
Y05573*
X01422*
Y05555*
G37*
G36*
X013Y05385D02*
X01209D01*
Y05555*
X013*
Y05385*
G37*
G36*
X01185Y05356D02*
X01003D01*
Y05483*
X01185*
Y05356*
G37*
G36*
X0417Y05308D02*
X04053D01*
Y0546*
X0417*
Y05308*
G37*
G36*
X06129Y05278D02*
X0583D01*
Y05873*
X06129*
Y05278*
G37*
G36*
X06769Y05273D02*
X0647D01*
Y05868*
X06769*
Y05273*
G37*
G36*
X02787Y05259D02*
X02617D01*
Y0535*
X02787*
Y05259*
G37*
G36*
X01186Y05226D02*
X01004D01*
Y05353*
X01186*
Y05226*
G37*
G36*
X0605Y05221D02*
X06075D01*
Y05178*
X0605*
Y05169*
X05929*
Y05178*
X05904*
Y05221*
X05929*
Y0523*
X0605*
Y05221*
G37*
G36*
X06683Y05201D02*
X06708D01*
Y05158*
X06683*
Y05149*
X06562*
Y05158*
X06537*
Y05201*
X06562*
Y0521*
X06683*
Y05201*
G37*
G36*
X01187Y05096D02*
X01005D01*
Y05223*
X01187*
Y05096*
G37*
G36*
X0287Y0502D02*
X02779D01*
Y0519*
X0287*
Y0502*
G37*
G36*
X0277D02*
X02679D01*
Y0519*
X0277*
Y0502*
G37*
G36*
X02665D02*
X02574D01*
Y0519*
X02665*
Y0502*
G37*
G36*
X01186Y04911D02*
X01004D01*
Y05038*
X01186*
Y04911*
G37*
G36*
X05219Y04896D02*
X05102D01*
Y05048*
X05219*
Y04896*
G37*
G36*
X0377Y0483D02*
X0368D01*
Y05012*
X0377*
Y0483*
G37*
G36*
X0425Y04824D02*
X0416D01*
Y05006*
X0425*
Y04824*
G37*
G36*
X01186Y04781D02*
X01004D01*
Y04908*
X01186*
Y04781*
G37*
G36*
Y04651D02*
X01004D01*
Y04778*
X01186*
Y04651*
G37*
G36*
X05252Y03903D02*
X05261D01*
Y0382*
X05211*
Y03784*
X05171*
Y0382*
X05121*
Y03903*
X0513*
Y0394*
X05252*
Y03903*
G37*
G36*
X05946Y03796D02*
X05983D01*
Y03673*
X05946*
Y03665*
X05863*
Y03715*
X05827*
Y03755*
X05863*
Y03805*
X05946*
Y03796*
G37*
G36*
Y03631D02*
X05983D01*
Y03508*
X05946*
Y035*
X05863*
Y0355*
X05827*
Y0359*
X05863*
Y0364*
X05946*
Y03631*
G37*
G36*
X05158Y03707D02*
X05214D01*
Y03442*
X05158*
Y03435*
X04961*
Y03442*
X04906*
Y03707*
X04961*
Y03715*
X05158*
Y03707*
G37*
G36*
X05939Y03456D02*
X05976D01*
Y03333*
X05939*
Y03325*
X05856*
Y03375*
X0582*
Y03415*
X05856*
Y03465*
X05939*
Y03456*
G37*
G36*
X05296Y03271D02*
X05333D01*
Y03148*
X05296*
Y0314*
X05213*
Y0319*
X05177*
Y0323*
X05213*
Y0328*
X05296*
Y03271*
G37*
G36*
X05111Y03266D02*
X05148D01*
Y03143*
X05111*
Y03135*
X05028*
Y03185*
X04992*
Y03225*
X05028*
Y03275*
X05111*
Y03266*
G37*
G36*
X05981Y03124D02*
X05799D01*
Y03215*
X05981*
Y03124*
G37*
G36*
X04893Y03255D02*
X0493D01*
Y03132*
X04893*
Y03123*
X0481*
Y03173*
X04774*
Y03213*
X0481*
Y03263*
X04893*
Y03255*
G37*
G36*
X04856Y02948D02*
X04893D01*
Y02825*
X04856*
Y02817*
X04773*
Y02867*
X04737*
Y02907*
X04773*
Y02957*
X04856*
Y02948*
G37*
G36*
X04034Y0255D02*
X03885D01*
Y02649*
X04034*
Y0255*
G37*
G36*
X07007Y02221D02*
X06969Y02183D01*
X06993Y0216*
X06969Y02136*
X07007Y02098*
X06651Y01742*
X06613Y0178*
X0659Y01756*
X06566Y0178*
X06528Y01742*
X06172Y02098*
X0621Y02136*
X06186Y0216*
X0621Y02183*
X06172Y02221*
X06528Y02577*
X06566Y02539*
X0659Y02563*
X06613Y02539*
X06651Y02577*
X07007Y02221*
G37*
G36*
X04336Y02227D02*
X01883D01*
Y02491*
X04336*
Y02227*
G37*
G36*
X01027Y0231D02*
X01052D01*
Y02229*
X01027*
Y02217*
X00952*
Y02229*
X00928*
Y0231*
X00952*
Y02322*
X01027*
Y0231*
G37*
G36*
X06152Y01856D02*
X06004Y01707D01*
X05636Y02075*
X05785Y02224*
X06152Y01856*
G37*
G36*
X04348Y0147D02*
X04273D01*
Y01591*
X04348*
Y0147*
G37*
G36*
X03772Y01391D02*
X03717D01*
Y01494*
X03772*
Y01391*
G37*
G36*
X04112D02*
X04057D01*
Y01494*
X04112*
Y01391*
G37*
G36*
X04055D02*
X04D01*
Y01494*
X04055*
Y01391*
G37*
G36*
X03999D02*
X03944D01*
Y01494*
X03999*
Y01391*
G37*
G36*
X03942D02*
X03887D01*
Y01494*
X03942*
Y01391*
G37*
G36*
X03885D02*
X0383D01*
Y01494*
X03885*
Y01391*
G37*
G36*
X03828D02*
X03773D01*
Y01494*
X03828*
Y01391*
G37*
G36*
X03715D02*
X0366D01*
Y01494*
X03715*
Y01391*
G37*
G36*
X03096Y01638D02*
X03168D01*
Y01401*
X03096*
Y0136*
X03004*
Y01401*
X02931*
Y01638*
X03004*
Y0168*
X03096*
Y01638*
G37*
G36*
X03336Y01633D02*
X03408D01*
Y01396*
X03336*
Y01355*
X03244*
Y01396*
X03171*
Y01633*
X03244*
Y01675*
X03336*
Y01633*
G37*
G36*
X04347Y01336D02*
X04272D01*
Y01457*
X04347*
Y01336*
G37*
G36*
X03761Y01224D02*
X03579D01*
Y01315*
X03761*
Y01224*
G37*
G36*
X02041Y01501D02*
X02113D01*
Y01264*
X02041*
Y01222*
X01949*
Y01264*
X01876*
Y01501*
X01949*
Y01542*
X02041*
Y01501*
G37*
G36*
X0355Y01045D02*
X03459D01*
Y01215*
X0355*
Y01045*
G37*
G36*
X03381Y01248D02*
X03393D01*
Y01071*
X03381*
Y01014*
X03189*
Y01071*
X03176*
Y01248*
X03189*
Y01306*
X03381*
Y01248*
G37*
G36*
X02221Y01196D02*
X02293D01*
Y00959*
X02221*
Y00917*
X02129*
Y00959*
X02056*
Y01196*
X02129*
Y01237*
X02221*
Y01196*
G37*
G36*
X07248Y01053D02*
X07249Y01053D01*
X07313Y00989*
X07313Y00988*
X07335Y00966*
X07283Y00914*
X07261Y00936*
X0726Y00936*
X07196Y01*
X07196Y01001*
X07174Y01023*
X07226Y01075*
X07248Y01053*
G37*
G36*
X04118Y01195D02*
X0415D01*
Y01163*
X0416*
Y00926*
X0415*
Y00895*
X04118*
Y00885*
X03881*
Y00895*
X0385*
Y00926*
X0384*
Y01163*
X0385*
Y01195*
X03881*
Y01205*
X04118*
Y01195*
G37*
G36*
X04105Y00745D02*
X04115D01*
Y00682*
X04105*
Y00676*
X04003*
Y00682*
X03993*
Y00745*
X04003*
Y0075*
X04105*
Y00745*
G37*
G36*
X03961Y00744D02*
X03971D01*
Y00681*
X03961*
Y00676*
X03858*
Y00681*
X03848*
Y00744*
X03858*
Y00749*
X03961*
Y00744*
G37*
G36*
X02013Y00673D02*
X01835D01*
Y00829*
X02013*
Y00673*
G37*
G36*
X03803Y00618D02*
X03704D01*
Y00767*
X03803*
Y00618*
G37*
G36*
X02426Y00614D02*
X02248D01*
Y0077*
X02426*
Y00614*
G37*
G36*
X07324Y00728D02*
X07363D01*
Y00611*
X07324*
Y00601*
X07235*
Y00611*
X07197*
Y00728*
X07235*
Y00739*
X07324*
Y00728*
G37*
G36*
X07997Y00434D02*
X07827D01*
Y00525*
X07997*
Y00434*
G37*
G54D196*
X01883Y02227D02*
Y02491D01*
Y02227D02*
X04336D01*
Y02491*
X01883D02*
X04336D01*
X04272Y01336D02*
X04347D01*
X04272D02*
Y01457D01*
X04347*
Y01336D02*
Y01457D01*
X04273Y0147D02*
X04348D01*
X04273D02*
Y01591D01*
X04348*
Y0147D02*
Y01591D01*
X0385Y00895D02*
Y00926D01*
X0384D02*
X0385D01*
X0384D02*
Y01163D01*
X0385*
Y01195*
X03881*
Y01205*
X04118*
Y01195D02*
Y01205D01*
Y01195D02*
X0415D01*
Y01163D02*
Y01195D01*
Y01163D02*
X0416D01*
Y00926D02*
Y01163D01*
X0415Y00926D02*
X0416D01*
X0415Y00895D02*
Y00926D01*
X04118Y00895D02*
X0415D01*
X04118Y00885D02*
Y00895D01*
X03881Y00885D02*
X04118D01*
X03881D02*
Y00895D01*
X0385D02*
X03881D01*
X06566Y0178D02*
X0659Y01756D01*
X06528Y01742D02*
X06566Y0178D01*
X06172Y02098D02*
X06528Y01742D01*
X06172Y02098D02*
X0621Y02136D01*
X06186Y0216D02*
X0621Y02136D01*
X06969Y02183D02*
X06993Y0216D01*
X06969Y02183D02*
X07007Y02221D01*
X06651Y02577D02*
X07007Y02221D01*
X06613Y02539D02*
X06651Y02577D01*
X0659Y02563D02*
X06613Y02539D01*
X06969Y02136D02*
X06993Y0216D01*
X06969Y02136D02*
X07007Y02098D01*
X06651Y01742D02*
X07007Y02098D01*
X06613Y0178D02*
X06651Y01742D01*
X0659Y01756D02*
X06613Y0178D01*
X06566Y02539D02*
X0659Y02563D01*
X06528Y02577D02*
X06566Y02539D01*
X06172Y02221D02*
X06528Y02577D01*
X06172Y02221D02*
X0621Y02183D01*
X06186Y0216D02*
X0621Y02183D01*
X03803Y00618D02*
Y00767D01*
X03704D02*
X03803D01*
X03704Y00618D02*
Y00767D01*
Y00618D02*
X03803D01*
X03885Y02649D02*
X04034D01*
X03885Y0255D02*
Y02649D01*
Y0255D02*
X04034D01*
Y02649*
X03579Y01224D02*
X03761D01*
Y01315*
X03579D02*
X03761D01*
X03579Y01224D02*
Y01315D01*
X05799Y03124D02*
X05981D01*
Y03215*
X05799D02*
X05981D01*
X05799Y03124D02*
Y03215D01*
X04049Y0571D02*
X04106D01*
Y05723*
X04283*
Y0571D02*
Y05723D01*
Y0571D02*
X04341D01*
Y05519D02*
Y0571D01*
X04283Y05519D02*
X04341D01*
X04283Y05506D02*
Y05519D01*
X04106Y05506D02*
X04283D01*
X04106D02*
Y05519D01*
X04049D02*
X04106D01*
X04049D02*
Y0571D01*
X01418Y05573D02*
X01422D01*
Y05555D02*
Y05573D01*
Y05387D02*
Y05405D01*
X01418Y05387D02*
X01422D01*
X01418D02*
Y05405D01*
Y05555D02*
Y05573D01*
X01422Y05555D02*
X01462D01*
Y05405D02*
Y05555D01*
X01422Y05405D02*
X01462D01*
X01377D02*
X01418D01*
X01377D02*
Y05555D01*
X01418*
X04053Y05308D02*
Y0546D01*
X0417*
Y05308D02*
Y0546D01*
X04053Y05308D02*
X0417D01*
X05219Y04896D02*
Y05048D01*
X05102Y04896D02*
X05219D01*
X05102D02*
Y05048D01*
X05219*
X06075Y05178D02*
Y05221D01*
X0605Y05178D02*
X06075D01*
X05904D02*
X05929D01*
X05904D02*
Y05221D01*
X05929*
X0605D02*
X06075D01*
X0605D02*
Y0523D01*
Y05169D02*
Y05178D01*
X05929Y05169D02*
X0605D01*
X05929D02*
Y05178D01*
Y05221D02*
Y0523D01*
X0605*
X06708Y05158D02*
Y05201D01*
X06683Y05158D02*
X06708D01*
X06537D02*
X06562D01*
X06537D02*
Y05201D01*
X06562*
X06683D02*
X06708D01*
X06683D02*
Y0521D01*
Y05149D02*
Y05158D01*
X06562Y05149D02*
X06683D01*
X06562D02*
Y05158D01*
Y05201D02*
Y0521D01*
X06683*
X07827Y00434D02*
Y00525D01*
X07997*
Y00434D02*
Y00525D01*
X07827Y00434D02*
X07997D01*
X01209Y05385D02*
X013D01*
X01209D02*
Y05555D01*
X013*
Y05385D02*
Y05555D01*
X02574Y0502D02*
X02665D01*
X02574D02*
Y0519D01*
X02665*
Y0502D02*
Y0519D01*
X02679Y0502D02*
X0277D01*
X02679D02*
Y0519D01*
X0277*
Y0502D02*
Y0519D01*
X02779Y0502D02*
X0287D01*
X02779D02*
Y0519D01*
X0287*
Y0502D02*
Y0519D01*
X02617Y05259D02*
Y0535D01*
X02787*
Y05259D02*
Y0535D01*
X02617Y05259D02*
X02787D01*
X03459Y01045D02*
X0355D01*
X03459D02*
Y01215D01*
X0355*
Y01045D02*
Y01215D01*
X04057Y01391D02*
X04112D01*
X04057D02*
Y01494D01*
X04112*
Y01391D02*
Y01494D01*
X04Y01391D02*
X04055D01*
X04D02*
Y01494D01*
X04055*
Y01391D02*
Y01494D01*
X03944Y01391D02*
X03999D01*
X03944D02*
Y01494D01*
X03999*
Y01391D02*
Y01494D01*
X03887Y01391D02*
X03942D01*
X03887D02*
Y01494D01*
X03942*
Y01391D02*
Y01494D01*
X0383Y01391D02*
X03885D01*
X0383D02*
Y01494D01*
X03885*
Y01391D02*
Y01494D01*
X03773Y01391D02*
X03828D01*
X03773D02*
Y01494D01*
X03828*
Y01391D02*
Y01494D01*
X03717Y01391D02*
X03772D01*
X03717D02*
Y01494D01*
X03772*
Y01391D02*
Y01494D01*
X0366Y01391D02*
X03715D01*
X0366D02*
Y01494D01*
X03715*
Y01391D02*
Y01494D01*
X07197Y00611D02*
X07235D01*
Y00601D02*
Y00611D01*
Y00601D02*
X07324D01*
Y00611*
X07363*
Y00728*
X07324D02*
X07363D01*
X07324D02*
Y00739D01*
X07235D02*
X07324D01*
X07235Y00728D02*
Y00739D01*
X07197Y00728D02*
X07235D01*
X07197Y00611D02*
Y00728D01*
X02248Y00614D02*
X02426D01*
X02248D02*
Y0077D01*
X02426*
Y00614D02*
Y0077D01*
X01835Y00673D02*
X02013D01*
Y00829*
X01835D02*
X02013D01*
X01835Y00673D02*
Y00829D01*
X03408Y01396D02*
Y01633D01*
X03336D02*
X03408D01*
X03171D02*
X03244D01*
X03171Y01396D02*
Y01633D01*
Y01396D02*
X03244D01*
X03336D02*
X03408D01*
X03336Y01355D02*
Y01396D01*
Y01633D02*
Y01675D01*
X03244D02*
X03336D01*
X03244Y01633D02*
Y01675D01*
Y01355D02*
Y01396D01*
Y01355D02*
X03336D01*
X03168Y01401D02*
Y01638D01*
X03096D02*
X03168D01*
X02931D02*
X03004D01*
X02931Y01401D02*
Y01638D01*
Y01401D02*
X03004D01*
X03096D02*
X03168D01*
X03096Y0136D02*
Y01401D01*
Y01638D02*
Y0168D01*
X03004D02*
X03096D01*
X03004Y01638D02*
Y0168D01*
Y0136D02*
Y01401D01*
Y0136D02*
X03096D01*
X02113Y01264D02*
Y01501D01*
X02041D02*
X02113D01*
X01876D02*
X01949D01*
X01876Y01264D02*
Y01501D01*
Y01264D02*
X01949D01*
X02041D02*
X02113D01*
X02041Y01222D02*
Y01264D01*
Y01501D02*
Y01542D01*
X01949D02*
X02041D01*
X01949Y01501D02*
Y01542D01*
Y01222D02*
Y01264D01*
Y01222D02*
X02041D01*
X02293Y00959D02*
Y01196D01*
X02221D02*
X02293D01*
X02056D02*
X02129D01*
X02056Y00959D02*
Y01196D01*
Y00959D02*
X02129D01*
X02221D02*
X02293D01*
X02221Y00917D02*
Y00959D01*
Y01196D02*
Y01237D01*
X02129D02*
X02221D01*
X02129Y01196D02*
Y01237D01*
Y00917D02*
Y00959D01*
Y00917D02*
X02221D01*
X06004Y01707D02*
X06152Y01856D01*
X05785Y02224D02*
X06152Y01856D01*
X05636Y02075D02*
X05785Y02224D01*
X05636Y02075D02*
X06004Y01707D01*
X04773Y02817D02*
X04856D01*
X04773D02*
Y02867D01*
X04737D02*
X04773D01*
X04737D02*
Y02907D01*
X04773*
Y02957*
X04856*
Y02948D02*
Y02957D01*
Y02817D02*
Y02825D01*
Y02948D02*
X04893D01*
X04856Y02825D02*
X04893D01*
Y02948*
X05028Y03135D02*
X05111D01*
X05028D02*
Y03185D01*
X04992D02*
X05028D01*
X04992D02*
Y03225D01*
X05028*
Y03275*
X05111*
Y03266D02*
Y03275D01*
Y03135D02*
Y03143D01*
Y03266D02*
X05148D01*
X05111Y03143D02*
X05148D01*
Y03266*
X0481Y03123D02*
X04893D01*
X0481D02*
Y03173D01*
X04774D02*
X0481D01*
X04774D02*
Y03213D01*
X0481*
Y03263*
X04893*
Y03255D02*
Y03263D01*
Y03123D02*
Y03132D01*
Y03255D02*
X0493D01*
X04893Y03132D02*
X0493D01*
Y03255*
X05856Y03325D02*
X05939D01*
X05856D02*
Y03375D01*
X0582D02*
X05856D01*
X0582D02*
Y03415D01*
X05856*
Y03465*
X05939*
Y03456D02*
Y03465D01*
Y03325D02*
Y03333D01*
Y03456D02*
X05976D01*
X05939Y03333D02*
X05976D01*
Y03456*
X05863Y035D02*
X05946D01*
X05863D02*
Y0355D01*
X05827D02*
X05863D01*
X05827D02*
Y0359D01*
X05863*
Y0364*
X05946*
Y03631D02*
Y0364D01*
Y035D02*
Y03508D01*
Y03631D02*
X05983D01*
X05946Y03508D02*
X05983D01*
Y03631*
X05863Y03665D02*
X05946D01*
X05863D02*
Y03715D01*
X05827D02*
X05863D01*
X05827D02*
Y03755D01*
X05863*
Y03805*
X05946*
Y03796D02*
Y03805D01*
Y03665D02*
Y03673D01*
Y03796D02*
X05983D01*
X05946Y03673D02*
X05983D01*
Y03796*
X05261Y0382D02*
Y03903D01*
X05211Y0382D02*
X05261D01*
X05211Y03784D02*
Y0382D01*
X05171Y03784D02*
X05211D01*
X05171D02*
Y0382D01*
X05121D02*
X05171D01*
X05121D02*
Y03903D01*
X0513*
X05252D02*
X05261D01*
X0513D02*
Y0394D01*
X05252Y03903D02*
Y0394D01*
X0513D02*
X05252D01*
X05213Y0314D02*
X05296D01*
X05213D02*
Y0319D01*
X05177D02*
X05213D01*
X05177D02*
Y0323D01*
X05213*
Y0328*
X05296*
Y03271D02*
Y0328D01*
Y0314D02*
Y03148D01*
Y03271D02*
X05333D01*
X05296Y03148D02*
X05333D01*
Y03271*
X07196Y01D02*
X0726Y00936D01*
X07261Y00936*
X07313Y00988D02*
X07313Y00989D01*
X07249Y01053D02*
X07313Y00989D01*
X07248Y01053D02*
X07249Y01053D01*
X07196Y01D02*
X07196Y01001D01*
X07174Y01023D02*
X07196Y01001D01*
X07261Y00936D02*
X07283Y00914D01*
X07335Y00966*
X07313Y00988D02*
X07335Y00966D01*
X07226Y01075D02*
X07248Y01053D01*
X07174Y01023D02*
X07226Y01075D01*
X01003Y05356D02*
X01185D01*
Y05483*
X01003D02*
X01185D01*
X01003Y05356D02*
Y05483D01*
X01004Y05226D02*
X01186D01*
Y05353*
X01004D02*
X01186D01*
X01004Y05226D02*
Y05353D01*
X01005Y05096D02*
X01187D01*
Y05223*
X01005D02*
X01187D01*
X01005Y05096D02*
Y05223D01*
X01004Y04651D02*
X01186D01*
Y04778*
X01004D02*
X01186D01*
X01004Y04651D02*
Y04778D01*
Y04781D02*
X01186D01*
Y04908*
X01004D02*
X01186D01*
X01004Y04781D02*
Y04908D01*
Y04911D02*
X01186D01*
Y05038*
X01004D02*
X01186D01*
X01004Y04911D02*
Y05038D01*
X0583Y05873D02*
X06129D01*
X0583Y05278D02*
Y05873D01*
Y05278D02*
X06129D01*
Y05873*
X0647Y05868D02*
X06769D01*
X0647Y05273D02*
Y05868D01*
Y05273D02*
X06769D01*
Y05868*
X03993Y00682D02*
Y00745D01*
Y00682D02*
X04003D01*
X04105D02*
X04115D01*
Y00745*
X04105D02*
X04115D01*
X03993D02*
X04003D01*
Y0075*
Y00676D02*
Y00682D01*
Y00676D02*
X04105D01*
Y00682*
Y00745D02*
Y0075D01*
X04003D02*
X04105D01*
X03971Y00681D02*
Y00744D01*
X03961D02*
X03971D01*
X03848D02*
X03858D01*
X03848Y00681D02*
Y00744D01*
Y00681D02*
X03858D01*
X03961D02*
X03971D01*
X03961Y00676D02*
Y00681D01*
Y00744D02*
Y00749D01*
X03858D02*
X03961D01*
X03858Y00744D02*
Y00749D01*
Y00676D02*
Y00681D01*
Y00676D02*
X03961D01*
X04906Y03442D02*
Y03707D01*
X04961*
Y03715*
X05158*
Y03707D02*
Y03715D01*
Y03707D02*
X05214D01*
Y03442D02*
Y03707D01*
X05158Y03442D02*
X05214D01*
X05158Y03435D02*
Y03442D01*
X04961Y03435D02*
X05158D01*
X04961D02*
Y03442D01*
X04906D02*
X04961D01*
X01027Y0231D02*
Y02322D01*
Y0231D02*
X01052D01*
Y02229D02*
Y0231D01*
X01027Y02229D02*
X01052D01*
X01027Y02217D02*
Y02229D01*
X00952Y02217D02*
X01027D01*
X00952D02*
Y02229D01*
X00928D02*
X00952D01*
X00928D02*
Y0231D01*
X00952*
Y02322*
X01027*
X05034Y05579D02*
X05226D01*
X05034D02*
Y05636D01*
X05021D02*
X05034D01*
X05021D02*
Y05813D01*
X05034*
Y05871*
X05226*
Y05813D02*
Y05871D01*
Y05813D02*
X05238D01*
Y05636D02*
Y05813D01*
X05226Y05636D02*
X05238D01*
X05226Y05579D02*
Y05636D01*
X03189Y01306D02*
X03381D01*
X03189Y01248D02*
Y01306D01*
X03176Y01248D02*
X03189D01*
X03176Y01071D02*
Y01248D01*
Y01071D02*
X03189D01*
Y01014D02*
Y01071D01*
Y01014D02*
X03381D01*
Y01071*
X03393*
Y01248*
X03381D02*
X03393D01*
X03381D02*
Y01306D01*
X0377Y0483D02*
Y05012D01*
X0368D02*
X0377D01*
X0368Y0483D02*
Y05012D01*
Y0483D02*
X0377D01*
X0425Y04824D02*
Y05006D01*
X0416D02*
X0425D01*
X0416Y04824D02*
Y05006D01*
Y04824D02*
X0425D01*
G54D315*
X00772Y02293D03*
G54D316*
X06103Y02632D03*
X06151Y02679D03*
X06243Y02767D03*
X06198Y02722D03*
X07449Y0193D03*
X075Y01981D03*
G54D317*
X05972Y02456D03*
X06004Y02423D03*
G54D318*
X0291Y0478D03*
X01991Y0534D03*
G54D319*
X06492Y04837D03*
G54D320*
X07319Y02617D03*
X03835Y04504D03*
M02*