%FSTAX23Y23*%
%MOIN*%
%SFA1B1*%

%IPPOS*%
%AMD123*
4,1,8,-0.075000,0.015000,-0.075000,-0.015000,-0.060000,-0.030000,0.060000,-0.030000,0.075000,-0.015000,0.075000,0.015000,0.060000,0.030000,-0.060000,0.030000,-0.075000,0.015000,0.0*
1,1,0.030000,-0.060000,0.015000*
1,1,0.030000,-0.060000,-0.015000*
1,1,0.030000,0.060000,-0.015000*
1,1,0.030000,0.060000,0.015000*
%
%AMD126*
4,1,8,-0.059100,0.029500,-0.059100,-0.029500,-0.029500,-0.059100,0.029500,-0.059100,0.059100,-0.029500,0.059100,0.029500,0.029500,0.059100,-0.029500,0.059100,-0.059100,0.029500,0.0*
1,1,0.059056,-0.029500,0.029500*
1,1,0.059056,-0.029500,-0.029500*
1,1,0.059056,0.029500,-0.029500*
1,1,0.059056,0.029500,0.029500*
%
%ADD107C,0.196850*%
%ADD108O,0.157480X0.196850*%
%ADD109R,0.078740X0.062992*%
%ADD110O,0.078740X0.062992*%
%ADD111R,0.062992X0.078740*%
%ADD112O,0.062992X0.078740*%
%ADD114R,0.066929X0.066929*%
%ADD115C,0.066929*%
%ADD116C,0.157480*%
%ADD117C,0.149606*%
%ADD118C,0.062992*%
%ADD119R,0.062992X0.062992*%
%ADD120C,0.055118*%
%ADD121R,0.055118X0.055118*%
%ADD122C,0.078740*%
G04~CAMADD=123~8~0.0~0.0~600.0~1500.0~150.0~0.0~15~0.0~0.0~0.0~0.0~0~0.0~0.0~0.0~0.0~0~0.0~0.0~0.0~90.0~1500.0~600.0*
%ADD123D123*%
%ADD124C,0.098425*%
%ADD125O,0.098425X0.102362*%
G04~CAMADD=126~8~0.0~0.0~1181.1~1181.1~295.3~0.0~15~0.0~0.0~0.0~0.0~0~0.0~0.0~0.0~0.0~0~0.0~0.0~0.0~90.0~1182.0~1182.0*
%ADD126D126*%
%ADD127C,0.035433*%
%ADD128O,0.098425X0.047244*%
%ADD129R,0.098425X0.047244*%
%ADD130C,0.029528*%
%ADD131R,0.090000X0.090000*%
%ADD132C,0.090000*%
%ADD133C,0.047244*%
%ADD134C,0.086614*%
%ADD135C,0.070866*%
%ADD136C,0.106299*%
%ADD137C,0.051181*%
%ADD138C,0.127953*%
%ADD139C,0.062000*%
%ADD140C,0.060000*%
%ADD141C,0.118110*%
%ADD142C,0.120000*%
%ADD144C,0.118110*%
%ADD145O,0.129921X0.157480*%
%ADD146C,0.060000*%
%ADD147C,0.236220*%
%ADD148C,0.283465*%
%ADD149C,0.472441*%
%ADD150C,0.017716*%
%ADD151C,0.039370*%
%ADD152C,0.030000*%
%ADD195C,0.090551*%
%LNsyncbox_copper_signal_2-1*%
%LPD*%
G36*
X01475Y05799D02*
X01249Y05575D01*
X00976*
X00975Y05575*
X0097Y05578*
X00965Y0558*
X00959Y05578*
X00954Y05575*
X00953Y05575*
X00941*
X0094Y05575*
X00935Y05578*
X0093Y0558*
X00924Y05578*
X00919Y05575*
X00918Y05575*
X00375*
Y061*
X01475*
Y05799*
G37*
G36*
X0816Y0565D02*
X08325Y05485D01*
Y045*
X08071Y04246*
X06955*
Y04065*
Y03405*
X08025Y02335*
Y00496*
X0802Y00494*
X08015Y00495*
X08009Y00493*
X08004Y0049*
X08001Y00485*
X07999Y0048*
X08001Y00474*
X08004Y00469*
X08009Y00466*
X08015Y00464*
X0802Y00465*
X08025Y00463*
Y00145*
X06862*
X06859Y0015*
X06863Y00163*
X06864Y0018*
X06863Y00197*
X06858Y00212*
X0685Y00227*
X0684Y0024*
X06827Y00251*
X06812Y00259*
X06796Y00263*
X06779Y00265*
X06763Y00263*
X06747Y00259*
X06732Y00251*
X06719Y0024*
X06709Y00227*
X06701Y00212*
X06696Y00197*
X06694Y0018*
X06696Y00163*
X067Y0015*
X06697Y00145*
X06488*
X06486Y00149*
X06488Y0015*
X06495Y0016*
X06499Y00171*
X06501Y00183*
X06499Y00195*
X06495Y00206*
X06488Y00215*
X06478Y00222*
X06467Y00227*
X06455Y00228*
X06443Y00227*
X06432Y00222*
X06423Y00215*
X06416Y00206*
X06411Y00195*
X0641Y00183*
X06411Y00171*
X06416Y0016*
X06423Y0015*
X06424Y00149*
X06423Y00145*
X06378*
X06377Y00149*
X06378Y0015*
X06386Y0016*
X0639Y00171*
X06392Y00183*
X0639Y00195*
X06386Y00206*
X06378Y00215*
X06369Y00222*
X06358Y00227*
X06346Y00228*
X06334Y00227*
X06323Y00222*
X06314Y00215*
X06306Y00206*
X06302Y00195*
X063Y00183*
X06302Y00171*
X06306Y0016*
X06314Y0015*
X06315Y00149*
X06314Y00145*
X06269*
X06268Y00149*
X06269Y0015*
X06276Y0016*
X06281Y00171*
X06282Y00183*
X06281Y00195*
X06276Y00206*
X06269Y00215*
X0626Y00222*
X06249Y00227*
X06237Y00228*
X06225Y00227*
X06214Y00222*
X06204Y00215*
X06197Y00206*
X06193Y00195*
X06191Y00183*
X06193Y00171*
X06197Y0016*
X06204Y0015*
X06206Y00149*
X06204Y00145*
X0616*
X06158Y00149*
X0616Y0015*
X06167Y0016*
X06172Y00171*
X06173Y00183*
X06172Y00195*
X06167Y00206*
X0616Y00215*
X0615Y00222*
X06139Y00227*
X06128Y00228*
X06116Y00227*
X06105Y00222*
X06095Y00215*
X06088Y00206*
X06083Y00195*
X06082Y00183*
X06083Y00171*
X06088Y0016*
X06095Y0015*
X06097Y00149*
X06095Y00145*
X05884*
X0588Y0015*
X05883Y00161*
X05885Y00178*
X05883Y00195*
X05879Y00211*
X05871Y00225*
X0586Y00238*
X05847Y00249*
X05833Y00257*
X05817Y00261*
X058Y00263*
X05783Y00261*
X05768Y00257*
X05753Y00249*
X0574Y00238*
X05729Y00225*
X05721Y00211*
X05717Y00195*
X05715Y00178*
X05717Y00161*
X0572Y0015*
X05717Y00145*
X05556*
X05553Y0015*
X05557Y00163*
X05558Y0018*
X05557Y00197*
X05552Y00212*
X05544Y00227*
X05534Y0024*
X05521Y00251*
X05506Y00259*
X0549Y00263*
X05473Y00265*
X05457Y00263*
X05441Y00259*
X05426Y00251*
X05413Y0024*
X05403Y00227*
X05395Y00212*
X0539Y00197*
X05388Y0018*
X0539Y00163*
X05394Y0015*
X05391Y00145*
X05182*
X0518Y00149*
X05182Y0015*
X05189Y0016*
X05193Y00171*
X05195Y00183*
X05193Y00195*
X05189Y00206*
X05182Y00215*
X05172Y00222*
X05161Y00227*
X05149Y00228*
X05137Y00227*
X05126Y00222*
X05117Y00215*
X0511Y00206*
X05105Y00195*
X05104Y00183*
X05105Y00171*
X0511Y0016*
X05117Y0015*
X05118Y00149*
X05117Y00145*
X05072*
X05071Y00149*
X05072Y0015*
X0508Y0016*
X05084Y00171*
X05086Y00183*
X05084Y00195*
X0508Y00206*
X05072Y00215*
X05063Y00222*
X05052Y00227*
X0504Y00228*
X05028Y00227*
X05017Y00222*
X05008Y00215*
X05Y00206*
X04996Y00195*
X04994Y00183*
X04996Y00171*
X05Y0016*
X05008Y0015*
X05009Y00149*
X05008Y00145*
X04963*
X04962Y00149*
X04963Y0015*
X0497Y0016*
X04975Y00171*
X04976Y00183*
X04975Y00195*
X0497Y00206*
X04963Y00215*
X04954Y00222*
X04943Y00227*
X04931Y00228*
X04919Y00227*
X04908Y00222*
X04898Y00215*
X04891Y00206*
X04887Y00195*
X04885Y00183*
X04887Y00171*
X04891Y0016*
X04898Y0015*
X049Y00149*
X04898Y00145*
X04854*
X04852Y00149*
X04854Y0015*
X04861Y0016*
X04866Y00171*
X04867Y00183*
X04866Y00195*
X04861Y00206*
X04854Y00215*
X04844Y00222*
X04833Y00227*
X04822Y00228*
X0481Y00227*
X04799Y00222*
X04789Y00215*
X04782Y00206*
X04777Y00195*
X04776Y00183*
X04777Y00171*
X04782Y0016*
X04789Y0015*
X04791Y00149*
X04789Y00145*
X04578*
X04574Y0015*
X04577Y00161*
X04579Y00178*
X04577Y00195*
X04573Y00211*
X04565Y00225*
X04554Y00238*
X04541Y00249*
X04527Y00257*
X04511Y00261*
X04494Y00263*
X04477Y00261*
X04462Y00257*
X04447Y00249*
X04434Y00238*
X04423Y00225*
X04415Y00211*
X04411Y00195*
X04409Y00178*
X04411Y00161*
X04414Y0015*
X04411Y00145*
X0169*
Y00355*
X00888*
Y00145*
X00495*
X0019Y0045*
Y02365*
X00395*
Y04885*
X00215Y05065*
Y0553*
X00912*
X00915Y05526*
X00914Y05525*
X00916Y05519*
X00919Y05514*
X00924Y05511*
X0093Y05509*
X00935Y05511*
X0094Y05514*
X00941Y05516*
X00948*
X00949Y05514*
X00954Y05511*
X0096Y05509*
X00965Y05511*
X0097Y05514*
X00973Y05519*
X00975Y05525*
X00974Y05526*
X00977Y0553*
X01246*
X01249Y05528*
X01405Y05684*
X02255*
Y05315*
X02195Y05255*
X0216*
X02137Y05277*
X02137Y05277*
X02133Y05283*
X02127Y05287*
X02127Y05287*
X02045Y0537*
Y05505*
X01385*
X01345Y05465*
Y05428*
X0134Y05425*
X01337Y05427*
X01331Y05429*
X01325Y0543*
X01318Y05429*
X01312Y05427*
X01306Y05423*
X01302Y05417*
X013Y05411*
X01299Y05405*
X013Y05398*
X01302Y05392*
X01306Y05386*
X01312Y05382*
X01318Y0538*
X01325Y05379*
X01331Y0538*
X01337Y05382*
X0134Y05384*
X01345Y05381*
Y05277*
X01595Y05027*
Y047*
X016Y04695*
X0174*
Y0493*
X0182Y0501*
X01825Y05005*
X01853*
X01856Y05*
X01855Y04996*
X01854Y0499*
X01855Y04983*
X01857Y04977*
X01861Y04971*
X01867Y04967*
X01873Y04965*
X0188Y04964*
X01886Y04965*
X01892Y04967*
X01898Y04971*
X01902Y04977*
X01904Y04983*
X01905Y0499*
X01904Y04996*
X01903Y05*
X01906Y05005*
X01924*
X01925Y05003*
X01927Y04997*
X01931Y04991*
X01937Y04987*
X01943Y04985*
X0195Y04984*
X01956Y04985*
X01962Y04987*
X01968Y04991*
X01972Y04997*
X01974Y05003*
X01975Y05005*
X02388*
X02388Y05*
X02388Y04999*
X02382Y04997*
X02376Y04993*
X02372Y04987*
X0237Y04981*
X02369Y04975*
X0237Y04968*
X02372Y04962*
X02376Y04956*
X02382Y04952*
X02388Y0495*
X02395Y04949*
X02401Y0495*
X02407Y04952*
X02413Y04956*
X02417Y04962*
X02419Y04968*
X02425Y04971*
X02428Y0497*
X02435Y04969*
X02441Y0497*
X02447Y04972*
X02453Y04976*
X02457Y04982*
X02459Y04988*
X0246Y04995*
X0246Y04999*
X02465Y05001*
X0247Y05004*
X02471Y05005*
X02634*
X02635Y05004*
X02635Y05005*
X02739*
X0274Y05004*
X0274Y05005*
X02824*
X02825Y05004*
X02825Y05005*
X0291*
X0395Y03965*
Y0268*
X04023Y02606*
Y02586*
X03977Y0254*
X0385*
X03715Y02675*
Y0378*
X0264Y04855*
X02179*
X02178Y04855*
X02175Y0486*
X0217Y04863*
X02165Y04865*
X02159Y04863*
X02154Y0486*
X02151Y04855*
X0215Y04855*
X0212*
Y04765*
X02119Y04765*
X0212Y04764*
Y0476*
Y0458*
X01965Y04425*
X0155*
X01435Y0454*
X0134*
Y0495*
X0121Y0508*
X0103*
X0087Y0492*
Y0403*
X00869Y0403*
X00865Y04023*
X00863Y04015*
Y03985*
X00865Y03977*
X00869Y0397*
X0087Y0397*
Y03535*
X0112*
X0117Y03485*
Y0315*
X0113Y0311*
X00655*
X00625Y0308*
Y0227*
X0098*
Y0218*
X00953Y02153*
Y00579*
X01851*
X01852Y00574*
X01851Y00574*
X0184Y00568*
X0183Y0056*
X01822Y0055*
X01816Y00539*
X01812Y00527*
X01811Y00514*
X01812Y00501*
X01816Y00489*
X01822Y00478*
X0183Y00468*
X0184Y0046*
X01851Y00454*
X01864Y0045*
X01876Y00449*
X01889Y0045*
X01901Y00454*
X01913Y0046*
X01923Y00468*
X01931Y00478*
X01937Y00489*
X0194Y00501*
X01942Y00514*
X0194Y00527*
X01937Y00539*
X01931Y0055*
X01923Y0056*
X01913Y00568*
X01901Y00574*
X01901Y00574*
X01902Y00579*
X02019*
X02485Y01045*
X03187*
X03188Y0104*
X03191Y01035*
X03196Y01032*
X03202Y0103*
X03207Y01032*
X03212Y01035*
X03215Y0104*
X03216Y01045*
X0378*
X03789Y01054*
X03794Y01051*
X038Y01049*
X03805Y01051*
X0381Y01054*
X03813Y01059*
X03815Y01065*
X03813Y0107*
X0381Y01075*
X03805Y01078*
X038Y0108*
Y0124*
X0384Y0128*
X03845*
X0385*
X04015*
X0465Y01915*
X04885*
X0497Y02*
Y0294*
X04682Y03227*
Y03455*
X0468Y03458*
Y0351*
X05595Y04425*
X0562*
X06955*
X07664*
X07666Y0442*
X07678Y04401*
X07693Y04383*
X07711Y04368*
X0773Y04356*
X07752Y04347*
X07775Y04341*
X07798Y0434*
X07821Y04341*
X07843Y04347*
X07865Y04356*
X07885Y04368*
X07902Y04383*
X07918Y04401*
X0793Y0442*
X07931Y04425*
X07975*
X08205Y04655*
Y05425*
X08085Y05545*
X07955Y05675*
Y0569*
X08025Y0576*
X0805*
X0816Y0565*
G37*
G36*
X05845Y05734D02*
X05843Y05725D01*
X05845Y05715*
Y05679*
X07664*
X07665Y05678*
X07667Y05672*
X07671Y05666*
X07677Y05662*
X07683Y0566*
X0769Y05659*
X07696Y0566*
X07702Y05662*
X07708Y05666*
X07712Y05672*
X07714Y05678*
X07715Y05679*
X0786*
X0805Y0549*
Y05083*
X08047Y05082*
X08041Y05078*
X08037Y05072*
X08035Y05066*
X08034Y0506*
X08035Y05053*
X08037Y05047*
X07942Y04952*
X0791*
X07906Y04951*
X07904Y04946*
Y04914*
X07809Y04819*
X07803Y0482*
X07802Y04822*
X07798Y04828*
X07792Y04832*
X07786Y04834*
X0778Y04835*
X07773Y04834*
X07767Y04832*
X07761Y04828*
X07757Y04822*
X07755Y04816*
X07754Y0481*
X07755Y04803*
X07757Y04797*
X07761Y04791*
X07767Y04787*
X07769Y04786*
X0777Y0478*
X0747Y0448*
X0657*
Y045*
X06565Y04505*
X06376*
X0637Y04498*
Y0448*
X05624*
X04665Y0352*
Y03515*
X04663Y0351*
X04663Y03509*
Y03458*
X04665Y03452*
Y03235*
Y03205*
X0494Y0293*
X04945*
Y02*
X04895Y0195*
X04655*
X04005Y013*
X03835*
X03785Y0125*
Y01245*
X03783Y0124*
Y01239*
Y01085*
X03151*
X03149Y0109*
X0315Y01095*
X03148Y011*
X03145Y01105*
X0314Y01108*
X03135Y0111*
X03129Y01108*
X03124Y01105*
X03121Y011*
X03119Y01095*
X0312Y0109*
X03118Y01085*
X025*
X0203Y00615*
X01*
Y02275*
X00991Y02293*
X00681*
X00655Y0232*
Y03045*
X00652Y03048*
X00675Y0309*
X01099*
X01104*
X01106Y03084*
X01109Y03079*
X01114Y03076*
X0112Y03074*
X01125Y03076*
X0113Y03079*
X01133Y03084*
X01135Y0309*
X01135Y0309*
X01205Y0316*
Y0348*
X01135Y0355*
X01125*
X0112Y03551*
X01119*
X00958*
X00886Y03623*
Y03877*
X0089Y03879*
X00892Y03878*
X00903Y03873*
X00915Y03871*
X00927Y03873*
X00938Y03878*
X00948Y03885*
X00955Y03894*
X00959Y03905*
X00961Y03917*
X00959Y03929*
X00955Y0394*
X00948Y03949*
X00938Y03957*
X00933Y03959*
X00934Y03964*
X01004*
X01012Y03965*
X01019Y0397*
X01024Y03977*
X01026Y03985*
Y04015*
X01024Y04023*
X01019Y0403*
X01012Y04035*
X01004Y04036*
X00886*
Y04906*
X00938Y04958*
X00945Y04958*
X00946Y04956*
X00952Y04952*
X00958Y0495*
X00965Y04949*
X00971Y0495*
X00977Y04952*
X00983Y04956*
X00987Y04962*
X00989Y04968*
X0099Y04975*
X00989Y04981*
X00987Y04987*
X00983Y04993*
X00981Y04994*
X00981Y05001*
X0104Y0506*
X01202*
X01312Y0495*
Y04503*
X01435Y04503*
X01541Y04397*
X01548Y0439*
X01981Y04388*
X0219Y04597*
Y0483*
X0231*
X0234Y048*
Y04508*
X01873Y04042*
Y0279*
X01795*
X0179Y02791*
X01789Y02791*
X01627*
X01627Y0279*
X01626Y0279*
X01624Y0279*
X01622Y0279*
X01597*
X01595Y0279*
X01593Y0279*
X01592Y0279*
X01592Y02791*
X01134*
X01133Y02795*
X0113Y028*
X01125Y02803*
X0112Y02805*
X01114Y02803*
X01109Y028*
X01106Y02795*
X01105Y02791*
X0098*
X00974Y0279*
X00925*
Y02659*
X00921Y02656*
X00915Y02657*
X00903Y02655*
X00892Y02651*
X00883Y02643*
X00876Y02634*
X00871Y02623*
X0087Y02611*
X00871Y02599*
X00876Y02588*
X00883Y02579*
X00892Y02572*
X009Y02568*
X00899Y02563*
X00886*
X00878Y02562*
X00871Y02557*
X00867Y0255*
X00865Y02542*
Y02512*
X00867Y02504*
X00871Y02497*
X00878Y02492*
X00886Y02491*
X01006*
X01014Y02492*
X01021Y02497*
X01026Y02504*
X01028Y02512*
Y02542*
X01026Y0255*
X01021Y02557*
X01014Y02562*
X01006Y02563*
X00932*
X00931Y02568*
X00938Y02572*
X00948Y02579*
X00948Y0258*
X00974*
X0098Y02578*
X01591*
X02051Y02119*
X02062*
X02065Y02114*
X02064Y0211*
X02066Y02104*
X02069Y02099*
X02074Y02096*
X0208Y02094*
X02085Y02096*
X0209Y02099*
X02093Y02104*
X02095Y0211*
X02094Y02114*
X02097Y02119*
X02204*
X02206Y02113*
X02209Y02108*
X02214Y02105*
X0222Y02103*
X02225Y02105*
X0223Y02108*
X02233Y02113*
X02235Y02119*
X02264*
X02269Y02116*
X02275Y02114*
X0228Y02116*
X02285Y02119*
X03356*
X03356Y02117*
X03359Y02112*
X03364Y02109*
X0337Y02107*
X03376Y02109*
X03379Y02111*
X03383Y02112*
X03386Y02111*
X0339Y02109*
X03396Y02107*
X03401Y02109*
X03406Y02112*
X03409Y02117*
X0341Y02119*
X03906*
X03948Y02076*
X043*
Y04147*
X04427Y04275*
X0471*
Y04745*
X04265*
X03802Y05207*
X03477*
X03405Y0528*
Y0575*
X03455Y058*
X05845*
Y05734*
G37*
G36*
X01793Y05484D02*
X02024D01*
X02025Y05483*
Y05375*
X01794Y05374*
X01795Y0517*
X0207Y05172*
X02071Y05167*
X02069Y05165*
X02066Y0516*
X02064Y05155*
X02066Y05149*
X02069Y05144*
X02074Y05141*
X0208Y05139*
X02085Y05141*
X0209Y05144*
X02093Y05149*
X02095Y05155*
X02093Y0516*
X0209Y05165*
X02088Y05167*
X02089Y05172*
X02156Y05172*
X02157Y05167*
X02154Y05165*
X02151Y0516*
X02149Y05155*
X02151Y05149*
X02154Y05144*
X02159Y05141*
X02165Y05139*
X0217Y05141*
X02175Y05144*
X02178Y05149*
X0218Y05155*
X02178Y0516*
X02175Y05165*
X02172Y05167*
X02173Y05173*
X02315Y05174*
X02335Y05194*
X02384*
X02387Y05192*
X02393Y0519*
X024Y05189*
X02406Y0519*
X02412Y05192*
X02415Y05194*
X0244*
X02465*
X02484Y05175*
X02595Y05176*
X02633Y05215*
X028*
X02836Y05177*
X03457Y05182*
X03458Y05177*
X03456Y05177*
X03454Y05172*
Y05117*
X03456Y05112*
X03461Y05111*
X03516*
X0352Y05112*
X03522Y05117*
Y05172*
X0352Y05177*
X03518Y05178*
X03519Y05183*
X03564Y05183*
X03565Y05178*
X03564Y05178*
X03558Y05177*
X0355Y05174*
X03543Y05168*
X03538Y05161*
X03534Y05153*
X03533Y05145*
X03534Y05136*
X03538Y05128*
X03543Y05121*
X0355Y05115*
X03558Y05112*
X03567Y05111*
X03576Y05112*
X03584Y05115*
X03591Y05121*
X03596Y05128*
X036Y05136*
X03601Y05145*
X036Y05153*
X03596Y05161*
X03591Y05168*
X03584Y05174*
X03576Y05177*
X0357Y05178*
X03569Y05178*
X03569Y05183*
X0377Y05185*
X04029Y04925*
X04029Y0492*
X04026Y04915*
X04024Y0491*
X04026Y04904*
X04029Y04899*
X04034Y04896*
X0404Y04894*
X04045Y04896*
X0405Y04899*
X04055Y04899*
X04235Y0472*
X0467*
Y04305*
X04392*
X0428Y04192*
Y02389*
X04275Y02388*
X04274Y02388*
X04274Y02389*
X04267Y02394*
X04266Y02395*
X04265Y02395*
X04257Y02399*
X04256*
X04255Y02399*
X04246Y024*
X04246Y024*
X04245Y024*
X04245Y024*
X04245Y024*
X04235Y02399*
X04235Y02399*
X04234*
X04225Y02395*
X04225Y02395*
X04224Y02394*
X04217Y02389*
X04216Y02388*
X04216Y02388*
X0421Y0238*
X0421Y0238*
X04209Y02379*
X04206Y02371*
Y0237*
X04205Y02369*
X04204Y0236*
X04204Y02359*
X04204Y02358*
X04205Y02349*
X04206Y02349*
Y02348*
X04209Y02339*
X0421Y02339*
X0421Y02338*
X04216Y02331*
X04216Y0233*
X04217Y02329*
X04224Y02324*
X04225Y02324*
X04225Y02323*
X04234Y0232*
X04235*
X04235Y02319*
X04245Y02318*
X04245Y02318*
X04245Y02318*
X04246Y02318*
X04246Y02318*
X04255Y02319*
X04256Y0232*
X04257*
X04265Y02323*
X04266Y02324*
X04267Y02324*
X04274Y02329*
X04274Y0233*
X04275Y0233*
X0428Y02329*
Y0211*
X03981*
X03979Y02114*
X0398Y02115*
X03972Y02167*
X0397Y0217*
X0205*
X01795Y02425*
X01625Y02595*
X0098*
Y02775*
X01119*
X0112Y02774*
X0112Y02775*
X01592*
X01595Y02771*
X01594Y0277*
X01596Y02764*
X01599Y02759*
X01604Y02756*
X0161Y02754*
X01615Y02756*
X0162Y02759*
X01623Y02764*
X01625Y0277*
X01624Y02771*
X01627Y02775*
X0179*
X0196Y02605*
X02112Y02452*
X03946Y0245*
X03971Y02468*
X03971Y02511*
X0404Y0258*
Y02615*
X0397Y02684*
X03967Y03654*
X03972Y03657*
X03974Y03656*
X0398Y03654*
X03985Y03656*
X0399Y03659*
X03993Y03664*
X03995Y0367*
X03993Y03675*
X0399Y0368*
X03985Y03683*
X0398Y03685*
X03974Y03683*
X03972Y03682*
X03967Y03685*
X03966Y03978*
X02915Y0503*
X02836*
X02835Y0503*
X0283Y05033*
X02825Y05035*
X02819Y05033*
X02814Y0503*
X02813Y0503*
X02751*
X0275Y0503*
X02745Y05033*
X0274Y05035*
X02734Y05033*
X02729Y0503*
X02728Y0503*
X02646*
X02645Y0503*
X0264Y05033*
X02635Y05035*
X02629Y05033*
X02624Y0503*
X02623Y0503*
X0246*
X0246Y0503*
X02459Y0503*
X01965*
X01962Y05032*
X01956Y05034*
X0195Y05035*
X01943Y05034*
X01937Y05032*
X01934Y0503*
X01715*
Y05001*
X01714Y04995*
X01715Y04988*
Y04719*
X01625*
Y04895*
Y05276*
X01623Y05275*
X01375*
Y0539*
X01465Y05485*
X01505*
X01793*
X01793Y05484*
G37*
%LNsyncbox_copper_signal_2-2*%
%LPC*%
G36*
X0143Y0599D02*
X01423Y05989D01*
X01417Y05987*
X01411Y05983*
X01407Y05977*
X01405Y05971*
X01404Y05965*
X01405Y05958*
X01407Y05952*
X01411Y05946*
X01417Y05942*
X01423Y0594*
X0143Y05939*
X01436Y0594*
X01442Y05942*
X01448Y05946*
X01452Y05952*
X01454Y05958*
X01455Y05965*
X01454Y05971*
X01452Y05977*
X01448Y05983*
X01442Y05987*
X01436Y05989*
X0143Y0599*
G37*
G36*
X01215Y06069D02*
X01198Y06068D01*
X01182Y06064*
X01167Y06058*
X01153Y06049*
X0114Y06039*
X0113Y06026*
X01121Y06012*
X01115Y05997*
X01111Y05981*
X0111Y05965*
X01111Y05948*
X01115Y05932*
X01121Y05917*
X0113Y05903*
X0114Y0589*
X01153Y0588*
X01167Y05871*
X01182Y05865*
X01198Y05861*
X01215Y0586*
X01231Y05861*
X01247Y05865*
X01262Y05871*
X01276Y0588*
X01289Y0589*
X01299Y05903*
X01308Y05917*
X01314Y05932*
X01318Y05948*
X01319Y05965*
X01318Y05981*
X01314Y05997*
X01308Y06012*
X01299Y06026*
X01289Y06039*
X01276Y06049*
X01262Y06058*
X01247Y06064*
X01231Y06068*
X01215Y06069*
G37*
G36*
X01015Y0598D02*
X01008Y05979D01*
X01002Y05977*
X00996Y05973*
X00992Y05967*
X0099Y05961*
X00989Y05955*
X0099Y05948*
X00992Y05942*
X00996Y05936*
X01002Y05932*
X01002Y05932*
X01002Y05927*
X00997Y05925*
X00982Y05917*
X00969Y05907*
X00959Y05894*
X00951Y05879*
X00946Y05863*
X00944Y05846*
Y05807*
X00946Y0579*
X00951Y05774*
X00959Y0576*
X00969Y05747*
X00982Y05736*
X00997Y05728*
X01013Y05724*
X01029Y05722*
X01046Y05724*
X01062Y05728*
X01077Y05736*
X0109Y05747*
X011Y0576*
X01108Y05774*
X01113Y0579*
X01115Y05807*
Y05846*
X01113Y05863*
X01108Y05879*
X011Y05894*
X0109Y05907*
X01077Y05917*
X01062Y05925*
X01046Y0593*
X01034Y05931*
X01033Y05936*
X01033Y05936*
X01037Y05942*
X01039Y05948*
X0104Y05955*
X01039Y05961*
X01037Y05967*
X01033Y05973*
X01027Y05977*
X01021Y05979*
X01015Y0598*
G37*
G36*
X00845Y0577D02*
X00838Y05769D01*
X00832Y05767*
X00826Y05763*
X00822Y05757*
X0082Y05751*
X00819Y05745*
X0082Y05738*
X00822Y05732*
X00826Y05726*
X00832Y05722*
X00838Y0572*
X00845Y05719*
X00851Y0572*
X00857Y05722*
X00863Y05726*
X00867Y05732*
X00869Y05738*
X0087Y05745*
X00869Y05751*
X00867Y05757*
X00863Y05763*
X00857Y05767*
X00851Y05769*
X00845Y0577*
G37*
G36*
X0219Y0566D02*
X02176Y05658D01*
X02162Y05653*
X02151Y05644*
X02142Y05632*
X02136Y05619*
X02134Y05605*
X02136Y0559*
X02142Y05577*
X02151Y05565*
X02162Y05556*
X02176Y05551*
X0219Y05549*
X02204Y05551*
X02218Y05556*
X02229Y05565*
X02238Y05577*
X02244Y0559*
X02246Y05605*
X02244Y05619*
X02238Y05632*
X02229Y05644*
X02218Y05653*
X02204Y05658*
X0219Y0566*
G37*
G36*
X01915D02*
X019Y05658D01*
X01887Y05653*
X01875Y05644*
X01866Y05632*
X01861Y05619*
X01859Y05605*
X01861Y0559*
X01866Y05577*
X01875Y05565*
X01887Y05556*
X019Y05551*
X01915Y05549*
X01929Y05551*
X01942Y05556*
X01954Y05565*
X01963Y05577*
X01968Y0559*
X0197Y05605*
X01968Y05619*
X01963Y05632*
X01954Y05644*
X01942Y05653*
X01929Y05658*
X01915Y0566*
G37*
G36*
X00895Y05475D02*
X00889Y05473D01*
X00884Y0547*
X00881Y05465*
X00879Y0546*
X00881Y05454*
X00884Y05449*
X00889Y05446*
X00895Y05444*
X009Y05446*
X00905Y05449*
X00908Y05454*
X0091Y0546*
X00908Y05465*
X00905Y0547*
X009Y05473*
X00895Y05475*
G37*
G36*
X02175Y05465D02*
X02168Y05464D01*
X02162Y05462*
X02156Y05458*
X02152Y05452*
X0215Y05446*
X02149Y0544*
X0215Y05433*
X02152Y05427*
X02156Y05421*
X02162Y05417*
X02168Y05415*
X02175Y05414*
X02181Y05415*
X02187Y05417*
X02193Y05421*
X02197Y05427*
X02199Y05433*
X022Y0544*
X02199Y05446*
X02197Y05452*
X02193Y05458*
X02187Y05462*
X02181Y05464*
X02175Y05465*
G37*
G36*
X01Y05435D02*
X00993Y05434D01*
X00987Y05432*
X00981Y05428*
X00977Y05422*
X00975Y05416*
X00974Y0541*
X00975Y05403*
X00977Y05397*
X00981Y05391*
X00987Y05387*
X00993Y05385*
X01Y05384*
X01006Y05385*
X01012Y05387*
X01018Y05391*
X01022Y05397*
X01024Y05403*
X01025Y0541*
X01024Y05416*
X01022Y05422*
X01018Y05428*
X01012Y05432*
X01006Y05434*
X01Y05435*
G37*
G36*
X01005Y05315D02*
X00998Y05314D01*
X00992Y05312*
X00986Y05308*
X00982Y05302*
X0098Y05296*
X00979Y0529*
X0098Y05283*
X00982Y05277*
X00986Y05271*
X00992Y05267*
X00998Y05265*
X01005Y05264*
X01011Y05265*
X01017Y05267*
X01023Y05271*
X01027Y05277*
X01029Y05283*
X0103Y0529*
X01029Y05296*
X01027Y05302*
X01023Y05308*
X01017Y05312*
X01011Y05314*
X01005Y05315*
G37*
G36*
X0101Y05185D02*
X01003Y05184D01*
X00997Y05182*
X00991Y05178*
X00987Y05172*
X00985Y05166*
X00984Y0516*
X00985Y05153*
X00987Y05147*
X00991Y05141*
X00997Y05137*
X01003Y05135*
X0101Y05134*
X01016Y05135*
X01022Y05137*
X01028Y05141*
X01032Y05147*
X01034Y05153*
X01035Y0516*
X01034Y05166*
X01032Y05172*
X01028Y05178*
X01022Y05182*
X01016Y05184*
X0101Y05185*
G37*
G36*
X00703Y05458D02*
X00676Y05456D01*
X00649Y05451*
X00623Y05444*
X00598Y05434*
X00574Y0542*
X00552Y05405*
X00532Y05387*
X00514Y05366*
X00498Y05344*
X00485Y0532*
X00474Y05295*
X00467Y05269*
X00462Y05242*
X00461Y05215*
X00462Y05188*
X00467Y05161*
X00474Y05135*
X00485Y0511*
X00498Y05086*
X00514Y05064*
X00532Y05044*
X00552Y05025*
X00574Y0501*
X00598Y04997*
X00623Y04986*
X00649Y04979*
X00676Y04974*
X00703Y04973*
X0073Y04974*
X00757Y04979*
X00783Y04986*
X00808Y04997*
X00832Y0501*
X00854Y05025*
X00875Y05044*
X00893Y05064*
X00909Y05086*
X00922Y0511*
X00932Y05135*
X0094Y05161*
X00944Y05188*
X00946Y05215*
X00944Y05242*
X0094Y05269*
X00932Y05295*
X00922Y0532*
X00909Y05344*
X00893Y05366*
X00875Y05387*
X00854Y05405*
X00832Y0542*
X00808Y05434*
X00783Y05444*
X00757Y05451*
X0073Y05456*
X00703Y05458*
G37*
G36*
X0206Y04985D02*
X02053Y04984D01*
X02047Y04982*
X02041Y04978*
X02037Y04972*
X02035Y04966*
X02034Y0496*
X02035Y04953*
X02037Y04947*
X02041Y04941*
X02047Y04937*
X02053Y04935*
X0206Y04934*
X02066Y04935*
X02072Y04937*
X02078Y04941*
X02082Y04947*
X02084Y04953*
X02085Y0496*
X02084Y04966*
X02082Y04972*
X02078Y04978*
X02072Y04982*
X02066Y04984*
X0206Y04985*
G37*
G36*
X02455Y04935D02*
X02449Y04933D01*
X02444Y0493*
X02441Y04925*
X02439Y0492*
X02441Y04914*
X02444Y04909*
X02449Y04906*
X02455Y04904*
X0246Y04906*
X02465Y04909*
X02468Y04914*
X0247Y0492*
X02468Y04925*
X02465Y0493*
X0246Y04933*
X02455Y04935*
G37*
G36*
X0193Y04865D02*
X01923Y04864D01*
X01917Y04862*
X01911Y04858*
X01907Y04852*
X01905Y04846*
X01904Y0484*
X01905Y04833*
X01907Y04827*
X01911Y04821*
X01917Y04817*
X01923Y04815*
X0193Y04814*
X01936Y04815*
X01942Y04817*
X01948Y04821*
X0195Y04824*
X01955Y04822*
X01956Y04819*
X01959Y04814*
X01964Y04811*
X0197Y04809*
X01975Y04811*
X0198Y04814*
X01983Y04819*
X01985Y04825*
X01983Y0483*
X0198Y04835*
X01975Y04838*
X0197Y0484*
X01964Y04838*
X0196Y04836*
X01956Y04837*
X01955Y04838*
X01955Y0484*
X01954Y04846*
X01952Y04852*
X01948Y04858*
X01942Y04862*
X01936Y04864*
X0193Y04865*
G37*
G36*
X0182Y04855D02*
X01813Y04854D01*
X01807Y04852*
X01801Y04848*
X01797Y04842*
X01795Y04836*
X01794Y0483*
X01795Y04823*
X01797Y04817*
X01801Y04811*
X01807Y04807*
X01813Y04805*
X0182Y04804*
X01826Y04805*
X01832Y04807*
X01838Y04811*
X01842Y04817*
X01844Y04823*
X01845Y0483*
X01844Y04836*
X01842Y04842*
X01838Y04848*
X01832Y04852*
X01826Y04854*
X0182Y04855*
G37*
G36*
X0199Y04695D02*
X01984Y04693D01*
X01979Y0469*
X01976Y04685*
X01974Y0468*
X01976Y04674*
X01979Y04669*
X01984Y04666*
X0199Y04664*
X01995Y04666*
X02Y04669*
X02003Y04674*
X02005Y0468*
X02003Y04685*
X02Y0469*
X01995Y04693*
X0199Y04695*
G37*
G36*
X00632Y04636D02*
X00609Y04634D01*
X00587Y04629*
X00565Y0462*
X00545Y04608*
X00528Y04592*
X00513Y04575*
X005Y04555*
X00492Y04533*
X00486Y04511*
X00484Y04488*
X00486Y04465*
X00492Y04442*
X005Y0442*
X00513Y04401*
X00528Y04383*
X00545Y04368*
X00565Y04356*
X00587Y04347*
X00609Y04341*
X00632Y0434*
X00656Y04341*
X00678Y04347*
X007Y04356*
X00719Y04368*
X00737Y04383*
X00752Y04401*
X00764Y0442*
X00773Y04442*
X00779Y04465*
X0078Y04488*
X00779Y04511*
X00773Y04533*
X00764Y04555*
X00752Y04575*
X00737Y04592*
X00719Y04608*
X007Y0462*
X00678Y04629*
X00656Y04634*
X00632Y04636*
G37*
G36*
X06013Y04364D02*
X06007Y04362D01*
X06002Y04359*
X05999Y04354*
X05997Y04349*
X05999Y04343*
X06002Y04338*
X06007Y04335*
X06013Y04333*
X06018Y04335*
X06023Y04338*
X06026Y04343*
X06028Y04349*
X06026Y04354*
X06023Y04359*
X06018Y04362*
X06013Y04364*
G37*
G36*
X05853Y04268D02*
X05774D01*
X0577Y04267*
X05768Y04262*
Y04199*
X0577Y04194*
X05774Y04193*
X05853*
X05857Y04194*
X05859Y04199*
Y04262*
X05857Y04267*
X05853Y04268*
G37*
G36*
X05632D02*
X05553D01*
X05549Y04267*
X05547Y04262*
Y04199*
X05549Y04194*
X05553Y04193*
X05632*
X05636Y04194*
X05638Y04199*
Y04262*
X05636Y04267*
X05632Y04268*
G37*
G36*
X05821Y04168D02*
X05806D01*
X05796Y04167*
X05787Y04163*
X05779Y04157*
X05773Y04149*
X05769Y0414*
X05768Y04131*
X05769Y04121*
X05773Y04112*
X05779Y04104*
X05787Y04098*
X05796Y04094*
X05806Y04093*
X05821*
X05831Y04094*
X0584Y04098*
X05848Y04104*
X05854Y04112*
X05858Y04121*
X05859Y04131*
X05858Y0414*
X05854Y04149*
X05848Y04157*
X0584Y04163*
X05831Y04167*
X05821Y04168*
G37*
G36*
X056D02*
X05585D01*
X05575Y04167*
X05566Y04163*
X05558Y04157*
X05552Y04149*
X05548Y0414*
X05547Y04131*
X05548Y04121*
X05552Y04112*
X05558Y04104*
X05566Y04098*
X05575Y04094*
X05585Y04093*
X056*
X0561Y04094*
X05619Y04098*
X05627Y04104*
X05633Y04112*
X05637Y04121*
X05638Y04131*
X05637Y0414*
X05633Y04149*
X05627Y04157*
X05619Y04163*
X0561Y04167*
X056Y04168*
G37*
G36*
X06336Y04137D02*
X06326Y04136D01*
X06317Y04132*
X06309Y04126*
X06303Y04118*
X06299Y04109*
X06298Y04099*
Y04084*
X06299Y04074*
X06303Y04065*
X06309Y04057*
X06317Y04051*
X06326Y04047*
X06336Y04046*
X06345Y04047*
X06354Y04051*
X06362Y04057*
X06368Y04065*
X06372Y04074*
X06373Y04084*
Y04099*
X06372Y04109*
X06368Y04118*
X06362Y04126*
X06354Y04132*
X06345Y04136*
X06336Y04137*
G37*
G36*
X06236D02*
X06226Y04136D01*
X06217Y04132*
X06209Y04126*
X06203Y04118*
X06199Y04109*
X06198Y04099*
Y04084*
X06199Y04074*
X06203Y04065*
X06209Y04057*
X06217Y04051*
X06226Y04047*
X06236Y04046*
X06245Y04047*
X06254Y04051*
X06262Y04057*
X06268Y04065*
X06272Y04074*
X06273Y04084*
Y04099*
X06272Y04109*
X06268Y04118*
X06262Y04126*
X06254Y04132*
X06245Y04136*
X06236Y04137*
G37*
G36*
X06167Y04137D02*
X06104D01*
X06099Y04135*
X06098Y04131*
Y04052*
X06099Y04048*
X06104Y04046*
X06167*
X06172Y04048*
X06173Y04052*
Y04131*
X06172Y04135*
X06167Y04137*
G37*
G36*
X05821Y04068D02*
X05806D01*
X05796Y04067*
X05787Y04063*
X05779Y04057*
X05773Y04049*
X05769Y0404*
X05768Y04031*
X05769Y04021*
X05773Y04012*
X05779Y04004*
X05787Y03998*
X05796Y03994*
X05806Y03993*
X05821*
X05831Y03994*
X0584Y03998*
X05848Y04004*
X05854Y04012*
X05858Y04021*
X05859Y04031*
X05858Y0404*
X05854Y04049*
X05848Y04057*
X0584Y04063*
X05831Y04067*
X05821Y04068*
G37*
G36*
X056D02*
X05585D01*
X05575Y04067*
X05566Y04063*
X05558Y04057*
X05552Y04049*
X05548Y0404*
X05547Y04031*
X05548Y04021*
X05552Y04012*
X05558Y04004*
X05566Y03998*
X05575Y03994*
X05585Y03993*
X056*
X0561Y03994*
X05619Y03998*
X05627Y04004*
X05633Y04012*
X05637Y04021*
X05638Y04031*
X05637Y0404*
X05633Y04049*
X05627Y04057*
X05619Y04063*
X0561Y04067*
X056Y04068*
G37*
G36*
X0563Y03769D02*
X05619Y03768D01*
X0561Y03764*
X05601Y03758*
X05595Y03749*
X05591Y0374*
X0559Y0373*
X05591Y03719*
X05595Y0371*
X05601Y03701*
X0561Y03695*
X05619Y03691*
X0563Y0369*
X0564Y03691*
X05649Y03695*
X05658Y03701*
X05664Y0371*
X05668Y03719*
X05669Y0373*
X05668Y0374*
X05664Y03749*
X05658Y03758*
X05649Y03764*
X0564Y03768*
X0563Y03769*
G37*
G36*
X05563Y03769D02*
X05496D01*
X05492Y03767*
X0549Y03763*
Y03696*
X05492Y03692*
X05496Y0369*
X05563*
X05567Y03692*
X05569Y03696*
Y03763*
X05567Y03767*
X05563Y03769*
G37*
G36*
X0597Y0371D02*
X05964Y03708D01*
X05959Y03705*
X05956Y037*
X05954Y03695*
X05956Y03689*
X05959Y03684*
X05964Y03681*
X0597Y03679*
X05975Y03681*
X0598Y03684*
X05983Y03689*
X05985Y03695*
X05983Y037*
X0598Y03705*
X05975Y03708*
X0597Y0371*
G37*
G36*
X0498Y03705D02*
X04974Y03703D01*
X04969Y037*
X04966Y03695*
X04964Y0369*
X04966Y03684*
X04969Y03679*
X04974Y03676*
X0498Y03674*
X04985Y03676*
X0499Y03679*
X04993Y03684*
X04995Y0369*
X04993Y03695*
X0499Y037*
X04985Y03703*
X0498Y03705*
G37*
G36*
X05219Y03697D02*
X05213Y03696D01*
X05208Y03693*
X05205Y03688*
X05203Y03682*
X05205Y03676*
X05208Y03672*
X05213Y03668*
X05219Y03667*
X05224Y03668*
X05229Y03672*
X05232Y03676*
X05234Y03682*
X05232Y03688*
X05229Y03693*
X05224Y03696*
X05219Y03697*
G37*
G36*
X05295Y03685D02*
X05289Y03683D01*
X05284Y0368*
X05281Y03675*
X05279Y0367*
X05281Y03664*
X05284Y03659*
X05289Y03656*
X05295Y03654*
X053Y03656*
X05305Y03659*
X05308Y03664*
X0531Y0367*
X05308Y03675*
X05305Y0368*
X053Y03683*
X05295Y03685*
G37*
G36*
X03796Y03654D02*
X0379Y03652D01*
X03785Y03649*
X03782Y03644*
X0378Y03638*
X03782Y03633*
X03785Y03628*
X0379Y03625*
X03796Y03623*
X03801Y03625*
X03806Y03628*
X03809Y03633*
X03811Y03638*
X03809Y03644*
X03806Y03649*
X03801Y03652*
X03796Y03654*
G37*
G36*
X0563Y03669D02*
X05619Y03668D01*
X0561Y03664*
X05601Y03658*
X05595Y03649*
X05591Y0364*
X0559Y0363*
X05591Y03619*
X05595Y0361*
X05601Y03601*
X0561Y03595*
X05619Y03591*
X0563Y0359*
X0564Y03591*
X05649Y03595*
X05658Y03601*
X05664Y0361*
X05668Y03619*
X05669Y0363*
X05668Y0364*
X05664Y03649*
X05658Y03658*
X05649Y03664*
X0564Y03668*
X0563Y03669*
G37*
G36*
X0553D02*
X05519Y03668D01*
X0551Y03664*
X05501Y03658*
X05495Y03649*
X05491Y0364*
X0549Y0363*
X05491Y03619*
X05495Y0361*
X05501Y03601*
X0551Y03595*
X05519Y03591*
X0553Y0359*
X0554Y03591*
X05549Y03595*
X05558Y03601*
X05564Y0361*
X05568Y03619*
X05569Y0363*
X05568Y0364*
X05564Y03649*
X05558Y03658*
X05549Y03664*
X0554Y03668*
X0553Y03669*
G37*
G36*
X0528Y0355D02*
X05274Y03548D01*
X05269Y03545*
X05266Y0354*
X05264Y03535*
X05266Y03529*
X05269Y03524*
X05274Y03521*
X0528Y03519*
X05285Y03521*
X0529Y03524*
X05293Y03529*
X05295Y03535*
X05293Y0354*
X0529Y03545*
X05285Y03548*
X0528Y0355*
G37*
G36*
X05968Y03543D02*
X05962Y03542D01*
X05958Y03539*
X05954Y03534*
X05953Y03528*
X05954Y03522*
X05958Y03518*
X05962Y03514*
X05968Y03513*
X05974Y03514*
X05979Y03518*
X05982Y03522*
X05983Y03528*
X05982Y03534*
X05979Y03539*
X05974Y03542*
X05968Y03543*
G37*
G36*
X0563Y03569D02*
X05619Y03568D01*
X0561Y03564*
X05601Y03558*
X05595Y03549*
X05591Y0354*
X0559Y0353*
X05591Y03519*
X05595Y0351*
X05601Y03501*
X0561Y03495*
X05619Y03491*
X0563Y0349*
X0564Y03491*
X05649Y03495*
X05658Y03501*
X05664Y0351*
X05668Y03519*
X05669Y0353*
X05668Y0354*
X05664Y03549*
X05658Y03558*
X05649Y03564*
X0564Y03568*
X0563Y03569*
G37*
G36*
X0553D02*
X05519Y03568D01*
X0551Y03564*
X05501Y03558*
X05495Y03549*
X05491Y0354*
X0549Y0353*
X05491Y03519*
X05495Y0351*
X05501Y03501*
X0551Y03495*
X05519Y03491*
X0553Y0349*
X0554Y03491*
X05549Y03495*
X05558Y03501*
X05564Y0351*
X05568Y03519*
X05569Y0353*
X05568Y0354*
X05564Y03549*
X05558Y03558*
X05549Y03564*
X0554Y03568*
X0553Y03569*
G37*
G36*
X05315Y0349D02*
X05309Y03488D01*
X05304Y03485*
X05301Y0348*
X05299Y03475*
X05301Y03469*
X05304Y03464*
X05309Y03461*
X05315Y03459*
X0532Y03461*
X05325Y03464*
X05328Y03469*
X0533Y03475*
X05328Y0348*
X05325Y03485*
X0532Y03488*
X05315Y0349*
G37*
G36*
X05128Y03476D02*
X05122Y03474D01*
X05117Y03471*
X05114Y03466*
X05112Y03461*
X05114Y03455*
X05117Y0345*
X05122Y03447*
X05128Y03445*
X05133Y03447*
X05138Y0345*
X05141Y03455*
X05143Y03461*
X05141Y03466*
X05138Y03471*
X05133Y03474*
X05128Y03476*
G37*
G36*
X0495Y03465D02*
X04944Y03463D01*
X04939Y0346*
X04936Y03455*
X04934Y0345*
X04936Y03444*
X04939Y03439*
X04944Y03436*
X0495Y03434*
X04955Y03436*
X0496Y03439*
X04963Y03444*
X04965Y0345*
X04963Y03455*
X0496Y0346*
X04955Y03463*
X0495Y03465*
G37*
G36*
X05315Y03445D02*
X05309Y03443D01*
X05304Y0344*
X05301Y03435*
X05299Y0343*
X05301Y03424*
X05304Y03419*
X05309Y03416*
X05315Y03414*
X0532Y03416*
X05325Y03419*
X05328Y03424*
X0533Y0343*
X05328Y03435*
X05325Y0344*
X0532Y03443*
X05315Y03445*
G37*
G36*
X0563Y03469D02*
X05619Y03468D01*
X0561Y03464*
X05601Y03458*
X05595Y03449*
X05591Y0344*
X0559Y0343*
X05591Y03419*
X05595Y0341*
X05601Y03401*
X0561Y03395*
X05619Y03391*
X0563Y0339*
X0564Y03391*
X05649Y03395*
X05658Y03401*
X05664Y0341*
X05668Y03419*
X05669Y0343*
X05668Y0344*
X05664Y03449*
X05658Y03458*
X05649Y03464*
X0564Y03468*
X0563Y03469*
G37*
G36*
X0553D02*
X05519Y03468D01*
X0551Y03464*
X05501Y03458*
X05495Y03449*
X05491Y0344*
X0549Y0343*
X05491Y03419*
X05495Y0341*
X05501Y03401*
X0551Y03395*
X05519Y03391*
X0553Y0339*
X0554Y03391*
X05549Y03395*
X05558Y03401*
X05564Y0341*
X05568Y03419*
X05569Y0343*
X05568Y0344*
X05564Y03449*
X05558Y03458*
X05549Y03464*
X0554Y03468*
X0553Y03469*
G37*
G36*
X05968Y03368D02*
X05962Y03367D01*
X05958Y03364*
X05954Y03359*
X05953Y03353*
X05954Y03347*
X05958Y03343*
X05962Y03339*
X05968Y03338*
X05974Y03339*
X05979Y03343*
X05982Y03347*
X05983Y03353*
X05982Y03359*
X05979Y03364*
X05974Y03367*
X05968Y03368*
G37*
G36*
X05265Y0334D02*
X05259Y03338D01*
X05254Y03335*
X05251Y0333*
X05249Y03325*
X05251Y03319*
X05254Y03314*
X05259Y03311*
X05265Y03309*
X0527Y03311*
X05275Y03314*
X05278Y03319*
X0528Y03325*
X05278Y0333*
X05275Y03335*
X0527Y03338*
X05265Y0334*
G37*
G36*
X0563Y03369D02*
X05619Y03368D01*
X0561Y03364*
X05601Y03358*
X05595Y03349*
X05591Y0334*
X0559Y0333*
X05591Y03319*
X05595Y0331*
X05601Y03301*
X0561Y03295*
X05619Y03291*
X0563Y0329*
X0564Y03291*
X05649Y03295*
X05658Y03301*
X05664Y0331*
X05668Y03319*
X05669Y0333*
X05668Y0334*
X05664Y03349*
X05658Y03358*
X05649Y03364*
X0564Y03368*
X0563Y03369*
G37*
G36*
X0553D02*
X05519Y03368D01*
X0551Y03364*
X05501Y03358*
X05495Y03349*
X05491Y0334*
X0549Y0333*
X05491Y03319*
X05495Y0331*
X05501Y03301*
X0551Y03295*
X05519Y03291*
X0553Y0329*
X0554Y03291*
X05549Y03295*
X05558Y03301*
X05564Y0331*
X05568Y03319*
X05569Y0333*
X05568Y0334*
X05564Y03349*
X05558Y03358*
X05549Y03364*
X0554Y03368*
X0553Y03369*
G37*
G36*
X0112Y03205D02*
X01114Y03203D01*
X01109Y032*
X01106Y03195*
X01104Y0319*
X01106Y03184*
X01109Y03179*
X01114Y03176*
X0112Y03174*
X01125Y03176*
X0113Y03179*
X01133Y03184*
X01135Y0319*
X01133Y03195*
X0113Y032*
X01125Y03203*
X0112Y03205*
G37*
G36*
X05303Y03172D02*
X05297Y0317D01*
X05292Y03167*
X05289Y03162*
X05287Y03157*
X05289Y03151*
X05292Y03146*
X05297Y03143*
X05303Y03141*
X05308Y03143*
X05313Y03146*
X05316Y03151*
X05318Y03157*
X05316Y03162*
X05313Y03167*
X05308Y0317*
X05303Y03172*
G37*
G36*
X05115Y03165D02*
X05109Y03163D01*
X05104Y0316*
X05101Y03155*
X05099Y0315*
X05101Y03144*
X05104Y03139*
X05109Y03136*
X05115Y03134*
X0512Y03136*
X05125Y03139*
X05128Y03144*
X0513Y0315*
X05128Y03155*
X05125Y0316*
X0512Y03163*
X05115Y03165*
G37*
G36*
X049Y03155D02*
X04894Y03153D01*
X04889Y0315*
X04886Y03145*
X04884Y0314*
X04886Y03134*
X04889Y03129*
X04894Y03126*
X049Y03124*
X04905Y03126*
X0491Y03129*
X04913Y03134*
X04915Y0314*
X04913Y03145*
X0491Y0315*
X04905Y03153*
X049Y03155*
G37*
G36*
X0112D02*
X01114Y03153D01*
X01109Y0315*
X01106Y03145*
X01104Y0314*
X01106Y03134*
X01109Y03129*
X01114Y03126*
X0112Y03124*
X01125Y03126*
X0113Y03129*
X01133Y03134*
X01135Y0314*
X01133Y03145*
X0113Y0315*
X01125Y03153*
X0112Y03155*
G37*
G36*
X06185Y0285D02*
X06178Y02849D01*
X06172Y02847*
X06166Y02843*
X06162Y02837*
X0616Y02831*
X06159Y02825*
X0616Y02818*
X06162Y02812*
X06166Y02806*
X06172Y02802*
X06178Y028*
X06185Y02799*
X06191Y028*
X06197Y02802*
X06203Y02806*
X06207Y02812*
X06209Y02818*
X0621Y02825*
X06209Y02831*
X06207Y02837*
X06203Y02843*
X06197Y02847*
X06191Y02849*
X06185Y0285*
G37*
G36*
X0613Y02805D02*
X06123Y02804D01*
X06117Y02802*
X06111Y02798*
X06107Y02792*
X06105Y02786*
X06104Y0278*
X06105Y02773*
X06107Y02767*
X06111Y02761*
X06117Y02757*
X06123Y02755*
X0613Y02754*
X06136Y02755*
X06142Y02757*
X06148Y02761*
X06152Y02767*
X06154Y02773*
X06155Y0278*
X06154Y02786*
X06152Y02792*
X06148Y02798*
X06142Y02802*
X06136Y02804*
X0613Y02805*
G37*
G36*
X06085Y0276D02*
X06078Y02759D01*
X06072Y02757*
X06066Y02753*
X06062Y02747*
X0606Y02741*
X06059Y02735*
X0606Y02728*
X06062Y02722*
X06066Y02716*
X06072Y02712*
X06078Y0271*
X06085Y02709*
X06091Y0271*
X06097Y02712*
X06103Y02716*
X06107Y02722*
X06109Y02728*
X0611Y02735*
X06109Y02741*
X06107Y02747*
X06103Y02753*
X06097Y02757*
X06091Y02759*
X06085Y0276*
G37*
G36*
X0604Y0272D02*
X06033Y02719D01*
X06027Y02717*
X06021Y02713*
X06017Y02707*
X06015Y02701*
X06014Y02695*
X06015Y02688*
X06017Y02682*
X06021Y02676*
X06027Y02672*
X06033Y0267*
X0604Y02669*
X06046Y0267*
X06052Y02672*
X06058Y02676*
X06062Y02682*
X06064Y02688*
X06065Y02695*
X06064Y02701*
X06062Y02707*
X06058Y02713*
X06052Y02717*
X06046Y02719*
X0604Y0272*
G37*
G36*
X06298Y0263D02*
X06292Y02628D01*
X06287Y02625*
X06284Y0262*
X06282Y02615*
X06284Y02609*
X06287Y02604*
X06292Y02601*
X06298Y02599*
X06303Y02601*
X06308Y02604*
X06311Y02609*
X06313Y02615*
X06311Y0262*
X06308Y02625*
X06303Y02628*
X06298Y0263*
G37*
G36*
X07399Y02649D02*
X07391Y02648D01*
X07384Y02645*
X07377Y02641*
X07373Y02634*
X0737Y02627*
X07369Y0262*
X0737Y02612*
X07373Y02605*
X07377Y02598*
X07384Y02594*
X07391Y02591*
X07399Y0259*
X07406Y02591*
X07413Y02594*
X0742Y02598*
X07424Y02605*
X07427Y02612*
X07428Y0262*
X07427Y02627*
X07424Y02634*
X0742Y02641*
X07413Y02645*
X07406Y02648*
X07399Y02649*
G37*
G36*
X0626Y0259D02*
X06254Y02588D01*
X06249Y02585*
X06246Y0258*
X06244Y02575*
X06246Y02569*
X06249Y02564*
X06254Y02561*
X0626Y02559*
X06265Y02561*
X0627Y02564*
X06273Y02569*
X06275Y02575*
X06273Y0258*
X0627Y02585*
X06265Y02588*
X0626Y0259*
G37*
G36*
X06404Y0257D02*
X06398Y02568D01*
X06393Y02565*
X0639Y0256*
X06388Y02555*
X0639Y02549*
X06393Y02544*
X06398Y02541*
X06404Y02539*
X06409Y02541*
X06414Y02544*
X06417Y02549*
X06419Y02555*
X06417Y0256*
X06414Y02565*
X06409Y02568*
X06404Y0257*
G37*
G36*
X0622Y0255D02*
X06214Y02548D01*
X06209Y02545*
X06206Y0254*
X06204Y02535*
X06206Y02529*
X06209Y02524*
X06214Y02521*
X0622Y02519*
X06225Y02521*
X0623Y02524*
X06233Y02529*
X06235Y02535*
X06233Y0254*
X0623Y02545*
X06225Y02548*
X0622Y0255*
G37*
G36*
X06438Y02548D02*
X06433Y02547D01*
X06428Y02544*
X06425Y02539*
X06423Y02533*
X06425Y02528*
X06428Y02523*
X06433Y02519*
X06438Y02518*
X06444Y02519*
X06449Y02523*
X06452Y02528*
X06453Y02533*
X06452Y02539*
X06449Y02544*
X06444Y02547*
X06438Y02548*
G37*
G36*
X05584Y02605D02*
X05572Y02604D01*
X05561Y02599*
X05551Y02592*
X05544Y02582*
X05539Y02571*
X05538Y0256*
X05539Y02548*
X05544Y02537*
X05551Y02527*
X05561Y0252*
X05572Y02515*
X05584Y02514*
X05595Y02515*
X05606Y0252*
X05616Y02527*
X05623Y02537*
X05628Y02548*
X05629Y0256*
X05628Y02571*
X05623Y02582*
X05616Y02592*
X05606Y02599*
X05595Y02604*
X05584Y02605*
G37*
G36*
X0636Y0254D02*
X06354Y02538D01*
X06349Y02535*
X06346Y0253*
X06344Y02525*
X06346Y02519*
X06349Y02514*
X06354Y02511*
X0636Y02509*
X06365Y02511*
X0637Y02514*
X06373Y02519*
X06375Y02525*
X06373Y0253*
X0637Y02535*
X06365Y02538*
X0636Y0254*
G37*
G36*
X06315Y0251D02*
X06309Y02508D01*
X06304Y02505*
X06301Y025*
X063Y02496*
X06296Y02494*
X06295Y02494*
X0629Y02495*
X06284Y02493*
X06279Y0249*
X06276Y02485*
X06274Y0248*
X06276Y02474*
X06279Y02469*
X06284Y02466*
X0629Y02464*
X06295Y02466*
X063Y02469*
X06303Y02474*
X06304Y02478*
X06308Y0248*
X06309Y0248*
X06315Y02479*
X0632Y02481*
X06325Y02484*
X06328Y02489*
X0633Y02495*
X06328Y025*
X06325Y02505*
X0632Y02508*
X06315Y0251*
G37*
G36*
X06365Y02498D02*
X06359Y02496D01*
X06354Y02493*
X06351Y02488*
X06349Y02483*
X06351Y02477*
X06349Y0247*
X06347Y02469*
X06344Y02464*
X06342Y02459*
X06344Y02453*
X06347Y02448*
X06352Y02445*
X06358Y02443*
X06363Y02445*
X06368Y02448*
X06371Y02453*
X06373Y02459*
X06371Y02464*
X06373Y02471*
X06375Y02472*
X06378Y02477*
X0638Y02483*
X06378Y02488*
X06375Y02493*
X0637Y02496*
X06365Y02498*
G37*
G36*
X06195Y02465D02*
X06188Y02464D01*
X06182Y02462*
X06176Y02458*
X06172Y02452*
X0617Y02446*
X06169Y0244*
X0617Y02433*
X06172Y02427*
X06176Y02421*
X06182Y02417*
X06188Y02415*
X06195Y02414*
X06201Y02415*
X06207Y02417*
X06213Y02421*
X06217Y02427*
X06219Y02433*
X0622Y0244*
X06219Y02446*
X06217Y02452*
X06213Y02458*
X06207Y02462*
X06201Y02464*
X06195Y02465*
G37*
G36*
X06615Y02422D02*
X06609Y02421D01*
X06604Y02418*
X06601Y02413*
X06599Y02407*
X06601Y02401*
X06604Y02397*
X06609Y02393*
X06615Y02392*
X0662Y02393*
X06625Y02397*
X06628Y02401*
X0663Y02407*
X06628Y02413*
X06625Y02418*
X0662Y02421*
X06615Y02422*
G37*
G36*
X06565Y024D02*
X06559Y02399D01*
X06554Y02396*
X06551Y02391*
X06549Y02385*
X06551Y02379*
X06554Y02375*
X06559Y02371*
X06565Y0237*
X0657Y02371*
X06575Y02375*
X06578Y02379*
X0658Y02385*
X06578Y02391*
X06575Y02396*
X0657Y02399*
X06565Y024*
G37*
G36*
X06324Y02386D02*
X06319Y02384D01*
X06314Y02381*
X0631Y02376*
X06309Y02371*
X0631Y02365*
X06314Y0236*
X06319Y02357*
X06324Y02356*
X0633Y02357*
X06335Y0236*
X06338Y02365*
X06339Y02371*
X06338Y02376*
X06335Y02381*
X0633Y02384*
X06324Y02386*
G37*
G36*
X06737Y02378D02*
X06732Y02377D01*
X06727Y02374*
X06724Y02369*
X06722Y02363*
X06724Y02357*
X06727Y02353*
X06732Y02349*
X06737Y02348*
X06743Y02349*
X06748Y02353*
X06751Y02357*
X06753Y02363*
X06751Y02369*
X06748Y02374*
X06743Y02377*
X06737Y02378*
G37*
G36*
X062Y02395D02*
X06193Y02394D01*
X06187Y02392*
X06181Y02388*
X06177Y02382*
X06175Y02376*
X06174Y0237*
X06175Y02363*
X06177Y02357*
X06181Y02351*
X06187Y02347*
X06193Y02345*
X062Y02344*
X06206Y02345*
X06212Y02347*
X06218Y02351*
X06222Y02357*
X06224Y02363*
X06225Y0237*
X06224Y02376*
X06222Y02382*
X06218Y02388*
X06212Y02392*
X06206Y02394*
X062Y02395*
G37*
G36*
X06682Y02338D02*
X06676Y02336D01*
X06671Y02333*
X06668Y02328*
X06666Y02323*
X06668Y02317*
X06671Y02312*
X06676Y02309*
X06682Y02307*
X06687Y02309*
X06692Y02312*
X06695Y02317*
X06697Y02323*
X06695Y02328*
X06692Y02333*
X06687Y02336*
X06682Y02338*
G37*
G36*
X07115Y02305D02*
X07108Y02304D01*
X07102Y02302*
X07096Y02298*
X07092Y02292*
X0709Y02286*
X07089Y02279*
X0709Y02273*
X07092Y02266*
X07096Y02261*
X07102Y02257*
X07108Y02254*
X07115Y02253*
X07121Y02254*
X07127Y02257*
X07133Y02261*
X07137Y02266*
X07139Y02273*
X0714Y02279*
X07139Y02286*
X07137Y02292*
X07133Y02298*
X07127Y02302*
X07121Y02304*
X07115Y02305*
G37*
G36*
X074Y02294D02*
X07391Y02293D01*
X07385Y02288*
X0738Y02281*
X07378Y02273*
X0738Y02265*
X07385Y02258*
X07391Y02254*
X07391Y02252*
Y02251*
X07391Y02249*
X07385Y02245*
X0738Y02238*
X07378Y0223*
X0738Y02222*
X07385Y02215*
X07391Y0221*
X074Y02209*
X07408Y0221*
X07414Y02215*
X07419Y02222*
X07421Y0223*
X07419Y02238*
X07414Y02245*
X07408Y02249*
X07408Y02251*
Y02252*
X07408Y02254*
X07414Y02258*
X07419Y02265*
X07421Y02273*
X07419Y02281*
X07414Y02288*
X07408Y02293*
X074Y02294*
G37*
G36*
X05788Y02179D02*
X05779Y02177D01*
X0577Y02174*
X05762Y02168*
X05757Y0216*
X05753Y02152*
X05752Y02142*
X05753Y02133*
X05757Y02124*
X05762Y02117*
X0577Y02111*
X05779Y02107*
X05788Y02106*
X05797Y02107*
X05806Y02111*
X05814Y02117*
X05819Y02124*
X05823Y02133*
X05824Y02142*
X05823Y02152*
X05819Y0216*
X05814Y02168*
X05806Y02174*
X05797Y02177*
X05788Y02179*
G37*
G36*
X06025Y02105D02*
X06019Y02103D01*
X06014Y021*
X06011Y02095*
X06009Y0209*
X06011Y02084*
X06014Y02079*
X06019Y02076*
X06025Y02074*
X0603Y02076*
X06035Y02079*
X06038Y02084*
X0604Y0209*
X06038Y02095*
X06035Y021*
X0603Y02103*
X06025Y02105*
G37*
G36*
X0628Y02155D02*
X06273Y02154D01*
X06267Y02152*
X06261Y02148*
X06257Y02142*
X06255Y02136*
X06254Y0213*
X06255Y02123*
X06257Y02117*
X06261Y02111*
X06267Y02107*
X06273Y02105*
X0628Y02104*
X06286Y02105*
X06292Y02107*
X06296Y0211*
X063Y02106*
X063Y02106*
X06299Y021*
X063Y02093*
X06302Y02087*
X06306Y02081*
X06312Y02077*
X06318Y02075*
X06325Y02074*
X06331Y02075*
X06337Y02077*
X06343Y02081*
X06347Y02087*
X06349Y02093*
X0635Y021*
X06349Y02106*
X06347Y02112*
X06343Y02118*
X06337Y02122*
X06331Y02124*
X06325Y02125*
X06318Y02124*
X06312Y02122*
X06308Y02119*
X06304Y02123*
X06304Y02123*
X06305Y0213*
X06304Y02136*
X06302Y02142*
X06298Y02148*
X06292Y02152*
X06286Y02154*
X0628Y02155*
G37*
G36*
X05859Y02108D02*
X05849Y02107D01*
X05841Y02103*
X05833Y02097*
X05827Y0209*
X05824Y02081*
X05823Y02072*
X05824Y02062*
X05827Y02054*
X05833Y02046*
X05841Y0204*
X05849Y02037*
X05859Y02035*
X05868Y02037*
X05877Y0204*
X05884Y02046*
X0589Y02054*
X05894Y02062*
X05895Y02072*
X05894Y02081*
X0589Y0209*
X05884Y02097*
X05877Y02103*
X05868Y02107*
X05859Y02108*
G37*
G36*
X05717D02*
X05708Y02107D01*
X05699Y02103*
X05692Y02097*
X05686Y0209*
X05682Y02081*
X05681Y02072*
X05682Y02062*
X05686Y02054*
X05692Y02046*
X05699Y0204*
X05708Y02037*
X05717Y02035*
X05727Y02037*
X05735Y0204*
X05743Y02046*
X05749Y02054*
X05752Y02062*
X05754Y02072*
X05752Y02081*
X05749Y0209*
X05743Y02097*
X05735Y02103*
X05727Y02107*
X05717Y02108*
G37*
G36*
X06386Y02037D02*
X06379Y02036D01*
X06373Y02034*
X06367Y0203*
X06363Y02024*
X06361Y02018*
X0636Y02011*
X06361Y02005*
X06363Y01998*
X06367Y01993*
X06373Y01989*
X06379Y01986*
X06386Y01985*
X06392Y01986*
X06399Y01989*
X06404Y01993*
X06408Y01998*
X06411Y02005*
X06411Y02011*
X06411Y02018*
X06408Y02024*
X06404Y0203*
X06399Y02034*
X06392Y02036*
X06386Y02037*
G37*
G36*
X0593Y02037D02*
X0592Y02036D01*
X05911Y02032*
X05904Y02027*
X05898Y02019*
X05895Y0201*
X05893Y02001*
X05895Y01992*
X05898Y01983*
X05904Y01975*
X05911Y0197*
X0592Y01966*
X0593Y01965*
X05939Y01966*
X05948Y0197*
X05955Y01975*
X05961Y01983*
X05964Y01992*
X05966Y02001*
X05964Y0201*
X05961Y02019*
X05955Y02027*
X05948Y02032*
X05939Y02036*
X0593Y02037*
G37*
G36*
X05788D02*
X05779Y02036D01*
X0577Y02032*
X05762Y02027*
X05757Y02019*
X05753Y0201*
X05752Y02001*
X05753Y01992*
X05757Y01983*
X05762Y01975*
X0577Y0197*
X05779Y01966*
X05788Y01965*
X05797Y01966*
X05806Y0197*
X05814Y01975*
X05819Y01983*
X05823Y01992*
X05824Y02001*
X05823Y0201*
X05819Y02019*
X05814Y02027*
X05806Y02032*
X05797Y02036*
X05788Y02037*
G37*
G36*
X0671Y01978D02*
X06705Y01977D01*
X067Y01974*
X06696Y01969*
X06695Y01963*
X06696Y01958*
X067Y01953*
X06705Y0195*
X0671Y01948*
X06716Y0195*
X06721Y01953*
X06724Y01958*
X06725Y01963*
X06724Y01969*
X06721Y01974*
X06716Y01977*
X0671Y01978*
G37*
G36*
X05285Y0198D02*
X05278Y01979D01*
X05272Y01977*
X05266Y01973*
X05262Y01967*
X0526Y01961*
X05259Y01955*
X0526Y01948*
X05262Y01942*
X05266Y01936*
X05272Y01932*
X05278Y0193*
X05285Y01929*
X05291Y0193*
X05297Y01932*
X05303Y01936*
X05307Y01942*
X05309Y01948*
X0531Y01955*
X05309Y01961*
X05307Y01967*
X05303Y01973*
X05297Y01977*
X05291Y01979*
X05285Y0198*
G37*
G36*
X06Y01966D02*
X05991Y01965D01*
X05982Y01962*
X05975Y01956*
X05969Y01948*
X05965Y0194*
X05964Y0193*
X05965Y01921*
X05969Y01912*
X05975Y01905*
X05982Y01899*
X05991Y01895*
X06Y01894*
X0601Y01895*
X06018Y01899*
X06026Y01905*
X06032Y01912*
X06035Y01921*
X06036Y0193*
X06035Y0194*
X06032Y01948*
X06026Y01956*
X06018Y01962*
X0601Y01965*
X06Y01966*
G37*
G36*
X05859D02*
X05849Y01965D01*
X05841Y01962*
X05833Y01956*
X05827Y01948*
X05824Y0194*
X05823Y0193*
X05824Y01921*
X05827Y01912*
X05833Y01905*
X05841Y01899*
X05849Y01895*
X05859Y01894*
X05868Y01895*
X05877Y01899*
X05884Y01905*
X0589Y01912*
X05894Y01921*
X05895Y0193*
X05894Y0194*
X0589Y01948*
X05884Y01956*
X05877Y01962*
X05868Y01965*
X05859Y01966*
G37*
G36*
X06705Y0192D02*
X06699Y01918D01*
X06694Y01915*
X06691Y0191*
X06689Y01905*
X06691Y01899*
X06694Y01894*
X06699Y01891*
X06705Y01889*
X0671Y01891*
X06715Y01894*
X06718Y01899*
X0672Y01905*
X06718Y0191*
X06715Y01915*
X0671Y01918*
X06705Y0192*
G37*
G36*
X0532Y0193D02*
X05313Y01929D01*
X05307Y01927*
X05301Y01923*
X05297Y01917*
X05295Y01911*
X05294Y01905*
X05295Y01898*
X05297Y01892*
X05301Y01886*
X05307Y01882*
X05313Y0188*
X0532Y01879*
X05326Y0188*
X05332Y01882*
X05338Y01886*
X05342Y01892*
X05344Y01898*
X05345Y01905*
X05344Y01911*
X05342Y01917*
X05338Y01923*
X05332Y01927*
X05326Y01929*
X0532Y0193*
G37*
G36*
X06515Y01915D02*
X06508Y01914D01*
X06502Y01912*
X06496Y01908*
X06492Y01902*
X0649Y01896*
X06489Y0189*
X0649Y01883*
X06492Y01877*
X06496Y01871*
X06502Y01867*
X06508Y01865*
X06515Y01864*
X06521Y01865*
X06527Y01867*
X06533Y01871*
X06537Y01877*
X06539Y01883*
X0654Y0189*
X06539Y01896*
X06537Y01902*
X06533Y01908*
X06527Y01912*
X06521Y01914*
X06515Y01915*
G37*
G36*
X051Y01911D02*
X05085D01*
X05075Y0191*
X05066Y01906*
X05058Y019*
X05052Y01892*
X05048Y01883*
X05047Y01874*
X05048Y01864*
X05052Y01855*
X05058Y01847*
X05066Y01841*
X05075Y01837*
X05085Y01836*
X051*
X0511Y01837*
X05119Y01841*
X05127Y01847*
X05133Y01855*
X05137Y01864*
X05138Y01874*
X05137Y01883*
X05133Y01892*
X05127Y019*
X05119Y01906*
X0511Y0191*
X051Y01911*
G37*
G36*
X05229Y01908D02*
X05214D01*
X05204Y01907*
X05195Y01903*
X05187Y01897*
X05181Y01889*
X05177Y0188*
X05176Y01871*
X05177Y01861*
X05181Y01852*
X05187Y01844*
X05195Y01838*
X05204Y01834*
X05214Y01833*
X05229*
X05239Y01834*
X05248Y01838*
X05256Y01844*
X05262Y01852*
X05266Y01861*
X05267Y01871*
X05266Y0188*
X05262Y01889*
X05256Y01897*
X05248Y01903*
X05239Y01907*
X05229Y01908*
G37*
G36*
X06295Y0186D02*
X06289Y01858D01*
X06284Y01855*
X06281Y0185*
X06279Y01845*
X06281Y01839*
X06284Y01834*
X06289Y01831*
X06295Y01829*
X063Y01831*
X06305Y01834*
X06308Y01839*
X0631Y01845*
X06308Y0185*
X06305Y01855*
X063Y01858*
X06295Y0186*
G37*
G36*
X0593Y01896D02*
X0592Y01894D01*
X05911Y01891*
X05904Y01885*
X05898Y01878*
X05895Y01869*
X05893Y0186*
X05895Y0185*
X05898Y01841*
X05904Y01834*
X05911Y01828*
X0592Y01825*
X0593Y01823*
X05939Y01825*
X05948Y01828*
X05955Y01834*
X05961Y01841*
X05964Y0185*
X05966Y0186*
X05964Y01869*
X05961Y01878*
X05955Y01885*
X05948Y01891*
X05939Y01894*
X0593Y01896*
G37*
G36*
X04932Y01846D02*
X04926Y01844D01*
X04921Y01841*
X04918Y01836*
X04916Y01831*
X04918Y01825*
X04921Y0182*
X04926Y01817*
X04932Y01815*
X04937Y01817*
X04942Y0182*
X04945Y01825*
X04947Y01831*
X04945Y01836*
X04942Y01841*
X04937Y01844*
X04932Y01846*
G37*
G36*
X06735Y01815D02*
X06729Y01813D01*
X06724Y0181*
X06721Y01805*
X06719Y018*
X06721Y01794*
X06724Y01789*
X06729Y01786*
X06735Y01784*
X0674Y01786*
X06745Y01789*
X06748Y01794*
X0675Y018*
X06748Y01805*
X06745Y0181*
X0674Y01813*
X06735Y01815*
G37*
G36*
X06761Y01788D02*
X06755Y01786D01*
X0675Y01783*
X06747Y01778*
X06745Y01773*
X06747Y01767*
X0675Y01762*
X06755Y01759*
X06761Y01757*
X06766Y01759*
X06771Y01762*
X06774Y01767*
X06776Y01773*
X06774Y01778*
X06771Y01783*
X06766Y01786*
X06761Y01788*
G37*
G36*
X06Y01825D02*
X05991Y01824D01*
X05982Y0182*
X05975Y01814*
X05969Y01807*
X05965Y01798*
X05964Y01789*
X05965Y01779*
X05969Y01771*
X05975Y01763*
X05982Y01757*
X05991Y01754*
X06Y01753*
X0601Y01754*
X06018Y01757*
X06026Y01763*
X06032Y01771*
X06035Y01779*
X06036Y01789*
X06035Y01798*
X06032Y01807*
X06026Y01814*
X06018Y0182*
X0601Y01824*
X06Y01825*
G37*
G36*
X063Y01781D02*
X06294Y01779D01*
X06289Y01776*
X06286Y01771*
X06284Y01766*
X06286Y0176*
X06289Y01755*
X06294Y01752*
X063Y0175*
X06305Y01752*
X0631Y01755*
X06313Y0176*
X06315Y01766*
X06313Y01771*
X0631Y01776*
X06305Y01779*
X063Y01781*
G37*
G36*
X05132Y01811D02*
X05053D01*
X05049Y0181*
X05047Y01805*
Y01742*
X05049Y01737*
X05053Y01736*
X05132*
X05136Y01737*
X05138Y01742*
Y01805*
X05136Y0181*
X05132Y01811*
G37*
G36*
X06444Y01766D02*
X06438Y01764D01*
X06433Y01761*
X0643Y01756*
X06428Y01751*
X0643Y01745*
X06433Y0174*
X06438Y01737*
X06444Y01735*
X06449Y01737*
X06454Y0174*
X06457Y01745*
X06459Y01751*
X06457Y01756*
X06454Y01761*
X06449Y01764*
X06444Y01766*
G37*
G36*
X05261Y01808D02*
X05182D01*
X05178Y01807*
X05176Y01802*
Y01739*
X05178Y01734*
X05182Y01733*
X05261*
X05265Y01734*
X05267Y01739*
Y01802*
X05265Y01807*
X05261Y01808*
G37*
G36*
X06241Y01755D02*
X06235Y01753D01*
X0623Y0175*
X06227Y01745*
X06225Y0174*
X06227Y01734*
X0623Y01729*
X06235Y01726*
X06241Y01724*
X06246Y01726*
X06251Y01729*
X06254Y01734*
X06256Y0174*
X06254Y01745*
X06251Y0175*
X06246Y01753*
X06241Y01755*
G37*
G36*
X05485Y01755D02*
X05478Y01754D01*
X05472Y01752*
X05466Y01748*
X05462Y01742*
X0546Y01736*
X05459Y0173*
X0546Y01723*
X05462Y01717*
X05466Y01711*
X05472Y01707*
X05478Y01705*
X05485Y01704*
X05491Y01705*
X05497Y01707*
X05503Y01711*
X05507Y01717*
X05509Y01723*
X0551Y0173*
X05509Y01736*
X05507Y01742*
X05503Y01748*
X05497Y01752*
X05491Y01754*
X05485Y01755*
G37*
G36*
X04912Y01703D02*
X04906Y01701D01*
X04901Y01698*
X04898Y01693*
X04896Y01688*
X04898Y01682*
X04901Y01677*
X04906Y01674*
X04912Y01672*
X04917Y01674*
X04922Y01677*
X04925Y01682*
X04927Y01688*
X04925Y01693*
X04922Y01698*
X04917Y01701*
X04912Y01703*
G37*
G36*
X06751Y0165D02*
X06745Y01648D01*
X06741Y01646*
X06738Y01645*
X06735Y01646*
X06731Y01648*
X06725Y0165*
X0672Y01648*
X06715Y01645*
X06711Y0164*
X0671Y01635*
X06711Y01629*
X06715Y01624*
X0672Y01621*
X06725Y01619*
X06731Y01621*
X06735Y01623*
X06738Y01624*
X06741Y01623*
X06745Y01621*
X06751Y01619*
X06757Y01621*
X06762Y01624*
X06765Y01629*
X06766Y01635*
X06765Y0164*
X06762Y01645*
X06757Y01648*
X06751Y0165*
G37*
G36*
X05281Y01655D02*
X05202D01*
X05198Y01654*
X05196Y01649*
Y01586*
X05198Y01581*
X05202Y0158*
X05281*
X05285Y01581*
X05287Y01586*
Y01649*
X05285Y01654*
X05281Y01655*
G37*
G36*
X05143Y01655D02*
X05064D01*
X0506Y01653*
X05058Y01648*
Y01585*
X0506Y01581*
X05064Y01579*
X05143*
X05148Y01581*
X05149Y01585*
Y01648*
X05148Y01653*
X05143Y01655*
G37*
G36*
X07798Y01811D02*
X07775Y01809D01*
X07752Y01804*
X0773Y01795*
X07711Y01783*
X07693Y01768*
X07678Y0175*
X07666Y0173*
X07657Y01709*
X07651Y01686*
X0765Y01663*
X07651Y0164*
X07657Y01617*
X07666Y01596*
X07678Y01576*
X07693Y01558*
X07711Y01543*
X0773Y01531*
X07752Y01522*
X07775Y01517*
X07798Y01515*
X07821Y01517*
X07843Y01522*
X07865Y01531*
X07885Y01543*
X07902Y01558*
X07918Y01576*
X0793Y01596*
X07939Y01617*
X07944Y0164*
X07946Y01663*
X07944Y01686*
X07939Y01709*
X0793Y0173*
X07918Y0175*
X07902Y01768*
X07885Y01783*
X07865Y01795*
X07843Y01804*
X07821Y01809*
X07798Y01811*
G37*
G36*
X00632D02*
X00609Y01809D01*
X00587Y01804*
X00565Y01795*
X00545Y01783*
X00528Y01768*
X00513Y0175*
X005Y0173*
X00492Y01709*
X00486Y01686*
X00484Y01663*
X00486Y0164*
X00492Y01617*
X005Y01596*
X00513Y01576*
X00528Y01558*
X00545Y01543*
X00565Y01531*
X00587Y01522*
X00609Y01517*
X00632Y01515*
X00656Y01517*
X00678Y01522*
X007Y01531*
X00719Y01543*
X00737Y01558*
X00752Y01576*
X00764Y01596*
X00773Y01617*
X00779Y0164*
X0078Y01663*
X00779Y01686*
X00773Y01709*
X00764Y0173*
X00752Y0175*
X00737Y01768*
X00719Y01783*
X007Y01795*
X00678Y01804*
X00656Y01809*
X00632Y01811*
G37*
G36*
X05249Y01555D02*
X05234D01*
X05224Y01554*
X05215Y0155*
X05207Y01544*
X05201Y01536*
X05197Y01527*
X05196Y01518*
X05197Y01508*
X05201Y01499*
X05207Y01491*
X05215Y01485*
X05224Y01481*
X05234Y0148*
X05249*
X05259Y01481*
X05268Y01485*
X05276Y01491*
X05282Y01499*
X05286Y01508*
X05287Y01518*
X05286Y01527*
X05282Y01536*
X05276Y01544*
X05268Y0155*
X05259Y01554*
X05249Y01555*
G37*
G36*
X05112Y01555D02*
X05096D01*
X05086Y01553*
X05077Y01549*
X05069Y01543*
X05063Y01536*
X05059Y01527*
X05058Y01517*
X05059Y01507*
X05063Y01498*
X05069Y0149*
X05077Y01484*
X05086Y0148*
X05096Y01479*
X05112*
X05121Y0148*
X0513Y01484*
X05138Y0149*
X05144Y01498*
X05148Y01507*
X05149Y01517*
X05148Y01527*
X05144Y01536*
X05138Y01543*
X0513Y01549*
X05121Y01553*
X05112Y01555*
G37*
G36*
X04245Y0148D02*
X04239Y01478D01*
X04234Y01475*
X04231Y0147*
X04229Y01465*
X04231Y01459*
X04234Y01454*
X04239Y01451*
X04245Y01449*
X0425Y01451*
X04255Y01454*
X04258Y01459*
X0426Y01465*
X04258Y0147*
X04255Y01475*
X0425Y01478*
X04245Y0148*
G37*
G36*
X05697Y0141D02*
X05682D01*
X05672Y01409*
X05663Y01405*
X05655Y01399*
X05649Y01391*
X05645Y01382*
X05644Y01373*
X05645Y01363*
X05649Y01354*
X05655Y01346*
X05663Y0134*
X05672Y01336*
X05682Y01335*
X05697*
X05707Y01336*
X05716Y0134*
X05724Y01346*
X0573Y01354*
X05734Y01363*
X05735Y01373*
X05734Y01382*
X0573Y01391*
X05724Y01399*
X05716Y01405*
X05707Y01409*
X05697Y0141*
G37*
G36*
X05837Y01409D02*
X05822D01*
X05812Y01408*
X05803Y01404*
X05795Y01398*
X05789Y0139*
X05785Y01381*
X05784Y01372*
X05785Y01362*
X05789Y01353*
X05795Y01345*
X05803Y01339*
X05812Y01335*
X05822Y01334*
X05837*
X05847Y01335*
X05856Y01339*
X05864Y01345*
X0587Y01353*
X05874Y01362*
X05875Y01372*
X05874Y01381*
X0587Y0139*
X05864Y01398*
X05856Y01404*
X05847Y01408*
X05837Y01409*
G37*
G36*
X04942Y01362D02*
X04863D01*
X04859Y01361*
X04857Y01356*
Y01293*
X04859Y01288*
X04863Y01287*
X04942*
X04946Y01288*
X04948Y01293*
Y01356*
X04946Y01361*
X04942Y01362*
G37*
G36*
X05055Y0136D02*
X0504D01*
X0503Y01359*
X05021Y01355*
X05013Y01349*
X05007Y01341*
X05003Y01332*
X05002Y01323*
X05003Y01313*
X05007Y01304*
X05013Y01296*
X05021Y0129*
X0503Y01286*
X0504Y01285*
X05055*
X05065Y01286*
X05074Y0129*
X05082Y01296*
X05088Y01304*
X05092Y01313*
X05093Y01323*
X05092Y01332*
X05088Y01341*
X05082Y01349*
X05074Y01355*
X05065Y01359*
X05055Y0136*
G37*
G36*
X06369Y01358D02*
X06291D01*
X06286Y01357*
X06284Y01352*
Y01289*
X06286Y01284*
X06291Y01283*
X06369*
X06374Y01284*
X06376Y01289*
Y01352*
X06374Y01357*
X06369Y01358*
G37*
G36*
X06588Y01356D02*
X06509D01*
X06505Y01355*
X06503Y0135*
Y01287*
X06505Y01282*
X06509Y01281*
X06588*
X06592Y01282*
X06594Y01287*
Y0135*
X06592Y01355*
X06588Y01356*
G37*
G36*
X04144Y01305D02*
X04138Y01303D01*
X04133Y013*
X0413Y01295*
X04129Y0129*
X0413Y01284*
X04133Y01279*
X04138Y01276*
X04144Y01274*
X0415Y01276*
X04155Y01279*
X04158Y01284*
X04159Y0129*
X04158Y01295*
X04155Y013*
X0415Y01303*
X04144Y01305*
G37*
G36*
X04275Y013D02*
X04269Y01298D01*
X04264Y01295*
X04261Y0129*
X04259Y01285*
X04261Y01279*
X04264Y01274*
X04269Y01271*
X04275Y01269*
X0428Y01271*
X04285Y01274*
X04288Y01279*
X0429Y01285*
X04288Y0129*
X04285Y01295*
X0428Y01298*
X04275Y013*
G37*
G36*
X05729Y0131D02*
X0565D01*
X05646Y01309*
X05644Y01304*
Y01241*
X05646Y01236*
X0565Y01235*
X05729*
X05733Y01236*
X05735Y01241*
Y01304*
X05733Y01309*
X05729Y0131*
G37*
G36*
X05869Y01309D02*
X0579D01*
X05786Y01308*
X05784Y01303*
Y0124*
X05786Y01235*
X0579Y01234*
X05869*
X05873Y01235*
X05875Y0124*
Y01303*
X05873Y01308*
X05869Y01309*
G37*
G36*
X05558Y01227D02*
X05552Y01226D01*
X05548Y01222*
X05544Y01218*
X05543Y01212*
X05544Y01206*
X05548Y01201*
X05552Y01198*
X05558Y01197*
X05564Y01198*
X05569Y01201*
X05572Y01206*
X05573Y01212*
X05572Y01218*
X05569Y01222*
X05564Y01226*
X05558Y01227*
G37*
G36*
X04554Y01269D02*
X04539D01*
X04529Y01268*
X0452Y01264*
X04512Y01258*
X04506Y0125*
X04502Y01241*
X04501Y01232*
X04502Y01222*
X04506Y01213*
X04512Y01205*
X0452Y01199*
X04529Y01195*
X04539Y01194*
X04554*
X04564Y01195*
X04573Y01199*
X04581Y01205*
X04587Y01213*
X04591Y01222*
X04592Y01232*
X04591Y01241*
X04587Y0125*
X04581Y01258*
X04573Y01264*
X04564Y01268*
X04554Y01269*
G37*
G36*
X04701Y01266D02*
X04686D01*
X04676Y01265*
X04667Y01261*
X04659Y01255*
X04653Y01247*
X04649Y01238*
X04648Y01229*
X04649Y01219*
X04653Y0121*
X04659Y01202*
X04667Y01196*
X04676Y01192*
X04686Y01191*
X04701*
X04711Y01192*
X0472Y01196*
X04728Y01202*
X04734Y0121*
X04738Y01219*
X04739Y01229*
X04738Y01238*
X04734Y01247*
X04728Y01255*
X0472Y01261*
X04711Y01265*
X04701Y01266*
G37*
G36*
X0491Y01262D02*
X04895D01*
X04885Y01261*
X04876Y01257*
X04868Y01251*
X04862Y01243*
X04858Y01234*
X04857Y01225*
X04858Y01215*
X04862Y01206*
X04868Y01198*
X04876Y01192*
X04885Y01188*
X04895Y01187*
X0491*
X0492Y01188*
X04929Y01192*
X04937Y01198*
X04943Y01206*
X04947Y01215*
X04948Y01225*
X04947Y01234*
X04943Y01243*
X04937Y01251*
X04929Y01257*
X0492Y01261*
X0491Y01262*
G37*
G36*
X05087Y0126D02*
X05008D01*
X05004Y01259*
X05002Y01254*
Y01191*
X05004Y01186*
X05008Y01185*
X05087*
X05091Y01186*
X05093Y01191*
Y01254*
X05091Y01259*
X05087Y0126*
G37*
G36*
X06338Y01258D02*
X06322D01*
X06312Y01257*
X06303Y01253*
X06296Y01247*
X0629Y01239*
X06286Y0123*
X06285Y01221*
X06286Y01211*
X0629Y01202*
X06296Y01194*
X06303Y01188*
X06312Y01184*
X06322Y01183*
X06338*
X06348Y01184*
X06357Y01188*
X06365Y01194*
X06371Y01202*
X06374Y01211*
X06376Y01221*
X06374Y0123*
X06371Y01239*
X06365Y01247*
X06357Y01253*
X06348Y01257*
X06338Y01258*
G37*
G36*
X06556Y01256D02*
X06541D01*
X06531Y01255*
X06522Y01251*
X06514Y01245*
X06508Y01237*
X06504Y01228*
X06503Y01219*
X06504Y01209*
X06508Y012*
X06514Y01192*
X06522Y01186*
X06531Y01182*
X06541Y01181*
X06556*
X06566Y01182*
X06575Y01186*
X06583Y01192*
X06589Y012*
X06593Y01209*
X06594Y01219*
X06593Y01228*
X06589Y01237*
X06583Y01245*
X06575Y01251*
X06566Y01255*
X06556Y01256*
G37*
G36*
X0404Y01145D02*
X04034Y01143D01*
X04029Y0114*
X04026Y01135*
X04024Y0113*
X04026Y01124*
X04029Y01119*
X04034Y01116*
X0404Y01114*
X04045Y01116*
X0405Y01119*
X04053Y01124*
X04055Y0113*
X04053Y01135*
X0405Y0114*
X04045Y01143*
X0404Y01145*
G37*
G36*
X03925Y0114D02*
X03919Y01138D01*
X03914Y01135*
X03911Y0113*
X03909Y01125*
X03911Y01119*
X03914Y01114*
X03919Y01111*
X03925Y01109*
X0393Y01111*
X03935Y01114*
X03938Y01119*
X0394Y01125*
X03938Y0113*
X03935Y01135*
X0393Y01138*
X03925Y0114*
G37*
G36*
X04586Y01169D02*
X04507D01*
X04503Y01168*
X04501Y01163*
Y011*
X04503Y01095*
X04507Y01094*
X04586*
X0459Y01095*
X04592Y011*
Y01163*
X0459Y01168*
X04586Y01169*
G37*
G36*
X04733Y01166D02*
X04654D01*
X0465Y01165*
X04648Y0116*
Y01097*
X0465Y01092*
X04654Y01091*
X04733*
X04737Y01092*
X04739Y01097*
Y0116*
X04737Y01165*
X04733Y01166*
G37*
G36*
X06338Y01158D02*
X06322D01*
X06312Y01157*
X06303Y01153*
X06296Y01147*
X0629Y01139*
X06286Y0113*
X06285Y01121*
X06286Y01111*
X0629Y01102*
X06296Y01094*
X06303Y01088*
X06312Y01084*
X06322Y01083*
X06338*
X06348Y01084*
X06357Y01088*
X06365Y01094*
X06371Y01102*
X06374Y01111*
X06376Y01121*
X06374Y0113*
X06371Y01139*
X06365Y01147*
X06357Y01153*
X06348Y01157*
X06338Y01158*
G37*
G36*
X06556Y01156D02*
X06541D01*
X06531Y01155*
X06522Y01151*
X06514Y01145*
X06508Y01137*
X06504Y01128*
X06503Y01119*
X06504Y01109*
X06508Y011*
X06514Y01092*
X06522Y01086*
X06531Y01082*
X06541Y01081*
X06556*
X06566Y01082*
X06575Y01086*
X06583Y01092*
X06589Y011*
X06593Y01109*
X06594Y01119*
X06593Y01128*
X06589Y01137*
X06583Y01145*
X06575Y01151*
X06566Y01155*
X06556Y01156*
G37*
G36*
X05591Y01107D02*
X05585Y01105D01*
X0558Y01102*
X05577Y01097*
X05575Y01092*
X05577Y01086*
X0558Y01081*
X05585Y01078*
X05591Y01076*
X05596Y01078*
X05601Y01081*
X05604Y01086*
X05606Y01092*
X05604Y01097*
X05601Y01102*
X05596Y01105*
X05591Y01107*
G37*
G36*
X04075Y01105D02*
X04069Y01103D01*
X04064Y011*
X04061Y01095*
X04059Y0109*
X04061Y01084*
X04064Y01079*
X04069Y01076*
X04075Y01074*
X0408Y01076*
X04085Y01079*
X04088Y01084*
X0409Y0109*
X04088Y01095*
X04085Y011*
X0408Y01103*
X04075Y01105*
G37*
G36*
X05089Y01148D02*
X0501D01*
X05006Y01147*
X05004Y01142*
Y01079*
X05006Y01074*
X0501Y01073*
X05089*
X05093Y01074*
X05095Y01079*
Y01142*
X05093Y01147*
X05089Y01148*
G37*
G36*
X0491Y01145D02*
X04895D01*
X04885Y01144*
X04876Y0114*
X04868Y01134*
X04862Y01126*
X04858Y01117*
X04857Y01108*
X04858Y01098*
X04862Y01089*
X04868Y01081*
X04876Y01075*
X04885Y01071*
X04895Y0107*
X0491*
X0492Y01071*
X04929Y01075*
X04937Y01081*
X04943Y01089*
X04947Y01098*
X04948Y01108*
X04947Y01117*
X04943Y01126*
X04937Y01134*
X04929Y0114*
X0492Y01144*
X0491Y01145*
G37*
G36*
X05622Y0107D02*
X05616Y01068D01*
X05611Y01065*
X05608Y0106*
X05606Y01055*
X05608Y01049*
X05611Y01044*
X05616Y01041*
X05622Y01039*
X05627Y01041*
X05632Y01044*
X05635Y01049*
X05637Y01055*
X05635Y0106*
X05632Y01065*
X05627Y01068*
X05622Y0107*
G37*
G36*
X03066Y0103D02*
X0306Y01029D01*
X03056Y01026*
X03054Y01025*
X0305*
X03045Y01028*
X0304Y0103*
X03034Y01028*
X03029Y01025*
X03026Y0102*
X03024Y01015*
X03026Y01009*
X03029Y01004*
X03034Y01001*
X0304Y00999*
X03045Y01001*
X0305Y01004*
X03052Y01004*
X03055*
X0306Y01001*
X03066Y01*
X03072Y01001*
X03077Y01004*
X0308Y01009*
X03081Y01015*
X0308Y01021*
X03077Y01026*
X03072Y01029*
X03066Y0103*
G37*
G36*
X03955Y0105D02*
X03949Y01048D01*
X03944Y01045*
X03941Y0104*
X03939Y01035*
X03941Y01029*
X03944Y01024*
X03949Y01021*
X03955Y01019*
X0396Y01021*
X03965Y01024*
X03968Y01029*
X0397Y01035*
X03968Y0104*
X03965Y01045*
X0396Y01048*
X03955Y0105*
G37*
G36*
X04246Y01023D02*
X0424Y01021D01*
X04235Y01018*
X04232Y01013*
X04231Y01008*
X04232Y01002*
X04235Y00997*
X0424Y00994*
X04246Y00992*
X04251Y00994*
X04256Y00997*
X04259Y01002*
X04261Y01008*
X04259Y01013*
X04256Y01018*
X04251Y01021*
X04246Y01023*
G37*
G36*
X03754Y0102D02*
X03749Y01019D01*
X03744Y01015*
X0374Y01011*
X03739Y01005*
X0374Y00999*
X03744Y00994*
X03749Y00991*
X03754Y0099*
X0376Y00991*
X03765Y00994*
X03768Y00999*
X03769Y01005*
X03768Y01011*
X03765Y01015*
X0376Y01019*
X03754Y0102*
G37*
G36*
X03925Y01015D02*
X03919Y01013D01*
X03914Y0101*
X03911Y01005*
X03909Y01*
X03911Y00994*
X03914Y00989*
X03919Y00986*
X03925Y00984*
X0393Y00986*
X03935Y00989*
X03938Y00994*
X0394Y01*
X03938Y01005*
X03935Y0101*
X0393Y01013*
X03925Y01015*
G37*
G36*
X04075Y01005D02*
X04069Y01003D01*
X04064Y01*
X04061Y00995*
X04059Y0099*
X04061Y00984*
X04064Y00979*
X04069Y00976*
X04075Y00974*
X0408Y00976*
X04085Y00979*
X04088Y00984*
X0409Y0099*
X04088Y00995*
X04085Y01*
X0408Y01003*
X04075Y01005*
G37*
G36*
X05057Y01048D02*
X05042D01*
X05032Y01047*
X05023Y01043*
X05015Y01037*
X05009Y01029*
X05005Y0102*
X05004Y01011*
X05005Y01001*
X05009Y00992*
X05015Y00984*
X05023Y00978*
X05032Y00974*
X05042Y00973*
X05057*
X05067Y00974*
X05076Y00978*
X05084Y00984*
X0509Y00992*
X05094Y01001*
X05095Y01011*
X05094Y0102*
X0509Y01029*
X05084Y01037*
X05076Y01043*
X05067Y01047*
X05057Y01048*
G37*
G36*
X04942Y01045D02*
X04863D01*
X04859Y01044*
X04857Y01039*
Y00976*
X04859Y00971*
X04863Y0097*
X04942*
X04946Y00971*
X04948Y00976*
Y01039*
X04946Y01044*
X04942Y01045*
G37*
G36*
X04035Y00995D02*
X04029Y00993D01*
X04024Y0099*
X04021Y00985*
X04019Y0098*
X04021Y00974*
X04024Y00969*
X04029Y00966*
X04035Y00964*
X0404Y00966*
X04045Y00969*
X04048Y00974*
X0405Y0098*
X04048Y00985*
X04045Y0099*
X0404Y00993*
X04035Y00995*
G37*
G36*
X04736Y01033D02*
X04657D01*
X04653Y01032*
X04651Y01027*
Y00964*
X04653Y00959*
X04657Y00958*
X04736*
X0474Y00959*
X04742Y00964*
Y01027*
X0474Y01032*
X04736Y01033*
G37*
G36*
X04587Y01031D02*
X04508D01*
X04504Y0103*
X04502Y01025*
Y00962*
X04504Y00957*
X04508Y00956*
X04587*
X04591Y00957*
X04593Y00962*
Y01025*
X04591Y0103*
X04587Y01031*
G37*
G36*
X0396Y00985D02*
X03954Y00983D01*
X03949Y0098*
X03946Y00975*
X03944Y0097*
X03946Y00964*
X03949Y00959*
X03954Y00956*
X0396Y00954*
X03965Y00956*
X0397Y00959*
X03973Y00964*
X03975Y0097*
X03973Y00975*
X0397Y0098*
X03965Y00983*
X0396Y00985*
G37*
G36*
X03773Y0098D02*
X03767Y00979D01*
X03762Y00976*
X03759Y00971*
X03758Y00965*
X03759Y0096*
X03762Y00955*
X03767Y00952*
X03773Y0095*
X03778Y00952*
X03783Y00955*
X03786Y0096*
X03788Y00965*
X03786Y00971*
X03783Y00976*
X03778Y00979*
X03773Y0098*
G37*
G36*
X04245Y00979D02*
X04239Y00978D01*
X04234Y00975*
X04231Y0097*
X0423Y00964*
X04231Y00958*
X04234Y00953*
X04239Y0095*
X04245Y00949*
X04251Y0095*
X04256Y00953*
X04259Y00958*
X0426Y00964*
X04259Y0097*
X04256Y00975*
X04251Y00978*
X04245Y00979*
G37*
G36*
X02768Y00918D02*
X02762Y00916D01*
X02757Y00913*
X02756Y00911*
X0275*
X02749Y00912*
X02744Y00915*
X02739Y00917*
X02733Y00915*
X02728Y00912*
X02725Y00907*
X02723Y00902*
X02725Y00896*
X02728Y00891*
X02733Y00888*
X02739Y00886*
X02744Y00888*
X02749Y00891*
X0275Y00893*
X02756*
X02757Y00892*
X02762Y00889*
X02768Y00887*
X02773Y00889*
X02778Y00892*
X02781Y00897*
X02783Y00903*
X02781Y00908*
X02778Y00913*
X02773Y00916*
X02768Y00918*
G37*
G36*
X06174Y0093D02*
X06168Y00928D01*
X06163Y00925*
X0616Y0092*
X06158Y00915*
X0616Y00909*
X06163Y00904*
X06168Y00901*
X06174Y00899*
X06179Y00901*
X06184Y00904*
X06187Y00909*
X06189Y00915*
X06187Y0092*
X06184Y00925*
X06179Y00928*
X06174Y0093*
G37*
G36*
X04704Y00933D02*
X04689D01*
X04679Y00932*
X0467Y00928*
X04662Y00922*
X04656Y00914*
X04652Y00905*
X04651Y00896*
X04652Y00886*
X04656Y00877*
X04662Y00869*
X0467Y00863*
X04679Y00859*
X04689Y00858*
X04704*
X04714Y00859*
X04723Y00863*
X04731Y00869*
X04737Y00877*
X04741Y00886*
X04742Y00896*
X04741Y00905*
X04737Y00914*
X04731Y00922*
X04723Y00928*
X04714Y00932*
X04704Y00933*
G37*
G36*
X04555Y00931D02*
X0454D01*
X0453Y0093*
X04521Y00926*
X04513Y0092*
X04507Y00912*
X04503Y00903*
X04502Y00894*
X04503Y00884*
X04507Y00875*
X04513Y00867*
X04521Y00861*
X0453Y00857*
X0454Y00856*
X04555*
X04565Y00857*
X04574Y00861*
X04582Y00867*
X04588Y00875*
X04592Y00884*
X04593Y00894*
X04592Y00903*
X04588Y00912*
X04582Y0092*
X04574Y00926*
X04565Y0093*
X04555Y00931*
G37*
G36*
X02639Y00875D02*
X02633Y00873D01*
X02628Y0087*
X02625Y00865*
X02623Y0086*
X02625Y00854*
X02628Y00849*
X02633Y00846*
X02639Y00844*
X02644Y00846*
X02649Y00849*
X02649Y00849*
X02654*
X02655Y00848*
X0266Y00845*
X02666Y00843*
X02671Y00845*
X02676Y00848*
X02679Y00853*
X02681Y00859*
X02679Y00864*
X02676Y00869*
X02671Y00872*
X02666Y00874*
X0266Y00872*
X02655Y00869*
X02655Y00869*
X0265*
X02649Y0087*
X02644Y00873*
X02639Y00875*
G37*
G36*
X03123Y00877D02*
X03118Y00876D01*
X03113Y00872*
X03109Y00867*
X03108Y00862*
X03109Y00856*
X03113Y00851*
X03118Y00848*
X03123Y00847*
X03126Y00844*
X03128Y00838*
X03131Y00833*
X03136Y0083*
X03142Y00828*
X03147Y0083*
X03152Y00833*
X03155Y00838*
X03157Y00844*
X03155Y00849*
X03152Y00854*
X03147Y00857*
X03142Y00859*
X03138Y00862*
X03137Y00867*
X03134Y00872*
X03129Y00876*
X03123Y00877*
G37*
G36*
X07325Y0084D02*
X07319Y00838D01*
X07314Y00835*
X07311Y0083*
X07309Y00825*
X07311Y00819*
X07314Y00814*
X07319Y00811*
X07325Y00809*
X0733Y00811*
X07335Y00814*
X07338Y00819*
X0734Y00825*
X07338Y0083*
X07335Y00835*
X0733Y00838*
X07325Y0084*
G37*
G36*
X03009Y00853D02*
X03003Y00851D01*
X02998Y00848*
X02995Y00843*
X02993Y00838*
X02995Y00832*
X02997Y00828*
X02998Y00825*
X02997Y00821*
X02995Y00818*
X02993Y00812*
X02995Y00806*
X02998Y00801*
X03003Y00798*
X03009Y00797*
X03014Y00798*
X03019Y00801*
X03022Y00806*
X03024Y00812*
X03022Y00818*
X0302Y00821*
X03019Y00825*
X0302Y00828*
X03022Y00832*
X03024Y00838*
X03022Y00843*
X03019Y00848*
X03014Y00851*
X03009Y00853*
G37*
G36*
X0391Y00813D02*
X03904Y00811D01*
X03899Y00808*
X03896Y00803*
X03895Y00798*
X03896Y00792*
X03899Y00787*
X03904Y00784*
X0391Y00782*
X03915Y00784*
X0392Y00787*
X03923Y00792*
X03925Y00798*
X03923Y00803*
X0392Y00808*
X03915Y00811*
X0391Y00813*
G37*
G36*
X05828Y00811D02*
X05822Y00809D01*
X05817Y00806*
X05814Y00801*
X05812Y00796*
X05814Y0079*
X05817Y00785*
X05822Y00782*
X05828Y0078*
X05833Y00782*
X05838Y00785*
X05841Y0079*
X05843Y00796*
X05841Y00801*
X05838Y00806*
X05833Y00809*
X05828Y00811*
G37*
G36*
X04038Y00775D02*
X04033Y00773D01*
X04029Y00771*
X04026Y0077*
X04022Y00771*
X04019Y00773*
X04013Y00775*
X04007Y00773*
X04002Y0077*
X03999Y00765*
X03998Y0076*
X03999Y00754*
X04002Y00749*
X04007Y00746*
X04013Y00744*
X04019Y00746*
X04023Y00749*
X04028*
X04033Y00746*
X04038Y00744*
X04044Y00746*
X04049Y00749*
X04052Y00754*
X04052Y00754*
X04057*
X04058Y00752*
X04061Y00747*
X04066Y00744*
X04072Y00742*
X04078Y00744*
X04082Y00747*
X04086Y00752*
X04087Y00757*
X04086Y00763*
X04082Y00768*
X04078Y00771*
X04072Y00772*
X04066Y00771*
X04061Y00768*
X04058Y00763*
X04058Y00763*
X04053*
X04052Y00765*
X04049Y0077*
X04044Y00773*
X04038Y00775*
G37*
G36*
X0227Y00777D02*
X02264Y00776D01*
X02259Y00773*
X02256Y00768*
X02254Y00762*
X02256Y00756*
X02259Y00751*
X02264Y00748*
X0227Y00747*
X02275Y00748*
X0228Y00751*
X02283Y00756*
X02285Y00762*
X02283Y00768*
X0228Y00773*
X02275Y00776*
X0227Y00777*
G37*
G36*
X02896Y00777D02*
X0289Y00775D01*
X02885Y00772*
X02882Y00767*
X0288Y00762*
X02882Y00756*
X02885Y00751*
X0289Y00748*
X02896Y00746*
X02901Y00748*
X02906Y00751*
X02909Y00756*
X02911Y00762*
X02909Y00767*
X02906Y00772*
X02901Y00775*
X02896Y00777*
G37*
G36*
X05722Y00773D02*
X05716Y00771D01*
X05711Y00768*
X05708Y00763*
X05706Y00758*
X05708Y00752*
X05711Y00747*
X05716Y00744*
X05722Y00742*
X05727Y00744*
X05732Y00747*
X05735Y00752*
X05737Y00758*
X05735Y00763*
X05732Y00768*
X05727Y00771*
X05722Y00773*
G37*
G36*
X07365Y00765D02*
X07359Y00763D01*
X07354Y0076*
X07351Y00755*
X07349Y0075*
X07351Y00744*
X07354Y00739*
X07359Y00736*
X07365Y00734*
X0737Y00736*
X07375Y00739*
X07378Y00744*
X0738Y0075*
X07378Y00755*
X07375Y0076*
X0737Y00763*
X07365Y00765*
G37*
G36*
X07727Y01178D02*
X077Y01177D01*
X07673Y01172*
X07647Y01164*
X07622Y01154*
X07598Y01141*
X07576Y01125*
X07555Y01107*
X07537Y01087*
X07522Y01065*
X07508Y01041*
X07498Y01016*
X0749Y00989*
X07486Y00963*
X07484Y00936*
X07486Y00908*
X0749Y00882*
X07498Y00855*
X07508Y0083*
X07522Y00807*
X07537Y00784*
X07555Y00764*
X07576Y00746*
X07598Y0073*
X07622Y00717*
X07647Y00707*
X07673Y00699*
X077Y00695*
X07727Y00693*
X07754Y00695*
X07781Y00699*
X07807Y00707*
X07832Y00717*
X07856Y0073*
X07878Y00746*
X07898Y00764*
X07916Y00784*
X07932Y00807*
X07945Y0083*
X07956Y00855*
X07963Y00882*
X07968Y00908*
X07969Y00936*
X07968Y00963*
X07963Y00989*
X07956Y01016*
X07945Y01041*
X07932Y01065*
X07916Y01087*
X07898Y01107*
X07878Y01125*
X07856Y01141*
X07832Y01154*
X07807Y01164*
X07781Y01172*
X07754Y01177*
X07727Y01178*
G37*
G36*
X00703D02*
X00676Y01177D01*
X00649Y01172*
X00623Y01164*
X00598Y01154*
X00574Y01141*
X00552Y01125*
X00532Y01107*
X00514Y01087*
X00498Y01065*
X00485Y01041*
X00474Y01016*
X00467Y00989*
X00462Y00963*
X00461Y00936*
X00462Y00908*
X00467Y00882*
X00474Y00855*
X00485Y0083*
X00498Y00807*
X00514Y00784*
X00532Y00764*
X00552Y00746*
X00574Y0073*
X00598Y00717*
X00623Y00707*
X00649Y00699*
X00676Y00695*
X00703Y00693*
X0073Y00695*
X00757Y00699*
X00783Y00707*
X00808Y00717*
X00832Y0073*
X00854Y00746*
X00875Y00764*
X00893Y00784*
X00909Y00807*
X00922Y0083*
X00932Y00855*
X0094Y00882*
X00944Y00908*
X00946Y00936*
X00944Y00963*
X0094Y00989*
X00932Y01016*
X00922Y01041*
X00909Y01065*
X00893Y01087*
X00875Y01107*
X00854Y01125*
X00832Y01141*
X00808Y01154*
X00783Y01164*
X00757Y01172*
X0073Y01177*
X00703Y01178*
G37*
G36*
X02275Y00707D02*
X02269Y00706D01*
X02264Y00703*
X02261Y00698*
X02259Y00692*
X02261Y00686*
X02264Y00681*
X02269Y00678*
X02275Y00677*
X0228Y00678*
X02285Y00681*
X02288Y00686*
X0229Y00692*
X02288Y00698*
X02285Y00703*
X0228Y00706*
X02275Y00707*
G37*
G36*
X03861Y00699D02*
X03855Y00698D01*
X0385Y00694*
X03847Y00689*
X03845Y00684*
X03847Y00678*
X0385Y00673*
X03855Y0067*
X03861Y00669*
X03866Y0067*
X03871Y00673*
X03874Y00678*
X03876Y00684*
X03874Y00689*
X03871Y00694*
X03866Y00698*
X03861Y00699*
G37*
G36*
X07365Y00685D02*
X07359Y00683D01*
X07354Y0068*
X07351Y00675*
X07349Y0067*
X07351Y00664*
X07354Y00659*
X07359Y00656*
X07365Y00654*
X0737Y00656*
X07375Y00659*
X07378Y00664*
X0738Y0067*
X07378Y00675*
X07375Y0068*
X0737Y00683*
X07365Y00685*
G37*
G36*
X0718D02*
X07174Y00683D01*
X07169Y0068*
X07166Y00675*
X07164Y0067*
X07166Y00664*
X07169Y00659*
X07174Y00656*
X0718Y00654*
X07185Y00656*
X0719Y00659*
X07193Y00664*
X07195Y0067*
X07193Y00675*
X0719Y0068*
X07185Y00683*
X0718Y00685*
G37*
G36*
X03877Y00649D02*
X03871Y00647D01*
X03866Y00644*
X03863Y00639*
X03861Y00634*
X03863Y00628*
X03866Y00623*
X03871Y0062*
X03877Y00618*
X03882Y0062*
X03887Y00623*
X0389Y00628*
X03892Y00634*
X0389Y00639*
X03887Y00644*
X03882Y00647*
X03877Y00649*
G37*
G36*
X04075Y00645D02*
X04069Y00643D01*
X04064Y0064*
X04061Y00635*
X04059Y0063*
X04061Y00624*
X04064Y00619*
X04069Y00616*
X04075Y00614*
X0408Y00616*
X04085Y00619*
X04088Y00624*
X0409Y0063*
X04088Y00635*
X04085Y0064*
X0408Y00643*
X04075Y00645*
G37*
G36*
X03914Y00667D02*
X03908Y00665D01*
X03903Y00662*
X039Y00657*
X03898Y00652*
X039Y00646*
X03902Y00642*
X03903Y00639*
X03902Y00635*
X039Y00632*
X03898Y00626*
X039Y0062*
X03903Y00615*
X03908Y00612*
X03914Y00611*
X03919Y00612*
X03924Y00615*
X03927Y0062*
X03929Y00626*
X03927Y00632*
X03925Y00635*
X03924Y00639*
X03925Y00642*
X03927Y00646*
X03929Y00652*
X03927Y00657*
X03924Y00662*
X03919Y00665*
X03914Y00667*
G37*
G36*
X03689Y00596D02*
X03683Y00594D01*
X03679Y00591*
X03675Y00586*
X03674Y00581*
X03675Y00575*
X03679Y0057*
X03683Y00567*
X03689Y00565*
X03695Y00567*
X037Y0057*
X03703Y00575*
X03704Y00581*
X03703Y00586*
X037Y00591*
X03695Y00594*
X03689Y00596*
G37*
G36*
X04086Y00609D02*
X0408Y00608D01*
X04075Y00604*
X04072Y00599*
X04071Y00595*
X04068Y00591*
X04062Y00589*
X04057Y00586*
X04054Y00581*
X04052Y00576*
X04054Y0057*
X04057Y00565*
X04062Y00562*
X04068Y0056*
X04073Y00562*
X04078Y00565*
X04081Y0057*
X04082Y00574*
X04086Y00579*
X04091Y0058*
X04096Y00583*
X041Y00588*
X04101Y00594*
X041Y00599*
X04096Y00604*
X04091Y00608*
X04086Y00609*
G37*
G36*
X03315Y00575D02*
X03309Y00573D01*
X03304Y0057*
X03301Y00565*
X03299Y0056*
X03301Y00554*
X03304Y00549*
X03309Y00546*
X03315Y00544*
X0332Y00546*
X03325Y00549*
X03328Y00554*
X0333Y0056*
X03328Y00565*
X03325Y0057*
X0332Y00573*
X03315Y00575*
G37*
G36*
X0651Y00602D02*
X06498Y00601D01*
X06487Y00596*
X06478Y00589*
X0647Y00579*
X06466Y00568*
X06464Y00557*
X06466Y00545*
X0647Y00534*
X06478Y00524*
X06487Y00517*
X06498Y00512*
X0651Y00511*
X06522Y00512*
X06533Y00517*
X06542Y00524*
X06549Y00534*
X06554Y00545*
X06556Y00557*
X06554Y00568*
X06549Y00579*
X06542Y00589*
X06533Y00596*
X06522Y00601*
X0651Y00602*
G37*
G36*
X06401D02*
X06389Y00601D01*
X06378Y00596*
X06368Y00589*
X06361Y00579*
X06357Y00568*
X06355Y00557*
X06357Y00545*
X06361Y00534*
X06368Y00524*
X06378Y00517*
X06389Y00512*
X06401Y00511*
X06412Y00512*
X06423Y00517*
X06433Y00524*
X0644Y00534*
X06445Y00545*
X06446Y00557*
X06445Y00568*
X0644Y00579*
X06433Y00589*
X06423Y00596*
X06412Y00601*
X06401Y00602*
G37*
G36*
X06291D02*
X0628Y00601D01*
X06269Y00596*
X06259Y00589*
X06252Y00579*
X06247Y00568*
X06246Y00557*
X06247Y00545*
X06252Y00534*
X06259Y00524*
X06269Y00517*
X0628Y00512*
X06291Y00511*
X06303Y00512*
X06314Y00517*
X06324Y00524*
X06331Y00534*
X06336Y00545*
X06337Y00557*
X06336Y00568*
X06331Y00579*
X06324Y00589*
X06314Y00596*
X06303Y00601*
X06291Y00602*
G37*
G36*
X06182D02*
X0617Y00601D01*
X06159Y00596*
X0615Y00589*
X06143Y00579*
X06138Y00568*
X06136Y00557*
X06138Y00545*
X06143Y00534*
X0615Y00524*
X06159Y00517*
X0617Y00512*
X06182Y00511*
X06194Y00512*
X06205Y00517*
X06214Y00524*
X06222Y00534*
X06226Y00545*
X06228Y00557*
X06226Y00568*
X06222Y00579*
X06214Y00589*
X06205Y00596*
X06194Y00601*
X06182Y00602*
G37*
G36*
X05204D02*
X05192Y00601D01*
X05181Y00596*
X05172Y00589*
X05164Y00579*
X0516Y00568*
X05158Y00557*
X0516Y00545*
X05164Y00534*
X05172Y00524*
X05181Y00517*
X05192Y00512*
X05204Y00511*
X05216Y00512*
X05227Y00517*
X05236Y00524*
X05243Y00534*
X05248Y00545*
X0525Y00557*
X05248Y00568*
X05243Y00579*
X05236Y00589*
X05227Y00596*
X05216Y00601*
X05204Y00602*
G37*
G36*
X05095D02*
X05083Y00601D01*
X05072Y00596*
X05062Y00589*
X05055Y00579*
X05051Y00568*
X05049Y00557*
X05051Y00545*
X05055Y00534*
X05062Y00524*
X05072Y00517*
X05083Y00512*
X05095Y00511*
X05106Y00512*
X05117Y00517*
X05127Y00524*
X05134Y00534*
X05139Y00545*
X0514Y00557*
X05139Y00568*
X05134Y00579*
X05127Y00589*
X05117Y00596*
X05106Y00601*
X05095Y00602*
G37*
G36*
X04985D02*
X04974Y00601D01*
X04963Y00596*
X04953Y00589*
X04946Y00579*
X04941Y00568*
X0494Y00557*
X04941Y00545*
X04946Y00534*
X04953Y00524*
X04963Y00517*
X04974Y00512*
X04985Y00511*
X04997Y00512*
X05008Y00517*
X05018Y00524*
X05025Y00534*
X0503Y00545*
X05031Y00557*
X0503Y00568*
X05025Y00579*
X05018Y00589*
X05008Y00596*
X04997Y00601*
X04985Y00602*
G37*
G36*
X04876D02*
X04864Y00601D01*
X04853Y00596*
X04844Y00589*
X04837Y00579*
X04832Y00568*
X0483Y00557*
X04832Y00545*
X04837Y00534*
X04844Y00524*
X04853Y00517*
X04864Y00512*
X04876Y00511*
X04888Y00512*
X04899Y00517*
X04908Y00524*
X04916Y00534*
X0492Y00545*
X04922Y00557*
X0492Y00568*
X04916Y00579*
X04908Y00589*
X04899Y00596*
X04888Y00601*
X04876Y00602*
G37*
G36*
X06073Y00602D02*
X06061Y006D01*
X0605Y00596*
X06041Y00589*
X06033Y00579*
X06029Y00568*
X06027Y00556*
X06029Y00544*
X06033Y00533*
X06041Y00524*
X0605Y00517*
X06061Y00512*
X06073Y00511*
X06085Y00512*
X06096Y00517*
X06105Y00524*
X06112Y00533*
X06117Y00544*
X06119Y00556*
X06117Y00568*
X06112Y00579*
X06105Y00589*
X06096Y00596*
X06085Y006*
X06073Y00602*
G37*
G36*
X04767D02*
X04755Y006D01*
X04744Y00596*
X04735Y00589*
X04727Y00579*
X04723Y00568*
X04721Y00556*
X04723Y00544*
X04727Y00533*
X04735Y00524*
X04744Y00517*
X04755Y00512*
X04767Y00511*
X04779Y00512*
X0479Y00517*
X04799Y00524*
X04806Y00533*
X04811Y00544*
X04813Y00556*
X04811Y00568*
X04806Y00579*
X04799Y00589*
X0479Y00596*
X04779Y006*
X04767Y00602*
G37*
G36*
X03033Y00554D02*
X03023Y00552D01*
X03016Y00547*
X0301Y00539*
X03009Y0053*
X0301Y0052*
X03016Y00513*
X03023Y00507*
X03033Y00505*
X03042Y00507*
X0305Y00513*
X03055Y0052*
X03057Y0053*
X03055Y00539*
X0305Y00547*
X03042Y00552*
X03033Y00554*
G37*
G36*
X02954D02*
X02945Y00552D01*
X02937Y00547*
X02932Y00539*
X0293Y0053*
X02932Y0052*
X02937Y00513*
X02945Y00507*
X02954Y00505*
X02963Y00507*
X02971Y00513*
X02976Y0052*
X02978Y0053*
X02976Y00539*
X02971Y00547*
X02963Y00552*
X02954Y00554*
G37*
G36*
X02875D02*
X02866Y00552D01*
X02858Y00547*
X02853Y00539*
X02851Y0053*
X02853Y0052*
X02858Y00513*
X02866Y00507*
X02875Y00505*
X02884Y00507*
X02892Y00513*
X02897Y0052*
X02899Y0053*
X02897Y00539*
X02892Y00547*
X02884Y00552*
X02875Y00554*
G37*
G36*
X02796D02*
X02787Y00552D01*
X02779Y00547*
X02774Y00539*
X02772Y0053*
X02774Y0052*
X02779Y00513*
X02787Y00507*
X02796Y00505*
X02806Y00507*
X02813Y00513*
X02819Y0052*
X0282Y0053*
X02819Y00539*
X02813Y00547*
X02806Y00552*
X02796Y00554*
G37*
G36*
X02718D02*
X02708Y00552D01*
X02701Y00547*
X02695Y00539*
X02694Y0053*
X02695Y0052*
X02701Y00513*
X02708Y00507*
X02718Y00505*
X02727Y00507*
X02735Y00513*
X0274Y0052*
X02742Y0053*
X0274Y00539*
X02735Y00547*
X02727Y00552*
X02718Y00554*
G37*
G36*
X02273Y00537D02*
X02264Y00535D01*
X02255Y00532*
X02247Y00526*
X02242Y00518*
X02238Y0051*
X02237Y005*
X02238Y00491*
X02242Y00482*
X02247Y00475*
X02255Y00469*
X02264Y00465*
X02273Y00464*
X02282Y00465*
X02291Y00469*
X02299Y00475*
X02304Y00482*
X02308Y00491*
X02309Y005*
X02308Y0051*
X02304Y00518*
X02299Y00526*
X02291Y00532*
X02282Y00535*
X02273Y00537*
G37*
G36*
X02175D02*
X02165Y00535D01*
X02156Y00532*
X02149Y00526*
X02143Y00518*
X0214Y0051*
X02138Y005*
X0214Y00491*
X02143Y00482*
X02149Y00475*
X02156Y00469*
X02165Y00465*
X02175Y00464*
X02184Y00465*
X02193Y00469*
X022Y00475*
X02206Y00482*
X02209Y00491*
X02211Y005*
X02209Y0051*
X02206Y00518*
X022Y00526*
X02193Y00532*
X02184Y00535*
X02175Y00537*
G37*
G36*
X02096D02*
X02086Y00535D01*
X02078Y00532*
X0207Y00526*
X02064Y00518*
X02061Y0051*
X0206Y005*
X02061Y00491*
X02064Y00482*
X0207Y00475*
X02078Y00469*
X02086Y00465*
X02096Y00464*
X02105Y00465*
X02114Y00469*
X02121Y00475*
X02127Y00482*
X02131Y00491*
X02132Y005*
X02131Y0051*
X02127Y00518*
X02121Y00526*
X02114Y00532*
X02105Y00535*
X02096Y00537*
G37*
G36*
X01997D02*
X01988Y00535D01*
X01979Y00532*
X01972Y00526*
X01966Y00518*
X01962Y0051*
X01961Y005*
X01962Y00491*
X01966Y00482*
X01972Y00475*
X01979Y00469*
X01988Y00465*
X01997Y00464*
X02007Y00465*
X02015Y00469*
X02023Y00475*
X02029Y00482*
X02032Y00491*
X02034Y005*
X02032Y0051*
X02029Y00518*
X02023Y00526*
X02015Y00532*
X02007Y00535*
X01997Y00537*
G37*
G36*
X01565Y00534D02*
X01555Y00533D01*
X01546Y00529*
X01539Y00523*
X01533Y00516*
X01529Y00507*
X01528Y00497*
X01529Y00487*
X01533Y00478*
X01539Y00471*
X01546Y00465*
X01555Y00461*
X01565Y0046*
X01575Y00461*
X01584Y00465*
X01591Y00471*
X01597Y00478*
X01601Y00487*
X01602Y00497*
X01601Y00507*
X01597Y00516*
X01591Y00523*
X01584Y00529*
X01575Y00533*
X01565Y00534*
G37*
G36*
X01115D02*
X01105Y00533D01*
X01096Y00529*
X01089Y00523*
X01083Y00516*
X01079Y00507*
X01078Y00497*
X01079Y00487*
X01083Y00478*
X01089Y00471*
X01096Y00465*
X01105Y00461*
X01115Y0046*
X01125Y00461*
X01134Y00465*
X01141Y00471*
X01147Y00478*
X01151Y00487*
X01152Y00497*
X01151Y00507*
X01147Y00516*
X01141Y00523*
X01134Y00529*
X01125Y00533*
X01115Y00534*
G37*
G36*
X02394Y00579D02*
X02381Y00578D01*
X02369Y00574*
X02358Y00568*
X02348Y0056*
X0234Y0055*
X02333Y00539*
X0233Y00527*
X02329Y00514*
X0233Y00501*
X02333Y00489*
X0234Y00478*
X02348Y00468*
X02358Y0046*
X02369Y00454*
X02381Y0045*
X02394Y00449*
X02407Y0045*
X02419Y00454*
X0243Y0046*
X0244Y00468*
X02448Y00478*
X02454Y00489*
X02458Y00501*
X02459Y00514*
X02458Y00527*
X02454Y00539*
X02448Y0055*
X0244Y0056*
X0243Y00568*
X02419Y00574*
X02407Y00578*
X02394Y00579*
G37*
G36*
X03013Y00495D02*
X03004Y00493D01*
X02996Y00488*
X02991Y0048*
X02989Y0047*
X02991Y00461*
X02996Y00453*
X03004Y00448*
X03013Y00446*
X03022Y00448*
X0303Y00453*
X03035Y00461*
X03037Y0047*
X03035Y0048*
X0303Y00488*
X03022Y00493*
X03013Y00495*
G37*
G36*
X02915D02*
X02905Y00493D01*
X02897Y00488*
X02892Y0048*
X0289Y0047*
X02892Y00461*
X02897Y00453*
X02905Y00448*
X02915Y00446*
X02924Y00448*
X02932Y00453*
X02937Y00461*
X02939Y0047*
X02937Y0048*
X02932Y00488*
X02924Y00493*
X02915Y00495*
G37*
G36*
X02836D02*
X02827Y00493D01*
X02819Y00488*
X02814Y0048*
X02812Y0047*
X02814Y00461*
X02819Y00453*
X02827Y00448*
X02836Y00446*
X02845Y00448*
X02853Y00453*
X02858Y00461*
X0286Y0047*
X02858Y0048*
X02853Y00488*
X02845Y00493*
X02836Y00495*
G37*
G36*
X02737D02*
X02728Y00493D01*
X0272Y00488*
X02715Y0048*
X02713Y0047*
X02715Y00461*
X0272Y00453*
X02728Y00448*
X02737Y00446*
X02747Y00448*
X02754Y00453*
X0276Y00461*
X02761Y0047*
X0276Y0048*
X02754Y00488*
X02747Y00493*
X02737Y00495*
G37*
G36*
X03163Y00555D02*
X03104D01*
X03095Y00553*
X03086Y0055*
X03079Y00544*
X03073Y00537*
X0307Y00528*
X03069Y00519*
Y0046*
X0307Y00451*
X03073Y00442*
X03079Y00435*
X03086Y00429*
X03095Y00425*
X03104Y00424*
X03163*
X03173Y00425*
X03181Y00429*
X03189Y00435*
X03194Y00442*
X03198Y00451*
X03199Y0046*
Y00519*
X03198Y00528*
X03194Y00537*
X03189Y00544*
X03181Y0055*
X03173Y00553*
X03163Y00555*
G37*
G36*
X05799Y00578D02*
X05782Y00576D01*
X05766Y00572*
X05752Y00564*
X05739Y00553*
X05728Y0054*
X0572Y00525*
X05715Y0051*
X05714Y00493*
X05715Y00476*
X0572Y0046*
X05728Y00446*
X05739Y00433*
X05752Y00422*
X05766Y00414*
X05782Y0041*
X05799Y00408*
X05815Y0041*
X05831Y00414*
X05846Y00422*
X05859Y00433*
X0587Y00446*
X05877Y0046*
X05882Y00476*
X05884Y00493*
X05882Y0051*
X05877Y00525*
X0587Y0054*
X05859Y00553*
X05846Y00564*
X05831Y00572*
X05815Y00576*
X05799Y00578*
G37*
G36*
X04493D02*
X04476Y00576D01*
X0446Y00572*
X04446Y00564*
X04433Y00553*
X04422Y0054*
X04414Y00525*
X04409Y0051*
X04408Y00493*
X04409Y00476*
X04414Y0046*
X04422Y00446*
X04433Y00433*
X04446Y00422*
X0446Y00414*
X04476Y0041*
X04493Y00408*
X04509Y0041*
X04525Y00414*
X0454Y00422*
X04553Y00433*
X04564Y00446*
X04571Y0046*
X04576Y00476*
X04578Y00493*
X04576Y0051*
X04571Y00525*
X04564Y0054*
X04553Y00553*
X0454Y00564*
X04525Y00572*
X04509Y00576*
X04493Y00578*
G37*
G36*
X06778Y00576D02*
X06761Y00575D01*
X06745Y0057*
X06731Y00562*
X06718Y00551*
X06707Y00539*
X06699Y00524*
X06695Y00508*
X06693Y00491*
X06695Y00475*
X06699Y00459*
X06707Y00444*
X06718Y00431*
X06731Y00421*
X06745Y00413*
X06761Y00408*
X06778Y00406*
X06795Y00408*
X06811Y00413*
X06825Y00421*
X06838Y00431*
X06849Y00444*
X06857Y00459*
X06861Y00475*
X06863Y00491*
X06861Y00508*
X06857Y00524*
X06849Y00539*
X06838Y00551*
X06825Y00562*
X06811Y0057*
X06795Y00575*
X06778Y00576*
G37*
G36*
X05472D02*
X05455Y00575D01*
X05439Y0057*
X05425Y00562*
X05412Y00551*
X05401Y00539*
X05393Y00524*
X05389Y00508*
X05387Y00491*
X05389Y00475*
X05393Y00459*
X05401Y00444*
X05412Y00431*
X05425Y00421*
X05439Y00413*
X05455Y00408*
X05472Y00406*
X05489Y00408*
X05505Y00413*
X05519Y00421*
X05532Y00431*
X05543Y00444*
X05551Y00459*
X05555Y00475*
X05557Y00491*
X05555Y00508*
X05551Y00524*
X05543Y00539*
X05532Y00551*
X05519Y00562*
X05505Y0057*
X05489Y00575*
X05472Y00576*
G37*
G36*
X04006Y00439D02*
X04Y00437D01*
X03995Y00434*
X03992Y00429*
X0399Y00424*
X03992Y00418*
X03995Y00413*
X04Y0041*
X04006Y00408*
X04011Y0041*
X04015Y00412*
X04016Y00413*
X04021Y00412*
X04023Y0041*
X04027Y00407*
X04033Y00406*
X04039Y00407*
X04044Y0041*
X04047Y00415*
X04048Y00421*
X04047Y00426*
X04044Y00431*
X04039Y00434*
X04033Y00436*
X04027Y00434*
X04023Y00432*
X04023Y00431*
X04017Y00432*
X04016Y00434*
X04011Y00437*
X04006Y00439*
G37*
G36*
X02646Y00555D02*
X02587D01*
X02578Y00553*
X02569Y0055*
X02562Y00544*
X02556Y00537*
X02552Y00528*
X02551Y00519*
Y0046*
X02552Y00451*
X02556Y00442*
X02562Y00435*
X02569Y00429*
X02578Y00425*
X02587Y00424*
X02598*
X026Y00419*
X02599Y00415*
X02601Y00409*
X02604Y00404*
X02609Y00401*
X02615Y00399*
X0262Y00401*
X02625Y00404*
X02628Y00409*
X0263Y00415*
X02629Y00419*
X02631Y00424*
X02646*
X02655Y00425*
X02664Y00429*
X02671Y00435*
X02677Y00442*
X02681Y00451*
X02682Y0046*
Y00519*
X02681Y00528*
X02677Y00537*
X02671Y00544*
X02664Y0055*
X02655Y00553*
X02646Y00555*
G37*
G36*
X06455Y0049D02*
X06443Y00489D01*
X06432Y00484*
X06423Y00477*
X06416Y00467*
X06411Y00456*
X0641Y00445*
X06411Y00433*
X06416Y00422*
X06423Y00412*
X06432Y00405*
X06443Y004*
X06455Y00399*
X06467Y004*
X06478Y00405*
X06488Y00412*
X06495Y00422*
X06499Y00433*
X06501Y00445*
X06499Y00456*
X06495Y00467*
X06488Y00477*
X06478Y00484*
X06467Y00489*
X06455Y0049*
G37*
G36*
X06346D02*
X06334Y00489D01*
X06323Y00484*
X06314Y00477*
X06306Y00467*
X06302Y00456*
X063Y00445*
X06302Y00433*
X06306Y00422*
X06314Y00412*
X06323Y00405*
X06334Y004*
X06346Y00399*
X06358Y004*
X06369Y00405*
X06378Y00412*
X06386Y00422*
X0639Y00433*
X06392Y00445*
X0639Y00456*
X06386Y00467*
X06378Y00477*
X06369Y00484*
X06358Y00489*
X06346Y0049*
G37*
G36*
X06237D02*
X06225Y00489D01*
X06214Y00484*
X06204Y00477*
X06197Y00467*
X06193Y00456*
X06191Y00445*
X06193Y00433*
X06197Y00422*
X06204Y00412*
X06214Y00405*
X06225Y004*
X06237Y00399*
X06249Y004*
X0626Y00405*
X06269Y00412*
X06276Y00422*
X06281Y00433*
X06282Y00445*
X06281Y00456*
X06276Y00467*
X06269Y00477*
X0626Y00484*
X06249Y00489*
X06237Y0049*
G37*
G36*
X06128D02*
X06116Y00489D01*
X06105Y00484*
X06095Y00477*
X06088Y00467*
X06083Y00456*
X06082Y00445*
X06083Y00433*
X06088Y00422*
X06095Y00412*
X06105Y00405*
X06116Y004*
X06128Y00399*
X06139Y004*
X0615Y00405*
X0616Y00412*
X06167Y00422*
X06172Y00433*
X06173Y00445*
X06172Y00456*
X06167Y00467*
X0616Y00477*
X0615Y00484*
X06139Y00489*
X06128Y0049*
G37*
G36*
X05149D02*
X05137Y00489D01*
X05126Y00484*
X05117Y00477*
X0511Y00467*
X05105Y00456*
X05104Y00445*
X05105Y00433*
X0511Y00422*
X05117Y00412*
X05126Y00405*
X05137Y004*
X05149Y00399*
X05161Y004*
X05172Y00405*
X05182Y00412*
X05189Y00422*
X05193Y00433*
X05195Y00445*
X05193Y00456*
X05189Y00467*
X05182Y00477*
X05172Y00484*
X05161Y00489*
X05149Y0049*
G37*
G36*
X0504D02*
X05028Y00489D01*
X05017Y00484*
X05008Y00477*
X05Y00467*
X04996Y00456*
X04994Y00445*
X04996Y00433*
X05Y00422*
X05008Y00412*
X05017Y00405*
X05028Y004*
X0504Y00399*
X05052Y004*
X05063Y00405*
X05072Y00412*
X0508Y00422*
X05084Y00433*
X05086Y00445*
X05084Y00456*
X0508Y00467*
X05072Y00477*
X05063Y00484*
X05052Y00489*
X0504Y0049*
G37*
G36*
X04931D02*
X04919Y00489D01*
X04908Y00484*
X04898Y00477*
X04891Y00467*
X04887Y00456*
X04885Y00445*
X04887Y00433*
X04891Y00422*
X04898Y00412*
X04908Y00405*
X04919Y004*
X04931Y00399*
X04943Y004*
X04954Y00405*
X04963Y00412*
X0497Y00422*
X04975Y00433*
X04976Y00445*
X04975Y00456*
X0497Y00467*
X04963Y00477*
X04954Y00484*
X04943Y00489*
X04931Y0049*
G37*
G36*
X04822D02*
X0481Y00489D01*
X04799Y00484*
X04789Y00477*
X04782Y00467*
X04777Y00456*
X04776Y00445*
X04777Y00433*
X04782Y00422*
X04789Y00412*
X04799Y00405*
X0481Y004*
X04822Y00399*
X04833Y004*
X04844Y00405*
X04854Y00412*
X04861Y00422*
X04866Y00433*
X04867Y00445*
X04866Y00456*
X04861Y00467*
X04854Y00477*
X04844Y00484*
X04833Y00489*
X04822Y0049*
G37*
G36*
X03033Y00428D02*
X03023Y00426D01*
X03016Y00421*
X0301Y00413*
X03009Y00404*
X0301Y00394*
X03016Y00387*
X03023Y00381*
X03033Y00379*
X03042Y00381*
X0305Y00387*
X03055Y00394*
X03057Y00404*
X03055Y00413*
X0305Y00421*
X03042Y00426*
X03033Y00428*
G37*
G36*
X02954D02*
X02945Y00426D01*
X02937Y00421*
X02932Y00413*
X0293Y00404*
X02932Y00394*
X02937Y00387*
X02945Y00381*
X02954Y00379*
X02963Y00381*
X02971Y00387*
X02976Y00394*
X02978Y00404*
X02976Y00413*
X02971Y00421*
X02963Y00426*
X02954Y00428*
G37*
G36*
X02875D02*
X02866Y00426D01*
X02858Y00421*
X02853Y00413*
X02851Y00404*
X02853Y00394*
X02858Y00387*
X02866Y00381*
X02875Y00379*
X02884Y00381*
X02892Y00387*
X02897Y00394*
X02899Y00404*
X02897Y00413*
X02892Y00421*
X02884Y00426*
X02875Y00428*
G37*
G36*
X02796D02*
X02787Y00426D01*
X02779Y00421*
X02774Y00413*
X02772Y00404*
X02774Y00394*
X02779Y00387*
X02787Y00381*
X02796Y00379*
X02806Y00381*
X02813Y00387*
X02819Y00394*
X0282Y00404*
X02819Y00413*
X02813Y00421*
X02806Y00426*
X02796Y00428*
G37*
G36*
X02718D02*
X02708Y00426D01*
X02701Y00421*
X02695Y00413*
X02694Y00404*
X02695Y00394*
X02701Y00387*
X02708Y00381*
X02718Y00379*
X02727Y00381*
X02735Y00387*
X0274Y00394*
X02742Y00404*
X0274Y00413*
X02735Y00421*
X02727Y00426*
X02718Y00428*
G37*
G36*
X04149Y00544D02*
X04135Y00542D01*
X04122Y00538*
X04109Y00532*
X04099Y00523*
X0409Y00512*
X04083Y005*
X04079Y00487*
X04078Y00473*
Y00445*
X04079Y00431*
X04083Y00418*
X0409Y00406*
X04099Y00395*
X04109Y00386*
X04122Y00379*
X04135Y00375*
X04149Y00374*
X04163Y00375*
X04176Y00379*
X04188Y00386*
X04199Y00395*
X04208Y00406*
X04215Y00418*
X04219Y00431*
X0422Y00445*
Y00473*
X04219Y00487*
X04215Y005*
X04208Y00512*
X04199Y00523*
X04188Y00532*
X04176Y00538*
X04163Y00542*
X04149Y00544*
G37*
G36*
X03578D02*
X03564Y00542D01*
X03551Y00538*
X03539Y00532*
X03528Y00523*
X03519Y00512*
X03512Y005*
X03508Y00487*
X03507Y00473*
Y00445*
X03508Y00431*
X03512Y00418*
X03519Y00406*
X03528Y00395*
X03539Y00386*
X03551Y00379*
X03564Y00375*
X03578Y00374*
X03592Y00375*
X03605Y00379*
X03618Y00386*
X03628Y00395*
X03637Y00406*
X03644Y00418*
X03648Y00431*
X03649Y00445*
Y00473*
X03648Y00487*
X03644Y005*
X03637Y00512*
X03628Y00523*
X03618Y00532*
X03605Y00538*
X03592Y00542*
X03578Y00544*
G37*
G36*
X07602Y00518D02*
X07539D01*
X07535Y00516*
X07533Y00511*
Y00448*
X07535Y00444*
X07539Y00442*
X07559*
X0756Y00437*
X07552Y00434*
X07544Y00428*
X07538Y0042*
X07534Y00411*
X07533Y00401*
X07534Y00391*
X07538Y00382*
X07544Y00375*
X07552Y00369*
X07561Y00365*
X07571Y00363*
X0758Y00365*
X0759Y00369*
X07597Y00375*
X07603Y00382*
X07607Y00391*
X07608Y00401*
X07607Y00411*
X07603Y0042*
X07597Y00428*
X0759Y00434*
X07582Y00437*
X07583Y00442*
X07602*
X07607Y00444*
X07609Y00448*
Y00511*
X07607Y00516*
X07602Y00518*
G37*
G36*
X07472Y00518D02*
X07463Y00516D01*
X07453Y00513*
X07446Y00507*
X0744Y00499*
X07436Y0049*
X07435Y0048*
X07436Y0047*
X0744Y00461*
X07446Y00453*
X07453Y00447*
X07463Y00443*
X07466Y00443*
Y00438*
X07463Y00438*
X07453Y00434*
X07446Y00428*
X0744Y0042*
X07436Y00411*
X07435Y00401*
X07436Y00391*
X0744Y00382*
X07446Y00375*
X07453Y00369*
X07463Y00365*
X07472Y00363*
X07482Y00365*
X07491Y00369*
X07499Y00375*
X07505Y00382*
X07509Y00391*
X0751Y00401*
X07509Y00411*
X07505Y0042*
X07499Y00428*
X07491Y00434*
X07482Y00438*
X07479Y00438*
Y00443*
X07482Y00443*
X07491Y00447*
X07499Y00453*
X07505Y00461*
X07509Y0047*
X0751Y0048*
X07509Y0049*
X07505Y00499*
X07499Y00507*
X07491Y00513*
X07482Y00516*
X07472Y00518*
G37*
G36*
X02273Y00433D02*
X02264Y00432D01*
X02255Y00429*
X02247Y00423*
X02242Y00415*
X02238Y00407*
X02237Y00397*
X02238Y00388*
X02242Y00379*
X02247Y00372*
X02255Y00366*
X02264Y00362*
X02273Y00361*
X02282Y00362*
X02291Y00366*
X02299Y00372*
X02304Y00379*
X02308Y00388*
X02309Y00397*
X02308Y00407*
X02304Y00415*
X02299Y00423*
X02291Y00429*
X02282Y00432*
X02273Y00433*
G37*
G36*
X02175D02*
X02165Y00432D01*
X02156Y00429*
X02149Y00423*
X02143Y00415*
X0214Y00407*
X02138Y00397*
X0214Y00388*
X02143Y00379*
X02149Y00372*
X02156Y00366*
X02165Y00362*
X02175Y00361*
X02184Y00362*
X02193Y00366*
X022Y00372*
X02206Y00379*
X02209Y00388*
X02211Y00397*
X02209Y00407*
X02206Y00415*
X022Y00423*
X02193Y00429*
X02184Y00432*
X02175Y00433*
G37*
G36*
X02096D02*
X02086Y00432D01*
X02078Y00429*
X0207Y00423*
X02064Y00415*
X02061Y00407*
X0206Y00397*
X02061Y00388*
X02064Y00379*
X0207Y00372*
X02078Y00366*
X02086Y00362*
X02096Y00361*
X02105Y00362*
X02114Y00366*
X02121Y00372*
X02127Y00379*
X02131Y00388*
X02132Y00397*
X02131Y00407*
X02127Y00415*
X02121Y00423*
X02114Y00429*
X02105Y00432*
X02096Y00433*
G37*
G36*
X01997D02*
X01988Y00432D01*
X01979Y00429*
X01972Y00423*
X01966Y00415*
X01962Y00407*
X01961Y00397*
X01962Y00388*
X01966Y00379*
X01972Y00372*
X01979Y00366*
X01988Y00362*
X01997Y00361*
X02007Y00362*
X02015Y00366*
X02023Y00372*
X02029Y00379*
X02032Y00388*
X02034Y00397*
X02032Y00407*
X02029Y00415*
X02023Y00423*
X02015Y00429*
X02007Y00432*
X01997Y00433*
G37*
G36*
X03013Y00369D02*
X03004Y00367D01*
X02996Y00362*
X02991Y00354*
X02989Y00345*
X02991Y00335*
X02996Y00327*
X03004Y00322*
X03013Y0032*
X03022Y00322*
X0303Y00327*
X03035Y00335*
X03037Y00345*
X03035Y00354*
X0303Y00362*
X03022Y00367*
X03013Y00369*
G37*
G36*
X02915D02*
X02905Y00367D01*
X02897Y00362*
X02892Y00354*
X0289Y00345*
X02892Y00335*
X02897Y00327*
X02905Y00322*
X02915Y0032*
X02924Y00322*
X02932Y00327*
X02937Y00335*
X02939Y00345*
X02937Y00354*
X02932Y00362*
X02924Y00367*
X02915Y00369*
G37*
G36*
X02836D02*
X02827Y00367D01*
X02819Y00362*
X02814Y00354*
X02812Y00345*
X02814Y00335*
X02819Y00327*
X02827Y00322*
X02836Y0032*
X02845Y00322*
X02853Y00327*
X02858Y00335*
X0286Y00345*
X02858Y00354*
X02853Y00362*
X02845Y00367*
X02836Y00369*
G37*
G36*
X02737D02*
X02728Y00367D01*
X0272Y00362*
X02715Y00354*
X02713Y00345*
X02715Y00335*
X0272Y00327*
X02728Y00322*
X02737Y0032*
X02747Y00322*
X02754Y00327*
X0276Y00335*
X02761Y00345*
X0276Y00354*
X02754Y00362*
X02747Y00367*
X02737Y00369*
G37*
G36*
X03135Y00318D02*
X03134Y00318D01*
X03133Y00318*
X03121Y00316*
X0312Y00316*
X0312*
X03109Y00311*
X03108Y00311*
X03107Y0031*
X03098Y00303*
X03097Y00302*
X03096Y00302*
X03089Y00292*
X03089Y00292*
X03088Y00291*
X03084Y0028*
Y00279*
X03083Y00278*
X03082Y00267*
X03082Y00266*
X03082Y00266*
X03082Y00265*
X03082Y00265*
X03083Y00253*
X03084Y00252*
Y00251*
X03088Y0024*
X03089Y0024*
X03089Y00239*
X03096Y0023*
X03097Y00229*
X03098Y00228*
X03107Y00221*
X03108Y00221*
X03109Y0022*
X0312Y00216*
X0312*
X03121Y00215*
X03133Y00214*
X03134Y00214*
X03135Y00214*
X03146Y00215*
X03147Y00216*
X03148*
X03159Y0022*
X0316Y00221*
X03161Y00221*
X0317Y00228*
X0317Y00229*
X03171Y0023*
X03178Y00239*
X03179Y0024*
X03179Y0024*
X03184Y00251*
Y00252*
X03184Y00253*
X03186Y00265*
X03186Y00265*
X03186Y00266*
X03186Y00266*
X03186Y00267*
X03184Y00278*
X03184Y00279*
Y0028*
X03179Y00291*
X03179Y00292*
X03178Y00292*
X03171Y00302*
X0317Y00302*
X0317Y00303*
X03161Y0031*
X0316Y00311*
X03159Y00311*
X03148Y00316*
X03147*
X03146Y00316*
X03135Y00318*
G37*
G36*
X0305Y0028D02*
X03044Y00278D01*
X03039Y00275*
X03036Y0027*
X03034Y00265*
X03036Y00259*
X03039Y00254*
X03044Y00251*
X0305Y00249*
X03055Y00251*
X0306Y00254*
X03063Y00259*
X03065Y00265*
X03063Y0027*
X0306Y00275*
X03055Y00278*
X0305Y0028*
G37*
G36*
X02641Y00331D02*
X02582D01*
X02573Y0033*
X02564Y00326*
X02557Y00321*
X02551Y00313*
X02547Y00305*
X02546Y00295*
Y00236*
X02547Y00227*
X02551Y00218*
X02557Y00211*
X02564Y00205*
X02573Y00202*
X02582Y002*
X02641*
X0265Y00202*
X02659Y00205*
X02666Y00211*
X02672Y00218*
X02676Y00227*
X02677Y00236*
Y00256*
X02682Y00257*
X02684Y00254*
X02689Y00251*
X02695Y00249*
X027Y00251*
X02705Y00254*
X02708Y00259*
X0271Y00265*
X02708Y0027*
X02705Y00275*
X027Y00278*
X02695Y0028*
X02689Y00278*
X02684Y00275*
X02682Y00272*
X02677Y00273*
Y00295*
X02676Y00305*
X02672Y00313*
X02666Y00321*
X02659Y00326*
X0265Y0033*
X02641Y00331*
G37*
G36*
X0651Y0034D02*
X06498Y00339D01*
X06487Y00334*
X06477Y00327*
X0647Y00317*
X06465Y00306*
X06464Y00295*
X06465Y00283*
X0647Y00272*
X06477Y00262*
X06487Y00255*
X06498Y0025*
X0651Y00249*
X06521Y0025*
X06532Y00255*
X06542Y00262*
X06549Y00272*
X06554Y00283*
X06555Y00295*
X06554Y00306*
X06549Y00317*
X06542Y00327*
X06532Y00334*
X06521Y00339*
X0651Y0034*
G37*
G36*
X064D02*
X06389Y00339D01*
X06378Y00334*
X06368Y00327*
X06361Y00317*
X06356Y00306*
X06355Y00295*
X06356Y00283*
X06361Y00272*
X06368Y00262*
X06378Y00255*
X06389Y0025*
X064Y00249*
X06412Y0025*
X06423Y00255*
X06433Y00262*
X0644Y00272*
X06444Y00283*
X06446Y00295*
X06444Y00306*
X0644Y00317*
X06433Y00327*
X06423Y00334*
X06412Y00339*
X064Y0034*
G37*
G36*
X06291D02*
X06279Y00339D01*
X06268Y00334*
X06259Y00327*
X06252Y00317*
X06247Y00306*
X06246Y00295*
X06247Y00283*
X06252Y00272*
X06259Y00262*
X06268Y00255*
X06279Y0025*
X06291Y00249*
X06303Y0025*
X06314Y00255*
X06323Y00262*
X06331Y00272*
X06335Y00283*
X06337Y00295*
X06335Y00306*
X06331Y00317*
X06323Y00327*
X06314Y00334*
X06303Y00339*
X06291Y0034*
G37*
G36*
X06182D02*
X0617Y00339D01*
X06159Y00334*
X0615Y00327*
X06142Y00317*
X06138Y00306*
X06136Y00295*
X06138Y00283*
X06142Y00272*
X0615Y00262*
X06159Y00255*
X0617Y0025*
X06182Y00249*
X06194Y0025*
X06205Y00255*
X06214Y00262*
X06222Y00272*
X06226Y00283*
X06228Y00295*
X06226Y00306*
X06222Y00317*
X06214Y00327*
X06205Y00334*
X06194Y00339*
X06182Y0034*
G37*
G36*
X06073D02*
X06061Y00339D01*
X0605Y00334*
X06041Y00327*
X06033Y00317*
X06029Y00306*
X06027Y00295*
X06029Y00283*
X06033Y00272*
X06041Y00262*
X0605Y00255*
X06061Y0025*
X06073Y00249*
X06085Y0025*
X06096Y00255*
X06105Y00262*
X06112Y00272*
X06117Y00283*
X06119Y00295*
X06117Y00306*
X06112Y00317*
X06105Y00327*
X06096Y00334*
X06085Y00339*
X06073Y0034*
G37*
G36*
X05204D02*
X05192Y00339D01*
X05181Y00334*
X05171Y00327*
X05164Y00317*
X05159Y00306*
X05158Y00295*
X05159Y00283*
X05164Y00272*
X05171Y00262*
X05181Y00255*
X05192Y0025*
X05204Y00249*
X05215Y0025*
X05226Y00255*
X05236Y00262*
X05243Y00272*
X05248Y00283*
X05249Y00295*
X05248Y00306*
X05243Y00317*
X05236Y00327*
X05226Y00334*
X05215Y00339*
X05204Y0034*
G37*
G36*
X05094D02*
X05083Y00339D01*
X05072Y00334*
X05062Y00327*
X05055Y00317*
X0505Y00306*
X05049Y00295*
X0505Y00283*
X05055Y00272*
X05062Y00262*
X05072Y00255*
X05083Y0025*
X05094Y00249*
X05106Y0025*
X05117Y00255*
X05127Y00262*
X05134Y00272*
X05138Y00283*
X0514Y00295*
X05138Y00306*
X05134Y00317*
X05127Y00327*
X05117Y00334*
X05106Y00339*
X05094Y0034*
G37*
G36*
X04985D02*
X04973Y00339D01*
X04962Y00334*
X04953Y00327*
X04946Y00317*
X04941Y00306*
X0494Y00295*
X04941Y00283*
X04946Y00272*
X04953Y00262*
X04962Y00255*
X04973Y0025*
X04985Y00249*
X04997Y0025*
X05008Y00255*
X05017Y00262*
X05025Y00272*
X05029Y00283*
X05031Y00295*
X05029Y00306*
X05025Y00317*
X05017Y00327*
X05008Y00334*
X04997Y00339*
X04985Y0034*
G37*
G36*
X04876D02*
X04864Y00339D01*
X04853Y00334*
X04844Y00327*
X04836Y00317*
X04832Y00306*
X0483Y00295*
X04832Y00283*
X04836Y00272*
X04844Y00262*
X04853Y00255*
X04864Y0025*
X04876Y00249*
X04888Y0025*
X04899Y00255*
X04908Y00262*
X04916Y00272*
X0492Y00283*
X04922Y00295*
X0492Y00306*
X04916Y00317*
X04908Y00327*
X04899Y00334*
X04888Y00339*
X04876Y0034*
G37*
G36*
X04767D02*
X04755Y00339D01*
X04744Y00334*
X04735Y00327*
X04727Y00317*
X04723Y00306*
X04721Y00295*
X04723Y00283*
X04727Y00272*
X04735Y00262*
X04744Y00255*
X04755Y0025*
X04767Y00249*
X04779Y0025*
X0479Y00255*
X04799Y00262*
X04806Y00272*
X04811Y00283*
X04813Y00295*
X04811Y00306*
X04806Y00317*
X04799Y00327*
X0479Y00334*
X04779Y00339*
X04767Y0034*
G37*
G36*
X02394Y00356D02*
X02381Y00354D01*
X02369Y00351*
X02358Y00345*
X02348Y00337*
X0234Y00327*
X02333Y00315*
X0233Y00303*
X02329Y0029*
X0233Y00278*
X02333Y00265*
X0234Y00254*
X02348Y00244*
X02358Y00236*
X02369Y0023*
X02381Y00226*
X02394Y00225*
X02407Y00226*
X02419Y0023*
X0243Y00236*
X0244Y00244*
X02448Y00254*
X02454Y00265*
X02458Y00278*
X02459Y0029*
X02458Y00303*
X02454Y00315*
X02448Y00327*
X0244Y00337*
X0243Y00345*
X02419Y00351*
X02407Y00354*
X02394Y00356*
G37*
G36*
X01876D02*
X01864Y00354D01*
X01851Y00351*
X0184Y00345*
X0183Y00337*
X01822Y00327*
X01816Y00315*
X01812Y00303*
X01811Y0029*
X01812Y00278*
X01816Y00265*
X01822Y00254*
X0183Y00244*
X0184Y00236*
X01851Y0023*
X01864Y00226*
X01876Y00225*
X01889Y00226*
X01901Y0023*
X01913Y00236*
X01923Y00244*
X01931Y00254*
X01937Y00265*
X0194Y00278*
X01942Y0029*
X0194Y00303*
X01937Y00315*
X01931Y00327*
X01923Y00337*
X01913Y00345*
X01901Y00351*
X01889Y00354*
X01876Y00356*
G37*
G36*
X07759Y00376D02*
X07743Y00374D01*
X07727Y00369*
X07713Y00362*
X07701Y00352*
X07691Y0034*
X07684Y00326*
X07679Y0031*
X07677Y00295*
X07679Y00279*
X07684Y00263*
X07691Y00249*
X07701Y00237*
X07713Y00227*
X07727Y0022*
X07743Y00215*
X07759Y00213*
X07774Y00215*
X0779Y0022*
X07804Y00227*
X07816Y00237*
X07826Y00249*
X07833Y00263*
X07838Y00279*
X0784Y00295*
X07838Y0031*
X07833Y00326*
X07826Y0034*
X07816Y00352*
X07804Y00362*
X0779Y00369*
X07774Y00374*
X07759Y00376*
G37*
G36*
X07285D02*
X07269Y00374D01*
X07253Y00369*
X07239Y00362*
X07227Y00352*
X07217Y0034*
X0721Y00326*
X07205Y0031*
X07203Y00295*
X07205Y00279*
X0721Y00263*
X07217Y00249*
X07227Y00237*
X07239Y00227*
X07253Y0022*
X07269Y00215*
X07285Y00213*
X073Y00215*
X07316Y0022*
X0733Y00227*
X07342Y00237*
X07352Y00249*
X07359Y00263*
X07364Y00279*
X07366Y00295*
X07364Y0031*
X07359Y00326*
X07352Y0034*
X07342Y00352*
X0733Y00362*
X07316Y00369*
X073Y00374*
X07285Y00376*
G37*
G36*
X04149Y00289D02*
X04136Y00288D01*
X04124Y00285*
X04113Y00278*
X04103Y0027*
X04095Y0026*
X04089Y00249*
X04085Y00237*
X04084Y00224*
X04085Y00211*
X04089Y00199*
X04095Y00188*
X04103Y00178*
X04113Y0017*
X04124Y00164*
X04136Y0016*
X04149Y00159*
X04162Y0016*
X04174Y00164*
X04185Y0017*
X04195Y00178*
X04203Y00188*
X04209Y00199*
X04213Y00211*
X04214Y00224*
X04213Y00237*
X04209Y00249*
X04203Y0026*
X04195Y0027*
X04185Y00278*
X04174Y00285*
X04162Y00288*
X04149Y00289*
G37*
G36*
X03578D02*
X03565Y00288D01*
X03553Y00285*
X03542Y00278*
X03532Y0027*
X03524Y0026*
X03518Y00249*
X03514Y00237*
X03513Y00224*
X03514Y00211*
X03518Y00199*
X03524Y00188*
X03532Y00178*
X03542Y0017*
X03553Y00164*
X03565Y0016*
X03578Y00159*
X03591Y0016*
X03603Y00164*
X03614Y0017*
X03624Y00178*
X03632Y00188*
X03638Y00199*
X03642Y00211*
X03643Y00224*
X03642Y00237*
X03638Y00249*
X03632Y0026*
X03624Y0027*
X03614Y00278*
X03603Y00285*
X03591Y00288*
X03578Y00289*
G37*
G36*
X04095Y0579D02*
X04089Y05788D01*
X04084Y05785*
X04081Y0578*
X04079Y05775*
X04081Y05769*
X04084Y05764*
X04089Y05761*
X04095Y05759*
X041Y05761*
X04105Y05764*
X04108Y05769*
X0411Y05775*
X04108Y0578*
X04105Y05785*
X041Y05788*
X04095Y0579*
G37*
G36*
X04775Y0575D02*
X04768Y05749D01*
X04762Y05747*
X04756Y05743*
X04752Y05737*
X0475Y05731*
X04749Y05727*
X04749Y05727*
X04744Y05727*
X04742Y05732*
X04738Y05738*
X04732Y05742*
X04726Y05744*
X0472Y05745*
X04713Y05744*
X04707Y05742*
X04701Y05738*
X04697Y05732*
X04695Y05726*
X04694Y0572*
X04695Y05713*
X04697Y05707*
X04701Y05701*
X04707Y05697*
X04713Y05695*
X0472Y05694*
X04726Y05695*
X04732Y05697*
X04738Y05701*
X04742Y05707*
X04744Y05713*
X04745Y05717*
X04745Y05717*
X0475Y05717*
X04752Y05712*
X04756Y05706*
X04762Y05702*
X04768Y057*
X04775Y05699*
X04781Y057*
X04787Y05702*
X04793Y05706*
X04797Y05712*
X04799Y05718*
X048Y05725*
X04799Y05731*
X04797Y05737*
X04793Y05743*
X04787Y05747*
X04781Y05749*
X04775Y0575*
G37*
G36*
X0417Y05761D02*
X04163Y0576D01*
X04157Y05757*
X04152Y05753*
X04148Y05748*
X04145Y05742*
X04144Y05735*
X04145Y05728*
X04148Y05722*
X04152Y05717*
X04157Y05713*
X04163Y0571*
X0417Y05709*
X04177Y0571*
X04183Y05713*
X04188Y05717*
X04192Y05722*
X04195Y05728*
X04196Y05735*
X04195Y05742*
X04192Y05748*
X04188Y05753*
X04183Y05757*
X04177Y0576*
X0417Y05761*
G37*
G36*
X0513Y05735D02*
X05123Y05734D01*
X05117Y05732*
X05111Y05728*
X05107Y05722*
X05105Y05716*
X05104Y0571*
X05105Y05703*
X05107Y05697*
X05111Y05691*
X05117Y05687*
X05123Y05685*
X0513Y05684*
X05136Y05685*
X05142Y05687*
X05148Y05691*
X05152Y05697*
X05154Y05703*
X05155Y0571*
X05154Y05716*
X05152Y05722*
X05148Y05728*
X05142Y05732*
X05136Y05734*
X0513Y05735*
G37*
G36*
X045Y05705D02*
X04494Y05703D01*
X04489Y057*
X04486Y05695*
X04484Y0569*
X04486Y05684*
X04489Y05679*
X04494Y05676*
X045Y05674*
X04505Y05676*
X0451Y05679*
X04513Y05684*
X04515Y0569*
X04513Y05695*
X0451Y057*
X04505Y05703*
X045Y05705*
G37*
G36*
X0399Y057D02*
X03983Y05699D01*
X03977Y05697*
X03971Y05693*
X03967Y05687*
X03965Y05681*
X03964Y05675*
X03965Y05668*
X03967Y05662*
X03971Y05656*
X03977Y05652*
X03983Y0565*
X0399Y05649*
X03996Y0565*
X04002Y05652*
X04008Y05656*
X04012Y05662*
X04014Y05668*
X04015Y05675*
X04014Y05681*
X04012Y05687*
X04008Y05693*
X04002Y05697*
X03996Y05699*
X0399Y057*
G37*
G36*
X04425Y0567D02*
X04418Y05669D01*
X04412Y05667*
X04406Y05663*
X04402Y05657*
X044Y05651*
X04399Y05645*
X044Y05638*
X04402Y05632*
X04406Y05626*
X04412Y05622*
X04418Y0562*
X04425Y05619*
X04431Y0562*
X04437Y05622*
X04443Y05626*
X04447Y05632*
X04449Y05638*
X0445Y05645*
X04449Y05651*
X04447Y05657*
X04443Y05663*
X04437Y05667*
X04431Y05669*
X04425Y0567*
G37*
G36*
X0423Y05665D02*
X04223Y05664D01*
X04217Y05662*
X04211Y05658*
X04207Y05652*
X04205Y05646*
X04204Y0564*
X04205Y05633*
X04207Y05627*
X04211Y05621*
X04217Y05617*
X04223Y05615*
X0423Y05614*
X04236Y05615*
X04242Y05617*
X04248Y05621*
X04252Y05627*
X04254Y05633*
X04255Y0564*
X04254Y05646*
X04252Y05652*
X04248Y05658*
X04242Y05662*
X04236Y05664*
X0423Y05665*
G37*
G36*
X0743Y05655D02*
X07423Y05654D01*
X07417Y05652*
X07411Y05648*
X07407Y05642*
X07405Y05636*
X07404Y0563*
X07405Y05623*
X07407Y05617*
X07411Y05611*
X07417Y05607*
X07423Y05605*
X0743Y05604*
X07436Y05605*
X07442Y05607*
X07448Y05611*
X07452Y05617*
X07454Y05623*
X07455Y0563*
X07454Y05636*
X07452Y05642*
X07448Y05648*
X07442Y05652*
X07436Y05654*
X0743Y05655*
G37*
G36*
X0608Y05661D02*
X0607Y05659D01*
X06061Y05656*
X06054Y0565*
X06048Y05643*
X06045Y05634*
X06043Y05625*
X06045Y05615*
X06048Y05606*
X06054Y05599*
X06061Y05593*
X0607Y0559*
X0608Y05588*
X06089Y0559*
X06098Y05593*
X06105Y05599*
X06111Y05606*
X06114Y05615*
X06116Y05625*
X06114Y05634*
X06111Y05643*
X06105Y0565*
X06098Y05656*
X06089Y05659*
X0608Y05661*
G37*
G36*
X0588D02*
X0587Y05659D01*
X05861Y05656*
X05854Y0565*
X05848Y05643*
X05845Y05634*
X05843Y05625*
X05845Y05615*
X05848Y05606*
X05854Y05599*
X05861Y05593*
X0587Y0559*
X0588Y05588*
X05889Y0559*
X05898Y05593*
X05905Y05599*
X05911Y05606*
X05914Y05615*
X05916Y05625*
X05914Y05634*
X05911Y05643*
X05905Y0565*
X05898Y05656*
X05889Y05659*
X0588Y05661*
G37*
G36*
X0672Y05656D02*
X0671Y05654D01*
X06701Y05651*
X06694Y05645*
X06688Y05638*
X06685Y05629*
X06683Y0562*
X06685Y0561*
X06688Y05601*
X06694Y05594*
X06701Y05588*
X0671Y05585*
X0672Y05583*
X06729Y05585*
X06738Y05588*
X06745Y05594*
X06751Y05601*
X06754Y0561*
X06756Y0562*
X06754Y05629*
X06751Y05638*
X06745Y05645*
X06738Y05651*
X06729Y05654*
X0672Y05656*
G37*
G36*
X0652D02*
X0651Y05654D01*
X06501Y05651*
X06494Y05645*
X06488Y05638*
X06485Y05629*
X06483Y0562*
X06485Y0561*
X06488Y05601*
X06494Y05594*
X06501Y05588*
X0651Y05585*
X0652Y05583*
X06529Y05585*
X06538Y05588*
X06545Y05594*
X06551Y05601*
X06554Y0561*
X06556Y0562*
X06554Y05629*
X06551Y05638*
X06545Y05645*
X06538Y05651*
X06529Y05654*
X0652Y05656*
G37*
G36*
X04333Y05629D02*
X04326Y05628D01*
X0432Y05626*
X04315Y05622*
X04311Y05616*
X04308Y0561*
X04307Y05603*
X04308Y05597*
X04311Y05591*
X04315Y05585*
X0432Y05581*
X04326Y05578*
X04333Y05578*
X0434Y05578*
X04346Y05581*
X04351Y05585*
X04355Y05591*
X04358Y05597*
X04359Y05603*
X04358Y0561*
X04355Y05616*
X04351Y05622*
X04346Y05626*
X0434Y05628*
X04333Y05629*
G37*
G36*
X0414Y05615D02*
X04133Y05614D01*
X04127Y05612*
X04121Y05608*
X04117Y05602*
X04115Y05596*
X04114Y0559*
X04115Y05583*
X04117Y05577*
X04121Y05571*
X04127Y05567*
X04133Y05565*
X0414Y05564*
X04146Y05565*
X04152Y05567*
X04158Y05571*
X04162Y05577*
X04164Y05583*
X04165Y0559*
X04164Y05596*
X04162Y05602*
X04158Y05608*
X04152Y05612*
X04146Y05614*
X0414Y05615*
G37*
G36*
X07755Y0559D02*
X07748Y05589D01*
X07742Y05587*
X07736Y05583*
X07732Y05577*
X0773Y05571*
X07729Y05565*
X0773Y05558*
X07732Y05552*
X07736Y05546*
X07742Y05542*
X07748Y0554*
X07755Y05539*
X07761Y0554*
X07767Y05542*
X07773Y05546*
X07777Y05552*
X07779Y05558*
X0778Y05565*
X07779Y05571*
X07777Y05577*
X07773Y05583*
X07767Y05587*
X07761Y05589*
X07755Y0559*
G37*
G36*
X0608Y05561D02*
X0607Y05559D01*
X06061Y05556*
X06054Y0555*
X06048Y05543*
X06045Y05534*
X06043Y05525*
X06045Y05515*
X06048Y05506*
X06054Y05499*
X06061Y05493*
X0607Y0549*
X0608Y05488*
X06089Y0549*
X06098Y05493*
X06105Y05499*
X06111Y05506*
X06114Y05515*
X06116Y05525*
X06114Y05534*
X06111Y05543*
X06105Y0555*
X06098Y05556*
X06089Y05559*
X0608Y05561*
G37*
G36*
X0588D02*
X0587Y05559D01*
X05861Y05556*
X05854Y0555*
X05848Y05543*
X05845Y05534*
X05843Y05525*
X05845Y05515*
X05848Y05506*
X05854Y05499*
X05861Y05493*
X0587Y0549*
X0588Y05488*
X05889Y0549*
X05898Y05493*
X05905Y05499*
X05911Y05506*
X05914Y05515*
X05916Y05525*
X05914Y05534*
X05911Y05543*
X05905Y0555*
X05898Y05556*
X05889Y05559*
X0588Y05561*
G37*
G36*
X0672Y05556D02*
X0671Y05554D01*
X06701Y05551*
X06694Y05545*
X06688Y05538*
X06685Y05529*
X06683Y0552*
X06685Y0551*
X06688Y05501*
X06694Y05494*
X06701Y05488*
X0671Y05485*
X0672Y05483*
X06729Y05485*
X06738Y05488*
X06745Y05494*
X06751Y05501*
X06754Y0551*
X06756Y0552*
X06754Y05529*
X06751Y05538*
X06745Y05545*
X06738Y05551*
X06729Y05554*
X0672Y05556*
G37*
G36*
X0652D02*
X0651Y05554D01*
X06501Y05551*
X06494Y05545*
X06488Y05538*
X06485Y05529*
X06483Y0552*
X06485Y0551*
X06488Y05501*
X06494Y05494*
X06501Y05488*
X0651Y05485*
X0652Y05483*
X06529Y05485*
X06538Y05488*
X06545Y05494*
X06551Y05501*
X06554Y0551*
X06556Y0552*
X06554Y05529*
X06551Y05538*
X06545Y05545*
X06538Y05551*
X06529Y05554*
X0652Y05556*
G37*
G36*
X07935Y05525D02*
X07928Y05524D01*
X07922Y05522*
X07916Y05518*
X07912Y05512*
X0791Y05506*
X07909Y055*
X0791Y05493*
X07912Y05487*
X07916Y05481*
X07922Y05477*
X07928Y05475*
X07935Y05474*
X07941Y05475*
X07947Y05477*
X07953Y05481*
X07957Y05487*
X07959Y05493*
X0796Y055*
X07959Y05506*
X07957Y05512*
X07953Y05518*
X07947Y05522*
X07941Y05524*
X07935Y05525*
G37*
G36*
X0758Y0552D02*
X07573Y05519D01*
X07567Y05517*
X07561Y05513*
X07557Y05507*
X07555Y05501*
X07554Y05495*
X07555Y05488*
X07557Y05482*
X07561Y05476*
X07567Y05472*
X07573Y0547*
X0758Y05469*
X07586Y0547*
X07592Y05472*
X07598Y05476*
X07602Y05482*
X07604Y05488*
X07605Y05495*
X07604Y05501*
X07602Y05507*
X07598Y05513*
X07592Y05517*
X07586Y05519*
X0758Y0552*
G37*
G36*
X04077Y05465D02*
X04071Y05463D01*
X04066Y0546*
X04063Y05455*
X04062Y0545*
X04063Y05444*
X04066Y05439*
X04071Y05436*
X04077Y05434*
X04083Y05436*
X04088Y05439*
X04091Y05444*
X04092Y0545*
X04091Y05455*
X04088Y0546*
X04083Y05463*
X04077Y05465*
G37*
G36*
X05265Y05485D02*
X05258Y05484D01*
X05252Y05482*
X05246Y05478*
X05242Y05472*
X0524Y05466*
X05239Y0546*
X0524Y05453*
X05242Y05447*
X05246Y05441*
X05252Y05437*
X05258Y05435*
X05265Y05434*
X05271Y05435*
X05277Y05437*
X05283Y05441*
X05287Y05447*
X05289Y05453*
X0529Y0546*
X05289Y05466*
X05287Y05472*
X05283Y05478*
X05277Y05482*
X05271Y05484*
X05265Y05485*
G37*
G36*
X05015Y0548D02*
X05008Y05479D01*
X05002Y05477*
X04996Y05473*
X04992Y05467*
X0499Y05461*
X04989Y05455*
X0499Y05448*
X04992Y05442*
X04996Y05436*
X05002Y05432*
X05008Y0543*
X05015Y05429*
X05021Y0543*
X05027Y05432*
X05033Y05436*
X05037Y05442*
X05039Y05448*
X0504Y05455*
X05039Y05461*
X05037Y05467*
X05033Y05473*
X05027Y05477*
X05021Y05479*
X05015Y0548*
G37*
G36*
X04474Y0535D02*
X04468Y05348D01*
X04463Y05345*
X0446Y0534*
X04458Y05335*
X0446Y05329*
X04463Y05324*
X04468Y05321*
X04474Y05319*
X04479Y05321*
X04484Y05324*
X04487Y05329*
X04489Y05335*
X04487Y0534*
X04484Y05345*
X04479Y05348*
X04474Y0535*
G37*
G36*
X0588Y05361D02*
X0587Y05359D01*
X05861Y05356*
X05854Y0535*
X05848Y05343*
X05845Y05334*
X05843Y05325*
X05845Y05315*
X05848Y05306*
X05854Y05299*
X05861Y05293*
X0587Y0529*
X0588Y05288*
X05889Y0529*
X05898Y05293*
X05905Y05299*
X05911Y05306*
X05914Y05315*
X05916Y05325*
X05914Y05334*
X05911Y05343*
X05905Y0535*
X05898Y05356*
X05889Y05359*
X0588Y05361*
G37*
G36*
X0652Y05356D02*
X0651Y05354D01*
X06501Y05351*
X06494Y05345*
X06488Y05338*
X06485Y05329*
X06483Y0532*
X06485Y0531*
X06488Y05301*
X06494Y05294*
X06501Y05288*
X0651Y05285*
X0652Y05283*
X06529Y05285*
X06538Y05288*
X06545Y05294*
X06551Y05301*
X06554Y0531*
X06556Y0532*
X06554Y05329*
X06551Y05338*
X06545Y05345*
X06538Y05351*
X06529Y05354*
X0652Y05356*
G37*
G36*
X0566Y0532D02*
X05653Y05319D01*
X05647Y05317*
X05641Y05313*
X05637Y05307*
X05635Y05301*
X05634Y05295*
X05635Y05288*
X05637Y05282*
X05641Y05276*
X05647Y05272*
X05653Y0527*
X0566Y05269*
X05666Y0527*
X05672Y05272*
X05678Y05276*
X05682Y05282*
X05684Y05288*
X05685Y05295*
X05684Y05301*
X05682Y05307*
X05678Y05313*
X05672Y05317*
X05666Y05319*
X0566Y0532*
G37*
G36*
X05135D02*
X05128Y05319D01*
X05122Y05317*
X05116Y05313*
X05112Y05307*
X0511Y05301*
X05109Y05295*
X0511Y05288*
X05112Y05282*
X05116Y05276*
X05122Y05272*
X05128Y0527*
X05135Y05269*
X05141Y0527*
X05147Y05272*
X05153Y05276*
X05157Y05282*
X05159Y05288*
X0516Y05295*
X05159Y05301*
X05157Y05307*
X05153Y05313*
X05147Y05317*
X05141Y05319*
X05135Y0532*
G37*
G36*
X06355Y05275D02*
X06349Y05273D01*
X06344Y0527*
X06341Y05265*
X06339Y0526*
X06341Y05254*
X06344Y05249*
X06349Y05246*
X06355Y05244*
X0636Y05246*
X06365Y05249*
X06368Y05254*
X0637Y0526*
X06368Y05265*
X06365Y0527*
X0636Y05273*
X06355Y05275*
G37*
G36*
X07435Y0528D02*
X07428Y05279D01*
X07422Y05277*
X07416Y05273*
X07412Y05267*
X0741Y05261*
X07409Y05255*
X0741Y05248*
X07412Y05242*
X07416Y05236*
X07422Y05232*
X07428Y0523*
X07435Y05229*
X07441Y0523*
X07447Y05232*
X07453Y05236*
X07457Y05242*
X07459Y05248*
X0746Y05255*
X07459Y05261*
X07457Y05267*
X07453Y05273*
X07447Y05277*
X07441Y05279*
X07435Y0528*
G37*
G36*
X0703Y05275D02*
X07023Y05274D01*
X07017Y05272*
X07011Y05268*
X07007Y05262*
X07005Y05256*
X07004Y0525*
X07005Y05243*
X07007Y05237*
X07011Y05231*
X07017Y05227*
X07023Y05225*
X0703Y05224*
X07036Y05225*
X07042Y05227*
X07048Y05231*
X07052Y05237*
X07054Y05243*
X07055Y0525*
X07054Y05256*
X07052Y05262*
X07048Y05268*
X07042Y05272*
X07036Y05274*
X0703Y05275*
G37*
G36*
X06275D02*
X06268Y05274D01*
X06262Y05272*
X06256Y05268*
X06252Y05262*
X0625Y05256*
X06249Y0525*
X0625Y05243*
X06252Y05237*
X06256Y05231*
X06262Y05227*
X06268Y05225*
X06275Y05224*
X06281Y05225*
X06287Y05227*
X06293Y05231*
X06297Y05237*
X06299Y05243*
X063Y0525*
X06299Y05256*
X06297Y05262*
X06293Y05268*
X06287Y05272*
X06281Y05274*
X06275Y05275*
G37*
G36*
X04205Y05153D02*
X04196Y05152D01*
X04188Y05149*
X04181Y05143*
X04175Y05136*
X04172Y05128*
X04171Y0512*
X04172Y05111*
X04175Y05103*
X04181Y05096*
X04188Y0509*
X04196Y05087*
X04205Y05086*
X04213Y05087*
X04221Y0509*
X04228Y05096*
X04234Y05103*
X04237Y05111*
X04238Y0512*
X04237Y05128*
X04234Y05136*
X04228Y05143*
X04221Y05149*
X04213Y05152*
X04205Y05153*
G37*
G36*
X04126D02*
X04117Y05152D01*
X04109Y05149*
X04102Y05143*
X04097Y05136*
X04093Y05128*
X04092Y0512*
X04093Y05111*
X04097Y05103*
X04102Y05096*
X04109Y0509*
X04117Y05087*
X04126Y05086*
X04134Y05087*
X04143Y0509*
X0415Y05096*
X04155Y05103*
X04158Y05111*
X0416Y0512*
X04158Y05128*
X04155Y05136*
X0415Y05143*
X04143Y05149*
X04134Y05152*
X04126Y05153*
G37*
G36*
X04047D02*
X04038Y05152D01*
X0403Y05149*
X04023Y05143*
X04018Y05136*
X04014Y05128*
X04013Y0512*
X04014Y05111*
X04018Y05103*
X04023Y05096*
X0403Y0509*
X04038Y05087*
X04047Y05086*
X04056Y05087*
X04064Y0509*
X04071Y05096*
X04076Y05103*
X0408Y05111*
X04081Y0512*
X0408Y05128*
X04076Y05136*
X04071Y05143*
X04064Y05149*
X04056Y05152*
X04047Y05153*
G37*
G36*
X03996Y05153D02*
X03941D01*
X03936Y05152*
X03934Y05147*
Y05092*
X03936Y05087*
X03941Y05086*
X03996*
X04Y05087*
X04002Y05092*
Y05147*
X04Y05152*
X03996Y05153*
G37*
G36*
X05179Y05055D02*
X05173Y05053D01*
X05168Y0505*
X05165Y05045*
X05163Y0504*
X05165Y05034*
X05168Y05029*
X05173Y05026*
X05179Y05024*
X05184Y05026*
X05189Y05029*
X05192Y05034*
X05194Y0504*
X05192Y05045*
X05189Y0505*
X05184Y05053*
X05179Y05055*
G37*
G36*
X05126Y05053D02*
X0512Y05051D01*
X05115Y05048*
X05112Y05043*
X05111Y05038*
X05112Y05032*
X05115Y05027*
X0512Y05024*
X05126Y05022*
X05132Y05024*
X05137Y05027*
X0514Y05032*
X05141Y05038*
X0514Y05043*
X05137Y05048*
X05132Y05051*
X05126Y05053*
G37*
G36*
X07195Y05045D02*
X07188Y05044D01*
X07182Y05042*
X07176Y05038*
X07172Y05032*
X0717Y05026*
X07169Y0502*
X0717Y05013*
X07172Y05007*
X07176Y05001*
X07182Y04997*
X07188Y04995*
X07195Y04994*
X07201Y04995*
X07207Y04997*
X07213Y05001*
X07217Y05007*
X07219Y05013*
X0722Y0502*
X07219Y05026*
X07217Y05032*
X07213Y05038*
X07207Y05042*
X07201Y05044*
X07195Y05045*
G37*
G36*
X07039Y05057D02*
X0696D01*
X06956Y05056*
X06954Y05051*
Y04988*
X06956Y04983*
X0696Y04982*
X07039*
X07043Y04983*
X07045Y04988*
Y05051*
X07043Y05056*
X07039Y05057*
G37*
G36*
X07727Y05458D02*
X077Y05456D01*
X07673Y05451*
X07647Y05444*
X07622Y05434*
X07598Y0542*
X07576Y05405*
X07555Y05387*
X07537Y05366*
X07522Y05344*
X07508Y0532*
X07498Y05295*
X0749Y05269*
X07486Y05242*
X07484Y05215*
X07486Y05188*
X0749Y05161*
X07498Y05135*
X07508Y0511*
X07522Y05086*
X07537Y05064*
X07555Y05044*
X07576Y05025*
X07598Y0501*
X07622Y04997*
X07647Y04986*
X07673Y04979*
X077Y04974*
X07727Y04973*
X07754Y04974*
X07781Y04979*
X07807Y04986*
X07832Y04997*
X07856Y0501*
X07878Y05025*
X07898Y05044*
X07916Y05064*
X07932Y05086*
X07945Y0511*
X07956Y05135*
X07963Y05161*
X07968Y05188*
X07969Y05215*
X07968Y05242*
X07963Y05269*
X07956Y05295*
X07945Y0532*
X07932Y05344*
X07916Y05366*
X07898Y05387*
X07878Y05405*
X07856Y0542*
X07832Y05434*
X07807Y05444*
X07781Y05451*
X07754Y05456*
X07727Y05458*
G37*
G36*
X06585Y05019D02*
X06534D01*
X06526Y05018*
X06519Y05015*
X06513Y05011*
X06508Y05004*
X06505Y04997*
X06504Y0499*
X06505Y04982*
X06508Y04975*
X06513Y04968*
X06519Y04964*
X06526Y04961*
X06534Y0496*
X06585*
X06593Y04961*
X066Y04964*
X06606Y04968*
X06611Y04975*
X06614Y04982*
X06615Y0499*
X06614Y04997*
X06611Y05004*
X06606Y05011*
X066Y05015*
X06593Y05018*
X06585Y05019*
G37*
G36*
X0411Y0498D02*
X04104Y04978D01*
X04099Y04975*
X04096Y0497*
X04094Y04965*
X04096Y04959*
X04099Y04954*
X04104Y04951*
X0411Y04949*
X04115Y04951*
X0412Y04954*
X04123Y04959*
X04125Y04965*
X04123Y0497*
X0412Y04975*
X04115Y04978*
X0411Y0498*
G37*
G36*
X06839Y05022D02*
X0676D01*
X06756Y05021*
X06754Y05016*
Y04953*
X06756Y04948*
X0676Y04947*
X06839*
X06843Y04948*
X06845Y04953*
Y05016*
X06843Y05021*
X06839Y05022*
G37*
G36*
X07855Y0494D02*
X07848Y04939D01*
X07842Y04937*
X07836Y04933*
X07832Y04927*
X0783Y04921*
X07829Y04915*
X0783Y04908*
X07832Y04902*
X07836Y04896*
X07842Y04892*
X07848Y0489*
X07855Y04889*
X07861Y0489*
X07867Y04892*
X07873Y04896*
X07877Y04902*
X07879Y04908*
X0788Y04915*
X07879Y04921*
X07877Y04927*
X07873Y04933*
X07867Y04937*
X07861Y04939*
X07855Y0494*
G37*
G36*
X0738Y04935D02*
X07373Y04934D01*
X07367Y04932*
X07361Y04928*
X07357Y04922*
X07355Y04916*
X07354Y0491*
X07355Y04903*
X07357Y04897*
X07361Y04891*
X07367Y04887*
X07373Y04885*
X0738Y04884*
X07386Y04885*
X07392Y04887*
X07398Y04891*
X07402Y04897*
X07404Y04903*
X07405Y0491*
X07404Y04916*
X07402Y04922*
X07398Y04928*
X07392Y04932*
X07386Y04934*
X0738Y04935*
G37*
G36*
X07007Y04957D02*
X06992D01*
X06982Y04956*
X06973Y04952*
X06965Y04946*
X06959Y04938*
X06955Y04929*
X06954Y0492*
X06955Y0491*
X06959Y04901*
X06965Y04893*
X06973Y04887*
X06982Y04883*
X06992Y04882*
X07007*
X07017Y04883*
X07026Y04887*
X07034Y04893*
X0704Y04901*
X07044Y0491*
X07045Y0492*
X07044Y04929*
X0704Y04938*
X07034Y04946*
X07026Y04952*
X07017Y04956*
X07007Y04957*
G37*
G36*
X06585Y04919D02*
X06534D01*
X06526Y04918*
X06519Y04915*
X06513Y04911*
X06508Y04904*
X06505Y04897*
X06504Y0489*
X06505Y04882*
X06508Y04875*
X06513Y04868*
X06519Y04864*
X06526Y04861*
X06534Y0486*
X06585*
X06593Y04861*
X066Y04864*
X06606Y04868*
X06611Y04875*
X06614Y04882*
X06615Y0489*
X06614Y04897*
X06611Y04904*
X06606Y04911*
X066Y04915*
X06593Y04918*
X06585Y04919*
G37*
G36*
X06807Y04922D02*
X06792D01*
X06782Y04921*
X06773Y04917*
X06765Y04911*
X06759Y04903*
X06755Y04894*
X06754Y04885*
X06755Y04875*
X06759Y04866*
X06765Y04858*
X06773Y04852*
X06782Y04848*
X06792Y04847*
X06807*
X06817Y04848*
X06826Y04852*
X06834Y04858*
X0684Y04866*
X06844Y04875*
X06845Y04885*
X06844Y04894*
X0684Y04903*
X06834Y04911*
X06826Y04917*
X06817Y04921*
X06807Y04922*
G37*
G36*
X04771Y04871D02*
X04765Y0487D01*
X0476Y04866*
X04757Y04862*
X04756Y04856*
X04757Y0485*
X0476Y04845*
X04757Y0484*
X04756Y04835*
X04757Y04829*
X0476Y04824*
X04765Y04821*
X04771Y04819*
X04777Y04821*
X04781Y04824*
X04785Y04829*
X04786Y04835*
X04785Y0484*
X04781Y04845*
X04785Y0485*
X04786Y04856*
X04785Y04862*
X04781Y04866*
X04777Y0487*
X04771Y04871*
G37*
G36*
X04692Y04882D02*
X04686Y04881D01*
X04681Y04878*
X04678Y04873*
X04677Y04867*
X04678Y04861*
X04681Y04856*
X04685Y04854*
X04685Y0485*
X04685Y04849*
X04684Y04848*
X04679Y04845*
X04676Y0484*
X04674Y04835*
X04676Y04829*
X04679Y04824*
X04684Y04821*
X0469Y04819*
X04695Y04821*
X047Y04824*
X04703Y04829*
X04705Y04835*
X04703Y0484*
X047Y04845*
X04696Y04848*
X04696Y04852*
X04697Y04853*
X04698Y04853*
X04703Y04856*
X04706Y04861*
X04707Y04867*
X04706Y04873*
X04703Y04878*
X04698Y04881*
X04692Y04882*
G37*
G36*
X0097Y0487D02*
X00963Y04869D01*
X00957Y04867*
X00951Y04863*
X00947Y04857*
X00945Y04851*
X00944Y04845*
X00945Y04838*
X00947Y04832*
X00951Y04826*
X00957Y04822*
X00963Y0482*
X0097Y04819*
X00976Y0482*
X00982Y04822*
X00988Y04826*
X00992Y04832*
X00994Y04838*
X00995Y04845*
X00994Y04851*
X00992Y04857*
X00988Y04863*
X00982Y04867*
X00976Y04869*
X0097Y0487*
G37*
G36*
X07007Y04857D02*
X06992D01*
X06982Y04856*
X06973Y04852*
X06965Y04846*
X06959Y04838*
X06955Y04829*
X06954Y0482*
X06955Y0481*
X06959Y04801*
X06965Y04793*
X06973Y04787*
X06982Y04783*
X06992Y04782*
X07007*
X07017Y04783*
X07026Y04787*
X07034Y04793*
X0704Y04801*
X07044Y0481*
X07045Y0482*
X07044Y04829*
X0704Y04838*
X07034Y04846*
X07026Y04852*
X07017Y04856*
X07007Y04857*
G37*
G36*
X0771Y048D02*
X07704Y04798D01*
X07699Y04795*
X07696Y0479*
X07694Y04785*
X07696Y04779*
X07699Y04774*
X07704Y04771*
X0771Y04769*
X07715Y04771*
X0772Y04774*
X07723Y04779*
X07725Y04785*
X07723Y0479*
X0772Y04795*
X07715Y04798*
X0771Y048*
G37*
G36*
X00975Y0474D02*
X00968Y04739D01*
X00962Y04737*
X00956Y04733*
X00952Y04727*
X0095Y04721*
X00949Y04715*
X0095Y04708*
X00952Y04702*
X00956Y04696*
X00962Y04692*
X00968Y0469*
X00975Y04689*
X00981Y0469*
X00987Y04692*
X00993Y04696*
X00997Y04702*
X00999Y04708*
X01Y04715*
X00999Y04721*
X00997Y04727*
X00993Y04733*
X00987Y04737*
X00981Y04739*
X00975Y0474*
G37*
G36*
X06609Y0472D02*
X0651D01*
X06506Y04718*
X06504Y04713*
Y04666*
X06506Y04661*
X0651Y04659*
X06609*
X06613Y04661*
X06615Y04666*
Y04713*
X06613Y04718*
X06609Y0472*
G37*
G36*
X0738Y04595D02*
X0737Y04594D01*
X07361Y0459*
X07353Y04584*
X07347Y04576*
X07343Y04567*
X07342Y04557*
Y04542*
X07343Y04532*
X07347Y04523*
X07353Y04515*
X07361Y04509*
X0737Y04505*
X0738Y04504*
X07389Y04505*
X07398Y04509*
X07406Y04515*
X07412Y04523*
X07416Y04532*
X07417Y04542*
Y04557*
X07416Y04567*
X07412Y04576*
X07406Y04584*
X07398Y0459*
X07389Y04594*
X0738Y04595*
G37*
G36*
X0728D02*
X0727Y04594D01*
X07261Y0459*
X07253Y04584*
X07247Y04576*
X07243Y04567*
X07242Y04557*
Y04542*
X07243Y04532*
X07247Y04523*
X07253Y04515*
X07261Y04509*
X0727Y04505*
X0728Y04504*
X07289Y04505*
X07298Y04509*
X07306Y04515*
X07312Y04523*
X07316Y04532*
X07317Y04542*
Y04557*
X07316Y04567*
X07312Y04576*
X07306Y04584*
X07298Y0459*
X07289Y04594*
X0728Y04595*
G37*
G36*
X07211Y04595D02*
X07148D01*
X07143Y04593*
X07142Y04589*
Y0451*
X07143Y04506*
X07148Y04504*
X07211*
X07216Y04506*
X07217Y0451*
Y04589*
X07216Y04593*
X07211Y04595*
G37*
G36*
X0485Y04416D02*
X04844Y04414D01*
X04839Y04411*
X04836Y04406*
X04834Y04401*
X04836Y04395*
X04839Y0439*
X04844Y04387*
X0485Y04385*
X04855Y04387*
X0486Y0439*
X04863Y04395*
X04865Y04401*
X04863Y04406*
X0486Y04411*
X04855Y04414*
X0485Y04416*
G37*
G36*
X04928Y04415D02*
X04922Y04413D01*
X04917Y0441*
X04914Y04405*
X04912Y044*
X04914Y04394*
X04917Y04389*
X04922Y04386*
X04928Y04384*
X04933Y04386*
X04938Y04389*
X04941Y04394*
X04943Y044*
X04941Y04405*
X04938Y0441*
X04933Y04413*
X04928Y04415*
G37*
G36*
X01492Y04254D02*
X01472Y04253D01*
X01453Y04248*
X01435Y04241*
X01419Y0423*
X01404Y04218*
X01391Y04203*
X01381Y04186*
X01373Y04168*
X01369Y04149*
X01367Y0413*
X01369Y0411*
X01373Y04091*
X01381Y04073*
X01391Y04057*
X01404Y04042*
X01419Y04029*
X01435Y04019*
X01453Y04011*
X01472Y04007*
X01492Y04005*
X01511Y04007*
X0153Y04011*
X01548Y04019*
X01565Y04029*
X0158Y04042*
X01592Y04057*
X01603Y04073*
X0161Y04091*
X01615Y0411*
X01616Y0413*
X01615Y04149*
X0161Y04168*
X01603Y04186*
X01592Y04203*
X0158Y04218*
X01565Y0423*
X01548Y04241*
X0153Y04248*
X01511Y04253*
X01492Y04254*
G37*
G36*
X04483Y04249D02*
X04463Y04247D01*
X04444Y04243*
X04426Y04235*
X04409Y04225*
X04395Y04212*
X04382Y04198*
X04372Y04181*
X04364Y04163*
X0436Y04144*
X04358Y04125*
X0436Y04105*
X04364Y04086*
X04372Y04068*
X04382Y04051*
X04395Y04037*
X04409Y04024*
X04426Y04014*
X04444Y04006*
X04463Y04002*
X04483Y04*
X04502Y04002*
X04521Y04006*
X04539Y04014*
X04556Y04024*
X0457Y04037*
X04583Y04051*
X04593Y04068*
X04601Y04086*
X04605Y04105*
X04607Y04125*
X04605Y04144*
X04601Y04163*
X04593Y04181*
X04583Y04198*
X0457Y04212*
X04556Y04225*
X04539Y04235*
X04521Y04243*
X04502Y04247*
X04483Y04249*
G37*
G36*
X01095Y03904D02*
X01089Y03903D01*
X01084Y039*
X01081Y03895*
X01079Y03889*
X01081Y03884*
X01084Y03879*
X01089Y03875*
X01095Y03874*
X011Y03875*
X01105Y03879*
X01108Y03884*
X0111Y03889*
X01108Y03895*
X01105Y039*
X011Y03903*
X01095Y03904*
G37*
G36*
X011Y03754D02*
X01094Y03753D01*
X01089Y0375*
X01086Y03745*
X01084Y03739*
X01086Y03734*
X01089Y03729*
X01094Y03725*
X011Y03724*
X01105Y03725*
X0111Y03729*
X01113Y03734*
X01115Y03739*
X01113Y03745*
X0111Y0375*
X01105Y03753*
X011Y03754*
G37*
G36*
X01105Y03604D02*
X01099Y03603D01*
X01094Y036*
X01091Y03595*
X01089Y03589*
X01091Y03584*
X01094Y03579*
X01099Y03575*
X01105Y03574*
X0111Y03575*
X01115Y03579*
X01118Y03584*
X0112Y03589*
X01118Y03595*
X01115Y036*
X0111Y03603*
X01105Y03604*
G37*
G36*
X0112Y02905D02*
X01114Y02903D01*
X01109Y029*
X01106Y02895*
X01104Y0289*
X01106Y02884*
X01109Y02879*
X01114Y02876*
X0112Y02874*
X01125Y02876*
X0113Y02879*
X01133Y02884*
X01135Y0289*
X01133Y02895*
X0113Y029*
X01125Y02903*
X0112Y02905*
G37*
G36*
Y02855D02*
X01114Y02853D01*
X01109Y0285*
X01106Y02845*
X01104Y0284*
X01106Y02834*
X01109Y02829*
X01114Y02826*
X0112Y02824*
X01125Y02826*
X0113Y02829*
X01133Y02834*
X01135Y0284*
X01133Y02845*
X0113Y0285*
X01125Y02853*
X0112Y02855*
G37*
G36*
X04692Y02854D02*
X04686Y02852D01*
X04681Y02849*
X04678Y02844*
X04676Y02839*
X04678Y02833*
X04681Y02828*
X04686Y02825*
X04692Y02823*
X04697Y02825*
X04702Y02828*
X04705Y02833*
X04707Y02839*
X04705Y02844*
X04702Y02849*
X04697Y02852*
X04692Y02854*
G37*
G36*
X04325Y0256D02*
X04319Y02558D01*
X04314Y02555*
X04311Y0255*
X04309Y02545*
X04311Y02539*
X04314Y02534*
X04319Y02531*
X04325Y02529*
X0433Y02531*
X04335Y02534*
X04338Y02539*
X0434Y02545*
X04338Y0255*
X04335Y02555*
X0433Y02558*
X04325Y0256*
G37*
G36*
X04796Y02605D02*
X04784Y02604D01*
X04773Y02599*
X04764Y02592*
X04757Y02582*
X04752Y02571*
X0475Y0256*
X04752Y02548*
X04757Y02537*
X04764Y02527*
X04773Y0252*
X04784Y02515*
X04796Y02514*
X04808Y02515*
X04819Y0252*
X04828Y02527*
X04836Y02537*
X0484Y02548*
X04842Y0256*
X0484Y02571*
X04836Y02582*
X04828Y02592*
X04819Y02599*
X04808Y02604*
X04796Y02605*
G37*
G36*
X0103Y0233D02*
X01024Y02328D01*
X01019Y02325*
X01016Y0232*
X01014Y02315*
X01016Y02309*
X01019Y02304*
X01024Y02301*
X0103Y02299*
X01035Y02301*
X0104Y02304*
X01043Y02309*
X01045Y02315*
X01043Y0232*
X0104Y02325*
X01035Y02328*
X0103Y0233*
G37*
G36*
X01065Y0226D02*
X01059Y02258D01*
X01054Y02255*
X01051Y0225*
X01049Y02245*
X01051Y02239*
X01054Y02234*
X01059Y02231*
X01065Y02229*
X0107Y02231*
X01075Y02234*
X01078Y02239*
X0108Y02245*
X01078Y0225*
X01075Y02255*
X0107Y02258*
X01065Y0226*
G37*
G36*
X0473Y02227D02*
X04724Y02225D01*
X04719Y02222*
X04716Y02217*
X04714Y02212*
X04716Y02206*
X04719Y02201*
X04724Y02198*
X0473Y02196*
X04735Y02198*
X0474Y02201*
X04743Y02206*
X04745Y02212*
X04743Y02217*
X0474Y02222*
X04735Y02225*
X0473Y02227*
G37*
G36*
X01493Y02401D02*
X01473Y02399D01*
X01454Y02395*
X01436Y02387*
X01419Y02377*
X01405Y02364*
X01392Y0235*
X01382Y02333*
X01374Y02315*
X0137Y02296*
X01368Y02277*
X0137Y02257*
X01374Y02238*
X01382Y0222*
X01392Y02203*
X01405Y02189*
X01419Y02176*
X01436Y02166*
X01454Y02158*
X01473Y02154*
X01493Y02152*
X01512Y02154*
X01531Y02158*
X01549Y02166*
X01566Y02176*
X0158Y02189*
X01593Y02203*
X01603Y0222*
X01611Y02238*
X01615Y02257*
X01617Y02277*
X01615Y02296*
X01611Y02315*
X01603Y02333*
X01593Y0235*
X0158Y02364*
X01566Y02377*
X01549Y02387*
X01531Y02395*
X01512Y02399*
X01493Y02401*
G37*
G36*
X04481Y02401D02*
X04461Y02399D01*
X04442Y02395*
X04424Y02387*
X04407Y02377*
X04393Y02364*
X0438Y0235*
X0437Y02333*
X04362Y02315*
X04358Y02296*
X04356Y02276*
X04358Y02257*
X04362Y02238*
X0437Y0222*
X0438Y02203*
X04393Y02189*
X04407Y02176*
X04424Y02166*
X04442Y02158*
X04461Y02154*
X04481Y02152*
X045Y02154*
X04519Y02158*
X04537Y02166*
X04554Y02176*
X04569Y02189*
X04581Y02203*
X04591Y0222*
X04599Y02238*
X04603Y02257*
X04605Y02276*
X04603Y02296*
X04599Y02315*
X04591Y02333*
X04581Y0235*
X04569Y02364*
X04554Y02377*
X04537Y02387*
X04519Y02395*
X045Y02399*
X04481Y02401*
G37*
G36*
X04856Y0218D02*
X0485Y02178D01*
X04845Y02175*
X04842Y0217*
X0484Y02165*
X04842Y02159*
X04845Y02154*
X0485Y02151*
X04856Y02149*
X04861Y02151*
X04866Y02154*
X04869Y02159*
X04871Y02165*
X04869Y0217*
X04866Y02175*
X04861Y02178*
X04856Y0218*
G37*
G36*
X04325Y0217D02*
X04319Y02168D01*
X04314Y02165*
X04311Y0216*
X04309Y02155*
X04311Y02149*
X04314Y02144*
X04319Y02141*
X04325Y02139*
X0433Y02141*
X04335Y02144*
X04338Y02149*
X0434Y02155*
X04338Y0216*
X04335Y02165*
X0433Y02168*
X04325Y0217*
G37*
G36*
X0483Y02108D02*
X04824Y02106D01*
X04819Y02103*
X04816Y02098*
X04814Y02093*
X04816Y02087*
X04819Y02082*
X04824Y02079*
X0483Y02077*
X04835Y02079*
X0484Y02082*
X04843Y02087*
X04845Y02093*
X04843Y02098*
X0484Y02103*
X04835Y02106*
X0483Y02108*
G37*
G36*
X02447Y02095D02*
X02441Y02094D01*
X02436Y02091*
X02433Y02086*
X02431Y0208*
X02433Y02074*
X02436Y02069*
X02441Y02066*
X02447Y02065*
X02452Y02066*
X02454Y02068*
X02457Y02069*
X02461Y02066*
X02462Y02065*
X02467Y02062*
X02473Y0206*
X02478Y02062*
X02483Y02065*
X02486Y0207*
X02488Y02076*
X02486Y02081*
X02483Y02086*
X02478Y02089*
X02473Y02091*
X02467Y02089*
X02465Y02088*
X02462Y02086*
X02458Y02089*
X02457Y02091*
X02452Y02094*
X02447Y02095*
G37*
G36*
X03577Y0211D02*
X03571Y02108D01*
X03566Y02105*
X03563Y021*
X03561Y02095*
X03563Y02089*
X03565Y02085*
X03566Y02082*
X03565Y02078*
X03563Y02075*
X03561Y02069*
X03563Y02063*
X03566Y02058*
X03571Y02055*
X03577Y02054*
X03582Y02055*
X03587Y02058*
X0359Y02063*
X03592Y02069*
X0359Y02075*
X03588Y02078*
X03587Y02082*
X03588Y02085*
X0359Y02089*
X03592Y02095*
X0359Y021*
X03587Y02105*
X03582Y02108*
X03577Y0211*
G37*
G36*
X0208Y0207D02*
X02074Y02068D01*
X02069Y02065*
X02066Y0206*
X02064Y02055*
X02066Y02049*
X02069Y02044*
X02074Y02041*
X0208Y02039*
X02085Y02041*
X0209Y02044*
X02093Y02049*
X02095Y02055*
X02093Y0206*
X0209Y02065*
X02085Y02068*
X0208Y0207*
G37*
G36*
X03541Y02083D02*
X03535Y02082D01*
X0353Y02078*
X03527Y02073*
X03526Y02068*
X03523Y02065*
X03517Y02063*
X03512Y0206*
X03509Y02055*
X03507Y0205*
X03509Y02044*
X03512Y02039*
X03517Y02036*
X03523Y02034*
X03528Y02036*
X03533Y02039*
X03536Y02044*
X03538Y0205*
X03541Y02053*
X03546Y02054*
X03551Y02057*
X03555Y02062*
X03556Y02068*
X03555Y02073*
X03551Y02078*
X03546Y02082*
X03541Y02083*
G37*
G36*
X02215Y02048D02*
X02209Y02047D01*
X02204Y02044*
X02201Y02039*
X02199Y02033*
X02201Y02028*
X02204Y02023*
X02209Y02019*
X02215Y02018*
X0222Y02019*
X02225Y02023*
X02228Y02028*
X0223Y02033*
X02228Y02039*
X02225Y02044*
X0222Y02047*
X02215Y02048*
G37*
G36*
X02149Y0194D02*
X02143Y01938D01*
X02138Y01935*
X02135Y0193*
X02134Y01925*
X02135Y01919*
X02138Y01914*
X02143Y01911*
X02149Y01909*
X02155Y01911*
X0216Y01914*
X02163Y01919*
X02164Y01925*
X02163Y0193*
X0216Y01935*
X02155Y01938*
X02149Y0194*
G37*
G36*
X03462Y01924D02*
X03456Y01922D01*
X03451Y01919*
X03448Y01914*
X03447Y01909*
X03448Y01903*
X03451Y01898*
X03456Y01895*
X03462Y01893*
X03467Y01895*
X03472Y01898*
X03476Y01903*
X03477Y01909*
X03476Y01914*
X03472Y01919*
X03467Y01922*
X03462Y01924*
G37*
G36*
X02174Y0191D02*
X02169Y01908D01*
X02164Y01905*
X0216Y019*
X02159Y01895*
X0216Y01889*
X02164Y01884*
X02169Y01881*
X02174Y01879*
X0218Y01881*
X02185Y01884*
X02188Y01889*
X02189Y01895*
X02188Y019*
X02185Y01905*
X0218Y01908*
X02174Y0191*
G37*
G36*
X0345Y01889D02*
X03444Y01887D01*
X03439Y01884*
X03436Y01879*
X03434Y01874*
X03436Y01868*
X03439Y01863*
X03444Y0186*
X0345Y01858*
X03455Y0186*
X0346Y01863*
X03463Y01868*
X03465Y01874*
X03463Y01879*
X0346Y01884*
X03455Y01887*
X0345Y01889*
G37*
G36*
X02811Y0186D02*
X02805Y01858D01*
X028Y01855*
X02796*
X02791Y01858*
X02785Y0186*
X0278Y01858*
X02775Y01855*
X02771Y0185*
X0277Y01845*
X02771Y01839*
X02775Y01834*
X0278Y01831*
X02785Y01829*
X02791Y01831*
X02795Y01833*
X02798Y01834*
X02801Y01833*
X02805Y01831*
X02811Y01829*
X02817Y01831*
X02822Y01834*
X02825Y01839*
X02826Y01845*
X02825Y0185*
X02822Y01855*
X02817Y01858*
X02811Y0186*
G37*
G36*
X0211Y01855D02*
X02104Y01853D01*
X02099Y0185*
X02096Y01845*
X02094Y0184*
X02096Y01834*
X02099Y01829*
X02104Y01826*
X0211Y01824*
X02115Y01826*
X0212Y01829*
X02123Y01834*
X02125Y0184*
X02123Y01845*
X0212Y0185*
X02115Y01853*
X0211Y01855*
G37*
G36*
X0207Y01765D02*
X02064Y01763D01*
X02059Y0176*
X02056Y01755*
X02054Y0175*
X02056Y01744*
X02059Y01739*
X02064Y01736*
X0207Y01734*
X02075Y01736*
X0208Y01739*
X02083Y01744*
X02085Y0175*
X02083Y01755*
X0208Y0176*
X02075Y01763*
X0207Y01765*
G37*
G36*
X0305Y01735D02*
X03044Y01733D01*
X03039Y0173*
X03036Y01725*
X03034Y0172*
X03036Y01714*
X03039Y01709*
X03044Y01706*
X0305Y01704*
X03055Y01706*
X0306Y01709*
X03063Y01714*
X03065Y0172*
X03063Y01725*
X0306Y0173*
X03055Y01733*
X0305Y01735*
G37*
G36*
X0329Y0171D02*
X03284Y01708D01*
X03279Y01705*
X03276Y017*
X03274Y01695*
X03276Y01689*
X03279Y01684*
X03284Y01681*
X0329Y01679*
X03295Y01681*
X033Y01684*
X03303Y01689*
X03305Y01695*
X03303Y017*
X033Y01705*
X03295Y01708*
X0329Y0171*
G37*
G36*
X01495Y01502D02*
X01489Y01501D01*
X01484Y01498*
X01481Y01493*
X01479Y01487*
X01481Y01481*
X01484Y01476*
X01489Y01473*
X01495Y01472*
X015Y01473*
X01505Y01476*
X01508Y01481*
X0151Y01487*
X01508Y01493*
X01505Y01498*
X015Y01501*
X01495Y01502*
G37*
G36*
X01345Y01497D02*
X01339Y01496D01*
X01334Y01493*
X01331Y01488*
X01329Y01482*
X01331Y01476*
X01334Y01471*
X01339Y01468*
X01345Y01467*
X0135Y01468*
X01355Y01471*
X01358Y01476*
X0136Y01482*
X01358Y01488*
X01355Y01493*
X0135Y01496*
X01345Y01497*
G37*
G36*
X0119D02*
X01184Y01496D01*
X01179Y01493*
X01176Y01488*
X01174Y01482*
X01176Y01476*
X01179Y01471*
X01184Y01468*
X0119Y01467*
X01195Y01468*
X012Y01471*
X01203Y01476*
X01205Y01482*
X01203Y01488*
X012Y01493*
X01195Y01496*
X0119Y01497*
G37*
G36*
X01045Y01492D02*
X01039Y01491D01*
X01034Y01488*
X01031Y01483*
X01029Y01477*
X01031Y01471*
X01034Y01466*
X01039Y01463*
X01045Y01462*
X0105Y01463*
X01055Y01466*
X01058Y01471*
X0106Y01477*
X01058Y01483*
X01055Y01488*
X0105Y01491*
X01045Y01492*
G37*
G36*
X01694Y01462D02*
X01688Y01461D01*
X01681Y01459*
X01676Y01455*
X01672Y01449*
X01669Y01443*
X01668Y01437*
X01669Y0143*
X01672Y01424*
X01676Y01418*
X01681Y01414*
X01688Y01412*
X01694Y01411*
X01701Y01412*
X01707Y01414*
X01712Y01418*
X01717Y01424*
X01719Y0143*
X0172Y01437*
X01719Y01443*
X01717Y01449*
X01712Y01455*
X01707Y01459*
X01701Y01461*
X01694Y01462*
G37*
G36*
X0206Y01453D02*
X0205Y01452D01*
X02041Y01448*
X02034Y01442*
X02028Y01435*
X02025Y01426*
X02023Y01417*
X02025Y01407*
X02028Y01399*
X02034Y01391*
X02041Y01385*
X0205Y01382*
X0206Y0138*
X02069Y01382*
X02078Y01385*
X02085Y01391*
X02091Y01399*
X02094Y01407*
X02096Y01417*
X02094Y01426*
X02091Y01435*
X02085Y01442*
X02078Y01448*
X02069Y01452*
X0206Y01453*
G37*
G36*
X01295Y01342D02*
X01289Y01341D01*
X01284Y01338*
X01281Y01333*
X01279Y01327*
X01281Y01321*
X01284Y01316*
X01289Y01313*
X01295Y01312*
X013Y01313*
X01305Y01316*
X01308Y01321*
X0131Y01327*
X01308Y01333*
X01305Y01338*
X013Y01341*
X01295Y01342*
G37*
G36*
X0114D02*
X01134Y01341D01*
X01129Y01338*
X01126Y01333*
X01124Y01327*
X01126Y01321*
X01129Y01316*
X01134Y01313*
X0114Y01312*
X01145Y01313*
X0115Y01316*
X01153Y01321*
X01155Y01327*
X01153Y01333*
X0115Y01338*
X01145Y01341*
X0114Y01342*
G37*
G36*
X0109D02*
X01084Y01341D01*
X01079Y01338*
X01076Y01333*
X01074Y01327*
X01076Y01321*
X01079Y01316*
X01084Y01313*
X0109Y01312*
X01095Y01313*
X011Y01316*
X01103Y01321*
X01105Y01327*
X01103Y01333*
X011Y01338*
X01095Y01341*
X0109Y01342*
G37*
G36*
X01445Y01337D02*
X01439Y01336D01*
X01434Y01333*
X01431Y01328*
X01429Y01322*
X01431Y01316*
X01434Y01311*
X01439Y01308*
X01445Y01307*
X0145Y01308*
X01455Y01311*
X01458Y01316*
X0146Y01322*
X01458Y01328*
X01455Y01333*
X0145Y01336*
X01445Y01337*
G37*
G36*
X01625Y01311D02*
X01618Y0131D01*
X01612Y01307*
X01606Y01303*
X01602Y01298*
X016Y01292*
X01599Y01285*
X016Y01278*
X01602Y01272*
X01606Y01267*
X01612Y01263*
X01618Y0126*
X01625Y01259*
X01631Y0126*
X01637Y01263*
X01643Y01267*
X01647Y01272*
X01649Y01278*
X0165Y01285*
X01649Y01292*
X01647Y01298*
X01643Y01303*
X01637Y01307*
X01631Y0131*
X01625Y01311*
G37*
G36*
X03145Y0124D02*
X03139Y01238D01*
X03134Y01235*
X03131Y0123*
X03129Y01225*
X03131Y01219*
X03134Y01214*
X03139Y01211*
X03145Y01209*
X0315Y01211*
X03155Y01214*
X03158Y01219*
X0316Y01225*
X03158Y0123*
X03155Y01235*
X0315Y01238*
X03145Y0124*
G37*
G36*
X02075Y01208D02*
X02068Y01207D01*
X02062Y01204*
X02056Y012*
X02052Y01195*
X0205Y01189*
X02049Y01182*
X0205Y01175*
X02052Y01169*
X02056Y01164*
X02062Y0116*
X02068Y01157*
X02075Y01156*
X02081Y01157*
X02087Y0116*
X02093Y01164*
X02097Y01169*
X02099Y01175*
X021Y01182*
X02099Y01189*
X02097Y01195*
X02093Y012*
X02087Y01204*
X02081Y01207*
X02075Y01208*
G37*
G36*
X02685Y01183D02*
X02679Y01181D01*
X02674Y01178*
X02671Y01173*
X02669Y01168*
X02671Y01162*
X02674Y01157*
X02679Y01154*
X02685Y01152*
X0269Y01154*
X02695Y01157*
X02698Y01162*
X027Y01168*
X02698Y01173*
X02695Y01178*
X0269Y01181*
X02685Y01183*
G37*
G36*
X0367Y01135D02*
X03664Y01133D01*
X03659Y0113*
X03656Y01125*
X03654Y0112*
X03656Y01114*
X03659Y01109*
X03664Y01106*
X0367Y01104*
X03675Y01106*
X0368Y01109*
X03683Y01114*
X03685Y0112*
X03683Y01125*
X0368Y0113*
X03675Y01133*
X0367Y01135*
G37*
G36*
X01495Y01097D02*
X01489Y01096D01*
X01484Y01093*
X01481Y01088*
X01479Y01082*
X01481Y01076*
X01484Y01071*
X01489Y01068*
X01495Y01067*
X015Y01068*
X01505Y01071*
X01508Y01076*
X0151Y01082*
X01508Y01088*
X01505Y01093*
X015Y01096*
X01495Y01097*
G37*
G36*
X01345D02*
X01339Y01096D01*
X01334Y01093*
X01331Y01088*
X01329Y01082*
X01331Y01076*
X01334Y01071*
X01339Y01068*
X01345Y01067*
X0135Y01068*
X01355Y01071*
X01358Y01076*
X0136Y01082*
X01358Y01088*
X01355Y01093*
X0135Y01096*
X01345Y01097*
G37*
G36*
X0119D02*
X01184Y01096D01*
X01179Y01093*
X01176Y01088*
X01174Y01082*
X01176Y01076*
X01179Y01071*
X01184Y01068*
X0119Y01067*
X01195Y01068*
X012Y01071*
X01203Y01076*
X01205Y01082*
X01203Y01088*
X012Y01093*
X01195Y01096*
X0119Y01097*
G37*
G36*
X01045Y01092D02*
X01039Y01091D01*
X01034Y01088*
X01031Y01083*
X01029Y01077*
X01031Y01071*
X01034Y01066*
X01039Y01063*
X01045Y01062*
X0105Y01063*
X01055Y01066*
X01058Y01071*
X0106Y01077*
X01058Y01083*
X01055Y01088*
X0105Y01091*
X01045Y01092*
G37*
G36*
X0171Y01078D02*
X01703Y01077D01*
X01697Y01074*
X01691Y0107*
X01687Y01065*
X01685Y01059*
X01684Y01052*
X01685Y01045*
X01687Y01039*
X01691Y01034*
X01697Y0103*
X01703Y01027*
X0171Y01026*
X01716Y01027*
X01722Y0103*
X01728Y01034*
X01732Y01039*
X01734Y01045*
X01735Y01052*
X01734Y01059*
X01732Y01065*
X01728Y0107*
X01722Y01074*
X01716Y01077*
X0171Y01078*
G37*
G36*
X0204Y01058D02*
X02033Y01057D01*
X02027Y01054*
X02021Y0105*
X02017Y01045*
X02015Y01039*
X02014Y01032*
X02015Y01025*
X02017Y01019*
X02021Y01014*
X02027Y0101*
X02033Y01007*
X0204Y01006*
X02046Y01007*
X02052Y0101*
X02058Y01014*
X02062Y01019*
X02064Y01025*
X02065Y01032*
X02064Y01039*
X02062Y01045*
X02058Y0105*
X02052Y01054*
X02046Y01057*
X0204Y01058*
G37*
G36*
X01805Y01035D02*
X01799Y01033D01*
X01794Y0103*
X01791Y01025*
X01789Y0102*
X01791Y01014*
X01794Y01009*
X01799Y01006*
X01805Y01004*
X0181Y01006*
X01815Y01009*
X01818Y01014*
X0182Y0102*
X01818Y01025*
X01815Y0103*
X0181Y01033*
X01805Y01035*
G37*
G36*
X0159Y00902D02*
X01584Y00901D01*
X01579Y00898*
X01576Y00893*
X01574Y00887*
X01576Y00881*
X01579Y00876*
X01584Y00873*
X0159Y00872*
X01595Y00873*
X016Y00876*
X01603Y00881*
X01605Y00887*
X01603Y00893*
X016Y00898*
X01595Y00901*
X0159Y00902*
G37*
G36*
X013Y00892D02*
X01294Y00891D01*
X01289Y00888*
X01286Y00883*
X01284Y00877*
X01286Y00871*
X01289Y00866*
X01294Y00863*
X013Y00862*
X01305Y00863*
X0131Y00866*
X01313Y00871*
X01315Y00877*
X01313Y00883*
X0131Y00888*
X01305Y00891*
X013Y00892*
G37*
G36*
X01145Y00887D02*
X01139Y00886D01*
X01134Y00883*
X01131Y00878*
X01129Y00872*
X01131Y00866*
X01134Y00861*
X01139Y00858*
X01145Y00857*
X0115Y00858*
X01155Y00861*
X01158Y00866*
X0116Y00872*
X01158Y00878*
X01155Y00883*
X0115Y00886*
X01145Y00887*
G37*
G36*
X01545Y00867D02*
X01539Y00866D01*
X01534Y00862*
X01531Y00858*
X0153Y00852*
X01531Y00846*
X01534Y00841*
X01539Y00838*
X01545Y00837*
X01551Y00838*
X01555Y00841*
X01559Y00846*
X0156Y00852*
X01559Y00858*
X01555Y00862*
X01551Y00866*
X01545Y00867*
G37*
G36*
X0128Y00847D02*
X01274Y00845D01*
X01269Y00842*
X01266Y00837*
X01264Y00832*
X01266Y00826*
X01269Y00821*
X01274Y00818*
X0128Y00817*
X01285Y00818*
X0129Y00821*
X01293Y00826*
X01295Y00832*
X01293Y00837*
X0129Y00842*
X01285Y00845*
X0128Y00847*
G37*
G36*
X01123Y00832D02*
X01118Y00831D01*
X01113Y00828*
X0111Y00823*
X01108Y00817*
X0111Y00811*
X01113Y00806*
X01118Y00803*
X01123Y00802*
X01129Y00803*
X01134Y00806*
X01137Y00811*
X01138Y00817*
X01137Y00823*
X01134Y00828*
X01129Y00831*
X01123Y00832*
G37*
G36*
X01737Y00742D02*
X01731Y0074D01*
X01726Y00737*
X01723Y00732*
X01721Y00727*
X01723Y00721*
X01726Y00716*
X01731Y00713*
X01737Y00711*
X01742Y00713*
X01747Y00716*
X0175Y00721*
X01752Y00727*
X0175Y00732*
X01747Y00737*
X01742Y0074*
X01737Y00742*
G37*
G36*
X0163Y00667D02*
X01624Y00666D01*
X01619Y00663*
X01616Y00658*
X01614Y00652*
X01616Y00646*
X01619Y00641*
X01624Y00638*
X0163Y00637*
X01635Y00638*
X0164Y00641*
X01643Y00646*
X01645Y00652*
X01643Y00658*
X0164Y00663*
X01635Y00666*
X0163Y00667*
G37*
G36*
X01755Y0535D02*
X01748Y05349D01*
X01742Y05347*
X01736Y05343*
X01732Y05337*
X0173Y05331*
X01729Y05325*
X0173Y05318*
X01732Y05312*
X01736Y05306*
X01742Y05302*
X01748Y053*
X01755Y05299*
X01761Y053*
X01767Y05302*
X01773Y05306*
X01777Y05312*
X01779Y05318*
X0178Y05325*
X01779Y05331*
X01777Y05337*
X01773Y05343*
X01767Y05347*
X01761Y05349*
X01755Y0535*
G37*
G36*
X0229Y0515D02*
X02284Y05148D01*
X02279Y05145*
X02276Y0514*
X02274Y05135*
X02276Y05129*
X02279Y05124*
X02284Y05121*
X0229Y05119*
X02295Y05121*
X023Y05124*
X02303Y05129*
X02305Y05135*
X02303Y0514*
X023Y05145*
X02295Y05148*
X0229Y0515*
G37*
G36*
X02405Y05165D02*
X02398Y05164D01*
X02392Y05162*
X02386Y05158*
X02382Y05152*
X0238Y05146*
X02379Y0514*
X0238Y05133*
X02382Y05127*
X02386Y05121*
X02392Y05117*
X02398Y05115*
X02405Y05114*
X02411Y05115*
X02417Y05117*
X02423Y05121*
X02427Y05127*
X02429Y05133*
X0243Y0514*
X02429Y05146*
X02427Y05152*
X02423Y05158*
X02417Y05162*
X02411Y05164*
X02405Y05165*
G37*
G36*
X01963Y05163D02*
X01956Y05163D01*
X0195Y0516*
X01945Y05156*
X01941Y0515*
X01938Y05144*
X01937Y05138*
X01938Y05131*
X01941Y05125*
X01945Y05119*
X0195Y05115*
X01956Y05113*
X01963Y05112*
X0197Y05113*
X01976Y05115*
X01981Y05119*
X01985Y05125*
X01988Y05131*
X01989Y05138*
X01988Y05144*
X01985Y0515*
X01981Y05156*
X01976Y0516*
X0197Y05163*
X01963Y05163*
G37*
G36*
X03725Y05178D02*
X03716Y05177D01*
X03708Y05174*
X03701Y05168*
X03695Y05161*
X03692Y05153*
X03691Y05145*
X03692Y05136*
X03695Y05128*
X03701Y05121*
X03708Y05115*
X03716Y05112*
X03725Y05111*
X03733Y05112*
X03741Y05115*
X03748Y05121*
X03754Y05128*
X03757Y05136*
X03758Y05145*
X03757Y05153*
X03754Y05161*
X03748Y05168*
X03741Y05174*
X03733Y05177*
X03725Y05178*
G37*
G36*
X03646D02*
X03637Y05177D01*
X03629Y05174*
X03622Y05168*
X03617Y05161*
X03613Y05153*
X03612Y05145*
X03613Y05136*
X03617Y05128*
X03622Y05121*
X03629Y05115*
X03637Y05112*
X03646Y05111*
X03654Y05112*
X03663Y05115*
X0367Y05121*
X03675Y05128*
X03678Y05136*
X0368Y05145*
X03678Y05153*
X03675Y05161*
X0367Y05168*
X03663Y05174*
X03654Y05177*
X03646Y05178*
G37*
G36*
X02172Y05127D02*
X02166Y05126D01*
X02161Y05123*
X02158Y05118*
X02157Y05112*
X02158Y05107*
X02161Y05102*
X02166Y05099*
X02172Y05097*
X02178Y05099*
X02183Y05102*
X02186Y05107*
X02187Y05112*
X02186Y05118*
X02183Y05123*
X02178Y05126*
X02172Y05127*
G37*
G36*
X02075Y05125D02*
X02069Y05123D01*
X02064Y0512*
X02061Y05115*
X02059Y0511*
X02061Y05104*
X02064Y05099*
X02069Y05096*
X02075Y05094*
X0208Y05096*
X02085Y05099*
X02088Y05104*
X0209Y0511*
X02088Y05115*
X02085Y0512*
X0208Y05123*
X02075Y05125*
G37*
G36*
X0187Y05125D02*
X01863Y05124D01*
X01857Y05122*
X01851Y05118*
X01847Y05112*
X01845Y05106*
X01844Y051*
X01845Y05093*
X01847Y05087*
X01851Y05081*
X01857Y05077*
X01863Y05075*
X0187Y05074*
X01876Y05075*
X01882Y05077*
X01888Y05081*
X01892Y05087*
X01894Y05093*
X01895Y051*
X01894Y05106*
X01892Y05112*
X01888Y05118*
X01882Y05122*
X01876Y05124*
X0187Y05125*
G37*
G36*
X03646Y05095D02*
X0364Y05093D01*
X03635Y0509*
X03632Y05085*
X03631Y0508*
X03632Y05074*
X03635Y05069*
X0364Y05066*
X03646Y05064*
X03652Y05066*
X03656Y05069*
X0366Y05074*
X03661Y0508*
X0366Y05085*
X03656Y0509*
X03652Y05093*
X03646Y05095*
G37*
G36*
X02165Y0508D02*
X02159Y05078D01*
X02154Y05075*
X02151Y0507*
X02149Y05065*
X02151Y05059*
X02154Y05054*
X02159Y05051*
X02165Y05049*
X0217Y05051*
X02175Y05054*
X02178Y05059*
X0218Y05065*
X02178Y0507*
X02175Y05075*
X0217Y05078*
X02165Y0508*
G37*
G36*
X0208Y05075D02*
X02074Y05073D01*
X02069Y0507*
X02066Y05065*
X02064Y0506*
X02066Y05054*
X02069Y05049*
X02074Y05046*
X0208Y05044*
X02085Y05046*
X0209Y05049*
X02093Y05054*
X02095Y0506*
X02093Y05065*
X0209Y0507*
X02085Y05073*
X0208Y05075*
G37*
G36*
X0302Y05106D02*
X03007Y05104D01*
X02994Y05101*
X02983Y05095*
X02973Y05086*
X02964Y05076*
X02958Y05065*
X02955Y05052*
X02953Y0504*
X02955Y05027*
X02958Y05014*
X02964Y05003*
X02973Y04993*
X02983Y04984*
X02994Y04978*
X03007Y04975*
X0302Y04973*
X03032Y04975*
X03045Y04978*
X03056Y04984*
X03066Y04993*
X03075Y05003*
X03081Y05014*
X03084Y05027*
X03086Y0504*
X03084Y05052*
X03081Y05065*
X03075Y05076*
X03066Y05086*
X03056Y05095*
X03045Y05101*
X03032Y05104*
X0302Y05106*
G37*
G36*
X03635Y04987D02*
X03629Y04986D01*
X03624Y04983*
X03621Y04978*
X03619Y04972*
X03621Y04966*
X03624Y04961*
X03629Y04958*
X03635Y04957*
X0364Y04958*
X03645Y04961*
X03648Y04966*
X0365Y04972*
X03648Y04978*
X03645Y04983*
X0364Y04986*
X03635Y04987*
G37*
G36*
X03565Y0495D02*
X03559Y04948D01*
X03554Y04945*
X03551Y0494*
X03549Y04935*
X03551Y04929*
X03554Y04924*
X03559Y04921*
X03565Y04919*
X0357Y04921*
X03575Y04924*
X03578Y04929*
X0358Y04935*
X03578Y0494*
X03575Y04945*
X0357Y04948*
X03565Y0495*
G37*
G36*
X03535Y04886D02*
X03526Y04884D01*
X03519Y0488*
X03515Y04873*
X03513Y04865*
X03515Y04856*
X03519Y04849*
X03526Y04845*
X03535Y04843*
X03543Y04845*
X0355Y04849*
X03554Y04856*
X03556Y04865*
X03554Y04873*
X0355Y0488*
X03543Y04884*
X03535Y04886*
G37*
G36*
X03451Y0461D02*
X03445Y04608D01*
X03441Y04605*
X03437Y046*
X03436Y04595*
X03437Y04589*
X03441Y04584*
X03445Y04581*
X03451Y04579*
X03457Y04581*
X03462Y04584*
X03465Y04589*
X03466Y04595*
X03465Y046*
X03462Y04605*
X03457Y04608*
X03451Y0461*
G37*
G36*
X03915Y04536D02*
X03907Y04535D01*
X039Y04532*
X03894Y04528*
X03889Y04521*
X03886Y04514*
X03885Y04507*
X03886Y04499*
X03889Y04492*
X03894Y04485*
X039Y04481*
X03907Y04478*
X03915Y04477*
X03923Y04478*
X0393Y04481*
X03936Y04485*
X03941Y04492*
X03944Y04499*
X03945Y04507*
X03944Y04514*
X03941Y04521*
X03936Y04528*
X0393Y04532*
X03923Y04535*
X03915Y04536*
G37*
G36*
X03758D02*
X0375Y04535D01*
X03743Y04532*
X03736Y04528*
X03732Y04521*
X03729Y04514*
X03728Y04507*
X03729Y04499*
X03732Y04492*
X03736Y04485*
X03743Y04481*
X0375Y04478*
X03758Y04477*
X03765Y04478*
X03772Y04481*
X03779Y04485*
X03783Y04492*
X03786Y04499*
X03787Y04507*
X03786Y04514*
X03783Y04521*
X03779Y04528*
X03772Y04532*
X03765Y04535*
X03758Y04536*
G37*
G36*
X0427Y0438D02*
X04264Y04378D01*
X04259Y04375*
X04256Y0437*
X04254Y04365*
X04256Y04359*
X04259Y04354*
X04264Y04351*
X0427Y04349*
X04275Y04351*
X0428Y04354*
X04283Y04359*
X04285Y04365*
X04283Y0437*
X0428Y04375*
X04275Y04378*
X0427Y0438*
G37*
G36*
X03975Y02431D02*
X03969Y0243D01*
X03964Y02427*
X03961Y02422*
X03959Y02416*
X03961Y02411*
X03964Y02406*
X03969Y02402*
X03975Y02401*
X0398Y02402*
X03985Y02406*
X03988Y02411*
X0399Y02416*
X03988Y02422*
X03985Y02427*
X0398Y0243*
X03975Y02431*
G37*
G36*
X01973Y024D02*
X01973Y024D01*
X01973Y024*
X01963Y02399*
X01963Y02399*
X01962*
X01953Y02395*
X01953Y02395*
X01952Y02394*
X01945Y02389*
X01944Y02388*
X01944Y02388*
X01938Y0238*
X01938Y0238*
X01937Y02379*
X01934Y02371*
Y0237*
X01933Y02369*
X01932Y0236*
X01932Y02359*
X01932Y02358*
X01933Y02349*
X01934Y02349*
Y02348*
X01937Y02339*
X01938Y02339*
X01938Y02338*
X01944Y02331*
X01944Y0233*
X01945Y02329*
X01952Y02324*
X01953Y02324*
X01953Y02323*
X01962Y0232*
X01963*
X01963Y02319*
X01973Y02318*
X01973Y02318*
X01973Y02318*
X01974Y02318*
X01974Y02318*
X01983Y02319*
X01984Y0232*
X01985*
X01993Y02323*
X01994Y02324*
X01995Y02324*
X02002Y02329*
X02002Y0233*
X02003Y02331*
X02009Y02338*
X02009Y02339*
X02009Y02339*
X02013Y02348*
Y02349*
X02013Y02349*
X02014Y02358*
X02014Y02359*
X02014Y0236*
X02013Y02369*
X02013Y0237*
Y02371*
X02009Y02379*
X02009Y0238*
X02009Y0238*
X02003Y02388*
X02002Y02388*
X02002Y02389*
X01995Y02394*
X01994Y02395*
X01993Y02395*
X01985Y02399*
X01984*
X01983Y02399*
X01974Y024*
X01974Y024*
X01973Y024*
G37*
G36*
X0401Y0243D02*
X04004Y02428D01*
X03999Y02425*
X03996Y0242*
X03994Y02415*
X03996Y02409*
X03999Y02404*
X04004Y02401*
X0401Y02399*
X04015Y02401*
X0402Y02404*
X04023Y02409*
X04025Y02415*
X04023Y0242*
X0402Y02425*
X04015Y02428*
X0401Y0243*
G37*
G36*
X03632Y02399D02*
X03627Y02397D01*
X03623Y02395*
X0362Y02394*
X03616Y02395*
X03613Y02397*
X03607Y02399*
X03601Y02397*
X03596Y02394*
X03593Y02389*
X03592Y02384*
X03593Y02378*
X03596Y02373*
X03601Y0237*
X03607Y02368*
X03613Y0237*
X03616Y02372*
X0362Y02373*
X03623Y02372*
X03627Y0237*
X03632Y02368*
X03638Y0237*
X03643Y02373*
X03646Y02378*
X03647Y02384*
X03646Y02389*
X03643Y02394*
X03638Y02397*
X03632Y02399*
G37*
G36*
X03473Y02414D02*
X03467Y02412D01*
X03462Y02409*
X03459Y02404*
X03457Y02399*
X03458Y02397*
X03453Y02394*
X03451Y02395*
X03445Y02397*
X03439Y02395*
X03435Y02392*
X03431Y02387*
X0343Y02381*
X03431Y02376*
X03435Y02371*
X03439Y02368*
X03445Y02366*
X03451Y02368*
X03456Y02371*
X03459Y02376*
X0346Y02381*
X0346Y02383*
X03464Y02386*
X03467Y02385*
X03473Y02383*
X03478Y02385*
X03483Y02388*
X03486Y02393*
X03488Y02399*
X03486Y02404*
X03483Y02409*
X03478Y02412*
X03473Y02414*
G37*
G36*
X02532Y02412D02*
X02526Y0241D01*
X02522Y02407*
X02518Y02402*
X02517Y02397*
X02518Y02391*
X02522Y02386*
X02518Y02382*
X02515Y02384*
X0251Y02386*
X02504Y02384*
X02499Y02381*
X02496Y02376*
X02494Y02371*
X02496Y02365*
X02499Y0236*
X02504Y02357*
X0251Y02355*
X02515Y02357*
X0252Y0236*
X02523Y02365*
X02525Y02371*
X02523Y02376*
X0252Y02381*
X02523Y02385*
X02526Y02383*
X02532Y02381*
X02538Y02383*
X02543Y02386*
X02546Y02391*
X02547Y02397*
X02546Y02402*
X02543Y02407*
X02538Y0241*
X02532Y02412*
G37*
G36*
X02825Y0241D02*
X02819Y02408D01*
X02814Y02405*
X02811Y024*
X02809Y02395*
X02811Y02389*
X02814Y02384*
X02819Y02381*
X02825Y02379*
X0283Y02381*
X02835Y02384*
X02838Y02389*
X0284Y02395*
X02838Y024*
X02835Y02405*
X0283Y02408*
X02825Y0241*
G37*
G36*
X02305D02*
X02299Y02408D01*
X02294Y02405*
X02291Y024*
X02289Y02395*
X02291Y02389*
X02294Y02384*
X02299Y02381*
X02305Y02379*
X0231Y02381*
X02315Y02384*
X02318Y02389*
X0232Y02395*
X02318Y024*
X02315Y02405*
X0231Y02408*
X02305Y0241*
G37*
G36*
X04135Y02405D02*
X04129Y02403D01*
X04124Y024*
X04121Y02395*
X04119Y0239*
X04121Y02384*
X04124Y02379*
X04129Y02376*
X04135Y02374*
X0414Y02376*
X04145Y02379*
X04148Y02384*
X0415Y0239*
X04148Y02395*
X04145Y024*
X0414Y02403*
X04135Y02405*
G37*
G36*
X02475Y0238D02*
X02469Y02378D01*
X02464Y02375*
X02463Y02373*
X02456*
X02455Y02375*
X0245Y02378*
X02445Y0238*
X02439Y02378*
X02434Y02375*
X02431Y0237*
X0243Y02366*
X02425Y02365*
X02424Y02365*
X02419Y02368*
X02414Y0237*
X02408Y02368*
X02403Y02365*
X024Y0236*
X02399Y02355*
X024Y02349*
X02403Y02344*
X02408Y02341*
X02414Y02339*
X02419Y02341*
X02424Y02344*
X02428Y02349*
X02428Y02353*
X02433Y02354*
X02434Y02354*
X02439Y02351*
X02445Y02349*
X0245Y02351*
X02455Y02354*
X02456Y02356*
X02463*
X02464Y02354*
X02469Y02351*
X02475Y02349*
X0248Y02351*
X02485Y02354*
X02488Y02359*
X0249Y02365*
X02488Y0237*
X02485Y02375*
X0248Y02378*
X02475Y0238*
G37*
G36*
X02936Y02371D02*
X0293Y02369D01*
X02925Y02366*
X02922Y02365*
X0292*
X02915Y02368*
X0291Y0237*
X02904Y02368*
X02899Y02365*
X02896Y0236*
X0289Y02359*
X02889Y0236*
X02883Y02361*
X02877Y0236*
X02872Y02357*
X02869Y02352*
X02868Y02346*
X02869Y0234*
X02872Y02335*
X02877Y02332*
X02883Y02331*
X02889Y02332*
X02894Y02335*
X02897Y0234*
X02902Y02342*
X02904Y02341*
X0291Y02339*
X02915Y02341*
X0292Y02344*
X02923Y02345*
X02925*
X0293Y02342*
X02936Y0234*
X02941Y02342*
X02946Y02345*
X02949Y0235*
X02951Y02356*
X02949Y02361*
X02946Y02366*
X02941Y02369*
X02936Y02371*
G37*
G36*
X04015Y02385D02*
X04009Y02383D01*
X04004Y0238*
X04001Y02375*
X03999Y0237*
X04001Y02364*
X04004Y02359*
X04009Y02356*
X04015Y02354*
X0402Y02356*
X04025Y02359*
X04028Y02364*
X0403Y0237*
X04028Y02375*
X04025Y0238*
X0402Y02383*
X04015Y02385*
G37*
G36*
X03397Y02397D02*
X03391Y02396D01*
X03386Y02393*
X03383Y02388*
X03382Y02382*
X03383Y02376*
X03386Y02371*
X03391Y02368*
X03397Y02367*
X034Y02364*
X03401Y02358*
X03404Y02353*
X03409Y0235*
X03415Y02349*
X03421Y0235*
X03426Y02353*
X03429Y02358*
X0343Y02364*
X03429Y0237*
X03426Y02375*
X03421Y02378*
X03415Y02379*
X03412Y02382*
X03411Y02388*
X03408Y02393*
X03403Y02396*
X03397Y02397*
G37*
G36*
X03695Y0238D02*
X03689Y02378D01*
X03684Y02375*
X03681Y0237*
X03679Y02365*
X03681Y02359*
X03684Y02354*
X03689Y02351*
X03695Y02349*
X037Y02351*
X03705Y02354*
X03707Y02357*
X03712Y02356*
X03713Y02355*
X03716Y0235*
X03721Y02347*
X03727Y02345*
X03732Y02347*
X03737Y0235*
X0374Y02355*
X03742Y02361*
X0374Y02366*
X03737Y02371*
X03732Y02374*
X03727Y02376*
X03721Y02374*
X03716Y02371*
X03714Y02368*
X03709Y02369*
X03708Y0237*
X03705Y02375*
X037Y02378*
X03695Y0238*
G37*
G36*
X0326Y02375D02*
X03254Y02373D01*
X03249Y0237*
X03246Y02365*
X03244Y0236*
X03246Y02354*
X03249Y02349*
X03254Y02346*
X0326Y02344*
X03265Y02346*
X0327Y02349*
X03273Y02354*
X03275Y0236*
X03273Y02365*
X0327Y0237*
X03265Y02373*
X0326Y02375*
G37*
G36*
X02825D02*
X02819Y02373D01*
X02814Y0237*
X02811Y02365*
X02809Y0236*
X02811Y02354*
X02814Y02349*
X02819Y02346*
X02825Y02344*
X0283Y02346*
X02835Y02349*
X02838Y02354*
X0284Y0236*
X02838Y02365*
X02835Y0237*
X0283Y02373*
X02825Y02375*
G37*
G36*
X0257Y0237D02*
X02564Y02368D01*
X02559Y02365*
X02556Y0236*
X02554Y02355*
X02556Y02349*
X02559Y02344*
X02564Y02341*
X0257Y02339*
X02575Y02341*
X0258Y02344*
X02583Y02349*
X02585Y02355*
X02583Y0236*
X0258Y02365*
X02575Y02368*
X0257Y0237*
G37*
G36*
X02376D02*
X02371Y02368D01*
X02366Y02365*
X02362Y0236*
X02361Y02355*
X02362Y02349*
X02366Y02344*
X02371Y02341*
X02376Y02339*
X02382Y02341*
X02387Y02344*
X0239Y02349*
X02391Y02355*
X0239Y0236*
X02387Y02365*
X02382Y02368*
X02376Y0237*
G37*
G36*
X03535Y02388D02*
X03529Y02386D01*
X03524Y02383*
X03521Y02378*
X03519Y02373*
X03516Y02369*
X03511Y02368*
X03506Y02365*
X03502Y0236*
X03501Y02354*
X03502Y02349*
X03506Y02344*
X03511Y0234*
X03516Y02339*
X03522Y0234*
X03527Y02344*
X0353Y02349*
X03531Y02354*
X03535Y02357*
X0354Y02359*
X03545Y02362*
X03548Y02367*
X0355Y02373*
X03548Y02378*
X03545Y02383*
X0354Y02386*
X03535Y02388*
G37*
G36*
X0406Y02365D02*
X04054Y02363D01*
X04049Y0236*
X04046Y02355*
X04044Y0235*
X04046Y02344*
X04049Y02339*
X04054Y02336*
X0406Y02334*
X04065Y02336*
X0407Y02339*
X04073Y02344*
X04075Y0235*
X04073Y02355*
X0407Y0236*
X04065Y02363*
X0406Y02365*
G37*
G36*
X03088Y02363D02*
X03082Y02361D01*
X03077Y02358*
X03074Y02353*
X03072Y02348*
X03074Y02342*
X03077Y02337*
X03082Y02334*
X03088Y02332*
X03093Y02334*
X03098Y02337*
X03101Y02342*
X03103Y02348*
X03101Y02353*
X03098Y02358*
X03093Y02361*
X03088Y02363*
G37*
G36*
X03845Y0235D02*
X03839Y02348D01*
X03834Y02345*
X03831Y0234*
X03829Y02335*
X03831Y02329*
X03834Y02324*
X03839Y02321*
X03845Y02319*
X0385Y02321*
X03855Y02324*
X03858Y02329*
X0386Y02335*
X03858Y0234*
X03855Y02345*
X0385Y02348*
X03845Y0235*
G37*
G36*
X03335D02*
X03329Y02348D01*
X03324Y02345*
X03321Y0234*
X03319Y02335*
X03321Y02329*
X03324Y02324*
X03329Y02321*
X03335Y02319*
X0334Y02321*
X03345Y02324*
X03348Y02329*
X0335Y02335*
X03348Y0234*
X03345Y02345*
X0334Y02348*
X03335Y0235*
G37*
G36*
X0231Y02335D02*
X02304Y02333D01*
X02299Y0233*
X02296Y02325*
X02294Y0232*
X02296Y02314*
X02299Y02309*
X02304Y02306*
X0231Y02304*
X02315Y02306*
X0232Y02309*
X02323Y02314*
X02325Y0232*
X02323Y02325*
X0232Y0233*
X02315Y02333*
X0231Y02335*
G37*
%LNsyncbox_copper_signal_2-3*%
%LPD*%
G54D107*
X01215Y05709D03*
Y05965D03*
G54D108*
X01029Y05827D03*
G54D109*
X0633Y01321D03*
X06549Y01319D03*
X05814Y04231D03*
X05593D03*
X0795Y04915D03*
X08055D03*
X07Y0502D03*
X04697Y00996D03*
X05222Y01771D03*
X05093Y01774D03*
X04548Y00994D03*
X0505Y01111D03*
X04694Y01129D03*
X04547Y01132D03*
X04903Y01008D03*
X05242Y01618D03*
X05104Y01617D03*
X0583Y01272D03*
X0569Y01273D03*
X05048Y01223D03*
X04903Y01325D03*
X068Y04985D03*
G54D110*
X0633Y01221D03*
Y01121D03*
X06549Y01219D03*
Y01119D03*
X05814Y04131D03*
Y04031D03*
X05593Y04131D03*
Y04031D03*
X0795Y04815D03*
Y04715D03*
X08055Y04815D03*
Y04715D03*
X07Y0492D03*
Y0482D03*
X04697Y00896D03*
X05222Y01871D03*
X05093Y01874D03*
X04548Y00894D03*
X0505Y01011D03*
X04694Y01229D03*
X04547Y01232D03*
X04903Y01108D03*
X05242Y01518D03*
X05104Y01517D03*
X0583Y01372D03*
X0569Y01373D03*
X05048Y01323D03*
X04903Y01225D03*
X068Y04885D03*
G54D111*
X06136Y04092D03*
X0718Y0455D03*
G54D112*
X06236Y04092D03*
X06336D03*
X0728Y0455D03*
X0738D03*
G54D114*
X0553Y0373D03*
G54D115*
X0553Y0363D03*
Y0353D03*
Y0343D03*
Y0333D03*
X0563Y0373D03*
Y0363D03*
Y0353D03*
Y0343D03*
Y0333D03*
G54D116*
X0531Y0603D03*
X0511D03*
X0491D03*
X04494Y00178D03*
X05473Y0018D03*
X04493Y00493D03*
X05472Y00491D03*
X058Y00178D03*
X06779Y0018D03*
X05799Y00493D03*
X06778Y00491D03*
G54D117*
X07285Y00295D03*
X07759D03*
G54D118*
X07472Y00401D03*
X07571D03*
X07472Y0048D03*
G54D119*
X07571Y0048D03*
G54D120*
X03725Y05145D03*
X03646D03*
X03567D03*
X04205Y0512D03*
X04126D03*
X04047D03*
G54D121*
X03488Y05145D03*
X03968Y0512D03*
G54D122*
X00915Y02611D03*
Y03917D03*
X0504Y00445D03*
X04931D03*
X04822D03*
X05204Y00295D03*
X05094D03*
X04985D03*
X04876D03*
X04767D03*
X05149Y00183D03*
X0504D03*
X04931D03*
X04822D03*
X05204Y00557D03*
X05095D03*
X04985D03*
X04876D03*
X04767Y00556D03*
X05149Y00445D03*
X06346D03*
X06237D03*
X06128D03*
X0651Y00295D03*
X064D03*
X06291D03*
X06182D03*
X06073D03*
X06455Y00183D03*
X06346D03*
X06237D03*
X06128D03*
X0651Y00557D03*
X06401D03*
X06291D03*
X06182D03*
X06073Y00556D03*
X06455Y00445D03*
X04796Y0256D03*
X05584D03*
G54D123*
X00946Y02527D03*
X00944Y04D03*
G54D124*
X0219Y05605D03*
X01915D03*
X03911Y0603D03*
X04108D03*
X04305D03*
X04501D03*
G54D125*
X03714Y0603D03*
G54D126*
X02616Y00489D03*
X02611Y00266D03*
X03134Y00489D03*
G54D127*
X03013Y00345D03*
X02915D03*
X02836D03*
X02737D03*
X02718Y00404D03*
X02796D03*
X02875D03*
X02954D03*
X03033D03*
Y0053D03*
X02954D03*
X02875D03*
X02796D03*
X02718D03*
X02737Y0047D03*
X02836D03*
X02915D03*
X03013D03*
G54D128*
X0656Y0499D03*
Y0489D03*
Y0479D03*
G54D129*
X0656Y0469D03*
G54D130*
X074Y02273D03*
Y0223D03*
G54D131*
X05733Y06035D03*
G54D132*
X05932Y06035D03*
X06132D03*
X06331D03*
X0653D03*
X0673D03*
X06929D03*
X07128D03*
X07327D03*
X07527D03*
X07726D03*
X07925D03*
G54D133*
X07241Y0262D03*
X07399D03*
X03758Y04507D03*
X03915D03*
G54D134*
X02782Y05985D03*
X02507D03*
X02922D03*
X03197D03*
G54D135*
X02733Y06084D03*
X02556D03*
X02971D03*
X03148D03*
G54D136*
X00975Y00272D03*
X01615D03*
G54D137*
X01435Y00237D03*
X01395Y00307D03*
X01355Y00237D03*
X01315Y00307D03*
X01275Y00237D03*
X01235Y00307D03*
X01195Y00237D03*
X01155Y00307D03*
G54D138*
X01045Y00137D03*
X01545D03*
G54D139*
X01475Y00497D03*
X01565D03*
X01115D03*
X01025D03*
G54D140*
X01973Y02359D03*
X04245D03*
X06071Y0186D03*
X06Y0193D03*
X0593Y02001D03*
X05859Y02072D03*
X05788Y02142D03*
X06Y01789D03*
X0593Y0186D03*
X05859Y0193D03*
X05788Y02001D03*
X05717Y02072D03*
X02273Y00397D03*
X01997Y005D03*
X02096D03*
X02175D03*
X02273D03*
X02175Y00397D03*
X02096D03*
X01997D03*
X0588Y05325D03*
Y05525D03*
Y05625D03*
Y05725D03*
X0608D03*
Y05625D03*
Y05525D03*
Y05325D03*
X0652Y0532D03*
Y0552D03*
Y0562D03*
Y0572D03*
X0672D03*
Y0562D03*
Y0552D03*
Y0532D03*
G54D141*
X02394Y0029D03*
X01876D03*
X02394Y00514D03*
X01876D03*
G54D142*
X02381Y0538D03*
X01155Y0454D03*
X0302Y0504D03*
X01595Y0542D03*
G54D144*
X04149Y00224D03*
X03578D03*
G54D145*
X03578Y00459D03*
X04149D03*
G54D146*
X0206Y01417D03*
X0421Y0259D03*
X0142Y0535D03*
G54D147*
X01492Y0413D03*
X04483Y04125D03*
X01493Y02277D03*
X04481Y02276D03*
G54D148*
X07798Y04488D03*
Y01663D03*
X00632D03*
Y04488D03*
G54D149*
X07727Y00936D03*
Y05215D03*
X00703Y00936D03*
Y05215D03*
G54D150*
X05128Y03461D03*
X0371Y00924D03*
X05424Y04015D03*
X05441Y02255D03*
X0473Y02212D03*
X04245Y00964D03*
X04246Y01008D03*
X06146Y03894D03*
X06359Y03901D03*
X05423Y04213D03*
X0391Y00798D03*
X02896Y00762D03*
X04049Y01267D03*
X02739Y00902D03*
X02768Y00903D03*
X04054Y00854D03*
X04181Y00954D03*
X0336Y01313D03*
X03707Y01322D03*
X0331Y0131D03*
X03068Y01829D03*
X0326Y01306D03*
X03924Y01262D03*
X03415Y0052D03*
X04214Y00795D03*
X04214Y00888D03*
X05944Y01197D03*
X05494Y01186D03*
X05558Y01212D03*
X04077Y0545D03*
X04474Y05335D03*
X03451Y04595D03*
X06013Y04349D03*
X0483Y02093D03*
X03754Y01005D03*
X03773Y00965D03*
X0401Y02415D03*
X03975Y02416D03*
X038Y01065D03*
X03202Y01046D03*
X02883Y02346D03*
X03088Y02348D03*
X04692Y02839D03*
X02685Y01168D03*
X03048Y04234D03*
X03029Y04252D03*
X06761Y01773D03*
X0622Y02535D03*
X0626Y02575D03*
X06298Y02615D03*
X06358Y02459D03*
X06365Y02483D03*
X06404Y02555D03*
X06438Y02533D03*
X05179Y0504D03*
X05126Y05038D03*
X0671Y01963D03*
X06174Y00915D03*
X06444Y01751D03*
X06682Y02323D03*
X06615Y02407D03*
X06241Y0174D03*
X063Y01766D03*
X06565Y02385D03*
X05722Y00758D03*
X05828Y00796D03*
X04912Y01688D03*
X04932Y01831D03*
X04928Y044D03*
X0485Y04401D03*
X04856Y02165D03*
X05622Y01055D03*
X05591Y01092D03*
X03145Y01225D03*
X03689Y00581D03*
X03462Y01909D03*
X0345Y01874D03*
X03727Y02361D03*
X03632Y02384D03*
X03607D03*
X03386Y02149D03*
X03397Y02382D03*
X03415Y02364D03*
X0337Y02123D03*
X03396D03*
X03473Y02399D03*
X03445Y02381D03*
X03541Y02068D03*
X03523Y0205D03*
X03577Y02069D03*
Y02095D03*
X03516Y02354D03*
X03535Y02373D03*
X02825Y02395D03*
Y0236D03*
X02473Y02076D03*
X02447Y0208D03*
X02826Y02145D03*
X02855Y0215D03*
X02475Y02365D03*
X02445D03*
X02532Y02397D03*
X0251Y02371D03*
X0304Y01015D03*
X03066Y01015D03*
X02936Y02356D03*
X0291Y02355D03*
X03142Y00844D03*
X03123Y00862D03*
X02811Y01845D03*
X02785D03*
X03009Y00812D03*
Y00838D03*
X02639Y0086D03*
X02666Y00859D03*
X0227Y00762D03*
X02275Y00692D03*
X01737Y00727D03*
X01655Y04766D03*
X0055Y0601D03*
Y05985D03*
Y05955D03*
Y0593D03*
X0087Y0601D03*
X00745Y0599D03*
Y05965D03*
Y0593D03*
X0078Y06025D03*
Y05985D03*
Y05945D03*
X00725Y0601D03*
X00845Y06025D03*
X01945Y0534D03*
X04325Y02155D03*
X02233Y02551D03*
X02037Y02565D03*
X01995Y022D03*
X02233Y0215D03*
X02412Y02148D03*
X02625Y0215D03*
X0274D03*
X03025D03*
X0314D03*
X03199Y02148D03*
X03316Y02151D03*
X03592Y02148D03*
X03788Y02141D03*
X04325Y02545D03*
X03198Y02559D03*
X03021Y02558D03*
X02824Y02559D03*
X02435Y02555D03*
X02627Y02557D03*
X0397Y02627D03*
X0223Y0482D03*
X0225Y04815D03*
X0208Y0506D03*
X02075Y0511D03*
X0208Y05155D03*
X02165D03*
Y05065D03*
X02172Y05112D03*
X0246Y05015D03*
X0229Y0508D03*
X00805Y0221D03*
X02536Y04645D03*
X02415D03*
X02135Y04765D03*
X0161Y0277D03*
X02445D03*
X0257Y02355D03*
X0231Y0232D03*
X02305Y02395D03*
X02309Y0281D03*
X02346D03*
X0213Y03683D03*
Y03646D03*
X02376Y02355D03*
X02414D03*
X0427Y04365D03*
X0398Y0367D03*
X04135Y0239D03*
X0406Y0235D03*
X04015Y0237D03*
X03275Y0352D03*
X03375Y0358D03*
X03796Y03638D03*
X0326Y0236D03*
X03335Y02335D03*
X03695Y02365D03*
X03845Y02335D03*
X01805Y0102D03*
X02174Y01895D03*
X0207Y0175D03*
X02275Y0213D03*
X02215Y02033D03*
X0222Y02119D03*
X0211Y0184D03*
X02149Y01925D03*
X0208Y02055D03*
Y0211D03*
X04144Y0129D03*
X04245Y01465D03*
X04347Y0148D03*
X06025Y0209D03*
X04075Y0099D03*
X0599Y0361D03*
X05968Y03528D03*
X03646Y0508D03*
X0771Y04785D03*
X0495Y0345D03*
X05219Y03682D03*
X0431Y01336D03*
X01445Y01322D03*
X01295Y01327D03*
X0114D03*
X0109D03*
X01495Y01487D03*
X01345Y01482D03*
X0119D03*
X01045Y01477D03*
X0159Y00887D03*
X01545Y00852D03*
X013Y00877D03*
X0128Y00832D03*
X01123Y00817D03*
X01145Y00872D03*
X01495Y01082D03*
X01345D03*
X0119D03*
X01045Y01077D03*
X03135Y01095D03*
X0329Y01695D03*
X0305Y0172D03*
X04075Y0109D03*
X03925Y01D03*
X0396Y0097D03*
X04035Y0098D03*
X03955Y01035D03*
X0404Y0113D03*
X03925Y01125D03*
X04275Y01285D03*
X0367Y0112D03*
X07365Y0067D03*
X07325Y00825D03*
X06735Y018D03*
X0629Y0248D03*
X06315Y02495D03*
X0636Y02525D03*
X02825Y0502D03*
X0274D03*
X02635D03*
X028Y05195D03*
X0272D03*
X02635D03*
X01965Y0539D03*
Y05415D03*
Y0544D03*
X01985Y0539D03*
Y05415D03*
Y0544D03*
X02005Y0539D03*
Y05415D03*
Y0544D03*
X0167Y04745D03*
X01645D03*
X0164Y0511D03*
X01665D03*
Y0515D03*
X0169Y0511D03*
Y0515D03*
X0229Y05135D03*
X06355Y0526D03*
X045Y0569D03*
X05965Y0315D03*
X0598Y03435D03*
X06295Y01845D03*
X06737Y02363D03*
X08015Y0048D03*
X0718Y0067D03*
X06751Y01635D03*
X06725D03*
X02615Y00415D03*
X02695Y00265D03*
X0305D03*
X07365Y0075D03*
X0163Y00652D03*
X0204Y01082D03*
X01765Y01162D03*
X01065Y02245D03*
X0103Y02315D03*
X0112Y0289D03*
Y0284D03*
Y0279D03*
Y0309D03*
Y0314D03*
Y0319D03*
X011Y03739D03*
X01095Y03889D03*
X01105Y03589D03*
X02455Y0492D03*
X0199Y0468D03*
X0197Y04825D03*
X0271Y04725D03*
X02165Y0485D03*
X0498Y0369D03*
X03635Y04972D03*
X03565Y04935D03*
X0404Y0491D03*
X0411Y04965D03*
X05315Y03475D03*
X0492Y03235D03*
X0514Y03245D03*
X05325Y03252D03*
X05265Y03325D03*
X05315Y0343D03*
X05303Y03157D03*
X05115Y0315D03*
X049Y0314D03*
X05135Y0391D03*
X05175Y03705D03*
X05295Y0367D03*
X0528Y03535D03*
X0597Y03695D03*
X05968Y03353D03*
X05973Y03776D03*
X0421Y05505D03*
X04095Y05775D03*
X06705Y01905D03*
X06324Y02371D03*
X00895Y0546D03*
X04535Y0443D03*
X04613Y04431D03*
X04064Y02549D03*
X04085Y0257D03*
X04105Y02595D03*
X04162Y02157D03*
X04143Y02141D03*
X04123Y02166D03*
X04103Y02146D03*
X04084Y0217D03*
X04064Y02145D03*
X03819Y0113D03*
X03315Y0056D03*
X0703Y0459D03*
X04692Y04867D03*
X04771Y04856D03*
X0469Y04835D03*
X04771D03*
X031Y04155D03*
X03125Y05495D03*
X00965Y05565D03*
X0093D03*
Y05525D03*
X0096D03*
X00945Y05545D03*
X03861Y00684D03*
X03877Y00634D03*
X03914Y00652D03*
X04033Y00421D03*
X03914Y00626D03*
X04006Y00424D03*
X04013Y0076D03*
X04068Y00576D03*
X04038Y0076D03*
X04086Y00594D03*
X04075Y0063D03*
X04072Y00757D03*
X03911Y0083D03*
G54D151*
X05135Y05295D03*
X01755Y05325D03*
X0613Y0278D03*
X0121Y04915D03*
X00845Y05745D03*
X01015Y05955D03*
X02435Y04995D03*
X024Y05215D03*
X02395Y05255D03*
Y04975D03*
X0604Y02695D03*
X06085Y02735D03*
X06185Y02825D03*
X06825Y01855D03*
X0206Y0496D03*
X01125Y0299D03*
Y0294D03*
Y0304D03*
X0089Y0334D03*
X00895Y0329D03*
X0089Y0324D03*
X0517Y0549D03*
X0566Y05295D03*
X06275Y0525D03*
X0778Y0481D03*
X07195Y0502D03*
X0806Y0506D03*
X02026Y04853D03*
X07115Y02279D03*
X06195Y0244D03*
X062Y0237D03*
X06115Y0241D03*
X06415Y02705D03*
X0625Y02365D03*
X0687Y02385D03*
X0645Y018D03*
X06325Y01925D03*
X06208Y02015D03*
X06515Y0189D03*
X06386Y02011D03*
X05485Y0173D03*
X05285Y01955D03*
X0532Y01905D03*
X0748Y05D03*
X0738Y0491D03*
X07855Y04915D03*
X0743Y0563D03*
X07455Y05995D03*
X07435Y05255D03*
X0703Y0525D03*
X07755Y05565D03*
X07935Y055D03*
X0758Y05495D03*
X0769Y05685D03*
Y0578D03*
X0722Y0579D03*
X0606Y05245D03*
X0669Y05224D03*
X04775Y05725D03*
X0472Y0572D03*
X0291Y05305D03*
X05015Y05455D03*
X05265Y0546D03*
X0513Y0571D03*
X0421Y0557D03*
X0399Y05675D03*
X0414Y0559D03*
X0417Y05735D03*
X0423Y0564D03*
X04333Y05603D03*
X04425Y05645D03*
X00975Y04715D03*
X0097Y04845D03*
X00965Y04975D03*
X03215Y06085D03*
X03197Y05922D03*
X02925Y05915D03*
X0294Y05705D03*
X01325Y05405D03*
X01215Y05235D03*
Y05285D03*
X01205Y0481D03*
Y04865D03*
X0213Y05315D03*
X0182Y0483D03*
X0195Y0501D03*
X02405Y0514D03*
X0143Y05965D03*
X02175Y0544D03*
X0195Y0523D03*
X0193Y0484D03*
X02525Y05705D03*
X02505Y05895D03*
X02685Y0599D03*
X02115Y05265D03*
X02075Y05295D03*
X0222Y05235D03*
X0188Y0499D03*
X0174Y04995D03*
X0628Y0213D03*
X06325Y021D03*
X06645Y01885D03*
X01625Y01285D03*
X0171Y01052D03*
X0204Y01032D03*
X02075Y01182D03*
X01694Y01437D03*
X0187Y051D03*
X01963Y05138D03*
X0101Y0516D03*
X01005Y0529D03*
X01Y0541D03*
X01115Y0274D03*
Y0269D03*
Y0264D03*
X08015Y05695D03*
G54D152*
X02944Y04695D03*
X03535Y04865D03*
G54D195*
X03134Y00266D03*
M02*