%FSTAX23Y23*%
%MOIN*%
%SFA1B1*%

%IPPOS*%
%ADD204C,0.010000*%
%ADD209C,0.001000*%
%ADD312C,0.019685*%
%ADD314C,0.015000*%
%LNsyncbox_mechanical_3-1*%
%LPD*%
G54D204*
X-00039Y07069D02*
X03602D01*
Y07072D02*
Y07465D01*
X-00039Y07072D02*
Y07465D01*
Y07462D02*
X03602D01*
X-00039D02*
Y08151D01*
X01535Y07462D02*
Y07856D01*
X02913D02*
Y08151D01*
X-00039Y07856D02*
X03602D01*
Y07462D02*
Y08151D01*
X-00039D02*
X03602D01*
X00512Y07811D02*
X00502Y07821D01*
X00482*
X00472Y07811*
Y07771*
X00482Y07761*
X00502*
X00512Y07771*
X00542Y07761D02*
X00562D01*
X00572Y07771*
Y07791*
X00562Y07801*
X00542*
X00532Y07791*
Y07771*
X00542Y07761*
X00592Y07741D02*
Y07801D01*
X00622*
X00632Y07791*
Y07771*
X00622Y07761*
X00592*
X00652Y07801D02*
Y07771D01*
X00662Y07761*
X00692*
Y07751*
X00682Y07741*
X00672*
X00692Y07761D02*
Y07801D01*
X00712D02*
Y07761D01*
Y07781*
X00722Y07791*
X00732Y07801*
X00742*
X00772Y07761D02*
X00792D01*
X00782*
Y07801*
X00772*
X00842Y07741D02*
X00852D01*
X00862Y07751*
Y07801*
X00832*
X00822Y07791*
Y07771*
X00832Y07761*
X00862*
X00882Y07821D02*
Y07761D01*
Y07791*
X00892Y07801*
X00912*
X00922Y07791*
Y07761*
X00952Y07811D02*
Y07801D01*
X00942*
X00962*
X00952*
Y07771*
X00962Y07761*
X00182Y07705D02*
Y07645D01*
X00212*
X00222Y07655*
Y07665*
X00212Y07675*
X00182*
X00212*
X00222Y07685*
Y07695*
X00212Y07705*
X00182*
X00252Y07645D02*
X00272D01*
X00282Y07655*
Y07675*
X00272Y07685*
X00252*
X00242Y07675*
Y07655*
X00252Y07645*
X00322Y07625D02*
X00332D01*
X00342Y07635*
Y07685*
X00312*
X00302Y07675*
Y07655*
X00312Y07645*
X00342*
X00372Y07685D02*
X00392D01*
X00402Y07675*
Y07645*
X00372*
X00362Y07655*
X00372Y07665*
X00402*
X00422Y07685D02*
X00462D01*
X00422Y07645*
X00462*
X00482D02*
X00502D01*
X00492*
Y07685*
X00482*
X00572D02*
X00542D01*
X00532Y07675*
Y07655*
X00542Y07645*
X00572*
X00592D02*
X00612D01*
X00602*
Y07685*
X00592*
X00702Y07705D02*
Y07655D01*
X00712Y07645*
X00732*
X00742Y07655*
Y07705*
X00762Y07645D02*
Y07685D01*
X00792*
X00802Y07675*
Y07645*
X00822D02*
X00842D01*
X00832*
Y07685*
X00822*
X00872D02*
X00892Y07645D01*
X00912Y07685*
X00962Y07645D02*
X00942D01*
X00932Y07655*
Y07675*
X00942Y07685*
X00962*
X00972Y07675*
Y07665*
X00932*
X00992Y07685D02*
Y07645D01*
Y07665*
X01002Y07675*
X01012Y07685*
X01022*
X01052Y07645D02*
X01082D01*
X01092Y07655*
X01082Y07665*
X01062*
X01052Y07675*
X01062Y07685*
X01092*
X01112Y07645D02*
X01132D01*
X01122*
Y07685*
X01112*
X01172Y07695D02*
Y07685D01*
X01162*
X01182*
X01172*
Y07655*
X01182Y07645*
X01212Y07685D02*
Y07655D01*
X01222Y07645*
X01252*
Y07635*
X01242Y07625*
X01232*
X01252Y07645D02*
Y07685D01*
X00652Y0753D02*
X00612D01*
X00652Y07569*
Y07579*
X00642Y07589*
X00622*
X00612Y07579*
X00672D02*
X00682Y07589D01*
X00702*
X00712Y07579*
Y07539*
X00702Y0753*
X00682*
X00672Y07539*
Y07579*
X00732Y0753D02*
X00752D01*
X00742*
Y07589*
X00732Y07579*
X00782D02*
X00792Y07589D01*
X00812*
X00822Y07579*
Y07569*
X00812Y07559*
X00822Y07549*
Y07539*
X00812Y0753*
X00792*
X00782Y07539*
Y07549*
X00792Y07559*
X00782Y07569*
Y07579*
X00792Y07559D02*
X00812D01*
X00167Y07207D02*
X00187D01*
X00197Y07197*
Y07167*
X00167*
X00157Y07177*
X00167Y07187*
X00197*
X00217Y07167D02*
X00237D01*
X00227*
Y07227*
X00217*
X00277Y07217D02*
Y07207D01*
X00267*
X00287*
X00277*
Y07177*
X00287Y07167*
X00327Y07207D02*
X00347D01*
X00357Y07197*
Y07167*
X00327*
X00317Y07177*
X00327Y07187*
X00357*
X00377Y07207D02*
Y07177D01*
X00387Y07167*
X00417*
Y07157*
X00407Y07147*
X00397*
X00417Y07167D02*
Y07207D01*
X00437Y07157D02*
X00477D01*
X00497Y07227D02*
Y07167D01*
X00527*
X00537Y07177*
Y07187*
Y07197*
X00527Y07207*
X00497*
X00557Y07167D02*
Y07207D01*
X00587*
X00597Y07197*
Y07167*
X00647Y07187D02*
Y07197D01*
X00637*
Y07187*
X00647*
X00657Y07197*
Y07217*
X00647Y07227*
X00627*
X00617Y07217*
Y07177*
X00627Y07167*
X00657*
X00677Y07207D02*
Y07177D01*
X00687Y07167*
X00717*
Y07157*
X00707Y07147*
X00697*
X00717Y07167D02*
Y07207D01*
X00747D02*
X00767D01*
X00777Y07197*
Y07167*
X00747*
X00737Y07177*
X00747Y07187*
X00777*
X00797Y07227D02*
Y07167D01*
Y07197*
X00807Y07207*
X00827*
X00837Y07197*
Y07167*
X00867D02*
X00887D01*
X00897Y07177*
Y07197*
X00887Y07207*
X00867*
X00857Y07197*
Y07177*
X00867Y07167*
X00927D02*
X00947D01*
X00957Y07177*
Y07197*
X00947Y07207*
X00927*
X00917Y07197*
Y07177*
X00927Y07167*
X00977D02*
Y07177D01*
X00987*
Y07167*
X00977*
X01067Y07207D02*
X01037D01*
X01027Y07197*
Y07177*
X01037Y07167*
X01067*
X01097D02*
X01117D01*
X01127Y07177*
Y07197*
X01117Y07207*
X01097*
X01087Y07197*
Y07177*
X01097Y07167*
X01147D02*
Y07207D01*
X01157*
X01167Y07197*
Y07167*
Y07197*
X01177Y07207*
X01187Y07197*
Y07167*
X00197Y07315D02*
X00187Y07325D01*
X00167*
X00157Y07315*
Y07275*
X00167Y07265*
X00187*
X00197Y07275*
X00227Y07265D02*
X00247D01*
X00257Y07275*
Y07295*
X00247Y07305*
X00227*
X00217Y07295*
Y07275*
X00227Y07265*
X00277D02*
Y07305D01*
X00307*
X00317Y07295*
Y07265*
X00347Y07315D02*
Y07305D01*
X00337*
X00357*
X00347*
Y07275*
X00357Y07265*
X00397Y07305D02*
X00417D01*
X00427Y07295*
Y07265*
X00397*
X00387Y07275*
X00397Y07285*
X00427*
X00487Y07305D02*
X00457D01*
X00447Y07295*
Y07275*
X00457Y07265*
X00487*
X00517Y07315D02*
Y07305D01*
X00507*
X00527*
X00517*
Y07275*
X00527Y07265*
X00557Y07305D02*
X00567D01*
Y07295*
X00557*
Y07305*
Y07275D02*
X00567D01*
Y07265*
X00557*
Y07275*
X01732Y07601D02*
Y07571D01*
X01742Y07561*
X01752Y07571*
X01762Y07561*
X01772Y07571*
Y07601*
X01792D02*
Y07571D01*
X01802Y07561*
X01812Y07571*
X01822Y07561*
X01832Y07571*
Y07601*
X01852D02*
Y07571D01*
X01862Y07561*
X01872Y07571*
X01882Y07561*
X01892Y07571*
Y07601*
X01912Y07561D02*
Y07571D01*
X01922*
Y07561*
X01912*
X01962Y07621D02*
Y07561D01*
X01992*
X02002Y07571*
Y07581*
Y07591*
X01992Y07601*
X01962*
X02022D02*
Y07571D01*
X02032Y07561*
X02062*
Y07601*
X02082Y07561D02*
Y07571D01*
X02092*
Y07561*
X02082*
X02172Y07601D02*
X02142D01*
X02132Y07591*
Y07571*
X02142Y07561*
X02172*
X02202D02*
X02222D01*
X02232Y07571*
Y07591*
X02222Y07601*
X02202*
X02192Y07591*
Y07571*
X02202Y07561*
X02252D02*
Y07601D01*
X02262*
X02272Y07591*
Y07561*
Y07591*
X02282Y07601*
X02292Y07591*
Y07561*
X02312D02*
Y07571D01*
X02322*
Y07561*
X02312*
X02372Y07611D02*
Y07601D01*
X02362*
X02382*
X02372*
Y07571*
X02382Y07561*
X02412Y07601D02*
Y07561D01*
Y07581*
X02422Y07591*
X02432Y07601*
X02442*
X01732Y07719D02*
Y07659D01*
X01762*
X01772Y07669*
Y07709*
X01762Y07719*
X01732*
X01822Y07659D02*
X01802D01*
X01792Y07669*
Y07689*
X01802Y07699*
X01822*
X01832Y07689*
Y07679*
X01792*
X01852Y07659D02*
X01882D01*
X01892Y07669*
X01882Y07679*
X01862*
X01852Y07689*
X01862Y07699*
X01892*
X01912Y07659D02*
X01932D01*
X01922*
Y07699*
X01912*
X01982Y07639D02*
X01992D01*
X02002Y07649*
Y07699*
X01972*
X01962Y07689*
Y07669*
X01972Y07659*
X02002*
X02022D02*
Y07699D01*
X02052*
X02062Y07689*
Y07659*
X02112D02*
X02092D01*
X02082Y07669*
Y07689*
X02092Y07699*
X02112*
X02122Y07689*
Y07679*
X02082*
X02182Y07719D02*
Y07659D01*
X02152*
X02142Y07669*
Y07689*
X02152Y07699*
X02182*
X02262Y07719D02*
Y07659D01*
X02292*
X02302Y07669*
Y07679*
Y07689*
X02292Y07699*
X02262*
X02322D02*
Y07669D01*
X02332Y07659*
X02362*
Y07649*
X02352Y07639*
X02342*
X02362Y07659D02*
Y07699D01*
X02442Y07659D02*
Y07699D01*
X02462Y07719*
X02482Y07699*
Y07659*
Y07689*
X02442*
X02501Y07719D02*
Y07659D01*
X02541*
X02561Y07719D02*
X02601D01*
X02581*
Y07659*
X02621D02*
Y07699D01*
X02641Y07719*
X02661Y07699*
Y07659*
Y07689*
X02621*
X02681Y07719D02*
Y07709D01*
X02701Y07689*
X02721Y07709*
Y07719*
X02701Y07689D02*
Y07659D01*
X09044Y05277D02*
X09084D01*
X09164Y05247D02*
Y05307D01*
X09194*
X09204Y05297*
Y05277*
X09194Y05267*
X09164*
X09224Y05307D02*
Y05247D01*
X09264*
X09284D02*
Y05287D01*
X09304Y05307*
X09324Y05287*
Y05247*
Y05277*
X09284*
X09384Y05297D02*
X09374Y05307D01*
X09354*
X09344Y05297*
Y05257*
X09354Y05247*
X09374*
X09384Y05257*
X09444Y05307D02*
X09404D01*
Y05247*
X09444*
X09404Y05277D02*
X09424D01*
X09554Y05307D02*
X09534D01*
X09524Y05297*
Y05257*
X09534Y05247*
X09554*
X09564Y05257*
Y05297*
X09554Y05307*
X09584Y05247D02*
Y05307D01*
X09624Y05247*
Y05307*
X09684D02*
X09644D01*
Y05247*
X09684*
X09644Y05277D02*
X09664D01*
X09804Y05307D02*
X09764D01*
Y05277*
X09784*
X09764*
Y05247*
X09824Y05307D02*
X09844D01*
X09834*
Y05247*
X09824*
X09844*
X09874Y05307D02*
Y05247D01*
X09904*
X09914Y05257*
Y05297*
X09904Y05307*
X09874*
X09934D02*
Y05257D01*
X09944Y05247*
X09964*
X09974Y05257*
Y05307*
X10034Y05297D02*
X10024Y05307D01*
X10004*
X09994Y05297*
Y05257*
X10004Y05247*
X10024*
X10034Y05257*
X10054Y05307D02*
X10074D01*
X10064*
Y05247*
X10054*
X10074*
X10104D02*
Y05287D01*
X10124Y05307*
X10144Y05287*
Y05247*
Y05277*
X10104*
X10164Y05307D02*
Y05247D01*
X10204*
X10284Y05307D02*
X10304D01*
X10294*
Y05247*
X10284*
X10304*
X10334D02*
Y05307D01*
X10374Y05247*
Y05307*
X10394D02*
X10434D01*
X10414*
Y05247*
X10484Y05307D02*
X10464D01*
X10454Y05297*
Y05257*
X10464Y05247*
X10484*
X10494Y05257*
Y05297*
X10484Y05307*
X10614D02*
X10574D01*
Y05247*
X10614*
X10574Y05277D02*
X10594D01*
X10634Y05247D02*
Y05287D01*
X10654Y05307*
X10674Y05287*
Y05247*
Y05277*
X10634*
X10734Y05297D02*
X10724Y05307D01*
X10704*
X10694Y05297*
Y05257*
X10704Y05247*
X10724*
X10734Y05257*
X10754Y05307D02*
Y05247D01*
Y05277*
X10794*
Y05307*
Y05247*
X10874D02*
Y05307D01*
X10904*
X10914Y05297*
Y05277*
X10904Y05267*
X10874*
X10934Y05247D02*
Y05287D01*
X10954Y05307*
X10974Y05287*
Y05247*
Y05277*
X10934*
X10994Y05247D02*
Y05307D01*
X11034Y05247*
Y05307*
X11094D02*
X11054D01*
Y05247*
X11094*
X11054Y05277D02*
X11074D01*
X11114Y05307D02*
Y05247D01*
X11154*
X11273Y05297D02*
X11263Y05307D01*
X11243*
X11233Y05297*
Y05257*
X11243Y05247*
X11263*
X11273Y05257*
X11323Y05307D02*
X11303D01*
X11293Y05297*
Y05257*
X11303Y05247*
X11323*
X11333Y05257*
Y05297*
X11323Y05307*
X11353Y05247D02*
Y05307D01*
X11383*
X11393Y05297*
Y05277*
X11383Y05267*
X11353*
X11373D02*
X11393Y05247D01*
X11413D02*
Y05307D01*
X11453Y05247*
Y05307*
X11513D02*
X11473D01*
Y05247*
X11513*
X11473Y05277D02*
X11493D01*
X11533Y05247D02*
Y05307D01*
X11563*
X11573Y05297*
Y05277*
X11563Y05267*
X11533*
X11553D02*
X11573Y05247D01*
X11673D02*
X11653Y05267D01*
Y05287*
X11673Y05307*
X11743D02*
X11703D01*
Y05277*
X11723*
X11703*
Y05247*
X11793Y05307D02*
X11773D01*
X11763Y05297*
Y05257*
X11773Y05247*
X11793*
X11803Y05257*
Y05297*
X11793Y05307*
X11823D02*
Y05257D01*
X11833Y05247*
X11853*
X11863Y05257*
Y05307*
X11883Y05247D02*
Y05307D01*
X11913*
X11923Y05297*
Y05277*
X11913Y05267*
X11883*
X11903D02*
X11923Y05247D01*
X12033Y05307D02*
X12013D01*
X12003Y05297*
Y05257*
X12013Y05247*
X12033*
X12043Y05257*
Y05297*
X12033Y05307*
X12063Y05247D02*
Y05307D01*
X12103Y05247*
Y05307*
X12183D02*
X12223D01*
X12203*
Y05247*
X12243Y05307D02*
Y05247D01*
Y05277*
X12283*
Y05307*
Y05247*
X12343Y05307D02*
X12303D01*
Y05247*
X12343*
X12303Y05277D02*
X12323D01*
X12423Y05307D02*
X12463D01*
X12443*
Y05247*
X12513Y05307D02*
X12493D01*
X12483Y05297*
Y05257*
X12493Y05247*
X12513*
X12523Y05257*
Y05297*
X12513Y05307*
X12543Y05247D02*
Y05307D01*
X12573*
X12583Y05297*
Y05277*
X12573Y05267*
X12543*
X12663Y05247D02*
Y05287D01*
X12683Y05307*
X12703Y05287*
Y05247*
Y05277*
X12663*
X12723Y05247D02*
Y05307D01*
X12763Y05247*
Y05307*
X12783D02*
Y05247D01*
X12813*
X12823Y05257*
Y05297*
X12813Y05307*
X12783*
X12943D02*
X12903D01*
Y05277*
X12923*
X12903*
Y05247*
X12993Y05307D02*
X12973D01*
X12963Y05297*
Y05257*
X12973Y05247*
X12993*
X13003Y05257*
Y05297*
X12993Y05307*
X13023D02*
Y05257D01*
X13033Y05247*
X13053*
X13063Y05257*
Y05307*
X13083Y05247D02*
Y05307D01*
X13113*
X13123Y05297*
Y05277*
X13113Y05267*
X13083*
X13103D02*
X13123Y05247D01*
X13233Y05307D02*
X13213D01*
X13203Y05297*
Y05257*
X13213Y05247*
X13233*
X13243Y05257*
Y05297*
X13233Y05307*
X13263Y05247D02*
Y05307D01*
X13303Y05247*
Y05307*
X13383D02*
X13423D01*
X13403*
Y05247*
X13443Y05307D02*
Y05247D01*
Y05277*
X13483*
Y05307*
Y05247*
X13543Y05307D02*
X13503D01*
Y05247*
X13543*
X13503Y05277D02*
X13523D01*
X13623Y05307D02*
Y05247D01*
X13653*
X13663Y05257*
Y05267*
X13653Y05277*
X13623*
X13653*
X13663Y05287*
Y05297*
X13653Y05307*
X13623*
X13713D02*
X13693D01*
X13683Y05297*
Y05257*
X13693Y05247*
X13713*
X13723Y05257*
Y05297*
X13713Y05307*
X13743D02*
X13783D01*
X13763*
Y05247*
X13803Y05307D02*
X13843D01*
X13823*
Y05247*
X13893Y05307D02*
X13873D01*
X13863Y05297*
Y05257*
X13873Y05247*
X13893*
X13903Y05257*
Y05297*
X13893Y05307*
X13923Y05247D02*
Y05307D01*
X13943Y05287*
X13963Y05307*
Y05247*
X14043Y05307D02*
Y05247D01*
X14083*
X14103D02*
Y05287D01*
X14123Y05307*
X14143Y05287*
Y05247*
Y05277*
X14103*
X14163Y05307D02*
Y05297D01*
X14183Y05277*
X14203Y05297*
Y05307*
X14183Y05277D02*
Y05247D01*
X14262Y05307D02*
X14223D01*
Y05247*
X14262*
X14223Y05277D02*
X14243D01*
X14282Y05247D02*
Y05307D01*
X14312*
X14322Y05297*
Y05277*
X14312Y05267*
X14282*
X14302D02*
X14322Y05247D01*
X14342D02*
X14362Y05267D01*
Y05287*
X14342Y05307*
X09044Y05375D02*
X09084D01*
X09164Y05395D02*
X09174Y05405D01*
X09194*
X09204Y05395*
Y05385*
X09194Y05375*
X09184*
X09194*
X09204Y05365*
Y05355*
X09194Y05345*
X09174*
X09164Y05355*
X09324Y05405D02*
X09284D01*
Y05375*
X09304*
X09284*
Y05345*
X09344Y05405D02*
X09364D01*
X09354*
Y05345*
X09344*
X09364*
X09394Y05405D02*
Y05345D01*
X09424*
X09434Y05355*
Y05395*
X09424Y05405*
X09394*
X09454D02*
Y05355D01*
X09464Y05345*
X09484*
X09494Y05355*
Y05405*
X09554Y05395D02*
X09544Y05405D01*
X09524*
X09514Y05395*
Y05355*
X09524Y05345*
X09544*
X09554Y05355*
X09574Y05405D02*
X09594D01*
X09584*
Y05345*
X09574*
X09594*
X09624D02*
Y05385D01*
X09644Y05405*
X09664Y05385*
Y05345*
Y05375*
X09624*
X09684Y05405D02*
Y05345D01*
X09724*
X09784Y05395D02*
X09774Y05405D01*
X09754*
X09744Y05395*
Y05385*
X09754Y05375*
X09774*
X09784Y05365*
Y05355*
X09774Y05345*
X09754*
X09744Y05355*
X09904Y05395D02*
X09894Y05405D01*
X09874*
X09864Y05395*
Y05385*
X09874Y05375*
X09894*
X09904Y05365*
Y05355*
X09894Y05345*
X09874*
X09864Y05355*
X09924Y05405D02*
Y05345D01*
Y05375*
X09964*
Y05405*
Y05345*
X10014Y05405D02*
X09994D01*
X09984Y05395*
Y05355*
X09994Y05345*
X10014*
X10024Y05355*
Y05395*
X10014Y05405*
X10044D02*
Y05355D01*
X10054Y05345*
X10074*
X10084Y05355*
Y05405*
X10104D02*
Y05345D01*
X10144*
X10164Y05405D02*
Y05345D01*
X10194*
X10204Y05355*
Y05395*
X10194Y05405*
X10164*
X10284D02*
Y05345D01*
X10324*
X10344Y05405D02*
X10364D01*
X10354*
Y05345*
X10344*
X10364*
X10434Y05405D02*
X10394D01*
Y05345*
X10434*
X10394Y05375D02*
X10414D01*
X10544Y05405D02*
X10524D01*
X10514Y05395*
Y05355*
X10524Y05345*
X10544*
X10554Y05355*
Y05395*
X10544Y05405*
X10574Y05345D02*
Y05405D01*
X10614Y05345*
Y05405*
X10694D02*
X10734D01*
X10714*
Y05345*
X10754Y05405D02*
Y05345D01*
X10774Y05365*
X10794Y05345*
Y05405*
X10844D02*
X10824D01*
X10814Y05395*
Y05355*
X10824Y05345*
X10844*
X10854Y05355*
Y05395*
X10844Y05405*
X10934D02*
Y05345D01*
X10974*
X10994Y05405D02*
X11014D01*
X11004*
Y05345*
X10994*
X11014*
X11044D02*
Y05405D01*
X11084Y05345*
Y05405*
X11144D02*
X11104D01*
Y05345*
X11144*
X11104Y05375D02*
X11124D01*
X11203Y05395D02*
X11193Y05405D01*
X11173*
X11163Y05395*
Y05385*
X11173Y05375*
X11193*
X11203Y05365*
Y05355*
X11193Y05345*
X11173*
X11163Y05355*
X11283Y05405D02*
X11323D01*
X11303*
Y05345*
X11343Y05405D02*
Y05345D01*
Y05375*
X11383*
Y05405*
Y05345*
X11403D02*
Y05385D01*
X11423Y05405*
X11443Y05385*
Y05345*
Y05375*
X11403*
X11463Y05405D02*
X11503D01*
X11483*
Y05345*
X11583Y05405D02*
X11603D01*
X11593*
Y05345*
X11583*
X11603*
X11633D02*
Y05405D01*
X11673Y05345*
Y05405*
X11693D02*
X11733D01*
X11713*
Y05345*
X11793Y05405D02*
X11753D01*
Y05345*
X11793*
X11753Y05375D02*
X11773D01*
X11813Y05345D02*
Y05405D01*
X11843*
X11853Y05395*
Y05375*
X11843Y05365*
X11813*
X11833D02*
X11853Y05345D01*
X11913Y05395D02*
X11903Y05405D01*
X11883*
X11873Y05395*
Y05385*
X11883Y05375*
X11903*
X11913Y05365*
Y05355*
X11903Y05345*
X11883*
X11873Y05355*
X11973Y05405D02*
X11933D01*
Y05345*
X11973*
X11933Y05375D02*
X11953D01*
X12033Y05395D02*
X12023Y05405D01*
X12003*
X11993Y05395*
Y05355*
X12003Y05345*
X12023*
X12033Y05355*
X12053Y05405D02*
X12093D01*
X12073*
Y05345*
X12173D02*
Y05385D01*
X12193Y05405*
X12213Y05385*
Y05345*
Y05375*
X12173*
X12233Y05405D02*
X12273D01*
X12253*
Y05345*
X12353D02*
Y05385D01*
X12373Y05405*
X12393Y05385*
Y05345*
Y05375*
X12353*
X12473Y05345D02*
Y05405D01*
X12503*
X12513Y05395*
Y05375*
X12503Y05365*
X12473*
X12493D02*
X12513Y05345D01*
X12533Y05405D02*
X12553D01*
X12543*
Y05345*
X12533*
X12553*
X12623Y05395D02*
X12613Y05405D01*
X12593*
X12583Y05395*
Y05355*
X12593Y05345*
X12613*
X12623Y05355*
Y05375*
X12603*
X12643Y05405D02*
Y05345D01*
Y05375*
X12683*
Y05405*
Y05345*
X12703Y05405D02*
X12743D01*
X12723*
Y05345*
X12823D02*
Y05385D01*
X12843Y05405*
X12863Y05385*
Y05345*
Y05375*
X12823*
X12883Y05345D02*
Y05405D01*
X12923Y05345*
Y05405*
X12983Y05395D02*
X12973Y05405D01*
X12953*
X12943Y05395*
Y05355*
X12953Y05345*
X12973*
X12983Y05355*
Y05375*
X12963*
X13003Y05405D02*
Y05345D01*
X13043*
X13103Y05405D02*
X13063D01*
Y05345*
X13103*
X13063Y05375D02*
X13083D01*
X09044Y05474D02*
X09084D01*
X09164Y05444D02*
Y05504D01*
X09184Y05484*
X09204Y05504*
Y05444*
X09224Y05504D02*
X09244D01*
X09234*
Y05444*
X09224*
X09244*
X09274D02*
Y05504D01*
X09314Y05444*
Y05504*
X09334D02*
X09354D01*
X09344*
Y05444*
X09334*
X09354*
X09384D02*
Y05504D01*
X09404Y05484*
X09424Y05504*
Y05444*
X09444Y05504D02*
Y05454D01*
X09454Y05444*
X09474*
X09484Y05454*
Y05504*
X09504Y05444D02*
Y05504D01*
X09524Y05484*
X09544Y05504*
Y05444*
X09654D02*
Y05504D01*
X09624Y05474*
X09664*
X09684Y05444D02*
Y05504D01*
X09704Y05484*
X09724Y05504*
Y05444*
X09744D02*
Y05504D01*
X09764Y05484*
X09784Y05504*
Y05444*
X09864Y05504D02*
Y05444D01*
X09894*
X09904Y05454*
Y05494*
X09894Y05504*
X09864*
X09924D02*
X09944D01*
X09934*
Y05444*
X09924*
X09944*
X10014Y05494D02*
X10004Y05504D01*
X09984*
X09974Y05494*
Y05484*
X09984Y05474*
X10004*
X10014Y05464*
Y05454*
X10004Y05444*
X09984*
X09974Y05454*
X10034Y05504D02*
X10074D01*
X10054*
Y05444*
X10094D02*
Y05484D01*
X10114Y05504*
X10134Y05484*
Y05444*
Y05474*
X10094*
X10154Y05444D02*
Y05504D01*
X10194Y05444*
Y05504*
X10254Y05494D02*
X10244Y05504D01*
X10224*
X10214Y05494*
Y05454*
X10224Y05444*
X10244*
X10254Y05454*
X10314Y05504D02*
X10274D01*
Y05444*
X10314*
X10274Y05474D02*
X10294D01*
X10434Y05504D02*
X10394D01*
Y05474*
X10414*
X10394*
Y05444*
X10454D02*
Y05504D01*
X10484*
X10494Y05494*
Y05474*
X10484Y05464*
X10454*
X10474D02*
X10494Y05444D01*
X10544Y05504D02*
X10524D01*
X10514Y05494*
Y05454*
X10524Y05444*
X10544*
X10554Y05454*
Y05494*
X10544Y05504*
X10574Y05444D02*
Y05504D01*
X10594Y05484*
X10614Y05504*
Y05444*
X10694Y05504D02*
X10734D01*
X10714*
Y05444*
X10754Y05504D02*
Y05444D01*
Y05474*
X10794*
Y05504*
Y05444*
X10854Y05504D02*
X10814D01*
Y05444*
X10854*
X10814Y05474D02*
X10834D01*
X10934Y05444D02*
Y05504D01*
X10964*
X10974Y05494*
Y05474*
X10964Y05464*
X10934*
X10994Y05444D02*
Y05484D01*
X11014Y05504*
X11034Y05484*
Y05444*
Y05474*
X10994*
X11054Y05444D02*
Y05504D01*
X11094Y05444*
Y05504*
X11154D02*
X11114D01*
Y05444*
X11154*
X11114Y05474D02*
X11134D01*
X11173Y05504D02*
Y05444D01*
X11213*
X11333Y05504D02*
X11293D01*
Y05444*
X11333*
X11293Y05474D02*
X11313D01*
X11353Y05504D02*
Y05444D01*
X11383*
X11393Y05454*
Y05494*
X11383Y05504*
X11353*
X11453Y05494D02*
X11443Y05504D01*
X11423*
X11413Y05494*
Y05454*
X11423Y05444*
X11443*
X11453Y05454*
Y05474*
X11433*
X11513Y05504D02*
X11473D01*
Y05444*
X11513*
X11473Y05474D02*
X11493D01*
X09044Y05572D02*
X09084D01*
X09204Y05602D02*
X09164D01*
Y05572*
X09184*
X09164*
Y05542*
X09224Y05602D02*
X09244D01*
X09234*
Y05542*
X09224*
X09244*
X09274Y05602D02*
Y05542D01*
X09304*
X09314Y05552*
Y05592*
X09304Y05602*
X09274*
X09334D02*
Y05552D01*
X09344Y05542*
X09364*
X09374Y05552*
Y05602*
X09434Y05592D02*
X09424Y05602D01*
X09404*
X09394Y05592*
Y05552*
X09404Y05542*
X09424*
X09434Y05552*
X09454Y05602D02*
X09474D01*
X09464*
Y05542*
X09454*
X09474*
X09504D02*
Y05582D01*
X09524Y05602*
X09544Y05582*
Y05542*
Y05572*
X09504*
X09564Y05602D02*
Y05542D01*
X09604*
X09684Y05602D02*
Y05542D01*
X09714*
X09724Y05552*
Y05592*
X09714Y05602*
X09684*
X09744D02*
X09764D01*
X09754*
Y05542*
X09744*
X09764*
X09794D02*
Y05582D01*
X09814Y05602*
X09834Y05582*
Y05542*
Y05572*
X09794*
X09854Y05542D02*
Y05602D01*
X09874Y05582*
X09894Y05602*
Y05542*
X09914Y05602D02*
X09954D01*
X09934*
Y05542*
X10014Y05602D02*
X09974D01*
Y05542*
X10014*
X09974Y05572D02*
X09994D01*
X10034Y05542D02*
Y05602D01*
X10064*
X10074Y05592*
Y05572*
X10064Y05562*
X10034*
X10054D02*
X10074Y05542D01*
X10154D02*
X10174D01*
X10164*
Y05602*
X10154Y05592*
X10204Y05572D02*
X10244D01*
X10264Y05542D02*
X10284D01*
X10274*
Y05602*
X10264Y05592*
X10314Y05542D02*
Y05552D01*
X10324*
Y05542*
X10314*
X10404Y05602D02*
X10364D01*
Y05572*
X10384Y05582*
X10394*
X10404Y05572*
Y05552*
X10394Y05542*
X10374*
X10364Y05552*
X10424Y05542D02*
Y05602D01*
X10444Y05582*
X10464Y05602*
Y05542*
X10484D02*
Y05602D01*
X10504Y05582*
X10524Y05602*
Y05542*
X10554Y05532D02*
X10564Y05542D01*
Y05552*
X10554*
Y05542*
X10564*
X10554Y05532*
X10544Y05522*
X10704Y05592D02*
X10694Y05602D01*
X10674*
X10664Y05592*
Y05582*
X10674Y05572*
X10694*
X10704Y05562*
Y05552*
X10694Y05542*
X10674*
X10664Y05552*
X10754Y05602D02*
X10734D01*
X10724Y05592*
Y05552*
X10734Y05542*
X10754*
X10764Y05552*
Y05592*
X10754Y05602*
X10784D02*
Y05542D01*
X10824*
X10844Y05602D02*
Y05542D01*
X10874*
X10884Y05552*
Y05592*
X10874Y05602*
X10844*
X10944D02*
X10904D01*
Y05542*
X10944*
X10904Y05572D02*
X10924D01*
X10964Y05542D02*
Y05602D01*
X10994*
X11004Y05592*
Y05572*
X10994Y05562*
X10964*
X10984D02*
X11004Y05542D01*
X11084D02*
Y05602D01*
X11104Y05582*
X11124Y05602*
Y05542*
X11144D02*
Y05582D01*
X11163Y05602*
X11183Y05582*
Y05542*
Y05572*
X11144*
X11243Y05592D02*
X11233Y05602D01*
X11213*
X11203Y05592*
Y05582*
X11213Y05572*
X11233*
X11243Y05562*
Y05552*
X11233Y05542*
X11213*
X11203Y05552*
X11263Y05602D02*
Y05542D01*
Y05562*
X11303Y05602*
X11273Y05572*
X11303Y05542*
X11413Y05602D02*
X11393D01*
X11383Y05592*
Y05552*
X11393Y05542*
X11413*
X11423Y05552*
Y05592*
X11413Y05602*
X11443Y05542D02*
Y05602D01*
X11473*
X11483Y05592*
Y05572*
X11473Y05562*
X11443*
X11543Y05602D02*
X11503D01*
Y05542*
X11543*
X11503Y05572D02*
X11523D01*
X11563Y05542D02*
Y05602D01*
X11603Y05542*
Y05602*
X11623D02*
X11643D01*
X11633*
Y05542*
X11623*
X11643*
X11673D02*
Y05602D01*
X11713Y05542*
Y05602*
X11773Y05592D02*
X11763Y05602D01*
X11743*
X11733Y05592*
Y05552*
X11743Y05542*
X11763*
X11773Y05552*
Y05572*
X11753*
X11853Y05542D02*
Y05582D01*
X11873Y05602*
X11893Y05582*
Y05542*
Y05572*
X11853*
X11913Y05602D02*
X11953D01*
X11933*
Y05542*
X12033Y05602D02*
Y05542D01*
X12073*
X12133Y05602D02*
X12093D01*
Y05542*
X12133*
X12093Y05572D02*
X12113D01*
X12153Y05542D02*
Y05582D01*
X12173Y05602*
X12193Y05582*
Y05542*
Y05572*
X12153*
X12253Y05592D02*
X12243Y05602D01*
X12223*
X12213Y05592*
Y05582*
X12223Y05572*
X12243*
X12253Y05562*
Y05552*
X12243Y05542*
X12223*
X12213Y05552*
X12273Y05602D02*
X12313D01*
X12293*
Y05542*
X12393D02*
X12413D01*
X12403*
Y05602*
X12393Y05592*
X12443Y05542D02*
Y05602D01*
X12463Y05582*
X12483Y05602*
Y05542*
X12503D02*
Y05602D01*
X12523Y05582*
X12543Y05602*
Y05542*
X12663Y05592D02*
X12653Y05602D01*
X12633*
X12623Y05592*
Y05552*
X12633Y05542*
X12653*
X12663Y05552*
Y05572*
X12643*
X12683Y05542D02*
Y05602D01*
X12713*
X12723Y05592*
Y05572*
X12713Y05562*
X12683*
X12703D02*
X12723Y05542D01*
X12783Y05602D02*
X12743D01*
Y05542*
X12783*
X12743Y05572D02*
X12763D01*
X12803Y05542D02*
Y05582D01*
X12823Y05602*
X12843Y05582*
Y05542*
Y05572*
X12803*
X12863Y05602D02*
X12903D01*
X12883*
Y05542*
X12963Y05602D02*
X12923D01*
Y05542*
X12963*
X12923Y05572D02*
X12943D01*
X12983Y05542D02*
Y05602D01*
X13013*
X13023Y05592*
Y05572*
X13013Y05562*
X12983*
X13003D02*
X13023Y05542D01*
X13103Y05602D02*
X13143D01*
X13123*
Y05542*
X13163Y05602D02*
Y05542D01*
Y05572*
X13203*
Y05602*
Y05542*
X13223D02*
Y05582D01*
X13243Y05602*
X13263Y05582*
Y05542*
Y05572*
X13223*
X13283Y05542D02*
Y05602D01*
X13323Y05542*
Y05602*
X13443D02*
X13403D01*
Y05572*
X13423*
X13403*
Y05542*
X13463Y05602D02*
X13483D01*
X13473*
Y05542*
X13463*
X13483*
X13513Y05602D02*
Y05542D01*
X13543*
X13553Y05552*
Y05592*
X13543Y05602*
X13513*
X13573D02*
Y05552D01*
X13583Y05542*
X13603*
X13613Y05552*
Y05602*
X13673Y05592D02*
X13663Y05602D01*
X13643*
X13633Y05592*
Y05552*
X13643Y05542*
X13663*
X13673Y05552*
X13693Y05602D02*
X13713D01*
X13703*
Y05542*
X13693*
X13713*
X13743D02*
Y05582D01*
X13763Y05602*
X13783Y05582*
Y05542*
Y05572*
X13743*
X13803Y05602D02*
Y05542D01*
X13843*
X08847Y057D02*
X08887D01*
Y0569*
X08847Y0565*
Y0564*
X08907D02*
Y0565D01*
X08917*
Y0564*
X08907*
X09017D02*
Y057D01*
X09047*
X09057Y0569*
Y0567*
X09047Y0566*
X09017*
X09077Y0564D02*
Y0568D01*
X09097Y057*
X09117Y0568*
Y0564*
Y0567*
X09077*
X09137Y0564D02*
Y057D01*
X09177Y0564*
Y057*
X09237D02*
X09197D01*
Y0564*
X09237*
X09197Y0567D02*
X09217D01*
X09257Y057D02*
Y0564D01*
X09297*
X09317Y057D02*
X09337D01*
X09327*
Y0564*
X09317*
X09337*
X09367Y057D02*
X09407D01*
Y0569*
X09367Y0565*
Y0564*
X09407*
X09467Y057D02*
X09427D01*
Y0564*
X09467*
X09427Y0567D02*
X09447D01*
X09547Y057D02*
X09587D01*
X09567*
Y0564*
X09607Y057D02*
Y0564D01*
Y0567*
X09647*
Y057*
Y0564*
X09707Y057D02*
X09667D01*
Y0564*
X09707*
X09667Y0567D02*
X09687D01*
X09787Y057D02*
Y0564D01*
X09817*
X09827Y0565*
Y0566*
X09817Y0567*
X09787*
X09817*
X09827Y0568*
Y0569*
X09817Y057*
X09787*
X09877D02*
X09857D01*
X09847Y0569*
Y0565*
X09857Y0564*
X09877*
X09887Y0565*
Y0569*
X09877Y057*
X09907Y0564D02*
Y0568D01*
X09927Y057*
X09947Y0568*
Y0564*
Y0567*
X09907*
X09967Y0564D02*
Y057D01*
X09997*
X10007Y0569*
Y0567*
X09997Y0566*
X09967*
X09987D02*
X10007Y0564D01*
X10027Y057D02*
Y0564D01*
X10057*
X10067Y0565*
Y0569*
X10057Y057*
X10027*
X10167Y0564D02*
X10147Y0566D01*
Y0568*
X10167Y057*
X10237Y0564D02*
X10197D01*
X10237Y0568*
Y0569*
X10227Y057*
X10207*
X10197Y0569*
X10257Y0564D02*
Y057D01*
X10287*
X10297Y0569*
Y0567*
X10287Y0566*
X10257*
X10357Y0569D02*
X10347Y057D01*
X10327*
X10317Y0569*
Y0565*
X10327Y0564*
X10347*
X10357Y0565*
X10417Y0569D02*
X10407Y057D01*
X10387*
X10377Y0569*
Y0568*
X10387Y0567*
X10407*
X10417Y0566*
Y0565*
X10407Y0564*
X10387*
X10377Y0565*
X10497Y0564D02*
Y057D01*
X10527*
X10537Y0569*
Y0567*
X10527Y0566*
X10497*
X10597Y057D02*
X10557D01*
Y0564*
X10597*
X10557Y0567D02*
X10577D01*
X10617Y0564D02*
Y057D01*
X10647*
X10657Y0569*
Y0567*
X10647Y0566*
X10617*
X10637D02*
X10657Y0564D01*
X10737D02*
Y057D01*
X10767*
X10777Y0569*
Y0567*
X10767Y0566*
X10737*
X10797Y0564D02*
Y0568D01*
X10817Y057*
X10837Y0568*
Y0564*
Y0567*
X10797*
X10857Y0564D02*
Y057D01*
X10897Y0564*
Y057*
X10957D02*
X10917D01*
Y0564*
X10957*
X10917Y0567D02*
X10937D01*
X10977Y057D02*
Y0564D01*
X11017*
X11037D02*
X11057Y0566D01*
Y0568*
X11037Y057*
X11087Y0564D02*
Y0565D01*
X11097*
Y0564*
X11087*
X11197D02*
Y057D01*
X11227*
X11237Y0569*
Y0567*
X11227Y0566*
X11197*
X11257Y057D02*
Y0564D01*
X11297*
X11317D02*
Y0568D01*
X11337Y057*
X11357Y0568*
Y0564*
Y0567*
X11317*
X11417Y0569D02*
X11407Y057D01*
X11387*
X11377Y0569*
Y0565*
X11387Y0564*
X11407*
X11417Y0565*
X11476Y057D02*
X11436D01*
Y0564*
X11476*
X11436Y0567D02*
X11456D01*
X11596Y057D02*
X11556D01*
Y0567*
X11576*
X11556*
Y0564*
X11616Y057D02*
X11636D01*
X11626*
Y0564*
X11616*
X11636*
X11666Y057D02*
Y0564D01*
X11696*
X11706Y0565*
Y0569*
X11696Y057*
X11666*
X11726D02*
Y0565D01*
X11736Y0564*
X11756*
X11766Y0565*
Y057*
X11826Y0569D02*
X11816Y057D01*
X11796*
X11786Y0569*
Y0565*
X11796Y0564*
X11816*
X11826Y0565*
X11846Y057D02*
X11866D01*
X11856*
Y0564*
X11846*
X11866*
X11896D02*
Y0568D01*
X11916Y057*
X11936Y0568*
Y0564*
Y0567*
X11896*
X11956Y057D02*
Y0564D01*
X11996*
X12056Y0569D02*
X12046Y057D01*
X12026*
X12016Y0569*
Y0568*
X12026Y0567*
X12046*
X12056Y0566*
Y0565*
X12046Y0564*
X12026*
X12016Y0565*
X12166Y057D02*
X12146D01*
X12136Y0569*
Y0565*
X12146Y0564*
X12166*
X12176Y0565*
Y0569*
X12166Y057*
X12196Y0564D02*
Y057D01*
X12236Y0564*
Y057*
X12316D02*
X12356D01*
X12336*
Y0564*
X12376Y057D02*
Y0564D01*
Y0567*
X12416*
Y057*
Y0564*
X12476Y057D02*
X12436D01*
Y0564*
X12476*
X12436Y0567D02*
X12456D01*
X12556Y0564D02*
Y057D01*
X12586*
X12596Y0569*
Y0567*
X12586Y0566*
X12556*
X12616Y0564D02*
Y0568D01*
X12636Y057*
X12656Y0568*
Y0564*
Y0567*
X12616*
X12676Y0564D02*
Y057D01*
X12716Y0564*
Y057*
X12776D02*
X12736D01*
Y0564*
X12776*
X12736Y0567D02*
X12756D01*
X12796Y057D02*
Y0564D01*
X12836*
X12956Y0569D02*
X12946Y057D01*
X12926*
X12916Y0569*
Y0568*
X12926Y0567*
X12946*
X12956Y0566*
Y0565*
X12946Y0564*
X12926*
X12916Y0565*
X12976Y057D02*
X13016D01*
X12996*
Y0564*
X13036D02*
Y057D01*
X13066*
X13076Y0569*
Y0567*
X13066Y0566*
X13036*
X13056D02*
X13076Y0564D01*
X13096Y057D02*
X13116D01*
X13106*
Y0564*
X13096*
X13116*
X13146D02*
Y057D01*
X13176*
X13186Y0569*
Y0567*
X13176Y0566*
X13146*
X13246Y0569D02*
X13236Y057D01*
X13216*
X13206Y0569*
Y0568*
X13216Y0567*
X13236*
X13246Y0566*
Y0565*
X13236Y0564*
X13216*
X13206Y0565*
X13326Y0564D02*
Y0568D01*
X13346Y057*
X13366Y0568*
Y0564*
Y0567*
X13326*
X13426Y0569D02*
X13416Y057D01*
X13396*
X13386Y0569*
Y0568*
X13396Y0567*
X13416*
X13426Y0566*
Y0565*
X13416Y0564*
X13396*
X13386Y0565*
X13546Y057D02*
X13506D01*
Y0567*
X13526*
X13506*
Y0564*
X13596Y057D02*
X13576D01*
X13566Y0569*
Y0565*
X13576Y0564*
X13596*
X13606Y0565*
Y0569*
X13596Y057*
X13626D02*
Y0564D01*
X13666*
X13686Y057D02*
Y0564D01*
X13726*
X13776Y057D02*
X13756D01*
X13746Y0569*
Y0565*
X13756Y0564*
X13776*
X13786Y0565*
Y0569*
X13776Y057*
X13806D02*
Y0564D01*
X13826Y0566*
X13846Y0564*
Y057*
X13906Y0569D02*
X13896Y057D01*
X13876*
X13866Y0569*
Y0568*
X13876Y0567*
X13896*
X13906Y0566*
Y0565*
X13896Y0564*
X13876*
X13866Y0565*
X13926Y0568D02*
X13936D01*
Y0567*
X13926*
Y0568*
Y0565D02*
X13936D01*
Y0564*
X13926*
Y0565*
X08847Y08456D02*
Y08396D01*
X08877*
X08887Y08406*
Y08416*
X08877Y08426*
X08847*
X08877*
X08887Y08436*
Y08446*
X08877Y08456*
X08847*
X08917Y08396D02*
X08937D01*
X08947Y08406*
Y08426*
X08937Y08436*
X08917*
X08907Y08426*
Y08406*
X08917Y08396*
X08977Y08436D02*
X08997D01*
X09007Y08426*
Y08396*
X08977*
X08967Y08406*
X08977Y08416*
X09007*
X09027Y08436D02*
Y08396D01*
Y08416*
X09037Y08426*
X09047Y08436*
X09057*
X09127Y08456D02*
Y08396D01*
X09097*
X09087Y08406*
Y08426*
X09097Y08436*
X09127*
X09207Y08396D02*
X09227D01*
X09217*
Y08436*
X09207*
X09257Y08396D02*
Y08436D01*
X09287*
X09297Y08426*
Y08396*
X09327D02*
Y08446D01*
Y08426*
X09317*
X09337*
X09327*
Y08446*
X09337Y08456*
X09377Y08396D02*
X09397D01*
X09407Y08406*
Y08426*
X09397Y08436*
X09377*
X09367Y08426*
Y08406*
X09377Y08396*
X08847Y08298D02*
Y08358D01*
X08867Y08338*
X08887Y08358*
Y08298*
X08907D02*
X08927D01*
X08917*
Y08338*
X08907*
X08957Y08298D02*
Y08338D01*
X08987*
X08997Y08328*
Y08298*
X09017D02*
X09037D01*
X09027*
Y08338*
X09017*
X09067Y08298D02*
Y08338D01*
X09077*
X09087Y08328*
Y08298*
Y08328*
X09097Y08338*
X09107Y08328*
Y08298*
X09127Y08338D02*
Y08308D01*
X09137Y08298*
X09167*
Y08338*
X09187Y08298D02*
Y08338D01*
X09197*
X09207Y08328*
Y08298*
Y08328*
X09217Y08338*
X09227Y08328*
Y08298*
X09307Y08358D02*
X09347D01*
X09327*
Y08298*
X09367Y08338D02*
Y08298D01*
Y08318*
X09377Y08328*
X09387Y08338*
X09397*
X09437D02*
X09457D01*
X09467Y08328*
Y08298*
X09437*
X09427Y08308*
X09437Y08318*
X09467*
X09527Y08338D02*
X09497D01*
X09487Y08328*
Y08308*
X09497Y08298*
X09527*
X09547D02*
Y08358D01*
Y08318D02*
X09577Y08338D01*
X09547Y08318D02*
X09577Y08298D01*
X09607Y08338D02*
X09617D01*
Y08328*
X09607*
Y08338*
Y08308D02*
X09617D01*
Y08298*
X09607*
Y08308*
X09757Y08298D02*
X09717D01*
X09757Y08338*
Y08348*
X09747Y08358*
X09727*
X09717Y08348*
X09777D02*
X09787Y08358D01*
X09807*
X09817Y08348*
Y08308*
X09807Y08298*
X09787*
X09777Y08308*
Y08348*
X09837D02*
X09847Y08358D01*
X09867*
X09877Y08348*
Y08308*
X09867Y08298*
X09847*
X09837Y08308*
Y08348*
X09897Y08338D02*
Y08308D01*
X09907Y08298*
X09937*
Y08338*
X09957Y08298D02*
Y08338D01*
X09967*
X09977Y08328*
Y08298*
Y08328*
X09987Y08338*
X09997Y08328*
Y08298*
X08847Y082D02*
Y08259D01*
X08867Y08239*
X08887Y08259*
Y082*
X08907D02*
X08927D01*
X08917*
Y08239*
X08907*
X08957Y082D02*
Y08239D01*
X08987*
X08997Y08229*
Y082*
X09017D02*
X09037D01*
X09027*
Y08239*
X09017*
X09067Y082D02*
Y08239D01*
X09077*
X09087Y08229*
Y082*
Y08229*
X09097Y08239*
X09107Y08229*
Y082*
X09127Y08239D02*
Y08209D01*
X09137Y082*
X09167*
Y08239*
X09187Y082D02*
Y08239D01*
X09197*
X09207Y08229*
Y082*
Y08229*
X09217Y08239*
X09227Y08229*
Y082*
X09347Y08249D02*
X09337Y08259D01*
X09317*
X09307Y08249*
Y08209*
X09317Y082*
X09337*
X09347Y08209*
Y08229*
X09327*
X09377Y08239D02*
X09397D01*
X09407Y08229*
Y082*
X09377*
X09367Y08209*
X09377Y08219*
X09407*
X09427Y0818D02*
Y08239D01*
X09457*
X09467Y08229*
Y08209*
X09457Y082*
X09427*
X09487Y08239D02*
X09497D01*
Y08229*
X09487*
Y08239*
Y08209D02*
X09497D01*
Y082*
X09487*
Y08209*
X09597Y082D02*
X09617D01*
X09607*
Y08259*
X09597Y08249*
X09687Y08259D02*
X09647D01*
Y08229*
X09667Y08239*
X09677*
X09687Y08229*
Y08209*
X09677Y082*
X09657*
X09647Y08209*
X09707Y08249D02*
X09717Y08259D01*
X09737*
X09747Y08249*
Y08209*
X09737Y082*
X09717*
X09707Y08209*
Y08249*
X09767Y08239D02*
Y08209D01*
X09777Y082*
X09807*
Y08239*
X09827Y082D02*
Y08239D01*
X09837*
X09847Y08229*
Y082*
Y08229*
X09857Y08239*
X09867Y08229*
Y082*
X08847Y08101D02*
Y08161D01*
X08867Y08141*
X08887Y08161*
Y08101*
X08907D02*
X08927D01*
X08917*
Y08141*
X08907*
X08957Y08101D02*
Y08141D01*
X08987*
X08997Y08131*
Y08101*
X09017D02*
X09037D01*
X09027*
Y08141*
X09017*
X09067Y08101D02*
Y08141D01*
X09077*
X09087Y08131*
Y08101*
Y08131*
X09097Y08141*
X09107Y08131*
Y08101*
X09127Y08141D02*
Y08111D01*
X09137Y08101*
X09167*
Y08141*
X09187Y08101D02*
Y08141D01*
X09197*
X09207Y08131*
Y08101*
Y08131*
X09217Y08141*
X09227Y08131*
Y08101*
X09307Y08161D02*
X09347D01*
X09327*
Y08101*
X09367Y08161D02*
Y08101D01*
Y08131*
X09377Y08141*
X09397*
X09407Y08131*
Y08101*
X09427Y08141D02*
Y08101D01*
Y08121*
X09437Y08131*
X09447Y08141*
X09457*
X09497Y08101D02*
X09517D01*
X09527Y08111*
Y08131*
X09517Y08141*
X09497*
X09487Y08131*
Y08111*
X09497Y08101*
X09547Y08141D02*
Y08111D01*
X09557Y08101*
X09587*
Y08141*
X09627Y08081D02*
X09637D01*
X09647Y08091*
Y08141*
X09617*
X09607Y08131*
Y08111*
X09617Y08101*
X09647*
X09667Y08161D02*
Y08101D01*
Y08131*
X09677Y08141*
X09697*
X09707Y08131*
Y08101*
X09787Y08161D02*
Y08101D01*
Y08131*
X09827*
Y08161*
Y08101*
X09857D02*
X09877D01*
X09887Y08111*
Y08131*
X09877Y08141*
X09857*
X09847Y08131*
Y08111*
X09857Y08101*
X09907D02*
X09927D01*
X09917*
Y08161*
X09907*
X09987Y08101D02*
X09967D01*
X09957Y08111*
Y08131*
X09967Y08141*
X09987*
X09997Y08131*
Y08121*
X09957*
X10077Y08161D02*
Y08121D01*
X10097Y08101*
X10117Y08121*
Y08161*
X10137D02*
X10157D01*
X10147*
Y08101*
X10137*
X10157*
X10187D02*
Y08141D01*
X10207Y08161*
X10227Y08141*
Y08101*
Y08131*
X10187*
X10247Y08141D02*
X10257D01*
Y08131*
X10247*
Y08141*
Y08111D02*
X10257D01*
Y08101*
X10247*
Y08111*
X10357Y08151D02*
X10367Y08161D01*
X10387*
X10397Y08151*
Y08111*
X10387Y08101*
X10367*
X10357Y08111*
Y08151*
X10417Y08101D02*
Y08111D01*
X10427*
Y08101*
X10417*
X10497D02*
Y08161D01*
X10467Y08131*
X10507*
X10567Y08161D02*
X10527D01*
Y08131*
X10547Y08141*
X10557*
X10567Y08131*
Y08111*
X10557Y08101*
X10537*
X10527Y08111*
X10587Y08101D02*
Y08141D01*
X10597*
X10607Y08131*
Y08101*
Y08131*
X10617Y08141*
X10627Y08131*
Y08101*
X10647D02*
Y08141D01*
X10657*
X10667Y08131*
Y08101*
Y08131*
X10677Y08141*
X10687Y08131*
Y08101*
X10787D02*
X10767Y08121D01*
Y08141*
X10787Y08161*
X10817Y08081D02*
Y08141D01*
X10847*
X10857Y08131*
Y08111*
X10847Y08101*
X10817*
X10887Y08141D02*
X10907D01*
X10917Y08131*
Y08101*
X10887*
X10877Y08111*
X10887Y08121*
X10917*
X10977Y08161D02*
Y08101D01*
X10947*
X10937Y08111*
Y08131*
X10947Y08141*
X10977*
X10997Y08101D02*
X11017Y08121D01*
Y08141*
X10997Y08161*
X11107Y08101D02*
X11147Y08141D01*
X11227Y08151D02*
X11237Y08161D01*
X11257*
X11267Y08151*
Y08111*
X11257Y08101*
X11237*
X11227Y08111*
Y08151*
X11287Y08101D02*
Y08111D01*
X11297*
Y08101*
X11287*
X11377D02*
X11337D01*
X11377Y08141*
Y08151*
X11367Y08161*
X11347*
X11337Y08151*
X11397Y08101D02*
Y08141D01*
X11407*
X11417Y08131*
Y08101*
Y08131*
X11427Y08141*
X11436Y08131*
Y08101*
X11456D02*
Y08141D01*
X11466*
X11476Y08131*
Y08101*
Y08131*
X11486Y08141*
X11496Y08131*
Y08101*
X11596D02*
X11576Y08121D01*
Y08141*
X11596Y08161*
X11666D02*
Y08101D01*
X11636*
X11626Y08111*
Y08131*
X11636Y08141*
X11666*
X11686D02*
Y08101D01*
Y08121*
X11696Y08131*
X11706Y08141*
X11716*
X11746Y08101D02*
X11766D01*
X11756*
Y08141*
X11746*
X11796Y08101D02*
X11816D01*
X11806*
Y08161*
X11796*
X11846Y08101D02*
X11866D01*
X11856*
Y08161*
X11846*
X11896Y08101D02*
X11916Y08121D01*
Y08141*
X11896Y08161*
X11946Y08101D02*
Y08111D01*
X11956*
Y08101*
X11946*
X12056Y08161D02*
Y08101D01*
X12086*
X12096Y08111*
Y08151*
X12086Y08161*
X12056*
X12116Y08141D02*
Y08101D01*
Y08121*
X12126Y08131*
X12136Y08141*
X12146*
X12176Y08101D02*
X12196D01*
X12186*
Y08141*
X12176*
X12226Y08101D02*
X12246D01*
X12236*
Y08161*
X12226*
X12276Y08101D02*
X12296D01*
X12286*
Y08161*
X12276*
X12326Y08101D02*
X12346D01*
X12336*
Y08141*
X12326*
X12376Y08101D02*
Y08141D01*
X12406*
X12416Y08131*
Y08101*
X12456Y08081D02*
X12466D01*
X12476Y08091*
Y08141*
X12446*
X12436Y08131*
Y08111*
X12446Y08101*
X12476*
X12496Y08141D02*
X12506D01*
Y08131*
X12496*
Y08141*
Y08111D02*
X12506D01*
Y08101*
X12496*
Y08111*
X12606Y08161D02*
Y08101D01*
X12646*
X12666D02*
X12686D01*
X12676*
Y08161*
X12666Y08151*
X12716Y08131D02*
X12756D01*
X12776Y08161D02*
Y08101D01*
X12816*
X12876Y08161D02*
X12856Y08151D01*
X12836Y08131*
Y08111*
X12846Y08101*
X12866*
X12876Y08111*
Y08121*
X12866Y08131*
X12836*
X08847Y07904D02*
X08867D01*
X08857*
Y07964*
X08847Y07954*
X08897Y07904D02*
Y07914D01*
X08907*
Y07904*
X08897*
X09007D02*
Y07964D01*
X09037*
X09047Y07954*
Y07934*
X09037Y07924*
X09007*
X09027D02*
X09047Y07904D01*
X09107Y07964D02*
X09067D01*
Y07904*
X09107*
X09067Y07934D02*
X09087D01*
X09127Y07904D02*
Y07964D01*
X09147Y07944*
X09167Y07964*
Y07904*
X09217Y07964D02*
X09197D01*
X09187Y07954*
Y07914*
X09197Y07904*
X09217*
X09227Y07914*
Y07954*
X09217Y07964*
X09247D02*
Y07924D01*
X09267Y07904*
X09287Y07924*
Y07964*
X09347D02*
X09307D01*
Y07904*
X09347*
X09307Y07934D02*
X09327D01*
X09427Y07904D02*
Y07944D01*
X09447Y07964*
X09467Y07944*
Y07904*
Y07934*
X09427*
X09487Y07964D02*
Y07904D01*
X09527*
X09547Y07964D02*
Y07904D01*
X09587*
X09667D02*
Y07964D01*
X09707Y07904*
Y07964*
X09757D02*
X09737D01*
X09727Y07954*
Y07914*
X09737Y07904*
X09757*
X09767Y07914*
Y07954*
X09757Y07964*
X09787Y07904D02*
Y07964D01*
X09827Y07904*
Y07964*
X09847Y07934D02*
X09887D01*
X09947Y07964D02*
X09907D01*
Y07934*
X09927*
X09907*
Y07904*
X09967Y07964D02*
Y07914D01*
X09977Y07904*
X09997*
X10007Y07914*
Y07964*
X10027Y07904D02*
Y07964D01*
X10067Y07904*
Y07964*
X10127Y07954D02*
X10117Y07964D01*
X10097*
X10087Y07954*
Y07914*
X10097Y07904*
X10117*
X10127Y07914*
X10147Y07964D02*
X10187D01*
X10167*
Y07904*
X10207Y07964D02*
X10227D01*
X10217*
Y07904*
X10207*
X10227*
X10287Y07964D02*
X10267D01*
X10257Y07954*
Y07914*
X10267Y07904*
X10287*
X10297Y07914*
Y07954*
X10287Y07964*
X10317Y07904D02*
Y07964D01*
X10357Y07904*
Y07964*
X10377Y07904D02*
Y07944D01*
X10397Y07964*
X10417Y07944*
Y07904*
Y07934*
X10377*
X10437Y07964D02*
Y07904D01*
X10477*
X10557Y07964D02*
X10577D01*
X10567*
Y07904*
X10557*
X10577*
X10607D02*
Y07964D01*
X10647Y07904*
Y07964*
X10667Y07904D02*
Y07964D01*
X10707Y07904*
Y07964*
X10767D02*
X10727D01*
Y07904*
X10767*
X10727Y07934D02*
X10747D01*
X10787Y07904D02*
Y07964D01*
X10817*
X10827Y07954*
Y07934*
X10817Y07924*
X10787*
X10807D02*
X10827Y07904D01*
X10907Y07964D02*
Y07904D01*
X10947*
X10967D02*
Y07944D01*
X10987Y07964*
X11007Y07944*
Y07904*
Y07934*
X10967*
X11027Y07964D02*
Y07954D01*
X11047Y07934*
X11067Y07954*
Y07964*
X11047Y07934D02*
Y07904D01*
X11127Y07964D02*
X11087D01*
Y07904*
X11127*
X11087Y07934D02*
X11107D01*
X11147Y07904D02*
Y07964D01*
X11177*
X11187Y07954*
Y07934*
X11177Y07924*
X11147*
X11167D02*
X11187Y07904D01*
X11267D02*
Y07964D01*
X11297*
X11307Y07954*
Y07934*
X11297Y07924*
X11267*
X11327Y07904D02*
Y07944D01*
X11347Y07964*
X11367Y07944*
Y07904*
Y07934*
X11327*
X11387Y07964D02*
Y07904D01*
X11417*
X11427Y07914*
Y07954*
X11417Y07964*
X11387*
X11486Y07954D02*
X11476Y07964D01*
X11456*
X11446Y07954*
Y07944*
X11456Y07934*
X11476*
X11486Y07924*
Y07914*
X11476Y07904*
X11456*
X11446Y07914*
X11506Y07904D02*
Y07914D01*
X11516*
Y07904*
X11506*
X08887Y07707D02*
X08847D01*
X08887Y07747*
Y07757*
X08877Y07767*
X08857*
X08847Y07757*
X08907Y07707D02*
Y07717D01*
X08917*
Y07707*
X08907*
X09017Y07767D02*
X09057D01*
X09037*
Y07707*
X09077Y07767D02*
Y07707D01*
Y07737*
X09117*
Y07767*
Y07707*
X09137Y07767D02*
X09157D01*
X09147*
Y07707*
X09137*
X09157*
X09227Y07757D02*
X09217Y07767D01*
X09197*
X09187Y07757*
Y07747*
X09197Y07737*
X09217*
X09227Y07727*
Y07717*
X09217Y07707*
X09197*
X09187Y07717*
X09307Y07767D02*
Y07707D01*
X09337*
X09347Y07717*
Y07727*
X09337Y07737*
X09307*
X09337*
X09347Y07747*
Y07757*
X09337Y07767*
X09307*
X09397D02*
X09377D01*
X09367Y07757*
Y07717*
X09377Y07707*
X09397*
X09407Y07717*
Y07757*
X09397Y07767*
X09427Y07707D02*
Y07747D01*
X09447Y07767*
X09467Y07747*
Y07707*
Y07737*
X09427*
X09487Y07707D02*
Y07767D01*
X09517*
X09527Y07757*
Y07737*
X09517Y07727*
X09487*
X09507D02*
X09527Y07707D01*
X09547Y07767D02*
Y07707D01*
X09577*
X09587Y07717*
Y07757*
X09577Y07767*
X09547*
X09707Y07757D02*
X09697Y07767D01*
X09677*
X09667Y07757*
Y07717*
X09677Y07707*
X09697*
X09707Y07717*
X09757Y07767D02*
X09737D01*
X09727Y07757*
Y07717*
X09737Y07707*
X09757*
X09767Y07717*
Y07757*
X09757Y07767*
X09787Y07707D02*
Y07767D01*
X09827Y07707*
Y07767*
X09847D02*
X09887D01*
X09867*
Y07707*
X09907D02*
Y07747D01*
X09927Y07767*
X09947Y07747*
Y07707*
Y07737*
X09907*
X09967Y07767D02*
X09987D01*
X09977*
Y07707*
X09967*
X09987*
X10017D02*
Y07767D01*
X10057Y07707*
Y07767*
X10117Y07757D02*
X10107Y07767D01*
X10087*
X10077Y07757*
Y07747*
X10087Y07737*
X10107*
X10117Y07727*
Y07717*
X10107Y07707*
X10087*
X10077Y07717*
X10197Y07767D02*
X10217D01*
X10207*
Y07707*
X10197*
X10217*
X10247D02*
Y07767D01*
X10267Y07747*
X10287Y07767*
Y07707*
X10307D02*
Y07767D01*
X10337*
X10347Y07757*
Y07737*
X10337Y07727*
X10307*
X10407Y07767D02*
X10367D01*
Y07707*
X10407*
X10367Y07737D02*
X10387D01*
X10427Y07767D02*
Y07707D01*
X10457*
X10467Y07717*
Y07757*
X10457Y07767*
X10427*
X10487Y07707D02*
Y07747D01*
X10507Y07767*
X10527Y07747*
Y07707*
Y07737*
X10487*
X10547Y07707D02*
Y07767D01*
X10587Y07707*
Y07767*
X10647Y07757D02*
X10637Y07767D01*
X10617*
X10607Y07757*
Y07717*
X10617Y07707*
X10637*
X10647Y07717*
X10707Y07767D02*
X10667D01*
Y07707*
X10707*
X10667Y07737D02*
X10687D01*
X10827Y07757D02*
X10817Y07767D01*
X10797*
X10787Y07757*
Y07717*
X10797Y07707*
X10817*
X10827Y07717*
X10877Y07767D02*
X10857D01*
X10847Y07757*
Y07717*
X10857Y07707*
X10877*
X10887Y07717*
Y07757*
X10877Y07767*
X10907Y07707D02*
Y07767D01*
X10947Y07707*
Y07767*
X10967D02*
X11007D01*
X10987*
Y07707*
X11027D02*
Y07767D01*
X11057*
X11067Y07757*
Y07737*
X11057Y07727*
X11027*
X11047D02*
X11067Y07707D01*
X11117Y07767D02*
X11097D01*
X11087Y07757*
Y07717*
X11097Y07707*
X11117*
X11127Y07717*
Y07757*
X11117Y07767*
X11147D02*
Y07707D01*
X11187*
X11207Y07767D02*
Y07707D01*
X11247*
X11307Y07767D02*
X11267D01*
Y07707*
X11307*
X11267Y07737D02*
X11287D01*
X11327Y07767D02*
Y07707D01*
X11357*
X11367Y07717*
Y07757*
X11357Y07767*
X11327*
X11446D02*
X11486D01*
X11466*
Y07707*
X11506D02*
Y07767D01*
X11536*
X11546Y07757*
Y07737*
X11536Y07727*
X11506*
X11526D02*
X11546Y07707D01*
X11566D02*
Y07747D01*
X11586Y07767*
X11606Y07747*
Y07707*
Y07737*
X11566*
X11666Y07757D02*
X11656Y07767D01*
X11636*
X11626Y07757*
Y07717*
X11636Y07707*
X11656*
X11666Y07717*
X11686Y07767D02*
Y07707D01*
Y07727*
X11726Y07767*
X11696Y07737*
X11726Y07707*
X11786Y07757D02*
X11776Y07767D01*
X11756*
X11746Y07757*
Y07747*
X11756Y07737*
X11776*
X11786Y07727*
Y07717*
X11776Y07707*
X11756*
X11746Y07717*
X11816Y07697D02*
X11826Y07707D01*
Y07717*
X11816*
Y07707*
X11826*
X11816Y07697*
X11806Y07687*
X11926Y07767D02*
X11966D01*
X11946*
Y07707*
X11986D02*
Y07767D01*
X12016*
X12026Y07757*
Y07737*
X12016Y07727*
X11986*
X12006D02*
X12026Y07707D01*
X12046D02*
Y07747D01*
X12066Y07767*
X12086Y07747*
Y07707*
Y07737*
X12046*
X12146Y07757D02*
X12136Y07767D01*
X12116*
X12106Y07757*
Y07717*
X12116Y07707*
X12136*
X12146Y07717*
X12166Y07767D02*
Y07707D01*
Y07727*
X12206Y07767*
X12176Y07737*
X12206Y07707*
X12286D02*
Y07747D01*
X12306Y07767*
X12326Y07747*
Y07707*
Y07737*
X12286*
X12346Y07707D02*
Y07767D01*
X12386Y07707*
Y07767*
X12406D02*
Y07707D01*
X12436*
X12446Y07717*
Y07757*
X12436Y07767*
X12406*
X12566Y07757D02*
X12556Y07767D01*
X12536*
X12526Y07757*
Y07717*
X12536Y07707*
X12556*
X12566Y07717*
Y07737*
X12546*
X12586Y07707D02*
Y07747D01*
X12606Y07767*
X12626Y07747*
Y07707*
Y07737*
X12586*
X12646Y07707D02*
Y07767D01*
X12676*
X12686Y07757*
Y07737*
X12676Y07727*
X12646*
X12806Y07757D02*
X12796Y07767D01*
X12776*
X12766Y07757*
Y07747*
X12776Y07737*
X12796*
X12806Y07727*
Y07717*
X12796Y07707*
X12776*
X12766Y07717*
X12826Y07767D02*
X12846D01*
X12836*
Y07707*
X12826*
X12846*
X12876Y07767D02*
X12916D01*
Y07757*
X12876Y07717*
Y07707*
X12916*
X12976Y07767D02*
X12936D01*
Y07707*
X12976*
X12936Y07737D02*
X12956D01*
X13036Y07757D02*
X13026Y07767D01*
X13006*
X12996Y07757*
Y07747*
X13006Y07737*
X13026*
X13036Y07727*
Y07717*
X13026Y07707*
X13006*
X12996Y07717*
X13116Y07707D02*
Y07747D01*
X13136Y07767*
X13156Y07747*
Y07707*
Y07737*
X13116*
X13176Y07707D02*
Y07767D01*
X13206*
X13216Y07757*
Y07737*
X13206Y07727*
X13176*
X13196D02*
X13216Y07707D01*
X13276Y07767D02*
X13236D01*
Y07707*
X13276*
X13236Y07737D02*
X13256D01*
X13356Y07707D02*
Y07747D01*
X13376Y07767*
X13396Y07747*
Y07707*
Y07737*
X13356*
X13456Y07757D02*
X13446Y07767D01*
X13426*
X13416Y07757*
Y07747*
X13426Y07737*
X13446*
X13456Y07727*
Y07717*
X13446Y07707*
X13426*
X13416Y07717*
X13576Y07767D02*
X13536D01*
Y07737*
X13556*
X13536*
Y07707*
X13626Y07767D02*
X13606D01*
X13596Y07757*
Y07717*
X13606Y07707*
X13626*
X13636Y07717*
Y07757*
X13626Y07767*
X13656D02*
Y07707D01*
X13696*
X13716Y07767D02*
Y07707D01*
X13756*
X13806Y07767D02*
X13786D01*
X13776Y07757*
Y07717*
X13786Y07707*
X13806*
X13816Y07717*
Y07757*
X13806Y07767*
X13836D02*
Y07707D01*
X13856Y07727*
X13876Y07707*
Y07767*
X13936Y07757D02*
X13926Y07767D01*
X13906*
X13896Y07757*
Y07747*
X13906Y07737*
X13926*
X13936Y07727*
Y07717*
X13926Y07707*
X13906*
X13896Y07717*
X13956Y07747D02*
X13966D01*
Y07737*
X13956*
Y07747*
Y07717D02*
X13966D01*
Y07707*
X13956*
Y07717*
X09044Y07571D02*
X09084D01*
X09064*
Y07511*
X09104Y07571D02*
Y07561D01*
X09124Y07541*
X09144Y07561*
Y07571*
X09124Y07541D02*
Y07511D01*
X09164D02*
Y07571D01*
X09194*
X09204Y07561*
Y07541*
X09194Y07531*
X09164*
X09264Y07571D02*
X09224D01*
Y07511*
X09264*
X09224Y07541D02*
X09244D01*
X09284D02*
Y07551D01*
X09294*
Y07541*
X09284*
Y07521D02*
X09294D01*
Y07511*
X09284Y07501*
X09294Y07511D02*
X09284D01*
Y07521*
X09536Y07571D02*
X09556D01*
X09546*
Y07511*
X09536*
X09556*
X09586D02*
Y07551D01*
X09596*
X09606Y07541*
Y07511*
Y07541*
X09616Y07551*
X09626Y07541*
Y07511*
X09646Y07491D02*
Y07551D01*
X09676*
X09686Y07541*
Y07521*
X09676Y07511*
X09646*
X09736D02*
X09716D01*
X09706Y07521*
Y07541*
X09716Y07551*
X09736*
X09746Y07541*
Y07531*
X09706*
X09806Y07571D02*
Y07511D01*
X09776*
X09766Y07521*
Y07541*
X09776Y07551*
X09806*
X09836D02*
X09856D01*
X09866Y07541*
Y07511*
X09836*
X09826Y07521*
X09836Y07531*
X09866*
X09886Y07511D02*
Y07551D01*
X09916*
X09926Y07541*
Y07511*
X09986Y07551D02*
X09956D01*
X09946Y07541*
Y07521*
X09956Y07511*
X09986*
X10036D02*
X10016D01*
X10006Y07521*
Y07541*
X10016Y07551*
X10036*
X10046Y07541*
Y07531*
X10006*
X10066Y07541D02*
Y07551D01*
X10076*
Y07541*
X10066*
Y07521D02*
X10076D01*
Y07511*
X10066Y07501*
X10076Y07511D02*
X10066D01*
Y07521*
X10422Y07571D02*
Y07511D01*
X10462*
X10492Y07551D02*
X10512D01*
X10522Y07541*
Y07511*
X10492*
X10482Y07521*
X10492Y07531*
X10522*
X10542Y07551D02*
Y07521D01*
X10552Y07511*
X10582*
Y07501*
X10572Y07491*
X10562*
X10582Y07511D02*
Y07551D01*
X10632Y07511D02*
X10612D01*
X10602Y07521*
Y07541*
X10612Y07551*
X10632*
X10642Y07541*
Y07531*
X10602*
X10662Y07551D02*
Y07511D01*
Y07531*
X10672Y07541*
X10682Y07551*
X10692*
X10802Y07511D02*
X10782Y07531D01*
Y07551*
X10802Y07571*
X10832Y07511D02*
Y07571D01*
X10862*
X10872Y07561*
Y07541*
X10862Y07531*
X10832*
X10852D02*
X10872Y07511D01*
X10922D02*
X10902D01*
X10892Y07521*
Y07541*
X10902Y07551*
X10922*
X10932Y07541*
Y07531*
X10892*
X10962Y07511D02*
Y07561D01*
Y07541*
X10952*
X10972*
X10962*
Y07561*
X10972Y07571*
X11032Y07511D02*
X11012D01*
X11002Y07521*
Y07541*
X11012Y07551*
X11032*
X11042Y07541*
Y07531*
X11002*
X11062Y07551D02*
Y07511D01*
Y07531*
X11072Y07541*
X11082Y07551*
X11092*
X11152Y07511D02*
X11132D01*
X11122Y07521*
Y07541*
X11132Y07551*
X11152*
X11162Y07541*
Y07531*
X11122*
X11182Y07511D02*
Y07551D01*
X11212*
X11222Y07541*
Y07511*
X11282Y07551D02*
X11252D01*
X11242Y07541*
Y07521*
X11252Y07511*
X11282*
X11332D02*
X11312D01*
X11302Y07521*
Y07541*
X11312Y07551*
X11332*
X11342Y07541*
Y07531*
X11302*
X11362Y07511D02*
X11382Y07531D01*
Y07551*
X11362Y07571*
X11412Y07541D02*
Y07551D01*
X11422*
Y07541*
X11412*
Y07521D02*
X11422D01*
Y07511*
X11412Y07501*
X11422Y07511D02*
X11412D01*
Y07521*
X118Y07571D02*
Y07511D01*
X1182Y07531*
X1184Y07511*
Y07571*
X1186Y07511D02*
X1188D01*
X1187*
Y07551*
X1186*
X1195Y07571D02*
Y07511D01*
X1192*
X1191Y07521*
Y07541*
X1192Y07551*
X1195*
X1198Y07561D02*
Y07551D01*
X1197*
X1199*
X1198*
Y07521*
X1199Y07511*
X1202Y07571D02*
Y07511D01*
Y07541*
X1203Y07551*
X1205*
X1206Y07541*
Y07511*
X1216D02*
X1214Y07531D01*
Y07551*
X1216Y07571*
X1219Y07551D02*
Y07521D01*
X122Y07511*
X1223*
Y07551*
X1225Y07511D02*
Y07551D01*
X1226*
X1227Y07541*
Y07511*
Y07541*
X1228Y07551*
X1229Y07541*
Y07511*
X1231D02*
X1233Y07531D01*
Y07551*
X1231Y07571*
X1236Y07541D02*
Y07551D01*
X1237*
Y07541*
X1236*
Y07521D02*
X1237D01*
Y07511*
X1236Y07501*
X1237Y07511D02*
X1236D01*
Y07521*
X12627Y07561D02*
X12617Y07571D01*
X12597*
X12587Y07561*
Y07521*
X12597Y07511*
X12617*
X12627Y07521*
Y07541*
X12607*
X12657Y07551D02*
X12677D01*
X12687Y07541*
Y07511*
X12657*
X12647Y07521*
X12657Y07531*
X12687*
X12707Y07491D02*
Y07551D01*
X12737*
X12747Y07541*
Y07521*
X12737Y07511*
X12707*
X12847D02*
X12827Y07531D01*
Y07551*
X12847Y07571*
X12877Y07551D02*
Y07521D01*
X12887Y07511*
X12917*
Y07551*
X12937Y07511D02*
Y07551D01*
X12947*
X12957Y07541*
Y07511*
Y07541*
X12967Y07551*
X12977Y07541*
Y07511*
X12997D02*
X13017Y07531D01*
Y07551*
X12997Y07571*
X13047Y07541D02*
Y07551D01*
X13057*
Y07541*
X13047*
Y07521D02*
X13057D01*
Y07511*
X13047Y07501*
X13057Y07511D02*
X13047D01*
Y07521*
X09044Y07374D02*
Y07314D01*
X09074*
X09084Y07324*
Y07364*
X09074Y07374*
X09044*
X09104D02*
X09124D01*
X09114*
Y07314*
X09104*
X09124*
X09194Y07374D02*
X09154D01*
Y07344*
X09174*
X09154*
Y07314*
X09254Y07374D02*
X09214D01*
Y07344*
X09234*
X09214*
Y07314*
X09274Y07344D02*
Y07354D01*
X09284*
Y07344*
X09274*
Y07324D02*
X09284D01*
Y07314*
X09274Y07304*
X09284Y07314D02*
X09274D01*
Y07324*
X09536D02*
X09546Y07314D01*
X09566*
X09576Y07324*
Y07364*
X09566Y07374*
X09546*
X09536Y07364*
Y07354*
X09546Y07344*
X09576*
X09596Y07364D02*
X09606Y07374D01*
X09626*
X09636Y07364*
Y07324*
X09626Y07314*
X09606*
X09596Y07324*
Y07364*
X09666Y07314D02*
X09686D01*
X09696Y07324*
Y07344*
X09686Y07354*
X09666*
X09656Y07344*
Y07324*
X09666Y07314*
X09716Y07374D02*
Y07314D01*
Y07344*
X09726Y07354*
X09746*
X09756Y07344*
Y07314*
X09776D02*
Y07354D01*
X09786*
X09796Y07344*
Y07314*
Y07344*
X09806Y07354*
X09816Y07344*
Y07314*
X09836Y07344D02*
Y07354D01*
X09846*
Y07344*
X09836*
Y07324D02*
X09846D01*
Y07314*
X09836Y07304*
X09846Y07314D02*
X09836D01*
Y07324*
X10422Y07374D02*
Y07314D01*
X10462*
X10482D02*
X10502D01*
X10492*
Y07374*
X10482Y07364*
X10552Y07314D02*
X10532Y07334D01*
Y07354*
X10552Y07374*
X10582D02*
Y07314D01*
X10622*
X10682D02*
X10642D01*
X10682Y07354*
Y07364*
X10672Y07374*
X10652*
X10642Y07364*
X10702Y07314D02*
X10722Y07334D01*
Y07354*
X10702Y07374*
X10762Y07304D02*
X10772Y07314D01*
Y07324*
X10762*
Y07314*
X10772*
X10762Y07304*
X10752Y07294*
X10872Y07374D02*
Y07314D01*
X10912*
X10972Y07374D02*
X10952Y07364D01*
X10932Y07344*
Y07324*
X10942Y07314*
X10962*
X10972Y07324*
Y07334*
X10962Y07344*
X10932*
X11012Y07314D02*
X10992Y07334D01*
Y07354*
X11012Y07374*
X11042D02*
Y07314D01*
X11082*
X11142Y07374D02*
X11102D01*
Y07344*
X11122Y07354*
X11132*
X11142Y07344*
Y07324*
X11132Y07314*
X11112*
X11102Y07324*
X11162Y07314D02*
X11182Y07334D01*
Y07354*
X11162Y07374*
X11212Y07344D02*
Y07354D01*
X11222*
Y07344*
X11212*
Y07324D02*
X11222D01*
Y07314*
X11212Y07304*
X11222Y07314D02*
X11212D01*
Y07324*
X1184Y07314D02*
X118D01*
X1184Y07354*
Y07364*
X1183Y07374*
X1181*
X118Y07364*
X119Y07374D02*
X1186D01*
Y07344*
X1188Y07354*
X1189*
X119Y07344*
Y07324*
X1189Y07314*
X1187*
X1186Y07324*
X1192Y07364D02*
X1193Y07374D01*
X1195*
X1196Y07364*
Y07324*
X1195Y07314*
X1193*
X1192Y07324*
Y07364*
X12627Y07314D02*
X12587D01*
X12627Y07354*
Y07364*
X12617Y07374*
X12597*
X12587Y07364*
X12647D02*
X12657Y07374D01*
X12677*
X12687Y07364*
Y07324*
X12677Y07314*
X12657*
X12647Y07324*
Y07364*
X12707D02*
X12717Y07374D01*
X12737*
X12747Y07364*
Y07324*
X12737Y07314*
X12717*
X12707Y07324*
Y07364*
X09044Y07275D02*
Y07215D01*
X09074*
X09084Y07225*
Y07265*
X09074Y07275*
X09044*
X09104D02*
X09124D01*
X09114*
Y07215*
X09104*
X09124*
X09194Y07275D02*
X09154D01*
Y07245*
X09174*
X09154*
Y07215*
X09254Y07275D02*
X09214D01*
Y07245*
X09234*
X09214*
Y07215*
X09274Y07245D02*
Y07255D01*
X09284*
Y07245*
X09274*
Y07225D02*
X09284D01*
Y07215*
X09274Y07205*
X09284Y07215D02*
X09274D01*
Y07225*
X09536D02*
X09546Y07215D01*
X09566*
X09576Y07225*
Y07265*
X09566Y07275*
X09546*
X09536Y07265*
Y07255*
X09546Y07245*
X09576*
X09596Y07265D02*
X09606Y07275D01*
X09626*
X09636Y07265*
Y07225*
X09626Y07215*
X09606*
X09596Y07225*
Y07265*
X09666Y07215D02*
X09686D01*
X09696Y07225*
Y07245*
X09686Y07255*
X09666*
X09656Y07245*
Y07225*
X09666Y07215*
X09716Y07275D02*
Y07215D01*
Y07245*
X09726Y07255*
X09746*
X09756Y07245*
Y07215*
X09776D02*
Y07255D01*
X09786*
X09796Y07245*
Y07215*
Y07245*
X09806Y07255*
X09816Y07245*
Y07215*
X09836Y07245D02*
Y07255D01*
X09846*
Y07245*
X09836*
Y07225D02*
X09846D01*
Y07215*
X09836Y07205*
X09846Y07215D02*
X09836D01*
Y07225*
X10422Y07275D02*
Y07215D01*
X10462*
X10482Y07265D02*
X10492Y07275D01*
X10512*
X10522Y07265*
Y07255*
X10512Y07245*
X10502*
X10512*
X10522Y07235*
Y07225*
X10512Y07215*
X10492*
X10482Y07225*
X10562Y07215D02*
X10542Y07235D01*
Y07255*
X10562Y07275*
X10592D02*
Y07215D01*
X10632*
X10692D02*
X10652D01*
X10692Y07255*
Y07265*
X10682Y07275*
X10662*
X10652Y07265*
X10722Y07205D02*
X10732Y07215D01*
Y07225*
X10722*
Y07215*
X10732*
X10722Y07205*
X10712Y07195*
X10772Y07275D02*
Y07215D01*
X10812*
X10862D02*
Y07275D01*
X10832Y07245*
X10872*
X10892Y07215D02*
X10912Y07235D01*
Y07255*
X10892Y07275*
X1184Y07215D02*
X118D01*
X1184Y07255*
Y07265*
X1183Y07275*
X1181*
X118Y07265*
X1186D02*
X1187Y07275D01*
X1189*
X119Y07265*
Y07225*
X1189Y07215*
X1187*
X1186Y07225*
Y07265*
X1192D02*
X1193Y07275D01*
X1195*
X1196Y07265*
Y07225*
X1195Y07215*
X1193*
X1192Y07225*
Y07265*
X12627Y07215D02*
X12587D01*
X12627Y07255*
Y07265*
X12617Y07275*
X12597*
X12587Y07265*
X12687Y07275D02*
X12647D01*
Y07245*
X12667Y07255*
X12677*
X12687Y07245*
Y07225*
X12677Y07215*
X12657*
X12647Y07225*
X12707Y07265D02*
X12717Y07275D01*
X12737*
X12747Y07265*
Y07225*
X12737Y07215*
X12717*
X12707Y07225*
Y07265*
X09044Y0698D02*
Y0692D01*
X09074*
X09084Y0693*
Y0697*
X09074Y0698*
X09044*
X09104D02*
X09124D01*
X09114*
Y0692*
X09104*
X09124*
X09194Y0698D02*
X09154D01*
Y0695*
X09174*
X09154*
Y0692*
X09254Y0698D02*
X09214D01*
Y0695*
X09234*
X09214*
Y0692*
X09274Y0695D02*
Y0696D01*
X09284*
Y0695*
X09274*
Y0693D02*
X09284D01*
Y0692*
X09274Y0691*
X09284Y0692D02*
X09274D01*
Y0693*
X09536Y0692D02*
X09556D01*
X09546*
Y0698*
X09536Y0697*
X09586D02*
X09596Y0698D01*
X09616*
X09626Y0697*
Y0693*
X09616Y0692*
X09596*
X09586Y0693*
Y0697*
X09646D02*
X09656Y0698D01*
X09676*
X09686Y0697*
Y0693*
X09676Y0692*
X09656*
X09646Y0693*
Y0697*
X09716Y0692D02*
X09736D01*
X09746Y0693*
Y0695*
X09736Y0696*
X09716*
X09706Y0695*
Y0693*
X09716Y0692*
X09766Y0698D02*
Y0692D01*
Y0695*
X09776Y0696*
X09796*
X09806Y0695*
Y0692*
X09826D02*
Y0696D01*
X09836*
X09846Y0695*
Y0692*
Y0695*
X09856Y0696*
X09866Y0695*
Y0692*
X09886Y0695D02*
Y0696D01*
X09896*
Y0695*
X09886*
Y0693D02*
X09896D01*
Y0692*
X09886Y0691*
X09896Y0692D02*
X09886D01*
Y0693*
X10422Y0698D02*
Y0692D01*
X10462*
X10482Y0697D02*
X10492Y0698D01*
X10512*
X10522Y0697*
Y0696*
X10512Y0695*
X10502*
X10512*
X10522Y0694*
Y0693*
X10512Y0692*
X10492*
X10482Y0693*
X10562Y0692D02*
X10542Y0694D01*
Y0696*
X10562Y0698*
X10592D02*
Y0692D01*
X10632*
X10692D02*
X10652D01*
X10692Y0696*
Y0697*
X10682Y0698*
X10662*
X10652Y0697*
X10722Y0691D02*
X10732Y0692D01*
Y0693*
X10722*
Y0692*
X10732*
X10722Y0691*
X10712Y069*
X10772Y0698D02*
Y0692D01*
X10812*
X10862D02*
Y0698D01*
X10832Y0695*
X10872*
X10892Y0692D02*
X10912Y0694D01*
Y0696*
X10892Y0698*
X1184Y0692D02*
X118D01*
X1184Y0696*
Y0697*
X1183Y0698*
X1181*
X118Y0697*
X1186D02*
X1187Y0698D01*
X1189*
X119Y0697*
Y0693*
X1189Y0692*
X1187*
X1186Y0693*
Y0697*
X1192D02*
X1193Y0698D01*
X1195*
X1196Y0697*
Y0693*
X1195Y0692*
X1193*
X1192Y0693*
Y0697*
X12627Y0698D02*
X12587D01*
Y0695*
X12607Y0696*
X12617*
X12627Y0695*
Y0693*
X12617Y0692*
X12597*
X12587Y0693*
X12647Y0697D02*
X12657Y0698D01*
X12677*
X12687Y0697*
Y0693*
X12677Y0692*
X12657*
X12647Y0693*
Y0697*
X12707D02*
X12717Y0698D01*
X12737*
X12747Y0697*
Y0693*
X12737Y0692*
X12717*
X12707Y0693*
Y0697*
X09044Y07078D02*
Y07018D01*
X09074*
X09084Y07028*
Y07068*
X09074Y07078*
X09044*
X09104D02*
X09124D01*
X09114*
Y07018*
X09104*
X09124*
X09194Y07078D02*
X09154D01*
Y07048*
X09174*
X09154*
Y07018*
X09254Y07078D02*
X09214D01*
Y07048*
X09234*
X09214*
Y07018*
X09274Y07048D02*
Y07058D01*
X09284*
Y07048*
X09274*
Y07028D02*
X09284D01*
Y07018*
X09274Y07008*
X09284Y07018D02*
X09274D01*
Y07028*
X09536Y07018D02*
X09556D01*
X09546*
Y07078*
X09536Y07068*
X09586D02*
X09596Y07078D01*
X09616*
X09626Y07068*
Y07028*
X09616Y07018*
X09596*
X09586Y07028*
Y07068*
X09646D02*
X09656Y07078D01*
X09676*
X09686Y07068*
Y07028*
X09676Y07018*
X09656*
X09646Y07028*
Y07068*
X09716Y07018D02*
X09736D01*
X09746Y07028*
Y07048*
X09736Y07058*
X09716*
X09706Y07048*
Y07028*
X09716Y07018*
X09766Y07078D02*
Y07018D01*
Y07048*
X09776Y07058*
X09796*
X09806Y07048*
Y07018*
X09826D02*
Y07058D01*
X09836*
X09846Y07048*
Y07018*
Y07048*
X09856Y07058*
X09866Y07048*
Y07018*
X09886Y07048D02*
Y07058D01*
X09896*
Y07048*
X09886*
Y07028D02*
X09896D01*
Y07018*
X09886Y07008*
X09896Y07018D02*
X09886D01*
Y07028*
X10422Y07078D02*
Y07018D01*
X10462*
X10482D02*
X10502D01*
X10492*
Y07078*
X10482Y07068*
X10552Y07018D02*
X10532Y07038D01*
Y07058*
X10552Y07078*
X10582D02*
Y07018D01*
X10622*
X10682D02*
X10642D01*
X10682Y07058*
Y07068*
X10672Y07078*
X10652*
X10642Y07068*
X10702Y07018D02*
X10722Y07038D01*
Y07058*
X10702Y07078*
X10762Y07008D02*
X10772Y07018D01*
Y07028*
X10762*
Y07018*
X10772*
X10762Y07008*
X10752Y06998*
X10872Y07078D02*
Y07018D01*
X10912*
X10972Y07078D02*
X10952Y07068D01*
X10932Y07048*
Y07028*
X10942Y07018*
X10962*
X10972Y07028*
Y07038*
X10962Y07048*
X10932*
X11012Y07018D02*
X10992Y07038D01*
Y07058*
X11012Y07078*
X11042D02*
Y07018D01*
X11082*
X11142Y07078D02*
X11102D01*
Y07048*
X11122Y07058*
X11132*
X11142Y07048*
Y07028*
X11132Y07018*
X11112*
X11102Y07028*
X11162Y07018D02*
X11182Y07038D01*
Y07058*
X11162Y07078*
X11212Y07048D02*
Y07058D01*
X11222*
Y07048*
X11212*
Y07028D02*
X11222D01*
Y07018*
X11212Y07008*
X11222Y07018D02*
X11212D01*
Y07028*
X1184Y07018D02*
X118D01*
X1184Y07058*
Y07068*
X1183Y07078*
X1181*
X118Y07068*
X119Y07078D02*
X1186D01*
Y07048*
X1188Y07058*
X1189*
X119Y07048*
Y07028*
X1189Y07018*
X1187*
X1186Y07028*
X1192Y07068D02*
X1193Y07078D01*
X1195*
X1196Y07068*
Y07028*
X1195Y07018*
X1193*
X1192Y07028*
Y07068*
X12617Y07018D02*
Y07078D01*
X12587Y07048*
X12627*
X12647Y07068D02*
X12657Y07078D01*
X12677*
X12687Y07068*
Y07028*
X12677Y07018*
X12657*
X12647Y07028*
Y07068*
X12707D02*
X12717Y07078D01*
X12737*
X12747Y07068*
Y07028*
X12737Y07018*
X12717*
X12707Y07028*
Y07068*
X09084Y06773D02*
X09074Y06783D01*
X09054*
X09044Y06773*
Y06763*
X09054Y06753*
X09074*
X09084Y06743*
Y06733*
X09074Y06723*
X09054*
X09044Y06733*
X09144Y06783D02*
X09104D01*
Y06723*
X09144*
X09104Y06753D02*
X09124D01*
X09164D02*
Y06763D01*
X09174*
Y06753*
X09164*
Y06733D02*
X09174D01*
Y06723*
X09164Y06713*
X09174Y06723D02*
X09164D01*
Y06733*
X09084Y06675D02*
X09074Y06685D01*
X09054*
X09044Y06675*
Y06665*
X09054Y06655*
X09074*
X09084Y06645*
Y06635*
X09074Y06625*
X09054*
X09044Y06635*
X09144Y06685D02*
X09104D01*
Y06625*
X09144*
X09104Y06655D02*
X09124D01*
X09164D02*
Y06665D01*
X09174*
Y06655*
X09164*
Y06635D02*
X09174D01*
Y06625*
X09164Y06615*
X09174Y06625D02*
X09164D01*
Y06635*
X09576Y06783D02*
X09536D01*
Y06753*
X09556Y06763*
X09566*
X09576Y06753*
Y06733*
X09566Y06723*
X09546*
X09536Y06733*
X09636Y06783D02*
X09596D01*
Y06753*
X09616Y06763*
X09626*
X09636Y06753*
Y06733*
X09626Y06723*
X09606*
X09596Y06733*
X09666Y06723D02*
X09686D01*
X09696Y06733*
Y06753*
X09686Y06763*
X09666*
X09656Y06753*
Y06733*
X09666Y06723*
X09716Y06783D02*
Y06723D01*
Y06753*
X09726Y06763*
X09746*
X09756Y06753*
Y06723*
X09776D02*
Y06763D01*
X09786*
X09796Y06753*
Y06723*
Y06753*
X09806Y06763*
X09816Y06753*
Y06723*
X09836Y06753D02*
Y06763D01*
X09846*
Y06753*
X09836*
Y06733D02*
X09846D01*
Y06723*
X09836Y06713*
X09846Y06723D02*
X09836D01*
Y06733*
X09576Y06685D02*
X09536D01*
Y06655*
X09556Y06665*
X09566*
X09576Y06655*
Y06635*
X09566Y06625*
X09546*
X09536Y06635*
X09636Y06685D02*
X09596D01*
Y06655*
X09616Y06665*
X09626*
X09636Y06655*
Y06635*
X09626Y06625*
X09606*
X09596Y06635*
X09666Y06625D02*
X09686D01*
X09696Y06635*
Y06655*
X09686Y06665*
X09666*
X09656Y06655*
Y06635*
X09666Y06625*
X09716Y06685D02*
Y06625D01*
Y06655*
X09726Y06665*
X09746*
X09756Y06655*
Y06625*
X09776D02*
Y06665D01*
X09786*
X09796Y06655*
Y06625*
Y06655*
X09806Y06665*
X09816Y06655*
Y06625*
X09836Y06655D02*
Y06665D01*
X09846*
Y06655*
X09836*
Y06635D02*
X09846D01*
Y06625*
X09836Y06615*
X09846Y06625D02*
X09836D01*
Y06635*
X10422Y06783D02*
Y06723D01*
X10462*
X10482D02*
X10502D01*
X10492*
Y06783*
X10482Y06773*
X10552Y06723D02*
X10532Y06743D01*
Y06763*
X10552Y06783*
X10582D02*
Y06723D01*
X10622*
X10682D02*
X10642D01*
X10682Y06763*
Y06773*
X10672Y06783*
X10652*
X10642Y06773*
X10702Y06723D02*
X10722Y06743D01*
Y06763*
X10702Y06783*
X10762Y06713D02*
X10772Y06723D01*
Y06733*
X10762*
Y06723*
X10772*
X10762Y06713*
X10752Y06703*
X10872Y06783D02*
Y06723D01*
X10912*
X10972Y06783D02*
X10952Y06773D01*
X10932Y06753*
Y06733*
X10942Y06723*
X10962*
X10972Y06733*
Y06743*
X10962Y06753*
X10932*
X11012Y06723D02*
X10992Y06743D01*
Y06763*
X11012Y06783*
X11042D02*
Y06723D01*
X11082*
X11142Y06783D02*
X11102D01*
Y06753*
X11122Y06763*
X11132*
X11142Y06753*
Y06733*
X11132Y06723*
X11112*
X11102Y06733*
X11162Y06723D02*
X11182Y06743D01*
Y06763*
X11162Y06783*
X11212Y06753D02*
Y06763D01*
X11222*
Y06753*
X11212*
Y06733D02*
X11222D01*
Y06723*
X11212Y06713*
X11222Y06723D02*
X11212D01*
Y06733*
X10422Y06685D02*
Y06625D01*
X10462*
X10482Y06675D02*
X10492Y06685D01*
X10512*
X10522Y06675*
Y06665*
X10512Y06655*
X10502*
X10512*
X10522Y06645*
Y06635*
X10512Y06625*
X10492*
X10482Y06635*
X10562Y06625D02*
X10542Y06645D01*
Y06665*
X10562Y06685*
X10592D02*
Y06625D01*
X10632*
X10692D02*
X10652D01*
X10692Y06665*
Y06675*
X10682Y06685*
X10662*
X10652Y06675*
X10722Y06615D02*
X10732Y06625D01*
Y06635*
X10722*
Y06625*
X10732*
X10722Y06615*
X10712Y06605*
X10772Y06685D02*
Y06625D01*
X10812*
X10862D02*
Y06685D01*
X10832Y06655*
X10872*
X10892Y06625D02*
X10912Y06645D01*
Y06665*
X10892Y06685*
X1184Y06723D02*
X118D01*
X1184Y06763*
Y06773*
X1183Y06783*
X1181*
X118Y06773*
X119Y06783D02*
X1186D01*
Y06753*
X1188Y06763*
X1189*
X119Y06753*
Y06733*
X1189Y06723*
X1187*
X1186Y06733*
X1192Y06773D02*
X1193Y06783D01*
X1195*
X1196Y06773*
Y06733*
X1195Y06723*
X1193*
X1192Y06733*
Y06773*
X1184Y06625D02*
X118D01*
X1184Y06665*
Y06675*
X1183Y06685*
X1181*
X118Y06675*
X1186D02*
X1187Y06685D01*
X1189*
X119Y06675*
Y06635*
X1189Y06625*
X1187*
X1186Y06635*
Y06675*
X1192D02*
X1193Y06685D01*
X1195*
X1196Y06675*
Y06635*
X1195Y06625*
X1193*
X1192Y06635*
Y06675*
X08847Y06478D02*
X08857Y06488D01*
X08877*
X08887Y06478*
Y06468*
X08877Y06458*
X08867*
X08877*
X08887Y06448*
Y06438*
X08877Y06428*
X08857*
X08847Y06438*
X08907Y06428D02*
Y06438D01*
X08917*
Y06428*
X08907*
X09057Y06488D02*
X09017D01*
Y06458*
X09037*
X09017*
Y06428*
X09077Y06488D02*
X09097D01*
X09087*
Y06428*
X09077*
X09097*
X09127D02*
Y06488D01*
X09167Y06428*
Y06488*
X09187D02*
X09207D01*
X09197*
Y06428*
X09187*
X09207*
X09277Y06478D02*
X09267Y06488D01*
X09247*
X09237Y06478*
Y06468*
X09247Y06458*
X09267*
X09277Y06448*
Y06438*
X09267Y06428*
X09247*
X09237Y06438*
X09297Y06488D02*
Y06428D01*
Y06458*
X09337*
Y06488*
Y06428*
X09397Y06488D02*
X09357D01*
Y06428*
X09397*
X09357Y06458D02*
X09377D01*
X09417Y06488D02*
Y06428D01*
X09447*
X09457Y06438*
Y06478*
X09447Y06488*
X09417*
X09537Y06428D02*
Y06488D01*
X09567*
X09577Y06478*
Y06458*
X09567Y06448*
X09537*
X09597Y06428D02*
Y06468D01*
X09617Y06488*
X09637Y06468*
Y06428*
Y06458*
X09597*
X09657Y06428D02*
Y06488D01*
X09697Y06428*
Y06488*
X09757D02*
X09717D01*
Y06428*
X09757*
X09717Y06458D02*
X09737D01*
X09777Y06488D02*
Y06428D01*
X09817*
X09897Y06488D02*
X09937D01*
X09917*
Y06428*
X09957Y06488D02*
Y06428D01*
Y06458*
X09997*
Y06488*
Y06428*
X10017Y06488D02*
X10037D01*
X10027*
Y06428*
X10017*
X10037*
X10107Y06478D02*
X10097Y06488D01*
X10077*
X10067Y06478*
Y06438*
X10077Y06428*
X10097*
X10107Y06438*
X10127Y06488D02*
Y06428D01*
Y06448*
X10167Y06488*
X10137Y06458*
X10167Y06428*
X10187D02*
Y06488D01*
X10227Y06428*
Y06488*
X10287D02*
X10247D01*
Y06428*
X10287*
X10247Y06458D02*
X10267D01*
X10347Y06478D02*
X10337Y06488D01*
X10317*
X10307Y06478*
Y06468*
X10317Y06458*
X10337*
X10347Y06448*
Y06438*
X10337Y06428*
X10317*
X10307Y06438*
X10407Y06478D02*
X10397Y06488D01*
X10377*
X10367Y06478*
Y06468*
X10377Y06458*
X10397*
X10407Y06448*
Y06438*
X10397Y06428*
X10377*
X10367Y06438*
X10487Y06488D02*
X10507D01*
X10497*
Y06428*
X10487*
X10507*
X10577Y06478D02*
X10567Y06488D01*
X10547*
X10537Y06478*
Y06468*
X10547Y06458*
X10567*
X10577Y06448*
Y06438*
X10567Y06428*
X10547*
X10537Y06438*
X10657Y06428D02*
Y06488D01*
X10697Y06428*
Y06488*
X10747D02*
X10727D01*
X10717Y06478*
Y06438*
X10727Y06428*
X10747*
X10757Y06438*
Y06478*
X10747Y06488*
X10777D02*
X10817D01*
X10797*
Y06428*
X10937Y06478D02*
X10927Y06488D01*
X10907*
X10897Y06478*
Y06438*
X10907Y06428*
X10927*
X10937Y06438*
X10957Y06428D02*
Y06488D01*
X10987*
X10997Y06478*
Y06458*
X10987Y06448*
X10957*
X10977D02*
X10997Y06428D01*
X11017Y06488D02*
X11037D01*
X11027*
Y06428*
X11017*
X11037*
X11067Y06488D02*
X11107D01*
X11087*
Y06428*
X11127Y06488D02*
X11147D01*
X11137*
Y06428*
X11127*
X11147*
X11217Y06478D02*
X11207Y06488D01*
X11187*
X11177Y06478*
Y06438*
X11187Y06428*
X11207*
X11217Y06438*
X11237Y06428D02*
Y06468D01*
X11257Y06488*
X11277Y06468*
Y06428*
Y06458*
X11237*
X11297Y06488D02*
Y06428D01*
X11337*
X11357Y06468D02*
X11367D01*
Y06458*
X11357*
Y06468*
Y06438D02*
X11367D01*
Y06428*
X11357*
Y06438*
X11466Y06488D02*
X11506D01*
X11486*
Y06428*
X11556Y06488D02*
X11536D01*
X11526Y06478*
Y06438*
X11536Y06428*
X11556*
X11566Y06438*
Y06478*
X11556Y06488*
X11646D02*
Y06428D01*
X11676*
X11686Y06438*
Y06448*
X11676Y06458*
X11646*
X11676*
X11686Y06468*
Y06478*
X11676Y06488*
X11646*
X11746D02*
X11706D01*
Y06428*
X11746*
X11706Y06458D02*
X11726D01*
X11826Y06428D02*
Y06468D01*
X11846Y06488*
X11866Y06468*
Y06428*
Y06458*
X11826*
X11886Y06428D02*
Y06488D01*
X11916*
X11926Y06478*
Y06458*
X11916Y06448*
X11886*
X11946Y06428D02*
Y06488D01*
X11976*
X11986Y06478*
Y06458*
X11976Y06448*
X11946*
X12006Y06428D02*
Y06488D01*
X12036*
X12046Y06478*
Y06458*
X12036Y06448*
X12006*
X12026D02*
X12046Y06428D01*
X12096Y06488D02*
X12076D01*
X12066Y06478*
Y06438*
X12076Y06428*
X12096*
X12106Y06438*
Y06478*
X12096Y06488*
X12126D02*
X12166Y06428D01*
Y06488D02*
X12126Y06428D01*
X12186Y06488D02*
X12206D01*
X12196*
Y06428*
X12186*
X12206*
X12236D02*
Y06488D01*
X12256Y06468*
X12276Y06488*
Y06428*
X12296D02*
Y06468D01*
X12316Y06488*
X12336Y06468*
Y06428*
Y06458*
X12296*
X12356Y06488D02*
X12396D01*
X12376*
Y06428*
X12456Y06488D02*
X12416D01*
Y06428*
X12456*
X12416Y06458D02*
X12436D01*
X12476Y06488D02*
Y06428D01*
X12516*
X12536Y06488D02*
Y06478D01*
X12556Y06458*
X12576Y06478*
Y06488*
X12556Y06458D02*
Y06428D01*
X12656D02*
X12676D01*
X12666*
Y06488*
X12656Y06478*
X12706Y06428D02*
Y06438D01*
X12716*
Y06428*
X12706*
X12796Y06488D02*
X12776Y06478D01*
X12756Y06458*
Y06438*
X12766Y06428*
X12786*
X12796Y06438*
Y06448*
X12786Y06458*
X12756*
X12816Y06428D02*
Y06468D01*
X12826*
X12836Y06458*
Y06428*
Y06458*
X12846Y06468*
X12856Y06458*
Y06428*
X12876D02*
Y06468D01*
X12886*
X12896Y06458*
Y06428*
Y06458*
X12906Y06468*
X12916Y06458*
Y06428*
X08877Y06231D02*
Y06291D01*
X08847Y06261*
X08887*
X08907Y06231D02*
Y06241D01*
X08917*
Y06231*
X08907*
X09017Y06291D02*
Y06231D01*
X09047*
X09057Y06241*
Y06251*
X09047Y06261*
X09017*
X09047*
X09057Y06271*
Y06281*
X09047Y06291*
X09017*
X09107D02*
X09087D01*
X09077Y06281*
Y06241*
X09087Y06231*
X09107*
X09117Y06241*
Y06281*
X09107Y06291*
X09137Y06231D02*
Y06271D01*
X09157Y06291*
X09177Y06271*
Y06231*
Y06261*
X09137*
X09197Y06231D02*
Y06291D01*
X09227*
X09237Y06281*
Y06261*
X09227Y06251*
X09197*
X09217D02*
X09237Y06231D01*
X09257Y06291D02*
Y06231D01*
X09287*
X09297Y06241*
Y06281*
X09287Y06291*
X09257*
X09417D02*
X09377D01*
Y06261*
X09397*
X09377*
Y06231*
X09437Y06291D02*
X09457D01*
X09447*
Y06231*
X09437*
X09457*
X09487D02*
Y06291D01*
X09527Y06231*
Y06291*
X09547D02*
X09567D01*
X09557*
Y06231*
X09547*
X09567*
X09637Y06281D02*
X09627Y06291D01*
X09607*
X09597Y06281*
Y06271*
X09607Y06261*
X09627*
X09637Y06251*
Y06241*
X09627Y06231*
X09607*
X09597Y06241*
X09657Y06291D02*
Y06231D01*
Y06261*
X09697*
Y06291*
Y06231*
X09717Y06271D02*
X09727D01*
Y06261*
X09717*
Y06271*
Y06241D02*
X09727D01*
Y06231*
X09717*
Y06241*
X09827Y06291D02*
X09847D01*
X09837*
Y06231*
X09827*
X09847*
X09877D02*
Y06291D01*
X09897Y06271*
X09917Y06291*
Y06231*
X09937D02*
Y06291D01*
X09957Y06271*
X09977Y06291*
Y06231*
X10037Y06291D02*
X09997D01*
Y06231*
X10037*
X09997Y06261D02*
X10017D01*
X10057Y06231D02*
Y06291D01*
X10087*
X10097Y06281*
Y06261*
X10087Y06251*
X10057*
X10077D02*
X10097Y06231D01*
X10157Y06281D02*
X10147Y06291D01*
X10127*
X10117Y06281*
Y06271*
X10127Y06261*
X10147*
X10157Y06251*
Y06241*
X10147Y06231*
X10127*
X10117Y06241*
X10177Y06291D02*
X10197D01*
X10187*
Y06231*
X10177*
X10197*
X10257Y06291D02*
X10237D01*
X10227Y06281*
Y06241*
X10237Y06231*
X10257*
X10267Y06241*
Y06281*
X10257Y06291*
X10287Y06231D02*
Y06291D01*
X10327Y06231*
Y06291*
X10407Y06231D02*
Y06271D01*
X10427Y06291*
X10447Y06271*
Y06231*
Y06261*
X10407*
X10467Y06271D02*
Y06241D01*
X10477Y06231*
X10507*
Y06271*
X10527Y06231D02*
X10567Y06271D01*
X10627Y06291D02*
X10587D01*
Y06231*
X10627*
X10587Y06261D02*
X10607D01*
X10647Y06291D02*
Y06231D01*
X10687*
X10747Y06291D02*
X10707D01*
Y06231*
X10747*
X10707Y06261D02*
X10727D01*
X10807Y06281D02*
X10797Y06291D01*
X10777*
X10767Y06281*
Y06241*
X10777Y06231*
X10797*
X10807Y06241*
X10827Y06291D02*
X10867D01*
X10847*
Y06231*
X10887D02*
Y06291D01*
X10917*
X10927Y06281*
Y06261*
X10917Y06251*
X10887*
X10907D02*
X10927Y06231D01*
X10977Y06291D02*
X10957D01*
X10947Y06281*
Y06241*
X10957Y06231*
X10977*
X10987Y06241*
Y06281*
X10977Y06291*
X11007D02*
Y06231D01*
X11047*
X11107Y06291D02*
X11067D01*
Y06231*
X11107*
X11067Y06261D02*
X11087D01*
X11167Y06281D02*
X11157Y06291D01*
X11137*
X11127Y06281*
Y06271*
X11137Y06261*
X11157*
X11167Y06251*
Y06241*
X11157Y06231*
X11137*
X11127Y06241*
X11227Y06281D02*
X11217Y06291D01*
X11197*
X11187Y06281*
Y06271*
X11197Y06261*
X11217*
X11227Y06251*
Y06241*
X11217Y06231*
X11197*
X11187Y06241*
X11307Y06231D02*
Y06291D01*
X11347Y06231*
Y06291*
X11367Y06231D02*
X11387D01*
X11377*
Y06271*
X11367*
X11417Y06261D02*
Y06271D01*
X11427*
Y06261*
X11417*
Y06241D02*
X11427D01*
Y06231*
X11417Y06221*
X11427Y06231D02*
X11417D01*
Y06241*
X11526Y06281D02*
X11536Y06291D01*
X11556*
X11566Y06281*
Y06241*
X11556Y06231*
X11536*
X11526Y06241*
Y06281*
X11586Y06231D02*
Y06241D01*
X11596*
Y06231*
X11586*
X11636Y06281D02*
X11646Y06291D01*
X11666*
X11676Y06281*
Y06241*
X11666Y06231*
X11646*
X11636Y06241*
Y06281*
X11736Y06291D02*
X11696D01*
Y06261*
X11716Y06271*
X11726*
X11736Y06261*
Y06241*
X11726Y06231*
X11706*
X11696Y06241*
X11756Y06261D02*
X11796D01*
X11816Y06281D02*
X11826Y06291D01*
X11846*
X11856Y06281*
Y06241*
X11846Y06231*
X11826*
X11816Y06241*
Y06281*
X11876Y06231D02*
Y06241D01*
X11886*
Y06231*
X11876*
X11926D02*
X11946D01*
X11936*
Y06291*
X11926Y06281*
X12016Y06231D02*
X11976D01*
X12016Y06271*
Y06281*
X12006Y06291*
X11986*
X11976Y06281*
X12096Y06271D02*
Y06241D01*
X12106Y06231*
X12136*
Y06271*
X12156Y06231D02*
Y06271D01*
X12166*
X12176Y06261*
Y06231*
Y06261*
X12186Y06271*
X12196Y06261*
Y06231*
X12316Y06281D02*
X12306Y06291D01*
X12286*
X12276Y06281*
Y06241*
X12286Y06231*
X12306*
X12316Y06241*
Y06261*
X12296*
X12366Y06291D02*
X12346D01*
X12336Y06281*
Y06241*
X12346Y06231*
X12366*
X12376Y06241*
Y06281*
X12366Y06291*
X12396D02*
Y06231D01*
X12436*
X12456Y06291D02*
Y06231D01*
X12486*
X12496Y06241*
Y06281*
X12486Y06291*
X12456*
X12516Y06261D02*
Y06271D01*
X12526*
Y06261*
X12516*
Y06241D02*
X12526D01*
Y06231*
X12516Y06221*
X12526Y06231D02*
X12516D01*
Y06241*
X12626Y06281D02*
X12636Y06291D01*
X12656*
X12666Y06281*
Y06271*
X12656Y06261*
X12646*
X12656*
X12666Y06251*
Y06241*
X12656Y06231*
X12636*
X12626Y06241*
X12686Y06261D02*
X12726D01*
X12786Y06291D02*
X12766Y06281D01*
X12746Y06261*
Y06241*
X12756Y06231*
X12776*
X12786Y06241*
Y06251*
X12776Y06261*
X12746*
X12806Y06271D02*
Y06241D01*
X12816Y06231*
X12846*
Y06271*
X12866Y06231D02*
Y06271D01*
X12876*
X12886Y06261*
Y06231*
Y06261*
X12896Y06271*
X12906Y06261*
Y06231*
X12986D02*
Y06291D01*
X13026Y06231*
Y06291*
X13046D02*
X13066D01*
X13056*
Y06231*
X13046*
X13066*
X13136Y06281D02*
X13126Y06291D01*
X13106*
X13096Y06281*
Y06241*
X13106Y06231*
X13126*
X13136Y06241*
X13156Y06291D02*
Y06231D01*
Y06251*
X13196Y06291*
X13166Y06261*
X13196Y06231*
X13256Y06291D02*
X13216D01*
Y06231*
X13256*
X13216Y06261D02*
X13236D01*
X13276Y06291D02*
Y06231D01*
X13316*
X08887Y06094D02*
X08847D01*
Y06064*
X08867Y06074*
X08877*
X08887Y06064*
Y06044*
X08877Y06034*
X08857*
X08847Y06044*
X08907Y06034D02*
Y06044D01*
X08917*
Y06034*
X08907*
X09057Y06084D02*
X09047Y06094D01*
X09027*
X09017Y06084*
Y06074*
X09027Y06064*
X09047*
X09057Y06054*
Y06044*
X09047Y06034*
X09027*
X09017Y06044*
X09107Y06094D02*
X09087D01*
X09077Y06084*
Y06044*
X09087Y06034*
X09107*
X09117Y06044*
Y06084*
X09107Y06094*
X09137D02*
Y06034D01*
X09177*
X09197Y06094D02*
Y06034D01*
X09227*
X09237Y06044*
Y06084*
X09227Y06094*
X09197*
X09297D02*
X09257D01*
Y06034*
X09297*
X09257Y06064D02*
X09277D01*
X09317Y06034D02*
Y06094D01*
X09347*
X09357Y06084*
Y06064*
X09347Y06054*
X09317*
X09337D02*
X09357Y06034D01*
X09437D02*
Y06094D01*
X09467*
X09477Y06084*
Y06064*
X09467Y06054*
X09437*
X09457D02*
X09477Y06034D01*
X09537Y06094D02*
X09497D01*
Y06034*
X09537*
X09497Y06064D02*
X09517D01*
X09597Y06084D02*
X09587Y06094D01*
X09567*
X09557Y06084*
Y06074*
X09567Y06064*
X09587*
X09597Y06054*
Y06044*
X09587Y06034*
X09567*
X09557Y06044*
X09617Y06094D02*
X09637D01*
X09627*
Y06034*
X09617*
X09637*
X09707Y06084D02*
X09697Y06094D01*
X09677*
X09667Y06084*
Y06074*
X09677Y06064*
X09697*
X09707Y06054*
Y06044*
X09697Y06034*
X09677*
X09667Y06044*
X09727Y06094D02*
X09767D01*
X09747*
Y06034*
X09787Y06074D02*
X09797D01*
Y06064*
X09787*
Y06074*
Y06044D02*
X09797D01*
Y06034*
X09787*
Y06044*
X09897Y06034D02*
Y06074D01*
X09917Y06094*
X09937Y06074*
Y06034*
Y06064*
X09897*
X09957Y06034D02*
Y06094D01*
X09987*
X09997Y06084*
Y06064*
X09987Y06054*
X09957*
X10017Y06034D02*
Y06094D01*
X10047*
X10057Y06084*
Y06064*
X10047Y06054*
X10017*
X10077Y06094D02*
Y06034D01*
X10117*
X10137Y06094D02*
Y06084D01*
X10157Y06064*
X10177Y06084*
Y06094*
X10157Y06064D02*
Y06034D01*
X10257Y06094D02*
X10297D01*
X10277*
Y06034*
X10347Y06094D02*
X10327D01*
X10317Y06084*
Y06044*
X10327Y06034*
X10347*
X10357Y06044*
Y06084*
X10347Y06094*
X10437D02*
Y06034D01*
X10467*
X10477Y06044*
Y06054*
X10467Y06064*
X10437*
X10467*
X10477Y06074*
Y06084*
X10467Y06094*
X10437*
X10527D02*
X10507D01*
X10497Y06084*
Y06044*
X10507Y06034*
X10527*
X10537Y06044*
Y06084*
X10527Y06094*
X10557D02*
X10597D01*
X10577*
Y06034*
X10617Y06094D02*
Y06034D01*
Y06064*
X10657*
Y06094*
Y06034*
X10777Y06084D02*
X10767Y06094D01*
X10747*
X10737Y06084*
Y06074*
X10747Y06064*
X10767*
X10777Y06054*
Y06044*
X10767Y06034*
X10747*
X10737Y06044*
X10797Y06094D02*
X10817D01*
X10807*
Y06034*
X10797*
X10817*
X10847Y06094D02*
Y06034D01*
X10877*
X10887Y06044*
Y06084*
X10877Y06094*
X10847*
X10947D02*
X10907D01*
Y06034*
X10947*
X10907Y06064D02*
X10927D01*
X11007Y06084D02*
X10997Y06094D01*
X10977*
X10967Y06084*
Y06074*
X10977Y06064*
X10997*
X11007Y06054*
Y06044*
X10997Y06034*
X10977*
X10967Y06044*
X11127Y06084D02*
X11117Y06094D01*
X11097*
X11087Y06084*
Y06044*
X11097Y06034*
X11117*
X11127Y06044*
X11177Y06094D02*
X11157D01*
X11147Y06084*
Y06044*
X11157Y06034*
X11177*
X11187Y06044*
Y06084*
X11177Y06094*
X11207D02*
Y06034D01*
X11247*
X11297Y06094D02*
X11277D01*
X11267Y06084*
Y06044*
X11277Y06034*
X11297*
X11307Y06044*
Y06084*
X11297Y06094*
X11327D02*
Y06044D01*
X11337Y06034*
X11357*
X11367Y06044*
Y06094*
X11387Y06034D02*
Y06094D01*
X11417*
X11427Y06084*
Y06064*
X11417Y06054*
X11387*
X11407D02*
X11427Y06034D01*
X11506Y06064D02*
X11546D01*
X11626Y06094D02*
Y06034D01*
X11656*
X11666Y06044*
Y06054*
X11656Y06064*
X11626*
X11656*
X11666Y06074*
Y06084*
X11656Y06094*
X11626*
X11686D02*
Y06034D01*
X11726*
X11746Y06094D02*
Y06044D01*
X11756Y06034*
X11776*
X11786Y06044*
Y06094*
X11846D02*
X11806D01*
Y06034*
X11846*
X11806Y06064D02*
X11826D01*
X08887Y05897D02*
X08867Y05887D01*
X08847Y05867*
Y05847*
X08857Y05837*
X08877*
X08887Y05847*
Y05857*
X08877Y05867*
X08847*
X08907Y05837D02*
Y05847D01*
X08917*
Y05837*
X08907*
X09057Y05887D02*
X09047Y05897D01*
X09027*
X09017Y05887*
Y05847*
X09027Y05837*
X09047*
X09057Y05847*
X09107Y05897D02*
X09087D01*
X09077Y05887*
Y05847*
X09087Y05837*
X09107*
X09117Y05847*
Y05887*
X09107Y05897*
X09137Y05837D02*
Y05897D01*
X09157Y05877*
X09177Y05897*
Y05837*
X09197D02*
Y05897D01*
X09227*
X09237Y05887*
Y05867*
X09227Y05857*
X09197*
X09287Y05897D02*
X09267D01*
X09257Y05887*
Y05847*
X09267Y05837*
X09287*
X09297Y05847*
Y05887*
X09287Y05897*
X09317Y05837D02*
Y05897D01*
X09357Y05837*
Y05897*
X09417D02*
X09377D01*
Y05837*
X09417*
X09377Y05867D02*
X09397D01*
X09437Y05837D02*
Y05897D01*
X09477Y05837*
Y05897*
X09497D02*
X09537D01*
X09517*
Y05837*
X09617Y05897D02*
X09637D01*
X09627*
Y05837*
X09617*
X09637*
X09667Y05897D02*
Y05837D01*
X09697*
X09707Y05847*
Y05887*
X09697Y05897*
X09667*
X09767D02*
X09727D01*
Y05837*
X09767*
X09727Y05867D02*
X09747D01*
X09787Y05837D02*
Y05897D01*
X09827Y05837*
Y05897*
X09847D02*
X09887D01*
X09867*
Y05837*
X09907Y05877D02*
X09917D01*
Y05867*
X09907*
Y05877*
Y05847D02*
X09917D01*
Y05837*
X09907*
Y05847*
X10057Y05887D02*
X10047Y05897D01*
X10027*
X10017Y05887*
Y05847*
X10027Y05837*
X10047*
X10057Y05847*
X10107Y05897D02*
X10087D01*
X10077Y05887*
Y05847*
X10087Y05837*
X10107*
X10117Y05847*
Y05887*
X10107Y05897*
X10137D02*
Y05837D01*
X10177*
X10227Y05897D02*
X10207D01*
X10197Y05887*
Y05847*
X10207Y05837*
X10227*
X10237Y05847*
Y05887*
X10227Y05897*
X10257D02*
Y05847D01*
X10267Y05837*
X10287*
X10297Y05847*
Y05897*
X10317Y05837D02*
Y05897D01*
X10347*
X10357Y05887*
Y05867*
X10347Y05857*
X10317*
X10337D02*
X10357Y05837D01*
X10437Y05897D02*
X10477D01*
X10457*
Y05837*
X10527Y05897D02*
X10507D01*
X10497Y05887*
Y05847*
X10507Y05837*
X10527*
X10537Y05847*
Y05887*
X10527Y05897*
X10617D02*
Y05837D01*
X10647*
X10657Y05847*
Y05857*
X10647Y05867*
X10617*
X10647*
X10657Y05877*
Y05887*
X10647Y05897*
X10617*
X10717D02*
X10677D01*
Y05837*
X10717*
X10677Y05867D02*
X10697D01*
X10797Y05897D02*
Y05837D01*
X10817Y05857*
X10837Y05837*
Y05897*
X10857D02*
Y05837D01*
Y05867*
X10897*
Y05897*
Y05837*
X10917Y05897D02*
X10937D01*
X10927*
Y05837*
X10917*
X10937*
X10967Y05897D02*
X11007D01*
X10987*
Y05837*
X11067Y05897D02*
X11027D01*
Y05837*
X11067*
X11027Y05867D02*
X11047D01*
X09052Y05234D02*
Y05174D01*
X09092*
X09122Y05214D02*
X09142D01*
X09152Y05204*
Y05174*
X09122*
X09112Y05184*
X09122Y05194*
X09152*
X09172Y05214D02*
Y05184D01*
X09182Y05174*
X09212*
Y05164*
X09202Y05154*
X09192*
X09212Y05174D02*
Y05214D01*
X09262Y05174D02*
X09242D01*
X09232Y05184*
Y05204*
X09242Y05214*
X09262*
X09272Y05204*
Y05194*
X09232*
X09292Y05214D02*
Y05174D01*
Y05194*
X09302Y05204*
X09312Y05214*
X09322*
X09092Y03674D02*
X09072Y03664D01*
X09052Y03644*
Y03624*
X09062Y03614*
X09082*
X09092Y03624*
Y03634*
X09082Y03644*
X09052*
X09092Y03914D02*
X09052D01*
Y03884*
X09072Y03894*
X09082*
X09092Y03884*
Y03864*
X09082Y03854*
X09062*
X09052Y03864*
X09082Y04094D02*
Y04154D01*
X09052Y04124*
X09092*
X09052Y04384D02*
X09062Y04394D01*
X09082*
X09092Y04384*
Y04374*
X09082Y04364*
X09072*
X09082*
X09092Y04354*
Y04344*
X09082Y04334*
X09062*
X09052Y04344*
X09092Y04574D02*
X09052D01*
X09092Y04614*
Y04624*
X09082Y04634*
X09062*
X09052Y04624*
Y04814D02*
X09072D01*
X09062*
Y04874*
X09052Y04864*
X09462Y05174D02*
Y05234D01*
X09502Y05174*
Y05234*
X09532Y05214D02*
X09552D01*
X09562Y05204*
Y05174*
X09532*
X09522Y05184*
X09532Y05194*
X09562*
X09582Y05174D02*
Y05214D01*
X09592*
X09602Y05204*
Y05174*
Y05204*
X09612Y05214*
X09622Y05204*
Y05174*
X09672D02*
X09652D01*
X09642Y05184*
Y05204*
X09652Y05214*
X09672*
X09682Y05204*
Y05194*
X09642*
X09462Y03434D02*
Y03374D01*
X09492*
X09502Y03384*
Y03394*
X09492Y03404*
X09462*
X09492*
X09502Y03414*
Y03424*
X09492Y03434*
X09462*
X09532Y03374D02*
X09552D01*
X09562Y03384*
Y03404*
X09552Y03414*
X09532*
X09522Y03404*
Y03384*
X09532Y03374*
X09592Y03424D02*
Y03414D01*
X09582*
X09602*
X09592*
Y03384*
X09602Y03374*
X09642Y03424D02*
Y03414D01*
X09632*
X09652*
X09642*
Y03384*
X09652Y03374*
X09692D02*
X09711D01*
X09721Y03384*
Y03404*
X09711Y03414*
X09692*
X09682Y03404*
Y03384*
X09692Y03374*
X09741D02*
Y03414D01*
X09751*
X09761Y03404*
Y03374*
Y03404*
X09771Y03414*
X09781Y03404*
Y03374*
X09891Y03434D02*
X09871D01*
X09861Y03424*
Y03384*
X09871Y03374*
X09891*
X09901Y03384*
Y03424*
X09891Y03434*
X09921Y03414D02*
X09941Y03374D01*
X09961Y03414*
X10011Y03374D02*
X09991D01*
X09981Y03384*
Y03404*
X09991Y03414*
X10011*
X10021Y03404*
Y03394*
X09981*
X10041Y03414D02*
Y03374D01*
Y03394*
X10051Y03404*
X10061Y03414*
X10071*
X10101Y03374D02*
X10121D01*
X10111*
Y03434*
X10101*
X10161Y03414D02*
X10181D01*
X10191Y03404*
Y03374*
X10161*
X10151Y03384*
X10161Y03394*
X10191*
X10211Y03414D02*
Y03384D01*
X10221Y03374*
X10251*
Y03364*
X10241Y03354*
X10231*
X10251Y03374D02*
Y03414D01*
X09462Y03554D02*
Y03494D01*
X09492*
X09502Y03504*
Y03514*
X09492Y03524*
X09462*
X09492*
X09502Y03534*
Y03544*
X09492Y03554*
X09462*
X09532Y03494D02*
X09552D01*
X09562Y03504*
Y03524*
X09552Y03534*
X09532*
X09522Y03524*
Y03504*
X09532Y03494*
X09592Y03544D02*
Y03534D01*
X09582*
X09602*
X09592*
Y03504*
X09602Y03494*
X09642Y03544D02*
Y03534D01*
X09632*
X09652*
X09642*
Y03504*
X09652Y03494*
X09692D02*
X09711D01*
X09721Y03504*
Y03524*
X09711Y03534*
X09692*
X09682Y03524*
Y03504*
X09692Y03494*
X09741D02*
Y03534D01*
X09751*
X09761Y03524*
Y03494*
Y03524*
X09771Y03534*
X09781Y03524*
Y03494*
X09901Y03544D02*
X09891Y03554D01*
X09871*
X09861Y03544*
Y03534*
X09871Y03524*
X09891*
X09901Y03514*
Y03504*
X09891Y03494*
X09871*
X09861Y03504*
X09931Y03494D02*
X09951D01*
X09961Y03504*
Y03524*
X09951Y03534*
X09931*
X09921Y03524*
Y03504*
X09931Y03494*
X09981D02*
X10001D01*
X09991*
Y03554*
X09981*
X10071D02*
Y03494D01*
X10041*
X10031Y03504*
Y03524*
X10041Y03534*
X10071*
X10121Y03494D02*
X10101D01*
X10091Y03504*
Y03524*
X10101Y03534*
X10121*
X10131Y03524*
Y03514*
X10091*
X10151Y03534D02*
Y03494D01*
Y03514*
X10161Y03524*
X10171Y03534*
X10181*
X09462Y03674D02*
Y03614D01*
X09502*
X09562Y03674D02*
X09542Y03664D01*
X09522Y03644*
Y03624*
X09532Y03614*
X09552*
X09562Y03624*
Y03634*
X09552Y03644*
X09522*
X09462Y03794D02*
Y03734D01*
X09492*
X09502Y03744*
Y03784*
X09492Y03794*
X09462*
X09522Y03734D02*
X09542D01*
X09532*
Y03774*
X09522*
X09602Y03734D02*
X09582D01*
X09572Y03744*
Y03764*
X09582Y03774*
X09602*
X09612Y03764*
Y03754*
X09572*
X09632Y03734D02*
X09652D01*
X09642*
Y03794*
X09632*
X09711Y03734D02*
X09692D01*
X09682Y03744*
Y03764*
X09692Y03774*
X09711*
X09721Y03764*
Y03754*
X09682*
X09781Y03774D02*
X09751D01*
X09741Y03764*
Y03744*
X09751Y03734*
X09781*
X09811Y03784D02*
Y03774D01*
X09801*
X09821*
X09811*
Y03744*
X09821Y03734*
X09851Y03774D02*
Y03734D01*
Y03754*
X09861Y03764*
X09871Y03774*
X09881*
X09911Y03734D02*
X09931D01*
X09921*
Y03774*
X09911*
X10001D02*
X09971D01*
X09961Y03764*
Y03744*
X09971Y03734*
X10001*
X10061Y03794D02*
X10021D01*
Y03764*
X10041Y03774*
X10051*
X10061Y03764*
Y03744*
X10051Y03734*
X10031*
X10021Y03744*
X09462Y03914D02*
Y03854D01*
X09502*
X09562Y03914D02*
X09522D01*
Y03884*
X09542Y03894*
X09552*
X09562Y03884*
Y03864*
X09552Y03854*
X09532*
X09522Y03864*
X09462Y04034D02*
Y03974D01*
X09492*
X09502Y03984*
Y04024*
X09492Y04034*
X09462*
X09522Y03974D02*
X09542D01*
X09532*
Y04014*
X09522*
X09602Y03974D02*
X09582D01*
X09572Y03984*
Y04004*
X09582Y04014*
X09602*
X09612Y04004*
Y03994*
X09572*
X09632Y03974D02*
X09652D01*
X09642*
Y04034*
X09632*
X09711Y03974D02*
X09692D01*
X09682Y03984*
Y04004*
X09692Y04014*
X09711*
X09721Y04004*
Y03994*
X09682*
X09781Y04014D02*
X09751D01*
X09741Y04004*
Y03984*
X09751Y03974*
X09781*
X09811Y04024D02*
Y04014D01*
X09801*
X09821*
X09811*
Y03984*
X09821Y03974*
X09851Y04014D02*
Y03974D01*
Y03994*
X09861Y04004*
X09871Y04014*
X09881*
X09911Y03974D02*
X09931D01*
X09921*
Y04014*
X09911*
X10001D02*
X09971D01*
X09961Y04004*
Y03984*
X09971Y03974*
X10001*
X10021Y04024D02*
X10031Y04034D01*
X10051*
X10061Y04024*
Y04014*
X10051Y04004*
X10041*
X10051*
X10061Y03994*
Y03984*
X10051Y03974*
X10031*
X10021Y03984*
X09462Y04154D02*
Y04094D01*
X09502*
X09552D02*
Y04154D01*
X09522Y04124*
X09562*
X09662Y04094D02*
X09642Y04114D01*
Y04134*
X09662Y04154*
X09692Y04094D02*
Y04154D01*
X09721*
X09731Y04144*
Y04124*
X09721Y04114*
X09692*
X09751Y04154D02*
Y04094D01*
X09771Y04114*
X09791Y04094*
Y04154*
X09811Y04094D02*
Y04154D01*
X09841*
X09851Y04144*
Y04124*
X09841Y04114*
X09811*
X09831D02*
X09851Y04094D01*
X09871D02*
X09891Y04114D01*
Y04134*
X09871Y04154*
X09462Y04274D02*
Y04214D01*
X09492*
X09502Y04224*
Y04264*
X09492Y04274*
X09462*
X09522Y04214D02*
X09542D01*
X09532*
Y04254*
X09522*
X09602Y04214D02*
X09582D01*
X09572Y04224*
Y04244*
X09582Y04254*
X09602*
X09612Y04244*
Y04234*
X09572*
X09632Y04214D02*
X09652D01*
X09642*
Y04274*
X09632*
X09711Y04214D02*
X09692D01*
X09682Y04224*
Y04244*
X09692Y04254*
X09711*
X09721Y04244*
Y04234*
X09682*
X09781Y04254D02*
X09751D01*
X09741Y04244*
Y04224*
X09751Y04214*
X09781*
X09811Y04264D02*
Y04254D01*
X09801*
X09821*
X09811*
Y04224*
X09821Y04214*
X09851Y04254D02*
Y04214D01*
Y04234*
X09861Y04244*
X09871Y04254*
X09881*
X09911Y04214D02*
X09931D01*
X09921*
Y04254*
X09911*
X10001D02*
X09971D01*
X09961Y04244*
Y04224*
X09971Y04214*
X10001*
X10061D02*
X10021D01*
X10061Y04254*
Y04264*
X10051Y04274*
X10031*
X10021Y04264*
X09462Y04394D02*
Y04334D01*
X09502*
X09522Y04384D02*
X09532Y04394D01*
X09552*
X09562Y04384*
Y04374*
X09552Y04364*
X09542*
X09552*
X09562Y04354*
Y04344*
X09552Y04334*
X09532*
X09522Y04344*
X09462Y04514D02*
Y04454D01*
X09492*
X09502Y04464*
Y04504*
X09492Y04514*
X09462*
X09522Y04454D02*
X09542D01*
X09532*
Y04494*
X09522*
X09602Y04454D02*
X09582D01*
X09572Y04464*
Y04484*
X09582Y04494*
X09602*
X09612Y04484*
Y04474*
X09572*
X09632Y04454D02*
X09652D01*
X09642*
Y04514*
X09632*
X09711Y04454D02*
X09692D01*
X09682Y04464*
Y04484*
X09692Y04494*
X09711*
X09721Y04484*
Y04474*
X09682*
X09781Y04494D02*
X09751D01*
X09741Y04484*
Y04464*
X09751Y04454*
X09781*
X09811Y04504D02*
Y04494D01*
X09801*
X09821*
X09811*
Y04464*
X09821Y04454*
X09851Y04494D02*
Y04454D01*
Y04474*
X09861Y04484*
X09871Y04494*
X09881*
X09911Y04454D02*
X09931D01*
X09921*
Y04494*
X09911*
X10001D02*
X09971D01*
X09961Y04484*
Y04464*
X09971Y04454*
X10001*
X10051D02*
Y04514D01*
X10021Y04484*
X10061*
X09462Y04634D02*
Y04574D01*
X09502*
X09562D02*
X09522D01*
X09562Y04614*
Y04624*
X09552Y04634*
X09532*
X09522Y04624*
X09462Y04754D02*
Y04694D01*
X09492*
X09502Y04704*
Y04744*
X09492Y04754*
X09462*
X09522Y04694D02*
X09542D01*
X09532*
Y04734*
X09522*
X09602Y04694D02*
X09582D01*
X09572Y04704*
Y04724*
X09582Y04734*
X09602*
X09612Y04724*
Y04714*
X09572*
X09632Y04694D02*
X09652D01*
X09642*
Y04754*
X09632*
X09711Y04694D02*
X09692D01*
X09682Y04704*
Y04724*
X09692Y04734*
X09711*
X09721Y04724*
Y04714*
X09682*
X09781Y04734D02*
X09751D01*
X09741Y04724*
Y04704*
X09751Y04694*
X09781*
X09811Y04744D02*
Y04734D01*
X09801*
X09821*
X09811*
Y04704*
X09821Y04694*
X09851Y04734D02*
Y04694D01*
Y04714*
X09861Y04724*
X09871Y04734*
X09881*
X09911Y04694D02*
X09931D01*
X09921*
Y04734*
X09911*
X10001D02*
X09971D01*
X09961Y04724*
Y04704*
X09971Y04694*
X10001*
X10021D02*
X10041D01*
X10031*
Y04754*
X10021Y04744*
X09462Y04874D02*
Y04814D01*
X09502*
X09522D02*
X09542D01*
X09532*
Y04874*
X09522Y04864*
X09462Y04994D02*
X09502D01*
X09482*
Y04934*
X09532D02*
X09552D01*
X09562Y04944*
Y04964*
X09552Y04974*
X09532*
X09522Y04964*
Y04944*
X09532Y04934*
X09582Y04914D02*
Y04974D01*
X09612*
X09622Y04964*
Y04944*
X09612Y04934*
X09582*
X09741Y04984D02*
X09731Y04994D01*
X09711*
X09702Y04984*
Y04974*
X09711Y04964*
X09731*
X09741Y04954*
Y04944*
X09731Y04934*
X09711*
X09702Y04944*
X09771Y04934D02*
X09791D01*
X09801Y04944*
Y04964*
X09791Y04974*
X09771*
X09761Y04964*
Y04944*
X09771Y04934*
X09821D02*
X09841D01*
X09831*
Y04994*
X09821*
X09911D02*
Y04934D01*
X09881*
X09871Y04944*
Y04964*
X09881Y04974*
X09911*
X09961Y04934D02*
X09941D01*
X09931Y04944*
Y04964*
X09941Y04974*
X09961*
X09971Y04964*
Y04954*
X09931*
X09991Y04974D02*
Y04934D01*
Y04954*
X10001Y04964*
X10011Y04974*
X10021*
X09462Y05114D02*
X09502D01*
X09482*
Y05054*
X09532D02*
X09552D01*
X09562Y05064*
Y05084*
X09552Y05094*
X09532*
X09522Y05084*
Y05064*
X09532Y05054*
X09582Y05034D02*
Y05094D01*
X09612*
X09622Y05084*
Y05064*
X09612Y05054*
X09582*
X09731Y05114D02*
X09711D01*
X09702Y05104*
Y05064*
X09711Y05054*
X09731*
X09741Y05064*
Y05104*
X09731Y05114*
X09761Y05094D02*
X09781Y05054D01*
X09801Y05094*
X09851Y05054D02*
X09831D01*
X09821Y05064*
Y05084*
X09831Y05094*
X09851*
X09861Y05084*
Y05074*
X09821*
X09881Y05094D02*
Y05054D01*
Y05074*
X09891Y05084*
X09901Y05094*
X09911*
X09941Y05054D02*
X09961D01*
X09951*
Y05114*
X09941*
X10001Y05094D02*
X10021D01*
X10031Y05084*
Y05054*
X10001*
X09991Y05064*
X10001Y05074*
X10031*
X10051Y05094D02*
Y05064D01*
X10061Y05054*
X10091*
Y05044*
X10081Y05034*
X10071*
X10091Y05054D02*
Y05094D01*
X10391Y05174D02*
Y05234D01*
X10411Y05214*
X10431Y05234*
Y05174*
X10461Y05214D02*
X10481D01*
X10491Y05204*
Y05174*
X10461*
X10451Y05184*
X10461Y05194*
X10491*
X10521Y05224D02*
Y05214D01*
X10511*
X10531*
X10521*
Y05184*
X10531Y05174*
X10591D02*
X10571D01*
X10561Y05184*
Y05204*
X10571Y05214*
X10591*
X10601Y05204*
Y05194*
X10561*
X10621Y05214D02*
Y05174D01*
Y05194*
X10631Y05204*
X10641Y05214*
X10651*
X10681Y05174D02*
X10701D01*
X10691*
Y05214*
X10681*
X10741D02*
X10761D01*
X10771Y05204*
Y05174*
X10741*
X10731Y05184*
X10741Y05194*
X10771*
X10791Y05174D02*
X10811D01*
X10801*
Y05234*
X10791*
X10431Y03544D02*
X10421Y03554D01*
X10401*
X10391Y03544*
Y03534*
X10401Y03524*
X10421*
X10431Y03514*
Y03504*
X10421Y03494*
X10401*
X10391Y03504*
X10461Y03494D02*
X10481D01*
X10491Y03504*
Y03524*
X10481Y03534*
X10461*
X10451Y03524*
Y03504*
X10461Y03494*
X10511D02*
X10531D01*
X10521*
Y03554*
X10511*
X10601D02*
Y03494D01*
X10571*
X10561Y03504*
Y03524*
X10571Y03534*
X10601*
X10651Y03494D02*
X10631D01*
X10621Y03504*
Y03524*
X10631Y03534*
X10651*
X10661Y03524*
Y03514*
X10621*
X10681Y03534D02*
Y03494D01*
Y03514*
X10691Y03524*
X10701Y03534*
X10711*
X10801Y03494D02*
Y03554D01*
X10831*
X10841Y03544*
Y03524*
X10831Y03514*
X10801*
X10821D02*
X10841Y03494D01*
X10891D02*
X10871D01*
X10861Y03504*
Y03524*
X10871Y03534*
X10891*
X10901Y03524*
Y03514*
X10861*
X10921Y03494D02*
X10951D01*
X10961Y03504*
X10951Y03514*
X10931*
X10921Y03524*
X10931Y03534*
X10961*
X10981Y03494D02*
X11001D01*
X10991*
Y03534*
X10981*
X11031Y03494D02*
X11061D01*
X11071Y03504*
X11061Y03514*
X11041*
X11031Y03524*
X11041Y03534*
X11071*
X11101Y03544D02*
Y03534D01*
X11091*
X11111*
X11101*
Y03504*
X11111Y03494*
X10431Y03664D02*
X10421Y03674D01*
X10401*
X10391Y03664*
Y03624*
X10401Y03614*
X10421*
X10431Y03624*
X10461Y03614D02*
X10481D01*
X10491Y03624*
Y03644*
X10481Y03654*
X10461*
X10451Y03644*
Y03624*
X10461Y03614*
X10511Y03594D02*
Y03654D01*
X10541*
X10551Y03644*
Y03624*
X10541Y03614*
X10511*
X10571Y03594D02*
Y03654D01*
X10601*
X10611Y03644*
Y03624*
X10601Y03614*
X10571*
X10661D02*
X10641D01*
X10631Y03624*
Y03644*
X10641Y03654*
X10661*
X10671Y03644*
Y03634*
X10631*
X10691Y03654D02*
Y03614D01*
Y03634*
X10701Y03644*
X10711Y03654*
X10721*
X10391Y03794D02*
Y03734D01*
X10421*
X10431Y03744*
Y03784*
X10421Y03794*
X10391*
X10491D02*
X10451D01*
Y03734*
X10491*
X10451Y03764D02*
X10471D01*
X10571Y03734D02*
X10591D01*
X10581*
Y03794*
X10571Y03784*
X10621D02*
X10631Y03794D01*
X10651*
X10661Y03784*
Y03744*
X10651Y03734*
X10631*
X10621Y03744*
Y03784*
X10711Y03734D02*
Y03794D01*
X10681Y03764*
X10721*
X10801Y03734D02*
Y03794D01*
X10821Y03774*
X10841Y03794*
Y03734*
X10861Y03794D02*
Y03734D01*
X10901*
X10431Y03904D02*
X10421Y03914D01*
X10401*
X10391Y03904*
Y03864*
X10401Y03854*
X10421*
X10431Y03864*
X10461Y03854D02*
X10481D01*
X10491Y03864*
Y03884*
X10481Y03894*
X10461*
X10451Y03884*
Y03864*
X10461Y03854*
X10511Y03834D02*
Y03894D01*
X10541*
X10551Y03884*
Y03864*
X10541Y03854*
X10511*
X10571Y03834D02*
Y03894D01*
X10601*
X10611Y03884*
Y03864*
X10601Y03854*
X10571*
X10661D02*
X10641D01*
X10631Y03864*
Y03884*
X10641Y03894*
X10661*
X10671Y03884*
Y03874*
X10631*
X10691Y03894D02*
Y03854D01*
Y03874*
X10701Y03884*
X10711Y03894*
X10721*
X10391Y04034D02*
Y03974D01*
X10421*
X10431Y03984*
Y04024*
X10421Y04034*
X10391*
X10491D02*
X10451D01*
Y03974*
X10491*
X10451Y04004D02*
X10471D01*
X10571Y03974D02*
X10591D01*
X10581*
Y04034*
X10571Y04024*
X10621D02*
X10631Y04034D01*
X10651*
X10661Y04024*
Y03984*
X10651Y03974*
X10631*
X10621Y03984*
Y04024*
X10711Y03974D02*
Y04034D01*
X10681Y04004*
X10721*
X10801Y03974D02*
Y04034D01*
X10821Y04014*
X10841Y04034*
Y03974*
X10861Y04034D02*
Y03974D01*
X10901*
X10431Y04144D02*
X10421Y04154D01*
X10401*
X10391Y04144*
Y04104*
X10401Y04094*
X10421*
X10431Y04104*
X10461Y04094D02*
X10481D01*
X10491Y04104*
Y04124*
X10481Y04134*
X10461*
X10451Y04124*
Y04104*
X10461Y04094*
X10511Y04074D02*
Y04134D01*
X10541*
X10551Y04124*
Y04104*
X10541Y04094*
X10511*
X10571Y04074D02*
Y04134D01*
X10601*
X10611Y04124*
Y04104*
X10601Y04094*
X10571*
X10661D02*
X10641D01*
X10631Y04104*
Y04124*
X10641Y04134*
X10661*
X10671Y04124*
Y04114*
X10631*
X10691Y04134D02*
Y04094D01*
Y04114*
X10701Y04124*
X10711Y04134*
X10721*
X10391Y04274D02*
Y04214D01*
X10421*
X10431Y04224*
Y04264*
X10421Y04274*
X10391*
X10491D02*
X10451D01*
Y04214*
X10491*
X10451Y04244D02*
X10471D01*
X10571Y04214D02*
X10591D01*
X10581*
Y04274*
X10571Y04264*
X10621D02*
X10631Y04274D01*
X10651*
X10661Y04264*
Y04224*
X10651Y04214*
X10631*
X10621Y04224*
Y04264*
X10711Y04214D02*
Y04274D01*
X10681Y04244*
X10721*
X10801Y04214D02*
Y04274D01*
X10821Y04254*
X10841Y04274*
Y04214*
X10861Y04274D02*
Y04214D01*
X10901*
X10431Y04384D02*
X10421Y04394D01*
X10401*
X10391Y04384*
Y04344*
X10401Y04334*
X10421*
X10431Y04344*
X10461Y04334D02*
X10481D01*
X10491Y04344*
Y04364*
X10481Y04374*
X10461*
X10451Y04364*
Y04344*
X10461Y04334*
X10511Y04314D02*
Y04374D01*
X10541*
X10551Y04364*
Y04344*
X10541Y04334*
X10511*
X10571Y04314D02*
Y04374D01*
X10601*
X10611Y04364*
Y04344*
X10601Y04334*
X10571*
X10661D02*
X10641D01*
X10631Y04344*
Y04364*
X10641Y04374*
X10661*
X10671Y04364*
Y04354*
X10631*
X10691Y04374D02*
Y04334D01*
Y04354*
X10701Y04364*
X10711Y04374*
X10721*
X10391Y04514D02*
Y04454D01*
X10421*
X10431Y04464*
Y04504*
X10421Y04514*
X10391*
X10491D02*
X10451D01*
Y04454*
X10491*
X10451Y04484D02*
X10471D01*
X10571Y04454D02*
X10591D01*
X10581*
Y04514*
X10571Y04504*
X10621D02*
X10631Y04514D01*
X10651*
X10661Y04504*
Y04464*
X10651Y04454*
X10631*
X10621Y04464*
Y04504*
X10711Y04454D02*
Y04514D01*
X10681Y04484*
X10721*
X10801Y04454D02*
Y04514D01*
X10821Y04494*
X10841Y04514*
Y04454*
X10861Y04514D02*
Y04454D01*
X10901*
X10431Y04624D02*
X10421Y04634D01*
X10401*
X10391Y04624*
Y04584*
X10401Y04574*
X10421*
X10431Y04584*
X10461Y04574D02*
X10481D01*
X10491Y04584*
Y04604*
X10481Y04614*
X10461*
X10451Y04604*
Y04584*
X10461Y04574*
X10511Y04554D02*
Y04614D01*
X10541*
X10551Y04604*
Y04584*
X10541Y04574*
X10511*
X10571Y04554D02*
Y04614D01*
X10601*
X10611Y04604*
Y04584*
X10601Y04574*
X10571*
X10661D02*
X10641D01*
X10631Y04584*
Y04604*
X10641Y04614*
X10661*
X10671Y04604*
Y04594*
X10631*
X10691Y04614D02*
Y04574D01*
Y04594*
X10701Y04604*
X10711Y04614*
X10721*
X10391Y04754D02*
Y04694D01*
X10421*
X10431Y04704*
Y04744*
X10421Y04754*
X10391*
X10491D02*
X10451D01*
Y04694*
X10491*
X10451Y04724D02*
X10471D01*
X10571Y04694D02*
X10591D01*
X10581*
Y04754*
X10571Y04744*
X10621D02*
X10631Y04754D01*
X10651*
X10661Y04744*
Y04704*
X10651Y04694*
X10631*
X10621Y04704*
Y04744*
X10711Y04694D02*
Y04754D01*
X10681Y04724*
X10721*
X10801Y04694D02*
Y04754D01*
X10821Y04734*
X10841Y04754*
Y04694*
X10861Y04754D02*
Y04694D01*
X10901*
X10431Y04864D02*
X10421Y04874D01*
X10401*
X10391Y04864*
Y04824*
X10401Y04814*
X10421*
X10431Y04824*
X10461Y04814D02*
X10481D01*
X10491Y04824*
Y04844*
X10481Y04854*
X10461*
X10451Y04844*
Y04824*
X10461Y04814*
X10511Y04794D02*
Y04854D01*
X10541*
X10551Y04844*
Y04824*
X10541Y04814*
X10511*
X10571Y04794D02*
Y04854D01*
X10601*
X10611Y04844*
Y04824*
X10601Y04814*
X10571*
X10661D02*
X10641D01*
X10631Y04824*
Y04844*
X10641Y04854*
X10661*
X10671Y04844*
Y04834*
X10631*
X10691Y04854D02*
Y04814D01*
Y04834*
X10701Y04844*
X10711Y04854*
X10721*
X10431Y04984D02*
X10421Y04994D01*
X10401*
X10391Y04984*
Y04974*
X10401Y04964*
X10421*
X10431Y04954*
Y04944*
X10421Y04934*
X10401*
X10391Y04944*
X10461Y04934D02*
X10481D01*
X10491Y04944*
Y04964*
X10481Y04974*
X10461*
X10451Y04964*
Y04944*
X10461Y04934*
X10511D02*
X10531D01*
X10521*
Y04994*
X10511*
X10601D02*
Y04934D01*
X10571*
X10561Y04944*
Y04964*
X10571Y04974*
X10601*
X10651Y04934D02*
X10631D01*
X10621Y04944*
Y04964*
X10631Y04974*
X10651*
X10661Y04964*
Y04954*
X10621*
X10681Y04974D02*
Y04934D01*
Y04954*
X10691Y04964*
X10701Y04974*
X10711*
X10801Y04934D02*
Y04994D01*
X10831*
X10841Y04984*
Y04964*
X10831Y04954*
X10801*
X10821D02*
X10841Y04934D01*
X10891D02*
X10871D01*
X10861Y04944*
Y04964*
X10871Y04974*
X10891*
X10901Y04964*
Y04954*
X10861*
X10921Y04934D02*
X10951D01*
X10961Y04944*
X10951Y04954*
X10931*
X10921Y04964*
X10931Y04974*
X10961*
X10981Y04934D02*
X11001D01*
X10991*
Y04974*
X10981*
X11031Y04934D02*
X11061D01*
X11071Y04944*
X11061Y04954*
X11041*
X11031Y04964*
X11041Y04974*
X11071*
X11101Y04984D02*
Y04974D01*
X11091*
X11111*
X11101*
Y04944*
X11111Y04934*
X11251Y05234D02*
X11291D01*
X11271*
Y05174*
X11311Y05234D02*
Y05174D01*
Y05204*
X11321Y05214*
X11341*
X11351Y05204*
Y05174*
X11371D02*
X11391D01*
X11381*
Y05214*
X11371*
X11461D02*
X11431D01*
X11421Y05204*
Y05184*
X11431Y05174*
X11461*
X11481D02*
Y05234D01*
Y05194D02*
X11511Y05214D01*
X11481Y05194D02*
X11511Y05174D01*
X11541D02*
Y05214D01*
X11571*
X11581Y05204*
Y05174*
X11631D02*
X11611D01*
X11601Y05184*
Y05204*
X11611Y05214*
X11631*
X11641Y05204*
Y05194*
X11601*
X11661Y05174D02*
X11691D01*
X11701Y05184*
X11691Y05194*
X11671*
X11661Y05204*
X11671Y05214*
X11701*
X11721Y05174D02*
X11751D01*
X11761Y05184*
X11751Y05194*
X11731*
X11721Y05204*
X11731Y05214*
X11761*
X11251Y03544D02*
X11261Y03554D01*
X11281*
X11291Y03544*
Y03504*
X11281Y03494*
X11261*
X11251Y03504*
Y03544*
X11311Y03494D02*
Y03504D01*
X11321*
Y03494*
X11311*
X11391D02*
Y03554D01*
X11361Y03524*
X11401*
X11421Y03544D02*
X11431Y03554D01*
X11451*
X11461Y03544*
Y03504*
X11451Y03494*
X11431*
X11421Y03504*
Y03544*
X11481Y03494D02*
Y03534D01*
X11491*
X11501Y03524*
Y03494*
Y03524*
X11511Y03534*
X11521Y03524*
Y03494*
X11541D02*
X11561D01*
X11551*
Y03534*
X11541*
X11591Y03494D02*
X11611D01*
X11601*
Y03554*
X11591*
X11251Y03664D02*
X11261Y03674D01*
X11281*
X11291Y03664*
Y03624*
X11281Y03614*
X11261*
X11251Y03624*
Y03664*
X11311Y03614D02*
Y03624D01*
X11321*
Y03614*
X11311*
X11361Y03674D02*
X11401D01*
Y03664*
X11361Y03624*
Y03614*
X11421D02*
X11441D01*
X11431*
Y03674*
X11421Y03664*
X11471Y03614D02*
Y03654D01*
X11481*
X11491Y03644*
Y03614*
Y03644*
X11501Y03654*
X11511Y03644*
Y03614*
X11531D02*
X11551D01*
X11541*
Y03654*
X11531*
X11581Y03614D02*
X11601D01*
X11591*
Y03674*
X11581*
X11291Y03794D02*
X11271Y03784D01*
X11251Y03764*
Y03744*
X11261Y03734*
X11281*
X11291Y03744*
Y03754*
X11281Y03764*
X11251*
X11311Y03734D02*
Y03744D01*
X11321*
Y03734*
X11311*
X11361Y03794D02*
X11401D01*
Y03784*
X11361Y03744*
Y03734*
X11421Y03744D02*
X11431Y03734D01*
X11451*
X11461Y03744*
Y03784*
X11451Y03794*
X11431*
X11421Y03784*
Y03774*
X11431Y03764*
X11461*
X11481Y03734D02*
Y03774D01*
X11491*
X11501Y03764*
Y03734*
Y03764*
X11511Y03774*
X11521Y03764*
Y03734*
X11541D02*
X11561D01*
X11551*
Y03774*
X11541*
X11591Y03734D02*
X11611D01*
X11601*
Y03794*
X11591*
X11251Y03904D02*
X11261Y03914D01*
X11281*
X11291Y03904*
Y03864*
X11281Y03854*
X11261*
X11251Y03864*
Y03904*
X11311Y03854D02*
Y03864D01*
X11321*
Y03854*
X11311*
X11361Y03914D02*
X11401D01*
Y03904*
X11361Y03864*
Y03854*
X11421D02*
X11441D01*
X11431*
Y03914*
X11421Y03904*
X11471Y03854D02*
Y03894D01*
X11481*
X11491Y03884*
Y03854*
Y03884*
X11501Y03894*
X11511Y03884*
Y03854*
X11531D02*
X11551D01*
X11541*
Y03894*
X11531*
X11581Y03854D02*
X11601D01*
X11591*
Y03914*
X11581*
X11251Y04034D02*
X11291D01*
Y04024*
X11251Y03984*
Y03974*
X11311D02*
Y03984D01*
X11321*
Y03974*
X11311*
X11361Y04034D02*
X11401D01*
Y04024*
X11361Y03984*
Y03974*
X11461D02*
X11421D01*
X11461Y04014*
Y04024*
X11451Y04034*
X11431*
X11421Y04024*
X11481Y03974D02*
Y04014D01*
X11491*
X11501Y04004*
Y03974*
Y04004*
X11511Y04014*
X11521Y04004*
Y03974*
X11541D02*
X11561D01*
X11551*
Y04014*
X11541*
X11591Y03974D02*
X11611D01*
X11601*
Y04034*
X11591*
X11251Y04144D02*
X11261Y04154D01*
X11281*
X11291Y04144*
Y04104*
X11281Y04094*
X11261*
X11251Y04104*
Y04144*
X11311Y04094D02*
Y04104D01*
X11321*
Y04094*
X11311*
X11361Y04154D02*
X11401D01*
Y04144*
X11361Y04104*
Y04094*
X11421D02*
X11441D01*
X11431*
Y04154*
X11421Y04144*
X11471Y04094D02*
Y04134D01*
X11481*
X11491Y04124*
Y04094*
Y04124*
X11501Y04134*
X11511Y04124*
Y04094*
X11531D02*
X11551D01*
X11541*
Y04134*
X11531*
X11581Y04094D02*
X11601D01*
X11591*
Y04154*
X11581*
X11291Y04214D02*
X11251D01*
X11291Y04254*
Y04264*
X11281Y04274*
X11261*
X11251Y04264*
X11311Y04274D02*
X11351D01*
Y04264*
X11311Y04224*
Y04214*
X11371D02*
Y04224D01*
X11381*
Y04214*
X11371*
X11451D02*
Y04274D01*
X11421Y04244*
X11461*
X11511Y04214D02*
Y04274D01*
X11481Y04244*
X11521*
X11541Y04214D02*
Y04254D01*
X11551*
X11561Y04244*
Y04214*
Y04244*
X11571Y04254*
X11581Y04244*
Y04214*
X11601D02*
X11621D01*
X11611*
Y04254*
X11601*
X11651Y04214D02*
X11671D01*
X11661*
Y04274*
X11651*
X11251Y04384D02*
X11261Y04394D01*
X11281*
X11291Y04384*
Y04344*
X11281Y04334*
X11261*
X11251Y04344*
Y04384*
X11311Y04334D02*
Y04344D01*
X11321*
Y04334*
X11311*
X11361Y04394D02*
X11401D01*
Y04384*
X11361Y04344*
Y04334*
X11421D02*
X11441D01*
X11431*
Y04394*
X11421Y04384*
X11471Y04334D02*
Y04374D01*
X11481*
X11491Y04364*
Y04334*
Y04364*
X11501Y04374*
X11511Y04364*
Y04334*
X11531D02*
X11551D01*
X11541*
Y04374*
X11531*
X11581Y04334D02*
X11601D01*
X11591*
Y04394*
X11581*
X11251Y04514D02*
X11291D01*
Y04504*
X11251Y04464*
Y04454*
X11311D02*
Y04464D01*
X11321*
Y04454*
X11311*
X11361Y04514D02*
X11401D01*
Y04504*
X11361Y04464*
Y04454*
X11461D02*
X11421D01*
X11461Y04494*
Y04504*
X11451Y04514*
X11431*
X11421Y04504*
X11481Y04454D02*
Y04494D01*
X11491*
X11501Y04484*
Y04454*
Y04484*
X11511Y04494*
X11521Y04484*
Y04454*
X11541D02*
X11561D01*
X11551*
Y04494*
X11541*
X11591Y04454D02*
X11611D01*
X11601*
Y04514*
X11591*
X11251Y04624D02*
X11261Y04634D01*
X11281*
X11291Y04624*
Y04584*
X11281Y04574*
X11261*
X11251Y04584*
Y04624*
X11311Y04574D02*
Y04584D01*
X11321*
Y04574*
X11311*
X11361Y04634D02*
X11401D01*
Y04624*
X11361Y04584*
Y04574*
X11421D02*
X11441D01*
X11431*
Y04634*
X11421Y04624*
X11471Y04574D02*
Y04614D01*
X11481*
X11491Y04604*
Y04574*
Y04604*
X11501Y04614*
X11511Y04604*
Y04574*
X11531D02*
X11551D01*
X11541*
Y04614*
X11531*
X11581Y04574D02*
X11601D01*
X11591*
Y04634*
X11581*
X11291Y04754D02*
X11271Y04744D01*
X11251Y04724*
Y04704*
X11261Y04694*
X11281*
X11291Y04704*
Y04714*
X11281Y04724*
X11251*
X11311Y04694D02*
Y04704D01*
X11321*
Y04694*
X11311*
X11361Y04754D02*
X11401D01*
Y04744*
X11361Y04704*
Y04694*
X11421Y04704D02*
X11431Y04694D01*
X11451*
X11461Y04704*
Y04744*
X11451Y04754*
X11431*
X11421Y04744*
Y04734*
X11431Y04724*
X11461*
X11481Y04694D02*
Y04734D01*
X11491*
X11501Y04724*
Y04694*
Y04724*
X11511Y04734*
X11521Y04724*
Y04694*
X11541D02*
X11561D01*
X11551*
Y04734*
X11541*
X11591Y04694D02*
X11611D01*
X11601*
Y04754*
X11591*
X11251Y04864D02*
X11261Y04874D01*
X11281*
X11291Y04864*
Y04824*
X11281Y04814*
X11261*
X11251Y04824*
Y04864*
X11311Y04814D02*
Y04824D01*
X11321*
Y04814*
X11311*
X11361Y04874D02*
X11401D01*
Y04864*
X11361Y04824*
Y04814*
X11421D02*
X11441D01*
X11431*
Y04874*
X11421Y04864*
X11471Y04814D02*
Y04854D01*
X11481*
X11491Y04844*
Y04814*
Y04844*
X11501Y04854*
X11511Y04844*
Y04814*
X11531D02*
X11551D01*
X11541*
Y04854*
X11531*
X11581Y04814D02*
X11601D01*
X11591*
Y04874*
X11581*
X11251Y04984D02*
X11261Y04994D01*
X11281*
X11291Y04984*
Y04944*
X11281Y04934*
X11261*
X11251Y04944*
Y04984*
X11311Y04934D02*
Y04944D01*
X11321*
Y04934*
X11311*
X11391D02*
Y04994D01*
X11361Y04964*
X11401*
X11421Y04984D02*
X11431Y04994D01*
X11451*
X11461Y04984*
Y04944*
X11451Y04934*
X11431*
X11421Y04944*
Y04984*
X11481Y04934D02*
Y04974D01*
X11491*
X11501Y04964*
Y04934*
Y04964*
X11511Y04974*
X11521Y04964*
Y04934*
X11541D02*
X11561D01*
X11551*
Y04974*
X11541*
X11591Y04934D02*
X11611D01*
X11601*
Y04994*
X11591*
X11941Y05224D02*
X11931Y05234D01*
X11911*
X11901Y05224*
Y05184*
X11911Y05174*
X11931*
X11941Y05184*
X11971Y05174D02*
X11991D01*
X12001Y05184*
Y05204*
X11991Y05214*
X11971*
X11961Y05204*
Y05184*
X11971Y05174*
X12021D02*
Y05214D01*
X12051*
X12061Y05204*
Y05174*
X12081D02*
X12111D01*
X12121Y05184*
X12111Y05194*
X12091*
X12081Y05204*
X12091Y05214*
X12121*
X12151Y05224D02*
Y05214D01*
X12141*
X12161*
X12151*
Y05184*
X12161Y05174*
X12201Y05214D02*
X12221D01*
X12231Y05204*
Y05174*
X12201*
X12191Y05184*
X12201Y05194*
X12231*
X12251Y05174D02*
Y05214D01*
X12281*
X12291Y05204*
Y05174*
X12321Y05224D02*
Y05214D01*
X12311*
X12331*
X12321*
Y05184*
X12331Y05174*
X11901Y03544D02*
X11911Y03554D01*
X11931*
X11941Y03544*
Y03534*
X11931Y03524*
X11921*
X11931*
X11941Y03514*
Y03504*
X11931Y03494*
X11911*
X11901Y03504*
X11961Y03494D02*
Y03504D01*
X11971*
Y03494*
X11961*
X12051Y03554D02*
X12011D01*
Y03524*
X12031Y03534*
X12041*
X12051Y03524*
Y03504*
X12041Y03494*
X12021*
X12011Y03504*
X11931Y03734D02*
Y03794D01*
X11901Y03764*
X11941*
X11961Y03734D02*
Y03744D01*
X11971*
Y03734*
X11961*
X12041D02*
Y03794D01*
X12011Y03764*
X12051*
X11931Y03974D02*
Y04034D01*
X11901Y04004*
X11941*
X11961Y03974D02*
Y03984D01*
X11971*
Y03974*
X11961*
X12041D02*
Y04034D01*
X12011Y04004*
X12051*
X11931Y04214D02*
Y04274D01*
X11901Y04244*
X11941*
X11961Y04214D02*
Y04224D01*
X11971*
Y04214*
X11961*
X12041D02*
Y04274D01*
X12011Y04244*
X12051*
X11931Y04454D02*
Y04514D01*
X11901Y04484*
X11941*
X11961Y04454D02*
Y04464D01*
X11971*
Y04454*
X11961*
X12041D02*
Y04514D01*
X12011Y04484*
X12051*
X11931Y04694D02*
Y04754D01*
X11901Y04724*
X11941*
X11961Y04694D02*
Y04704D01*
X11971*
Y04694*
X11961*
X12041D02*
Y04754D01*
X12011Y04724*
X12051*
X11901Y04984D02*
X11911Y04994D01*
X11931*
X11941Y04984*
Y04974*
X11931Y04964*
X11921*
X11931*
X11941Y04954*
Y04944*
X11931Y04934*
X11911*
X11901Y04944*
X11961Y04934D02*
Y04944D01*
X11971*
Y04934*
X11961*
X12051Y04994D02*
X12011D01*
Y04964*
X12031Y04974*
X12041*
X12051Y04964*
Y04944*
X12041Y04934*
X12021*
X12011Y04944*
X12471Y05234D02*
Y05174D01*
X12501*
X12511Y05184*
Y05194*
X12501Y05204*
X12471*
X12501*
X12511Y05214*
Y05224*
X12501Y05234*
X12471*
X12541Y05174D02*
X12561D01*
X12571Y05184*
Y05204*
X12561Y05214*
X12541*
X12531Y05204*
Y05184*
X12541Y05174*
X12601Y05214D02*
X12621D01*
X12631Y05204*
Y05174*
X12601*
X12591Y05184*
X12601Y05194*
X12631*
X12651Y05214D02*
Y05174D01*
Y05194*
X12661Y05204*
X12671Y05214*
X12681*
X12751Y05234D02*
Y05174D01*
X12721*
X12711Y05184*
Y05204*
X12721Y05214*
X12751*
X12831Y05234D02*
Y05174D01*
X12871*
X12901Y05214D02*
X12921D01*
X12931Y05204*
Y05174*
X12901*
X12891Y05184*
X12901Y05194*
X12931*
X12951Y05214D02*
Y05184D01*
X12961Y05174*
X12991*
Y05164*
X12981Y05154*
X12971*
X12991Y05174D02*
Y05214D01*
X13041Y05174D02*
X13021D01*
X13011Y05184*
Y05204*
X13021Y05214*
X13041*
X13051Y05204*
Y05194*
X13011*
X13071Y05214D02*
Y05174D01*
Y05194*
X13081Y05204*
X13091Y05214*
X13101*
X13231Y05224D02*
X13221Y05234D01*
X13201*
X13191Y05224*
Y05214*
X13201Y05204*
X13221*
X13231Y05194*
Y05184*
X13221Y05174*
X13201*
X13191Y05184*
X13261Y05224D02*
Y05214D01*
X13251*
X13271*
X13261*
Y05184*
X13271Y05174*
X13311Y05214D02*
X13331D01*
X13341Y05204*
Y05174*
X13311*
X13301Y05184*
X13311Y05194*
X13341*
X134Y05214D02*
X1337D01*
X1336Y05204*
Y05184*
X1337Y05174*
X134*
X1342D02*
Y05234D01*
Y05194D02*
X1345Y05214D01*
X1342Y05194D02*
X1345Y05174D01*
G54D209*
X1346Y03344D02*
X1352Y03404D01*
X134Y03344D02*
X1352Y03464D01*
X1334Y03344D02*
X1346Y03464D01*
X1328Y03344D02*
X134Y03464D01*
X1322Y03344D02*
X1334Y03464D01*
X1316Y03344D02*
X1328Y03464D01*
X131Y03344D02*
X1322Y03464D01*
X1304Y03344D02*
X1316Y03464D01*
X1298Y03344D02*
X131Y03464D01*
X1292Y03344D02*
X1304Y03464D01*
X1286Y03344D02*
X1298Y03464D01*
X128Y03344D02*
X1292Y03464D01*
X1274Y03344D02*
X1286Y03464D01*
X1268Y03344D02*
X128Y03464D01*
X1262Y03344D02*
X1274Y03464D01*
X1256Y03344D02*
X1268Y03464D01*
X125Y03344D02*
X1262Y03464D01*
X1244Y03344D02*
X1256Y03464D01*
X12401Y03364D02*
X125Y03464D01*
X12401Y03424D02*
X1244Y03464D01*
X1346D02*
X1352Y03524D01*
X134Y03464D02*
X1352Y03584D01*
X1334Y03464D02*
X1346Y03584D01*
X1328Y03464D02*
X134Y03584D01*
X1322Y03464D02*
X1334Y03584D01*
X1316Y03464D02*
X1328Y03584D01*
X131Y03464D02*
X1322Y03584D01*
X1304Y03464D02*
X1316Y03584D01*
X1298Y03464D02*
X131Y03584D01*
X1292Y03464D02*
X1304Y03584D01*
X1286Y03464D02*
X1298Y03584D01*
X128Y03464D02*
X1292Y03584D01*
X1274Y03464D02*
X1286Y03584D01*
X1268Y03464D02*
X128Y03584D01*
X1262Y03464D02*
X1274Y03584D01*
X1256Y03464D02*
X1268Y03584D01*
X125Y03464D02*
X1262Y03584D01*
X1244Y03464D02*
X1256Y03584D01*
X12401Y03484D02*
X125Y03584D01*
X12401Y03544D02*
X1244Y03584D01*
X1346D02*
X1352Y03644D01*
X134Y03584D02*
X1352Y03704D01*
X1334Y03584D02*
X1346Y03704D01*
X1328Y03584D02*
X134Y03704D01*
X1322Y03584D02*
X1334Y03704D01*
X1316Y03584D02*
X1328Y03704D01*
X131Y03584D02*
X1322Y03704D01*
X1304Y03584D02*
X1316Y03704D01*
X1298Y03584D02*
X131Y03704D01*
X1292Y03584D02*
X1304Y03704D01*
X1286Y03584D02*
X1298Y03704D01*
X128Y03584D02*
X1292Y03704D01*
X1274Y03584D02*
X1286Y03704D01*
X1268Y03584D02*
X128Y03704D01*
X1262Y03584D02*
X1274Y03704D01*
X1256Y03584D02*
X1268Y03704D01*
X125Y03584D02*
X1262Y03704D01*
X1244Y03584D02*
X1256Y03704D01*
X12401Y03604D02*
X125Y03704D01*
X12401Y03664D02*
X1244Y03704D01*
X1346D02*
X1352Y03764D01*
X134Y03704D02*
X1352Y03824D01*
X1334Y03704D02*
X1346Y03824D01*
X1328Y03704D02*
X134Y03824D01*
X1322Y03704D02*
X1334Y03824D01*
X1316Y03704D02*
X1328Y03824D01*
X131Y03704D02*
X1322Y03824D01*
X1304Y03704D02*
X1316Y03824D01*
X1298Y03704D02*
X131Y03824D01*
X1292Y03704D02*
X1304Y03824D01*
X1286Y03704D02*
X1298Y03824D01*
X128Y03704D02*
X1292Y03824D01*
X1274Y03704D02*
X1286Y03824D01*
X1268Y03704D02*
X128Y03824D01*
X1262Y03704D02*
X1274Y03824D01*
X1256Y03704D02*
X1268Y03824D01*
X125Y03704D02*
X1262Y03824D01*
X1244Y03704D02*
X1256Y03824D01*
X12401Y03724D02*
X125Y03824D01*
X12401Y03784D02*
X1244Y03824D01*
X1346D02*
X1352Y03884D01*
X134Y03824D02*
X1352Y03944D01*
X1334Y03824D02*
X1346Y03944D01*
X1328Y03824D02*
X134Y03944D01*
X1322Y03824D02*
X1334Y03944D01*
X1316Y03824D02*
X1328Y03944D01*
X131Y03824D02*
X1322Y03944D01*
X1304Y03824D02*
X1316Y03944D01*
X1298Y03824D02*
X131Y03944D01*
X1292Y03824D02*
X1304Y03944D01*
X1286Y03824D02*
X1298Y03944D01*
X128Y03824D02*
X1292Y03944D01*
X1274Y03824D02*
X1286Y03944D01*
X1268Y03824D02*
X128Y03944D01*
X1262Y03824D02*
X1274Y03944D01*
X1256Y03824D02*
X1268Y03944D01*
X125Y03824D02*
X1262Y03944D01*
X1244Y03824D02*
X1256Y03944D01*
X12401Y03844D02*
X125Y03944D01*
X12401Y03904D02*
X1244Y03944D01*
X1346D02*
X1352Y04004D01*
X134Y03944D02*
X1352Y04064D01*
X1334Y03944D02*
X1346Y04064D01*
X1328Y03944D02*
X134Y04064D01*
X1322Y03944D02*
X1334Y04064D01*
X1316Y03944D02*
X1328Y04064D01*
X131Y03944D02*
X1322Y04064D01*
X1304Y03944D02*
X1316Y04064D01*
X1298Y03944D02*
X131Y04064D01*
X1292Y03944D02*
X1304Y04064D01*
X1286Y03944D02*
X1298Y04064D01*
X128Y03944D02*
X1292Y04064D01*
X1274Y03944D02*
X1286Y04064D01*
X1268Y03944D02*
X128Y04064D01*
X1262Y03944D02*
X1274Y04064D01*
X1256Y03944D02*
X1268Y04064D01*
X125Y03944D02*
X1262Y04064D01*
X1244Y03944D02*
X1256Y04064D01*
X12401Y03964D02*
X125Y04064D01*
X12401Y04024D02*
X1244Y04064D01*
X1346D02*
X1352Y04124D01*
X134Y04064D02*
X1352Y04184D01*
X1334Y04064D02*
X1346Y04184D01*
X1328Y04064D02*
X134Y04184D01*
X1322Y04064D02*
X1334Y04184D01*
X1316Y04064D02*
X1328Y04184D01*
X131Y04064D02*
X1322Y04184D01*
X1304Y04064D02*
X1316Y04184D01*
X1298Y04064D02*
X131Y04184D01*
X1292Y04064D02*
X1304Y04184D01*
X1286Y04064D02*
X1298Y04184D01*
X128Y04064D02*
X1292Y04184D01*
X1274Y04064D02*
X1286Y04184D01*
X1268Y04064D02*
X128Y04184D01*
X1262Y04064D02*
X1274Y04184D01*
X1256Y04064D02*
X1268Y04184D01*
X125Y04064D02*
X1262Y04184D01*
X1244Y04064D02*
X1256Y04184D01*
X12401Y04084D02*
X125Y04184D01*
X12401Y04144D02*
X1244Y04184D01*
X1346D02*
X1352Y04244D01*
X134Y04184D02*
X1352Y04304D01*
X1334Y04184D02*
X1346Y04304D01*
X1328Y04184D02*
X134Y04304D01*
X1322Y04184D02*
X1334Y04304D01*
X1316Y04184D02*
X1328Y04304D01*
X131Y04184D02*
X1322Y04304D01*
X1304Y04184D02*
X1316Y04304D01*
X1298Y04184D02*
X131Y04304D01*
X1292Y04184D02*
X1304Y04304D01*
X1286Y04184D02*
X1298Y04304D01*
X128Y04184D02*
X1292Y04304D01*
X1274Y04184D02*
X1286Y04304D01*
X1268Y04184D02*
X128Y04304D01*
X1262Y04184D02*
X1274Y04304D01*
X1256Y04184D02*
X1268Y04304D01*
X125Y04184D02*
X1262Y04304D01*
X1244Y04184D02*
X1256Y04304D01*
X12401Y04204D02*
X125Y04304D01*
X12401Y04264D02*
X1244Y04304D01*
X1346D02*
X1352Y04364D01*
X134Y04304D02*
X1352Y04424D01*
X1334Y04304D02*
X1346Y04424D01*
X1328Y04304D02*
X134Y04424D01*
X1322Y04304D02*
X1334Y04424D01*
X1316Y04304D02*
X1328Y04424D01*
X131Y04304D02*
X1322Y04424D01*
X1304Y04304D02*
X1316Y04424D01*
X1298Y04304D02*
X131Y04424D01*
X1292Y04304D02*
X1304Y04424D01*
X1286Y04304D02*
X1298Y04424D01*
X128Y04304D02*
X1292Y04424D01*
X1274Y04304D02*
X1286Y04424D01*
X1268Y04304D02*
X128Y04424D01*
X1262Y04304D02*
X1274Y04424D01*
X1256Y04304D02*
X1268Y04424D01*
X125Y04304D02*
X1262Y04424D01*
X1244Y04304D02*
X1256Y04424D01*
X12401Y04324D02*
X125Y04424D01*
X12401Y04384D02*
X1244Y04424D01*
X1346D02*
X1352Y04484D01*
X134Y04424D02*
X1352Y04544D01*
X1334Y04424D02*
X1346Y04544D01*
X1328Y04424D02*
X134Y04544D01*
X1322Y04424D02*
X1334Y04544D01*
X1316Y04424D02*
X1328Y04544D01*
X131Y04424D02*
X1322Y04544D01*
X1304Y04424D02*
X1316Y04544D01*
X1298Y04424D02*
X131Y04544D01*
X1292Y04424D02*
X1304Y04544D01*
X1286Y04424D02*
X1298Y04544D01*
X128Y04424D02*
X1292Y04544D01*
X1274Y04424D02*
X1286Y04544D01*
X1268Y04424D02*
X128Y04544D01*
X1262Y04424D02*
X1274Y04544D01*
X1256Y04424D02*
X1268Y04544D01*
X125Y04424D02*
X1262Y04544D01*
X1244Y04424D02*
X1256Y04544D01*
X12401Y04444D02*
X125Y04544D01*
X12401Y04504D02*
X1244Y04544D01*
X1346D02*
X1352Y04604D01*
X134Y04544D02*
X1352Y04664D01*
X1334Y04544D02*
X1346Y04664D01*
X1328Y04544D02*
X134Y04664D01*
X1322Y04544D02*
X1334Y04664D01*
X1316Y04544D02*
X1328Y04664D01*
X131Y04544D02*
X1322Y04664D01*
X1304Y04544D02*
X1316Y04664D01*
X1298Y04544D02*
X131Y04664D01*
X1292Y04544D02*
X1304Y04664D01*
X1286Y04544D02*
X1298Y04664D01*
X128Y04544D02*
X1292Y04664D01*
X1274Y04544D02*
X1286Y04664D01*
X1268Y04544D02*
X128Y04664D01*
X1262Y04544D02*
X1274Y04664D01*
X1256Y04544D02*
X1268Y04664D01*
X125Y04544D02*
X1262Y04664D01*
X1244Y04544D02*
X1256Y04664D01*
X12401Y04564D02*
X125Y04664D01*
X12401Y04624D02*
X1244Y04664D01*
X1346D02*
X1352Y04724D01*
X134Y04664D02*
X1352Y04784D01*
X1334Y04664D02*
X1346Y04784D01*
X1328Y04664D02*
X134Y04784D01*
X1322Y04664D02*
X1334Y04784D01*
X1316Y04664D02*
X1328Y04784D01*
X131Y04664D02*
X1322Y04784D01*
X1304Y04664D02*
X1316Y04784D01*
X1298Y04664D02*
X131Y04784D01*
X1292Y04664D02*
X1304Y04784D01*
X1286Y04664D02*
X1298Y04784D01*
X128Y04664D02*
X1292Y04784D01*
X1274Y04664D02*
X1286Y04784D01*
X1268Y04664D02*
X128Y04784D01*
X1262Y04664D02*
X1274Y04784D01*
X1256Y04664D02*
X1268Y04784D01*
X125Y04664D02*
X1262Y04784D01*
X1244Y04664D02*
X1256Y04784D01*
X12401Y04684D02*
X125Y04784D01*
X12401Y04744D02*
X1244Y04784D01*
X1346D02*
X1352Y04844D01*
X134Y04784D02*
X1352Y04904D01*
X1334Y04784D02*
X1346Y04904D01*
X1328Y04784D02*
X134Y04904D01*
X1322Y04784D02*
X1334Y04904D01*
X1316Y04784D02*
X1328Y04904D01*
X131Y04784D02*
X1322Y04904D01*
X1304Y04784D02*
X1316Y04904D01*
X1298Y04784D02*
X131Y04904D01*
X1292Y04784D02*
X1304Y04904D01*
X1286Y04784D02*
X1298Y04904D01*
X128Y04784D02*
X1292Y04904D01*
X1274Y04784D02*
X1286Y04904D01*
X1268Y04784D02*
X128Y04904D01*
X1262Y04784D02*
X1274Y04904D01*
X1256Y04784D02*
X1268Y04904D01*
X125Y04784D02*
X1262Y04904D01*
X1244Y04784D02*
X1256Y04904D01*
X12401Y04804D02*
X125Y04904D01*
X12401Y04864D02*
X1244Y04904D01*
X1346D02*
X1352Y04964D01*
X134Y04904D02*
X1352Y05024D01*
X1334Y04904D02*
X1346Y05024D01*
X1328Y04904D02*
X134Y05024D01*
X1322Y04904D02*
X1334Y05024D01*
X1316Y04904D02*
X1328Y05024D01*
X131Y04904D02*
X1322Y05024D01*
X1304Y04904D02*
X1316Y05024D01*
X1298Y04904D02*
X131Y05024D01*
X1292Y04904D02*
X1304Y05024D01*
X1286Y04904D02*
X1298Y05024D01*
X128Y04904D02*
X1292Y05024D01*
X1274Y04904D02*
X1286Y05024D01*
X1268Y04904D02*
X128Y05024D01*
X1262Y04904D02*
X1274Y05024D01*
X1256Y04904D02*
X1268Y05024D01*
X125Y04904D02*
X1262Y05024D01*
X1244Y04904D02*
X1256Y05024D01*
X12401Y04924D02*
X125Y05024D01*
X12401Y04984D02*
X1244Y05024D01*
X1346D02*
X1352Y05084D01*
X134Y05024D02*
X1352Y05144D01*
X1334Y05024D02*
X1346Y05144D01*
X1328Y05024D02*
X134Y05144D01*
X1322Y05024D02*
X1334Y05144D01*
X1316Y05024D02*
X1328Y05144D01*
X131Y05024D02*
X1322Y05144D01*
X1304Y05024D02*
X1316Y05144D01*
X1298Y05024D02*
X131Y05144D01*
X1292Y05024D02*
X1304Y05144D01*
X1286Y05024D02*
X1298Y05144D01*
X128Y05024D02*
X1292Y05144D01*
X1274Y05024D02*
X1286Y05144D01*
X1268Y05024D02*
X128Y05144D01*
X1262Y05024D02*
X1274Y05144D01*
X1256Y05024D02*
X1268Y05144D01*
X125Y05024D02*
X1262Y05144D01*
X1244Y05024D02*
X1256Y05144D01*
X12401Y05044D02*
X125Y05144D01*
X12401Y05104D02*
X1244Y05144D01*
X13476Y-00003D02*
X13504Y00024D01*
X134Y-00019D02*
X1352Y001D01*
X1334Y-00019D02*
X1352Y0016D01*
X1328Y-00019D02*
X1352Y0022D01*
X1322Y-00019D02*
X1352Y0028D01*
X1316Y-00019D02*
X1352Y0034D01*
X131Y-00019D02*
X1352Y004D01*
X1304Y-00019D02*
X1352Y0046D01*
X1298Y-00019D02*
X1352Y0052D01*
X1292Y-00019D02*
X1352Y0058D01*
X1286Y-00019D02*
X1352Y0064D01*
X128Y-00019D02*
X1352Y007D01*
X1274Y-00019D02*
X1352Y0076D01*
X1268Y-00019D02*
X1352Y0082D01*
X1262Y-00019D02*
X1352Y0088D01*
X1256Y-00019D02*
X1352Y0094D01*
X125Y-00019D02*
X1352Y01D01*
X1244Y-00019D02*
X1352Y0106D01*
X1238Y-00019D02*
X1352Y0112D01*
X1232Y-00019D02*
X1352Y0118D01*
X1226Y-00019D02*
X1352Y0124D01*
X122Y-00019D02*
X1352Y013D01*
X1214Y-00019D02*
X1352Y0136D01*
X1208Y-00019D02*
X1352Y0142D01*
X1202Y-00019D02*
X1352Y0148D01*
X1196Y-00019D02*
X1352Y0154D01*
X119Y-00019D02*
X1352Y016D01*
X1184Y-00019D02*
X1352Y0166D01*
X1178Y-00019D02*
X1352Y0172D01*
X1172Y-00019D02*
X1352Y0178D01*
X1166Y-00019D02*
X1352Y0184D01*
X116Y-00019D02*
X1352Y019D01*
X1154Y-00019D02*
X1352Y0196D01*
X1148Y-00019D02*
X1352Y0202D01*
X1142Y-00019D02*
X1352Y0208D01*
X1136Y-00019D02*
X1352Y0214D01*
X113Y-00019D02*
X1352Y022D01*
X1124Y-00019D02*
X1352Y0226D01*
X1118Y-00019D02*
X1352Y0232D01*
X1112Y-00019D02*
X1352Y0238D01*
X1106Y-00019D02*
X1352Y0244D01*
X11Y-00019D02*
X1352Y025D01*
X1094Y-00019D02*
X1352Y0256D01*
X1088Y-00019D02*
X1352Y0262D01*
X1082Y-00019D02*
X1352Y0268D01*
X1076Y-00019D02*
X1352Y0274D01*
X107Y-00019D02*
X1352Y028D01*
X1064Y-00019D02*
X1352Y0286D01*
X1058Y-00019D02*
X1352Y0292D01*
X1052Y-00019D02*
X1352Y0298D01*
X1046Y-00019D02*
X1352Y0304D01*
X104Y-00019D02*
X1352Y031D01*
X1034Y-00019D02*
X1352Y0316D01*
X1028Y-00019D02*
X1352Y0322D01*
X1022Y-00019D02*
X13508Y03268D01*
X1016Y-00019D02*
X13479Y03299D01*
X101Y-00019D02*
X13434Y03314D01*
X1004Y-00019D02*
X13374Y03314D01*
X0998Y-00019D02*
X13314Y03314D01*
X0992Y-00019D02*
X13254Y03314D01*
X0986Y-00019D02*
X13194Y03314D01*
X098Y-00019D02*
X13134Y03314D01*
X0974Y-00019D02*
X13074Y03314D01*
X0968Y-00019D02*
X13014Y03314D01*
X0962Y-00019D02*
X12954Y03314D01*
X0956Y-00019D02*
X12894Y03314D01*
X095Y-00019D02*
X12834Y03314D01*
X0944Y-00019D02*
X12774Y03314D01*
X0938Y-00019D02*
X12714Y03314D01*
X0932Y-00019D02*
X12654Y03314D01*
X0926Y-00019D02*
X12594Y03314D01*
X092Y-00019D02*
X12534Y03314D01*
X0914Y-00019D02*
X12474Y03314D01*
X0908Y-00019D02*
X12414Y03314D01*
X09028Y-00011D02*
X12354Y03314D01*
X08996Y00016D02*
X12294Y03314D01*
X08982Y00062D02*
X12234Y03314D01*
X08982Y00122D02*
X12174Y03314D01*
X08982Y00182D02*
X12114Y03314D01*
X08982Y00242D02*
X12054Y03314D01*
X08982Y00302D02*
X11994Y03314D01*
X08982Y00362D02*
X11934Y03314D01*
X08982Y00422D02*
X11874Y03314D01*
X08982Y00482D02*
X11814Y03314D01*
X08982Y00542D02*
X11754Y03314D01*
X08982Y00602D02*
X11694Y03314D01*
X08982Y00662D02*
X11634Y03314D01*
X08982Y00722D02*
X11574Y03314D01*
X08982Y00782D02*
X11514Y03314D01*
X08982Y00842D02*
X11454Y03314D01*
X08982Y00902D02*
X11394Y03314D01*
X08982Y00962D02*
X11334Y03314D01*
X08982Y01022D02*
X11274Y03314D01*
X08982Y01082D02*
X11214Y03314D01*
X09149Y01309D02*
X11154Y03314D01*
X08982Y01142D02*
X09139Y01299D01*
X09149Y01369D02*
X11094Y03314D01*
X08982Y01202D02*
X09079Y01299D01*
X09149Y01429D02*
X11034Y03314D01*
X08982Y01262D02*
X09019Y01299D01*
X09149Y01489D02*
X10974Y03314D01*
X09149Y01549D02*
X10914Y03314D01*
X09149Y01609D02*
X10854Y03314D01*
X09149Y01669D02*
X10794Y03314D01*
X09149Y01729D02*
X10734Y03314D01*
X09149Y01789D02*
X10674Y03314D01*
X09149Y01849D02*
X10615Y03315D01*
X09149Y01909D02*
X10555Y03315D01*
X09149Y01969D02*
X10495Y03315D01*
X09149Y02029D02*
X10435Y03315D01*
X09149Y02089D02*
X10375Y03315D01*
X09149Y02149D02*
X10315Y03315D01*
X0914Y022D02*
X10255Y03315D01*
X0908Y022D02*
X10195Y03315D01*
X0902Y022D02*
X10135Y03315D01*
X08982Y02222D02*
X10075Y03315D01*
X08982Y02282D02*
X10015Y03315D01*
X08982Y02342D02*
X09955Y03315D01*
X08982Y02402D02*
X09895Y03315D01*
X08982Y02462D02*
X09835Y03315D01*
X08982Y02522D02*
X09775Y03315D01*
X08982Y02582D02*
X09715Y03315D01*
X08982Y02642D02*
X09655Y03315D01*
X08982Y02702D02*
X09595Y03315D01*
X08982Y02762D02*
X09535Y03315D01*
X08982Y02822D02*
X09475Y03315D01*
X08982Y02882D02*
X09415Y03315D01*
X08982Y02942D02*
X09355Y03315D01*
X08982Y03002D02*
X09295Y03315D01*
X08982Y03062D02*
X09235Y03315D01*
X08982Y03122D02*
X09175Y03315D01*
X08982Y03182D02*
X09115Y03315D01*
X08986Y03246D02*
X09051Y03311D01*
G54D312*
X03011Y08072D02*
Y07994D01*
X03051Y07954*
X0309Y07994*
Y08072*
X03129Y08053D02*
X03149Y08072D01*
X03188*
X03208Y08053*
Y08033*
X03188Y08013*
X03169*
X03188*
X03208Y07994*
Y07974*
X03188Y07954*
X03149*
X03129Y07974*
X03247Y08072D02*
X03287D01*
X03267*
Y07954*
X03247*
X03287*
X03346D02*
X03385D01*
X03365*
Y08072*
X03346Y08053*
X00236D02*
X00216Y08072D01*
X00177*
X00157Y08053*
Y08033*
X00177Y08013*
X00216*
X00236Y07994*
Y07974*
X00216Y07954*
X00177*
X00157Y07974*
X00275Y08072D02*
Y08053D01*
X00314Y08013*
X00354Y08053*
Y08072*
X00314Y08013D02*
Y07954D01*
X00393D02*
Y08072D01*
X00472Y07954*
Y08072*
X0059Y08053D02*
X0057Y08072D01*
X00531*
X00511Y08053*
Y07974*
X00531Y07954*
X0057*
X0059Y07974*
X00629Y08072D02*
Y07954D01*
X00688*
X00708Y07974*
Y07994*
X00688Y08013*
X00629*
X00688*
X00708Y08033*
Y08053*
X00688Y08072*
X00629*
X00806D02*
X00767D01*
X00747Y08053*
Y07974*
X00767Y07954*
X00806*
X00826Y07974*
Y08053*
X00806Y08072*
X00865D02*
X00944Y07954D01*
Y08072D02*
X00865Y07954D01*
G54D314*
X08982Y05144D02*
X1352D01*
X08982Y05264D02*
X1352D01*
X08982Y03344D02*
Y05264D01*
Y03344D02*
X09392D01*
X08982Y03464D02*
X09392D01*
X08982Y03584D02*
X09392D01*
X08982Y03704D02*
X09392D01*
X08982Y03824D02*
X09392D01*
X08982Y03944D02*
X09392D01*
X08982Y04064D02*
X09392D01*
X08982Y04184D02*
X09392D01*
X08982Y04304D02*
X09392D01*
X08982Y04424D02*
X09392D01*
X08982Y04544D02*
X09392D01*
X08982Y04664D02*
X09392D01*
X08982Y04784D02*
X09392D01*
X08982Y04904D02*
X09392D01*
X08982Y05024D02*
X09392D01*
Y03344D02*
Y05264D01*
Y03344D02*
X10321D01*
X09392Y03464D02*
X10321D01*
X09392Y03584D02*
X10321D01*
X09392Y03704D02*
X10321D01*
X09392Y03824D02*
X10321D01*
X09392Y03944D02*
X10321D01*
X09392Y04064D02*
X10321D01*
X09392Y04184D02*
X10321D01*
X09392Y04304D02*
X10321D01*
X09392Y04424D02*
X10321D01*
X09392Y04544D02*
X10321D01*
X09392Y04664D02*
X10321D01*
X09392Y04784D02*
X10321D01*
X09392Y04904D02*
X10321D01*
X09392Y05024D02*
X10321D01*
Y03344D02*
Y05264D01*
Y03344D02*
X11181D01*
X10321Y03464D02*
X11181D01*
X10321Y03584D02*
X11181D01*
X10321Y03704D02*
X11181D01*
X10321Y03824D02*
X11181D01*
X10321Y03944D02*
X11181D01*
X10321Y04064D02*
X11181D01*
X10321Y04184D02*
X11181D01*
X10321Y04304D02*
X11181D01*
X10321Y04424D02*
X11181D01*
X10321Y04544D02*
X11181D01*
X10321Y04664D02*
X11181D01*
X10321Y04784D02*
X11181D01*
X10321Y04904D02*
X11181D01*
X10321Y05024D02*
X11181D01*
Y03344D02*
Y05264D01*
Y03344D02*
X11831D01*
X11181Y03464D02*
X11831D01*
X11181Y03584D02*
X11831D01*
X11181Y03704D02*
X11831D01*
X11181Y03824D02*
X11831D01*
X11181Y03944D02*
X11831D01*
X11181Y04064D02*
X11831D01*
X11181Y04184D02*
X11831D01*
X11181Y04304D02*
X11831D01*
X11181Y04424D02*
X11831D01*
X11181Y04544D02*
X11831D01*
X11181Y04664D02*
X11831D01*
X11181Y04784D02*
X11831D01*
X11181Y04904D02*
X11831D01*
X11181Y05024D02*
X11831D01*
Y03344D02*
Y05264D01*
Y03344D02*
X12401D01*
X11831Y03464D02*
X12401D01*
X11831Y03584D02*
X12401D01*
X11831Y03704D02*
X12401D01*
X11831Y03824D02*
X12401D01*
X11831Y03944D02*
X12401D01*
X11831Y04064D02*
X12401D01*
X11831Y04184D02*
X12401D01*
X11831Y04304D02*
X12401D01*
X11831Y04424D02*
X12401D01*
X11831Y04544D02*
X12401D01*
X11831Y04664D02*
X12401D01*
X11831Y04784D02*
X12401D01*
X11831Y04904D02*
X12401D01*
X11831Y05024D02*
X12401D01*
Y03344D02*
Y05264D01*
Y03344D02*
X1352D01*
X12401Y03464D02*
X1352D01*
X12401Y03584D02*
X1352D01*
X12401Y03704D02*
X1352D01*
X12401Y03824D02*
X1352D01*
X12401Y03944D02*
X1352D01*
X12401Y04064D02*
X1352D01*
X12401Y04184D02*
X1352D01*
X12401Y04304D02*
X1352D01*
X12401Y04424D02*
X1352D01*
X12401Y04544D02*
X1352D01*
X12401Y04664D02*
X1352D01*
X12401Y04784D02*
X1352D01*
X12401Y04904D02*
X1352D01*
X12401Y05024D02*
X1352D01*
Y03344D02*
Y05264D01*
X08982Y00063D02*
Y01296D01*
Y01297*
X08982Y01297*
X08982Y01298*
X08983Y01298*
X08983*
X09149*
Y02201*
X08983D02*
X09149D01*
X08983D02*
X08983D01*
X08982Y02201D02*
X08983Y02201D01*
X08982Y02201D02*
X08982Y02201D01*
X08982Y02202D02*
X08982Y02201D01*
X08982Y02202D02*
Y02202D01*
X08982Y03217D02*
X08982Y02202D01*
X08982Y03217D02*
X08982Y03217D01*
X08982Y03217D02*
Y03217D01*
X08982Y03218*
Y03225*
X08982Y03225*
X08982Y03225*
X08983Y03231*
X08985Y03242*
X08988Y03253*
X08993Y03263*
X08999Y03273*
X09006Y03282*
X09014Y0329*
X09023Y03297*
X09033Y03302*
X09043Y03307*
X09053Y03311*
X09065Y03313*
X0907Y03314*
X09071Y03314*
X09071Y03314*
X13433Y03314*
X13434Y03314*
X13439Y03313*
X1345Y03311*
X13461Y03308*
X13471Y03303*
X1348Y03297*
X13489Y0329*
X13497Y03283*
X13504Y03274*
X13509Y03264*
X13514Y03254*
X13517Y03244*
X1352Y03233*
X1352Y03227*
X1352Y03227*
Y03225D02*
Y03227D01*
Y03225D02*
X1352Y03225D01*
X1352Y03223*
X1352Y03222*
X1352Y0322*
Y03219D02*
Y0322D01*
Y03219D02*
Y03219D01*
X1352Y03217D02*
X1352Y03219D01*
X1352Y03216D02*
X1352Y03217D01*
X1352Y03214D02*
X1352Y03216D01*
X1352Y03214D02*
X1352Y03214D01*
X1352Y00074D02*
X1352Y03214D01*
X1352Y00074D02*
X1352Y00074D01*
X1352Y00068D02*
X1352Y00074D01*
X13518Y00056D02*
X1352Y00068D01*
X13514Y00045D02*
X13518Y00056D01*
X13509Y00034D02*
X13514Y00045D01*
X13503Y00023D02*
X13509Y00034D01*
X13496Y00014D02*
X13503Y00023D01*
X13487Y00005D02*
X13496Y00014D01*
X13478Y-00001D02*
X13487Y00005D01*
X13467Y-00007D02*
X13478Y-00001D01*
X13456Y-00012D02*
X13467Y-00007D01*
X13445Y-00016D02*
X13456Y-00012D01*
X13433Y-00018D02*
X13445Y-00016D01*
X13427Y-00018D02*
X13433Y-00018D01*
X13426Y-00018D02*
X13427Y-00018D01*
X13424Y-00018D02*
X13426D01*
X13423Y-00019D02*
X13424Y-00018D01*
X13422Y-00019D02*
X13423Y-00019D01*
X1342Y-00019D02*
X13422D01*
X13419Y-00019D02*
X1342Y-00019D01*
X13418Y-00018D02*
X13419Y-00019D01*
X09064Y-00018D02*
X13418D01*
X09059D02*
X09064D01*
X09048Y-00017D02*
X09059Y-00018D01*
X09038Y-00014D02*
X09048Y-00017D01*
X09028Y-0001D02*
X09038Y-00014D01*
X09018Y-00005D02*
X09028Y-0001D01*
X0901Y00001D02*
X09018Y-00005D01*
X09002Y00009D02*
X0901Y00001D01*
X08995Y00017D02*
X09002Y00009D01*
X0899Y00027D02*
X08995Y00017D01*
X08986Y00037D02*
X0899Y00027D01*
X08983Y00047D02*
X08986Y00037D01*
X08982Y00058D02*
X08983Y00047D01*
X08982Y00058D02*
Y00063D01*
M02*