%FSTAX23Y23*%
%MOIN*%
%SFA1B1*%

%IPPOS*%
%ADD196C,0.006000*%
%ADD204C,0.010000*%
%ADD311C,0.027559*%
%LNsyncbox_mechanical_2-1*%
%LPD*%
G54D196*
X00175Y06157D02*
D01*
X00162Y06156*
X0015Y06155*
X00138Y06153*
X00126Y0615*
X00114Y06146*
X00103Y06141*
X00092Y06136*
X00081Y0613*
X00071Y06123*
X00062Y06115*
X00052Y06107*
X00044Y06098*
X00036Y06088*
X00029Y06078*
X00022Y06068*
X00017Y06057*
X00012Y06046*
X00008Y06034*
X00004Y06022*
X00002Y0601*
X0Y05998*
X0Y05986*
X0Y0598*
Y00149D02*
D01*
X0Y00139*
X00001Y00128*
X00003Y00118*
X00005Y00108*
X00009Y00098*
X00012Y00088*
X00017Y00079*
X00022Y0007*
X00028Y00061*
X00035Y00053*
X00042Y00045*
X00049Y00038*
X00057Y00031*
X00066Y00025*
X00074Y0002*
X00084Y00015*
X00093Y0001*
X00103Y00007*
X00113Y00004*
X00123Y00002*
X00134Y0*
X00144Y0*
X00149Y0*
X082D02*
D01*
X08212Y0*
X08225Y00001*
X08237Y00002*
X08249Y00005*
X08262Y00009*
X08273Y00013*
X08285Y00018*
X08296Y00024*
X08307Y00031*
X08317Y00038*
X08326Y00046*
X08335Y00055*
X08344Y00065*
X08351Y00075*
X08358Y00085*
X08365Y00096*
X0837Y00107*
X08375Y00119*
X08379Y00131*
X08382Y00143*
X08384Y00156*
X08385Y00168*
X08385Y00175*
Y05975D02*
D01*
X08386Y05987*
X08385Y05998*
X08384Y0601*
X08382Y06022*
X08379Y06034*
X08375Y06045*
X0837Y06056*
X08365Y06067*
X08359Y06077*
X08352Y06087*
X08345Y06097*
X08337Y06106*
X08328Y06114*
X08319Y06122*
X08309Y06129*
X08299Y06135*
X08288Y0614*
X08277Y06145*
X08266Y06149*
X08254Y06152*
X08242Y06155*
X0823Y06156*
X08225Y06157*
X0Y04105D02*
Y05995D01*
Y0015D02*
Y01611D01*
Y00149D02*
Y00175D01*
X00149Y0D02*
X08215D01*
X08385Y0017D02*
Y05999D01*
X00162Y06157D02*
X08227D01*
X0Y04105D02*
X0031D01*
Y0243D02*
Y04105D01*
X0Y0243D02*
X0031D01*
X0Y0015D02*
Y0243D01*
X03807Y0621D02*
X03817Y0622D01*
X03837*
X03847Y0621*
Y062*
X03837Y0619*
X03847Y0618*
Y0617*
X03837Y0616*
X03817*
X03807Y0617*
Y0618*
X03817Y0619*
X03807Y062*
Y0621*
X03817Y0619D02*
X03837D01*
X03867Y0621D02*
X03877Y0622D01*
X03897*
X03907Y0621*
Y062*
X03897Y0619*
X03887*
X03897*
X03907Y0618*
Y0617*
X03897Y0616*
X03877*
X03867Y0617*
X03926Y0621D02*
X03936Y0622D01*
X03956*
X03966Y0621*
Y062*
X03956Y0619*
X03966Y0618*
Y0617*
X03956Y0616*
X03936*
X03926Y0617*
Y0618*
X03936Y0619*
X03926Y062*
Y0621*
X03936Y0619D02*
X03956D01*
X04026Y0622D02*
X03986D01*
Y0619*
X04006Y062*
X04016*
X04026Y0619*
Y0617*
X04016Y0616*
X03996*
X03986Y0617*
X04046Y0616D02*
Y0617D01*
X04056*
Y0616*
X04046*
X04096Y0621D02*
X04106Y0622D01*
X04126*
X04136Y0621*
Y062*
X04126Y0619*
X04136Y0618*
Y0617*
X04126Y0616*
X04106*
X04096Y0617*
Y0618*
X04106Y0619*
X04096Y062*
Y0621*
X04106Y0619D02*
X04126D01*
X04196Y0616D02*
X04156D01*
X04196Y062*
Y0621*
X04186Y0622*
X04166*
X04156Y0621*
X04216Y0622D02*
X04256D01*
Y0621*
X04216Y0617*
Y0616*
X04356D02*
X04336Y0618D01*
Y062*
X04356Y0622*
X04386Y0616D02*
Y062D01*
X04396*
X04406Y0619*
Y0616*
Y0619*
X04416Y062*
X04426Y0619*
Y0616*
X04446D02*
X04466D01*
X04456*
Y062*
X04446*
X04496Y0616D02*
X04516D01*
X04506*
Y0622*
X04496*
X04546Y0616D02*
X04566Y0618D01*
Y062*
X04546Y0622*
X-00034Y04804D02*
Y04764D01*
X-00074Y04804*
X-00084*
X-00094Y04794*
Y04774*
X-00084Y04764*
X-00034Y04824D02*
Y04844D01*
Y04834*
X-00094*
X-00084Y04824*
Y04874D02*
X-00094Y04884D01*
Y04904*
X-00084Y04914*
X-00044*
X-00034Y04904*
Y04884*
X-00044Y04874*
X-00084*
X-00034Y04974D02*
Y04934D01*
X-00074Y04974*
X-00084*
X-00094Y04964*
Y04944*
X-00084Y04934*
X-00034Y04994D02*
X-00044D01*
Y05004*
X-00034*
Y04994*
X-00084Y05044D02*
X-00094Y05054D01*
Y05074*
X-00084Y05084*
X-00074*
X-00064Y05074*
Y05064*
Y05074*
X-00054Y05084*
X-00044*
X-00034Y05074*
Y05054*
X-00044Y05044*
X-00094Y05144D02*
X-00084Y05124D01*
X-00064Y05104*
X-00044*
X-00034Y05114*
Y05134*
X-00044Y05144*
X-00054*
X-00064Y05134*
Y05104*
X-00034Y05204D02*
Y05164D01*
X-00074Y05204*
X-00084*
X-00094Y05194*
Y05174*
X-00084Y05164*
X-00034Y05304D02*
X-00054Y05284D01*
X-00074*
X-00094Y05304*
X-00034Y05334D02*
X-00074D01*
Y05344*
X-00064Y05354*
X-00034*
X-00064*
X-00074Y05364*
X-00064Y05374*
X-00034*
Y05394D02*
Y05414D01*
Y05404*
X-00074*
Y05394*
X-00034Y05444D02*
Y05464D01*
Y05454*
X-00094*
Y05444*
X-00034Y05494D02*
X-00054Y05514D01*
X-00074*
X-00094Y05494*
X00385Y03001D02*
Y03021D01*
Y03011*
X00326*
X00336Y03001*
X00326Y03091D02*
X00336Y03071D01*
X00356Y03051*
X00375*
X00385Y03061*
Y03081*
X00375Y03091*
X00365*
X00356Y03081*
Y03051*
X00326Y03111D02*
Y03151D01*
X00336*
X00375Y03111*
X00385*
X00326Y03211D02*
Y03171D01*
X00356*
X00346Y03191*
Y03201*
X00356Y03211*
X00375*
X00385Y03201*
Y03181*
X00375Y03171*
X00385Y03311D02*
X00365Y03291D01*
X00346*
X00326Y03311*
X00385Y03341D02*
X00346D01*
Y03351*
X00356Y03361*
X00385*
X00356*
X00346Y03371*
X00356Y03381*
X00385*
Y03401D02*
Y03421D01*
Y03411*
X00346*
Y03401*
X00385Y03451D02*
Y03471D01*
Y03461*
X00326*
Y03451*
X00385Y03501D02*
X00365Y03521D01*
X00346*
X00326Y03501*
X-0008Y04021D02*
X-0007Y04031D01*
X-0005*
X-0004Y04021*
Y04011*
X-0005Y04001*
X-0006*
X-0005*
X-0004Y03991*
Y03981*
X-0005Y03971*
X-0007*
X-0008Y03981*
X-0002Y03971D02*
X0D01*
X-0001*
Y04031*
X-0002Y04021*
X00029D02*
X00039Y04031D01*
X00059*
X00069Y04021*
Y03981*
X00059Y03971*
X00039*
X00029Y03981*
Y04021*
X00168Y03971D02*
X00149Y03991D01*
Y04011*
X00168Y04031*
X00198Y03971D02*
Y04011D01*
X00208*
X00218Y04001*
Y03971*
Y04001*
X00228Y04011*
X00238Y04001*
Y03971*
X00258D02*
X00278D01*
X00268*
Y04011*
X00258*
X00308Y03971D02*
X00328D01*
X00318*
Y04031*
X00308*
X00358Y03971D02*
X00378Y03991D01*
Y04011*
X00358Y04031*
X0848Y0291D02*
Y02929D01*
Y02919*
X0842*
X0843Y0291*
X0842Y02999D02*
Y02959D01*
X0845*
X0844Y02979*
Y02989*
X0845Y02999*
X0847*
X0848Y02989*
Y02969*
X0847Y02959*
X0842Y03059D02*
X0843Y03039D01*
X0845Y03019*
X0847*
X0848Y03029*
Y03049*
X0847Y03059*
X0846*
X0845Y03049*
Y03019*
X0848Y03079D02*
X0847D01*
Y03089*
X0848*
Y03079*
X0842Y03129D02*
Y03169D01*
X0843*
X0847Y03129*
X0848*
Y03229D02*
Y03189D01*
X0844Y03229*
X0843*
X0842Y03219*
Y03199*
X0843Y03189*
X00835Y05603D02*
Y05663D01*
X00865*
X00875Y05653*
Y05633*
X00865Y05623*
X00835*
X00855D02*
X00875Y05603D01*
X00995Y05663D02*
X00975Y05653D01*
X00955Y05633*
Y05613*
X00965Y05603*
X00985*
X00995Y05613*
Y05623*
X00985Y05633*
X00955*
X01015Y05603D02*
Y05613D01*
X01025*
Y05603*
X01015*
X01065Y05653D02*
X01074Y05663D01*
X01094*
X01104Y05653*
Y05613*
X01094Y05603*
X01074*
X01065Y05613*
Y05653*
X01124D02*
X01134Y05663D01*
X01154*
X01164Y05653*
Y05613*
X01154Y05603*
X01134*
X01124Y05613*
Y05653*
X00855Y04731D02*
Y04791D01*
X00885*
X00895Y04781*
Y04761*
X00885Y04751*
X00855*
X00875D02*
X00895Y04731D01*
X00975Y04781D02*
X00985Y04791D01*
X01005*
X01015Y04781*
Y04771*
X01005Y04761*
X00995*
X01005*
X01015Y04751*
Y04741*
X01005Y04731*
X00985*
X00975Y04741*
X01035Y04731D02*
Y04741D01*
X01045*
Y04731*
X01035*
X01125Y04791D02*
X01085D01*
Y04761*
X01105Y04771*
X01115*
X01125Y04761*
Y04741*
X01115Y04731*
X01095*
X01085Y04741*
X01145Y04781D02*
X01155Y04791D01*
X01175*
X01185Y04781*
Y04741*
X01175Y04731*
X01155*
X01145Y04741*
Y04781*
X0096Y01973D02*
Y02033D01*
X0099*
X01Y02023*
Y02003*
X0099Y01993*
X0096*
X0098D02*
X01Y01973D01*
X0108Y02023D02*
X0109Y02033D01*
X0111*
X0112Y02023*
Y02013*
X0111Y02003*
X011*
X0111*
X0112Y01993*
Y01983*
X0111Y01973*
X0109*
X0108Y01983*
X0114Y01973D02*
Y01983D01*
X0115*
Y01973*
X0114*
X0123Y02033D02*
X0119D01*
Y02003*
X0121Y02013*
X0122*
X0123Y02003*
Y01983*
X0122Y01973*
X012*
X0119Y01983*
X0125Y02023D02*
X0126Y02033D01*
X0128*
X0129Y02023*
Y01983*
X0128Y01973*
X0126*
X0125Y01983*
Y02023*
X00955Y0133D02*
Y0139D01*
X00985*
X00995Y0138*
Y0136*
X00985Y0135*
X00955*
X00975D02*
X00995Y0133D01*
X01115Y0139D02*
X01095Y0138D01*
X01075Y0136*
Y0134*
X01085Y0133*
X01105*
X01115Y0134*
Y0135*
X01105Y0136*
X01075*
X01135Y0133D02*
Y0134D01*
X01145*
Y0133*
X01135*
X01185Y0138D02*
X01195Y0139D01*
X01215*
X01225Y0138*
Y0134*
X01215Y0133*
X01195*
X01185Y0134*
Y0138*
X01245D02*
X01255Y0139D01*
X01275*
X01285Y0138*
Y0134*
X01275Y0133*
X01255*
X01245Y0134*
Y0138*
X01585Y04359D02*
Y04419D01*
X01614*
X01624Y04409*
Y04389*
X01614Y04379*
X01585*
X01604D02*
X01624Y04359D01*
X01744D02*
X01704D01*
X01744Y04399*
Y04409*
X01734Y04419*
X01714*
X01704Y04409*
X01764Y04359D02*
Y04369D01*
X01774*
Y04359*
X01764*
X01814Y04409D02*
X01824Y04419D01*
X01844*
X01854Y04409*
Y04399*
X01844Y04389*
X01854Y04379*
Y04369*
X01844Y04359*
X01824*
X01814Y04369*
Y04379*
X01824Y04389*
X01814Y04399*
Y04409*
X01824Y04389D02*
X01844D01*
X01874Y04409D02*
X01884Y04419D01*
X01904*
X01914Y04409*
Y04369*
X01904Y04359*
X01884*
X01874Y04369*
Y04409*
G54D204*
X00939Y05215D02*
D01*
X00939Y05232*
X00937Y05248*
X00934Y05264*
X0093Y0528*
X00925Y05296*
X00919Y05311*
X00912Y05326*
X00904Y0534*
X00894Y05354*
X00884Y05367*
X00873Y05379*
X00861Y05391*
X00849Y05401*
X00835Y05411*
X00821Y0542*
X00807Y05427*
X00792Y05434*
X00776Y0544*
X0076Y05444*
X00744Y05448*
X00728Y0545*
X00711Y05451*
X00695*
X00679Y0545*
X00662Y05448*
X00646Y05444*
X0063Y0544*
X00615Y05434*
X006Y05427*
X00585Y0542*
X00571Y05411*
X00558Y05401*
X00545Y05391*
X00533Y05379*
X00522Y05367*
X00512Y05354*
X00503Y0534*
X00495Y05326*
X00487Y05311*
X00481Y05296*
X00476Y0528*
X00472Y05264*
X00469Y05248*
X00468Y05232*
X00467Y05215*
X00468Y05199*
X00469Y05182*
X00472Y05166*
X00476Y0515*
X00481Y05134*
X00487Y05119*
X00495Y05104*
X00503Y0509*
X00512Y05076*
X00522Y05063*
X00533Y05051*
X00545Y0504*
X00558Y05029*
X00571Y05019*
X00585Y0501*
X006Y05003*
X00615Y04996*
X0063Y0499*
X00646Y04986*
X00662Y04982*
X00679Y0498*
X00695Y04979*
X00711*
X00728Y0498*
X00744Y04982*
X0076Y04986*
X00776Y0499*
X00792Y04996*
X00807Y05003*
X00821Y0501*
X00835Y05019*
X00849Y05029*
X00861Y0504*
X00873Y05051*
X00884Y05063*
X00894Y05076*
X00904Y0509*
X00912Y05104*
X00919Y05119*
X00925Y05134*
X0093Y0515*
X00934Y05166*
X00937Y05182*
X00939Y05199*
X00939Y05215*
X0077Y04488D02*
D01*
X0077Y04497*
X00769Y04507*
X00767Y04516*
X00765Y04526*
X00762Y04535*
X00758Y04544*
X00754Y04552*
X00749Y04561*
X00744Y04569*
X00738Y04576*
X00731Y04583*
X00725Y0459*
X00717Y04596*
X00709Y04602*
X00701Y04607*
X00693Y04612*
X00684Y04615*
X00675Y04619*
X00666Y04621*
X00656Y04623*
X00647Y04625*
X00637Y04625*
X00628*
X00618Y04625*
X00608Y04623*
X00599Y04621*
X0059Y04619*
X00581Y04615*
X00572Y04612*
X00563Y04607*
X00555Y04602*
X00548Y04596*
X0054Y0459*
X00533Y04583*
X00527Y04576*
X00521Y04569*
X00516Y04561*
X00511Y04552*
X00506Y04544*
X00503Y04535*
X005Y04526*
X00498Y04516*
X00496Y04507*
X00495Y04497*
X00495Y04488*
X00495Y04478*
X00496Y04469*
X00498Y04459*
X005Y0445*
X00503Y04441*
X00506Y04432*
X00511Y04423*
X00516Y04415*
X00521Y04407*
X00527Y04399*
X00533Y04392*
X0054Y04385*
X00548Y04379*
X00555Y04373*
X00563Y04368*
X00572Y04364*
X00581Y0436*
X0059Y04357*
X00599Y04354*
X00608Y04352*
X00618Y04351*
X00628Y0435*
X00637*
X00647Y04351*
X00656Y04352*
X00666Y04354*
X00675Y04357*
X00684Y0436*
X00693Y04364*
X00701Y04368*
X00709Y04373*
X00717Y04379*
X00725Y04385*
X00731Y04392*
X00738Y04399*
X00744Y04407*
X00749Y04415*
X00754Y04423*
X00758Y04432*
X00762Y04441*
X00765Y0445*
X00767Y04459*
X00769Y04469*
X0077Y04478*
X0077Y04488*
X01605Y04125D02*
D01*
X01604Y04132*
X01604Y0414*
X01602Y04147*
X016Y04155*
X01598Y04162*
X01595Y04169*
X01592Y04176*
X01588Y04183*
X01584Y04189*
X01579Y04195*
X01574Y04201*
X01568Y04206*
X01562Y04211*
X01556Y04216*
X0155Y0422*
X01543Y04224*
X01536Y04227*
X01529Y04229*
X01521Y04231*
X01514Y04233*
X01506Y04234*
X01498Y04235*
X01491*
X01483Y04234*
X01475Y04233*
X01468Y04231*
X0146Y04229*
X01453Y04227*
X01446Y04224*
X01439Y0422*
X01433Y04216*
X01427Y04211*
X01421Y04206*
X01415Y04201*
X0141Y04195*
X01405Y04189*
X01401Y04183*
X01397Y04176*
X01394Y04169*
X01391Y04162*
X01389Y04155*
X01387Y04147*
X01385Y0414*
X01385Y04132*
X01384Y04125*
X01385Y04117*
X01385Y04109*
X01387Y04102*
X01389Y04094*
X01391Y04087*
X01394Y0408*
X01397Y04073*
X01401Y04066*
X01405Y0406*
X0141Y04054*
X01415Y04048*
X01421Y04043*
X01427Y04038*
X01433Y04033*
X01439Y04029*
X01446Y04025*
X01453Y04022*
X0146Y0402*
X01468Y04018*
X01475Y04016*
X01483Y04015*
X01491Y04014*
X01498*
X01506Y04015*
X01514Y04016*
X01521Y04018*
X01529Y0402*
X01536Y04022*
X01543Y04025*
X0155Y04029*
X01556Y04033*
X01562Y04038*
X01568Y04043*
X01574Y04048*
X01579Y04054*
X01584Y0406*
X01588Y04066*
X01592Y04073*
X01595Y0408*
X01598Y04087*
X016Y04094*
X01602Y04102*
X01604Y04109*
X01604Y04117*
X01605Y04125*
X04595D02*
D01*
X04594Y04132*
X04594Y0414*
X04592Y04147*
X0459Y04155*
X04588Y04162*
X04585Y04169*
X04582Y04176*
X04578Y04183*
X04574Y04189*
X04569Y04195*
X04564Y04201*
X04558Y04206*
X04552Y04211*
X04546Y04216*
X0454Y0422*
X04533Y04224*
X04526Y04227*
X04519Y04229*
X04511Y04231*
X04504Y04233*
X04496Y04234*
X04488Y04235*
X04481*
X04473Y04234*
X04465Y04233*
X04458Y04231*
X0445Y04229*
X04443Y04227*
X04436Y04224*
X04429Y0422*
X04423Y04216*
X04417Y04211*
X04411Y04206*
X04405Y04201*
X044Y04195*
X04395Y04189*
X04391Y04183*
X04387Y04176*
X04384Y04169*
X04381Y04162*
X04379Y04155*
X04377Y04147*
X04375Y0414*
X04375Y04132*
X04374Y04125*
X04375Y04117*
X04375Y04109*
X04377Y04102*
X04379Y04094*
X04381Y04087*
X04384Y0408*
X04387Y04073*
X04391Y04066*
X04395Y0406*
X044Y04054*
X04405Y04048*
X04411Y04043*
X04417Y04038*
X04423Y04033*
X04429Y04029*
X04436Y04025*
X04443Y04022*
X0445Y0402*
X04458Y04018*
X04465Y04016*
X04473Y04015*
X04481Y04014*
X04488*
X04496Y04015*
X04504Y04016*
X04511Y04018*
X04519Y0402*
X04526Y04022*
X04533Y04025*
X0454Y04029*
X04546Y04033*
X04552Y04038*
X04558Y04043*
X04564Y04048*
X04569Y04054*
X04574Y0406*
X04578Y04066*
X04582Y04073*
X04585Y0408*
X04588Y04087*
X0459Y04094*
X04592Y04102*
X04594Y04109*
X04594Y04117*
X04595Y04125*
X016Y02275D02*
D01*
X01599Y02282*
X01599Y0229*
X01597Y02297*
X01595Y02305*
X01593Y02312*
X0159Y02319*
X01587Y02326*
X01583Y02333*
X01579Y02339*
X01574Y02345*
X01569Y02351*
X01563Y02356*
X01557Y02361*
X01551Y02366*
X01545Y0237*
X01538Y02374*
X01531Y02377*
X01524Y02379*
X01516Y02381*
X01509Y02383*
X01501Y02384*
X01493Y02385*
X01486*
X01478Y02384*
X0147Y02383*
X01463Y02381*
X01455Y02379*
X01448Y02377*
X01441Y02374*
X01434Y0237*
X01428Y02366*
X01422Y02361*
X01416Y02356*
X0141Y02351*
X01405Y02345*
X014Y02339*
X01396Y02333*
X01392Y02326*
X01389Y02319*
X01386Y02312*
X01384Y02305*
X01382Y02297*
X0138Y0229*
X0138Y02282*
X01379Y02275*
X0138Y02267*
X0138Y02259*
X01382Y02252*
X01384Y02244*
X01386Y02237*
X01389Y0223*
X01392Y02223*
X01396Y02216*
X014Y0221*
X01405Y02204*
X0141Y02198*
X01416Y02193*
X01422Y02188*
X01428Y02183*
X01434Y02179*
X01441Y02175*
X01448Y02172*
X01455Y0217*
X01463Y02168*
X0147Y02166*
X01478Y02165*
X01486Y02164*
X01493*
X01501Y02165*
X01509Y02166*
X01516Y02168*
X01524Y0217*
X01531Y02172*
X01538Y02175*
X01545Y02179*
X01551Y02183*
X01557Y02188*
X01563Y02193*
X01569Y02198*
X01574Y02204*
X01579Y0221*
X01583Y02216*
X01587Y02223*
X0159Y0223*
X01593Y02237*
X01595Y02244*
X01597Y02252*
X01599Y02259*
X01599Y02267*
X016Y02275*
X04595Y0227D02*
D01*
X04594Y02277*
X04594Y02285*
X04592Y02292*
X0459Y023*
X04588Y02307*
X04585Y02314*
X04582Y02321*
X04578Y02328*
X04574Y02334*
X04569Y0234*
X04564Y02346*
X04558Y02351*
X04552Y02356*
X04546Y02361*
X0454Y02365*
X04533Y02369*
X04526Y02372*
X04519Y02374*
X04511Y02376*
X04504Y02378*
X04496Y02379*
X04488Y0238*
X04481*
X04473Y02379*
X04465Y02378*
X04458Y02376*
X0445Y02374*
X04443Y02372*
X04436Y02369*
X04429Y02365*
X04423Y02361*
X04417Y02356*
X04411Y02351*
X04405Y02346*
X044Y0234*
X04395Y02334*
X04391Y02328*
X04387Y02321*
X04384Y02314*
X04381Y02307*
X04379Y023*
X04377Y02292*
X04375Y02285*
X04375Y02277*
X04374Y0227*
X04375Y02262*
X04375Y02254*
X04377Y02247*
X04379Y02239*
X04381Y02232*
X04384Y02225*
X04387Y02218*
X04391Y02211*
X04395Y02205*
X044Y02199*
X04405Y02193*
X04411Y02188*
X04417Y02183*
X04423Y02178*
X04429Y02174*
X04436Y0217*
X04443Y02167*
X0445Y02165*
X04458Y02163*
X04465Y02161*
X04473Y0216*
X04481Y02159*
X04488*
X04496Y0216*
X04504Y02161*
X04511Y02163*
X04519Y02165*
X04526Y02167*
X04533Y0217*
X0454Y02174*
X04546Y02178*
X04552Y02183*
X04558Y02188*
X04564Y02193*
X04569Y02199*
X04574Y02205*
X04578Y02211*
X04582Y02218*
X04585Y02225*
X04588Y02232*
X0459Y02239*
X04592Y02247*
X04594Y02254*
X04594Y02262*
X04595Y0227*
X00939Y00936D02*
D01*
X00939Y00952*
X00937Y00968*
X00934Y00985*
X0093Y01001*
X00925Y01016*
X00919Y01032*
X00912Y01046*
X00904Y01061*
X00894Y01074*
X00884Y01087*
X00873Y011*
X00861Y01111*
X00849Y01122*
X00835Y01131*
X00821Y0114*
X00807Y01148*
X00792Y01155*
X00776Y0116*
X0076Y01165*
X00744Y01168*
X00728Y0117*
X00711Y01172*
X00695*
X00679Y0117*
X00662Y01168*
X00646Y01165*
X0063Y0116*
X00615Y01155*
X006Y01148*
X00585Y0114*
X00571Y01131*
X00558Y01122*
X00545Y01111*
X00533Y011*
X00522Y01087*
X00512Y01074*
X00503Y01061*
X00495Y01046*
X00487Y01032*
X00481Y01016*
X00476Y01001*
X00472Y00985*
X00469Y00968*
X00468Y00952*
X00467Y00936*
X00468Y00919*
X00469Y00903*
X00472Y00886*
X00476Y0087*
X00481Y00855*
X00487Y00839*
X00495Y00825*
X00503Y0081*
X00512Y00797*
X00522Y00784*
X00533Y00771*
X00545Y0076*
X00558Y00749*
X00571Y0074*
X00585Y00731*
X006Y00723*
X00615Y00717*
X0063Y00711*
X00646Y00706*
X00662Y00703*
X00679Y00701*
X00695Y00699*
X00711*
X00728Y00701*
X00744Y00703*
X0076Y00706*
X00776Y00711*
X00792Y00717*
X00807Y00723*
X00821Y00731*
X00835Y0074*
X00849Y00749*
X00861Y0076*
X00873Y00771*
X00884Y00784*
X00894Y00797*
X00904Y0081*
X00912Y00825*
X00919Y00839*
X00925Y00855*
X0093Y0087*
X00934Y00886*
X00937Y00903*
X00939Y00919*
X00939Y00936*
X0077Y01663D02*
D01*
X0077Y01672*
X00769Y01682*
X00767Y01692*
X00765Y01701*
X00762Y0171*
X00758Y01719*
X00754Y01728*
X00749Y01736*
X00744Y01744*
X00738Y01751*
X00731Y01759*
X00725Y01765*
X00717Y01771*
X00709Y01777*
X00701Y01782*
X00693Y01787*
X00684Y01791*
X00675Y01794*
X00666Y01797*
X00656Y01799*
X00647Y018*
X00637Y01801*
X00628*
X00618Y018*
X00608Y01799*
X00599Y01797*
X0059Y01794*
X00581Y01791*
X00572Y01787*
X00563Y01782*
X00555Y01777*
X00548Y01771*
X0054Y01765*
X00533Y01759*
X00527Y01751*
X00521Y01744*
X00516Y01736*
X00511Y01728*
X00506Y01719*
X00503Y0171*
X005Y01701*
X00498Y01692*
X00496Y01682*
X00495Y01672*
X00495Y01663*
X00495Y01653*
X00496Y01644*
X00498Y01634*
X005Y01625*
X00503Y01616*
X00506Y01607*
X00511Y01598*
X00516Y0159*
X00521Y01582*
X00527Y01574*
X00533Y01567*
X0054Y0156*
X00548Y01554*
X00555Y01549*
X00563Y01544*
X00572Y01539*
X00581Y01535*
X0059Y01532*
X00599Y01529*
X00608Y01527*
X00618Y01526*
X00628Y01525*
X00637*
X00647Y01526*
X00656Y01527*
X00666Y01529*
X00675Y01532*
X00684Y01535*
X00693Y01539*
X00701Y01544*
X00709Y01549*
X00717Y01554*
X00725Y0156*
X00731Y01567*
X00738Y01574*
X00744Y01582*
X00749Y0159*
X00754Y01598*
X00758Y01607*
X00762Y01616*
X00765Y01625*
X00767Y01634*
X00769Y01644*
X0077Y01653*
X0077Y01663*
X07963Y00936D02*
D01*
X07963Y00952*
X07961Y00968*
X07958Y00985*
X07954Y01001*
X07949Y01016*
X07943Y01032*
X07935Y01046*
X07927Y01061*
X07918Y01074*
X07908Y01087*
X07897Y011*
X07885Y01111*
X07872Y01122*
X07859Y01131*
X07845Y0114*
X0783Y01148*
X07815Y01155*
X078Y0116*
X07784Y01165*
X07768Y01168*
X07752Y0117*
X07735Y01172*
X07719*
X07702Y0117*
X07686Y01168*
X0767Y01165*
X07654Y0116*
X07638Y01155*
X07623Y01148*
X07609Y0114*
X07595Y01131*
X07581Y01122*
X07569Y01111*
X07557Y011*
X07546Y01087*
X07536Y01074*
X07527Y01061*
X07518Y01046*
X07511Y01032*
X07505Y01016*
X075Y01001*
X07496Y00985*
X07493Y00968*
X07491Y00952*
X07491Y00936*
X07491Y00919*
X07493Y00903*
X07496Y00886*
X075Y0087*
X07505Y00855*
X07511Y00839*
X07518Y00825*
X07527Y0081*
X07536Y00797*
X07546Y00784*
X07557Y00771*
X07569Y0076*
X07581Y00749*
X07595Y0074*
X07609Y00731*
X07623Y00723*
X07638Y00717*
X07654Y00711*
X0767Y00706*
X07686Y00703*
X07702Y00701*
X07719Y00699*
X07735*
X07752Y00701*
X07768Y00703*
X07784Y00706*
X078Y00711*
X07815Y00717*
X0783Y00723*
X07845Y00731*
X07859Y0074*
X07872Y00749*
X07885Y0076*
X07897Y00771*
X07908Y00784*
X07918Y00797*
X07927Y0081*
X07935Y00825*
X07943Y00839*
X07949Y00855*
X07954Y0087*
X07958Y00886*
X07961Y00903*
X07963Y00919*
X07963Y00936*
X07936Y01663D02*
D01*
X07935Y01672*
X07934Y01682*
X07933Y01692*
X0793Y01701*
X07927Y0171*
X07924Y01719*
X07919Y01728*
X07915Y01736*
X07909Y01744*
X07903Y01751*
X07897Y01759*
X0789Y01765*
X07883Y01771*
X07875Y01777*
X07867Y01782*
X07858Y01787*
X07849Y01791*
X0784Y01794*
X07831Y01797*
X07822Y01799*
X07812Y018*
X07803Y01801*
X07793*
X07783Y018*
X07774Y01799*
X07764Y01797*
X07755Y01794*
X07746Y01791*
X07737Y01787*
X07729Y01782*
X07721Y01777*
X07713Y01771*
X07706Y01765*
X07699Y01759*
X07692Y01751*
X07686Y01744*
X07681Y01736*
X07676Y01728*
X07672Y01719*
X07668Y0171*
X07665Y01701*
X07663Y01692*
X07661Y01682*
X0766Y01672*
X0766Y01663*
X0766Y01653*
X07661Y01644*
X07663Y01634*
X07665Y01625*
X07668Y01616*
X07672Y01607*
X07676Y01598*
X07681Y0159*
X07686Y01582*
X07692Y01574*
X07699Y01567*
X07706Y0156*
X07713Y01554*
X07721Y01549*
X07729Y01544*
X07737Y01539*
X07746Y01535*
X07755Y01532*
X07764Y01529*
X07774Y01527*
X07783Y01526*
X07793Y01525*
X07803*
X07812Y01526*
X07822Y01527*
X07831Y01529*
X0784Y01532*
X07849Y01535*
X07858Y01539*
X07867Y01544*
X07875Y01549*
X07883Y01554*
X0789Y0156*
X07897Y01567*
X07903Y01574*
X07909Y01582*
X07915Y0159*
X07919Y01598*
X07924Y01607*
X07927Y01616*
X0793Y01625*
X07933Y01634*
X07934Y01644*
X07935Y01653*
X07936Y01663*
Y04488D02*
D01*
X07935Y04497*
X07934Y04507*
X07933Y04516*
X0793Y04526*
X07927Y04535*
X07924Y04544*
X07919Y04552*
X07915Y04561*
X07909Y04569*
X07903Y04576*
X07897Y04583*
X0789Y0459*
X07883Y04596*
X07875Y04602*
X07867Y04607*
X07858Y04612*
X07849Y04615*
X0784Y04619*
X07831Y04621*
X07822Y04623*
X07812Y04625*
X07803Y04625*
X07793*
X07783Y04625*
X07774Y04623*
X07764Y04621*
X07755Y04619*
X07746Y04615*
X07737Y04612*
X07729Y04607*
X07721Y04602*
X07713Y04596*
X07706Y0459*
X07699Y04583*
X07692Y04576*
X07686Y04569*
X07681Y04561*
X07676Y04552*
X07672Y04544*
X07668Y04535*
X07665Y04526*
X07663Y04516*
X07661Y04507*
X0766Y04497*
X0766Y04488*
X0766Y04478*
X07661Y04469*
X07663Y04459*
X07665Y0445*
X07668Y04441*
X07672Y04432*
X07676Y04423*
X07681Y04415*
X07686Y04407*
X07692Y04399*
X07699Y04392*
X07706Y04385*
X07713Y04379*
X07721Y04373*
X07729Y04368*
X07737Y04364*
X07746Y0436*
X07755Y04357*
X07764Y04354*
X07774Y04352*
X07783Y04351*
X07793Y0435*
X07803*
X07812Y04351*
X07822Y04352*
X07831Y04354*
X0784Y04357*
X07849Y0436*
X07858Y04364*
X07867Y04368*
X07875Y04373*
X07883Y04379*
X0789Y04385*
X07897Y04392*
X07903Y04399*
X07909Y04407*
X07915Y04415*
X07919Y04423*
X07924Y04432*
X07927Y04441*
X0793Y0445*
X07933Y04459*
X07934Y04469*
X07935Y04478*
X07936Y04488*
X07963Y05215D02*
D01*
X07963Y05232*
X07961Y05248*
X07958Y05264*
X07954Y0528*
X07949Y05296*
X07943Y05311*
X07935Y05326*
X07927Y0534*
X07918Y05354*
X07908Y05367*
X07897Y05379*
X07885Y05391*
X07872Y05401*
X07859Y05411*
X07845Y0542*
X0783Y05427*
X07815Y05434*
X078Y0544*
X07784Y05444*
X07768Y05448*
X07752Y0545*
X07735Y05451*
X07719*
X07702Y0545*
X07686Y05448*
X0767Y05444*
X07654Y0544*
X07638Y05434*
X07623Y05427*
X07609Y0542*
X07595Y05411*
X07581Y05401*
X07569Y05391*
X07557Y05379*
X07546Y05367*
X07536Y05354*
X07527Y0534*
X07518Y05326*
X07511Y05311*
X07505Y05296*
X075Y0528*
X07496Y05264*
X07493Y05248*
X07491Y05232*
X07491Y05215*
X07491Y05199*
X07493Y05182*
X07496Y05166*
X075Y0515*
X07505Y05134*
X07511Y05119*
X07518Y05104*
X07527Y0509*
X07536Y05076*
X07546Y05063*
X07557Y05051*
X07569Y0504*
X07581Y05029*
X07595Y05019*
X07609Y0501*
X07623Y05003*
X07638Y04996*
X07654Y0499*
X0767Y04986*
X07686Y04982*
X07702Y0498*
X07719Y04979*
X07735*
X07752Y0498*
X07768Y04982*
X07784Y04986*
X078Y0499*
X07815Y04996*
X0783Y05003*
X07845Y0501*
X07859Y05019*
X07872Y05029*
X07885Y0504*
X07897Y05051*
X07908Y05063*
X07918Y05076*
X07927Y0509*
X07935Y05104*
X07943Y05119*
X07949Y05134*
X07954Y0515*
X07958Y05166*
X07961Y05182*
X07963Y05199*
X07963Y05215*
X08385Y06186D02*
Y06206D01*
X0Y06186D02*
Y06206D01*
X08325Y06176D02*
X08385Y06196D01*
X08325Y06216D02*
X08385Y06196D01*
X0D02*
X0006Y06176D01*
X0Y06196D02*
X0006Y06216D01*
X04588Y06196D02*
X08385D01*
X0D02*
X03797D01*
X-0008D02*
X-0006D01*
X-0008Y04094D02*
X-0006D01*
X-0007Y06196D02*
X-0005Y06136D01*
X-0009D02*
X-0007Y06196D01*
Y04094D02*
X-0005Y04154D01*
X-0009D02*
X-0007Y04094D01*
Y05536D02*
Y06196D01*
Y04094D02*
Y04754D01*
X0034Y04105D02*
X0036D01*
X0034Y0243D02*
X0036D01*
X0035Y04105D02*
X0037Y04045D01*
X0033D02*
X0035Y04105D01*
Y0243D02*
X0037Y0249D01*
X0033D02*
X0035Y0243D01*
Y03543D02*
Y04105D01*
Y0243D02*
Y02991D01*
X0031Y04105D02*
Y04125D01*
X0Y04105D02*
Y04125D01*
X0031Y04115D02*
X0037Y04095D01*
X0031Y04115D02*
X0037Y04135D01*
X-0006Y04095D02*
X0Y04115D01*
X-0006Y04135D02*
X0Y04115D01*
X0031D02*
X0041D01*
X-001D02*
X0D01*
X08424Y0006D02*
X08444Y0D01*
X08464Y0006*
X08444Y0617D02*
X08464Y0611D01*
X08424D02*
X08444Y0617D01*
Y0D02*
Y02894D01*
Y03245D02*
Y0617D01*
X08434Y0D02*
X08449D01*
X08444Y0616D02*
Y0618D01*
X00683Y05511D02*
X00703Y05451D01*
X00723Y05511*
X00703Y05451D02*
Y05639D01*
X00825*
X00612Y04685D02*
X00632Y04625D01*
X00652Y04685*
X00632Y04625D02*
Y04767D01*
X00845*
X00612Y01861D02*
X00632Y01801D01*
X00652Y01861*
X00632Y01801D02*
Y02009D01*
X0095*
X00683Y01232D02*
X00703Y01172D01*
X00723Y01232*
X00703Y01172D02*
Y01366D01*
X00945*
X01475Y04295D02*
X01495Y04235D01*
X01515Y04295*
X01495Y04235D02*
Y04395D01*
X01575*
G54D311*
X00917Y06675D02*
Y06813D01*
X00963Y06767*
X01008Y06813*
Y06675*
X01123D02*
X01077D01*
X01054Y06698*
Y06744*
X01077Y06767*
X01123*
X01146Y06744*
Y06721*
X01054*
X01284Y06767D02*
X01215D01*
X01192Y06744*
Y06698*
X01215Y06675*
X01284*
X0133Y06813D02*
Y06675D01*
Y06744*
X01353Y06767*
X01399*
X01422Y06744*
Y06675*
X01491Y06767D02*
X01537D01*
X0156Y06744*
Y06675*
X01491*
X01468Y06698*
X01491Y06721*
X0156*
X01605Y06675D02*
Y06767D01*
X01674*
X01697Y06744*
Y06675*
X01743D02*
X01789D01*
X01766*
Y06767*
X01743*
X0195D02*
X01881D01*
X01858Y06744*
Y06698*
X01881Y06675*
X0195*
X02019Y06767D02*
X02065D01*
X02088Y06744*
Y06675*
X02019*
X01996Y06698*
X02019Y06721*
X02088*
X02133Y06675D02*
X02179D01*
X02156*
Y06813*
X02133*
X02386D02*
Y06675D01*
X02455*
X02478Y06698*
Y0679*
X02455Y06813*
X02386*
X02524Y06767D02*
Y06675D01*
Y06721*
X02547Y06744*
X0257Y06767*
X02593*
X02684D02*
X0273D01*
X02753Y06744*
Y06675*
X02684*
X02662Y06698*
X02684Y06721*
X02753*
X02799Y06767D02*
Y06698D01*
X02822Y06675*
X02845Y06698*
X02868Y06675*
X02891Y06698*
Y06767*
X02937Y06675D02*
X02983D01*
X0296*
Y06767*
X02937*
X03052Y06675D02*
Y06767D01*
X03121*
X03144Y06744*
Y06675*
X03235Y06629D02*
X03258D01*
X03281Y06652*
Y06767*
X03213*
X0319Y06744*
Y06698*
X03213Y06675*
X03281*
X03488D02*
X03534D01*
X03557Y06698*
Y06744*
X03534Y06767*
X03488*
X03465Y06744*
Y06698*
X03488Y06675*
X03626D02*
Y0679D01*
Y06744*
X03603*
X03649*
X03626*
Y0679*
X03649Y06813*
X03947Y0679D02*
X03924Y06813D01*
X03878*
X03855Y0679*
Y06767*
X03878Y06744*
X03924*
X03947Y06721*
Y06698*
X03924Y06675*
X03878*
X03855Y06698*
X03993Y06813D02*
Y0679D01*
X04039Y06744*
X04085Y0679*
Y06813*
X04039Y06744D02*
Y06675D01*
X04131D02*
Y06813D01*
X04223Y06675*
Y06813*
X0436Y0679D02*
X04337Y06813D01*
X04292*
X04269Y0679*
Y06698*
X04292Y06675*
X04337*
X0436Y06698*
X04406Y06813D02*
Y06675D01*
X04475*
X04498Y06698*
Y06721*
X04475Y06744*
X04406*
X04475*
X04498Y06767*
Y0679*
X04475Y06813*
X04406*
X04613D02*
X04567D01*
X04544Y0679*
Y06698*
X04567Y06675*
X04613*
X04636Y06698*
Y0679*
X04613Y06813*
X04682D02*
X04774Y06675D01*
Y06813D02*
X04682Y06675D01*
M02*