%FSTAX23Y23*%
%MOIN*%
%SFA1B1*%

%IPPOS*%
%AMD26*
4,1,4,-0.024400,-0.016600,-0.016600,-0.024400,0.024400,0.016600,0.016600,0.024400,-0.024400,-0.016600,0.0*
%
%AMD27*
4,1,4,0.016600,-0.024400,0.024400,-0.016600,-0.016600,0.024400,-0.024400,0.016600,0.016600,-0.024400,0.0*
%
%AMD62*
4,1,4,0.020900,-0.009900,-0.009900,0.020900,-0.020900,0.009900,0.009900,-0.020900,0.020900,-0.009900,0.0*
%
%AMD242*
4,1,8,-0.079000,0.015000,-0.079000,-0.015000,-0.060000,-0.034000,0.060000,-0.034000,0.079000,-0.015000,0.079000,0.015000,0.060000,0.034000,-0.060000,0.034000,-0.079000,0.015000,0.0*
1,1,0.038000,-0.060000,0.015000*
1,1,0.038000,-0.060000,-0.015000*
1,1,0.038000,0.060000,-0.015000*
1,1,0.038000,0.060000,0.015000*
%
%AMD245*
4,1,8,-0.063100,0.029500,-0.063100,-0.029500,-0.029500,-0.063100,0.029500,-0.063100,0.063100,-0.029500,0.063100,0.029500,0.029500,0.063100,-0.029500,0.063100,-0.063100,0.029500,0.0*
1,1,0.067056,-0.029500,0.029500*
1,1,0.067056,-0.029500,-0.029500*
1,1,0.067056,0.029500,-0.029500*
1,1,0.067056,0.029500,0.029500*
%
%AMD283*
4,1,4,-0.027900,0.000000,0.000000,-0.027900,0.027900,0.000000,0.000000,0.027900,-0.027900,0.000000,0.0*
%
%AMD284*
4,1,4,0.000000,-0.027900,0.027900,0.000000,0.000000,0.027900,-0.027900,0.000000,0.000000,-0.027900,0.0*
%
%AMD285*
4,1,4,0.000000,0.027900,-0.027900,0.000000,0.000000,-0.027900,0.027900,0.000000,0.000000,0.027900,0.0*
%
%AMD286*
4,1,4,-0.027900,0.000000,0.000000,-0.027900,0.027900,0.000000,0.000000,0.027900,-0.027900,0.000000,0.0*
%
%AMD290*
4,1,4,-0.047300,0.002800,0.002800,-0.047300,0.047300,-0.002800,-0.002800,0.047300,-0.047300,0.002800,0.0*
%
%AMD300*
4,1,4,0.048700,0.112800,-0.112800,-0.048700,-0.048700,-0.112800,0.112800,0.048700,0.048700,0.112800,0.0*
%
%AMD302*
4,1,4,0.001400,-0.020900,0.020900,-0.001400,-0.001400,0.020900,-0.020900,0.001400,0.001400,-0.020900,0.0*
%
%AMD303*
4,1,4,0.020900,0.001400,0.001400,0.020900,-0.020900,-0.001400,-0.001400,-0.020900,0.020900,0.001400,0.0*
%
%AMD306*
4,1,4,-0.019500,0.000000,0.000000,-0.019500,0.019500,0.000000,0.000000,0.019500,-0.019500,0.000000,0.0*
%
%AMD307*
4,1,4,0.000000,0.019500,-0.019500,0.000000,0.000000,-0.019500,0.019500,0.000000,0.000000,0.019500,0.0*
%
%ADD12R,0.013000X0.100000*%
%ADD22R,0.055000X0.032000*%
%ADD23R,0.050000X0.012000*%
%ADD24R,0.012000X0.050000*%
%ADD25R,0.220000X0.220000*%
G04~CAMADD=26~9~0.0~0.0~110.0~580.0~0.0~0.0~0~0.0~0.0~0.0~0.0~0~0.0~0.0~0.0~0.0~0~0.0~0.0~0.0~135.0~488.0~487.0*
%ADD26D26*%
G04~CAMADD=27~9~0.0~0.0~110.0~580.0~0.0~0.0~0~0.0~0.0~0.0~0.0~0~0.0~0.0~0.0~0.0~0~0.0~0.0~0.0~225.0~488.0~487.0*
%ADD27D27*%
%ADD29R,0.059000X0.044000*%
%ADD30R,0.044000X0.059000*%
%ADD33R,0.044000X0.071000*%
%ADD45R,0.041559X0.132000*%
%ADD48R,0.031748X0.021654*%
%ADD49R,0.016000X0.071000*%
%ADD50R,0.071000X0.016000*%
%ADD51R,0.035000X0.016000*%
%ADD52R,0.052000X0.022000*%
%ADD54R,0.037000X0.046000*%
%ADD55R,0.021000X0.046000*%
%ADD57R,0.072000X0.101000*%
%ADD60R,0.040000X0.022000*%
%ADD61R,0.022000X0.040000*%
G04~CAMADD=62~9~0.0~0.0~437.5~157.8~0.0~0.0~0~0.0~0.0~0.0~0.0~0~0.0~0.0~0.0~0.0~0~0.0~0.0~0.0~315.0~418.0~417.0*
%ADD62D62*%
%ADD63R,0.044000X0.107000*%
%ADD68R,0.011811X0.027654*%
%ADD69R,0.015748X0.027654*%
%ADD76R,0.066000X0.014000*%
%ADD78R,0.046000X0.014000*%
%ADD80R,0.022000X0.078000*%
%ADD81R,0.070000X0.050000*%
%ADD140C,0.060000*%
%ADD143C,0.050000*%
%ADD214R,0.025716X0.023748*%
%ADD215R,0.067055X0.059181*%
%ADD216R,0.059181X0.067055*%
%ADD217R,0.043433X0.045402*%
%ADD218R,0.043433X0.045402*%
%ADD220R,0.021748X0.041528*%
%ADD221R,0.031622X0.027685*%
%ADD222R,0.027685X0.031622*%
%ADD223R,0.039496X0.039496*%
%ADD224R,0.027685X0.027685*%
%ADD225R,0.027685X0.027685*%
%ADD226C,0.204850*%
%ADD227O,0.165480X0.204850*%
%ADD228R,0.086740X0.070992*%
%ADD229O,0.086740X0.070992*%
%ADD230R,0.070992X0.086740*%
%ADD231O,0.070992X0.086740*%
%ADD232C,0.077000*%
%ADD233R,0.074929X0.074929*%
%ADD234C,0.074929*%
%ADD235C,0.165480*%
%ADD236C,0.157606*%
%ADD237C,0.070992*%
%ADD238R,0.070992X0.070992*%
%ADD239C,0.063118*%
%ADD240R,0.063118X0.063118*%
%ADD241C,0.086740*%
G04~CAMADD=242~8~0.0~0.0~680.0~1580.0~190.0~0.0~15~0.0~0.0~0.0~0.0~0~0.0~0.0~0.0~0.0~0~0.0~0.0~0.0~90.0~1580.0~680.0*
%ADD242D242*%
%ADD243C,0.106425*%
%ADD244O,0.106425X0.110362*%
G04~CAMADD=245~8~0.0~0.0~1261.1~1261.1~335.3~0.0~15~0.0~0.0~0.0~0.0~0~0.0~0.0~0.0~0.0~0~0.0~0.0~0.0~90.0~1262.0~1262.0*
%ADD245D245*%
%ADD246C,0.043433*%
%ADD247O,0.106425X0.055244*%
%ADD248R,0.106425X0.055244*%
%ADD249C,0.037402*%
%ADD250R,0.098000X0.098000*%
%ADD251C,0.098000*%
%ADD252C,0.055244*%
%ADD253C,0.094614*%
%ADD254C,0.078866*%
%ADD255C,0.114299*%
%ADD256C,0.059181*%
%ADD257C,0.135953*%
%ADD258C,0.070000*%
%ADD259C,0.068000*%
%ADD260C,0.126110*%
%ADD261C,0.124000*%
%ADD262C,0.126110*%
%ADD263O,0.137921X0.165480*%
%ADD264C,0.068000*%
%ADD265C,0.244220*%
%ADD266C,0.291465*%
%ADD267C,0.480441*%
%ADD278R,0.048000X0.108000*%
%ADD279R,0.108000X0.108000*%
%ADD280R,0.098000X0.143000*%
%ADD281R,0.039496X0.039496*%
%ADD282R,0.039496X0.039496*%
G04~CAMADD=283~9~0.0~0.0~395.0~395.0~0.0~0.0~0~0.0~0.0~0.0~0.0~0~0.0~0.0~0.0~0.0~0~0.0~0.0~0.0~135.0~558.0~557.0*
%ADD283D283*%
G04~CAMADD=284~10~0.0~395.0~0.0~0.0~0.0~0.0~0~0.0~0.0~0.0~0.0~0~0.0~0.0~0.0~0.0~0~0.0~0.0~0.0~225.0~395.0~0.0*
%ADD284D284*%
G04~CAMADD=285~9~0.0~0.0~395.0~395.0~0.0~0.0~0~0.0~0.0~0.0~0.0~0~0.0~0.0~0.0~0.0~0~0.0~0.0~0.0~45.0~558.0~557.0*
%ADD285D285*%
G04~CAMADD=286~10~0.0~395.0~0.0~0.0~0.0~0.0~0~0.0~0.0~0.0~0.0~0~0.0~0.0~0.0~0.0~0~0.0~0.0~0.0~135.0~395.0~0.0*
%ADD286D286*%
%ADD287R,0.039496X0.039496*%
%ADD288R,0.082803X0.033591*%
%ADD289R,0.069024X0.126110*%
G04~CAMADD=290~9~0.0~0.0~709.9~631.2~0.0~0.0~0~0.0~0.0~0.0~0.0~0~0.0~0.0~0.0~0.0~0~0.0~0.0~0.0~135.0~946.0~945.0*
%ADD290D290*%
%ADD291R,0.051307X0.055244*%
%ADD292R,0.055244X0.051307*%
%ADD293R,0.055244X0.030835*%
%ADD294R,0.043433X0.035559*%
%ADD295R,0.035559X0.043433*%
%ADD296C,0.120000*%
%ADD297R,0.067000X0.047000*%
%ADD298R,0.058000X0.165480*%
%ADD299R,0.023748X0.070992*%
G04~CAMADD=300~9~0.0~0.0~2284.7~906.8~0.0~0.0~0~0.0~0.0~0.0~0.0~0~0.0~0.0~0.0~0.0~0~0.0~0.0~0.0~45.0~2256.0~2255.0*
%ADD300D300*%
%ADD301R,0.041528X0.021748*%
G04~CAMADD=302~9~0.0~0.0~276.9~316.2~0.0~0.0~0~0.0~0.0~0.0~0.0~0~0.0~0.0~0.0~0.0~0~0.0~0.0~0.0~225.0~418.0~417.0*
%ADD302D302*%
G04~CAMADD=303~9~0.0~0.0~276.9~316.2~0.0~0.0~0~0.0~0.0~0.0~0.0~0~0.0~0.0~0.0~0.0~0~0.0~0.0~0.0~315.0~418.0~417.0*
%ADD303D303*%
%ADD304R,0.078866X0.098551*%
%ADD305R,0.059181X0.043433*%
G04~CAMADD=306~10~0.0~276.9~0.0~0.0~0.0~0.0~0~0.0~0.0~0.0~0.0~0~0.0~0.0~0.0~0.0~0~0.0~0.0~0.0~135.0~276.9~0.0*
%ADD306D306*%
G04~CAMADD=307~10~0.0~276.9~0.0~0.0~0.0~0.0~0~0.0~0.0~0.0~0.0~0~0.0~0.0~0.0~0.0~0~0.0~0.0~0.0~405.0~276.9~0.0*
%ADD307D307*%
%ADD308R,0.013811X0.122000*%
%ADD309R,0.137921X0.106425*%
%LNsyncbox_soldermask_top-1*%
%LPD*%
G36*
X03957Y00716D02*
X03941D01*
Y00741*
X03957*
Y00716*
G37*
G36*
X03937D02*
X03921D01*
Y00741*
X03937*
Y00716*
G37*
G36*
X03917D02*
X03902D01*
Y00741*
X03917*
Y00716*
G37*
G36*
X03898D02*
X03882D01*
Y00741*
X03898*
Y00716*
G37*
G36*
X03878D02*
X03862D01*
Y00741*
X03878*
Y00716*
G37*
G36*
X03957Y00684D02*
X03941D01*
Y00709*
X03957*
Y00684*
G37*
G36*
X03937D02*
X03921D01*
Y00709*
X03937*
Y00684*
G37*
G36*
X03917D02*
X03902D01*
Y00709*
X03917*
Y00684*
G37*
G36*
X03898D02*
X03882D01*
Y00709*
X03898*
Y00684*
G37*
G36*
X03878D02*
X03862D01*
Y00709*
X03878*
Y00684*
G37*
G36*
X04101Y00717D02*
X04086D01*
Y00742*
X04101*
Y00717*
G37*
G36*
X04082D02*
X04066D01*
Y00742*
X04082*
Y00717*
G37*
G36*
X04062D02*
X04046D01*
Y00742*
X04062*
Y00717*
G37*
G36*
X04042D02*
X04027D01*
Y00742*
X04042*
Y00717*
G37*
G36*
X04023D02*
X04007D01*
Y00742*
X04023*
Y00717*
G37*
G36*
X04101Y00684D02*
X04086D01*
Y0071*
X04101*
Y00684*
G37*
G36*
X04082D02*
X04066D01*
Y0071*
X04082*
Y00684*
G37*
G36*
X04062D02*
X04046D01*
Y0071*
X04062*
Y00684*
G37*
G36*
X04042D02*
X04027D01*
Y0071*
X04042*
Y00684*
G37*
G36*
X04023D02*
X04007D01*
Y0071*
X04023*
Y00684*
G37*
G54D12*
X04182Y02235D03*
X04162D03*
X04143D03*
X04123D03*
X04103D03*
X04084D03*
X04064D03*
X04044D03*
X04025D03*
X04005D03*
X03985D03*
X03966D03*
X03946D03*
X03926D03*
X03907D03*
X03887D03*
X03867D03*
X03848D03*
X03828D03*
X03808D03*
X03788D03*
X03769D03*
X03749D03*
X03729D03*
X0371D03*
X0369D03*
X0367D03*
X03651D03*
X03631D03*
X03611D03*
X03592D03*
X03572D03*
X03552D03*
X03533D03*
X03513D03*
X03493D03*
X03474D03*
X03454D03*
X03434D03*
X03414D03*
X03395D03*
X03375D03*
X03355D03*
X03336D03*
X03316D03*
X03296D03*
X03277D03*
X03257D03*
X03237D03*
X03218D03*
X03198D03*
X03178D03*
X03159D03*
X03139D03*
X03119D03*
X03099D03*
X0308D03*
X0306D03*
X0304D03*
X03021D03*
X03001D03*
X02981D03*
X02962D03*
X02942D03*
X02922D03*
X02903D03*
X02883D03*
X02863D03*
X02844D03*
X02824D03*
X02804D03*
X02785D03*
X02765D03*
X02745D03*
X02725D03*
X02706D03*
X02686D03*
X02666D03*
X02647D03*
X02627D03*
X02607D03*
X02588D03*
X02568D03*
X02548D03*
X02529D03*
X02509D03*
X02489D03*
X0247D03*
X0245D03*
X0243D03*
X02411D03*
X02391D03*
X02371D03*
X02351D03*
X02332D03*
X02312D03*
X02292D03*
X02273D03*
X02253D03*
X02233D03*
X02214D03*
X02194D03*
X02174D03*
X02155D03*
X02135D03*
X02115D03*
X02096D03*
X02076D03*
X02056D03*
X02037D03*
X04182Y02484D03*
X04162D03*
X04143D03*
X04123D03*
X04103D03*
X04084D03*
X04064D03*
X04044D03*
X04025D03*
X04005D03*
X03985D03*
X03966D03*
X03946D03*
X03926D03*
X03907D03*
X03887D03*
X03867D03*
X03848D03*
X03828D03*
X03808D03*
X03788D03*
X03769D03*
X03749D03*
X03729D03*
X0371D03*
X0369D03*
X0367D03*
X03651D03*
X03631D03*
X03611D03*
X03592D03*
X03572D03*
X03552D03*
X03533D03*
X03513D03*
X03493D03*
X03474D03*
X03454D03*
X03434D03*
X03414D03*
X03395D03*
X03375D03*
X03355D03*
X03336D03*
X03316D03*
X03296D03*
X03277D03*
X03257D03*
X03237D03*
X03218D03*
X03198D03*
X03178D03*
X03159D03*
X03139D03*
X03119D03*
X03099D03*
X0308D03*
X0306D03*
X0304D03*
X03021D03*
X03001D03*
X02981D03*
X02962D03*
X02942D03*
X02922D03*
X02903D03*
X02883D03*
X02863D03*
X02844D03*
X02824D03*
X02804D03*
X02785D03*
X02765D03*
X02745D03*
X02725D03*
X02706D03*
X02686D03*
X02666D03*
X02647D03*
X02627D03*
X02607D03*
X02588D03*
X02568D03*
X02548D03*
X02529D03*
X02509D03*
X02489D03*
X0247D03*
X0245D03*
X0243D03*
X02411D03*
X02391D03*
X02371D03*
X02351D03*
X02332D03*
X02312D03*
X02292D03*
X02273D03*
X02253D03*
X02233D03*
X02214D03*
X02194D03*
X02174D03*
X02155D03*
X02135D03*
X02115D03*
X02096D03*
X02076D03*
X02056D03*
X02037D03*
G54D22*
X0431Y01362D03*
Y01431D03*
X04311Y01496D03*
Y01565D03*
G54D23*
X03855Y01153D03*
Y01133D03*
Y01113D03*
Y01094D03*
Y01074D03*
Y01054D03*
Y01035D03*
Y01015D03*
Y00995D03*
Y00976D03*
Y00956D03*
Y00936D03*
X04145D03*
Y00956D03*
Y00976D03*
Y00995D03*
Y01015D03*
Y01035D03*
Y01054D03*
Y01074D03*
Y01094D03*
Y01113D03*
Y01133D03*
Y01153D03*
G54D24*
X03891Y009D03*
X03911D03*
X03931D03*
X0395D03*
X0397D03*
X0399D03*
X04009D03*
X04029D03*
X04049D03*
X04068D03*
X04088D03*
X04108D03*
Y0119D03*
X04088D03*
X04068D03*
X04049D03*
X04029D03*
X04009D03*
X0399D03*
X0397D03*
X0395D03*
X03931D03*
X03911D03*
X03891D03*
G54D25*
X04Y01045D03*
G54D26*
X06635Y02539D03*
X06649Y02525D03*
X06662Y02511D03*
X06676Y02497D03*
X0669Y02483D03*
X06704Y02469D03*
X06718Y02455D03*
X06732Y02441D03*
X06746Y02427D03*
X0676Y02413D03*
X06774Y02399D03*
X06788Y02386D03*
X06802Y02372D03*
X06816Y02358D03*
X06829Y02344D03*
X06843Y0233D03*
X06857Y02316D03*
X06871Y02302D03*
X06885Y02288D03*
X06899Y02274D03*
X06913Y0226D03*
X06927Y02246D03*
X06941Y02232D03*
X06955Y02219D03*
X06969Y02205D03*
X06544Y0178D03*
X0653Y01794D03*
X06517Y01808D03*
X06503Y01822D03*
X06489Y01836D03*
X06475Y0185D03*
X06461Y01864D03*
X06447Y01878D03*
X06433Y01892D03*
X06419Y01906D03*
X06405Y0192D03*
X06391Y01933D03*
X06377Y01947D03*
X06363Y01961D03*
X0635Y01975D03*
X06336Y01989D03*
X06322Y02003D03*
X06308Y02017D03*
X06294Y02031D03*
X0628Y02045D03*
X06266Y02059D03*
X06252Y02073D03*
X06238Y02087D03*
X06224Y021D03*
X0621Y02114D03*
G54D27*
X06969Y02114D03*
X06955Y021D03*
X06941Y02087D03*
X06927Y02073D03*
X06913Y02059D03*
X06899Y02045D03*
X06885Y02031D03*
X06871Y02017D03*
X06857Y02003D03*
X06843Y01989D03*
X06829Y01975D03*
X06816Y01961D03*
X06802Y01947D03*
X06788Y01933D03*
X06774Y0192D03*
X0676Y01906D03*
X06746Y01892D03*
X06732Y01878D03*
X06718Y01864D03*
X06704Y0185D03*
X0669Y01836D03*
X06676Y01822D03*
X06662Y01808D03*
X06649Y01794D03*
X06635Y0178D03*
X0621Y02205D03*
X06224Y02219D03*
X06238Y02232D03*
X06252Y02246D03*
X06266Y0226D03*
X0628Y02274D03*
X06294Y02288D03*
X06308Y02302D03*
X06322Y02316D03*
X06336Y0233D03*
X0635Y02344D03*
X06363Y02358D03*
X06377Y02372D03*
X06391Y02386D03*
X06405Y02399D03*
X06419Y02413D03*
X06433Y02427D03*
X06447Y02441D03*
X06461Y02455D03*
X06475Y02469D03*
X06489Y02483D03*
X06503Y02497D03*
X06517Y02511D03*
X0653Y02525D03*
X06544Y02539D03*
G54D29*
X03754Y00725D03*
Y0066D03*
G54D30*
X03927Y026D03*
X03992D03*
G54D33*
X03729Y0127D03*
X03611D03*
X05949Y0317D03*
X05831D03*
G54D45*
X04084Y05384D03*
X04139D03*
X05188Y04972D03*
X05133D03*
G54D48*
X06055Y052D03*
X05924D03*
X06688Y0518D03*
X06557D03*
G54D49*
X07845Y0048D03*
X07979D03*
X02635Y05305D03*
X02769D03*
G54D50*
X01255Y05403D03*
Y05537D03*
X0262Y05038D03*
Y05172D03*
X02725Y05038D03*
Y05172D03*
X02825Y05038D03*
Y05172D03*
X03505Y01063D03*
Y01197D03*
G54D51*
X04084Y01409D03*
Y01476D03*
X04028Y01409D03*
Y01476D03*
X03971Y01409D03*
Y01476D03*
X03914Y01409D03*
Y01476D03*
X03858Y01409D03*
Y01476D03*
X03801Y01409D03*
Y01476D03*
X03744Y01409D03*
Y01476D03*
X03688Y01409D03*
Y01476D03*
G54D52*
X07327Y00707D03*
Y0067D03*
Y00632D03*
X07233D03*
Y0067D03*
Y00707D03*
G54D54*
X02366Y00732D03*
G54D55*
X023Y00732D03*
Y00652D03*
X02374D03*
G54D57*
X0329Y01614D03*
Y01415D03*
X0305Y01619D03*
Y0142D03*
X01995Y01482D03*
Y01283D03*
X02175Y01177D03*
Y00978D03*
G54D60*
X04863Y02845D03*
Y02928D03*
X04767Y02887D03*
X05118Y03163D03*
Y03246D03*
X05022Y03205D03*
X049Y03152D03*
Y03235D03*
X04804Y03193D03*
X05946Y03353D03*
Y03436D03*
X0585Y03395D03*
X05953Y03528D03*
Y03611D03*
X05857Y0357D03*
X05953Y03693D03*
Y03776D03*
X05857Y03735D03*
X05303Y03168D03*
Y03251D03*
X05207Y0321D03*
G54D61*
X05232Y0391D03*
X0515D03*
X05191Y03814D03*
G54D62*
X07287Y00962D03*
X07222Y01027D03*
G54D63*
X01153Y0542D03*
X01035D03*
X01154Y0529D03*
X01036D03*
X01155Y0516D03*
X01037D03*
X01154Y04715D03*
X01036D03*
X01154Y04845D03*
X01036D03*
X01154Y04975D03*
X01036D03*
G54D68*
X04094Y00694D03*
X04074D03*
X04035D03*
X04015D03*
Y00733D03*
X04035D03*
X04074D03*
X04094D03*
X0387Y00732D03*
X0389D03*
X03929D03*
X03949D03*
Y00693D03*
X03929D03*
X0389D03*
X0387D03*
G54D69*
X04054Y00694D03*
Y00733D03*
X0391Y00732D03*
Y00693D03*
G54D76*
X04949Y0369D03*
Y03664D03*
Y03638D03*
Y03613D03*
Y03587D03*
Y03562D03*
Y03536D03*
Y03511D03*
Y03485D03*
Y03459D03*
X05171D03*
Y03485D03*
Y03511D03*
Y03536D03*
Y03562D03*
Y03587D03*
Y03613D03*
Y03638D03*
Y03664D03*
Y0369D03*
G54D78*
X01028Y02244D03*
Y0227D03*
Y02295D03*
X00952D03*
Y02244D03*
G54D80*
X05055Y05628D03*
X05105D03*
X05155D03*
X05205D03*
Y05822D03*
X05155D03*
X05105D03*
X05055D03*
G54D81*
X03725Y04977D03*
Y04865D03*
X04205Y04971D03*
Y04859D03*
G54D140*
X06071Y0186D03*
X06Y0193D03*
X0593Y02001D03*
X05859Y02072D03*
X05788Y02142D03*
X06Y01789D03*
X0593Y0186D03*
X05859Y0193D03*
X05788Y02001D03*
X05717Y02072D03*
G54D143*
X0588Y05325D03*
Y05525D03*
Y05625D03*
Y05725D03*
X0608D03*
Y05625D03*
Y05525D03*
Y05325D03*
X0652Y0532D03*
Y0552D03*
Y0562D03*
Y0572D03*
X0672D03*
Y0562D03*
Y0552D03*
Y0532D03*
G54D214*
X0288Y00746D03*
Y00715D03*
X02838Y0073D03*
X02744Y00715D03*
Y00746D03*
X02785Y00731D03*
X03113Y00734D03*
Y00765D03*
X03155Y0075D03*
G54D215*
X0758Y05665D03*
Y05565D03*
X07935Y05665D03*
Y05565D03*
X07315Y04885D03*
Y04785D03*
X0767Y04885D03*
Y04785D03*
G54D216*
X07335Y05325D03*
X07435D03*
X07335Y05679D03*
X07435D03*
G54D217*
X0399Y05569D03*
X03953Y05471D03*
X04478Y05309D03*
X0444Y0521D03*
G54D218*
X04028Y05471D03*
X04515Y0521D03*
G54D220*
X03066Y00959D03*
X03035D03*
X03066Y0088D03*
X03035D03*
X0267Y00959D03*
X02639D03*
X0267Y0088D03*
X02639D03*
X02875Y00959D03*
X02843D03*
X02875Y0088D03*
X02843D03*
G54D221*
X04253Y01125D03*
Y01086D03*
X03706Y0094D03*
Y00979D03*
X0377Y00941D03*
Y0098D03*
X04704Y02886D03*
Y02847D03*
X03526Y04498D03*
Y04459D03*
X03975Y05784D03*
Y05745D03*
X0404Y05784D03*
Y05745D03*
X07335Y05254D03*
Y05215D03*
Y05784D03*
Y05745D03*
X0437Y05784D03*
Y05745D03*
X0758Y0574D03*
Y05779D03*
X0444Y05784D03*
Y05745D03*
X06275Y05369D03*
Y0533D03*
X0643Y0518D03*
Y05219D03*
X0472Y0578D03*
Y05819D03*
X06358Y03922D03*
Y03961D03*
X06146Y03916D03*
Y03955D03*
X0483Y0578D03*
Y05819D03*
X0305Y0575D03*
Y05789D03*
X03165D03*
Y0575D03*
X0264D03*
Y05789D03*
X02775D03*
Y0575D03*
X00855Y02295D03*
Y02334D03*
X01495Y01282D03*
Y01242D03*
X01345Y01282D03*
Y01242D03*
X0119Y01282D03*
Y01242D03*
X01045Y01282D03*
Y01243D03*
X02065Y05444D03*
Y05405D03*
G54D222*
X05427Y04031D03*
X05466D03*
X05423Y04231D03*
X05462D03*
X03552Y04626D03*
X03513D03*
X0797Y0574D03*
X0793D03*
X05621Y05357D03*
X0566D03*
X07319Y0466D03*
X0728D03*
X05839Y052D03*
X058D03*
X05735Y0552D03*
X05774D03*
X0637Y05515D03*
X06409D03*
X05735Y05715D03*
X05775D03*
X0637Y0572D03*
X06409D03*
X0748Y0495D03*
X0752D03*
X07119Y02465D03*
X0708D03*
X02845Y0484D03*
X02885D03*
X04258Y00961D03*
X04219D03*
X04258Y01016D03*
X04219D03*
G54D223*
X02944Y0478D03*
X02025Y0534D03*
X0348Y01255D03*
X0354D03*
G54D224*
X04775Y05819D03*
Y0578D03*
X00895Y055D03*
Y05539D03*
X03565Y04905D03*
Y04865D03*
X0294Y0575D03*
Y05789D03*
X02525Y0575D03*
Y05789D03*
X04045Y04885D03*
Y04845D03*
X01675Y01417D03*
Y01377D03*
X0163Y00707D03*
Y00747D03*
X0305Y0179D03*
Y01829D03*
X017Y01093D03*
Y01132D03*
X0367Y01084D03*
Y01045D03*
X03783Y01182D03*
Y01143D03*
X03731Y0118D03*
Y01141D03*
X0231Y01985D03*
Y02024D03*
X01495Y01322D03*
Y01362D03*
X01345Y01327D03*
Y01367D03*
X0119Y01328D03*
Y01367D03*
X01045Y01327D03*
Y01367D03*
G54D225*
X0484Y01754D03*
X04879D03*
X04807Y01804D03*
X04846D03*
X0471D03*
X04749D03*
X04768Y022D03*
X04729D03*
X0471Y01753D03*
X04749D03*
X05655Y00736D03*
X05616D03*
X05617Y00793D03*
X05656D03*
X05552D03*
X05513D03*
X05558Y01186D03*
X05519D03*
X05515Y0074D03*
X05554D03*
X06059Y00726D03*
X06098D03*
X06099Y00789D03*
X0606D03*
X05942Y00791D03*
X05981D03*
X05944Y01188D03*
X05983D03*
Y00731D03*
X05944D03*
X07401Y0218D03*
X0744D03*
X07441Y02322D03*
X07402D03*
X0511Y05535D03*
X05149D03*
X07365Y0079D03*
X07325D03*
X04175Y00814D03*
X04214D03*
X04174Y00865D03*
X04213D03*
X03375Y00537D03*
X03415D03*
G54D226*
X01215Y05709D03*
Y05965D03*
G54D227*
X01029Y05827D03*
G54D228*
X0633Y01321D03*
X06549Y01319D03*
X05814Y04231D03*
X05593D03*
X0795Y04915D03*
X08055D03*
X07Y0502D03*
X04697Y00996D03*
X05222Y01771D03*
X05093Y01774D03*
X04548Y00994D03*
X0505Y01111D03*
X04694Y01129D03*
X04547Y01132D03*
X04903Y01008D03*
X05242Y01618D03*
X05104Y01617D03*
X0583Y01272D03*
X0569Y01273D03*
X05048Y01223D03*
X04903Y01325D03*
X068Y04985D03*
G54D229*
X0633Y01221D03*
Y01121D03*
X06549Y01219D03*
Y01119D03*
X05814Y04131D03*
Y04031D03*
X05593Y04131D03*
Y04031D03*
X0795Y04815D03*
Y04715D03*
X08055Y04815D03*
Y04715D03*
X07Y0492D03*
Y0482D03*
X04697Y00896D03*
X05222Y01871D03*
X05093Y01874D03*
X04548Y00894D03*
X0505Y01011D03*
X04694Y01229D03*
X04547Y01232D03*
X04903Y01108D03*
X05242Y01518D03*
X05104Y01517D03*
X0583Y01372D03*
X0569Y01373D03*
X05048Y01323D03*
X04903Y01225D03*
X068Y04885D03*
G54D230*
X06136Y04092D03*
X0718Y0455D03*
G54D231*
X06236Y04092D03*
X06336D03*
X0728Y0455D03*
X0738D03*
G54D232*
X01973Y02359D03*
X04245D03*
G54D233*
X0553Y0373D03*
G54D234*
X0553Y0363D03*
Y0353D03*
Y0343D03*
Y0333D03*
X0563Y0373D03*
Y0363D03*
Y0353D03*
Y0343D03*
Y0333D03*
G54D235*
X0531Y0603D03*
X0511D03*
X0491D03*
X04494Y00178D03*
X05473Y0018D03*
X04493Y00493D03*
X05472Y00491D03*
X058Y00178D03*
X06779Y0018D03*
X05799Y00493D03*
X06778Y00491D03*
G54D236*
X07285Y00295D03*
X07759D03*
G54D237*
X07472Y00401D03*
X07571D03*
X07472Y0048D03*
G54D238*
X07571Y0048D03*
G54D239*
X03725Y05145D03*
X03646D03*
X03567D03*
X04205Y0512D03*
X04126D03*
X04047D03*
G54D240*
X03488Y05145D03*
X03968Y0512D03*
G54D241*
X00915Y02611D03*
Y03917D03*
X0504Y00445D03*
X04931D03*
X04822D03*
X05204Y00295D03*
X05094D03*
X04985D03*
X04876D03*
X04767D03*
X05149Y00183D03*
X0504D03*
X04931D03*
X04822D03*
X05204Y00557D03*
X05095D03*
X04985D03*
X04876D03*
X04767Y00556D03*
X05149Y00445D03*
X06346D03*
X06237D03*
X06128D03*
X0651Y00295D03*
X064D03*
X06291D03*
X06182D03*
X06073D03*
X06455Y00183D03*
X06346D03*
X06237D03*
X06128D03*
X0651Y00557D03*
X06401D03*
X06291D03*
X06182D03*
X06073Y00556D03*
X06455Y00445D03*
X04796Y0256D03*
X05584D03*
G54D242*
X00946Y02527D03*
X00944Y04D03*
G54D243*
X0219Y05605D03*
X01915D03*
X03911Y0603D03*
X04108D03*
X04305D03*
X04501D03*
G54D244*
X03714Y0603D03*
G54D245*
X02616Y00489D03*
X02611Y00266D03*
X03134Y00489D03*
Y00266D03*
G54D246*
X03013Y00345D03*
X02915D03*
X02836D03*
X02737D03*
X02718Y00404D03*
X02796D03*
X02875D03*
X02954D03*
X03033D03*
Y0053D03*
X02954D03*
X02875D03*
X02796D03*
X02718D03*
X02737Y0047D03*
X02836D03*
X02915D03*
X03013D03*
G54D247*
X0656Y0499D03*
Y0489D03*
Y0479D03*
G54D248*
X0656Y0469D03*
G54D249*
X074Y02273D03*
Y0223D03*
G54D250*
X05733Y06035D03*
G54D251*
X05932Y06035D03*
X06132D03*
X06331D03*
X0653D03*
X0673D03*
X06929D03*
X07128D03*
X07327D03*
X07527D03*
X07726D03*
X07925D03*
G54D252*
X07241Y0262D03*
X07399D03*
X03758Y04507D03*
X03915D03*
G54D253*
X02782Y05985D03*
X02507D03*
X02922D03*
X03197D03*
G54D254*
X02733Y06084D03*
X02556D03*
X02971D03*
X03148D03*
G54D255*
X00975Y00272D03*
X01615D03*
G54D256*
X01435Y00237D03*
X01395Y00307D03*
X01355Y00237D03*
X01315Y00307D03*
X01275Y00237D03*
X01235Y00307D03*
X01195Y00237D03*
X01155Y00307D03*
G54D257*
X01045Y00137D03*
X01545D03*
G54D258*
X01475Y00497D03*
X01565D03*
X01115D03*
X01025D03*
G54D259*
X02273Y00397D03*
X01997Y005D03*
X02096D03*
X02175D03*
X02273D03*
X02175Y00397D03*
X02096D03*
X01997D03*
G54D260*
X02394Y0029D03*
X01876D03*
X02394Y00514D03*
X01876D03*
G54D261*
X02381Y0538D03*
X01155Y0454D03*
X0302Y0504D03*
X01595Y0542D03*
G54D262*
X04149Y00224D03*
X03578D03*
G54D263*
X03578Y00459D03*
X04149D03*
G54D264*
X0206Y01417D03*
X0421Y0259D03*
X0142Y0535D03*
G54D265*
X01492Y0413D03*
X04483Y04125D03*
X01493Y02277D03*
X04481Y02276D03*
G54D266*
X07798Y04488D03*
Y01663D03*
X00632D03*
Y04488D03*
G54D267*
X07727Y00936D03*
Y05215D03*
X00703Y00936D03*
Y05215D03*
G54D278*
X04337Y0236D03*
G54D279*
X0188Y0236D03*
G54D280*
X01267Y05235D03*
X01503D03*
Y04855D03*
X01267D03*
G54D281*
X00772Y02319D03*
G54D282*
X00772Y0226D03*
G54D283*
X06085Y0265D03*
X06133Y02696D03*
X06225Y02785D03*
X0618Y0274D03*
X07468Y01913D03*
X07518Y01964D03*
G54D284*
X06126Y02608D03*
X06175Y02655D03*
X06266Y02743D03*
X06221Y02698D03*
X07426Y01954D03*
X07477Y02006D03*
G54D285*
X0599Y02475D03*
X06021Y02441D03*
G54D286*
X05948Y02433D03*
X0598Y024D03*
G54D287*
X02885Y0478D03*
X01965Y0534D03*
G54D288*
X0104Y0264D03*
Y0269D03*
Y0274D03*
Y0279D03*
Y0284D03*
Y0289D03*
Y0294D03*
Y0299D03*
Y0304D03*
Y0309D03*
Y0314D03*
Y0319D03*
Y0324D03*
Y0329D03*
Y0334D03*
Y03589D03*
Y03639D03*
Y03689D03*
Y03739D03*
Y03789D03*
Y03839D03*
Y03889D03*
G54D289*
X0085Y0583D03*
Y05979D03*
G54D290*
X0544Y02025D03*
X05612Y01852D03*
X05356Y01941D03*
X05529Y01768D03*
G54D291*
X01136Y05535D03*
X01013D03*
G54D292*
X01715Y00747D03*
Y00869D03*
X018Y01401D03*
Y01278D03*
G54D293*
X01995Y00982D03*
Y01032D03*
Y01082D03*
Y01132D03*
X01774Y00982D03*
Y01032D03*
Y01082D03*
Y01132D03*
X01665Y05335D03*
Y05285D03*
Y05235D03*
Y05185D03*
X01885Y05335D03*
Y05285D03*
Y05235D03*
Y05185D03*
X01659Y0494D03*
Y0489D03*
Y0484D03*
Y0479D03*
X0188Y0494D03*
Y0489D03*
Y0484D03*
Y0479D03*
G54D294*
X05577Y05484D03*
X05502Y05458D03*
Y05509D03*
X03375Y04555D03*
X0345Y0458D03*
Y04529D03*
X06429Y05344D03*
X06355Y05318D03*
Y0537D03*
X07192Y02385D03*
X07117Y02359D03*
Y0241D03*
G54D295*
X02685Y04842D03*
X0271Y04767D03*
X02659D03*
X04205Y01433D03*
X0423Y01359D03*
X04179D03*
X04199Y01566D03*
X04225Y01491D03*
X04173D03*
G54D296*
X07095Y0217D03*
X01735Y01665D03*
X05745Y0451D03*
X01735D03*
G54D297*
X0142Y0554D03*
Y05419D03*
G54D298*
X05007Y04535D03*
X04928D03*
X0485D03*
X04771D03*
X04692D03*
X04613D03*
X04535D03*
G54D299*
X04727Y01866D03*
X04753D03*
X04779D03*
X04804D03*
X0483D03*
X04855D03*
X04881D03*
X04906D03*
X04932D03*
X04958D03*
X04727Y02123D03*
X04753D03*
X04779D03*
X04804D03*
X0483D03*
X04855D03*
X04881D03*
X04906D03*
X04932D03*
X04958D03*
X05513Y00865D03*
X05539D03*
X05564D03*
X0559D03*
X05616D03*
X05641D03*
X05667D03*
X05692D03*
X05718D03*
X05743D03*
X05513Y01122D03*
X05539D03*
X05564D03*
X0559D03*
X05616D03*
X05641D03*
X05667D03*
X05692D03*
X05718D03*
X05743D03*
X05942Y00866D03*
X05967D03*
X05993D03*
X06018D03*
X06044D03*
X0607D03*
X06095D03*
X06121D03*
X06146D03*
X06172D03*
X05942Y01124D03*
X05967D03*
X05993D03*
X06018D03*
X06044D03*
X0607D03*
X06095D03*
X06121D03*
X06146D03*
X06172D03*
G54D300*
X07302Y01778D03*
X07037Y01513D03*
G54D301*
X07105Y0045D03*
Y00419D03*
X07184Y0045D03*
Y00419D03*
G54D302*
X05648Y01767D03*
X05675Y01794D03*
X05735Y02221D03*
X05708Y02194D03*
X05918Y01568D03*
X05891Y01541D03*
G54D303*
X06218Y02521D03*
X06191Y02548D03*
X06258Y02561D03*
X06231Y02588D03*
X0605Y0235D03*
X06022Y02377D03*
X06085Y02385D03*
X06057Y02412D03*
X06338Y02641D03*
X06311Y02668D03*
X06298Y02601D03*
X06271Y02628D03*
X07351Y02024D03*
X07378Y01997D03*
X07409Y02076D03*
X07436Y02049D03*
G54D304*
X03395Y00396D03*
Y00242D03*
X0083Y00426D03*
Y00273D03*
G54D305*
X03635Y0494D03*
Y04865D03*
X04115Y04932D03*
Y04857D03*
G54D306*
X05311Y01996D03*
X05338Y02023D03*
X06865Y0172D03*
X06837Y01692D03*
X06969Y016D03*
X06996Y01627D03*
X07228Y01845D03*
X07201Y01818D03*
G54D307*
X06357Y02702D03*
X06385Y02675D03*
G54D308*
X03686Y00497D03*
X03706D03*
X03726D03*
X03745D03*
X03765D03*
X03785D03*
X03804D03*
X03824D03*
X03844D03*
X03864D03*
X03883D03*
X03903D03*
X03923D03*
X03942D03*
X03962D03*
X03982D03*
X04001D03*
X04021D03*
X04041D03*
G54D309*
X0064Y05708D03*
Y0598D03*
X03519Y00673D03*
Y00944D03*
M02*