  0
SECTION
  2
HEADER
  9
$ACADVER
  1
AC2.10
  9
$INSUNITS
 70
     1
  0
ENDSEC
  0
SECTION
  2
TABLES
  0
TABLE
  2
LAYER
 70
     8
  0
LAYER
  2
0
 62
     7
 70
0
  6
CONTINUOUS
  0
LAYER
  2
1
 62
     1
 70
0
  6
CONTINUOUS
  0
LAYER
  2
2
 62
     2
 70
0
  6
CONTINUOUS
  0
LAYER
  2
3
 62
     3
 70
0
  6
CONTINUOUS
  0
LAYER
  2
4
 62
     4
 70
0
  6
CONTINUOUS
  0
LAYER
  2
5
 62
     5
 70
0
  6
CONTINUOUS
  0
LAYER
  2
6
 62
     6
 70
0
  6
CONTINUOUS
  0
LAYER
  2
7
 62
     7
 70
0
  6
CONTINUOUS
  0
ENDTAB
  0
TABLE
  2
STYLE
 70
     1
  0
STYLE
 70
     0
  2
STANDARD
  3
TXT
 40
0.00
 41
1.00
 42
1.00
 50
0.00
 71
     0
  0
ENDTAB
  0
ENDSEC
  0
SECTION
  2
BLOCKS
  0
BLOCK
  8
0
  2
EPAD
 70
0
 10
0.0
 20
0.0
  0
POLYLINE
  8
0
 66
1
 70
1
 40
0.5
 41
0.5
  0
VERTEX
  8
0
 10
-0.25
 20
0.0
 42
1.0
  0
VERTEX
  8
0
 10
0.25
 20
0.0
 42
1.0
  0
SEQEND
  8
0
  0
ENDBLK
  8
0
  0
BLOCK
  8
0
  2
RPAD
 70
0
 10
0.0
 20
0.0
  0
TRACE
  8
0
 10
-0.5
 20
-0.5
 11
-0.5
 21
0.5
 12
0.5
 22
-0.5
 13
0.5
 23
0.5
  0
ENDBLK
  8
0
  0
ENDSEC
0
SECTION
2
ENTITIES
0
POLYLINE
8
0
66
1
40
0.010000
41
0.010000
0
VERTEX
8
0
10
-0.200000
20
0.000000
0
VERTEX
8
0
10
-0.375000
20
0.000000
0
VERTEX
8
0
10
-0.425000
20
-0.050000
0
VERTEX
8
0
10
-0.828000
20
-0.050000
0
VERTEX
8
0
10
-0.878000
20
0.000000
0
SEQEND
8
0
0
POLYLINE
8
0
66
1
40
0.010000
41
0.010000
0
VERTEX
8
0
10
-0.721000
20
0.000000
0
VERTEX
8
0
10
-0.596000
20
0.125000
0
VERTEX
8
0
10
0.069000
20
0.125000
0
VERTEX
8
0
10
0.194000
20
0.000000
0
SEQEND
8
0
0
POLYLINE
8
0
66
1
40
0.010000
41
0.010000
0
VERTEX
8
0
10
-0.800000
20
0.000000
0
VERTEX
8
0
10
-0.675000
20
0.125000
0
VERTEX
8
0
10
-0.128000
20
0.125000
0
VERTEX
8
0
10
-0.003000
20
0.000000
0
SEQEND
8
0
0
INSERT
8
0
2
EPAD
10
-0.200000
20
0.000000
41
0.150000
42
0.150000
0
CIRCLE
8
0
10
-0.200000
20
0.000000
40
0.030000
0
INSERT
8
0
2
EPAD
10
-0.003000
20
0.000000
41
0.150000
42
0.150000
0
CIRCLE
8
0
10
-0.003000
20
0.000000
40
0.030000
0
INSERT
8
0
2
EPAD
10
0.194000
20
0.000000
41
0.150000
42
0.150000
0
CIRCLE
8
0
10
0.194000
20
0.000000
40
0.030000
0
INSERT
8
0
2
EPAD
10
-1.150000
20
0.250000
41
0.200000
42
0.200000
0
CIRCLE
8
0
10
-1.150000
20
0.250000
40
0.120000
0
INSERT
8
0
2
EPAD
10
-1.150000
20
-0.250000
41
0.200000
42
0.200000
0
CIRCLE
8
0
10
-1.150000
20
-0.250000
40
0.120000
0
INSERT
8
0
2
EPAD
10
1.150000
20
0.250000
41
0.200000
42
0.200000
0
CIRCLE
8
0
10
1.150000
20
0.250000
40
0.120000
0
INSERT
8
0
2
EPAD
10
1.150000
20
-0.250000
41
0.200000
42
0.200000
0
CIRCLE
8
0
10
1.150000
20
-0.250000
40
0.120000
0
INSERT
8
0
2
EPAD
10
-0.878000
20
0.000000
41
0.055000
42
0.055000
0
INSERT
8
0
2
EPAD
10
-0.878000
20
0.000000
41
0.055000
42
0.055000
0
INSERT
8
0
2
EPAD
10
-0.800000
20
0.000000
41
0.055000
42
0.055000
0
INSERT
8
0
2
EPAD
10
-0.800000
20
0.000000
41
0.055000
42
0.055000
0
INSERT
8
0
2
EPAD
10
-0.721000
20
0.000000
41
0.055000
42
0.055000
0
INSERT
8
0
2
EPAD
10
-0.721000
20
0.000000
41
0.055000
42
0.055000
0
INSERT
8
0
2
EPAD
10
0.575000
20
0.000000
41
0.055000
42
0.055000
0
INSERT
8
0
2
EPAD
10
0.575000
20
0.000000
41
0.055000
42
0.055000
0
INSERT
8
0
2
EPAD
10
0.900000
20
0.000000
41
0.150000
42
0.150000
0
CIRCLE
8
0
10
0.900000
20
0.000000
40
0.030000
0
POLYLINE
8
0
66
1
40
0.008000
41
0.008000
0
VERTEX
8
0
10
-0.300000
20
-0.150000
0
VERTEX
8
0
10
-0.300000
20
0.150000
0
SEQEND
8
0
0
POLYLINE
8
0
66
1
40
0.008000
41
0.008000
0
VERTEX
8
0
10
0.300000
20
0.150000
0
VERTEX
8
0
10
0.300000
20
-0.150000
0
SEQEND
8
0
0
POLYLINE
8
0
66
1
40
0.008000
41
0.008000
0
VERTEX
8
0
10
-0.300000
20
0.150000
0
VERTEX
8
0
10
0.300000
20
0.150000
0
SEQEND
8
0
0
POLYLINE
8
0
66
1
40
0.008000
41
0.008000
0
VERTEX
8
0
10
-0.300000
20
-0.150000
0
VERTEX
8
0
10
0.300000
20
-0.150000
0
SEQEND
8
0
0
TEXT
8
12632256
10
-0.050000
20
0.160000
40
0.048000
41
1.041667
1
J1
0
POLYLINE
8
0
66
1
40
0.008000
41
0.008000
0
VERTEX
8
0
10
-1.300000
20
-0.400000
0
VERTEX
8
0
10
1.300000
20
-0.400000
0
VERTEX
8
0
10
1.300000
20
0.400000
0
VERTEX
8
0
10
-1.300000
20
0.400000
0
VERTEX
8
0
10
-1.300000
20
-0.400000
0
SEQEND
8
0
0
CIRCLE
8
12632256
10
-0.878000
20
-0.075000
40
0.015000
0
POLYLINE
8
0
66
1
40
0.006000
41
0.006000
0
VERTEX
8
0
10
-0.937000
20
-0.039000
0
VERTEX
8
0
10
-0.887000
20
-0.039000
0
SEQEND
8
0
0
POLYLINE
8
0
66
1
40
0.006000
41
0.006000
0
VERTEX
8
0
10
-0.662000
20
-0.039000
0
VERTEX
8
0
10
-0.662000
20
0.039000
0
VERTEX
8
0
10
-0.711000
20
0.039000
0
SEQEND
8
0
0
POLYLINE
8
0
66
1
40
0.006000
41
0.006000
0
VERTEX
8
0
10
-0.937000
20
0.039000
0
VERTEX
8
0
10
-0.937000
20
-0.039000
0
SEQEND
8
0
0
POLYLINE
8
0
66
1
40
0.006000
41
0.006000
0
VERTEX
8
0
10
-0.712000
20
-0.039000
0
VERTEX
8
0
10
-0.662000
20
-0.039000
0
SEQEND
8
0
0
POLYLINE
8
0
66
1
40
0.006000
41
0.006000
0
VERTEX
8
0
10
-0.731000
20
0.039000
0
VERTEX
8
0
10
-0.790000
20
0.039000
0
SEQEND
8
0
0
POLYLINE
8
0
66
1
40
0.006000
41
0.006000
0
VERTEX
8
0
10
-0.791000
20
-0.039000
0
VERTEX
8
0
10
-0.730000
20
-0.039000
0
SEQEND
8
0
0
POLYLINE
8
0
66
1
40
0.006000
41
0.006000
0
VERTEX
8
0
10
-0.809000
20
0.039000
0
VERTEX
8
0
10
-0.868000
20
0.039000
0
SEQEND
8
0
0
POLYLINE
8
0
66
1
40
0.006000
41
0.006000
0
VERTEX
8
0
10
-0.888000
20
0.039000
0
VERTEX
8
0
10
-0.937000
20
0.039000
0
SEQEND
8
0
0
POLYLINE
8
0
66
1
40
0.006000
41
0.006000
0
VERTEX
8
0
10
-0.869000
20
-0.039000
0
VERTEX
8
0
10
-0.808000
20
-0.039000
0
SEQEND
8
0
0
TEXT
8
12632256
10
-0.850000
20
0.048000
40
0.048000
41
1.041667
1
J2
0
CIRCLE
8
12632256
10
0.575000
20
-0.075000
40
0.015000
0
POLYLINE
8
0
66
1
40
0.006000
41
0.006000
0
VERTEX
8
0
10
0.516000
20
-0.039000
0
VERTEX
8
0
10
0.566000
20
-0.039000
0
SEQEND
8
0
0
POLYLINE
8
0
66
1
40
0.006000
41
0.006000
0
VERTEX
8
0
10
0.634000
20
-0.039000
0
VERTEX
8
0
10
0.634000
20
0.039000
0
VERTEX
8
0
10
0.584000
20
0.039000
0
SEQEND
8
0
0
POLYLINE
8
0
66
1
40
0.006000
41
0.006000
0
VERTEX
8
0
10
0.516000
20
0.039000
0
VERTEX
8
0
10
0.516000
20
-0.039000
0
SEQEND
8
0
0
POLYLINE
8
0
66
1
40
0.006000
41
0.006000
0
VERTEX
8
0
10
0.565000
20
0.039000
0
VERTEX
8
0
10
0.516000
20
0.039000
0
SEQEND
8
0
0
POLYLINE
8
0
66
1
40
0.006000
41
0.006000
0
VERTEX
8
0
10
0.583000
20
-0.039000
0
VERTEX
8
0
10
0.634000
20
-0.039000
0
SEQEND
8
0
0
TEXT
8
12632256
10
0.525000
20
0.048000
40
0.048000
41
1.041667
1
J3
0
ENDSEC
0
EOF

