M48
;Layer_Color=9474304
;FILE_FORMAT=4:4
METRIC,LZ
;TYPE=PLATED
T1F00S00C0.2000
T2F00S00C0.2231
T4F00S00C0.3810
T5F00S00C0.5000
T6F00S00C0.6000
T7F00S00C0.6350
T8F00S00C0.7000
T9F00S00C0.7620
T11F00S00C0.8000
T12F00S00C0.8890
T13F00S00C0.9000
T14F00S00C1.0000
T15F00S00C1.0160
T16F00S00C1.1000
T17F00S00C1.2700
T18F00S00C1.3000
T19F00S00C1.5240
T20F00S00C1.6000
T21F00S00C1.6510
T22F00S00C1.7526
T23F00S00C1.7780
T24F00S00C1.8500
T25F00S00C2.0000
T26F00S00C2.3000
T27F00S00C2.4000
T28F00S00C2.7000
T29F00S00C2.8000
T30F00S00C3.0000
T31F00S00C3.2000
T32F00S00C10.0000
%
T01
X0068453Y0006731
X006858Y0011938
X0066421Y0010541
X0073025Y0008509
X007747Y0006731
X0084201Y0014224
X0094615Y0010668
X009766Y0010671
X0099187Y0010668
X0100711
X0102235
X0203581Y0012192
X0187071Y0017018
Y001905
X0186055Y0020955
X0182372Y0017018
X0175006Y0043053
X0174371Y0049276
X0177927Y0052832
X0170307Y004953
Y0048387
X0171069Y004572
X01720334Y0045974
X01714845Y0041529
X01708345
X0159893Y0046863
X0153035Y0053086
X013716Y0044323
X0136525Y0031242
X014097Y003048
X014103Y0028769
X0138049Y0024257
X01397Y0019304
X0140335Y0019812
X0141786Y0021136
X0141097Y0017526
X0156718Y0018415
X0159385Y0018542
X0160528Y001905
X0160147Y0020955
X0155552Y0021209
X0155448Y0030861
X015748Y0031115
X0157226Y0032258
X0160655Y0031115
X0162306
X0129921Y0033782
X011811Y0038354
X011684
X0115316
X0113919
Y0041148
X0115316
X011684
X011811Y0041275
X01104265Y0037592
X0107823Y0037211
Y003937
X0109474Y00339344
X0108585Y0032639
X0108839Y0029972
X0106172Y0027813
X0106295Y0026293
X0107188Y0025793
X0107696Y0024935
X0106172Y0024257
X0103505Y0025146
X0102489Y0024892
X0100584Y0024638
X0099695Y00254
X0100457Y0026289
X0099695Y0028575
X009985Y00310437
X010285Y0031115
X0102616Y0028702
X0103505Y0027686
X0103378Y002159
X010287Y0021971
X0101854Y0021463
X0101092Y0021844
X0099314Y002159
X0099822Y0021082
X0099814Y0019677
X0098298Y0019812
X0097663Y0020955
X0094869Y0021082
X0097028Y0024257
X0096266Y0025781
X0095885Y0028448
X0094615
X00970225Y00287247
X0097155Y00293247
X01052703Y0032766
X0109839Y0025816
X0109855Y0024257
X0108712Y0022733
X0107711Y0016398
X0102989Y0017018
X0102489Y0019431
X0104013Y0019177
X0099314Y0017145
X0095123Y0014859
X0093599Y0014732
X008382Y0016383
X0082296Y0018796
X0079375Y0018875
X0079121Y0020701
X0079883
X0077851Y0019939
X0077089Y0020447
X00753942Y0018367
X0073787Y0018669
X0071628Y0019431
X0070358Y0020447
X00695397Y00199953
X0067837Y002072
X0067022Y00210186
X00679041Y0018856
X0070193Y0018123
X0069342Y0025273
X0069977Y0025908
X0070866Y0029591
X0074638Y0027267
X0075438Y0025273
X0077149Y0026162
X0077849
X0077724Y0028956
Y0030353
X0079629Y0027813
X00804418Y00270002
X0082804Y003048
X0081534Y0033401
X0081407Y0034925
X0083566Y0043053
X0088519Y0043434
X007747Y0043688
X00714085Y0046863
X00707585
X00723Y00486349
X0073152Y0048816
X0072644Y0053086
X0056388Y00538226
X0056261Y00516588
X0054595Y0048895
X00552398Y0048133
X0057658Y0019371
X0057785Y0017593
X0060706Y0018609
X0079502Y0014351
X0087249Y0027051
X0093218Y0028448
X0051816Y0027499
X0045847Y0025908
X0044831Y0029531
X0037973Y0027499
X0034163
X0030226
X0026543Y0027372
X0027686Y0033722
X0028956
X0032893
X0036703Y0033595
X0037973Y0037786
X0034163Y0037659
X0030226
X0026543Y0037532
X0029083Y0022165
X0028548Y0020768
X0032512Y00211346
X003302Y0022292
X00392502Y00216498
X0040386Y0022546
X0041402Y0016577
X0045847Y0019625
X0052578Y004445
X0053594Y0046736
X0052832Y0052197
Y0053594
X0050673Y005588
X00517398Y0065151
X0040894Y0070358
X0028448Y0070866
Y0072136
Y0073406
Y0078486
Y0079756
Y0081026
X0028067Y0091181
X0026162Y0058801
X0027051Y0057023
X0020447Y0056134
X00567398Y005461
X0057785Y0054102
X0061275Y00545592
X00613209Y0059817
X00603709
X0062103Y0060071
X0062865
X00635Y0060198
X00646623Y00605512
X0065278Y0059817
X0071755Y0059944
Y0060833
X0074422Y0060706
Y0059817
X007493Y0059055
X00762398Y00605392
X00767398Y00649922
X00812398Y00650219
X0085725Y0065024
X0087249Y0064897
X00877398Y00655148
X0089535Y0065532
X0088646Y0066802
X0089154Y0067691
X0086499Y0066687
X00912343Y0065024
X009271Y0066167
X00912398Y00545714
X00862398Y00545753
X00842398Y00546488
X00812597Y00545592
X0079756Y005461
X0076835
X0072517
X0069596
X0066675
X00667398Y00649618
X0061849Y0064897
X00567398Y00647992
X0058547Y0060833
X0058674Y0058928
X0058651Y0071374
X0059601
X0062103Y0070358
X00717398Y00650088
X0082804Y0059944
X0084709Y0059309
X0083185Y0089408
X0085725Y0090932
X0054102Y0092611
Y0093561
X0096419Y009243
X0101092Y0093218
X01008507Y00667385
X0101219Y00647827
X01032398Y00647588
X0103759Y0065278
X0104267Y0065913
X0105029Y0060706
X0105791Y0060579
X0103124Y005969
X0101981Y0060198
X0101854Y0061341
X0100965Y00613872
X0097663Y0059309
X0093853Y0060071
X0096266Y0065024
X0095631Y006858
X00962398Y00543822
X01032398Y00544942
X01042398Y00545102
X01047398Y00550262
X01037398Y00551372
X01052398Y00543992
X01057398Y00547882
X0109855Y0054737
Y0064643
X013081Y0063373
X0129921Y008001
X0130556Y0082423
X0124968Y0082169
X012446Y0079756
X012573Y008763
X01325626Y00935395
X0134493Y0093218
X0134112Y0089789
X0135001Y0088265
Y0087122
X0133731Y0084455
X0135255Y0082618
X01346962Y00801878
X0133858Y0076073
X013335Y0075946
X0135128Y0075438
X0136271Y0076708
X0137773Y0076476
X0135173Y0071456
X0140208Y0063246
X0159766Y0062992
X0160401Y0063373
X0161544Y0064135
X01606497Y00602249
X0161544Y0055372
X0168021Y00611558
X01711444Y00600366
X0171069Y0059436
X0163703Y0084471
X0158496Y008459
X0151604Y0085183
X0151892Y0087249
X0151604Y0089628
X0152146Y0091694
X0151511Y008001
X0178562Y0116586
X0195834Y0121539
X0151731Y0095919
X0151638Y0093853
X0131445Y0094107
X0126492Y0093726
X0130429Y0099314
X0133223
X012519Y0111696
X0123317Y011176
X011719Y0112553
X011519Y0112523
X0108458Y0110871
X0108585Y0109982
X0104394Y0126111
X0104775Y0128905
X0102744
X0102616Y0124714
X0119189Y0123635
X0119126Y0122809
X012119
Y0123349
X0092329Y0126304
X0090551Y0125349
X0092615Y0129032
X0071755Y0127508
X0069596
X0066929
Y0131953
X0069088
X007112
X0062484Y0127381
X0062357Y0124968
X005715Y0122301
X0056642Y0122428
X0054991Y012319
X0054229Y0121031
X0054991Y0128651
X00551806Y01298682
X0054991Y0130937
X0058166Y0130429
Y0129032
X0061341Y0117983
X0064435
X0068849Y012003
X007874Y0105537
X0050546Y0118872
X0050038Y0122555
X0052832Y0128524
X0052705Y0129794
X0052832Y0130937
X0042926Y013081
X0042291
Y0129794
X0042926
X0041656
X0042037Y0121071
X0041783Y0120523
X0042418
X0027813Y0098801
X002794Y0094991
X001397Y0150622
Y0151257
Y0152019
Y0152654
X0018415
X0018923Y0152146
Y0151511
Y0150622
X0019812Y0151003
Y0152019
Y0153035
X0021463
X0022098Y0152654
X0023622Y0141351
X0024003Y0140843
X0024384Y0140335
X0023622
X0024511Y0141351
X0022733Y0138684
X0049911Y0138176
X0050419
X0050927
Y0137541
X0050419
X0049911
Y0136906
X0050419
X0050927
X0049403Y0135636
X0079375Y0139573
X0106934Y0139827
X0104013Y0146685
X01143Y0144526
X0161417Y0133604
T02
X0166751Y0060579
T04
X0074779Y0119277
X0089789Y0123571
T05
X0058928Y001137
X0173355Y0047117
X01911801Y00491347
Y00503919
Y00516492
Y0053086
X0168783Y0047879
X0165481Y0048006
X016383Y004572
X0160655Y0048895
X01622068Y0051099
X0160655Y005334
X01576926Y0051181
X0151892Y0040005
X0143891Y0038862
X0142494Y0039497
X0139319Y0043942
X0135128Y0048387
X0134239Y0049657
X0138049Y0053721
X0136525Y0023876
X0051816Y0026229
X0052705Y0030039
X0043434Y0026737
X0041275Y0032654
X0043045Y00365
X0049149Y0020387
X0028321Y0067056
Y0068326
Y0069596
X0028575Y0074676
Y0075946
Y0077216
X0022606Y0082296
X0022733Y0083566
X0022606Y0084836
X0153416Y0068453
X0154559Y0069469
X0155702Y0070612
X0157099Y0071755
X0162052Y0069596
X0162941Y0068707
X0162306Y0066548
X0163195Y0064516
X0163957Y0060198
X0165227Y0060071
X015875
X015748Y0060198
X0157353Y0061976
X0155321Y0061214
X0159512Y0054102
X0174498Y0060579
X0179705Y0064008
X0180721Y0057907
X0194818Y0060579
X0197612Y0122174
X0199517Y0124841
X0204724Y0128524
X0189992Y0127
X0187452Y0124714
X0182753Y0127508
X0169947Y0132694
X0153924Y0133223
X0163195Y0113157
X0164465Y0113284
X0165735
X0164846Y0106553
X0165989Y0105664
X0163576Y0107696
X0160528Y0105283
X0161798Y0103505
X0162687Y0102362
X0151511Y0100203
X014986Y0100965
X0061849Y0126873
X0060833Y0126365
X0061087Y0130556
X006096Y0132461
X0056388Y0132969
X004953Y0132842
X00498729Y01305075
X0047498Y012954
X0047752Y0126746
X004953Y0127254
X0052324Y0125984
X00514754Y01232684
X0049022Y0122936
X0046228Y0122682
X0044196Y0126873
X0030734Y0124841
X0030607Y0123571
Y0122174
X0024638Y0123063
X0024511Y0126365
X0025654Y0131064
X0030861Y0132969
X0024765Y0119761
X0025527Y0134366
X00254Y0137414
X0033655Y0137287
X0030861Y0134239
X0044577Y0135255
X0052705Y0134493
X0053721Y0133731
X0036322Y0151511
X0025781Y0151257
X0021463Y0145923
X0055245Y0138176
X0054102Y0135001
X0060833Y0133477
X0073914Y0134747
X0074676Y0144907
X0074295Y0150241
X0081204Y0150419
X0081661Y0154559
X0068199Y0152146
X0063627Y0149733
X0064135Y0144907
X0101346Y0144145
X0105156Y0141986
X0106934Y0141478
X0107442Y0143256
X01100729Y01423393
X0112395Y0143383
X0112268Y0140208
X0105934Y0145685
X0101346Y0137287
X0119888Y0145288
X0121285Y0145415
X0130302Y0145034
X0131318Y0139446
X0127381Y0138557
X0130429Y0134493
X0133731Y0138684
X0143764Y0134493
X0145542Y0133985
X0159385Y013335
X0178562
X0188849Y0133477
X0188722Y0143002
X0192532Y0139573
X0196977Y0141351
X0195326Y0144399
Y0146812
X0203581Y0144653
X0201549Y01397
X0189357Y0152273
X0183388Y0147066
T06
X0186817Y0060579
X0190817
T07
X0083947Y004572
T08
X0069541Y0008763
X0069041Y0010263
X0071041
X0073041
X0075041
X0077041
X0076541Y0008763
X0074041
X0072041
Y0011963
X0074041
X0075041Y0013463
X0073041
X0071041
X0069041
X0069541Y0011963
X0076541
X0077041Y0013463
X0133604Y0035433
Y0037973
Y0040513
X0141224
Y0037973
Y0035433
X0127Y0034544
X012446
X012192
Y0042164
X012446
X0127
T09
X0052324Y00359953
X0106934Y0065786
X0036068Y013589
X0149352Y0135255
X0154432
Y0140335
Y0142875
Y0145415
X0149352
Y0142875
Y0140335
X0165608Y0140208
Y0142748
Y0145288
X0170688
Y0142748
Y0140208
Y0135128
X0165608
T11
X0094615Y0130683
X0100807Y0130048
X0102807
X0104807
X0106807
X0092615Y0130683
X0090615
X0088615
T12
X015621Y0098806
X015875
Y0101346
Y0103886
Y0106426
X015621
Y0103886
Y0101346
T13
X0030363Y0006034
X0032393
X0034423
X0036453
X0035433Y0007814
X0033403
X0031383
X0029343
X0028333Y0012634
X0026043
X0037473
X0039763
T14
X0050745Y00101
X0053245
Y001272
X0050745
X0055245
X0057745
Y00101
X0055245
X0189809Y0010203
Y0012203
X0192309
Y0010203
X0143002Y0084582
Y0087122
Y0089662
Y0092202
X0140462
Y0089662
Y0087122
Y0084582
Y0094742
X0143002
X0079974Y0154534
X0075474
X0069433
X0064933
T15
X01452339Y00526321
X01470299Y00508361
X0150622
X01488259Y00490401
X0150622Y0047244
X0152418Y00490401
X01542141Y0047244
X01524181Y00454479
X01488259Y00526321
X01470299Y00544282
T16
X0122739Y0005334
X0125514
X0128289
X0131064
X01324415Y0008174
X0129669
X01268965
X0124124
X01213515
X0122739Y0011984
X0125514
X0128289
X0131064
X01556515Y0011303
X01584265
X01612015
X01639765
X0162589Y0014148
X0165364
X0159814
X0157039
X0154264Y0014143
X0154264Y0007493
X01570365
X0159809
X01625815
X0165354
X01639765Y0004653
X01612015
X01584265
X01556515
X01324515Y0014829
X01296765
X01269015
X01241265
X01213515Y0014824
X0143383Y006731
Y006985
Y007239
X0158369Y0090043
X0160909
X0163449Y0090043
X0182372Y011557
X0184912
X0187452
X01778Y0122428
Y0124968
Y0127508
X020193Y0124841
Y0122301
Y0119761
X0204597
Y0122301
Y0124841
X017272Y0124079
Y0126619
T17
X0076708Y0128016
X0029337Y0115316
X0040513Y0137668
X0060502Y0136652
T18
X0063678Y0152044
X0070688
X0074219
X0081229
T19
X01456344Y0153289
X01506959
X01557574
X0160819
X01658805
X0170942
X01760035
X0181065
X01861266
X01911881
X01962496
X02013111
T20
X0024773Y0006924
X0041033
X0094347Y0153162
X0099347
X0104347
X0109347
X0114347
T21
X002326Y00663346
Y0099507
T22
X00501354Y00599356
X01078442
T23
X0124714Y0153162
X0129794
X0134874
T24
X0048641Y0142367
T25
X009091Y0005715
X010541
X0055641Y0142367
T26
X0066344Y0006763
X0066471Y0012443
X0079611
Y0006763
T27
X0047675Y000739
Y001307
X0060815
Y000739
X0185039Y0007493
X0197079
T28
X0026161Y0148011
X0030861Y0151511
T29
X00379223Y00578358
X01138202Y00578356
X01138682Y0104775
X00379026Y01049079
T30
X009091Y0011675
X010541
T31
X01144215Y0005214
X01143915Y0013214
X01392615Y0013174
X01392965Y0005264
X0147334Y0004533
X0147304Y0012533
X0172174Y0012493
X0172209Y0004583
X0198075Y004225
X0016075
X0198075Y0114
X0016075
X0030861Y0145011
T32
X0196275Y0023775
X0017875
X0196275Y0132475
X0017875
M30
