G04 Layer_Color=255*
%FSLAX44Y44*%
%MOMM*%
G71*
G01*
G75*
%ADD14R,0.5000X0.5000*%
%ADD15R,0.5000X0.5000*%
%ADD23R,0.4500X0.4000*%
%ADD29R,0.9000X0.9500*%
%ADD30R,0.9000X0.9500*%
%ADD34R,0.8000X0.8000*%
%ADD35R,1.2000X1.1000*%
%ADD42R,0.5000X0.6000*%
%ADD44R,0.6000X0.5000*%
%ADD57R,0.5588X1.9812*%
%ADD58R,1.5000X1.3000*%
%ADD59R,1.3000X1.5000*%
%ADD67R,0.4000X0.9024*%
%ADD107C,1.5240*%
%ADD108C,1.7000*%
%ADD109R,1.7000X1.7000*%
%ADD110C,2.7000*%
%ADD111C,1.3000*%
%ADD112C,3.2500*%
%ADD113C,1.5748*%
%ADD114C,1.3970*%
%ADD115R,1.3970X1.3970*%
%ADD116C,0.9000*%
G04:AMPARAMS|DCode=117|XSize=3mm|YSize=3mm|CornerRadius=0.75mm|HoleSize=0mm|Usage=FLASHONLY|Rotation=90.000|XOffset=0mm|YOffset=0mm|HoleType=Round|Shape=RoundedRectangle|*
%AMROUNDEDRECTD117*
21,1,3.0000,1.5000,0,0,90.0*
21,1,1.5000,3.0000,0,0,90.0*
1,1,1.5000,0.7500,0.7500*
1,1,1.5000,0.7500,-0.7500*
1,1,1.5000,-0.7500,-0.7500*
1,1,1.5000,-0.7500,0.7500*
%
%ADD117ROUNDEDRECTD117*%
%ADD118C,3.0000*%
%ADD119C,1.4000*%
%ADD120R,1.4000X1.4000*%
%ADD121C,5.0000*%
%ADD122O,4.0000X5.0000*%
%ADD123C,3.8000*%
%ADD124R,1.6000X1.6000*%
%ADD125C,1.6000*%
%ADD126C,4.0000*%
%ADD127C,2.0000*%
%ADD128O,2.0000X1.6000*%
%ADD129R,2.0000X1.6000*%
%ADD130O,1.6000X2.0000*%
%ADD131R,1.6000X2.0000*%
%ADD132C,1.2700*%
%ADD133C,1.2000*%
%ADD134R,2.2860X2.2860*%
%ADD135C,2.2860*%
%ADD136C,2.5000*%
%ADD137O,2.5000X2.6000*%
%ADD138C,1.8000*%
%ADD139C,2.2000*%
%ADD140R,2.5000X1.2000*%
%ADD141O,2.5000X1.2000*%
%ADD142C,3.0000*%
%ADD143O,3.3000X4.0000*%
%ADD144C,3.0480*%
G04:AMPARAMS|DCode=145|XSize=1.524mm|YSize=3.81mm|CornerRadius=0.381mm|HoleSize=0mm|Usage=FLASHONLY|Rotation=90.000|XOffset=0mm|YOffset=0mm|HoleType=Round|Shape=RoundedRectangle|*
%AMROUNDEDRECTD145*
21,1,1.5240,3.0480,0,0,90.0*
21,1,0.7620,3.8100,0,0,90.0*
1,1,0.7620,1.5240,0.3810*
1,1,0.7620,1.5240,-0.3810*
1,1,0.7620,-1.5240,-0.3810*
1,1,0.7620,-1.5240,0.3810*
%
%ADD145ROUNDEDRECTD145*%
%ADD146C,1.7526*%
%ADD199R,1.1684X0.5334*%
%ADD200R,1.1684X0.9398*%
%ADD201R,1.1056X1.8000*%
%ADD202R,1.8000X1.1056*%
%ADD203R,0.7620X1.9050*%
%ADD204R,1.9812X0.5334*%
%ADD205R,3.3000X3.3000*%
%ADD206R,1.0160X0.2300*%
%ADD207R,0.2300X1.0160*%
D14*
X798830Y289560D02*
D03*
X788830D02*
D03*
X798830Y303530D02*
D03*
X788830D02*
D03*
X590710Y1268730D02*
D03*
X600710D02*
D03*
X600550Y1295400D02*
D03*
X590550D02*
D03*
X590710Y1330960D02*
D03*
X600710D02*
D03*
D15*
X441960Y1245710D02*
D03*
Y1235710D02*
D03*
X445770Y1327150D02*
D03*
Y1337150D02*
D03*
X1040130Y1466850D02*
D03*
Y1456850D02*
D03*
D23*
X848700Y152590D02*
D03*
X838200Y148590D02*
D03*
Y156590D02*
D03*
X731520Y185610D02*
D03*
X721020Y181610D02*
D03*
Y189610D02*
D03*
X746760Y185420D02*
D03*
X757260Y189420D02*
D03*
Y181420D02*
D03*
X670220Y190310D02*
D03*
X680720Y194310D02*
D03*
Y186310D02*
D03*
D29*
X1294790Y1381560D02*
D03*
X1304290Y1356560D02*
D03*
D30*
X1313790Y1381560D02*
D03*
D34*
X591820Y1281430D02*
D03*
X606820D02*
D03*
D35*
X822960Y233940D02*
D03*
Y202940D02*
D03*
X847090Y235210D02*
D03*
Y204210D02*
D03*
D42*
X569040Y1209040D02*
D03*
X579040D02*
D03*
X441960Y1224280D02*
D03*
X451960D02*
D03*
X455850Y1315720D02*
D03*
X445850D02*
D03*
X600550Y1318260D02*
D03*
X590550D02*
D03*
X600630Y1306830D02*
D03*
X590630D02*
D03*
X2014220Y1457960D02*
D03*
X2024220D02*
D03*
D44*
X623570Y1243330D02*
D03*
Y1233330D02*
D03*
X609600Y1243330D02*
D03*
Y1233330D02*
D03*
X552450Y1358900D02*
D03*
Y1368900D02*
D03*
X547370Y1232060D02*
D03*
Y1242060D02*
D03*
X523240D02*
D03*
Y1232060D02*
D03*
X534670Y1242060D02*
D03*
Y1232060D02*
D03*
X1811020Y1460500D02*
D03*
Y1470500D02*
D03*
X1812290Y1324690D02*
D03*
Y1334690D02*
D03*
X1925320Y1468120D02*
D03*
Y1458120D02*
D03*
D57*
X815340Y270002D02*
D03*
X828040D02*
D03*
X840740D02*
D03*
X853440D02*
D03*
Y319278D02*
D03*
X840740D02*
D03*
X828040D02*
D03*
X815340D02*
D03*
D58*
X1925490Y1413510D02*
D03*
Y1438910D02*
D03*
X2015490Y1413510D02*
D03*
Y1438910D02*
D03*
D59*
X1785620Y1442720D02*
D03*
X1811020D02*
D03*
X1785620Y1352720D02*
D03*
X1811020D02*
D03*
D67*
X746380Y243692D02*
D03*
X754380D02*
D03*
X746380Y223668D02*
D03*
X754380D02*
D03*
X702500D02*
D03*
X694500D02*
D03*
X800290D02*
D03*
X792290D02*
D03*
X557340Y201182D02*
D03*
X565340D02*
D03*
X557340Y181158D02*
D03*
X565340D02*
D03*
X543750D02*
D03*
X535750D02*
D03*
X702500Y243692D02*
D03*
X694500D02*
D03*
X800290D02*
D03*
X792290D02*
D03*
X543750Y201182D02*
D03*
X535750D02*
D03*
D107*
X360680Y1358900D02*
D03*
X1069340Y657860D02*
D03*
X507450Y101000D02*
D03*
X532450D02*
D03*
X552450D02*
D03*
X577450Y127200D02*
D03*
X552450D02*
D03*
X532450D02*
D03*
X507450D02*
D03*
X577450Y101000D02*
D03*
X1219200Y421640D02*
D03*
X1244600D02*
D03*
X1270000D02*
D03*
Y345440D02*
D03*
X1244600D02*
D03*
X1219200D02*
D03*
X1336040Y354330D02*
D03*
Y379730D02*
D03*
Y405130D02*
D03*
X1412240D02*
D03*
Y379730D02*
D03*
Y354330D02*
D03*
X1452339Y526321D02*
D03*
X1470299Y508361D02*
D03*
X1488259Y490401D02*
D03*
X1506220Y472440D02*
D03*
X1524181Y454479D02*
D03*
X1470299Y544282D02*
D03*
X1488259Y526321D02*
D03*
X1506220Y508361D02*
D03*
X1524180Y490401D02*
D03*
X1542141Y472440D02*
D03*
X523240Y359953D02*
D03*
D108*
X1430020Y845820D02*
D03*
Y871220D02*
D03*
Y896620D02*
D03*
Y922020D02*
D03*
Y947420D02*
D03*
X1404620Y845820D02*
D03*
Y871220D02*
D03*
Y896620D02*
D03*
Y922020D02*
D03*
D109*
Y947420D02*
D03*
D110*
X247730Y69240D02*
D03*
X410330D02*
D03*
D111*
X364530Y60340D02*
D03*
X354330Y78140D02*
D03*
X344230Y60340D02*
D03*
X334030Y78140D02*
D03*
X323930Y60340D02*
D03*
X313830Y78140D02*
D03*
X303630Y60340D02*
D03*
X293430Y78140D02*
D03*
D112*
X265530Y34940D02*
D03*
X392530D02*
D03*
D113*
X374730Y126340D02*
D03*
X397630D02*
D03*
X283330D02*
D03*
X260430D02*
D03*
D114*
X1587500Y988060D02*
D03*
Y1013460D02*
D03*
Y1038860D02*
D03*
Y1064260D02*
D03*
X1562100Y988060D02*
D03*
Y1013460D02*
D03*
Y1038860D02*
D03*
D115*
Y1064260D02*
D03*
D116*
X765410Y119630D02*
D03*
X740410D02*
D03*
X720410D02*
D03*
X695410D02*
D03*
X690410Y134630D02*
D03*
X710410D02*
D03*
X730410D02*
D03*
X750410D02*
D03*
X770410D02*
D03*
Y102630D02*
D03*
X750410D02*
D03*
X730410D02*
D03*
X710410D02*
D03*
X690410D02*
D03*
X695410Y87630D02*
D03*
X720410D02*
D03*
X740410D02*
D03*
X765410D02*
D03*
D117*
X796110Y67630D02*
D03*
Y124430D02*
D03*
X663440Y67630D02*
D03*
X664710Y124430D02*
D03*
D118*
X476750Y130700D02*
D03*
X608150D02*
D03*
X476750Y73900D02*
D03*
X608150D02*
D03*
D119*
X1068070Y1300480D02*
D03*
X1048070D02*
D03*
X1028070D02*
D03*
X946150Y1306830D02*
D03*
X926150D02*
D03*
X906150D02*
D03*
D120*
X1008070Y1300480D02*
D03*
X886150Y1306830D02*
D03*
D121*
X308610Y1515110D02*
D03*
Y1450110D02*
D03*
D122*
X261610Y1480110D02*
D03*
D123*
X1970790Y74930D02*
D03*
X1850390D02*
D03*
D124*
X1923090Y122030D02*
D03*
D125*
X1898090D02*
D03*
X1923090Y102030D02*
D03*
X1898090D02*
D03*
D126*
X1247140Y1531620D02*
D03*
X1297940D02*
D03*
X1348740D02*
D03*
X1721740Y124930D02*
D03*
X1473040Y125330D02*
D03*
X1722090Y45830D02*
D03*
X1473340Y45330D02*
D03*
X1392615Y131740D02*
D03*
X1143915Y132140D02*
D03*
X1392965Y52640D02*
D03*
X1144215Y52140D02*
D03*
D127*
X1639765Y113030D02*
D03*
X1542640Y141430D02*
D03*
X1570390Y141480D02*
D03*
X1598140D02*
D03*
X1625890D02*
D03*
X1653640D02*
D03*
X1556515Y46530D02*
D03*
X1584265D02*
D03*
X1612015D02*
D03*
X1639765D02*
D03*
X1542640Y74930D02*
D03*
X1570365D02*
D03*
X1598090D02*
D03*
X1625815D02*
D03*
X1653540D02*
D03*
X1556515Y113030D02*
D03*
X1584265D02*
D03*
X1612015D02*
D03*
X1310640Y119840D02*
D03*
X1213515Y148240D02*
D03*
X1241265Y148290D02*
D03*
X1269015D02*
D03*
X1296765D02*
D03*
X1324515D02*
D03*
X1227390Y53340D02*
D03*
X1255140D02*
D03*
X1282890D02*
D03*
X1310640D02*
D03*
X1213515Y81740D02*
D03*
X1241240D02*
D03*
X1268965D02*
D03*
X1296690D02*
D03*
X1324415D02*
D03*
X1227390Y119840D02*
D03*
X1255140D02*
D03*
X1282890D02*
D03*
X232600Y663346D02*
D03*
Y995070D02*
D03*
D128*
X1778000Y1224280D02*
D03*
Y1249680D02*
D03*
X2045970Y1197610D02*
D03*
Y1223010D02*
D03*
X1727200Y1240790D02*
D03*
X2019300Y1197610D02*
D03*
Y1223010D02*
D03*
X1433830Y673100D02*
D03*
Y698500D02*
D03*
D129*
X1778000Y1275080D02*
D03*
X2045970Y1248410D02*
D03*
X1727200Y1266190D02*
D03*
X2019300Y1248410D02*
D03*
X1433830Y723900D02*
D03*
D130*
X1874520Y1155700D02*
D03*
X1849120D02*
D03*
X1634490Y900430D02*
D03*
X1609090Y900430D02*
D03*
D131*
X1823720Y1155700D02*
D03*
X1583690Y900430D02*
D03*
D132*
X1706880Y1351280D02*
D03*
Y1402080D02*
D03*
Y1427480D02*
D03*
Y1452880D02*
D03*
X1656080D02*
D03*
Y1427480D02*
D03*
Y1402080D02*
D03*
Y1351280D02*
D03*
X1544320Y1352550D02*
D03*
Y1403350D02*
D03*
Y1428750D02*
D03*
Y1454150D02*
D03*
X1493520D02*
D03*
Y1428750D02*
D03*
Y1403350D02*
D03*
Y1352550D02*
D03*
D133*
X1868170Y605790D02*
D03*
X1908170D02*
D03*
D134*
X1456344Y1532890D02*
D03*
D135*
X1506959D02*
D03*
X1557574D02*
D03*
X1608190D02*
D03*
X1658805D02*
D03*
X1709420D02*
D03*
X1760035D02*
D03*
X1810650D02*
D03*
X1861266D02*
D03*
X1911881D02*
D03*
X1962496D02*
D03*
X2013111D02*
D03*
D136*
X1143470Y1531620D02*
D03*
X1093470D02*
D03*
X1043470D02*
D03*
X993470D02*
D03*
X486410Y1423670D02*
D03*
X556410D02*
D03*
D137*
X943470Y1531620D02*
D03*
D138*
X649330Y1545340D02*
D03*
X694330D02*
D03*
X799740D02*
D03*
X754740D02*
D03*
D139*
X636780Y1520440D02*
D03*
X706880D02*
D03*
X812290D02*
D03*
X742190D02*
D03*
D140*
X1666240Y1191260D02*
D03*
D141*
Y1216660D02*
D03*
Y1242060D02*
D03*
Y1267460D02*
D03*
D142*
X1054100Y57150D02*
D03*
X909100D02*
D03*
D143*
Y116750D02*
D03*
X1054100D02*
D03*
D144*
X767080Y1280160D02*
D03*
X293370Y1153160D02*
D03*
X605020Y1366520D02*
D03*
X405130Y1376680D02*
D03*
D145*
X240474Y642010D02*
D03*
X239966Y1016152D02*
D03*
D146*
X501354Y599356D02*
D03*
X1078442D02*
D03*
D199*
X471170Y196200D02*
D03*
Y177200D02*
D03*
X491490D02*
D03*
D200*
Y194168D02*
D03*
D201*
X1319530Y1327150D02*
D03*
X1287474D02*
D03*
D202*
X1014730Y1424940D02*
D03*
Y1392884D02*
D03*
D203*
X265430Y395005D02*
D03*
X278130D02*
D03*
X290830D02*
D03*
X303530D02*
D03*
X316230D02*
D03*
X328930D02*
D03*
X341630D02*
D03*
X354330D02*
D03*
X367030D02*
D03*
X379730D02*
D03*
X265430Y248955D02*
D03*
X278130D02*
D03*
X290830D02*
D03*
X303530D02*
D03*
X316230D02*
D03*
X328930D02*
D03*
X341630D02*
D03*
X354330D02*
D03*
X367030D02*
D03*
X379730D02*
D03*
X392430D02*
D03*
X405130D02*
D03*
Y395005D02*
D03*
X392430D02*
D03*
D204*
X1040892Y1407160D02*
D03*
Y1419860D02*
D03*
Y1432560D02*
D03*
Y1445260D02*
D03*
X1090168D02*
D03*
Y1432560D02*
D03*
Y1419860D02*
D03*
Y1407160D02*
D03*
D205*
X539750Y1297940D02*
D03*
D206*
X565782Y1315440D02*
D03*
Y1310440D02*
D03*
Y1305440D02*
D03*
Y1300440D02*
D03*
Y1295440D02*
D03*
Y1290440D02*
D03*
Y1285440D02*
D03*
Y1280440D02*
D03*
X513718D02*
D03*
Y1285440D02*
D03*
Y1290440D02*
D03*
Y1295440D02*
D03*
Y1300440D02*
D03*
Y1305440D02*
D03*
Y1310440D02*
D03*
Y1315440D02*
D03*
D207*
X557250Y1271908D02*
D03*
X552250D02*
D03*
X547250D02*
D03*
X542250D02*
D03*
X537250D02*
D03*
X532250D02*
D03*
X527250D02*
D03*
X522250D02*
D03*
Y1323972D02*
D03*
X527250D02*
D03*
X532250D02*
D03*
X537250D02*
D03*
X542250D02*
D03*
X547250D02*
D03*
X552250D02*
D03*
X557250D02*
D03*
M02*
