G04 Layer_Color=32768*
%FSLAX44Y44*%
%MOMM*%
G71*
G01*
G75*
%ADD198C,0.1524*%
%ADD308R,9.0678X9.1694*%
%ADD309R,7.4930X12.3190*%
%ADD310R,3.2766X1.4478*%
G04:AMPARAMS|DCode=311|XSize=3.2766mm|YSize=1.4478mm|CornerRadius=0mm|HoleSize=0mm|Usage=FLASHONLY|Rotation=225.000|XOffset=0mm|YOffset=0mm|HoleType=Round|Shape=Rectangle|*
%AMROTATEDRECTD311*
4,1,4,0.6466,1.6703,1.6703,0.6466,-0.6466,-1.6703,-1.6703,-0.6466,0.6466,1.6703,0.0*
%
%ADD311ROTATEDRECTD311*%

%ADD312R,1.4478X3.2766*%
G04:AMPARAMS|DCode=313|XSize=3.2766mm|YSize=1.4478mm|CornerRadius=0mm|HoleSize=0mm|Usage=FLASHONLY|Rotation=135.000|XOffset=0mm|YOffset=0mm|HoleType=Round|Shape=Rectangle|*
%AMROTATEDRECTD313*
4,1,4,1.6703,-0.6466,0.6466,-1.6703,-1.6703,0.6466,-0.6466,1.6703,1.6703,-0.6466,0.0*
%
%ADD313ROTATEDRECTD313*%

G36*
X1562796Y471542D02*
X1525078Y433825D01*
X1431684Y527220D01*
X1469401Y564937D01*
X1562796Y471542D01*
D02*
G37*
G36*
X260985Y586890D02*
X267208D01*
Y566270D01*
X260985D01*
Y563245D01*
X241935D01*
Y566270D01*
X235712D01*
Y586890D01*
X241935D01*
Y589915D01*
X260985D01*
Y586890D01*
D02*
G37*
G36*
X1101429Y565828D02*
X478367D01*
Y632884D01*
X1101429D01*
Y565828D01*
D02*
G37*
G36*
X1104265Y372364D02*
X1085215D01*
Y403098D01*
X1104265D01*
Y372364D01*
D02*
G37*
G36*
Y339344D02*
X1085215D01*
Y370078D01*
X1104265D01*
Y339344D01*
D02*
G37*
G36*
X847344Y414909D02*
X865759D01*
Y354711D01*
X847344D01*
Y344170D01*
X823976D01*
Y354711D01*
X805561D01*
Y414909D01*
X823976D01*
Y425450D01*
X847344D01*
Y414909D01*
D02*
G37*
G36*
X786384Y416179D02*
X804799D01*
Y355981D01*
X786384D01*
Y345440D01*
X763016D01*
Y355981D01*
X744601D01*
Y416179D01*
X763016D01*
Y426720D01*
X786384D01*
Y416179D01*
D02*
G37*
G36*
X1298321Y829650D02*
X1307592D01*
Y798490D01*
X1298321D01*
Y796290D01*
X1277239D01*
Y808990D01*
X1267968D01*
Y819150D01*
X1277239D01*
Y831850D01*
X1298321D01*
Y829650D01*
D02*
G37*
G36*
X1345311Y830920D02*
X1354582D01*
Y799760D01*
X1345311D01*
Y797560D01*
X1324229D01*
Y810260D01*
X1314958D01*
Y820420D01*
X1324229D01*
Y833120D01*
X1345311D01*
Y830920D01*
D02*
G37*
G36*
X1508633Y877910D02*
X1517904D01*
Y846750D01*
X1508633D01*
Y844550D01*
X1487551D01*
Y857250D01*
X1478280D01*
Y867410D01*
X1487551D01*
Y880110D01*
X1508633D01*
Y877910D01*
D02*
G37*
G36*
X1519174Y793623D02*
X1472946D01*
Y816737D01*
X1519174D01*
Y793623D01*
D02*
G37*
G36*
X1779956Y564316D02*
X1770348Y554707D01*
X1776414Y548640D01*
X1770348Y542573D01*
X1779956Y532964D01*
X1689536Y442544D01*
X1679927Y452152D01*
X1673860Y446086D01*
X1667793Y452152D01*
X1658184Y442544D01*
X1567764Y532964D01*
X1577372Y542573D01*
X1571306Y548640D01*
X1577372Y554707D01*
X1567764Y564316D01*
X1658184Y654736D01*
X1667793Y645128D01*
X1673860Y651195D01*
X1679927Y645128D01*
X1689536Y654736D01*
X1779956Y564316D01*
D02*
G37*
G36*
X1024763Y647827D02*
X986917D01*
Y672973D01*
X1024763D01*
Y647827D01*
D02*
G37*
G36*
X1242949Y826770D02*
X1252220D01*
Y795610D01*
X1242949D01*
Y793410D01*
X1221867D01*
Y806110D01*
X1212596D01*
Y816270D01*
X1221867D01*
Y828970D01*
X1242949D01*
Y826770D01*
D02*
G37*
G36*
X1042898Y189360D02*
X1045430D01*
Y173280D01*
X1042898D01*
Y171930D01*
X1016882D01*
Y173280D01*
X1014350D01*
Y189360D01*
X1016882D01*
Y190710D01*
X1042898D01*
Y189360D01*
D02*
G37*
G36*
X1006148Y190920D02*
X1008680D01*
Y174840D01*
X1006148D01*
Y173490D01*
X980132D01*
Y174840D01*
X977600D01*
Y190920D01*
X980132D01*
Y192270D01*
X1006148D01*
Y190920D01*
D02*
G37*
G36*
X1046000Y303530D02*
X1054100D01*
Y295430D01*
X1056640D01*
Y235430D01*
X1054100D01*
Y227330D01*
X1046000D01*
Y224790D01*
X986000D01*
Y227330D01*
X977900D01*
Y235430D01*
X975360D01*
Y295430D01*
X977900D01*
Y303530D01*
X986000D01*
Y306070D01*
X1046000D01*
Y303530D01*
D02*
G37*
G36*
X501142Y164094D02*
X461518D01*
Y209306D01*
X501142D01*
Y164094D01*
D02*
G37*
G36*
X2031238Y110363D02*
X1988058D01*
Y133477D01*
X2031238D01*
Y110363D01*
D02*
G37*
G36*
X1860423Y185014D02*
X1870202D01*
Y155346D01*
X1860423D01*
Y152654D01*
X1837817D01*
Y155346D01*
X1828038D01*
Y185014D01*
X1837817D01*
Y187706D01*
X1860423D01*
Y185014D01*
D02*
G37*
G36*
X616306Y156118D02*
X571094D01*
Y195742D01*
X616306D01*
Y156118D01*
D02*
G37*
G36*
X518414Y381289D02*
X536829D01*
Y321091D01*
X518414D01*
Y310550D01*
X495046D01*
Y321091D01*
X476631D01*
Y381289D01*
X495046D01*
Y391830D01*
X518414D01*
Y381289D01*
D02*
G37*
G36*
X955294Y311023D02*
X909066D01*
Y334137D01*
X955294D01*
Y311023D01*
D02*
G37*
G36*
X1083437Y317246D02*
X1052703D01*
Y336296D01*
X1083437D01*
Y317246D01*
D02*
G37*
G36*
X901827Y265430D02*
X878713D01*
Y308610D01*
X901827D01*
Y265430D01*
D02*
G37*
G36*
X1841233Y267513D02*
X1841356Y267636D01*
X1857676Y251316D01*
X1857553Y251193D01*
X1863249Y245496D01*
X1850004Y232251D01*
X1844307Y237947D01*
X1844184Y237824D01*
X1827864Y254144D01*
X1827987Y254267D01*
X1822291Y259964D01*
X1835536Y273209D01*
X1841233Y267513D01*
D02*
G37*
G36*
X564134Y303819D02*
X582549D01*
Y243621D01*
X564134D01*
Y233080D01*
X540766D01*
Y243621D01*
X522351D01*
Y303819D01*
X540766D01*
Y314360D01*
X564134D01*
Y303819D01*
D02*
G37*
G36*
X858774Y317119D02*
X861949D01*
Y272161D01*
X858774D01*
Y257556D01*
X810006D01*
Y272161D01*
X806831D01*
Y317119D01*
X810006D01*
Y331724D01*
X858774D01*
Y317119D01*
D02*
G37*
G36*
X301244Y1327531D02*
X255016D01*
Y1359789D01*
X301244D01*
Y1327531D01*
D02*
G37*
G36*
X707898Y1335913D02*
X664718D01*
Y1359027D01*
X707898D01*
Y1335913D01*
D02*
G37*
G36*
X1719453Y1339342D02*
X1643507D01*
Y1490472D01*
X1719453D01*
Y1339342D01*
D02*
G37*
G36*
X1327598Y1315610D02*
X1279406D01*
Y1338690D01*
X1327598D01*
Y1315610D01*
D02*
G37*
G36*
X301498Y1294511D02*
X255270D01*
Y1326769D01*
X301498D01*
Y1294511D01*
D02*
G37*
G36*
X1697486Y1321276D02*
X1704010D01*
Y1310164D01*
X1697486D01*
Y1307954D01*
X1666954D01*
Y1310164D01*
X1660430D01*
Y1321276D01*
X1666954D01*
Y1323486D01*
X1697486D01*
Y1321276D01*
D02*
G37*
G36*
X1536726Y1326356D02*
X1543250D01*
Y1315244D01*
X1536726D01*
Y1313034D01*
X1506194D01*
Y1315244D01*
X1499670D01*
Y1326356D01*
X1506194D01*
Y1328566D01*
X1536726D01*
Y1326356D01*
D02*
G37*
G36*
X1026270Y1384816D02*
X1003190D01*
Y1433008D01*
X1026270D01*
Y1384816D01*
D02*
G37*
G36*
X1088009Y1450467D02*
X1102614D01*
Y1401953D01*
X1088009D01*
Y1398651D01*
X1043051D01*
Y1401953D01*
X1028446D01*
Y1450467D01*
X1043051D01*
Y1453769D01*
X1088009D01*
Y1450467D01*
D02*
G37*
G36*
X1327404Y1476629D02*
X1330579D01*
Y1431671D01*
X1327404D01*
Y1417066D01*
X1278636D01*
Y1431671D01*
X1275461D01*
Y1476629D01*
X1278636D01*
Y1491234D01*
X1327404D01*
Y1476629D01*
D02*
G37*
G36*
X361188Y1410970D02*
X371475D01*
Y1372870D01*
X361188D01*
Y1368298D01*
X360172D01*
Y1372870D01*
X349885D01*
Y1410970D01*
X360172D01*
Y1415542D01*
X361188D01*
Y1410970D01*
D02*
G37*
G36*
X1556893Y1340612D02*
X1480947D01*
Y1491742D01*
X1556893D01*
Y1340612D01*
D02*
G37*
G36*
X300990Y1360551D02*
X254762D01*
Y1392809D01*
X300990D01*
Y1360551D01*
D02*
G37*
G36*
X330327Y1367790D02*
X307213D01*
Y1410970D01*
X330327D01*
Y1367790D01*
D02*
G37*
G36*
X1599946Y975360D02*
X1549654D01*
Y1076960D01*
X1599946D01*
Y975360D01*
D02*
G37*
G36*
X1539724Y978472D02*
X1507468D01*
Y997648D01*
X1539724D01*
Y978472D01*
D02*
G37*
G36*
X301244Y1181481D02*
X255016D01*
Y1213739D01*
X301244D01*
Y1181481D01*
D02*
G37*
G36*
X1334180Y991489D02*
X1336380D01*
Y970407D01*
X1323680D01*
Y961136D01*
X1313520D01*
Y970407D01*
X1300820D01*
Y991489D01*
X1303020D01*
Y1000760D01*
X1334180D01*
Y991489D01*
D02*
G37*
G36*
X1310259Y941618D02*
X1324356D01*
Y874482D01*
X1310259D01*
Y872490D01*
X1260221D01*
Y874482D01*
X1246124D01*
Y941618D01*
X1260221D01*
Y943610D01*
X1310259D01*
Y941618D01*
D02*
G37*
G36*
X1510411Y922360D02*
X1519682D01*
Y891200D01*
X1510411D01*
Y889000D01*
X1489329D01*
Y901700D01*
X1480058D01*
Y911860D01*
X1489329D01*
Y924560D01*
X1510411D01*
Y922360D01*
D02*
G37*
G36*
Y964270D02*
X1519682D01*
Y933110D01*
X1510411D01*
Y930910D01*
X1489329D01*
Y943610D01*
X1480058D01*
Y953770D01*
X1489329D01*
Y966470D01*
X1510411D01*
Y964270D01*
D02*
G37*
G36*
X677037Y1275080D02*
X653923D01*
Y1318260D01*
X677037D01*
Y1275080D01*
D02*
G37*
G36*
X703707D02*
X680593D01*
Y1318260D01*
X703707D01*
Y1275080D01*
D02*
G37*
G36*
X729107D02*
X705993D01*
Y1318260D01*
X729107D01*
Y1275080D01*
D02*
G37*
G36*
X301244Y1247521D02*
X255016D01*
Y1279779D01*
X301244D01*
Y1247521D01*
D02*
G37*
G36*
Y1214501D02*
X255016D01*
Y1246759D01*
X301244D01*
Y1214501D01*
D02*
G37*
G36*
X1079500Y1225296D02*
X1056640D01*
Y1271524D01*
X1079500D01*
Y1225296D01*
D02*
G37*
G36*
X957580Y1226820D02*
X934720D01*
Y1273048D01*
X957580D01*
Y1226820D01*
D02*
G37*
D198*
X901827Y265430D02*
Y308610D01*
X878713D02*
X901827D01*
X878713Y265430D02*
Y308610D01*
Y265430D02*
X901827D01*
X536829Y321091D02*
Y381289D01*
X518414D02*
X536829D01*
X476631D02*
X495046D01*
X476631Y321091D02*
Y381289D01*
Y321091D02*
X495046D01*
X518414D02*
X536829D01*
X518414Y310550D02*
Y321091D01*
Y381289D02*
Y391830D01*
X495046D02*
X518414D01*
X495046Y381289D02*
Y391830D01*
Y310550D02*
Y321091D01*
Y310550D02*
X518414D01*
X804799Y355981D02*
Y416179D01*
X786384D02*
X804799D01*
X744601D02*
X763016D01*
X744601Y355981D02*
Y416179D01*
Y355981D02*
X763016D01*
X786384D02*
X804799D01*
X786384Y345440D02*
Y355981D01*
Y416179D02*
Y426720D01*
X763016D02*
X786384D01*
X763016Y416179D02*
Y426720D01*
Y345440D02*
Y355981D01*
Y345440D02*
X786384D01*
X865759Y354711D02*
Y414909D01*
X847344D02*
X865759D01*
X805561D02*
X823976D01*
X805561Y354711D02*
Y414909D01*
Y354711D02*
X823976D01*
X847344D02*
X865759D01*
X847344Y344170D02*
Y354711D01*
Y414909D02*
Y425450D01*
X823976D02*
X847344D01*
X823976Y414909D02*
Y425450D01*
Y344170D02*
Y354711D01*
Y344170D02*
X847344D01*
X664718Y1335913D02*
X707898D01*
Y1359027D01*
X664718D02*
X707898D01*
X664718Y1335913D02*
Y1359027D01*
X729107Y1275080D02*
Y1318260D01*
X705993D02*
X729107D01*
X705993Y1275080D02*
Y1318260D01*
Y1275080D02*
X729107D01*
X703707D02*
Y1318260D01*
X680593D02*
X703707D01*
X680593Y1275080D02*
Y1318260D01*
Y1275080D02*
X703707D01*
X677037D02*
Y1318260D01*
X653923D02*
X677037D01*
X653923Y1275080D02*
Y1318260D01*
Y1275080D02*
X677037D01*
X255016Y1247521D02*
Y1279779D01*
X301244D01*
Y1247521D02*
Y1279779D01*
X255016Y1247521D02*
X301244D01*
X255016Y1214501D02*
Y1246759D01*
X301244D01*
Y1214501D02*
Y1246759D01*
X255016Y1214501D02*
X301244D01*
X255016Y1181481D02*
Y1213739D01*
X301244D01*
Y1181481D02*
Y1213739D01*
X255016Y1181481D02*
X301244D01*
X255270Y1294511D02*
Y1326769D01*
X301498D01*
Y1294511D02*
Y1326769D01*
X255270Y1294511D02*
X301498D01*
X255016Y1327531D02*
Y1359789D01*
X301244D01*
Y1327531D02*
Y1359789D01*
X255016Y1327531D02*
X301244D01*
X254762Y1360551D02*
Y1392809D01*
X300990D01*
Y1360551D02*
Y1392809D01*
X254762Y1360551D02*
X300990D01*
X330327Y1367790D02*
Y1410970D01*
X307213D02*
X330327D01*
X307213Y1367790D02*
Y1410970D01*
Y1367790D02*
X330327D01*
X1988058Y110363D02*
X2031238D01*
Y133477D01*
X1988058D02*
X2031238D01*
X1988058Y110363D02*
Y133477D01*
X461518Y209306D02*
X501142D01*
Y164094D02*
Y209306D01*
X461518Y164094D02*
X501142D01*
X461518D02*
Y209306D01*
X616306Y156118D02*
Y195742D01*
X571094D02*
X616306D01*
X571094Y156118D02*
Y195742D01*
Y156118D02*
X616306D01*
X1822291Y259964D02*
X1835536Y273209D01*
X1841233Y267513D01*
X1857553Y251193D02*
X1863249Y245496D01*
X1850004Y232251D02*
X1863249Y245496D01*
X1844307Y237947D02*
X1850004Y232251D01*
X1822291Y259964D02*
X1827987Y254267D01*
X1827864Y254144D02*
X1827987Y254267D01*
X1841233Y267513D02*
X1841356Y267636D01*
X1857676Y251316D01*
X1857553Y251193D02*
X1857676Y251316D01*
X1844184Y237824D02*
X1844307Y237947D01*
X1827864Y254144D02*
X1844184Y237824D01*
X1666954Y1323486D02*
X1697486D01*
X1666954Y1321276D02*
Y1323486D01*
Y1307954D02*
Y1310164D01*
Y1307954D02*
X1697486D01*
Y1310164D01*
Y1321276D02*
Y1323486D01*
Y1321276D02*
X1704010D01*
X1660430D02*
X1666954D01*
X1660430Y1310164D02*
Y1321276D01*
Y1310164D02*
X1666954D01*
X1697486D02*
X1704010D01*
Y1321276D01*
X1506194Y1328566D02*
X1536726D01*
X1506194Y1326356D02*
Y1328566D01*
Y1313034D02*
Y1315244D01*
Y1313034D02*
X1536726D01*
Y1315244D01*
Y1326356D02*
Y1328566D01*
Y1326356D02*
X1543250D01*
X1499670D02*
X1506194D01*
X1499670Y1315244D02*
Y1326356D01*
Y1315244D02*
X1506194D01*
X1536726D02*
X1543250D01*
Y1326356D01*
X1472946Y793623D02*
Y816737D01*
X1519174D01*
Y793623D02*
Y816737D01*
X1472946Y793623D02*
X1519174D01*
X909066Y311023D02*
Y334137D01*
X955294D01*
Y311023D02*
Y334137D01*
X909066Y311023D02*
X955294D01*
X1056640Y1225296D02*
X1079500D01*
X1056640D02*
Y1271524D01*
X1079500D01*
Y1225296D02*
Y1271524D01*
X934720Y1226820D02*
X957580D01*
X934720D02*
Y1273048D01*
X957580D01*
Y1226820D02*
Y1273048D01*
X349885Y1410970D02*
X360172D01*
X349885Y1372870D02*
Y1410970D01*
Y1372870D02*
X360172D01*
X361188D02*
X371475D01*
Y1410970D01*
X361188D02*
X371475D01*
X360172D02*
Y1415542D01*
Y1368298D02*
Y1372870D01*
Y1368298D02*
X361188D01*
Y1372870D01*
Y1410970D02*
Y1415542D01*
X360172D02*
X361188D01*
X1719453Y1339342D02*
Y1490472D01*
X1643507Y1339342D02*
X1719453D01*
X1643507D02*
Y1490472D01*
X1719453D01*
X1556893Y1340612D02*
Y1491742D01*
X1480947Y1340612D02*
X1556893D01*
X1480947D02*
Y1491742D01*
X1556893D01*
X1539724Y978472D02*
Y997648D01*
X1507468Y978472D02*
X1539724D01*
X1507468D02*
Y997648D01*
X1539724D01*
X1052703Y317246D02*
X1083437D01*
Y336296D01*
X1052703D02*
X1083437D01*
X1052703Y317246D02*
Y336296D01*
X1104265Y372364D02*
Y403098D01*
X1085215D02*
X1104265D01*
X1085215Y372364D02*
Y403098D01*
Y372364D02*
X1104265D01*
Y339344D02*
Y370078D01*
X1085215D02*
X1104265D01*
X1085215Y339344D02*
Y370078D01*
Y339344D02*
X1104265D01*
X1327598Y1315610D02*
Y1338690D01*
X1279406D02*
X1327598D01*
X1279406Y1315610D02*
Y1338690D01*
Y1315610D02*
X1327598D01*
X1003190Y1433008D02*
X1026270D01*
X1003190Y1384816D02*
Y1433008D01*
Y1384816D02*
X1026270D01*
Y1433008D01*
X1571306Y548640D02*
X1577372Y554707D01*
X1567764Y564316D02*
X1577372Y554707D01*
X1567764Y564316D02*
X1658184Y654736D01*
X1667793Y645128D01*
X1673860Y651195D01*
Y446086D02*
X1679927Y452152D01*
X1689536Y442544D01*
X1779956Y532964D01*
X1770348Y542573D02*
X1779956Y532964D01*
X1770348Y542573D02*
X1776414Y548640D01*
X1673860Y651195D02*
X1679927Y645128D01*
X1689536Y654736D01*
X1779956Y564316D01*
X1770348Y554707D02*
X1779956Y564316D01*
X1770348Y554707D02*
X1776414Y548640D01*
X1571306D02*
X1577372Y542573D01*
X1567764Y532964D02*
X1577372Y542573D01*
X1567764Y532964D02*
X1658184Y442544D01*
X1667793Y452152D01*
X1673860Y446086D01*
X1354582Y799760D02*
Y830920D01*
X1345311Y799760D02*
X1354582D01*
X1345311Y830920D02*
X1354582D01*
X1345311Y797560D02*
Y799760D01*
Y830920D02*
Y833120D01*
X1324229D02*
X1345311D01*
X1324229Y820420D02*
Y833120D01*
X1314958Y820420D02*
X1324229D01*
X1314958Y810260D02*
Y820420D01*
Y810260D02*
X1324229D01*
Y797560D02*
Y810260D01*
Y797560D02*
X1345311D01*
X1303020Y1000760D02*
X1334180D01*
Y991489D02*
Y1000760D01*
X1303020Y991489D02*
Y1000760D01*
X1334180Y991489D02*
X1336380D01*
X1300820D02*
X1303020D01*
X1300820Y970407D02*
Y991489D01*
Y970407D02*
X1313520D01*
Y961136D02*
Y970407D01*
Y961136D02*
X1323680D01*
Y970407D01*
X1336380D01*
Y991489D01*
X1519682Y933110D02*
Y964270D01*
X1510411Y933110D02*
X1519682D01*
X1510411Y964270D02*
X1519682D01*
X1510411Y930910D02*
Y933110D01*
Y964270D02*
Y966470D01*
X1489329D02*
X1510411D01*
X1489329Y953770D02*
Y966470D01*
X1480058Y953770D02*
X1489329D01*
X1480058Y943610D02*
Y953770D01*
Y943610D02*
X1489329D01*
Y930910D02*
Y943610D01*
Y930910D02*
X1510411D01*
X1519682Y891200D02*
Y922360D01*
X1510411Y891200D02*
X1519682D01*
X1510411Y922360D02*
X1519682D01*
X1510411Y889000D02*
Y891200D01*
Y922360D02*
Y924560D01*
X1489329D02*
X1510411D01*
X1489329Y911860D02*
Y924560D01*
X1480058Y911860D02*
X1489329D01*
X1480058Y901700D02*
Y911860D01*
Y901700D02*
X1489329D01*
Y889000D02*
Y901700D01*
Y889000D02*
X1510411D01*
X1517904Y846750D02*
Y877910D01*
X1508633Y846750D02*
X1517904D01*
X1508633Y877910D02*
X1517904D01*
X1508633Y844550D02*
Y846750D01*
Y877910D02*
Y880110D01*
X1487551D02*
X1508633D01*
X1487551Y867410D02*
Y880110D01*
X1478280Y867410D02*
X1487551D01*
X1478280Y857250D02*
Y867410D01*
Y857250D02*
X1487551D01*
Y844550D02*
Y857250D01*
Y844550D02*
X1508633D01*
X1252220Y795610D02*
Y826770D01*
X1242949Y795610D02*
X1252220D01*
X1242949Y826770D02*
X1252220D01*
X1242949Y793410D02*
Y795610D01*
Y826770D02*
Y828970D01*
X1221867D02*
X1242949D01*
X1221867Y816270D02*
Y828970D01*
X1212596Y816270D02*
X1221867D01*
X1212596Y806110D02*
Y816270D01*
Y806110D02*
X1221867D01*
Y793410D02*
Y806110D01*
Y793410D02*
X1242949D01*
X1307592Y798490D02*
Y829650D01*
X1298321Y798490D02*
X1307592D01*
X1298321Y829650D02*
X1307592D01*
X1298321Y796290D02*
Y798490D01*
Y829650D02*
Y831850D01*
X1277239D02*
X1298321D01*
X1277239Y819150D02*
Y831850D01*
X1267968Y819150D02*
X1277239D01*
X1267968Y808990D02*
Y819150D01*
Y808990D02*
X1277239D01*
Y796290D02*
Y808990D01*
Y796290D02*
X1298321D01*
X241935Y589915D02*
X260985D01*
X241935Y586890D02*
Y589915D01*
X235712Y586890D02*
X241935D01*
X235712Y566270D02*
Y586890D01*
Y566270D02*
X241935D01*
Y563245D02*
Y566270D01*
Y563245D02*
X260985D01*
Y566270D01*
X267208D01*
Y586890D01*
X260985D02*
X267208D01*
X260985D02*
Y589915D01*
X1246124Y874482D02*
X1260221D01*
Y872490D02*
Y874482D01*
Y872490D02*
X1310259D01*
Y874482D01*
X1324356D01*
Y941618D01*
X1310259D02*
X1324356D01*
X1310259D02*
Y943610D01*
X1260221D02*
X1310259D01*
X1260221Y941618D02*
Y943610D01*
X1246124Y941618D02*
X1260221D01*
X1246124Y874482D02*
Y941618D01*
X1828038Y155346D02*
Y185014D01*
X1837817D01*
Y187706D01*
X1860423D01*
Y185014D02*
Y187706D01*
Y185014D02*
X1870202D01*
Y155346D02*
Y185014D01*
X1860423Y155346D02*
X1870202D01*
X1860423Y152654D02*
Y155346D01*
X1837817Y152654D02*
X1860423D01*
X1837817D02*
Y155346D01*
X1828038D02*
X1837817D01*
X1327404Y1417066D02*
Y1431671D01*
X1330579D01*
Y1476629D01*
X1327404D02*
X1330579D01*
X1327404D02*
Y1491234D01*
X1278636D02*
X1327404D01*
X1278636Y1476629D02*
Y1491234D01*
X1275461Y1476629D02*
X1278636D01*
X1275461Y1431671D02*
Y1476629D01*
Y1431671D02*
X1278636D01*
Y1417066D02*
Y1431671D01*
Y1417066D02*
X1327404D01*
X1028446Y1401953D02*
Y1450467D01*
Y1401953D02*
X1043051D01*
Y1398651D02*
Y1401953D01*
Y1398651D02*
X1088009D01*
Y1401953D01*
X1102614D01*
Y1450467D01*
X1088009D02*
X1102614D01*
X1088009D02*
Y1453769D01*
X1043051D02*
X1088009D01*
X1043051Y1450467D02*
Y1453769D01*
X1028446Y1450467D02*
X1043051D01*
X858774Y317119D02*
Y331724D01*
Y317119D02*
X861949D01*
Y272161D02*
Y317119D01*
X858774Y272161D02*
X861949D01*
X858774Y257556D02*
Y272161D01*
X810006Y257556D02*
X858774D01*
X810006D02*
Y272161D01*
X806831D02*
X810006D01*
X806831D02*
Y317119D01*
X810006D01*
Y331724D01*
X858774D01*
X977900Y227330D02*
Y235430D01*
X975360D02*
X977900D01*
X975360D02*
Y295430D01*
X977900D01*
Y303530D01*
X986000D01*
Y306070D01*
X1046000D01*
Y303530D02*
Y306070D01*
Y303530D02*
X1054100D01*
Y295430D02*
Y303530D01*
Y295430D02*
X1056640D01*
Y235430D02*
Y295430D01*
X1054100Y235430D02*
X1056640D01*
X1054100Y227330D02*
Y235430D01*
X1046000Y227330D02*
X1054100D01*
X1046000Y224790D02*
Y227330D01*
X986000Y224790D02*
X1046000D01*
X986000D02*
Y227330D01*
X977900D02*
X986000D01*
X980132Y192270D02*
X1006148D01*
Y190920D02*
Y192270D01*
Y173490D02*
Y174840D01*
X980132Y173490D02*
X1006148D01*
X980132D02*
Y174840D01*
Y190920D02*
Y192270D01*
X977600Y190920D02*
X980132D01*
X1006148D02*
X1008680D01*
Y174840D02*
Y190920D01*
X1006148Y174840D02*
X1008680D01*
X977600D02*
X980132D01*
X977600D02*
Y190920D01*
X1014350Y173280D02*
Y189360D01*
Y173280D02*
X1016882D01*
X1042898D02*
X1045430D01*
Y189360D01*
X1042898D02*
X1045430D01*
X1014350D02*
X1016882D01*
Y190710D01*
Y171930D02*
Y173280D01*
Y171930D02*
X1042898D01*
Y173280D01*
Y189360D02*
Y190710D01*
X1016882D02*
X1042898D01*
X1431684Y527220D02*
X1525078Y433825D01*
X1431684Y527220D02*
X1469401Y564937D01*
X1562796Y471542D01*
X1525078Y433825D02*
X1562796Y471542D01*
X582549Y243621D02*
Y303819D01*
X564134D02*
X582549D01*
X522351D02*
X540766D01*
X522351Y243621D02*
Y303819D01*
Y243621D02*
X540766D01*
X564134D02*
X582549D01*
X564134Y233080D02*
Y243621D01*
Y303819D02*
Y314360D01*
X540766D02*
X564134D01*
X540766Y303819D02*
Y314360D01*
Y233080D02*
Y243621D01*
Y233080D02*
X564134D01*
X1024763Y647827D02*
Y672973D01*
X986917Y647827D02*
X1024763D01*
X986917D02*
Y672973D01*
X1024763D01*
X478367Y565828D02*
Y632884D01*
Y565828D02*
X1101429D01*
Y632884D01*
X478367D02*
X1101429D01*
D308*
X1888485Y606425D02*
D03*
D309*
X1649095Y1228725D02*
D03*
D310*
X1893369Y532747D02*
D03*
Y518905D02*
D03*
Y505062D02*
D03*
Y491220D02*
D03*
X739281Y1214247D02*
D03*
X505841Y1356487D02*
D03*
D311*
X1458986Y400924D02*
D03*
X1445503Y415713D02*
D03*
X1525027Y615527D02*
D03*
X1516960Y623970D02*
D03*
D312*
X199517Y582789D02*
D03*
D313*
X1574400Y691460D02*
D03*
X1585830Y702890D02*
D03*
X1562523Y680477D02*
D03*
X1550270Y668600D02*
D03*
M02*
