G04 Layer_Color=8388736*
%FSLAX44Y44*%
%MOMM*%
G71*
G01*
G75*
%ADD17R,1.8034X0.4064*%
%ADD18R,1.8288X2.5654*%
%ADD19R,0.4064X1.8034*%
%ADD20R,1.1176X2.7178*%
%ADD24R,0.5334X1.1684*%
%ADD25R,0.9398X1.1684*%
G04:AMPARAMS|DCode=27|XSize=1.1112mm|YSize=0.4008mm|CornerRadius=0mm|HoleSize=0mm|Usage=FLASHONLY|Rotation=315.000|XOffset=0mm|YOffset=0mm|HoleType=Round|Shape=Rectangle|*
%AMROTATEDRECTD27*
4,1,4,-0.5346,0.2512,-0.2512,0.5346,0.5346,-0.2512,0.2512,-0.5346,-0.5346,0.2512,0.0*
%
%ADD27ROTATEDRECTD27*%

%ADD28R,0.8064X0.5500*%
%ADD31R,1.1176X1.8034*%
%ADD32R,1.7780X1.2700*%
%ADD38R,0.6048X0.9016*%
%ADD45R,1.0160X1.3970*%
%ADD46R,1.3970X0.8128*%
G04:AMPARAMS|DCode=49|XSize=0.2794mm|YSize=1.4732mm|CornerRadius=0mm|HoleSize=0mm|Usage=FLASHONLY|Rotation=225.000|XOffset=0mm|YOffset=0mm|HoleType=Round|Shape=Rectangle|*
%AMROTATEDRECTD49*
4,1,4,-0.4221,0.6196,0.6196,-0.4221,0.4221,-0.6196,-0.6196,0.4221,-0.4221,0.6196,0.0*
%
%ADD49ROTATEDRECTD49*%

G04:AMPARAMS|DCode=50|XSize=0.2794mm|YSize=1.4732mm|CornerRadius=0mm|HoleSize=0mm|Usage=FLASHONLY|Rotation=135.000|XOffset=0mm|YOffset=0mm|HoleType=Round|Shape=Rectangle|*
%AMROTATEDRECTD50*
4,1,4,0.6196,0.4221,-0.4221,-0.6196,-0.6196,-0.4221,0.4221,0.6196,0.6196,0.4221,0.0*
%
%ADD50ROTATEDRECTD50*%

%ADD51R,1.0160X0.5588*%
%ADD52R,0.5588X1.0160*%
%ADD53R,1.1684X0.3556*%
%ADD54R,1.6764X0.3556*%
%ADD56R,1.3208X0.5588*%
%ADD57R,0.5588X1.9812*%
%ADD60R,1.2700X0.3048*%
%ADD61R,0.3048X1.2700*%
%ADD62R,5.5880X5.5880*%
%ADD64R,0.3000X0.7024*%
%ADD65R,0.4000X0.7024*%
%ADD76R,1.1176X1.4986*%
%ADD82R,0.3302X2.5400*%
%ADD107C,1.5240*%
%ADD114C,1.3970*%
%ADD115R,1.3970X1.3970*%
%ADD132C,1.2700*%
%ADD144C,3.0480*%
%ADD218P,0.9945X4X360.0*%
%ADD219P,0.9945X4X270.0*%
%ADD220R,0.7032X0.7032*%
%ADD221R,0.7032X0.7032*%
%ADD222R,2.0032X2.5032*%
%ADD223R,1.5032X1.1032*%
%ADD224R,3.5032X2.7032*%
%ADD225R,0.6532X0.6032*%
%ADD226R,1.7532X3.2032*%
%ADD227R,1.1032X1.1532*%
%ADD228R,1.1032X1.1532*%
%ADD229R,1.7018X1.1938*%
%ADD230R,1.0032X1.0032*%
%ADD231R,1.4032X1.3032*%
%ADD232R,1.3032X1.4032*%
%ADD233R,0.9032X1.1032*%
%ADD234R,1.4032X0.7832*%
%ADD235R,1.1032X0.9032*%
%ADD236R,0.7032X0.8032*%
G04:AMPARAMS|DCode=237|XSize=0.7032mm|YSize=0.8032mm|CornerRadius=0mm|HoleSize=0mm|Usage=FLASHONLY|Rotation=45.000|XOffset=0mm|YOffset=0mm|HoleType=Round|Shape=Rectangle|*
%AMROTATEDRECTD237*
4,1,4,0.0353,-0.5326,-0.5326,0.0353,-0.0353,0.5326,0.5326,-0.0353,0.0353,-0.5326,0.0*
%
%ADD237ROTATEDRECTD237*%

%ADD238R,0.8032X0.7032*%
G04:AMPARAMS|DCode=239|XSize=0.7032mm|YSize=0.8032mm|CornerRadius=0mm|HoleSize=0mm|Usage=FLASHONLY|Rotation=315.000|XOffset=0mm|YOffset=0mm|HoleType=Round|Shape=Rectangle|*
%AMROTATEDRECTD239*
4,1,4,-0.5326,-0.0353,0.0353,0.5326,0.5326,0.0353,-0.0353,-0.5326,-0.5326,-0.0353,0.0*
%
%ADD239ROTATEDRECTD239*%

G04:AMPARAMS|DCode=240|XSize=1.8032mm|YSize=1.6032mm|CornerRadius=0mm|HoleSize=0mm|Usage=FLASHONLY|Rotation=135.000|XOffset=0mm|YOffset=0mm|HoleType=Round|Shape=Rectangle|*
%AMROTATEDRECTD240*
4,1,4,1.2044,-0.0707,0.0707,-1.2044,-1.2044,0.0707,-0.0707,1.2044,1.2044,-0.0707,0.0*
%
%ADD240ROTATEDRECTD240*%

%ADD241R,0.6032X1.8032*%
%ADD242R,1.7032X1.5032*%
%ADD243R,1.5032X1.7032*%
%ADD244R,0.3508X3.0988*%
%ADD245R,2.4892X3.6322*%
%ADD246R,0.5524X1.0548*%
%ADD247R,1.0548X0.5524*%
%ADD248R,1.0032X1.0032*%
%ADD249P,1.4187X4X270.0*%
G04:AMPARAMS|DCode=250|XSize=1.0032mm|YSize=1.0032mm|CornerRadius=0mm|HoleSize=0mm|Usage=FLASHONLY|Rotation=225.000|XOffset=0mm|YOffset=0mm|HoleType=Round|Shape=Rectangle|*
%AMROTATEDRECTD250*
4,1,4,0.0000,0.7094,0.7094,0.0000,0.0000,-0.7094,-0.7094,0.0000,0.0000,0.7094,0.0*
%
%ADD250ROTATEDRECTD250*%

%ADD251R,1.0032X1.0032*%
%ADD252R,1.0032X1.0032*%
%ADD253P,1.4187X4X180.0*%
G04:AMPARAMS|DCode=254|XSize=1.0032mm|YSize=1.0032mm|CornerRadius=0mm|HoleSize=0mm|Usage=FLASHONLY|Rotation=135.000|XOffset=0mm|YOffset=0mm|HoleType=Round|Shape=Rectangle|*
%AMROTATEDRECTD254*
4,1,4,0.7094,0.0000,0.0000,-0.7094,-0.7094,0.0000,0.0000,0.7094,0.7094,0.0000,0.0*
%
%ADD254ROTATEDRECTD254*%

%ADD255R,2.1032X0.8532*%
%ADD256R,1.4732X4.2032*%
G04:AMPARAMS|DCode=257|XSize=5.8032mm|YSize=2.3032mm|CornerRadius=0mm|HoleSize=0mm|Usage=FLASHONLY|Rotation=225.000|XOffset=0mm|YOffset=0mm|HoleType=Round|Shape=Rectangle|*
%AMROTATEDRECTD257*
4,1,4,1.2374,2.8660,2.8660,1.2374,-1.2374,-2.8660,-2.8660,-1.2374,1.2374,2.8660,0.0*
%
%ADD257ROTATEDRECTD257*%

%ADD258R,1.2192X2.7432*%
%ADD259R,2.7432X2.7432*%
%ADD260C,1.7272*%
%ADD261C,1.9032*%
%ADD262R,1.9032X1.9032*%
%ADD263C,2.9032*%
%ADD264C,1.5032*%
%ADD265C,3.4532*%
%ADD266C,1.7780*%
%ADD267C,1.1032*%
G04:AMPARAMS|DCode=268|XSize=3.2032mm|YSize=3.2032mm|CornerRadius=0.8516mm|HoleSize=0mm|Usage=FLASHONLY|Rotation=90.000|XOffset=0mm|YOffset=0mm|HoleType=Round|Shape=RoundedRectangle|*
%AMROUNDEDRECTD268*
21,1,3.2032,1.5000,0,0,90.0*
21,1,1.5000,3.2032,0,0,90.0*
1,1,1.7032,0.7500,0.7500*
1,1,1.7032,0.7500,-0.7500*
1,1,1.7032,-0.7500,-0.7500*
1,1,1.7032,-0.7500,0.7500*
%
%ADD268ROUNDEDRECTD268*%
%ADD269C,3.2032*%
%ADD270C,1.6032*%
%ADD271R,1.6032X1.6032*%
%ADD272C,5.2032*%
%ADD273O,4.2032X5.2032*%
%ADD274C,4.0032*%
%ADD275R,1.8032X1.8032*%
%ADD276C,1.8032*%
%ADD277C,4.2032*%
%ADD278C,2.2032*%
%ADD279O,2.2032X1.8032*%
%ADD280R,2.2032X1.8032*%
%ADD281O,1.8032X2.2032*%
%ADD282R,1.8032X2.2032*%
%ADD283C,1.4032*%
%ADD284R,2.4892X2.4892*%
%ADD285C,2.4892*%
%ADD286C,2.7032*%
%ADD287O,2.7032X2.8032*%
%ADD288C,2.0032*%
%ADD289C,2.4032*%
%ADD290R,2.7032X1.4032*%
%ADD291O,2.7032X1.4032*%
%ADD292C,3.2032*%
%ADD293O,3.5032X4.2032*%
%ADD294C,3.1496*%
G04:AMPARAMS|DCode=295|XSize=1.7272mm|YSize=4.0132mm|CornerRadius=0.4826mm|HoleSize=0mm|Usage=FLASHONLY|Rotation=90.000|XOffset=0mm|YOffset=0mm|HoleType=Round|Shape=RoundedRectangle|*
%AMROUNDEDRECTD295*
21,1,1.7272,3.0480,0,0,90.0*
21,1,0.7620,4.0132,0,0,90.0*
1,1,0.9652,1.5240,0.3810*
1,1,0.9652,1.5240,-0.3810*
1,1,0.9652,-1.5240,-0.3810*
1,1,0.9652,-1.5240,0.3810*
%
%ADD295ROUNDEDRECTD295*%
%ADD296C,1.9558*%
%ADD297C,12.2032*%
%ADD298C,7.4032*%
%ADD299C,6.2032*%
G36*
X990140Y175530D02*
X986140D01*
Y182030D01*
X990140D01*
Y175530D01*
D02*
G37*
G36*
X985140D02*
X981140D01*
Y182030D01*
X985140D01*
Y175530D01*
D02*
G37*
G36*
X995140D02*
X991140D01*
Y182030D01*
X995140D01*
Y175530D01*
D02*
G37*
G36*
X1005140D02*
X1001140D01*
Y182030D01*
X1005140D01*
Y175530D01*
D02*
G37*
G36*
X1000140D02*
X996140D01*
Y182030D01*
X1000140D01*
Y175530D01*
D02*
G37*
G36*
X1026890Y173970D02*
X1022890D01*
Y180470D01*
X1026890D01*
Y173970D01*
D02*
G37*
G36*
X1021890D02*
X1017890D01*
Y180470D01*
X1021890D01*
Y173970D01*
D02*
G37*
G36*
X1031890D02*
X1027890D01*
Y180470D01*
X1031890D01*
Y173970D01*
D02*
G37*
G36*
X1041890D02*
X1037890D01*
Y180470D01*
X1041890D01*
Y173970D01*
D02*
G37*
G36*
X1036890D02*
X1032890D01*
Y180470D01*
X1036890D01*
Y173970D01*
D02*
G37*
G36*
X990140Y183730D02*
X986140D01*
Y190230D01*
X990140D01*
Y183730D01*
D02*
G37*
G36*
X985140D02*
X981140D01*
Y190230D01*
X985140D01*
Y183730D01*
D02*
G37*
G36*
X995140D02*
X991140D01*
Y190230D01*
X995140D01*
Y183730D01*
D02*
G37*
G36*
X1005140D02*
X1001140D01*
Y190230D01*
X1005140D01*
Y183730D01*
D02*
G37*
G36*
X1000140D02*
X996140D01*
Y190230D01*
X1000140D01*
Y183730D01*
D02*
G37*
G36*
X1026890Y182170D02*
X1022890D01*
Y188670D01*
X1026890D01*
Y182170D01*
D02*
G37*
G36*
X1021890D02*
X1017890D01*
Y188670D01*
X1021890D01*
Y182170D01*
D02*
G37*
G36*
X1031890D02*
X1027890D01*
Y188670D01*
X1031890D01*
Y182170D01*
D02*
G37*
G36*
X1041890D02*
X1037890D01*
Y188670D01*
X1041890D01*
Y182170D01*
D02*
G37*
G36*
X1036890D02*
X1032890D01*
Y188670D01*
X1036890D01*
Y182170D01*
D02*
G37*
D17*
X890270Y304038D02*
D03*
Y270002D02*
D03*
X717550Y1313688D02*
D03*
Y1279652D02*
D03*
X692150Y1313688D02*
D03*
Y1279652D02*
D03*
X665480Y1313688D02*
D03*
Y1279652D02*
D03*
X318770Y1406398D02*
D03*
Y1372362D02*
D03*
D18*
X506730Y376463D02*
D03*
Y325917D02*
D03*
X774700Y411353D02*
D03*
Y360807D02*
D03*
X835660Y410083D02*
D03*
Y359537D02*
D03*
X552450Y298993D02*
D03*
Y248447D02*
D03*
D19*
X703326Y1347470D02*
D03*
X669290D02*
D03*
X2026666Y121920D02*
D03*
X1992630D02*
D03*
D20*
X263144Y1263650D02*
D03*
X293116D02*
D03*
X263144Y1230630D02*
D03*
X293116D02*
D03*
X263144Y1197610D02*
D03*
X293116D02*
D03*
X263398Y1310640D02*
D03*
X293370D02*
D03*
X263144Y1343660D02*
D03*
X293116D02*
D03*
X262890Y1376680D02*
D03*
X292862D02*
D03*
D24*
X603200Y165770D02*
D03*
X584200D02*
D03*
Y186090D02*
D03*
D25*
X601168D02*
D03*
D27*
X1834638Y260862D02*
D03*
X1850902Y244598D02*
D03*
D28*
X1665478Y1315720D02*
D03*
X1698962D02*
D03*
X1504718Y1320800D02*
D03*
X1538202D02*
D03*
D31*
X1481074Y805180D02*
D03*
X1511046D02*
D03*
X917194Y322580D02*
D03*
X947166D02*
D03*
D32*
X1068070Y1234186D02*
D03*
Y1262634D02*
D03*
X946150Y1235710D02*
D03*
Y1264158D02*
D03*
D38*
X1531620Y988060D02*
D03*
X1515572D02*
D03*
D45*
X1075817Y326771D02*
D03*
X1060323D02*
D03*
D46*
X1094740Y396494D02*
D03*
Y378968D02*
D03*
Y363474D02*
D03*
Y345948D02*
D03*
D49*
X1662405Y644948D02*
D03*
X1658869Y641412D02*
D03*
X1655334Y637877D02*
D03*
X1651798Y634341D02*
D03*
X1648263Y630806D02*
D03*
X1644727Y627270D02*
D03*
X1641192Y623735D02*
D03*
X1637656Y620199D02*
D03*
X1634121Y616664D02*
D03*
X1630585Y613128D02*
D03*
X1627050Y609593D02*
D03*
X1623514Y606057D02*
D03*
X1619978Y602522D02*
D03*
X1616443Y598986D02*
D03*
X1612907Y595451D02*
D03*
X1609372Y591915D02*
D03*
X1605836Y588379D02*
D03*
X1602301Y584844D02*
D03*
X1598765Y581308D02*
D03*
X1595230Y577773D02*
D03*
X1591694Y574237D02*
D03*
X1588159Y570702D02*
D03*
X1584623Y567166D02*
D03*
X1581088Y563631D02*
D03*
X1577552Y560095D02*
D03*
X1685315Y452332D02*
D03*
X1688851Y455868D02*
D03*
X1692386Y459403D02*
D03*
X1695922Y462939D02*
D03*
X1699457Y466474D02*
D03*
X1702993Y470010D02*
D03*
X1706528Y473545D02*
D03*
X1710064Y477081D02*
D03*
X1713599Y480616D02*
D03*
X1717135Y484152D02*
D03*
X1720670Y487687D02*
D03*
X1724206Y491223D02*
D03*
X1727742Y494758D02*
D03*
X1731277Y498294D02*
D03*
X1734813Y501829D02*
D03*
X1738348Y505365D02*
D03*
X1741884Y508901D02*
D03*
X1745419Y512436D02*
D03*
X1748955Y515972D02*
D03*
X1752490Y519507D02*
D03*
X1756026Y523043D02*
D03*
X1759561Y526578D02*
D03*
X1763097Y530114D02*
D03*
X1766632Y533649D02*
D03*
X1770168Y537185D02*
D03*
D50*
X1577552D02*
D03*
X1581088Y533649D02*
D03*
X1584623Y530114D02*
D03*
X1588159Y526578D02*
D03*
X1591694Y523043D02*
D03*
X1595230Y519507D02*
D03*
X1598765Y515972D02*
D03*
X1602301Y512436D02*
D03*
X1605836Y508901D02*
D03*
X1609372Y505365D02*
D03*
X1612907Y501829D02*
D03*
X1616443Y498294D02*
D03*
X1619978Y494758D02*
D03*
X1623514Y491223D02*
D03*
X1627050Y487687D02*
D03*
X1630585Y484152D02*
D03*
X1634121Y480616D02*
D03*
X1637656Y477081D02*
D03*
X1641192Y473545D02*
D03*
X1644727Y470010D02*
D03*
X1648263Y466474D02*
D03*
X1651798Y462939D02*
D03*
X1655334Y459403D02*
D03*
X1658869Y455868D02*
D03*
X1662405Y452332D02*
D03*
X1770168Y560095D02*
D03*
X1766632Y563631D02*
D03*
X1763097Y567166D02*
D03*
X1759561Y570702D02*
D03*
X1756026Y574237D02*
D03*
X1752490Y577773D02*
D03*
X1748955Y581308D02*
D03*
X1745419Y584844D02*
D03*
X1741884Y588379D02*
D03*
X1738348Y591915D02*
D03*
X1734813Y595451D02*
D03*
X1731277Y598986D02*
D03*
X1727742Y602522D02*
D03*
X1724206Y606057D02*
D03*
X1720670Y609593D02*
D03*
X1717135Y613128D02*
D03*
X1713599Y616664D02*
D03*
X1710064Y620199D02*
D03*
X1706528Y623735D02*
D03*
X1702993Y627270D02*
D03*
X1699457Y630806D02*
D03*
X1695922Y634341D02*
D03*
X1692386Y637877D02*
D03*
X1688851Y641412D02*
D03*
X1685315Y644948D02*
D03*
D51*
X1322578Y815340D02*
D03*
X1346962Y825840D02*
D03*
Y804840D02*
D03*
X1487678Y948690D02*
D03*
X1512062Y959190D02*
D03*
Y938190D02*
D03*
X1487678Y906780D02*
D03*
X1512062Y917280D02*
D03*
Y896280D02*
D03*
X1485900Y862330D02*
D03*
X1510284Y872830D02*
D03*
Y851830D02*
D03*
X1220216Y811190D02*
D03*
X1244600Y821690D02*
D03*
Y800690D02*
D03*
X1275588Y814070D02*
D03*
X1299972Y824570D02*
D03*
Y803570D02*
D03*
D52*
X1318600Y968756D02*
D03*
X1308100Y993140D02*
D03*
X1329100D02*
D03*
D53*
X241808Y570080D02*
D03*
Y583080D02*
D03*
X261112D02*
D03*
Y576580D02*
D03*
Y570080D02*
D03*
D54*
X1313434Y937300D02*
D03*
Y930800D02*
D03*
Y924300D02*
D03*
Y917800D02*
D03*
Y911300D02*
D03*
Y904800D02*
D03*
Y898300D02*
D03*
Y891800D02*
D03*
Y885300D02*
D03*
Y878800D02*
D03*
X1257046Y878800D02*
D03*
Y885300D02*
D03*
Y891800D02*
D03*
Y898300D02*
D03*
Y904800D02*
D03*
Y911300D02*
D03*
Y917800D02*
D03*
Y924300D02*
D03*
Y930800D02*
D03*
Y937300D02*
D03*
D56*
X1837182Y179680D02*
D03*
Y170180D02*
D03*
Y160680D02*
D03*
X1861058D02*
D03*
Y170180D02*
D03*
Y179680D02*
D03*
D57*
X1283970Y1478788D02*
D03*
X1296670D02*
D03*
X1309370D02*
D03*
X1322070D02*
D03*
Y1429512D02*
D03*
X1309370D02*
D03*
X1296670D02*
D03*
X1283970D02*
D03*
D60*
X979170Y292930D02*
D03*
Y287930D02*
D03*
Y282930D02*
D03*
Y277930D02*
D03*
Y272930D02*
D03*
Y267930D02*
D03*
Y262930D02*
D03*
Y257930D02*
D03*
Y252930D02*
D03*
Y247930D02*
D03*
Y242930D02*
D03*
Y237930D02*
D03*
X1052830D02*
D03*
Y242930D02*
D03*
Y247930D02*
D03*
Y252930D02*
D03*
Y257930D02*
D03*
Y262930D02*
D03*
Y267930D02*
D03*
Y272930D02*
D03*
Y277930D02*
D03*
Y282930D02*
D03*
Y287930D02*
D03*
Y292930D02*
D03*
D61*
X988500Y228600D02*
D03*
X993500D02*
D03*
X998500D02*
D03*
X1003500D02*
D03*
X1008500D02*
D03*
X1013500D02*
D03*
X1018500D02*
D03*
X1023500D02*
D03*
X1028500D02*
D03*
X1033500D02*
D03*
X1038500D02*
D03*
X1043500D02*
D03*
Y302260D02*
D03*
X1038500D02*
D03*
X1033500D02*
D03*
X1028500D02*
D03*
X1023500D02*
D03*
X1013500D02*
D03*
X1008500D02*
D03*
X998500D02*
D03*
X993500D02*
D03*
X988500D02*
D03*
X1018500D02*
D03*
X1003500D02*
D03*
D62*
X1016000Y265430D02*
D03*
D64*
X1003140Y187742D02*
D03*
X998140D02*
D03*
X988140D02*
D03*
X983140D02*
D03*
Y178018D02*
D03*
X988140D02*
D03*
X998140D02*
D03*
X1003140D02*
D03*
X1039890Y176458D02*
D03*
X1034890D02*
D03*
X1024890D02*
D03*
X1019890D02*
D03*
Y186182D02*
D03*
X1024890D02*
D03*
X1034890D02*
D03*
X1039890D02*
D03*
D65*
X993140Y187742D02*
D03*
Y178018D02*
D03*
X1029890Y176458D02*
D03*
Y186182D02*
D03*
D76*
X1014095Y660400D02*
D03*
X997585D02*
D03*
D82*
X1062398Y567776D02*
D03*
X1057398D02*
D03*
X1052398D02*
D03*
X1047398D02*
D03*
X1042398D02*
D03*
X1037398D02*
D03*
X1032398D02*
D03*
X1027398D02*
D03*
X1022398D02*
D03*
X1017398D02*
D03*
X1012398D02*
D03*
X1007398D02*
D03*
X1002398D02*
D03*
X997398D02*
D03*
X992398D02*
D03*
X987398D02*
D03*
X982398D02*
D03*
X977398D02*
D03*
X972398D02*
D03*
X967398D02*
D03*
X962398D02*
D03*
X957398D02*
D03*
X952398D02*
D03*
X947398D02*
D03*
X942398D02*
D03*
X937398D02*
D03*
X932398D02*
D03*
X927398D02*
D03*
X922398D02*
D03*
X917398D02*
D03*
X912398D02*
D03*
X907398D02*
D03*
X902398D02*
D03*
X897398D02*
D03*
X892398D02*
D03*
X887398D02*
D03*
X882398D02*
D03*
X877398D02*
D03*
X872398D02*
D03*
X867398D02*
D03*
X862398D02*
D03*
X857398D02*
D03*
X852398D02*
D03*
X847398D02*
D03*
X842398D02*
D03*
X837398D02*
D03*
X832398D02*
D03*
X827398D02*
D03*
X822398D02*
D03*
X817398D02*
D03*
X812398D02*
D03*
X807398D02*
D03*
X802398D02*
D03*
X797398D02*
D03*
X792398D02*
D03*
X787398D02*
D03*
X782398D02*
D03*
X777398D02*
D03*
X772398D02*
D03*
X767398D02*
D03*
X762398D02*
D03*
X757398D02*
D03*
X752398D02*
D03*
X747398D02*
D03*
X742398D02*
D03*
X737398D02*
D03*
X732398D02*
D03*
X727398D02*
D03*
X722398D02*
D03*
X717398D02*
D03*
X712398D02*
D03*
X707398D02*
D03*
X702398D02*
D03*
X697398D02*
D03*
X692398D02*
D03*
X687398D02*
D03*
X682398D02*
D03*
X677398D02*
D03*
X672398D02*
D03*
X667398D02*
D03*
X662398D02*
D03*
X657398D02*
D03*
X652398D02*
D03*
X647398D02*
D03*
X642398D02*
D03*
X637398D02*
D03*
X632398D02*
D03*
X627398D02*
D03*
X622398D02*
D03*
X617398D02*
D03*
X612398D02*
D03*
X607398D02*
D03*
X602398D02*
D03*
X597398D02*
D03*
X592398D02*
D03*
X587398D02*
D03*
X582398D02*
D03*
X577398D02*
D03*
X572398D02*
D03*
X567398D02*
D03*
X562398D02*
D03*
X557398D02*
D03*
X552398D02*
D03*
X547398D02*
D03*
X542398D02*
D03*
X537398D02*
D03*
X532398D02*
D03*
X527398D02*
D03*
X522398D02*
D03*
X517398D02*
D03*
X1062398Y630936D02*
D03*
X1057398D02*
D03*
X1052398D02*
D03*
X1047398D02*
D03*
X1042398D02*
D03*
X1037398D02*
D03*
X1032398D02*
D03*
X1027398D02*
D03*
X1022398D02*
D03*
X1017398D02*
D03*
X1012398D02*
D03*
X1007398D02*
D03*
X1002398D02*
D03*
X997398D02*
D03*
X992398D02*
D03*
X987398D02*
D03*
X982398D02*
D03*
X977398D02*
D03*
X972398D02*
D03*
X967398D02*
D03*
X962398D02*
D03*
X957398D02*
D03*
X952398D02*
D03*
X947398D02*
D03*
X942398D02*
D03*
X937398D02*
D03*
X932398D02*
D03*
X927398D02*
D03*
X922398D02*
D03*
X917398D02*
D03*
X912398D02*
D03*
X907398D02*
D03*
X902398D02*
D03*
X897398D02*
D03*
X892398D02*
D03*
X887398D02*
D03*
X882398D02*
D03*
X877398D02*
D03*
X872398D02*
D03*
X867398D02*
D03*
X862398D02*
D03*
X857398D02*
D03*
X852398D02*
D03*
X847398D02*
D03*
X842398D02*
D03*
X837398D02*
D03*
X832398D02*
D03*
X827398D02*
D03*
X822398D02*
D03*
X817398D02*
D03*
X812398D02*
D03*
X807398D02*
D03*
X802398D02*
D03*
X797398D02*
D03*
X792398D02*
D03*
X787398D02*
D03*
X782398D02*
D03*
X777398D02*
D03*
X772398D02*
D03*
X767398D02*
D03*
X762398D02*
D03*
X757398D02*
D03*
X752398D02*
D03*
X747398D02*
D03*
X742398D02*
D03*
X737398D02*
D03*
X732398D02*
D03*
X727398D02*
D03*
X722398D02*
D03*
X717398D02*
D03*
X712398D02*
D03*
X707398D02*
D03*
X702398D02*
D03*
X697398D02*
D03*
X692398D02*
D03*
X687398D02*
D03*
X682398D02*
D03*
X677398D02*
D03*
X672398D02*
D03*
X667398D02*
D03*
X662398D02*
D03*
X657398D02*
D03*
X652398D02*
D03*
X647398D02*
D03*
X642398D02*
D03*
X637398D02*
D03*
X632398D02*
D03*
X627398D02*
D03*
X622398D02*
D03*
X617398D02*
D03*
X612398D02*
D03*
X607398D02*
D03*
X602398D02*
D03*
X597398D02*
D03*
X592398D02*
D03*
X587398D02*
D03*
X582398D02*
D03*
X577398D02*
D03*
X572398D02*
D03*
X567398D02*
D03*
X562398D02*
D03*
X557398D02*
D03*
X552398D02*
D03*
X547398D02*
D03*
X542398D02*
D03*
X537398D02*
D03*
X532398D02*
D03*
X527398D02*
D03*
X522398D02*
D03*
X517398D02*
D03*
D107*
X1452339Y526321D02*
D03*
X1470299Y508361D02*
D03*
X1488259Y490401D02*
D03*
X1506220Y472440D02*
D03*
X1524181Y454479D02*
D03*
X1470299Y544282D02*
D03*
X1488259Y526321D02*
D03*
X1506220Y508361D02*
D03*
X1524180Y490401D02*
D03*
X1542141Y472440D02*
D03*
D114*
X1587500Y988060D02*
D03*
Y1013460D02*
D03*
Y1038860D02*
D03*
Y1064260D02*
D03*
X1562100Y988060D02*
D03*
Y1013460D02*
D03*
Y1038860D02*
D03*
D115*
Y1064260D02*
D03*
D132*
X1706880Y1351280D02*
D03*
Y1402080D02*
D03*
Y1427480D02*
D03*
Y1452880D02*
D03*
X1656080D02*
D03*
Y1427480D02*
D03*
Y1402080D02*
D03*
Y1351280D02*
D03*
X1544320Y1352550D02*
D03*
Y1403350D02*
D03*
Y1428750D02*
D03*
Y1454150D02*
D03*
X1493520D02*
D03*
Y1428750D02*
D03*
Y1403350D02*
D03*
Y1352550D02*
D03*
D144*
X440690Y1145540D02*
D03*
X1459230D02*
D03*
X440690Y422910D02*
D03*
X1802130Y551180D02*
D03*
D218*
X1621790Y679450D02*
D03*
X1614719Y686521D02*
D03*
D219*
X1736639Y429809D02*
D03*
X1743710Y436880D02*
D03*
X1356086Y514076D02*
D03*
X1349014Y507005D02*
D03*
X1810024Y453664D02*
D03*
X1817095Y460736D02*
D03*
X1772646Y416286D02*
D03*
X1765574Y409215D02*
D03*
D220*
X867410Y136560D02*
D03*
X857410D02*
D03*
X1349850Y640080D02*
D03*
X1339850D02*
D03*
X1333500Y754380D02*
D03*
X1343500D02*
D03*
X1318100Y638810D02*
D03*
X1308100D02*
D03*
X1376520Y640080D02*
D03*
X1366520D02*
D03*
X1531460Y1018540D02*
D03*
X1521460D02*
D03*
X1860710Y200660D02*
D03*
X1870710D02*
D03*
X1307940Y1405890D02*
D03*
X1297940D02*
D03*
X1562180Y176530D02*
D03*
X1572180D02*
D03*
X1582500D02*
D03*
X1592500D02*
D03*
X1392080Y322580D02*
D03*
X1402080D02*
D03*
X1371760D02*
D03*
X1381760D02*
D03*
D221*
X265430Y347300D02*
D03*
Y337300D02*
D03*
X302260Y347380D02*
D03*
Y337380D02*
D03*
X341630Y347300D02*
D03*
Y337300D02*
D03*
X379730Y346030D02*
D03*
Y336030D02*
D03*
X1139190Y402510D02*
D03*
Y392510D02*
D03*
X1153160Y402510D02*
D03*
Y392510D02*
D03*
X1168400Y402430D02*
D03*
Y392430D02*
D03*
X1181100Y402430D02*
D03*
Y392430D02*
D03*
X1395730Y642540D02*
D03*
Y632540D02*
D03*
X932180Y265510D02*
D03*
Y275510D02*
D03*
X431800Y287690D02*
D03*
Y277690D02*
D03*
X774700Y464740D02*
D03*
Y454740D02*
D03*
X414020Y189820D02*
D03*
Y179820D02*
D03*
X425450Y350000D02*
D03*
Y360000D02*
D03*
X1027430Y1230790D02*
D03*
Y1240790D02*
D03*
X641350Y1470500D02*
D03*
Y1460500D02*
D03*
X746760Y1470500D02*
D03*
Y1460500D02*
D03*
X905510Y1235870D02*
D03*
Y1245870D02*
D03*
X227330Y1407000D02*
D03*
Y1397000D02*
D03*
X1212850Y1468120D02*
D03*
Y1478120D02*
D03*
X1563370Y322500D02*
D03*
Y312500D02*
D03*
X1567180Y201930D02*
D03*
Y191930D02*
D03*
X1593850Y203120D02*
D03*
Y193120D02*
D03*
X1410970Y195420D02*
D03*
Y185420D02*
D03*
X1397000Y304640D02*
D03*
Y294640D02*
D03*
X1371600Y304720D02*
D03*
Y294720D02*
D03*
X586740Y514270D02*
D03*
Y504270D02*
D03*
D222*
X210820Y69400D02*
D03*
Y108400D02*
D03*
X862330Y61630D02*
D03*
Y100630D02*
D03*
D223*
X1045210Y1233830D02*
D03*
Y1252830D02*
D03*
X923290Y1235760D02*
D03*
Y1254760D02*
D03*
D224*
X933450Y240240D02*
D03*
Y171240D02*
D03*
X162560Y1518920D02*
D03*
Y1449920D02*
D03*
D225*
X801370Y190500D02*
D03*
X790870Y194500D02*
D03*
Y186500D02*
D03*
X710270Y185230D02*
D03*
X699770Y189230D02*
D03*
Y181230D02*
D03*
X721020Y185610D02*
D03*
X731520Y181610D02*
D03*
Y189610D02*
D03*
D226*
X215900Y1518870D02*
D03*
Y1480870D02*
D03*
D227*
X1113840Y1389380D02*
D03*
X1123340Y1414380D02*
D03*
X1004620Y1386840D02*
D03*
X1014120Y1411840D02*
D03*
D228*
X1132840Y1389380D02*
D03*
X1023620Y1386840D02*
D03*
D229*
X360680Y1376553D02*
D03*
Y1407287D02*
D03*
D230*
X899160Y318770D02*
D03*
X884160D02*
D03*
X1884861Y532874D02*
D03*
Y519032D02*
D03*
Y505189D02*
D03*
Y491347D02*
D03*
X747790Y1214120D02*
D03*
X514350Y1356360D02*
D03*
D231*
X457200Y324860D02*
D03*
Y355860D02*
D03*
X435610Y220900D02*
D03*
Y189900D02*
D03*
D232*
X257550Y1405890D02*
D03*
X288550D02*
D03*
D233*
X1060150Y378841D02*
D03*
X1073150D02*
D03*
X1066650Y397841D02*
D03*
X1061570Y345211D02*
D03*
X1074570D02*
D03*
X1068070Y364211D02*
D03*
X675490Y1210970D02*
D03*
X688490D02*
D03*
X681990Y1229970D02*
D03*
D234*
X477580Y1216660D02*
D03*
Y1229360D02*
D03*
Y1242060D02*
D03*
Y1254760D02*
D03*
X421580Y1216660D02*
D03*
Y1229360D02*
D03*
Y1242060D02*
D03*
Y1254760D02*
D03*
X478910Y1316990D02*
D03*
Y1329690D02*
D03*
Y1342390D02*
D03*
Y1355090D02*
D03*
X422910Y1316990D02*
D03*
Y1329690D02*
D03*
Y1342390D02*
D03*
Y1355090D02*
D03*
X450790Y287690D02*
D03*
Y274990D02*
D03*
Y262290D02*
D03*
Y249590D02*
D03*
X506790Y287690D02*
D03*
Y274990D02*
D03*
Y262290D02*
D03*
Y249590D02*
D03*
D235*
X1807870Y612290D02*
D03*
Y599290D02*
D03*
X1826870Y605790D02*
D03*
X1614170Y1363980D02*
D03*
Y1350980D02*
D03*
X1633170Y1357480D02*
D03*
X1454810Y1370480D02*
D03*
Y1357480D02*
D03*
X1473810Y1363980D02*
D03*
D236*
X1863010Y532130D02*
D03*
X1853010D02*
D03*
X1863010Y518160D02*
D03*
X1853010D02*
D03*
X1863010Y505460D02*
D03*
X1853010D02*
D03*
X1863010Y491490D02*
D03*
X1853010D02*
D03*
X1070690Y273050D02*
D03*
X1080690D02*
D03*
X1083390Y258160D02*
D03*
X1093390D02*
D03*
X1083390Y242920D02*
D03*
X1093390D02*
D03*
X1070690Y227330D02*
D03*
X1080690D02*
D03*
X732790Y1229360D02*
D03*
X722790D02*
D03*
X1798320Y626110D02*
D03*
X1808320D02*
D03*
X1910080Y1257300D02*
D03*
X1900080D02*
D03*
X1627980Y1452880D02*
D03*
X1617980D02*
D03*
X1466850Y1451610D02*
D03*
X1456850D02*
D03*
X1627980Y1400810D02*
D03*
X1617980D02*
D03*
X1466770Y1402080D02*
D03*
X1456770D02*
D03*
X1473200Y1320800D02*
D03*
X1483200D02*
D03*
X1849200Y1183640D02*
D03*
X1859200D02*
D03*
X2014380Y1457960D02*
D03*
X2024380D02*
D03*
D237*
X1496335Y391435D02*
D03*
X1503406Y398506D02*
D03*
X1481328Y423087D02*
D03*
X1474257Y416016D02*
D03*
X1468120Y438150D02*
D03*
X1461049Y431079D02*
D03*
X1435374Y447314D02*
D03*
X1442446Y454386D02*
D03*
X1366246Y524236D02*
D03*
X1373317Y531307D02*
D03*
D238*
X265430Y315790D02*
D03*
Y325790D02*
D03*
X302260Y315630D02*
D03*
Y325630D02*
D03*
X341630Y315710D02*
D03*
Y325710D02*
D03*
X379730Y315710D02*
D03*
Y325710D02*
D03*
X217170Y593010D02*
D03*
Y583010D02*
D03*
X1630680Y1111330D02*
D03*
Y1121330D02*
D03*
X1644650Y1111250D02*
D03*
Y1121250D02*
D03*
X1657350Y1111250D02*
D03*
Y1121250D02*
D03*
X946150Y265590D02*
D03*
Y275590D02*
D03*
X958850Y265510D02*
D03*
Y275510D02*
D03*
X704850Y1460500D02*
D03*
Y1470500D02*
D03*
X670560Y1470500D02*
D03*
Y1460500D02*
D03*
X803910Y1460500D02*
D03*
Y1470500D02*
D03*
X774700Y1470500D02*
D03*
Y1460500D02*
D03*
X1226820Y1478120D02*
D03*
Y1468120D02*
D03*
X1586230Y860900D02*
D03*
Y850900D02*
D03*
X1637030Y859710D02*
D03*
Y849710D02*
D03*
X1198880Y1478120D02*
D03*
Y1468120D02*
D03*
X1633220Y1325720D02*
D03*
Y1315720D02*
D03*
X1593850Y1353900D02*
D03*
Y1363900D02*
D03*
X1437640Y1360170D02*
D03*
Y1370170D02*
D03*
X1127760Y1459310D02*
D03*
Y1469310D02*
D03*
X1925320Y1468040D02*
D03*
Y1458040D02*
D03*
X1109980Y1459310D02*
D03*
Y1469310D02*
D03*
X1863090Y1459310D02*
D03*
Y1469310D02*
D03*
Y1324690D02*
D03*
Y1334690D02*
D03*
X1026160Y1459230D02*
D03*
Y1469230D02*
D03*
X1009650Y1459310D02*
D03*
Y1469310D02*
D03*
X524510Y1372950D02*
D03*
Y1382950D02*
D03*
D239*
X1592854Y667746D02*
D03*
X1599926Y660674D02*
D03*
X1603015Y677906D02*
D03*
X1610086Y670834D02*
D03*
X1538519Y612861D02*
D03*
X1545590Y605790D02*
D03*
X1529629Y603971D02*
D03*
X1536700Y596900D02*
D03*
X1582695Y657586D02*
D03*
X1589766Y650514D02*
D03*
X1572534Y647426D02*
D03*
X1579606Y640354D02*
D03*
D240*
X1404388Y449296D02*
D03*
X1360547Y493137D02*
D03*
X1425601Y470509D02*
D03*
X1381760Y514350D02*
D03*
D241*
X1390730Y732250D02*
D03*
X1384230D02*
D03*
X1377730D02*
D03*
X1371230D02*
D03*
X1364730D02*
D03*
X1358230D02*
D03*
X1351730D02*
D03*
X1345230D02*
D03*
X1338730D02*
D03*
X1332230D02*
D03*
X1390730Y666750D02*
D03*
X1384230D02*
D03*
X1377730D02*
D03*
X1371230D02*
D03*
X1364730D02*
D03*
X1358230D02*
D03*
X1351730D02*
D03*
X1345230D02*
D03*
X1338730D02*
D03*
X1332230D02*
D03*
X1613500Y292100D02*
D03*
X1607000D02*
D03*
X1600500D02*
D03*
X1594000D02*
D03*
X1587500D02*
D03*
X1581000D02*
D03*
X1574500D02*
D03*
X1568000D02*
D03*
X1561500D02*
D03*
X1555000D02*
D03*
X1613500Y226600D02*
D03*
X1607000D02*
D03*
X1600500D02*
D03*
X1594000D02*
D03*
X1587500D02*
D03*
X1581000D02*
D03*
X1574500D02*
D03*
X1568000D02*
D03*
X1561500D02*
D03*
X1555000D02*
D03*
X1351800Y211360D02*
D03*
X1358300D02*
D03*
X1364800D02*
D03*
X1371300D02*
D03*
X1377800D02*
D03*
X1384300D02*
D03*
X1390800D02*
D03*
X1397300D02*
D03*
X1403800D02*
D03*
X1410300D02*
D03*
X1351800Y276860D02*
D03*
X1358300D02*
D03*
X1364800D02*
D03*
X1371300D02*
D03*
X1377800D02*
D03*
X1384300D02*
D03*
X1390800D02*
D03*
X1397300D02*
D03*
X1403800D02*
D03*
X1410300D02*
D03*
D242*
X1948180Y1215390D02*
D03*
Y1240790D02*
D03*
X1858180Y1215390D02*
D03*
Y1240790D02*
D03*
X2015490Y1413510D02*
D03*
Y1438910D02*
D03*
X1925490Y1413510D02*
D03*
Y1438910D02*
D03*
D243*
X1888490Y1442550D02*
D03*
X1863090D02*
D03*
X1888490Y1352550D02*
D03*
X1863090D02*
D03*
D244*
X936600Y126310D02*
D03*
X941600D02*
D03*
X946600D02*
D03*
X951600D02*
D03*
X956600D02*
D03*
X961600D02*
D03*
X966600D02*
D03*
X971600D02*
D03*
X976600D02*
D03*
X981600D02*
D03*
X986600D02*
D03*
X991600D02*
D03*
X996600D02*
D03*
X1001600D02*
D03*
X1006600D02*
D03*
X1011600D02*
D03*
X1016600D02*
D03*
X1021600D02*
D03*
X1026600D02*
D03*
D245*
X321818Y1233170D02*
D03*
X381762D02*
D03*
X321818Y1329690D02*
D03*
X381762D02*
D03*
D246*
X722250Y223668D02*
D03*
X730250D02*
D03*
X678370Y243692D02*
D03*
X670370D02*
D03*
X678370Y223668D02*
D03*
X670370D02*
D03*
X778890Y243692D02*
D03*
X770890D02*
D03*
X778890Y223668D02*
D03*
X770890D02*
D03*
X730250Y243692D02*
D03*
X722250D02*
D03*
D247*
X1804818Y114490D02*
D03*
Y106490D02*
D03*
X1824842Y114490D02*
D03*
Y106490D02*
D03*
D248*
X1899861Y532874D02*
D03*
Y519032D02*
D03*
Y505189D02*
D03*
Y491347D02*
D03*
X732790Y1214120D02*
D03*
X499350Y1356360D02*
D03*
D249*
X1465093Y406851D02*
D03*
X1451610Y421640D02*
D03*
X1518920Y609600D02*
D03*
X1510853Y618043D02*
D03*
D250*
X1454486Y396245D02*
D03*
X1441003Y411033D02*
D03*
X1529527Y620207D02*
D03*
X1521460Y628650D02*
D03*
D251*
X199390Y574280D02*
D03*
D252*
Y589280D02*
D03*
D253*
X1580327Y685353D02*
D03*
X1591757Y696783D02*
D03*
X1568450Y674370D02*
D03*
X1556197Y662493D02*
D03*
D254*
X1569720Y695960D02*
D03*
X1581150Y707390D02*
D03*
X1557843Y684977D02*
D03*
X1545590Y673100D02*
D03*
D255*
X264160Y670560D02*
D03*
Y683260D02*
D03*
Y695960D02*
D03*
Y708660D02*
D03*
Y721360D02*
D03*
Y734060D02*
D03*
Y746760D02*
D03*
Y759460D02*
D03*
Y772160D02*
D03*
Y784860D02*
D03*
Y797560D02*
D03*
Y810260D02*
D03*
Y822960D02*
D03*
Y835660D02*
D03*
Y848360D02*
D03*
Y911810D02*
D03*
Y924510D02*
D03*
Y937210D02*
D03*
Y949910D02*
D03*
Y962610D02*
D03*
Y975310D02*
D03*
Y988010D02*
D03*
D256*
X1271900Y1151890D02*
D03*
X1251900D02*
D03*
X1231900D02*
D03*
X1211900D02*
D03*
X1191900D02*
D03*
X1171900D02*
D03*
X1151900D02*
D03*
D257*
X1848418Y445068D02*
D03*
X1781242Y377892D02*
D03*
D258*
X1101598Y599440D02*
D03*
D259*
X477520D02*
D03*
D260*
X360680Y1358900D02*
D03*
X1069340Y657860D02*
D03*
X507450Y101000D02*
D03*
X532450D02*
D03*
X552450D02*
D03*
X577450Y127200D02*
D03*
X552450D02*
D03*
X532450D02*
D03*
X507450D02*
D03*
X577450Y101000D02*
D03*
X1219200Y421640D02*
D03*
X1244600D02*
D03*
X1270000D02*
D03*
Y345440D02*
D03*
X1244600D02*
D03*
X1219200D02*
D03*
X1336040Y354330D02*
D03*
Y379730D02*
D03*
Y405130D02*
D03*
X1412240D02*
D03*
Y379730D02*
D03*
Y354330D02*
D03*
X523240Y359953D02*
D03*
D261*
X1430020Y845820D02*
D03*
Y871220D02*
D03*
Y896620D02*
D03*
Y922020D02*
D03*
Y947420D02*
D03*
X1404620Y845820D02*
D03*
Y871220D02*
D03*
Y896620D02*
D03*
Y922020D02*
D03*
D262*
Y947420D02*
D03*
D263*
X247730Y69240D02*
D03*
X410330D02*
D03*
D264*
X364530Y60340D02*
D03*
X354330Y78140D02*
D03*
X344230Y60340D02*
D03*
X334030Y78140D02*
D03*
X323930Y60340D02*
D03*
X313830Y78140D02*
D03*
X303630Y60340D02*
D03*
X293430Y78140D02*
D03*
D265*
X265530Y34940D02*
D03*
X392530D02*
D03*
D266*
X374730Y126340D02*
D03*
X397630D02*
D03*
X283330D02*
D03*
X260430D02*
D03*
D267*
X765410Y119630D02*
D03*
X740410D02*
D03*
X720410D02*
D03*
X695410D02*
D03*
X690410Y134630D02*
D03*
X710410D02*
D03*
X730410D02*
D03*
X750410D02*
D03*
X770410D02*
D03*
Y102630D02*
D03*
X750410D02*
D03*
X730410D02*
D03*
X710410D02*
D03*
X690410D02*
D03*
X695410Y87630D02*
D03*
X720410D02*
D03*
X740410D02*
D03*
X765410D02*
D03*
D268*
X796110Y67630D02*
D03*
Y124430D02*
D03*
X663440Y67630D02*
D03*
X664710Y124430D02*
D03*
D269*
X476750Y130700D02*
D03*
X608150D02*
D03*
X476750Y73900D02*
D03*
X608150D02*
D03*
D270*
X1068070Y1300480D02*
D03*
X1048070D02*
D03*
X1028070D02*
D03*
X946150Y1306830D02*
D03*
X926150D02*
D03*
X906150D02*
D03*
D271*
X1008070Y1300480D02*
D03*
X886150Y1306830D02*
D03*
D272*
X308610Y1515110D02*
D03*
Y1450110D02*
D03*
D273*
X261610Y1480110D02*
D03*
D274*
X1970790Y74930D02*
D03*
X1850390D02*
D03*
D275*
X1923090Y122030D02*
D03*
D276*
X1898090D02*
D03*
X1923090Y102030D02*
D03*
X1898090D02*
D03*
D277*
X1247140Y1531620D02*
D03*
X1297940D02*
D03*
X1348740D02*
D03*
X1721740Y124930D02*
D03*
X1473040Y125330D02*
D03*
X1722090Y45830D02*
D03*
X1473340Y45330D02*
D03*
X1392615Y131740D02*
D03*
X1143915Y132140D02*
D03*
X1392965Y52640D02*
D03*
X1144215Y52140D02*
D03*
D278*
X1639765Y113030D02*
D03*
X1542640Y141430D02*
D03*
X1570390Y141480D02*
D03*
X1598140D02*
D03*
X1625890D02*
D03*
X1653640D02*
D03*
X1556515Y46530D02*
D03*
X1584265D02*
D03*
X1612015D02*
D03*
X1639765D02*
D03*
X1542640Y74930D02*
D03*
X1570365D02*
D03*
X1598090D02*
D03*
X1625815D02*
D03*
X1653540D02*
D03*
X1556515Y113030D02*
D03*
X1584265D02*
D03*
X1612015D02*
D03*
X1310640Y119840D02*
D03*
X1213515Y148240D02*
D03*
X1241265Y148290D02*
D03*
X1269015D02*
D03*
X1296765D02*
D03*
X1324515D02*
D03*
X1227390Y53340D02*
D03*
X1255140D02*
D03*
X1282890D02*
D03*
X1310640D02*
D03*
X1213515Y81740D02*
D03*
X1241240D02*
D03*
X1268965D02*
D03*
X1296690D02*
D03*
X1324415D02*
D03*
X1227390Y119840D02*
D03*
X1255140D02*
D03*
X1282890D02*
D03*
X232600Y663346D02*
D03*
Y995070D02*
D03*
D279*
X1778000Y1224280D02*
D03*
Y1249680D02*
D03*
X2045970Y1197610D02*
D03*
Y1223010D02*
D03*
X1727200Y1240790D02*
D03*
X2019300Y1197610D02*
D03*
Y1223010D02*
D03*
X1433830Y673100D02*
D03*
Y698500D02*
D03*
D280*
X1778000Y1275080D02*
D03*
X2045970Y1248410D02*
D03*
X1727200Y1266190D02*
D03*
X2019300Y1248410D02*
D03*
X1433830Y723900D02*
D03*
D281*
X1874520Y1155700D02*
D03*
X1849120D02*
D03*
X1634490Y900430D02*
D03*
X1609090Y900430D02*
D03*
D282*
X1823720Y1155700D02*
D03*
X1583690Y900430D02*
D03*
D283*
X1868170Y605790D02*
D03*
X1908170D02*
D03*
D284*
X1456344Y1532890D02*
D03*
D285*
X1506959D02*
D03*
X1557574D02*
D03*
X1608190D02*
D03*
X1658805D02*
D03*
X1709420D02*
D03*
X1760035D02*
D03*
X1810650D02*
D03*
X1861266D02*
D03*
X1911881D02*
D03*
X1962496D02*
D03*
X2013111D02*
D03*
D286*
X1143470Y1531620D02*
D03*
X1093470D02*
D03*
X1043470D02*
D03*
X993470D02*
D03*
X486410Y1423670D02*
D03*
X556410D02*
D03*
D287*
X943470Y1531620D02*
D03*
D288*
X649330Y1545340D02*
D03*
X694330D02*
D03*
X799740D02*
D03*
X754740D02*
D03*
D289*
X636780Y1520440D02*
D03*
X706880D02*
D03*
X812290D02*
D03*
X742190D02*
D03*
D290*
X1666240Y1191260D02*
D03*
D291*
Y1216660D02*
D03*
Y1242060D02*
D03*
Y1267460D02*
D03*
D292*
X1054100Y57150D02*
D03*
X909100D02*
D03*
D293*
Y116750D02*
D03*
X1054100D02*
D03*
D294*
X767080Y1280160D02*
D03*
X293370Y1153160D02*
D03*
X605020Y1366520D02*
D03*
X405130Y1376680D02*
D03*
D295*
X240474Y642010D02*
D03*
X239966Y1016152D02*
D03*
D296*
X501354Y599356D02*
D03*
X1078442D02*
D03*
D297*
X178750Y1324750D02*
D03*
Y237750D02*
D03*
X1962750Y1324750D02*
D03*
Y237750D02*
D03*
D298*
X160750Y1140000D02*
D03*
Y422500D02*
D03*
X1980750D02*
D03*
Y1140000D02*
D03*
D299*
X379026Y1049079D02*
D03*
X1138682Y1047750D02*
D03*
X379223Y578358D02*
D03*
X1138202Y578356D02*
D03*
M02*
