G04 Layer_Color=0*
%FSLAX44Y44*%
%MOMM*%
G71*
G01*
G75*
%ADD11C,0.2540*%
%ADD196C,0.2000*%
%ADD214C,0.1500*%
%ADD306C,0.5000*%
D11*
X908950Y166240D02*
G03*
X908950Y166240I-1000J0D01*
G01*
X138060Y1444920D02*
G03*
X138060Y1444920I-1000J0D01*
G01*
X993070Y1283480D02*
G03*
X993070Y1283480I-1000J0D01*
G01*
X871150Y1289830D02*
G03*
X871150Y1289830I-1000J0D01*
G01*
X1771000Y1282980D02*
G03*
X1771000Y1282980I-1000J0D01*
G01*
X2038970Y1256310D02*
G03*
X2038970Y1256310I-1000J0D01*
G01*
X1720200Y1274490D02*
G03*
X1720200Y1274490I-1000J0D01*
G01*
X2012300Y1256310D02*
G03*
X2012300Y1256310I-1000J0D01*
G01*
X1816820Y1147700D02*
G03*
X1816820Y1147700I-1000J0D01*
G01*
X1418830Y723800D02*
G03*
X1418830Y723800I-1000J0D01*
G01*
X1059650Y378341D02*
G03*
X1059650Y378341I-1000J0D01*
G01*
X1061070Y344711D02*
G03*
X1061070Y344711I-1000J0D01*
G01*
X477580Y1216710D02*
G03*
X477580Y1216710I-1000J0D01*
G01*
X478910Y1317040D02*
G03*
X478910Y1317040I-1000J0D01*
G01*
X674990Y1210470D02*
G03*
X674990Y1210470I-1000J0D01*
G01*
X1808370Y613790D02*
G03*
X1808370Y613790I-1000J0D01*
G01*
X1614670Y1365480D02*
G03*
X1614670Y1365480I-1000J0D01*
G01*
X1455310Y1371980D02*
G03*
X1455310Y1371980I-1000J0D01*
G01*
X266280Y394980D02*
G03*
X266280Y394980I-1000J0D01*
G01*
X452790Y287640D02*
G03*
X452790Y287640I-1000J0D01*
G01*
X563750Y1315940D02*
G03*
X563750Y1315940I-1000J0D01*
G01*
X746380Y240680D02*
G03*
X746380Y240680I-1000J0D01*
G01*
X732250Y240680D02*
G03*
X732250Y240680I-1000J0D01*
G01*
X680370Y240680D02*
G03*
X680370Y240680I-1000J0D01*
G01*
X694500D02*
G03*
X694500Y240680I-1000J0D01*
G01*
X780890D02*
G03*
X780890Y240680I-1000J0D01*
G01*
X792290D02*
G03*
X792290Y240680I-1000J0D01*
G01*
X557340Y198170D02*
G03*
X557340Y198170I-1000J0D01*
G01*
X535750D02*
G03*
X535750Y198170I-1000J0D01*
G01*
X1808830Y115490D02*
G03*
X1808830Y115490I-1000J0D01*
G01*
X1584790Y884430D02*
G03*
X1584790Y884430I-1000J0D01*
G01*
X1035210Y1261330D02*
X1055210D01*
X1035210Y1225330D02*
Y1261330D01*
Y1225330D02*
X1055210D01*
Y1261330D01*
X913290Y1263260D02*
X933290D01*
X913290Y1227260D02*
Y1263260D01*
Y1227260D02*
X933290D01*
Y1263260D01*
X901450Y159740D02*
Y252240D01*
X965450D01*
Y159740D02*
Y252240D01*
X901450Y159740D02*
X965450D01*
X130560Y1438420D02*
Y1530920D01*
X194560D01*
Y1438420D02*
Y1530920D01*
X130560Y1438420D02*
X194560D01*
X411530Y-19660D02*
Y139340D01*
X247530Y-19660D02*
X411530D01*
X246530Y-18660D02*
X247530Y-19660D01*
X246530Y-18660D02*
Y139340D01*
X411530D01*
X608450Y-27700D02*
Y147300D01*
X476450D02*
X608450D01*
X476450Y-27700D02*
Y147300D01*
Y-27700D02*
X608450D01*
X261110Y1590110D02*
X353610D01*
Y1443610D02*
Y1590110D01*
X261110Y1443610D02*
X353610D01*
X261110D02*
Y1590110D01*
X1766000Y1286980D02*
X1790000D01*
Y1212380D02*
Y1286980D01*
X1766000Y1212380D02*
X1790000D01*
X1766000D02*
Y1286980D01*
X2033970Y1260310D02*
X2057970D01*
Y1185710D02*
Y1260310D01*
X2033970Y1185710D02*
X2057970D01*
X2033970D02*
Y1260310D01*
X1714200Y1278890D02*
X1740200D01*
Y1228090D02*
Y1278890D01*
X1714200Y1228090D02*
X1740200D01*
X1714200D02*
Y1278890D01*
X2007300Y1260310D02*
X2031300D01*
Y1185710D02*
Y1260310D01*
X2007300Y1185710D02*
X2031300D01*
X2007300D02*
Y1260310D01*
X1811820Y1143700D02*
Y1167700D01*
X1886420D01*
Y1143700D02*
Y1167700D01*
X1811820Y1143700D02*
X1886420D01*
X1407830Y736900D02*
X1460830D01*
Y660300D02*
Y736900D01*
X1407830Y660300D02*
X1460830D01*
X1407830D02*
Y736900D01*
X1053650Y374341D02*
X1079650D01*
Y402341D01*
X1053650D02*
X1079650D01*
X1053650Y374341D02*
Y402341D01*
X1055070Y340711D02*
X1081070D01*
Y368711D01*
X1055070D02*
X1081070D01*
X1055070Y340711D02*
Y368711D01*
X481580Y1210710D02*
Y1260710D01*
X417580D02*
X481580D01*
X417580Y1210710D02*
Y1260710D01*
Y1210710D02*
X481580D01*
X482910Y1311040D02*
Y1361040D01*
X418910D02*
X482910D01*
X418910Y1311040D02*
Y1361040D01*
Y1311040D02*
X482910D01*
X668990Y1206470D02*
X694990D01*
Y1234470D01*
X668990D02*
X694990D01*
X668990Y1206470D02*
Y1234470D01*
X1803370Y592790D02*
Y618790D01*
Y592790D02*
X1831370D01*
Y618790D01*
X1803370D02*
X1831370D01*
X1609670Y1344480D02*
Y1370480D01*
Y1344480D02*
X1637670D01*
Y1370480D01*
X1609670D02*
X1637670D01*
X1450310Y1350980D02*
Y1376980D01*
Y1350980D02*
X1478310D01*
Y1376980D01*
X1450310D02*
X1478310D01*
X247280Y239980D02*
Y403980D01*
Y239980D02*
X423280D01*
Y403980D01*
X247280Y403980D02*
X423280Y403980D01*
X446790Y243640D02*
Y293640D01*
Y243640D02*
X510790D01*
Y293640D01*
X446790D02*
X510790D01*
X566750Y1270940D02*
Y1324940D01*
X512750Y1270940D02*
X566750D01*
X512750D02*
Y1324940D01*
X566750D01*
X909100Y131750D02*
X1054100D01*
X909100Y21750D02*
Y131750D01*
Y21750D02*
X1054100D01*
Y131750D01*
X316790Y1198170D02*
Y1268170D01*
Y1198170D02*
X386790D01*
Y1268170D01*
X316790D02*
X386790D01*
X316790Y1294690D02*
X386790D01*
X316790D02*
Y1364690D01*
X386790D01*
Y1294690D02*
Y1364690D01*
X741380Y245680D02*
X759380D01*
Y221680D02*
Y245680D01*
X741380Y221680D02*
X759380D01*
X741380D02*
Y245680D01*
X735250Y221680D02*
Y245680D01*
X717250Y221680D02*
X735250D01*
X717250D02*
Y245680D01*
X735250D01*
X665370Y245680D02*
X683370D01*
X665370Y221680D02*
Y245680D01*
Y221680D02*
X683370D01*
Y245680D01*
X689500Y221680D02*
Y245680D01*
Y221680D02*
X707500D01*
Y245680D01*
X689500D02*
X707500D01*
X765890D02*
X783890D01*
X765890Y221680D02*
Y245680D01*
Y221680D02*
X783890D01*
Y245680D01*
X787290Y221680D02*
Y245680D01*
Y221680D02*
X805290D01*
Y245680D01*
X787290D02*
X805290D01*
X552340Y203170D02*
X570340D01*
Y179170D02*
Y203170D01*
X552340Y179170D02*
X570340D01*
X552340D02*
Y203170D01*
X530750Y179170D02*
Y203170D01*
Y179170D02*
X548750D01*
Y203170D01*
X530750D02*
X548750D01*
X1802830Y101490D02*
Y119490D01*
Y101490D02*
X1826830D01*
Y119490D01*
X1802830D02*
X1826830D01*
X1570690Y874430D02*
Y927430D01*
X1647290D01*
Y874430D02*
Y927430D01*
X1570690Y874430D02*
X1647290D01*
D196*
X1376620Y796520D02*
X1462520D01*
Y996720D01*
X1376620Y796520D02*
Y996720D01*
X1462520D01*
X988070Y1278980D02*
Y1315480D01*
X988070Y1278980D02*
X1088070D01*
X988070Y1315480D02*
X1088070D01*
Y1278980D02*
Y1315480D01*
X866150Y1285330D02*
Y1321830D01*
X866150Y1285330D02*
X966150D01*
X866150Y1321830D02*
X966150D01*
Y1285330D02*
Y1321830D01*
X636330Y1534890D02*
X707330D01*
X636330Y1571340D02*
X653830D01*
X636330Y1534890D02*
Y1571340D01*
X707330Y1534890D02*
Y1571340D01*
X689830D02*
X707330D01*
X653830D02*
Y1604340D01*
X689830Y1571340D02*
Y1604340D01*
X653830D02*
X689830D01*
X741740Y1534890D02*
X812740D01*
X759240Y1584340D02*
X795240D01*
Y1571340D02*
Y1584340D01*
X759240Y1571340D02*
Y1584340D01*
X795240Y1571340D02*
X812740D01*
Y1534890D02*
Y1571340D01*
X741740Y1534890D02*
Y1571340D01*
X759240D01*
D214*
X1614719Y693592D02*
X1628861Y679450D01*
X1621790Y672379D02*
X1628861Y679450D01*
X1607648Y686521D02*
X1621790Y672379D01*
X1607648Y686521D02*
X1614719Y693592D01*
X1736639Y422738D02*
X1750781Y436880D01*
X1729568Y429809D02*
X1736639Y422738D01*
X1729568Y429809D02*
X1743710Y443951D01*
X1750781Y436880D01*
X1341943Y507004D02*
X1356086Y521147D01*
X1363157Y514076D01*
X1349014Y499933D02*
X1363157Y514076D01*
X1341943Y507004D02*
X1349014Y499933D01*
X852410Y141560D02*
X872410D01*
Y131560D02*
Y141560D01*
X852410Y131560D02*
X872410D01*
X852410D02*
Y141560D01*
X260430Y332300D02*
Y352300D01*
X270430D01*
Y332300D02*
Y352300D01*
X260430Y332300D02*
X270430D01*
X297260Y332380D02*
Y352380D01*
X307260D01*
Y332380D02*
Y352380D01*
X297260Y332380D02*
X307260D01*
X336630Y332300D02*
Y352300D01*
X346630D01*
Y332300D02*
Y352300D01*
X336630Y332300D02*
X346630D01*
X374730Y331030D02*
Y351030D01*
X384730D01*
Y331030D02*
Y351030D01*
X374730Y331030D02*
X384730D01*
X1334850Y645080D02*
X1354850D01*
Y635080D02*
Y645080D01*
X1334850Y635080D02*
X1354850D01*
X1334850D02*
Y645080D01*
X1328500Y749380D02*
X1348500D01*
X1328500D02*
Y759380D01*
X1348500D01*
Y749380D02*
Y759380D01*
X1303100Y643810D02*
X1323100D01*
Y633810D02*
Y643810D01*
X1303100Y633810D02*
X1323100D01*
X1303100D02*
Y643810D01*
X1134190Y387510D02*
Y407510D01*
X1144190D01*
Y387510D02*
Y407510D01*
X1134190Y387510D02*
X1144190D01*
X1148160D02*
Y407510D01*
X1158160D01*
Y387510D02*
Y407510D01*
X1148160Y387510D02*
X1158160D01*
X1163400Y387430D02*
Y407430D01*
X1173400D01*
Y387430D02*
Y407430D01*
X1163400Y387430D02*
X1173400D01*
X1176100D02*
Y407430D01*
X1186100D01*
Y387430D02*
Y407430D01*
X1176100Y387430D02*
X1186100D01*
X1361520Y645080D02*
X1381520D01*
Y635080D02*
Y645080D01*
X1361520Y635080D02*
X1381520D01*
X1361520D02*
Y645080D01*
X1516460Y1023540D02*
X1536460D01*
Y1013540D02*
Y1023540D01*
X1516460Y1013540D02*
X1536460D01*
X1516460D02*
Y1023540D01*
X1390730Y627540D02*
Y647540D01*
X1400730D01*
Y627540D02*
Y647540D01*
X1390730Y627540D02*
X1400730D01*
X937180Y260510D02*
Y280510D01*
X927180Y260510D02*
X937180D01*
X927180D02*
Y280510D01*
X937180D01*
X426800Y272690D02*
Y292690D01*
X436800D01*
Y272690D02*
Y292690D01*
X426800Y272690D02*
X436800D01*
X769700Y449740D02*
Y469740D01*
X779700D01*
Y449740D02*
Y469740D01*
X769700Y449740D02*
X779700D01*
X783830Y284560D02*
X803830D01*
Y294560D01*
X783830D02*
X803830D01*
X783830Y284560D02*
Y294560D01*
Y298530D02*
X803830D01*
Y308530D01*
X783830D02*
X803830D01*
X783830Y298530D02*
Y308530D01*
X409020Y174820D02*
Y194820D01*
X419020D01*
Y174820D02*
Y194820D01*
X409020Y174820D02*
X419020D01*
X430450Y345000D02*
Y365000D01*
X420450Y345000D02*
X430450D01*
X420450D02*
Y365000D01*
X430450D01*
X585320Y1274430D02*
Y1288430D01*
X613320D01*
Y1274430D02*
Y1288430D01*
X585320Y1274430D02*
X613320D01*
X585710Y1273730D02*
X605710D01*
X585710Y1263730D02*
Y1273730D01*
Y1263730D02*
X605710D01*
Y1273730D01*
X446960Y1230710D02*
Y1250710D01*
X436960D02*
X446960D01*
X436960Y1230710D02*
Y1250710D01*
Y1230710D02*
X446960D01*
X440770Y1322150D02*
Y1342150D01*
Y1322150D02*
X450770D01*
Y1342150D01*
X440770D02*
X450770D01*
X585550Y1290400D02*
X605550D01*
Y1300400D01*
X585550D02*
X605550D01*
X585550Y1290400D02*
Y1300400D01*
X585710Y1335960D02*
X605710D01*
X585710Y1325960D02*
Y1335960D01*
Y1325960D02*
X605710D01*
Y1335960D01*
X1032430Y1225790D02*
Y1245790D01*
X1022430Y1225790D02*
X1032430D01*
X1022430D02*
Y1245790D01*
X1032430D01*
X636350Y1455500D02*
Y1475500D01*
X646350D01*
Y1455500D02*
Y1475500D01*
X636350Y1455500D02*
X646350D01*
X741760D02*
Y1475500D01*
X751760D01*
Y1455500D02*
Y1475500D01*
X741760Y1455500D02*
X751760D01*
X910510Y1230870D02*
Y1250870D01*
X900510Y1230870D02*
X910510D01*
X900510D02*
Y1250870D01*
X910510D01*
X222330Y1392000D02*
Y1412000D01*
X232330D01*
Y1392000D02*
Y1412000D01*
X222330Y1392000D02*
X232330D01*
X1855710Y195660D02*
X1875710D01*
X1855710D02*
Y205660D01*
X1875710D01*
Y195660D02*
Y205660D01*
X1217850Y1463120D02*
Y1483120D01*
X1207850Y1463120D02*
X1217850D01*
X1207850D02*
Y1483120D01*
X1217850D01*
X1292940Y1410890D02*
X1312940D01*
Y1400890D02*
Y1410890D01*
X1292940Y1400890D02*
X1312940D01*
X1292940D02*
Y1410890D01*
X1557180Y171530D02*
X1577180D01*
X1557180D02*
Y181530D01*
X1577180D01*
Y171530D02*
Y181530D01*
X1558370Y307500D02*
Y327500D01*
X1568370D01*
Y307500D02*
Y327500D01*
X1558370Y307500D02*
X1568370D01*
X1562180Y186930D02*
Y206930D01*
X1572180D01*
Y186930D02*
Y206930D01*
X1562180Y186930D02*
X1572180D01*
X1577500Y171530D02*
X1597500D01*
X1577500D02*
Y181530D01*
X1597500D01*
Y171530D02*
Y181530D01*
X1588850Y188120D02*
Y208120D01*
X1598850D01*
Y188120D02*
Y208120D01*
X1588850Y188120D02*
X1598850D01*
X1387080Y317580D02*
X1407080D01*
X1387080D02*
Y327580D01*
X1407080D01*
Y317580D02*
Y327580D01*
X1405970Y180420D02*
Y200420D01*
X1415970D01*
Y180420D02*
Y200420D01*
X1405970Y180420D02*
X1415970D01*
X1392000Y289640D02*
Y309640D01*
X1402000D01*
Y289640D02*
Y309640D01*
X1392000Y289640D02*
X1402000D01*
X1366760Y317580D02*
X1386760D01*
X1366760D02*
Y327580D01*
X1386760D01*
Y317580D02*
Y327580D01*
X1366600Y289720D02*
Y309720D01*
X1376600D01*
Y289720D02*
Y309720D01*
X1366600Y289720D02*
X1376600D01*
X1045130Y1451850D02*
Y1471850D01*
X1035130D02*
X1045130D01*
X1035130Y1451850D02*
Y1471850D01*
Y1451850D02*
X1045130D01*
X877660Y325770D02*
X905660D01*
Y311770D02*
Y325770D01*
X877660Y311770D02*
X905660D01*
X877660D02*
Y325770D01*
X1868010Y526130D02*
Y538130D01*
X1848010D02*
X1868010D01*
X1848010Y526130D02*
Y538130D01*
Y526130D02*
X1868010D01*
X1868010Y512160D02*
Y524160D01*
X1848010D02*
X1868010D01*
X1848010Y512160D02*
Y524160D01*
Y512160D02*
X1868010D01*
X1868010Y499460D02*
Y511460D01*
X1848010D02*
X1868010D01*
X1848010Y499460D02*
Y511460D01*
Y499460D02*
X1868010D01*
Y485490D02*
Y497490D01*
X1848010D02*
X1868010D01*
X1848010Y485490D02*
Y497490D01*
Y485490D02*
X1868010D01*
X1488556Y392142D02*
X1497042Y383656D01*
X1511184Y397798D01*
X1502698Y406284D02*
X1511184Y397798D01*
X1488556Y392142D02*
X1502698Y406284D01*
X1480621Y430865D02*
X1489106Y422380D01*
X1466479Y416723D02*
X1480621Y430865D01*
X1466479Y416723D02*
X1474964Y408238D01*
X1489106Y422380D01*
X1467413Y445928D02*
X1475898Y437443D01*
X1453271Y431786D02*
X1467413Y445928D01*
X1453271Y431786D02*
X1461756Y423301D01*
X1475898Y437443D01*
X1427596Y448022D02*
X1436082Y439536D01*
X1450224Y453678D01*
X1441738Y462164D02*
X1450224Y453678D01*
X1427596Y448022D02*
X1441738Y462164D01*
X1358467Y524943D02*
X1366953Y516457D01*
X1381095Y530600D01*
X1372610Y539085D02*
X1381095Y530600D01*
X1358467Y524943D02*
X1372610Y539085D01*
X259430Y310790D02*
X271430D01*
Y330790D01*
X259430D02*
X271430D01*
X259430Y310790D02*
Y330790D01*
X296260Y310630D02*
X308260D01*
Y330630D01*
X296260D02*
X308260D01*
X296260Y310630D02*
Y330630D01*
X335630Y310710D02*
X347630D01*
Y330710D01*
X335630D02*
X347630D01*
X335630Y310710D02*
Y330710D01*
X373730Y310710D02*
X385730D01*
Y330710D01*
X373730D02*
X385730D01*
X373730Y310710D02*
Y330710D01*
X211170Y598010D02*
X223170D01*
X211170Y578010D02*
Y598010D01*
Y578010D02*
X223170D01*
Y598010D01*
X1624680Y1106330D02*
X1636680D01*
Y1126330D01*
X1624680D02*
X1636680D01*
X1624680Y1106330D02*
Y1126330D01*
X1638650Y1106250D02*
X1650650D01*
Y1126250D01*
X1638650D02*
X1650650D01*
X1638650Y1106250D02*
Y1126250D01*
X1651350Y1106250D02*
X1663350D01*
Y1126250D01*
X1651350D02*
X1663350D01*
X1651350Y1106250D02*
Y1126250D01*
X940150Y260590D02*
X952150D01*
Y280590D01*
X940150D02*
X952150D01*
X940150Y260590D02*
Y280590D01*
X952850Y260510D02*
X964850D01*
Y280510D01*
X952850D02*
X964850D01*
X952850Y260510D02*
Y280510D01*
X1065690Y267050D02*
Y279050D01*
Y267050D02*
X1085690D01*
Y279050D01*
X1065690D02*
X1085690D01*
X1078390Y252160D02*
Y264160D01*
Y252160D02*
X1098390D01*
Y264160D01*
X1078390D02*
X1098390D01*
X1078390Y236920D02*
Y248920D01*
Y236920D02*
X1098390D01*
Y248920D01*
X1078390D02*
X1098390D01*
X1065690Y221330D02*
Y233330D01*
Y221330D02*
X1085690D01*
Y233330D01*
X1065690D02*
X1085690D01*
X564040Y1203040D02*
Y1215040D01*
X584040D01*
Y1203040D02*
Y1215040D01*
X564040Y1203040D02*
X584040D01*
X436960Y1218280D02*
Y1230280D01*
X456960D01*
Y1218280D02*
Y1230280D01*
X436960Y1218280D02*
X456960D01*
X460850Y1309720D02*
Y1321720D01*
X440850Y1309720D02*
X460850D01*
X440850D02*
Y1321720D01*
X460850D01*
X617570Y1248330D02*
X629570D01*
Y1228330D02*
Y1248330D01*
X617570Y1228330D02*
X629570D01*
X617570D02*
Y1248330D01*
X603600D02*
X615600D01*
Y1228330D02*
Y1248330D01*
X603600Y1228330D02*
X615600D01*
X603600D02*
Y1248330D01*
X546450Y1353900D02*
X558450D01*
X546450D02*
Y1373900D01*
X558450D01*
Y1353900D02*
Y1373900D01*
X541370Y1227060D02*
X553370D01*
X541370D02*
Y1247060D01*
X553370D01*
Y1227060D02*
Y1247060D01*
X517240Y1247060D02*
X529240D01*
Y1227060D02*
Y1247060D01*
X517240Y1227060D02*
X529240D01*
X517240D02*
Y1247060D01*
X528670D02*
X540670D01*
Y1227060D02*
Y1247060D01*
X528670Y1227060D02*
X540670D01*
X528670D02*
Y1247060D01*
X605550Y1312260D02*
Y1324260D01*
X585550Y1312260D02*
X605550D01*
X585550D02*
Y1324260D01*
X605550D01*
X605630Y1300830D02*
Y1312830D01*
X585630Y1300830D02*
X605630D01*
X585630D02*
Y1312830D01*
X605630D01*
X698850Y1455500D02*
X710850D01*
Y1475500D01*
X698850D02*
X710850D01*
X698850Y1455500D02*
Y1475500D01*
X664560D02*
X676560D01*
X664560Y1455500D02*
Y1475500D01*
Y1455500D02*
X676560D01*
Y1475500D01*
X797910Y1455500D02*
X809910D01*
Y1475500D01*
X797910D02*
X809910D01*
X797910Y1455500D02*
Y1475500D01*
X768700D02*
X780700D01*
X768700Y1455500D02*
Y1475500D01*
Y1455500D02*
X780700D01*
Y1475500D01*
X737790Y1223360D02*
Y1235360D01*
X717790D02*
X737790D01*
X717790Y1223360D02*
Y1235360D01*
Y1223360D02*
X737790D01*
X1220820Y1483120D02*
X1232820D01*
X1220820Y1463120D02*
Y1483120D01*
Y1463120D02*
X1232820D01*
Y1483120D01*
X1580230Y865900D02*
X1592230Y865900D01*
X1580230Y845900D02*
Y865900D01*
Y845900D02*
X1592230D01*
X1592230Y865900D01*
X1631030Y864710D02*
X1643030D01*
X1631030Y844710D02*
Y864710D01*
Y844710D02*
X1643030D01*
Y864710D01*
X1192880Y1483120D02*
X1204880D01*
X1192880Y1463120D02*
Y1483120D01*
Y1463120D02*
X1204880D01*
Y1483120D01*
X1793320Y620110D02*
Y632110D01*
Y620110D02*
X1813320D01*
Y632110D01*
X1793320D02*
X1813320D01*
X1915080Y1251300D02*
Y1263300D01*
X1895080D02*
X1915080D01*
X1895080Y1251300D02*
Y1263300D01*
Y1251300D02*
X1915080D01*
X1632980Y1446880D02*
Y1458880D01*
X1612980D02*
X1632980D01*
X1612980Y1446880D02*
Y1458880D01*
Y1446880D02*
X1632980D01*
X1471850Y1445610D02*
Y1457610D01*
X1451850D02*
X1471850D01*
X1451850Y1445610D02*
Y1457610D01*
Y1445610D02*
X1471850D01*
X1632980Y1394810D02*
Y1406810D01*
X1612980D02*
X1632980D01*
X1612980Y1394810D02*
Y1406810D01*
Y1394810D02*
X1632980D01*
X1627220Y1330720D02*
X1639220D01*
X1627220Y1310720D02*
Y1330720D01*
Y1310720D02*
X1639220D01*
Y1330720D01*
X1471770Y1396080D02*
Y1408080D01*
X1451770D02*
X1471770D01*
X1451770Y1396080D02*
Y1408080D01*
Y1396080D02*
X1471770D01*
X1468200Y1314800D02*
Y1326800D01*
Y1314800D02*
X1488200D01*
Y1326800D01*
X1468200D02*
X1488200D01*
X1844200Y1177640D02*
Y1189640D01*
Y1177640D02*
X1864200D01*
Y1189640D01*
X1844200D02*
X1864200D01*
X1587850Y1348900D02*
X1599850D01*
Y1368900D01*
X1587850D02*
X1599850D01*
X1587850Y1348900D02*
Y1368900D01*
X1431640Y1355170D02*
X1443640D01*
Y1375170D01*
X1431640D02*
X1443640D01*
X1431640Y1355170D02*
Y1375170D01*
X1805020Y1455500D02*
X1817020D01*
X1805020D02*
Y1475500D01*
X1817020D01*
Y1455500D02*
Y1475500D01*
X2009380Y1451960D02*
Y1463960D01*
Y1451960D02*
X2029380D01*
Y1463960D01*
X2009380D02*
X2029380D01*
X1121760Y1454310D02*
X1133760D01*
Y1474310D01*
X1121760D02*
X1133760D01*
X1121760Y1454310D02*
Y1474310D01*
X1806290Y1319690D02*
X1818290D01*
X1806290D02*
Y1339690D01*
X1818290D01*
Y1319690D02*
Y1339690D01*
X1919320Y1473040D02*
X1931320D01*
X1919320Y1453040D02*
Y1473040D01*
Y1453040D02*
X1931320D01*
Y1473040D01*
X1103980Y1454310D02*
X1115980D01*
Y1474310D01*
X1103980D02*
X1115980D01*
X1103980Y1454310D02*
Y1474310D01*
X1585076Y667038D02*
X1593562Y675524D01*
X1585076Y667038D02*
X1599218Y652896D01*
X1607704Y661382D01*
X1593562Y675524D02*
X1607704Y661382D01*
X1595236Y677198D02*
X1603722Y685684D01*
X1595236Y677198D02*
X1609378Y663056D01*
X1617864Y671542D01*
X1603722Y685684D02*
X1617864Y671542D01*
X1530741Y612154D02*
X1539226Y620639D01*
X1530741Y612154D02*
X1544883Y598012D01*
X1553368Y606497D01*
X1539226Y620639D02*
X1553368Y606497D01*
X1521851Y603264D02*
X1530336Y611749D01*
X1521851Y603264D02*
X1535993Y589122D01*
X1544478Y597607D01*
X1530336Y611749D02*
X1544478Y597607D01*
X1574916Y656878D02*
X1583402Y665364D01*
X1574916Y656878D02*
X1589058Y642736D01*
X1597544Y651222D01*
X1583402Y665364D02*
X1597544Y651222D01*
X1564756Y646718D02*
X1573242Y655204D01*
X1564756Y646718D02*
X1578898Y632576D01*
X1587384Y641062D01*
X1573242Y655204D02*
X1587384Y641062D01*
X1857090Y1454310D02*
X1869090D01*
Y1474310D01*
X1857090D02*
X1869090D01*
X1857090Y1454310D02*
Y1474310D01*
X2009220Y1451960D02*
Y1463960D01*
X2029220D01*
Y1451960D02*
Y1463960D01*
X2009220Y1451960D02*
X2029220D01*
X1857090Y1319690D02*
X1869090D01*
Y1339690D01*
X1857090D02*
X1869090D01*
X1857090Y1319690D02*
Y1339690D01*
X1020160Y1454230D02*
X1032160D01*
Y1474230D01*
X1020160D02*
X1032160D01*
X1020160Y1454230D02*
Y1474230D01*
X1919320Y1473120D02*
X1931320D01*
Y1453120D02*
Y1473120D01*
X1919320Y1453120D02*
X1931320D01*
X1919320D02*
Y1473120D01*
X1003650Y1454310D02*
X1015650D01*
Y1474310D01*
X1003650D02*
X1015650D01*
X1003650Y1454310D02*
Y1474310D01*
X581740Y499270D02*
Y519270D01*
X591740D01*
Y499270D02*
Y519270D01*
X581740Y499270D02*
X591740D01*
X518510Y1367950D02*
X530510D01*
Y1387950D01*
X518510D02*
X530510D01*
X518510Y1367950D02*
Y1387950D01*
X1810024Y446593D02*
X1824167Y460736D01*
X1802953Y453664D02*
X1810024Y446593D01*
X1802953Y453664D02*
X1817096Y467807D01*
X1824167Y460736D01*
X1758503Y409214D02*
X1772646Y423357D01*
X1779717Y416286D01*
X1765574Y402143D02*
X1779717Y416286D01*
X1758503Y409214D02*
X1765574Y402143D01*
D306*
X1384320Y989220D02*
G03*
X1384320Y989220I-1000J0D01*
G01*
M02*
