G04 Layer_Color=16711935*
%FSLAX44Y44*%
%MOMM*%
G71*
G01*
G75*
%ADD86C,0.5080*%
%ADD209C,0.1000*%
%ADD212C,0.0000*%
%ADD213C,0.0254*%
%ADD216C,0.0762*%
%ADD307R,2.9200X0.6147*%
D86*
X1559421Y485910D02*
G03*
X1559421Y485910I-3810J0D01*
G01*
D209*
X202070Y72150D02*
X219570D01*
X202070Y105650D02*
X219570D01*
X202070Y72150D02*
Y105650D01*
X219570Y72150D02*
Y105650D01*
X853580Y64380D02*
X871080D01*
X853580Y97880D02*
X871080D01*
X853580Y64380D02*
Y97880D01*
X871080Y64380D02*
Y97880D01*
X230500Y1477020D02*
Y1522720D01*
X201300Y1477020D02*
Y1522720D01*
X230500D01*
X201300Y1477020D02*
X230500D01*
D212*
X891032Y271272D02*
G03*
X891032Y271272I-762J0D01*
G01*
X507492Y328711D02*
G03*
X507492Y328711I-762J0D01*
G01*
X775462Y363601D02*
G03*
X775462Y363601I-762J0D01*
G01*
X836422Y362331D02*
G03*
X836422Y362331I-762J0D01*
G01*
X671322Y1347470D02*
G03*
X671322Y1347470I-762J0D01*
G01*
X718312Y1280922D02*
G03*
X718312Y1280922I-762J0D01*
G01*
X692912D02*
G03*
X692912Y1280922I-762J0D01*
G01*
X666242D02*
G03*
X666242Y1280922I-762J0D01*
G01*
X319532Y1373632D02*
G03*
X319532Y1373632I-762J0D01*
G01*
X1994662Y121920D02*
G03*
X1994662Y121920I-762J0D01*
G01*
X487045Y199146D02*
G03*
X487045Y199146I-1270J0D01*
G01*
X607416Y180375D02*
G03*
X607416Y180375I-1270J0D01*
G01*
X1068832Y1233932D02*
G03*
X1068832Y1233932I-762J0D01*
G01*
X946912Y1235456D02*
G03*
X946912Y1235456I-762J0D01*
G01*
X364109Y1375410D02*
G03*
X357251Y1375410I-3429J0D01*
G01*
Y1408430D02*
G03*
X364109Y1408430I3429J0D01*
G01*
X1701292Y1351280D02*
G03*
X1701292Y1351280I-762J0D01*
G01*
X1684528Y1339850D02*
G03*
X1678432Y1339850I-3048J0D01*
G01*
X1538732Y1352550D02*
G03*
X1538732Y1352550I-762J0D01*
G01*
X1521968Y1341120D02*
G03*
X1515872Y1341120I-3048J0D01*
G01*
X1531112Y988060D02*
G03*
X1531112Y988060I-762J0D01*
G01*
X1062355Y326771D02*
G03*
X1062355Y326771I-762J0D01*
G01*
X1319022Y1327150D02*
G03*
X1319022Y1327150I-762J0D01*
G01*
X1015492Y1423670D02*
G03*
X1015492Y1423670I-762J0D01*
G01*
X1341501Y802640D02*
G03*
X1341501Y802640I-1270J0D01*
G01*
X1332570Y986409D02*
G03*
X1332570Y986409I-1270J0D01*
G01*
X1506601Y935990D02*
G03*
X1506601Y935990I-1270J0D01*
G01*
Y894080D02*
G03*
X1506601Y894080I-1270J0D01*
G01*
X1504823Y849630D02*
G03*
X1504823Y849630I-1270J0D01*
G01*
X1239139Y798490D02*
G03*
X1239139Y798490I-1270J0D01*
G01*
X1294511Y801370D02*
G03*
X1294511Y801370I-1270J0D01*
G01*
X254508Y565785D02*
G03*
X248412Y565785I-3048J0D01*
G01*
X1282192Y941070D02*
G03*
X1288288Y941070I3048J0D01*
G01*
X1846072Y185166D02*
G03*
X1852168Y185166I3048J0D01*
G01*
X1278001Y1451102D02*
G03*
X1278001Y1457198I0J3048D01*
G01*
X1068578Y1401191D02*
G03*
X1062482Y1401191I-3048J0D01*
G01*
X809371Y291592D02*
G03*
X809371Y297688I0J3048D01*
G01*
X1006140Y185928D02*
G03*
X1006140Y179832I0J-3048D01*
G01*
X1042890Y184368D02*
G03*
X1042890Y178272I0J-3048D01*
G01*
X553212Y251241D02*
G03*
X553212Y251241I-762J0D01*
G01*
X1013587Y660400D02*
G03*
X1013587Y660400I-762J0D01*
G01*
D213*
X881253Y270002D02*
X899287D01*
X881253D02*
Y304038D01*
X899287D01*
Y270002D02*
Y304038D01*
X881253Y302006D02*
X881253Y304038D01*
X899287D01*
X899287Y302006D01*
X881253D02*
X899287D01*
X899287Y270002D02*
X899287Y272034D01*
X881253Y270002D02*
X899287D01*
X881253Y272034D02*
X881253Y270002D01*
X881253Y272034D02*
X899287D01*
X479171Y323631D02*
X534289D01*
X479171D02*
Y378749D01*
X534289D01*
Y323631D02*
Y378749D01*
X520509Y323631D02*
X534289Y337411D01*
X479171D02*
X492951Y323631D01*
X747141Y358521D02*
X802259D01*
X747141D02*
Y413639D01*
X802259D01*
Y358521D02*
Y413639D01*
X788480Y358521D02*
X802259Y372300D01*
X747141D02*
X760920Y358521D01*
X808101Y357251D02*
X863219D01*
X808101D02*
Y412369D01*
X863219D01*
Y357251D02*
Y412369D01*
X849439Y357251D02*
X863219Y371031D01*
X808101D02*
X821880Y357251D01*
X669290Y1338453D02*
Y1356487D01*
X703326D01*
Y1338453D02*
Y1356487D01*
X669290Y1338453D02*
X703326D01*
X701294Y1356487D02*
X703326D01*
Y1338453D02*
Y1356487D01*
X701294Y1338453D02*
X703326D01*
X701294D02*
Y1356487D01*
X669290Y1338453D02*
X671322D01*
X669290D02*
Y1356487D01*
X671322D01*
Y1338453D02*
Y1356487D01*
X708533Y1279652D02*
X726567D01*
X708533D02*
Y1313688D01*
X726567D01*
Y1279652D02*
Y1313688D01*
X708533Y1311656D02*
Y1313688D01*
X726567D01*
Y1311656D02*
Y1313688D01*
X708533Y1311656D02*
X726567D01*
Y1279652D02*
Y1281684D01*
X708533Y1279652D02*
X726567D01*
X708533D02*
Y1281684D01*
X726567D01*
X683133Y1279652D02*
X701167D01*
X683133D02*
Y1313688D01*
X701167D01*
Y1279652D02*
Y1313688D01*
X683133Y1311656D02*
Y1313688D01*
X701167D01*
Y1311656D02*
Y1313688D01*
X683133Y1311656D02*
X701167D01*
Y1279652D02*
Y1281684D01*
X683133Y1279652D02*
X701167D01*
X683133D02*
Y1281684D01*
X701167D01*
X656463Y1279652D02*
X674497D01*
X656463D02*
Y1313688D01*
X674497D01*
Y1279652D02*
Y1313688D01*
X656463Y1311656D02*
Y1313688D01*
X674497D01*
Y1311656D02*
Y1313688D01*
X656463Y1311656D02*
X674497D01*
Y1279652D02*
Y1281684D01*
X656463Y1279652D02*
X674497D01*
X656463D02*
Y1281684D01*
X674497D01*
X268732Y1250061D02*
Y1277239D01*
X261112D02*
X268732D01*
X261112Y1250061D02*
Y1277239D01*
Y1250061D02*
X268732D01*
X287528D02*
Y1277239D01*
Y1250061D02*
X295148D01*
Y1277239D01*
X287528D02*
X295148D01*
X261112Y1250061D02*
X295148D01*
Y1277239D01*
X261112D02*
X295148D01*
X261112Y1250061D02*
Y1277239D01*
X268732Y1217041D02*
Y1244219D01*
X261112D02*
X268732D01*
X261112Y1217041D02*
Y1244219D01*
Y1217041D02*
X268732D01*
X287528D02*
Y1244219D01*
Y1217041D02*
X295148D01*
Y1244219D01*
X287528D02*
X295148D01*
X261112Y1217041D02*
X295148D01*
Y1244219D01*
X261112D02*
X295148D01*
X261112Y1217041D02*
Y1244219D01*
X268732Y1184021D02*
Y1211199D01*
X261112D02*
X268732D01*
X261112Y1184021D02*
Y1211199D01*
Y1184021D02*
X268732D01*
X287528D02*
Y1211199D01*
Y1184021D02*
X295148D01*
Y1211199D01*
X287528D02*
X295148D01*
X261112Y1184021D02*
X295148D01*
Y1211199D01*
X261112D02*
X295148D01*
X261112Y1184021D02*
Y1211199D01*
X268986Y1297051D02*
Y1324229D01*
X261366D02*
X268986D01*
X261366Y1297051D02*
Y1324229D01*
Y1297051D02*
X268986D01*
X287782D02*
Y1324229D01*
Y1297051D02*
X295402D01*
Y1324229D01*
X287782D02*
X295402D01*
X261366Y1297051D02*
X295402D01*
Y1324229D01*
X261366D02*
X295402D01*
X261366Y1297051D02*
Y1324229D01*
X268732Y1330071D02*
Y1357249D01*
X261112D02*
X268732D01*
X261112Y1330071D02*
Y1357249D01*
Y1330071D02*
X268732D01*
X287528D02*
Y1357249D01*
Y1330071D02*
X295148D01*
Y1357249D01*
X287528D02*
X295148D01*
X261112Y1330071D02*
X295148D01*
Y1357249D01*
X261112D02*
X295148D01*
X261112Y1330071D02*
Y1357249D01*
X268478Y1363091D02*
Y1390269D01*
X260858D02*
X268478D01*
X260858Y1363091D02*
Y1390269D01*
Y1363091D02*
X268478D01*
X287274D02*
Y1390269D01*
Y1363091D02*
X294894D01*
Y1390269D01*
X287274D02*
X294894D01*
X260858Y1363091D02*
X294894D01*
Y1390269D01*
X260858D02*
X294894D01*
X260858Y1363091D02*
Y1390269D01*
X309753Y1372362D02*
X327787D01*
X309753D02*
Y1406398D01*
X327787D01*
Y1372362D02*
Y1406398D01*
X309753Y1404366D02*
Y1406398D01*
X327787D01*
Y1404366D02*
Y1406398D01*
X309753Y1404366D02*
X327787D01*
Y1372362D02*
Y1374394D01*
X309753Y1372362D02*
X327787D01*
X309753D02*
Y1374394D01*
X327787D01*
X1992630Y112903D02*
Y130937D01*
X2026666D01*
Y112903D02*
Y130937D01*
X1992630Y112903D02*
X2026666D01*
X2024634Y130937D02*
X2026666D01*
Y112903D02*
Y130937D01*
X2024634Y112903D02*
X2026666D01*
X2024634D02*
Y130937D01*
X1992630Y112903D02*
X1994662D01*
X1992630D02*
Y130937D01*
X1994662D01*
Y112903D02*
Y130937D01*
X474345Y201686D02*
X488315D01*
Y171714D02*
Y201686D01*
X474345Y171714D02*
X488315D01*
X474345D02*
Y201686D01*
X488315Y174787D02*
X493776D01*
Y179613D01*
X488315D02*
X493776D01*
X488315Y174787D02*
Y179613D01*
Y189723D02*
X493776D01*
Y198613D01*
X488315D02*
X493776D01*
X488315Y189723D02*
Y198613D01*
X468884Y179613D02*
X474345D01*
X468884Y174787D02*
Y179613D01*
Y174787D02*
X474345D01*
Y179613D01*
X468884Y198613D02*
X474345D01*
X468884Y193787D02*
Y198613D01*
Y193787D02*
X474345D01*
Y198613D01*
X608686Y168945D02*
Y182915D01*
X578714D02*
X608686D01*
X578714Y168945D02*
Y182915D01*
Y168945D02*
X608686D01*
X581787Y182915D02*
Y188376D01*
X586613D01*
Y182915D02*
Y188376D01*
X581787Y182915D02*
X586613D01*
X596723D02*
Y188376D01*
X605613D01*
Y182915D02*
Y188376D01*
X596723Y182915D02*
X605613D01*
X586613Y163484D02*
Y168945D01*
X581787Y163484D02*
X586613D01*
X581787D02*
Y168945D01*
X586613D01*
X605613Y163484D02*
Y168945D01*
X600787Y163484D02*
X605613D01*
X600787D02*
Y168945D01*
X605613D01*
X1835169Y257857D02*
X1837643Y260331D01*
X1834462Y263513D02*
X1837643Y260331D01*
X1831987Y261038D02*
X1834462Y263513D01*
X1831987Y261038D02*
X1835169Y257857D01*
X1847897Y245129D02*
X1850371Y247603D01*
X1847897Y245129D02*
X1851078Y241947D01*
X1853553Y244422D01*
X1850371Y247603D02*
X1853553Y244422D01*
X1838881Y261569D02*
X1843831D01*
X1833931Y251669D02*
Y256619D01*
X1831456Y254144D02*
X1844184Y241416D01*
X1854084Y251316D01*
X1841356Y264044D02*
X1854084Y251316D01*
X1831456Y254144D02*
X1841356Y264044D01*
X1696470Y1308970D02*
Y1322470D01*
X1667970Y1308970D02*
X1696470D01*
X1667970D02*
Y1322470D01*
X1696470D01*
X1693095D02*
X1696470Y1319095D01*
X1693095Y1308970D02*
X1696470Y1312345D01*
X1662970Y1312970D02*
X1667970D01*
X1662970D02*
Y1318470D01*
X1667970D01*
Y1312970D02*
Y1318470D01*
X1696470D02*
X1701470D01*
Y1312970D02*
Y1318470D01*
X1696470Y1312970D02*
X1701470D01*
X1696470D02*
Y1318470D01*
X1535710Y1314050D02*
Y1327550D01*
X1507210Y1314050D02*
X1535710D01*
X1507210D02*
Y1327550D01*
X1535710D01*
X1532335D02*
X1535710Y1324175D01*
X1532335Y1314050D02*
X1535710Y1317425D01*
X1502210Y1318050D02*
X1507210D01*
X1502210D02*
Y1323550D01*
X1507210D01*
Y1318050D02*
Y1323550D01*
X1535710D02*
X1540710D01*
Y1318050D02*
Y1323550D01*
X1535710Y1318050D02*
X1540710D01*
X1535710D02*
Y1323550D01*
X1486662Y796163D02*
Y814197D01*
X1479042D02*
X1486662D01*
X1479042Y796163D02*
Y814197D01*
Y796163D02*
X1486662D01*
X1505458D02*
Y814197D01*
Y796163D02*
X1513078D01*
Y814197D01*
X1505458D02*
X1513078D01*
X1479042Y796163D02*
X1513078D01*
Y814197D01*
X1479042D02*
X1513078D01*
X1479042Y796163D02*
Y814197D01*
X922782Y313563D02*
Y331597D01*
X915162D02*
X922782D01*
X915162Y313563D02*
Y331597D01*
Y313563D02*
X922782D01*
X941578D02*
Y331597D01*
Y313563D02*
X949198D01*
Y331597D01*
X941578D02*
X949198D01*
X915162Y313563D02*
X949198D01*
Y331597D01*
X915162D02*
X949198D01*
X915162Y313563D02*
Y331597D01*
X1059180Y1240536D02*
X1076960D01*
X1059180Y1231392D02*
Y1240536D01*
Y1231392D02*
X1076960D01*
Y1240536D01*
X1059180Y1256284D02*
X1076960D01*
Y1265428D01*
X1059180D02*
X1076960D01*
X1059180Y1256284D02*
Y1265428D01*
X1076960Y1231392D02*
Y1265428D01*
X1059180D02*
X1076960D01*
X1059180Y1231392D02*
Y1265428D01*
Y1231392D02*
X1076960D01*
X937260Y1242060D02*
X955040D01*
X937260Y1232916D02*
Y1242060D01*
Y1232916D02*
X955040D01*
Y1242060D01*
X937260Y1257808D02*
X955040D01*
Y1266952D01*
X937260D02*
X955040D01*
X937260Y1257808D02*
Y1266952D01*
X955040Y1232916D02*
Y1266952D01*
X937260D02*
X955040D01*
X937260Y1232916D02*
Y1266952D01*
Y1232916D02*
X955040D01*
X368935Y1375410D02*
Y1408430D01*
X352425Y1375410D02*
Y1408430D01*
X357251D01*
X352425Y1375410D02*
X357251D01*
X364109Y1408430D02*
X368935D01*
X364109Y1375410D02*
X368935D01*
X366395Y1408430D02*
X368935Y1405890D01*
X1549654Y1076960D02*
X1599946D01*
Y975360D02*
Y1076960D01*
X1549654Y975360D02*
X1599946D01*
X1549654D02*
Y1076960D01*
X1644015Y1489964D02*
X1718945D01*
X1644015Y1339850D02*
Y1489964D01*
Y1339850D02*
X1718945D01*
Y1489964D01*
X1481455Y1491234D02*
X1556385D01*
X1481455Y1341120D02*
Y1491234D01*
Y1341120D02*
X1556385D01*
Y1491234D01*
X1528596Y984060D02*
Y992060D01*
Y984060D02*
X1531596D01*
Y992060D01*
X1528596D02*
X1531596D01*
X1518596Y984060D02*
Y992060D01*
X1515596D02*
X1518596D01*
X1515596Y984060D02*
Y992060D01*
Y984060D02*
X1518596D01*
X1515596Y992060D02*
X1531596D01*
X1515596Y984060D02*
Y992060D01*
Y984060D02*
X1531596D01*
Y992060D01*
X1057275Y319786D02*
Y333756D01*
X1078865D01*
Y319786D02*
Y333756D01*
X1057275Y319786D02*
X1078865D01*
X1070737Y333756D02*
X1078865D01*
Y319786D02*
Y333756D01*
X1070737Y319786D02*
X1078865D01*
X1070737D02*
Y333756D01*
X1057275Y319786D02*
X1065403D01*
X1057275D02*
Y333756D01*
X1065403D01*
Y319786D02*
Y333756D01*
X1087755Y376936D02*
X1101725D01*
X1087755D02*
Y398526D01*
X1101725D01*
Y376936D02*
Y398526D01*
X1087755Y392430D02*
Y398526D01*
X1101725D01*
Y392430D02*
Y398526D01*
X1087755Y392430D02*
X1101725D01*
Y376936D02*
Y383032D01*
X1087755Y376936D02*
X1101725D01*
X1087755D02*
Y383032D01*
X1101725D01*
X1087755Y343916D02*
X1101725D01*
X1087755D02*
Y365506D01*
X1101725D01*
Y343916D02*
Y365506D01*
X1087755Y359410D02*
Y365506D01*
X1101725D01*
Y359410D02*
Y365506D01*
X1087755Y359410D02*
X1101725D01*
X1101725Y350012D02*
X1101725Y343916D01*
X1087755D02*
X1101725D01*
X1087755D02*
X1087755Y350012D01*
X1101725D01*
X1314002Y1318150D02*
Y1336150D01*
X1321502D01*
Y1318150D02*
Y1336150D01*
X1314002Y1318150D02*
X1321502D01*
X1293002D02*
Y1336150D01*
X1285502Y1318150D02*
X1293002D01*
X1285502D02*
Y1336150D01*
X1293002D01*
X1285502Y1318150D02*
X1321502D01*
X1285502D02*
Y1336150D01*
X1321502D01*
Y1318150D02*
Y1336150D01*
X1005730Y1419412D02*
X1023730D01*
X1005730D02*
Y1426912D01*
X1023730D01*
Y1419412D02*
Y1426912D01*
X1005730Y1398412D02*
X1023730D01*
Y1390912D02*
Y1398412D01*
X1005730Y1390912D02*
X1023730D01*
X1005730D02*
Y1398412D01*
X1023730Y1390912D02*
Y1426912D01*
X1005730Y1390912D02*
X1023730D01*
X1005730D02*
Y1426912D01*
X1023730D01*
X1764780Y556683D02*
X1766755Y554707D01*
X1773850Y561801D01*
X1771874Y563777D02*
X1773850Y561801D01*
X1764780Y556683D02*
X1771874Y563777D01*
X1761244Y560218D02*
X1763220Y558242D01*
X1770314Y565337D01*
X1768339Y567313D02*
X1770314Y565337D01*
X1761244Y560218D02*
X1768339Y567313D01*
X1757709Y563754D02*
X1759684Y561778D01*
X1766779Y568872D01*
X1764803Y570848D02*
X1766779Y568872D01*
X1757709Y563754D02*
X1764803Y570848D01*
X1754173Y567289D02*
X1756149Y565314D01*
X1763243Y572408D01*
X1761268Y574384D02*
X1763243Y572408D01*
X1754173Y567289D02*
X1761268Y574384D01*
X1750638Y570825D02*
X1752613Y568849D01*
X1759708Y575943D01*
X1757732Y577919D02*
X1759708Y575943D01*
X1750638Y570825D02*
X1757732Y577919D01*
X1747102Y574360D02*
X1749078Y572385D01*
X1756172Y579479D01*
X1754196Y581455D02*
X1756172Y579479D01*
X1747102Y574360D02*
X1754196Y581455D01*
X1743567Y577896D02*
X1745542Y575920D01*
X1752637Y583015D01*
X1750661Y584990D02*
X1752637Y583015D01*
X1743567Y577896D02*
X1750661Y584990D01*
X1740031Y581431D02*
X1742007Y579456D01*
X1749101Y586550D01*
X1747126Y588526D02*
X1749101Y586550D01*
X1740031Y581431D02*
X1747126Y588526D01*
X1736496Y584967D02*
X1738471Y582991D01*
X1745566Y590086D01*
X1743590Y592061D02*
X1745566Y590086D01*
X1736496Y584967D02*
X1743590Y592061D01*
X1732960Y588502D02*
X1734936Y586527D01*
X1742030Y593621D01*
X1740054Y595597D02*
X1742030Y593621D01*
X1732960Y588502D02*
X1740054Y595597D01*
X1729424Y592038D02*
X1731400Y590062D01*
X1738495Y597157D01*
X1736519Y599132D02*
X1738495Y597157D01*
X1729424Y592038D02*
X1736519Y599132D01*
X1725889Y595574D02*
X1727865Y593598D01*
X1734959Y600692D01*
X1732983Y602668D02*
X1734959Y600692D01*
X1725889Y595574D02*
X1732983Y602668D01*
X1722353Y599109D02*
X1724329Y597133D01*
X1731423Y604228D01*
X1729448Y606203D02*
X1731423Y604228D01*
X1722353Y599109D02*
X1729448Y606203D01*
X1718818Y602645D02*
X1720793Y600669D01*
X1727888Y607763D01*
X1725912Y609739D02*
X1727888Y607763D01*
X1718818Y602645D02*
X1725912Y609739D01*
X1715282Y606180D02*
X1717258Y604204D01*
X1724352Y611299D01*
X1722377Y613274D02*
X1724352Y611299D01*
X1715282Y606180D02*
X1722377Y613274D01*
X1711747Y609716D02*
X1713722Y607740D01*
X1720817Y614834D01*
X1718841Y616810D02*
X1720817Y614834D01*
X1711747Y609716D02*
X1718841Y616810D01*
X1708211Y613251D02*
X1710187Y611275D01*
X1717281Y618370D01*
X1715306Y620346D02*
X1717281Y618370D01*
X1708211Y613251D02*
X1715306Y620346D01*
X1704676Y616787D02*
X1706651Y614811D01*
X1713746Y621906D01*
X1711770Y623881D02*
X1713746Y621906D01*
X1704676Y616787D02*
X1711770Y623881D01*
X1701140Y620322D02*
X1703116Y618347D01*
X1710210Y625441D01*
X1708235Y627417D02*
X1710210Y625441D01*
X1701140Y620322D02*
X1708235Y627417D01*
X1697605Y623858D02*
X1699580Y621882D01*
X1706675Y628977D01*
X1704699Y630952D02*
X1706675Y628977D01*
X1697605Y623858D02*
X1704699Y630952D01*
X1694069Y627393D02*
X1696045Y625418D01*
X1703139Y632512D01*
X1701163Y634488D02*
X1703139Y632512D01*
X1694069Y627393D02*
X1701163Y634488D01*
X1690534Y630929D02*
X1692509Y628953D01*
X1699604Y636048D01*
X1697628Y638023D02*
X1699604Y636048D01*
X1690534Y630929D02*
X1697628Y638023D01*
X1686998Y634464D02*
X1688974Y632489D01*
X1696068Y639583D01*
X1694092Y641559D02*
X1696068Y639583D01*
X1686998Y634464D02*
X1694092Y641559D01*
X1683463Y638000D02*
X1685438Y636024D01*
X1692533Y643119D01*
X1690557Y645094D02*
X1692533Y643119D01*
X1683463Y638000D02*
X1690557Y645094D01*
X1679927Y641535D02*
X1681903Y639560D01*
X1688997Y646654D01*
X1687021Y648630D02*
X1688997Y646654D01*
X1679927Y641535D02*
X1687021Y648630D01*
X1665817Y639560D02*
X1667793Y641535D01*
X1660699Y648630D02*
X1667793Y641535D01*
X1658723Y646654D02*
X1660699Y648630D01*
X1658723Y646654D02*
X1665817Y639560D01*
X1662282Y636024D02*
X1664258Y638000D01*
X1657163Y645094D02*
X1664258Y638000D01*
X1655187Y643119D02*
X1657163Y645094D01*
X1655187Y643119D02*
X1662282Y636024D01*
X1658746Y632489D02*
X1660722Y634464D01*
X1653628Y641559D02*
X1660722Y634464D01*
X1651652Y639583D02*
X1653628Y641559D01*
X1651652Y639583D02*
X1658746Y632489D01*
X1655211Y628953D02*
X1657186Y630929D01*
X1650092Y638023D02*
X1657186Y630929D01*
X1648116Y636048D02*
X1650092Y638023D01*
X1648116Y636048D02*
X1655211Y628953D01*
X1651675Y625418D02*
X1653651Y627393D01*
X1646557Y634488D02*
X1653651Y627393D01*
X1644581Y632512D02*
X1646557Y634488D01*
X1644581Y632512D02*
X1651675Y625418D01*
X1648140Y621882D02*
X1650115Y623858D01*
X1643021Y630952D02*
X1650115Y623858D01*
X1641045Y628977D02*
X1643021Y630952D01*
X1641045Y628977D02*
X1648140Y621882D01*
X1644604Y618347D02*
X1646580Y620322D01*
X1639485Y627417D02*
X1646580Y620322D01*
X1637510Y625441D02*
X1639485Y627417D01*
X1637510Y625441D02*
X1644604Y618347D01*
X1641069Y614811D02*
X1643044Y616787D01*
X1635950Y623881D02*
X1643044Y616787D01*
X1633974Y621906D02*
X1635950Y623881D01*
X1633974Y621906D02*
X1641069Y614811D01*
X1637533Y611275D02*
X1639509Y613251D01*
X1632414Y620346D02*
X1639509Y613251D01*
X1630439Y618370D02*
X1632414Y620346D01*
X1630439Y618370D02*
X1637533Y611275D01*
X1633998Y607740D02*
X1635973Y609716D01*
X1628879Y616810D02*
X1635973Y609716D01*
X1626903Y614834D02*
X1628879Y616810D01*
X1626903Y614834D02*
X1633998Y607740D01*
X1630462Y604204D02*
X1632438Y606180D01*
X1625343Y613274D02*
X1632438Y606180D01*
X1623368Y611299D02*
X1625343Y613274D01*
X1623368Y611299D02*
X1630462Y604204D01*
X1626927Y600669D02*
X1628902Y602645D01*
X1621808Y609739D02*
X1628902Y602645D01*
X1619832Y607763D02*
X1621808Y609739D01*
X1619832Y607763D02*
X1626927Y600669D01*
X1623391Y597133D02*
X1625367Y599109D01*
X1618272Y606203D02*
X1625367Y599109D01*
X1616297Y604228D02*
X1618272Y606203D01*
X1616297Y604228D02*
X1623391Y597133D01*
X1619855Y593598D02*
X1621831Y595574D01*
X1614737Y602668D02*
X1621831Y595574D01*
X1612761Y600692D02*
X1614737Y602668D01*
X1612761Y600692D02*
X1619855Y593598D01*
X1616320Y590062D02*
X1618295Y592038D01*
X1611201Y599132D02*
X1618295Y592038D01*
X1609225Y597157D02*
X1611201Y599132D01*
X1609225Y597157D02*
X1616320Y590062D01*
X1612784Y586527D02*
X1614760Y588502D01*
X1607666Y595597D02*
X1614760Y588502D01*
X1605690Y593621D02*
X1607666Y595597D01*
X1605690Y593621D02*
X1612784Y586527D01*
X1609249Y582991D02*
X1611225Y584967D01*
X1604130Y592061D02*
X1611225Y584967D01*
X1602154Y590086D02*
X1604130Y592061D01*
X1602154Y590086D02*
X1609249Y582991D01*
X1605713Y579456D02*
X1607689Y581431D01*
X1600594Y588526D02*
X1607689Y581431D01*
X1598619Y586550D02*
X1600594Y588526D01*
X1598619Y586550D02*
X1605713Y579456D01*
X1602178Y575920D02*
X1604153Y577896D01*
X1597059Y584990D02*
X1604153Y577896D01*
X1595083Y583015D02*
X1597059Y584990D01*
X1595083Y583015D02*
X1602178Y575920D01*
X1598642Y572385D02*
X1600618Y574360D01*
X1593524Y581455D02*
X1600618Y574360D01*
X1591548Y579479D02*
X1593524Y581455D01*
X1591548Y579479D02*
X1598642Y572385D01*
X1595107Y568849D02*
X1597082Y570825D01*
X1589988Y577919D02*
X1597082Y570825D01*
X1588012Y575943D02*
X1589988Y577919D01*
X1588012Y575943D02*
X1595107Y568849D01*
X1591571Y565314D02*
X1593547Y567289D01*
X1586452Y574384D02*
X1593547Y567289D01*
X1584477Y572408D02*
X1586452Y574384D01*
X1584477Y572408D02*
X1591571Y565314D01*
X1588036Y561778D02*
X1590011Y563754D01*
X1582917Y570848D02*
X1590011Y563754D01*
X1580941Y568872D02*
X1582917Y570848D01*
X1580941Y568872D02*
X1588036Y561778D01*
X1584500Y558242D02*
X1586476Y560218D01*
X1579381Y567313D02*
X1586476Y560218D01*
X1577406Y565337D02*
X1579381Y567313D01*
X1577406Y565337D02*
X1584500Y558242D01*
X1580965Y554707D02*
X1582940Y556683D01*
X1575846Y563777D02*
X1582940Y556683D01*
X1573870Y561801D02*
X1575846Y563777D01*
X1573870Y561801D02*
X1580965Y554707D01*
Y542573D02*
X1582940Y540597D01*
X1573870Y535479D02*
X1580965Y542573D01*
X1573870Y535479D02*
X1575846Y533503D01*
X1582940Y540597D01*
X1584500Y539038D02*
X1586476Y537062D01*
X1577406Y531943D02*
X1584500Y539038D01*
X1577406Y531943D02*
X1579381Y529967D01*
X1586476Y537062D01*
X1588036Y535502D02*
X1590011Y533526D01*
X1580941Y528408D02*
X1588036Y535502D01*
X1580941Y528408D02*
X1582917Y526432D01*
X1590011Y533526D01*
X1591571Y531966D02*
X1593547Y529991D01*
X1584477Y524872D02*
X1591571Y531966D01*
X1584477Y524872D02*
X1586452Y522896D01*
X1593547Y529991D01*
X1595107Y528431D02*
X1597082Y526455D01*
X1588012Y521337D02*
X1595107Y528431D01*
X1588012Y521337D02*
X1589988Y519361D01*
X1597082Y526455D01*
X1598642Y524895D02*
X1600618Y522920D01*
X1591548Y517801D02*
X1598642Y524895D01*
X1591548Y517801D02*
X1593524Y515825D01*
X1600618Y522920D01*
X1602178Y521360D02*
X1604153Y519384D01*
X1595083Y514265D02*
X1602178Y521360D01*
X1595083Y514265D02*
X1597059Y512290D01*
X1604153Y519384D01*
X1605713Y517824D02*
X1607689Y515849D01*
X1598619Y510730D02*
X1605713Y517824D01*
X1598619Y510730D02*
X1600594Y508754D01*
X1607689Y515849D01*
X1609249Y514289D02*
X1611225Y512313D01*
X1602154Y507194D02*
X1609249Y514289D01*
X1602154Y507194D02*
X1604130Y505219D01*
X1611225Y512313D01*
X1612784Y510753D02*
X1614760Y508778D01*
X1605690Y503659D02*
X1612784Y510753D01*
X1605690Y503659D02*
X1607666Y501683D01*
X1614760Y508778D01*
X1616320Y507218D02*
X1618295Y505242D01*
X1609225Y500123D02*
X1616320Y507218D01*
X1609225Y500123D02*
X1611201Y498148D01*
X1618295Y505242D01*
X1619855Y503682D02*
X1621831Y501707D01*
X1612761Y496588D02*
X1619855Y503682D01*
X1612761Y496588D02*
X1614737Y494612D01*
X1621831Y501707D01*
X1623391Y500147D02*
X1625367Y498171D01*
X1616297Y493052D02*
X1623391Y500147D01*
X1616297Y493052D02*
X1618272Y491077D01*
X1625367Y498171D01*
X1626927Y496611D02*
X1628902Y494635D01*
X1619832Y489517D02*
X1626927Y496611D01*
X1619832Y489517D02*
X1621808Y487541D01*
X1628902Y494635D01*
X1630462Y493075D02*
X1632438Y491100D01*
X1623368Y485981D02*
X1630462Y493075D01*
X1623368Y485981D02*
X1625343Y484006D01*
X1632438Y491100D01*
X1633998Y489540D02*
X1635973Y487564D01*
X1626903Y482446D02*
X1633998Y489540D01*
X1626903Y482446D02*
X1628879Y480470D01*
X1635973Y487564D01*
X1637533Y486004D02*
X1639509Y484029D01*
X1630439Y478910D02*
X1637533Y486004D01*
X1630439Y478910D02*
X1632414Y476934D01*
X1639509Y484029D01*
X1641069Y482469D02*
X1643044Y480493D01*
X1633974Y475374D02*
X1641069Y482469D01*
X1633974Y475374D02*
X1635950Y473399D01*
X1643044Y480493D01*
X1644604Y478933D02*
X1646580Y476958D01*
X1637510Y471839D02*
X1644604Y478933D01*
X1637510Y471839D02*
X1639485Y469863D01*
X1646580Y476958D01*
X1648140Y475398D02*
X1650115Y473422D01*
X1641045Y468303D02*
X1648140Y475398D01*
X1641045Y468303D02*
X1643021Y466328D01*
X1650115Y473422D01*
X1651675Y471862D02*
X1653651Y469887D01*
X1644581Y464768D02*
X1651675Y471862D01*
X1644581Y464768D02*
X1646557Y462792D01*
X1653651Y469887D01*
X1655211Y468327D02*
X1657186Y466351D01*
X1648116Y461232D02*
X1655211Y468327D01*
X1648116Y461232D02*
X1650092Y459257D01*
X1657186Y466351D01*
X1658746Y464791D02*
X1660722Y462816D01*
X1651652Y457697D02*
X1658746Y464791D01*
X1651652Y457697D02*
X1653628Y455721D01*
X1660722Y462816D01*
X1662282Y461256D02*
X1664258Y459280D01*
X1655187Y454161D02*
X1662282Y461256D01*
X1655187Y454161D02*
X1657163Y452186D01*
X1664258Y459280D01*
X1665817Y457720D02*
X1667793Y455745D01*
X1658723Y450626D02*
X1665817Y457720D01*
X1658723Y450626D02*
X1660699Y448650D01*
X1667793Y455745D01*
X1679927D02*
X1681903Y457720D01*
X1679927Y455745D02*
X1687021Y448650D01*
X1688997Y450626D01*
X1681903Y457720D02*
X1688997Y450626D01*
X1683463Y459280D02*
X1685438Y461256D01*
X1683463Y459280D02*
X1690557Y452186D01*
X1692533Y454161D01*
X1685438Y461256D02*
X1692533Y454161D01*
X1686998Y462816D02*
X1688974Y464791D01*
X1686998Y462816D02*
X1694092Y455721D01*
X1696068Y457697D01*
X1688974Y464791D02*
X1696068Y457697D01*
X1690534Y466351D02*
X1692509Y468327D01*
X1690534Y466351D02*
X1697628Y459257D01*
X1699604Y461232D01*
X1692509Y468327D02*
X1699604Y461232D01*
X1694069Y469887D02*
X1696045Y471862D01*
X1694069Y469887D02*
X1701163Y462792D01*
X1703139Y464768D01*
X1696045Y471862D02*
X1703139Y464768D01*
X1697605Y473422D02*
X1699580Y475398D01*
X1697605Y473422D02*
X1704699Y466328D01*
X1706675Y468303D01*
X1699580Y475398D02*
X1706675Y468303D01*
X1701140Y476958D02*
X1703116Y478933D01*
X1701140Y476958D02*
X1708235Y469863D01*
X1710210Y471839D01*
X1703116Y478933D02*
X1710210Y471839D01*
X1704676Y480493D02*
X1706651Y482469D01*
X1704676Y480493D02*
X1711770Y473399D01*
X1713746Y475374D01*
X1706651Y482469D02*
X1713746Y475374D01*
X1708211Y484029D02*
X1710187Y486004D01*
X1708211Y484029D02*
X1715306Y476934D01*
X1717281Y478910D01*
X1710187Y486004D02*
X1717281Y478910D01*
X1711747Y487564D02*
X1713722Y489540D01*
X1711747Y487564D02*
X1718841Y480470D01*
X1720817Y482446D01*
X1713722Y489540D02*
X1720817Y482446D01*
X1715282Y491100D02*
X1717258Y493075D01*
X1715282Y491100D02*
X1722377Y484006D01*
X1724352Y485981D01*
X1717258Y493075D02*
X1724352Y485981D01*
X1718818Y494635D02*
X1720793Y496611D01*
X1718818Y494635D02*
X1725912Y487541D01*
X1727888Y489517D01*
X1720793Y496611D02*
X1727888Y489517D01*
X1722353Y498171D02*
X1724329Y500147D01*
X1722353Y498171D02*
X1729448Y491077D01*
X1731423Y493052D01*
X1724329Y500147D02*
X1731423Y493052D01*
X1725889Y501707D02*
X1727865Y503682D01*
X1725889Y501707D02*
X1732983Y494612D01*
X1734959Y496588D01*
X1727865Y503682D02*
X1734959Y496588D01*
X1729424Y505242D02*
X1731400Y507218D01*
X1729424Y505242D02*
X1736519Y498148D01*
X1738495Y500123D01*
X1731400Y507218D02*
X1738495Y500123D01*
X1732960Y508778D02*
X1734936Y510753D01*
X1732960Y508778D02*
X1740054Y501683D01*
X1742030Y503659D01*
X1734936Y510753D02*
X1742030Y503659D01*
X1736496Y512313D02*
X1738471Y514289D01*
X1736496Y512313D02*
X1743590Y505219D01*
X1745566Y507194D01*
X1738471Y514289D02*
X1745566Y507194D01*
X1740031Y515849D02*
X1742007Y517824D01*
X1740031Y515849D02*
X1747126Y508754D01*
X1749101Y510730D01*
X1742007Y517824D02*
X1749101Y510730D01*
X1743567Y519384D02*
X1745542Y521360D01*
X1743567Y519384D02*
X1750661Y512290D01*
X1752637Y514265D01*
X1745542Y521360D02*
X1752637Y514265D01*
X1747102Y522920D02*
X1749078Y524895D01*
X1747102Y522920D02*
X1754196Y515825D01*
X1756172Y517801D01*
X1749078Y524895D02*
X1756172Y517801D01*
X1750638Y526455D02*
X1752613Y528431D01*
X1750638Y526455D02*
X1757732Y519361D01*
X1759708Y521337D01*
X1752613Y528431D02*
X1759708Y521337D01*
X1754173Y529991D02*
X1756149Y531966D01*
X1754173Y529991D02*
X1761268Y522896D01*
X1763243Y524872D01*
X1756149Y531966D02*
X1763243Y524872D01*
X1757709Y533526D02*
X1759684Y535502D01*
X1757709Y533526D02*
X1764803Y526432D01*
X1766779Y528408D01*
X1759684Y535502D02*
X1766779Y528408D01*
X1761244Y537062D02*
X1763220Y539038D01*
X1761244Y537062D02*
X1768339Y529967D01*
X1770314Y531943D01*
X1763220Y539038D02*
X1770314Y531943D01*
X1764780Y540597D02*
X1766755Y542573D01*
X1764780Y540597D02*
X1771874Y533503D01*
X1773850Y535479D01*
X1766755Y542573D02*
X1773850Y535479D01*
X1664880Y638622D02*
X1682840D01*
X1574898Y548640D02*
X1673860Y449678D01*
X1772822Y548640D01*
X1673860Y647602D02*
X1772822Y548640D01*
X1574898D02*
X1673860Y647602D01*
X1326769Y800100D02*
X1342771D01*
X1326769D02*
Y830580D01*
X1342771D01*
Y800100D02*
Y830580D01*
X1321054Y812800D02*
X1326769D01*
X1321054D02*
Y817880D01*
X1326769D01*
Y812800D02*
Y817880D01*
X1342771Y828380D02*
X1348486D01*
Y823300D02*
Y828380D01*
X1342771Y823300D02*
X1348486D01*
X1342771D02*
Y828380D01*
Y807380D02*
X1348486D01*
Y802300D02*
Y807380D01*
X1342771Y802300D02*
X1348486D01*
X1342771D02*
Y807380D01*
X1333840Y972947D02*
Y988949D01*
X1303360Y972947D02*
X1333840D01*
X1303360D02*
Y988949D01*
X1333840D01*
X1321140Y967232D02*
Y972947D01*
X1316060Y967232D02*
X1321140D01*
X1316060D02*
Y972947D01*
X1321140D01*
X1305560Y988949D02*
Y994664D01*
X1310640D01*
Y988949D02*
Y994664D01*
X1305560Y988949D02*
X1310640D01*
X1326560D02*
Y994664D01*
X1331640D01*
Y988949D02*
Y994664D01*
X1326560Y988949D02*
X1331640D01*
X1491869Y933450D02*
X1507871D01*
X1491869D02*
Y963930D01*
X1507871D01*
Y933450D02*
Y963930D01*
X1486154Y946150D02*
X1491869D01*
X1486154D02*
Y951230D01*
X1491869D01*
Y946150D02*
Y951230D01*
X1507871Y961730D02*
X1513586D01*
Y956650D02*
Y961730D01*
X1507871Y956650D02*
X1513586D01*
X1507871D02*
Y961730D01*
Y940730D02*
X1513586D01*
Y935650D02*
Y940730D01*
X1507871Y935650D02*
X1513586D01*
X1507871D02*
Y940730D01*
X1491869Y891540D02*
X1507871D01*
X1491869D02*
Y922020D01*
X1507871D01*
Y891540D02*
Y922020D01*
X1486154Y904240D02*
X1491869D01*
X1486154D02*
Y909320D01*
X1491869D01*
Y904240D02*
Y909320D01*
X1507871Y919820D02*
X1513586D01*
Y914740D02*
Y919820D01*
X1507871Y914740D02*
X1513586D01*
X1507871D02*
Y919820D01*
Y898820D02*
X1513586D01*
Y893740D02*
Y898820D01*
X1507871Y893740D02*
X1513586D01*
X1507871D02*
Y898820D01*
X1490091Y847090D02*
X1506093D01*
X1490091D02*
Y877570D01*
X1506093D01*
Y847090D02*
Y877570D01*
X1484376Y859790D02*
X1490091D01*
X1484376D02*
Y864870D01*
X1490091D01*
Y859790D02*
Y864870D01*
X1506093Y875370D02*
X1511808D01*
Y870290D02*
Y875370D01*
X1506093Y870290D02*
X1511808D01*
X1506093D02*
Y875370D01*
Y854370D02*
X1511808D01*
Y849290D02*
Y854370D01*
X1506093Y849290D02*
X1511808D01*
X1506093D02*
Y854370D01*
X1224407Y795950D02*
X1240409D01*
X1224407D02*
Y826430D01*
X1240409D01*
Y795950D02*
Y826430D01*
X1218692Y808650D02*
X1224407D01*
X1218692D02*
Y813730D01*
X1224407D01*
Y808650D02*
Y813730D01*
X1240409Y824230D02*
X1246124D01*
Y819150D02*
Y824230D01*
X1240409Y819150D02*
X1246124D01*
X1240409D02*
Y824230D01*
Y803230D02*
X1246124D01*
Y798150D02*
Y803230D01*
X1240409Y798150D02*
X1246124D01*
X1240409D02*
Y803230D01*
X1279779Y798830D02*
X1295781D01*
X1279779D02*
Y829310D01*
X1295781D01*
Y798830D02*
Y829310D01*
X1274064Y811530D02*
X1279779D01*
X1274064D02*
Y816610D01*
X1279779D01*
Y811530D02*
Y816610D01*
X1295781Y827110D02*
X1301496D01*
Y822030D02*
Y827110D01*
X1295781Y822030D02*
X1301496D01*
X1295781D02*
Y827110D01*
Y806110D02*
X1301496D01*
Y801030D02*
Y806110D01*
X1295781Y801030D02*
X1301496D01*
X1295781D02*
Y806110D01*
X239522Y568556D02*
X244475D01*
X239522D02*
Y571604D01*
X244475D01*
Y568556D02*
Y571604D01*
X239522Y581556D02*
X244475D01*
X239522D02*
Y584604D01*
X244475D01*
Y581556D02*
Y584604D01*
X258445D02*
X263398D01*
Y581556D02*
Y584604D01*
X258445Y581556D02*
X263398D01*
X258445D02*
Y584604D01*
Y578104D02*
X263398D01*
Y575056D02*
Y578104D01*
X258445Y575056D02*
X263398D01*
X258445D02*
Y578104D01*
Y571604D02*
X263398D01*
Y568556D02*
Y571604D01*
X258445Y568556D02*
X263398D01*
X258445D02*
Y571604D01*
Y565785D02*
Y587375D01*
X244475Y565785D02*
X258445D01*
X244475D02*
Y587375D01*
X258445D01*
X1262761Y875030D02*
Y941070D01*
X1307719D01*
Y875030D02*
Y941070D01*
X1262761Y875030D02*
X1307719D01*
Y938824D02*
X1318260D01*
Y935776D02*
Y938824D01*
X1307719Y935776D02*
X1318260D01*
X1307719D02*
Y938824D01*
Y932324D02*
X1318260D01*
Y929276D02*
Y932324D01*
X1307719Y929276D02*
X1318260D01*
X1307719D02*
Y932324D01*
Y925824D02*
X1318260D01*
Y922776D02*
Y925824D01*
X1307719Y922776D02*
X1318260D01*
X1307719D02*
Y925824D01*
Y919324D02*
X1318260D01*
Y916276D02*
Y919324D01*
X1307719Y916276D02*
X1318260D01*
X1307719D02*
Y919324D01*
Y912824D02*
X1318260D01*
Y909776D02*
Y912824D01*
X1307719Y909776D02*
X1318260D01*
X1307719D02*
Y912824D01*
Y906324D02*
X1318260D01*
Y903276D02*
Y906324D01*
X1307719Y903276D02*
X1318260D01*
X1307719D02*
Y906324D01*
Y899824D02*
X1318260D01*
Y896776D02*
Y899824D01*
X1307719Y896776D02*
X1318260D01*
X1307719D02*
Y899824D01*
Y893324D02*
X1318260D01*
Y890276D02*
Y893324D01*
X1307719Y890276D02*
X1318260D01*
X1307719D02*
Y893324D01*
Y886824D02*
X1318260D01*
Y883776D02*
Y886824D01*
X1307719Y883776D02*
X1318260D01*
X1307719D02*
Y886824D01*
Y880324D02*
X1318260D01*
Y877276D02*
Y880324D01*
X1307719Y877276D02*
X1318260D01*
X1307719D02*
Y880324D01*
X1252220Y877276D02*
X1262761D01*
X1252220D02*
Y880324D01*
X1262761D01*
Y877276D02*
Y880324D01*
X1252220Y883776D02*
X1262761D01*
X1252220D02*
Y886824D01*
X1262761D01*
Y883776D02*
Y886824D01*
X1252220Y890276D02*
X1262761D01*
X1252220D02*
Y893324D01*
X1262761D01*
Y890276D02*
Y893324D01*
X1252220Y896776D02*
X1262761D01*
X1252220D02*
Y899824D01*
X1262761D01*
Y896776D02*
Y899824D01*
X1252220Y903276D02*
X1262761D01*
X1252220D02*
Y906324D01*
X1262761D01*
Y903276D02*
Y906324D01*
X1252220Y909776D02*
X1262761D01*
X1252220D02*
Y912824D01*
X1262761D01*
Y909776D02*
Y912824D01*
X1252220Y916276D02*
X1262761D01*
X1252220D02*
Y919324D01*
X1262761D01*
Y916276D02*
Y919324D01*
X1252220Y922776D02*
X1262761D01*
X1252220D02*
Y925824D01*
X1262761D01*
Y922776D02*
Y925824D01*
X1252220Y929276D02*
X1262761D01*
X1252220D02*
Y932324D01*
X1262761D01*
Y929276D02*
Y932324D01*
X1252220Y935776D02*
X1262761D01*
X1252220D02*
Y938824D01*
X1262761D01*
Y935776D02*
Y938824D01*
X1840357Y177140D02*
Y182220D01*
X1834134D02*
X1840357D01*
X1834134Y177140D02*
Y182220D01*
Y177140D02*
X1840357D01*
Y167640D02*
Y172720D01*
X1834134D02*
X1840357D01*
X1834134Y167640D02*
Y172720D01*
Y167640D02*
X1840357D01*
Y158140D02*
Y163220D01*
X1834134D02*
X1840357D01*
X1834134Y158140D02*
Y163220D01*
Y158140D02*
X1840357D01*
X1857883D02*
Y163220D01*
Y158140D02*
X1864106D01*
Y163220D01*
X1857883D02*
X1864106D01*
X1857883Y167640D02*
Y172720D01*
Y167640D02*
X1864106D01*
Y172720D01*
X1857883D02*
X1864106D01*
X1857883Y177140D02*
Y182220D01*
Y177140D02*
X1864106D01*
Y182220D01*
X1857883D02*
X1864106D01*
X1840357Y155194D02*
X1857883D01*
Y185166D01*
X1840357D02*
X1857883D01*
X1840357Y155194D02*
Y185166D01*
X1278001Y1434211D02*
X1328039D01*
X1278001D02*
Y1474089D01*
X1328039D01*
Y1434211D02*
Y1474089D01*
X1281430D02*
Y1485138D01*
X1286510D01*
Y1474089D02*
Y1485138D01*
X1281430Y1474089D02*
X1286510D01*
X1294130D02*
Y1485138D01*
X1299210D01*
Y1474089D02*
Y1485138D01*
X1294130Y1474089D02*
X1299210D01*
X1306830D02*
Y1485138D01*
X1311910D01*
Y1474089D02*
Y1485138D01*
X1306830Y1474089D02*
X1311910D01*
X1319530D02*
Y1485138D01*
X1324610D01*
Y1474089D02*
Y1485138D01*
X1319530Y1474089D02*
X1324610D01*
Y1423162D02*
Y1434211D01*
X1319530Y1423162D02*
X1324610D01*
X1319530D02*
Y1434211D01*
X1324610D01*
X1311910Y1423162D02*
Y1434211D01*
X1306830Y1423162D02*
X1311910D01*
X1306830D02*
Y1434211D01*
X1311910D01*
X1299210Y1423162D02*
Y1434211D01*
X1294130Y1423162D02*
X1299210D01*
X1294130D02*
Y1434211D01*
X1299210D01*
X1286510Y1423162D02*
Y1434211D01*
X1281430Y1423162D02*
X1286510D01*
X1281430D02*
Y1434211D01*
X1286510D01*
X1045591Y1404747D02*
Y1409573D01*
X1034542Y1404747D02*
X1045591D01*
X1034542D02*
Y1409573D01*
X1045591D01*
Y1417447D02*
Y1422273D01*
X1034542Y1417447D02*
X1045591D01*
X1034542D02*
Y1422273D01*
X1045591D01*
Y1430147D02*
Y1434973D01*
X1034542Y1430147D02*
X1045591D01*
X1034542D02*
Y1434973D01*
X1045591D01*
Y1442847D02*
Y1447673D01*
X1034542Y1442847D02*
X1045591D01*
X1034542D02*
Y1447673D01*
X1045591D01*
X1085469Y1442847D02*
Y1447673D01*
X1096518D01*
Y1442847D02*
Y1447673D01*
X1085469Y1442847D02*
X1096518D01*
X1085469Y1430147D02*
Y1434973D01*
X1096518D01*
Y1430147D02*
Y1434973D01*
X1085469Y1430147D02*
X1096518D01*
X1085469Y1417447D02*
Y1422273D01*
X1096518D01*
Y1417447D02*
Y1422273D01*
X1085469Y1417447D02*
X1096518D01*
X1085469Y1404747D02*
Y1409573D01*
X1096518D01*
Y1404747D02*
Y1409573D01*
X1085469Y1404747D02*
X1096518D01*
X1045591Y1451229D02*
X1085469D01*
Y1401191D02*
Y1451229D01*
X1045591Y1401191D02*
X1085469D01*
X1045591D02*
Y1451229D01*
X809371Y314579D02*
X859409D01*
X809371Y274701D02*
Y314579D01*
Y274701D02*
X859409D01*
Y314579D01*
X812800Y263652D02*
Y274701D01*
Y263652D02*
X817880D01*
Y274701D01*
X812800D02*
X817880D01*
X825500Y263652D02*
Y274701D01*
Y263652D02*
X830580D01*
Y274701D01*
X825500D02*
X830580D01*
X838200Y263652D02*
Y274701D01*
Y263652D02*
X843280D01*
Y274701D01*
X838200D02*
X843280D01*
X850900Y263652D02*
Y274701D01*
Y263652D02*
X855980D01*
Y274701D01*
X850900D02*
X855980D01*
Y314579D02*
Y325628D01*
X850900D02*
X855980D01*
X850900Y314579D02*
Y325628D01*
Y314579D02*
X855980D01*
X843280D02*
Y325628D01*
X838200D02*
X843280D01*
X838200Y314579D02*
Y325628D01*
Y314579D02*
X843280D01*
X830580D02*
Y325628D01*
X825500D02*
X830580D01*
X825500Y314579D02*
Y325628D01*
Y314579D02*
X830580D01*
X817880D02*
Y325628D01*
X812800D02*
X817880D01*
X812800Y314579D02*
Y325628D01*
Y314579D02*
X817880D01*
X980440Y288290D02*
X993140Y300990D01*
X1041976D02*
X1045024D01*
X1041976D02*
X1045024D01*
X1036976D02*
X1040024D01*
X1036976D02*
X1040024D01*
X1031976D02*
X1035024D01*
X1031976D02*
X1035024D01*
X1026976D02*
X1030024D01*
X1026976D02*
X1030024D01*
X1021976D02*
X1025024D01*
X1021976D02*
X1025024D01*
X1016976D02*
X1020024D01*
X1016976D02*
X1020024D01*
X1011976D02*
X1015024D01*
X1011976D02*
X1015024D01*
X1006976D02*
X1010024D01*
X1006976D02*
X1010024D01*
X1001976D02*
X1005024D01*
X1001976D02*
X1005024D01*
X996976D02*
X1000024D01*
X996976D02*
X1000024D01*
X991976D02*
X995024D01*
X991976D02*
X995024D01*
X986976D02*
X990024D01*
X986976D02*
X990024D01*
X980440Y291406D02*
Y294454D01*
Y291406D02*
Y294454D01*
Y286406D02*
Y289454D01*
Y286406D02*
Y289454D01*
Y281406D02*
Y284454D01*
Y281406D02*
Y284454D01*
Y276406D02*
Y279454D01*
Y276406D02*
Y279454D01*
Y271406D02*
Y274454D01*
Y271406D02*
Y274454D01*
Y266406D02*
Y269454D01*
Y266406D02*
Y269454D01*
Y261406D02*
Y264454D01*
Y261406D02*
Y264454D01*
Y256406D02*
Y259454D01*
Y256406D02*
Y259454D01*
Y251406D02*
Y254454D01*
Y251406D02*
Y254454D01*
Y246406D02*
Y249454D01*
Y246406D02*
Y249454D01*
Y241406D02*
Y244454D01*
Y241406D02*
Y244454D01*
Y236406D02*
Y239454D01*
Y236406D02*
Y239454D01*
X986976Y229870D02*
X990024D01*
X986976D02*
X990024D01*
X991976D02*
X995024D01*
X991976D02*
X995024D01*
X996976D02*
X1000024D01*
X996976D02*
X1000024D01*
X1001976D02*
X1005024D01*
X1001976D02*
X1005024D01*
X1006976D02*
X1010024D01*
X1006976D02*
X1010024D01*
X1011976D02*
X1015024D01*
X1011976D02*
X1015024D01*
X1016976D02*
X1020024D01*
X1016976D02*
X1020024D01*
X1021976D02*
X1025024D01*
X1021976D02*
X1025024D01*
X1026976D02*
X1030024D01*
X1026976D02*
X1030024D01*
X1031976D02*
X1035024D01*
X1031976D02*
X1035024D01*
X1036976D02*
X1040024D01*
X1036976D02*
X1040024D01*
X1041976D02*
X1045024D01*
X1041976D02*
X1045024D01*
X1051560Y236406D02*
Y239454D01*
Y236406D02*
Y239454D01*
Y241406D02*
Y244454D01*
Y241406D02*
Y244454D01*
Y246406D02*
Y249454D01*
Y246406D02*
Y249454D01*
Y251406D02*
Y254454D01*
Y251406D02*
Y254454D01*
Y256406D02*
Y259454D01*
Y256406D02*
Y259454D01*
Y261406D02*
Y264454D01*
Y261406D02*
Y264454D01*
Y266406D02*
Y269454D01*
Y266406D02*
Y269454D01*
Y271406D02*
Y274454D01*
Y271406D02*
Y274454D01*
Y276406D02*
Y279454D01*
Y276406D02*
Y279454D01*
Y281406D02*
Y284454D01*
Y281406D02*
Y284454D01*
Y286406D02*
Y289454D01*
Y286406D02*
Y289454D01*
Y291406D02*
Y294454D01*
Y291406D02*
Y294454D01*
X980440Y229870D02*
X1051560D01*
Y300990D01*
X980440D02*
X1051560D01*
X980440Y229870D02*
Y300990D01*
X980140Y177380D02*
Y188380D01*
Y177380D02*
X1006140D01*
Y188380D01*
X980140D02*
X1006140D01*
X1016890Y186820D02*
X1042890D01*
Y175820D02*
Y186820D01*
X1016890Y175820D02*
X1042890D01*
X1016890D02*
Y186820D01*
X1525078Y437417D02*
X1559203Y471542D01*
X1435276Y527220D02*
X1525078Y437417D01*
X1435276Y527220D02*
X1469401Y561344D01*
X1559203Y471542D01*
X524891Y246161D02*
X580009D01*
X524891D02*
Y301279D01*
X580009D01*
Y246161D02*
Y301279D01*
X566230Y246161D02*
X580009Y259941D01*
X524891D02*
X538671Y246161D01*
X1008507Y653415D02*
Y667385D01*
Y653415D02*
X1016635D01*
Y667385D01*
X1008507D02*
X1016635D01*
X1003173Y653415D02*
Y667385D01*
X995045D02*
X1003173D01*
X995045Y653415D02*
Y667385D01*
Y653415D02*
X1003173D01*
X995045Y667385D02*
X1016635D01*
X995045Y653415D02*
Y667385D01*
Y653415D02*
X1016635D01*
Y667385D01*
D216*
X1838948Y262534D02*
Y250564D01*
X1832963Y256549D02*
X1844933D01*
X1835956Y259541D02*
X1841940Y253557D01*
X1835956D02*
X1841940Y259541D01*
X1697105Y1311490D02*
X1688641Y1319954D01*
X1697105D02*
X1688641Y1311490D01*
X1697105Y1315722D02*
X1688641D01*
X1692873Y1319954D02*
Y1311490D01*
X1536345Y1316570D02*
X1527881Y1325034D01*
X1536345D02*
X1527881Y1316570D01*
X1536345Y1320802D02*
X1527881D01*
X1532113Y1325034D02*
Y1316570D01*
X368085Y1405255D02*
X359621Y1396791D01*
Y1405255D02*
X368085Y1396791D01*
X363853Y1405255D02*
Y1396791D01*
X359621Y1401023D02*
X368085D01*
X1710055Y1336467D02*
X1701591Y1344931D01*
X1710055D02*
X1701591Y1336467D01*
X1710055Y1340699D02*
X1701591D01*
X1705823Y1344931D02*
Y1336467D01*
X1547495Y1337737D02*
X1539031Y1346201D01*
X1547495D02*
X1539031Y1337737D01*
X1547495Y1341969D02*
X1539031D01*
X1543263Y1346201D02*
Y1337737D01*
X1672013Y644857D02*
Y632888D01*
X1666028Y638872D02*
X1677998D01*
X1669021Y641865D02*
X1675005Y635880D01*
X1669021D02*
X1675005Y641865D01*
X259080Y566866D02*
X250616Y575330D01*
X259080D02*
X250616Y566866D01*
X259080Y571098D02*
X250616D01*
X254848Y575330D02*
Y566866D01*
X1263396Y938188D02*
X1271860Y929724D01*
X1263396D02*
X1271860Y938188D01*
X1263396Y933956D02*
X1271860D01*
X1267628Y929724D02*
Y938188D01*
X1840992Y182284D02*
X1849456Y173820D01*
X1840992D02*
X1849456Y182284D01*
X1840992Y178052D02*
X1849456D01*
X1845224Y173820D02*
Y182284D01*
X1280883Y1434846D02*
X1289347Y1443310D01*
Y1434846D02*
X1280883Y1443310D01*
X1285115Y1434846D02*
Y1443310D01*
X1289347Y1439078D02*
X1280883D01*
X1046226Y1404073D02*
X1054690Y1412537D01*
X1046226D02*
X1054690Y1404073D01*
X1046226Y1408305D02*
X1054690D01*
X1050458Y1412537D02*
Y1404073D01*
X812253Y313944D02*
X820717Y305480D01*
Y313944D02*
X812253Y305480D01*
X816485Y313944D02*
Y305480D01*
X820717Y309712D02*
X812253D01*
X982345Y299660D02*
X990809Y291196D01*
X982345D02*
X990809Y299660D01*
X982345Y295428D02*
X990809D01*
X986577Y291196D02*
Y299660D01*
D307*
X215900Y1519647D02*
D03*
M02*
