G04 Layer_Color=16711935*
%FSLAX44Y44*%
%MOMM*%
G71*
G01*
G75*
%ADD11C,0.2540*%
%ADD209C,0.1000*%
%ADD214C,0.1500*%
%ADD314C,0.2300*%
D11*
X940685Y226740D02*
X925450D01*
Y219123D01*
X927989Y216583D01*
X938146D01*
X940685Y219123D01*
Y226740D01*
X925450Y201348D02*
Y211505D01*
X935607Y201348D01*
X938146D01*
X940685Y203887D01*
Y208966D01*
X938146Y211505D01*
X925450Y186113D02*
Y196270D01*
X935607Y186113D01*
X938146D01*
X940685Y188652D01*
Y193731D01*
X938146Y196270D01*
X169795Y1505420D02*
X154560D01*
Y1497802D01*
X157099Y1495263D01*
X167256D01*
X169795Y1497802D01*
Y1505420D01*
X154560Y1480028D02*
Y1490185D01*
X164717Y1480028D01*
X167256D01*
X169795Y1482567D01*
Y1487646D01*
X167256Y1490185D01*
X1409385Y887577D02*
Y882498D01*
Y885038D01*
X1422081D01*
X1424620Y882498D01*
Y879959D01*
X1422081Y877420D01*
X1424620Y892655D02*
Y897733D01*
Y895194D01*
X1409385D01*
X1411924Y892655D01*
Y905351D02*
X1409385Y907890D01*
Y912969D01*
X1411924Y915508D01*
X1414463D01*
X1417002Y912969D01*
Y910429D01*
Y912969D01*
X1419542Y915508D01*
X1422081D01*
X1424620Y912969D01*
Y907890D01*
X1422081Y905351D01*
X338873Y60405D02*
X343952D01*
X341413D01*
Y73101D01*
X343952Y75640D01*
X346491D01*
X349030Y73101D01*
X323638Y75640D02*
X333795D01*
X323638Y65483D01*
Y62944D01*
X326178Y60405D01*
X331256D01*
X333795Y62944D01*
X318560D02*
X316021Y60405D01*
X310942D01*
X308403Y62944D01*
Y73101D01*
X310942Y75640D01*
X316021D01*
X318560Y73101D01*
Y62944D01*
X552294Y29065D02*
X557372D01*
X554833D01*
Y41761D01*
X557372Y44300D01*
X559911D01*
X562450Y41761D01*
X547215Y44300D02*
X542137D01*
X544676D01*
Y29065D01*
X547215Y31604D01*
X534519D02*
X531980Y29065D01*
X526902D01*
X524363Y31604D01*
Y34143D01*
X526902Y36682D01*
X524363Y39221D01*
Y41761D01*
X526902Y44300D01*
X531980D01*
X534519Y41761D01*
Y39221D01*
X531980Y36682D01*
X534519Y34143D01*
Y31604D01*
X531980Y36682D02*
X526902D01*
X1049913Y1290245D02*
X1054992D01*
X1052452D01*
Y1302941D01*
X1054992Y1305480D01*
X1057531D01*
X1060070Y1302941D01*
X1037217Y1305480D02*
Y1290245D01*
X1044835Y1297863D01*
X1034678D01*
X927993Y1296595D02*
X933072D01*
X930532D01*
Y1309291D01*
X933072Y1311830D01*
X935611D01*
X938150Y1309291D01*
X922915Y1299134D02*
X920376Y1296595D01*
X915297D01*
X912758Y1299134D01*
Y1301673D01*
X915297Y1304212D01*
X917837D01*
X915297D01*
X912758Y1306752D01*
Y1309291D01*
X915297Y1311830D01*
X920376D01*
X922915Y1309291D01*
X292567Y1511245D02*
X287488D01*
X290028D01*
Y1498549D01*
X287488Y1496010D01*
X284949D01*
X282410Y1498549D01*
X297645Y1496010D02*
X302723D01*
X300184D01*
Y1511245D01*
X297645Y1508706D01*
X1770765Y1240237D02*
Y1235158D01*
Y1237698D01*
X1783461D01*
X1786000Y1235158D01*
Y1232619D01*
X1783461Y1230080D01*
X1770765Y1255472D02*
Y1245315D01*
X1778383D01*
X1775843Y1250393D01*
Y1252933D01*
X1778383Y1255472D01*
X1783461D01*
X1786000Y1252933D01*
Y1247854D01*
X1783461Y1245315D01*
X2038735Y1213567D02*
Y1208488D01*
Y1211028D01*
X2051431D01*
X2053970Y1208488D01*
Y1205949D01*
X2051431Y1203410D01*
X2041274Y1218645D02*
X2038735Y1221184D01*
Y1226263D01*
X2041274Y1228802D01*
X2043813D01*
X2046353Y1226263D01*
X2048892Y1228802D01*
X2051431D01*
X2053970Y1226263D01*
Y1221184D01*
X2051431Y1218645D01*
X2048892D01*
X2046353Y1221184D01*
X2043813Y1218645D01*
X2041274D01*
X2046353Y1221184D02*
Y1226263D01*
X2012065Y1213567D02*
Y1208488D01*
Y1211028D01*
X2024761D01*
X2027300Y1208488D01*
Y1205949D01*
X2024761Y1203410D01*
X2012065Y1218645D02*
Y1228802D01*
X2014604D01*
X2024761Y1218645D01*
X2027300D01*
X1858563Y1148465D02*
X1863642D01*
X1861102D01*
Y1161161D01*
X1863642Y1163700D01*
X1866181D01*
X1868720Y1161161D01*
X1853485D02*
X1850946Y1163700D01*
X1845867D01*
X1843328Y1161161D01*
Y1151004D01*
X1845867Y1148465D01*
X1850946D01*
X1853485Y1151004D01*
Y1153543D01*
X1850946Y1156083D01*
X1843328D01*
X1427830Y714900D02*
X1443065D01*
Y707282D01*
X1440526Y704743D01*
X1435448D01*
X1432908Y707282D01*
Y714900D01*
X1443065Y689508D02*
Y699665D01*
X1435448D01*
X1437987Y694587D01*
Y692047D01*
X1435448Y689508D01*
X1430369D01*
X1427830Y692047D01*
Y697126D01*
X1430369Y699665D01*
X448737Y1232249D02*
Y1242406D01*
X446198Y1244945D01*
X441119D01*
X438580Y1242406D01*
Y1232249D01*
X441119Y1229710D01*
X446198D01*
X443658Y1234788D02*
X448737Y1229710D01*
X446198D02*
X448737Y1232249D01*
X461433Y1229710D02*
Y1244945D01*
X453815Y1237327D01*
X463972D01*
X450067Y1332579D02*
Y1342736D01*
X447528Y1345275D01*
X442449D01*
X439910Y1342736D01*
Y1332579D01*
X442449Y1330040D01*
X447528D01*
X444988Y1335118D02*
X450067Y1330040D01*
X447528D02*
X450067Y1332579D01*
X455145Y1342736D02*
X457684Y1345275D01*
X462763D01*
X465302Y1342736D01*
Y1340197D01*
X462763Y1337657D01*
X460223D01*
X462763D01*
X465302Y1335118D01*
Y1332579D01*
X462763Y1330040D01*
X457684D01*
X455145Y1332579D01*
X326280Y316745D02*
X336437D01*
X331358D01*
Y331980D01*
X341515D02*
X346593D01*
X344054D01*
Y316745D01*
X341515Y319284D01*
X489790Y259405D02*
Y272101D01*
X487251Y274640D01*
X482173D01*
X479633Y272101D01*
Y259405D01*
X474555Y274640D02*
X469477D01*
X472016D01*
Y259405D01*
X474555Y261944D01*
X461859Y272101D02*
X459320Y274640D01*
X454241D01*
X451702Y272101D01*
Y261944D01*
X454241Y259405D01*
X459320D01*
X461859Y261944D01*
Y264483D01*
X459320Y267022D01*
X451702D01*
X519750Y1289705D02*
Y1302401D01*
X522289Y1304940D01*
X527368D01*
X529907Y1302401D01*
Y1289705D01*
X545142Y1304940D02*
X534985D01*
X545142Y1294783D01*
Y1292244D01*
X542603Y1289705D01*
X537524D01*
X534985Y1292244D01*
X550220Y1289705D02*
X560377D01*
Y1292244D01*
X550220Y1302401D01*
Y1304940D01*
X994443Y70515D02*
X999522D01*
X996982D01*
Y83211D01*
X999522Y85750D01*
X1002061D01*
X1004600Y83211D01*
X989365Y85750D02*
X984287D01*
X986826D01*
Y70515D01*
X989365Y73054D01*
X976669Y83211D02*
X974130Y85750D01*
X969052D01*
X966512Y83211D01*
Y73054D01*
X969052Y70515D01*
X974130D01*
X976669Y73054D01*
Y75593D01*
X974130Y78133D01*
X966512D01*
X340790Y1241405D02*
Y1226170D01*
X350947D01*
X366182D02*
X356025D01*
X366182Y1236327D01*
Y1238866D01*
X363643Y1241405D01*
X358564D01*
X356025Y1238866D01*
X362790Y1321455D02*
Y1336690D01*
X352633D01*
X347555D02*
X342477D01*
X345016D01*
Y1321455D01*
X347555Y1323994D01*
X1879780Y545823D02*
Y530588D01*
X1887398D01*
X1889937Y533127D01*
Y543284D01*
X1887398Y545823D01*
X1879780D01*
X1895016Y530588D02*
X1900094D01*
X1897555D01*
Y545823D01*
X1895016Y543284D01*
X1917868Y545823D02*
X1912790Y543284D01*
X1907711Y538205D01*
Y533127D01*
X1910251Y530588D01*
X1915329D01*
X1917868Y533127D01*
Y535666D01*
X1915329Y538205D01*
X1907711D01*
X1879780Y531981D02*
Y516746D01*
X1887398D01*
X1889937Y519285D01*
Y529441D01*
X1887398Y531981D01*
X1879780D01*
X1895016Y516746D02*
X1900094D01*
X1897555D01*
Y531981D01*
X1895016Y529441D01*
X1907711Y531981D02*
X1917868D01*
Y529441D01*
X1907711Y519285D01*
Y516746D01*
X1879780Y518138D02*
Y502903D01*
X1887398D01*
X1889937Y505442D01*
Y515599D01*
X1887398Y518138D01*
X1879780D01*
X1895016Y502903D02*
X1900094D01*
X1897555D01*
Y518138D01*
X1895016Y515599D01*
X1907711D02*
X1910251Y518138D01*
X1915329D01*
X1917868Y515599D01*
Y513060D01*
X1915329Y510521D01*
X1917868Y507982D01*
Y505442D01*
X1915329Y502903D01*
X1910251D01*
X1907711Y505442D01*
Y507982D01*
X1910251Y510521D01*
X1907711Y513060D01*
Y515599D01*
X1910251Y510521D02*
X1915329D01*
X1879780Y504296D02*
Y489061D01*
X1887398D01*
X1889937Y491600D01*
Y501757D01*
X1887398Y504296D01*
X1879780D01*
X1895016Y489061D02*
X1900094D01*
X1897555D01*
Y504296D01*
X1895016Y501757D01*
X1907711Y491600D02*
X1910251Y489061D01*
X1915329D01*
X1917868Y491600D01*
Y501757D01*
X1915329Y504296D01*
X1910251D01*
X1907711Y501757D01*
Y499218D01*
X1910251Y496678D01*
X1917868D01*
X1477841Y401287D02*
X1467068Y412060D01*
X1461682Y406674D01*
Y403083D01*
X1468864Y395901D01*
X1472455D01*
X1477841Y401287D01*
X1449114Y394105D02*
X1456295Y401287D01*
Y386923D01*
X1458091Y385128D01*
X1461682D01*
X1465273Y388719D01*
Y392310D01*
X1445523Y390514D02*
X1441932Y386923D01*
X1443727Y388719D01*
X1454500Y377946D01*
Y381537D01*
X1464359Y416076D02*
X1453586Y426848D01*
X1448199Y421462D01*
Y417871D01*
X1455381Y410689D01*
X1458972D01*
X1464359Y416076D01*
X1435631Y408894D02*
X1442813Y416076D01*
Y401712D01*
X1444608Y399916D01*
X1448199D01*
X1451790Y403507D01*
Y407098D01*
X1441017Y396325D02*
Y392735D01*
X1437426Y389144D01*
X1433835D01*
X1426654Y396325D01*
Y399916D01*
X1430244Y403507D01*
X1433835D01*
X1441017Y396325D01*
X186441Y569200D02*
X201676D01*
Y576818D01*
X199137Y579357D01*
X188980D01*
X186441Y576818D01*
Y569200D01*
X201676Y584435D02*
Y589514D01*
Y586974D01*
X186441D01*
X188980Y584435D01*
X186441Y607288D02*
Y597131D01*
X194058D01*
X191519Y602209D01*
Y604748D01*
X194058Y607288D01*
X199137D01*
X201676Y604748D01*
Y599670D01*
X199137Y597131D01*
X752870Y1201171D02*
Y1216406D01*
X745253D01*
X742713Y1213867D01*
Y1203710D01*
X745253Y1201171D01*
X752870D01*
X737635Y1203710D02*
X735096Y1201171D01*
X730017D01*
X727478Y1203710D01*
Y1206249D01*
X730017Y1208789D01*
X727478Y1211328D01*
Y1213867D01*
X730017Y1216406D01*
X735096D01*
X737635Y1213867D01*
Y1211328D01*
X735096Y1208789D01*
X737635Y1206249D01*
Y1203710D01*
X735096Y1208789D02*
X730017D01*
X1574762Y672605D02*
X1585535Y683378D01*
X1580149Y688764D01*
X1576558D01*
X1569376Y681582D01*
Y677991D01*
X1574762Y672605D01*
Y694151D02*
X1571171Y697741D01*
X1572967Y695946D01*
X1562194Y685173D01*
X1565785D01*
X1556808Y694151D02*
X1553217D01*
X1549626Y697741D01*
Y701332D01*
X1556808Y708514D01*
X1560399D01*
X1563990Y704923D01*
Y701332D01*
X1556808Y694151D01*
X1586192Y684035D02*
X1596965Y694808D01*
X1591579Y700194D01*
X1587988D01*
X1580806Y693012D01*
Y689421D01*
X1586192Y684035D01*
X1584397Y703785D02*
Y707376D01*
X1580806Y710967D01*
X1577215D01*
X1570033Y703785D01*
Y700194D01*
X1573624Y696603D01*
X1577215D01*
X1579010Y698399D01*
Y701990D01*
X1573624Y707376D01*
X1506172Y615164D02*
X1516944Y604392D01*
X1522331Y609778D01*
Y613369D01*
X1515149Y620551D01*
X1511558D01*
X1506172Y615164D01*
X1527717D02*
X1531308Y618755D01*
X1529513Y616960D01*
X1518740Y627733D01*
Y624142D01*
X1542081Y629528D02*
X1531308Y640301D01*
Y629528D01*
X1538490Y636710D01*
X1498105Y623608D02*
X1508878Y612835D01*
X1514264Y618221D01*
Y621812D01*
X1507082Y628994D01*
X1503491D01*
X1498105Y623608D01*
X1519651D02*
X1523241Y627199D01*
X1521446Y625403D01*
X1510673Y636176D01*
Y632585D01*
X1519651Y641562D02*
Y645153D01*
X1523241Y648744D01*
X1526832D01*
X1528628Y646949D01*
Y643358D01*
X1526832Y641562D01*
X1528628Y643358D01*
X1532219D01*
X1534014Y641562D01*
Y637971D01*
X1530423Y634380D01*
X1526832D01*
X1562886Y661621D02*
X1573658Y672394D01*
X1568272Y677781D01*
X1564681D01*
X1557499Y670599D01*
Y667008D01*
X1562886Y661621D01*
Y683167D02*
X1559295Y686758D01*
X1561090Y684963D01*
X1550317Y674190D01*
X1553908D01*
Y692144D02*
X1550317Y695735D01*
X1552113Y693940D01*
X1541340Y683167D01*
X1544931D01*
X1550632Y649745D02*
X1561405Y660518D01*
X1556019Y665904D01*
X1552428D01*
X1545246Y658722D01*
Y655131D01*
X1550632Y649745D01*
Y671291D02*
X1547041Y674882D01*
X1548837Y673086D01*
X1538064Y662313D01*
X1541655D01*
X1534473Y687450D02*
X1541655Y680268D01*
X1527291D01*
X1525496Y678472D01*
Y674882D01*
X1529087Y671291D01*
X1532678D01*
X1592690Y894430D02*
Y909665D01*
X1600307D01*
X1602847Y907126D01*
Y902048D01*
X1600307Y899508D01*
X1592690D01*
X1615543Y894430D02*
Y909665D01*
X1607925Y902048D01*
X1618082D01*
X519430Y1343411D02*
Y1358646D01*
X511812D01*
X509273Y1356107D01*
Y1345950D01*
X511812Y1343411D01*
X519430D01*
X494038D02*
X504195D01*
Y1351028D01*
X499117Y1348489D01*
X496577D01*
X494038Y1351028D01*
Y1356107D01*
X496577Y1358646D01*
X501656D01*
X504195Y1356107D01*
D209*
X1620377Y678979D02*
Y678036D01*
X1621320Y677094D01*
X1622262D01*
X1624147Y678979D01*
Y679921D01*
X1623205Y680864D01*
X1622262D01*
X1619906Y684163D02*
X1621791Y682278D01*
X1618021D01*
X1617550Y681806D01*
Y680864D01*
X1618492Y679921D01*
X1619435D01*
X1616607Y682749D02*
X1615665D01*
X1614722Y683691D01*
Y684634D01*
X1615193Y685105D01*
X1616136D01*
X1616607Y684634D01*
X1616136Y685105D01*
X1616136Y686048D01*
X1616607Y686519D01*
X1617550D01*
X1618492Y685576D01*
Y684634D01*
X1736168Y431222D02*
X1735225D01*
X1734283Y430279D01*
Y429337D01*
X1736168Y427452D01*
X1737110D01*
X1738053Y428394D01*
Y429337D01*
X1737110Y432164D02*
Y433107D01*
X1738053Y434049D01*
X1738995D01*
X1739466Y433578D01*
Y432635D01*
X1738995Y432164D01*
X1739466Y432635D01*
X1740409Y432635D01*
X1740880Y432164D01*
Y431222D01*
X1739938Y430279D01*
X1738995D01*
X1744179Y434520D02*
X1742294Y432635D01*
Y436405D01*
X1741823Y436877D01*
X1740880D01*
X1739938Y435934D01*
Y434992D01*
X1356557Y512663D02*
X1357499D01*
X1358442Y513605D01*
Y514548D01*
X1356557Y516433D01*
X1355614D01*
X1354672Y515490D01*
Y514548D01*
X1351373Y512192D02*
X1353258Y514076D01*
Y510307D01*
X1353729Y509835D01*
X1354672D01*
X1355614Y510778D01*
Y511720D01*
X1352787Y508893D02*
Y507950D01*
X1351844Y507008D01*
X1350902D01*
X1350430Y507479D01*
Y508422D01*
X1349488Y508422D01*
X1349017Y508893D01*
Y509835D01*
X1349959Y510778D01*
X1350902D01*
X1351373Y510307D01*
X1351373Y509364D01*
X1352316D01*
X1352787Y508893D01*
X1351373Y509364D02*
X1350430Y508422D01*
X866744Y135228D02*
X867411Y134561D01*
X868744D01*
X869410Y135228D01*
Y137894D01*
X868744Y138560D01*
X867411D01*
X866744Y137894D01*
X862746Y134561D02*
X864078Y135228D01*
X865411Y136561D01*
Y137894D01*
X864745Y138560D01*
X863412D01*
X862746Y137894D01*
Y137227D01*
X863412Y136561D01*
X865411D01*
X858747Y138560D02*
X861413D01*
X858747Y135894D01*
Y135228D01*
X859413Y134561D01*
X860746D01*
X861413Y135228D01*
X266762Y346634D02*
X267429Y347301D01*
Y348634D01*
X266762Y349300D01*
X264096D01*
X263430Y348634D01*
Y347301D01*
X264096Y346634D01*
X263430Y343302D02*
X267429D01*
X265429Y345301D01*
Y342636D01*
X266762Y341303D02*
X267429Y340636D01*
Y339303D01*
X266762Y338637D01*
X266096D01*
X265429Y339303D01*
Y339970D01*
Y339303D01*
X264763Y338637D01*
X264096D01*
X263430Y339303D01*
Y340636D01*
X264096Y341303D01*
X303592Y346714D02*
X304259Y347381D01*
Y348714D01*
X303592Y349380D01*
X300926D01*
X300260Y348714D01*
Y347381D01*
X300926Y346714D01*
X300260Y343382D02*
X304259D01*
X302259Y345381D01*
Y342715D01*
X300260Y338717D02*
Y341383D01*
X302926Y338717D01*
X303592D01*
X304259Y339383D01*
Y340716D01*
X303592Y341383D01*
X342962Y346634D02*
X343629Y347301D01*
Y348634D01*
X342962Y349300D01*
X340296D01*
X339630Y348634D01*
Y347301D01*
X340296Y346634D01*
X339630Y343302D02*
X343629D01*
X341629Y345301D01*
Y342636D01*
X339630Y339303D02*
X343629D01*
X341629Y341303D01*
Y338637D01*
X381062Y345364D02*
X381729Y346031D01*
Y347364D01*
X381062Y348030D01*
X378396D01*
X377730Y347364D01*
Y346031D01*
X378396Y345364D01*
X377730Y342032D02*
X381729D01*
X379729Y344031D01*
Y341366D01*
X381729Y337367D02*
Y340033D01*
X379729D01*
X380396Y338700D01*
Y338033D01*
X379729Y337367D01*
X378396D01*
X377730Y338033D01*
Y339366D01*
X378396Y340033D01*
X1349184Y638748D02*
X1349851Y638081D01*
X1351184D01*
X1351850Y638748D01*
Y641414D01*
X1351184Y642080D01*
X1349851D01*
X1349184Y641414D01*
X1345186Y642080D02*
X1347851D01*
X1345186Y639414D01*
Y638748D01*
X1345852Y638081D01*
X1347185D01*
X1347851Y638748D01*
X1341187Y638081D02*
X1343853D01*
Y640081D01*
X1342520Y639414D01*
X1341853D01*
X1341187Y640081D01*
Y641414D01*
X1341853Y642080D01*
X1343186D01*
X1343853Y641414D01*
X1334166Y755712D02*
X1333499Y756379D01*
X1332166D01*
X1331500Y755712D01*
Y753046D01*
X1332166Y752380D01*
X1333499D01*
X1334166Y753046D01*
X1338165Y752380D02*
X1335499D01*
X1338165Y755046D01*
Y755712D01*
X1337498Y756379D01*
X1336165D01*
X1335499Y755712D01*
X1342163Y752380D02*
X1339497D01*
X1342163Y755046D01*
Y755712D01*
X1341497Y756379D01*
X1340164D01*
X1339497Y755712D01*
X1317434Y637478D02*
X1318101Y636811D01*
X1319434D01*
X1320100Y637478D01*
Y640144D01*
X1319434Y640810D01*
X1318101D01*
X1317434Y640144D01*
X1313436Y640810D02*
X1316101D01*
X1313436Y638144D01*
Y637478D01*
X1314102Y636811D01*
X1315435D01*
X1316101Y637478D01*
X1312103Y636811D02*
X1309437D01*
Y637478D01*
X1312103Y640144D01*
Y640810D01*
X1140522Y401844D02*
X1141189Y402511D01*
Y403844D01*
X1140522Y404510D01*
X1137856D01*
X1137190Y403844D01*
Y402511D01*
X1137856Y401844D01*
X1140522Y400511D02*
X1141189Y399845D01*
Y398512D01*
X1140522Y397845D01*
X1139856D01*
X1139189Y398512D01*
Y399178D01*
Y398512D01*
X1138523Y397845D01*
X1137856D01*
X1137190Y398512D01*
Y399845D01*
X1137856Y400511D01*
X1141189Y393847D02*
X1140522Y395180D01*
X1139189Y396513D01*
X1137856D01*
X1137190Y395846D01*
Y394513D01*
X1137856Y393847D01*
X1138523D01*
X1139189Y394513D01*
Y396513D01*
X1154492Y401844D02*
X1155159Y402511D01*
Y403844D01*
X1154492Y404510D01*
X1151826D01*
X1151160Y403844D01*
Y402511D01*
X1151826Y401844D01*
X1154492Y400511D02*
X1155159Y399845D01*
Y398512D01*
X1154492Y397845D01*
X1153826D01*
X1153159Y398512D01*
Y399178D01*
Y398512D01*
X1152493Y397845D01*
X1151826D01*
X1151160Y398512D01*
Y399845D01*
X1151826Y400511D01*
X1155159Y396513D02*
Y393847D01*
X1154492D01*
X1151826Y396513D01*
X1151160D01*
X1169732Y401764D02*
X1170399Y402431D01*
Y403764D01*
X1169732Y404430D01*
X1167066D01*
X1166400Y403764D01*
Y402431D01*
X1167066Y401764D01*
X1169732Y400431D02*
X1170399Y399765D01*
Y398432D01*
X1169732Y397766D01*
X1169066D01*
X1168399Y398432D01*
Y399098D01*
Y398432D01*
X1167733Y397766D01*
X1167066D01*
X1166400Y398432D01*
Y399765D01*
X1167066Y400431D01*
X1169732Y396433D02*
X1170399Y395766D01*
Y394433D01*
X1169732Y393767D01*
X1169066D01*
X1168399Y394433D01*
X1167733Y393767D01*
X1167066D01*
X1166400Y394433D01*
Y395766D01*
X1167066Y396433D01*
X1167733D01*
X1168399Y395766D01*
X1169066Y396433D01*
X1169732D01*
X1168399Y395766D02*
Y394433D01*
X1182432Y401764D02*
X1183099Y402431D01*
Y403764D01*
X1182432Y404430D01*
X1179766D01*
X1179100Y403764D01*
Y402431D01*
X1179766Y401764D01*
X1182432Y400431D02*
X1183099Y399765D01*
Y398432D01*
X1182432Y397766D01*
X1181766D01*
X1181099Y398432D01*
Y399098D01*
Y398432D01*
X1180433Y397766D01*
X1179766D01*
X1179100Y398432D01*
Y399765D01*
X1179766Y400431D01*
Y396433D02*
X1179100Y395766D01*
Y394433D01*
X1179766Y393767D01*
X1182432D01*
X1183099Y394433D01*
Y395766D01*
X1182432Y396433D01*
X1181766D01*
X1181099Y395766D01*
Y393767D01*
X1375854Y638748D02*
X1376521Y638081D01*
X1377854D01*
X1378520Y638748D01*
Y641414D01*
X1377854Y642080D01*
X1376521D01*
X1375854Y641414D01*
X1371855Y642080D02*
X1374521D01*
X1371855Y639414D01*
Y638748D01*
X1372522Y638081D01*
X1373855D01*
X1374521Y638748D01*
X1367857Y638081D02*
X1369190Y638748D01*
X1370523Y640081D01*
Y641414D01*
X1369856Y642080D01*
X1368523D01*
X1367857Y641414D01*
Y640747D01*
X1368523Y640081D01*
X1370523D01*
X1530794Y1017208D02*
X1531461Y1016541D01*
X1532794D01*
X1533460Y1017208D01*
Y1019874D01*
X1532794Y1020540D01*
X1531461D01*
X1530794Y1019874D01*
X1526796Y1020540D02*
X1529461D01*
X1526796Y1017874D01*
Y1017208D01*
X1527462Y1016541D01*
X1528795D01*
X1529461Y1017208D01*
X1525463Y1020540D02*
X1524130D01*
X1524796D01*
Y1016541D01*
X1525463Y1017208D01*
X1397062Y641874D02*
X1397729Y642541D01*
Y643874D01*
X1397062Y644540D01*
X1394396D01*
X1393730Y643874D01*
Y642541D01*
X1394396Y641874D01*
X1393730Y637876D02*
Y640541D01*
X1396396Y637876D01*
X1397062D01*
X1397729Y638542D01*
Y639875D01*
X1397062Y640541D01*
X1393730Y634543D02*
X1397729D01*
X1395729Y636543D01*
Y633877D01*
X930848Y266176D02*
X930181Y265509D01*
Y264176D01*
X930848Y263510D01*
X933514D01*
X934180Y264176D01*
Y265509D01*
X933514Y266176D01*
X930181Y270175D02*
Y267509D01*
X932181D01*
X931514Y268842D01*
Y269508D01*
X932181Y270175D01*
X933514D01*
X934180Y269508D01*
Y268175D01*
X933514Y267509D01*
X934180Y273507D02*
X930181D01*
X932181Y271507D01*
Y274173D01*
X433132Y287024D02*
X433799Y287691D01*
Y289024D01*
X433132Y289690D01*
X430466D01*
X429800Y289024D01*
Y287691D01*
X430466Y287024D01*
X433799Y283025D02*
Y285691D01*
X431799D01*
X432466Y284359D01*
Y283692D01*
X431799Y283025D01*
X430466D01*
X429800Y283692D01*
Y285025D01*
X430466Y285691D01*
X433132Y281693D02*
X433799Y281026D01*
Y279693D01*
X433132Y279027D01*
X432466D01*
X431799Y279693D01*
Y280360D01*
Y279693D01*
X431133Y279027D01*
X430466D01*
X429800Y279693D01*
Y281026D01*
X430466Y281693D01*
X776032Y464074D02*
X776699Y464741D01*
Y466074D01*
X776032Y466740D01*
X773366D01*
X772700Y466074D01*
Y464741D01*
X773366Y464074D01*
X776032Y462741D02*
X776699Y462075D01*
Y460742D01*
X776032Y460075D01*
X775366D01*
X774699Y460742D01*
Y461408D01*
Y460742D01*
X774033Y460075D01*
X773366D01*
X772700Y460742D01*
Y462075D01*
X773366Y462741D01*
X776032Y458743D02*
X776699Y458076D01*
Y456743D01*
X776032Y456077D01*
X773366D01*
X772700Y456743D01*
Y458076D01*
X773366Y458743D01*
X776032D01*
X798164Y290892D02*
X798831Y291559D01*
X800164D01*
X800830Y290892D01*
Y288226D01*
X800164Y287560D01*
X798831D01*
X798164Y288226D01*
X796831Y291559D02*
X794165D01*
Y290892D01*
X796831Y288226D01*
Y287560D01*
X790833D02*
Y291559D01*
X792833Y289559D01*
X790167D01*
X798164Y304862D02*
X798831Y305529D01*
X800164D01*
X800830Y304862D01*
Y302196D01*
X800164Y301530D01*
X798831D01*
X798164Y302196D01*
X796831Y305529D02*
X794165D01*
Y304862D01*
X796831Y302196D01*
Y301530D01*
X792833Y304862D02*
X792166Y305529D01*
X790833D01*
X790167Y304862D01*
Y304196D01*
X790833Y303529D01*
X791500D01*
X790833D01*
X790167Y302863D01*
Y302196D01*
X790833Y301530D01*
X792166D01*
X792833Y302196D01*
X415352Y189154D02*
X416019Y189821D01*
Y191154D01*
X415352Y191820D01*
X412686D01*
X412020Y191154D01*
Y189821D01*
X412686Y189154D01*
X416019Y185156D02*
Y187821D01*
X414019D01*
X414686Y186488D01*
Y185822D01*
X414019Y185156D01*
X412686D01*
X412020Y185822D01*
Y187155D01*
X412686Y187821D01*
Y183823D02*
X412020Y183156D01*
Y181823D01*
X412686Y181157D01*
X415352D01*
X416019Y181823D01*
Y183156D01*
X415352Y183823D01*
X414686D01*
X414019Y183156D01*
Y181157D01*
X424118Y350666D02*
X423451Y349999D01*
Y348666D01*
X424118Y348000D01*
X426784D01*
X427450Y348666D01*
Y349999D01*
X426784Y350666D01*
X427450Y353998D02*
X423451D01*
X425451Y351999D01*
Y354664D01*
X427450Y355997D02*
Y357330D01*
Y356664D01*
X423451D01*
X424118Y355997D01*
X592319Y1279432D02*
X591319Y1278432D01*
X589320D01*
X588320Y1279432D01*
Y1283430D01*
X589320Y1284430D01*
X591319D01*
X592319Y1283430D01*
X594318Y1278432D02*
X598317D01*
Y1279432D01*
X594318Y1283430D01*
Y1284430D01*
X600316Y1279432D02*
X601316Y1278432D01*
X603315D01*
X604315Y1279432D01*
Y1283430D01*
X603315Y1284430D01*
X601316D01*
X600316Y1283430D01*
Y1279432D01*
X591376Y1267398D02*
X590709Y1266731D01*
X589376D01*
X588710Y1267398D01*
Y1270064D01*
X589376Y1270730D01*
X590709D01*
X591376Y1270064D01*
X592709Y1266731D02*
X595374D01*
Y1267398D01*
X592709Y1270064D01*
Y1270730D01*
X596707D02*
X598040D01*
X597374D01*
Y1266731D01*
X596707Y1267398D01*
X440628Y1245044D02*
X439961Y1245711D01*
Y1247044D01*
X440628Y1247710D01*
X443294D01*
X443960Y1247044D01*
Y1245711D01*
X443294Y1245044D01*
X439961Y1243711D02*
Y1241046D01*
X440628D01*
X443294Y1243711D01*
X443960D01*
Y1237047D02*
Y1239713D01*
X441294Y1237047D01*
X440628D01*
X439961Y1237713D01*
Y1239046D01*
X440628Y1239713D01*
X447102Y1327816D02*
X447769Y1327149D01*
Y1325816D01*
X447102Y1325150D01*
X444436D01*
X443770Y1325816D01*
Y1327149D01*
X444436Y1327816D01*
X447769Y1331815D02*
X447102Y1330482D01*
X445769Y1329149D01*
X444436D01*
X443770Y1329815D01*
Y1331148D01*
X444436Y1331815D01*
X445103D01*
X445769Y1331148D01*
Y1329149D01*
X447769Y1333147D02*
Y1335813D01*
X447102D01*
X444436Y1333147D01*
X443770D01*
X599884Y1296732D02*
X600551Y1297399D01*
X601884D01*
X602550Y1296732D01*
Y1294066D01*
X601884Y1293400D01*
X600551D01*
X599884Y1294066D01*
X595886Y1297399D02*
X597218Y1296732D01*
X598551Y1295399D01*
Y1294066D01*
X597885Y1293400D01*
X596552D01*
X595886Y1294066D01*
Y1294733D01*
X596552Y1295399D01*
X598551D01*
X594553Y1294066D02*
X593886Y1293400D01*
X592553D01*
X591887Y1294066D01*
Y1296732D01*
X592553Y1297399D01*
X593886D01*
X594553Y1296732D01*
Y1296066D01*
X593886Y1295399D01*
X591887D01*
X591376Y1329628D02*
X590709Y1328961D01*
X589376D01*
X588710Y1329628D01*
Y1332294D01*
X589376Y1332960D01*
X590709D01*
X591376Y1332294D01*
X595374Y1328961D02*
X594042Y1329628D01*
X592709Y1330961D01*
Y1332294D01*
X593375Y1332960D01*
X594708D01*
X595374Y1332294D01*
Y1331627D01*
X594708Y1330961D01*
X592709D01*
X596707Y1329628D02*
X597374Y1328961D01*
X598707D01*
X599373Y1329628D01*
Y1330294D01*
X598707Y1330961D01*
X599373Y1331627D01*
Y1332294D01*
X598707Y1332960D01*
X597374D01*
X596707Y1332294D01*
Y1331627D01*
X597374Y1330961D01*
X596707Y1330294D01*
Y1329628D01*
X597374Y1330961D02*
X598707D01*
X1043212Y1240329D02*
X1042212Y1239329D01*
Y1237330D01*
X1043212Y1236330D01*
X1047210D01*
X1048210Y1237330D01*
Y1239329D01*
X1047210Y1240329D01*
X1048210Y1242328D02*
Y1244327D01*
Y1243328D01*
X1042212D01*
X1043212Y1242328D01*
X1042212Y1251325D02*
X1043212Y1249326D01*
X1045211Y1247326D01*
X1047210D01*
X1048210Y1248326D01*
Y1250325D01*
X1047210Y1251325D01*
X1046211D01*
X1045211Y1250325D01*
Y1247326D01*
X1026098Y1231456D02*
X1025431Y1230789D01*
Y1229456D01*
X1026098Y1228790D01*
X1028764D01*
X1029430Y1229456D01*
Y1230789D01*
X1028764Y1231456D01*
X1029430Y1232789D02*
Y1234122D01*
Y1233455D01*
X1025431D01*
X1026098Y1232789D01*
X1028764Y1236121D02*
X1029430Y1236787D01*
Y1238120D01*
X1028764Y1238787D01*
X1026098D01*
X1025431Y1238120D01*
Y1236787D01*
X1026098Y1236121D01*
X1026764D01*
X1027431Y1236787D01*
Y1238787D01*
X642682Y1469834D02*
X643349Y1470501D01*
Y1471834D01*
X642682Y1472500D01*
X640016D01*
X639350Y1471834D01*
Y1470501D01*
X640016Y1469834D01*
X639350Y1465836D02*
Y1468501D01*
X642016Y1465836D01*
X642682D01*
X643349Y1466502D01*
Y1467835D01*
X642682Y1468501D01*
X748092Y1469834D02*
X748759Y1470501D01*
Y1471834D01*
X748092Y1472500D01*
X745426D01*
X744760Y1471834D01*
Y1470501D01*
X745426Y1469834D01*
X748092Y1468501D02*
X748759Y1467835D01*
Y1466502D01*
X748092Y1465836D01*
X747426D01*
X746759Y1466502D01*
Y1467168D01*
Y1466502D01*
X746093Y1465836D01*
X745426D01*
X744760Y1466502D01*
Y1467835D01*
X745426Y1468501D01*
X921292Y1242259D02*
X920292Y1241259D01*
Y1239260D01*
X921292Y1238260D01*
X925290D01*
X926290Y1239260D01*
Y1241259D01*
X925290Y1242259D01*
X926290Y1244258D02*
Y1246257D01*
Y1245258D01*
X920292D01*
X921292Y1244258D01*
X920292Y1253255D02*
Y1249256D01*
X923291D01*
X922291Y1251256D01*
Y1252255D01*
X923291Y1253255D01*
X925290D01*
X926290Y1252255D01*
Y1250256D01*
X925290Y1249256D01*
X904178Y1236536D02*
X903511Y1235869D01*
Y1234536D01*
X904178Y1233870D01*
X906844D01*
X907510Y1234536D01*
Y1235869D01*
X906844Y1236536D01*
X907510Y1237869D02*
Y1239202D01*
Y1238535D01*
X903511D01*
X904178Y1237869D01*
X903511Y1241201D02*
Y1243867D01*
X904178D01*
X906844Y1241201D01*
X907510D01*
X228662Y1406334D02*
X229329Y1407001D01*
Y1408334D01*
X228662Y1409000D01*
X225996D01*
X225330Y1408334D01*
Y1407001D01*
X225996Y1406334D01*
X225330Y1403002D02*
X229329D01*
X227329Y1405001D01*
Y1402336D01*
X1861376Y201992D02*
X1860709Y202659D01*
X1859376D01*
X1858710Y201992D01*
Y199326D01*
X1859376Y198660D01*
X1860709D01*
X1861376Y199326D01*
X1865374Y202659D02*
X1862709D01*
Y200659D01*
X1864042Y201326D01*
X1864708D01*
X1865374Y200659D01*
Y199326D01*
X1864708Y198660D01*
X1863375D01*
X1862709Y199326D01*
X1866707Y202659D02*
X1869373D01*
Y201992D01*
X1866707Y199326D01*
Y198660D01*
X1211518Y1468786D02*
X1210851Y1468119D01*
Y1466786D01*
X1211518Y1466120D01*
X1214184D01*
X1214850Y1466786D01*
Y1468119D01*
X1214184Y1468786D01*
X1214850Y1470119D02*
Y1471452D01*
Y1470785D01*
X1210851D01*
X1211518Y1470119D01*
X1307274Y1404558D02*
X1307941Y1403891D01*
X1309274D01*
X1309940Y1404558D01*
Y1407224D01*
X1309274Y1407890D01*
X1307941D01*
X1307274Y1407224D01*
X1303275Y1403891D02*
X1305941D01*
Y1405891D01*
X1304608Y1405224D01*
X1303942D01*
X1303275Y1405891D01*
Y1407224D01*
X1303942Y1407890D01*
X1305275D01*
X1305941Y1407224D01*
X1562846Y177862D02*
X1562179Y178529D01*
X1560846D01*
X1560180Y177862D01*
Y175196D01*
X1560846Y174530D01*
X1562179D01*
X1562846Y175196D01*
X1566844Y178529D02*
X1565512Y177862D01*
X1564179Y176529D01*
Y175196D01*
X1564845Y174530D01*
X1566178D01*
X1566844Y175196D01*
Y175863D01*
X1566178Y176529D01*
X1564179D01*
X1568177Y177862D02*
X1568844Y178529D01*
X1570177D01*
X1570843Y177862D01*
Y175196D01*
X1570177Y174530D01*
X1568844D01*
X1568177Y175196D01*
Y177862D01*
X1564702Y321834D02*
X1565369Y322501D01*
Y323834D01*
X1564702Y324500D01*
X1562036D01*
X1561370Y323834D01*
Y322501D01*
X1562036Y321834D01*
X1561370Y318502D02*
X1565369D01*
X1563369Y320501D01*
Y317836D01*
X1564702Y316503D02*
X1565369Y315836D01*
Y314503D01*
X1564702Y313837D01*
X1564036D01*
X1563369Y314503D01*
X1562703Y313837D01*
X1562036D01*
X1561370Y314503D01*
Y315836D01*
X1562036Y316503D01*
X1562703D01*
X1563369Y315836D01*
X1564036Y316503D01*
X1564702D01*
X1563369Y315836D02*
Y314503D01*
X1568512Y201264D02*
X1569179Y201931D01*
Y203264D01*
X1568512Y203930D01*
X1565846D01*
X1565180Y203264D01*
Y201931D01*
X1565846Y201264D01*
X1569179Y197265D02*
Y199931D01*
X1567179D01*
X1567846Y198598D01*
Y197932D01*
X1567179Y197265D01*
X1565846D01*
X1565180Y197932D01*
Y199265D01*
X1565846Y199931D01*
X1569179Y193267D02*
X1568512Y194600D01*
X1567179Y195933D01*
X1565846D01*
X1565180Y195266D01*
Y193933D01*
X1565846Y193267D01*
X1566513D01*
X1567179Y193933D01*
Y195933D01*
X1583166Y177862D02*
X1582499Y178529D01*
X1581166D01*
X1580500Y177862D01*
Y175196D01*
X1581166Y174530D01*
X1582499D01*
X1583166Y175196D01*
X1587164Y178529D02*
X1585832Y177862D01*
X1584499Y176529D01*
Y175196D01*
X1585165Y174530D01*
X1586498D01*
X1587164Y175196D01*
Y175863D01*
X1586498Y176529D01*
X1584499D01*
X1588497Y174530D02*
X1589830D01*
X1589164D01*
Y178529D01*
X1588497Y177862D01*
X1595182Y202454D02*
X1595849Y203121D01*
Y204454D01*
X1595182Y205120D01*
X1592516D01*
X1591850Y204454D01*
Y203121D01*
X1592516Y202454D01*
X1595849Y198456D02*
Y201121D01*
X1593849D01*
X1594516Y199788D01*
Y199122D01*
X1593849Y198456D01*
X1592516D01*
X1591850Y199122D01*
Y200455D01*
X1592516Y201121D01*
X1595849Y194457D02*
Y197123D01*
X1593849D01*
X1594516Y195790D01*
Y195123D01*
X1593849Y194457D01*
X1592516D01*
X1591850Y195123D01*
Y196456D01*
X1592516Y197123D01*
X1392746Y323912D02*
X1392079Y324579D01*
X1390746D01*
X1390080Y323912D01*
Y321246D01*
X1390746Y320580D01*
X1392079D01*
X1392746Y321246D01*
X1396078Y320580D02*
Y324579D01*
X1394079Y322579D01*
X1396745D01*
X1398077Y324579D02*
X1400743D01*
Y323912D01*
X1398077Y321246D01*
Y320580D01*
X1412302Y194754D02*
X1412969Y195421D01*
Y196754D01*
X1412302Y197420D01*
X1409636D01*
X1408970Y196754D01*
Y195421D01*
X1409636Y194754D01*
X1412969Y190756D02*
Y193421D01*
X1410969D01*
X1411636Y192088D01*
Y191422D01*
X1410969Y190756D01*
X1409636D01*
X1408970Y191422D01*
Y192755D01*
X1409636Y193421D01*
X1412302Y189423D02*
X1412969Y188756D01*
Y187423D01*
X1412302Y186757D01*
X1411636D01*
X1410969Y187423D01*
X1410303Y186757D01*
X1409636D01*
X1408970Y187423D01*
Y188756D01*
X1409636Y189423D01*
X1410303D01*
X1410969Y188756D01*
X1411636Y189423D01*
X1412302D01*
X1410969Y188756D02*
Y187423D01*
X1398332Y303974D02*
X1398999Y304641D01*
Y305974D01*
X1398332Y306640D01*
X1395666D01*
X1395000Y305974D01*
Y304641D01*
X1395666Y303974D01*
X1398999Y299975D02*
Y302641D01*
X1396999D01*
X1397666Y301308D01*
Y300642D01*
X1396999Y299975D01*
X1395666D01*
X1395000Y300642D01*
Y301975D01*
X1395666Y302641D01*
X1395000Y298643D02*
Y297310D01*
Y297976D01*
X1398999D01*
X1398332Y298643D01*
X1372426Y323912D02*
X1371759Y324579D01*
X1370426D01*
X1369760Y323912D01*
Y321246D01*
X1370426Y320580D01*
X1371759D01*
X1372426Y321246D01*
X1375758Y320580D02*
Y324579D01*
X1373759Y322579D01*
X1376425D01*
X1380423Y324579D02*
X1379090Y323912D01*
X1377757Y322579D01*
Y321246D01*
X1378424Y320580D01*
X1379757D01*
X1380423Y321246D01*
Y321913D01*
X1379757Y322579D01*
X1377757D01*
X1372932Y304054D02*
X1373599Y304721D01*
Y306054D01*
X1372932Y306720D01*
X1370266D01*
X1369600Y306054D01*
Y304721D01*
X1370266Y304054D01*
X1373599Y300056D02*
Y302721D01*
X1371599D01*
X1372266Y301388D01*
Y300722D01*
X1371599Y300056D01*
X1370266D01*
X1369600Y300722D01*
Y302055D01*
X1370266Y302721D01*
X1372932Y298723D02*
X1373599Y298056D01*
Y296723D01*
X1372932Y296057D01*
X1370266D01*
X1369600Y296723D01*
Y298056D01*
X1370266Y298723D01*
X1372932D01*
X1038798Y1466184D02*
X1038131Y1466851D01*
Y1468184D01*
X1038798Y1468850D01*
X1041464D01*
X1042130Y1468184D01*
Y1466851D01*
X1041464Y1466184D01*
X1038131Y1462186D02*
X1038798Y1463518D01*
X1040131Y1464851D01*
X1041464D01*
X1042130Y1464185D01*
Y1462852D01*
X1041464Y1462186D01*
X1040797D01*
X1040131Y1462852D01*
Y1464851D01*
X1038131Y1458187D02*
X1038798Y1459520D01*
X1040131Y1460853D01*
X1041464D01*
X1042130Y1460186D01*
Y1458853D01*
X1041464Y1458187D01*
X1040797D01*
X1040131Y1458853D01*
Y1460853D01*
X884659Y321768D02*
X880660D01*
Y318769D01*
X882659D01*
X880660D01*
Y315770D01*
X886658Y321768D02*
Y315770D01*
X889657D01*
X890657Y316770D01*
Y317769D01*
X889657Y318769D01*
X886658D01*
X889657D01*
X890657Y319769D01*
Y320768D01*
X889657Y321768D01*
X886658D01*
X892656Y320768D02*
X893656Y321768D01*
X895655D01*
X896655Y320768D01*
Y319769D01*
X895655Y318769D01*
X894656D01*
X895655D01*
X896655Y317769D01*
Y316770D01*
X895655Y315770D01*
X893656D01*
X892656Y316770D01*
X1066651Y390341D02*
Y386343D01*
X1067651Y385343D01*
X1069650D01*
X1070650Y386343D01*
Y390341D01*
X1069650Y391341D01*
X1067651D01*
X1068651Y389342D02*
X1066651Y391341D01*
X1067651D02*
X1066651Y390341D01*
X1064652Y385343D02*
X1060653D01*
Y386343D01*
X1064652Y390341D01*
Y391341D01*
X1068071Y356711D02*
Y352713D01*
X1069071Y351713D01*
X1071070D01*
X1072070Y352713D01*
Y356711D01*
X1071070Y357711D01*
X1069071D01*
X1070071Y355712D02*
X1068071Y357711D01*
X1069071D02*
X1068071Y356711D01*
X1066072Y352713D02*
X1065072Y351713D01*
X1063073D01*
X1062073Y352713D01*
Y353712D01*
X1063073Y354712D01*
X1062073Y355712D01*
Y356711D01*
X1063073Y357711D01*
X1065072D01*
X1066072Y356711D01*
Y355712D01*
X1065072Y354712D01*
X1066072Y353712D01*
Y352713D01*
X1065072Y354712D02*
X1063073D01*
X681991Y1222470D02*
Y1218472D01*
X682991Y1217472D01*
X684990D01*
X685990Y1218472D01*
Y1222470D01*
X684990Y1223470D01*
X682991D01*
X683991Y1221471D02*
X681991Y1223470D01*
X682991D02*
X681991Y1222470D01*
X675993Y1217472D02*
X679992D01*
Y1220471D01*
X677993Y1219471D01*
X676993D01*
X675993Y1220471D01*
Y1222470D01*
X676993Y1223470D01*
X678992D01*
X679992Y1222470D01*
X1819370Y605789D02*
X1815372D01*
X1814372Y604789D01*
Y602790D01*
X1815372Y601790D01*
X1819370D01*
X1820370Y602790D01*
Y604789D01*
X1818371Y603789D02*
X1820370Y605789D01*
Y604789D02*
X1819370Y605789D01*
X1814372Y611787D02*
X1815372Y609787D01*
X1817371Y607788D01*
X1819370D01*
X1820370Y608788D01*
Y610787D01*
X1819370Y611787D01*
X1818371D01*
X1817371Y610787D01*
Y607788D01*
X1625670Y1357479D02*
X1621672D01*
X1620672Y1356479D01*
Y1354480D01*
X1621672Y1353480D01*
X1625670D01*
X1626670Y1354480D01*
Y1356479D01*
X1624671Y1355479D02*
X1626670Y1357479D01*
Y1356479D02*
X1625670Y1357479D01*
X1626670Y1363477D02*
Y1359478D01*
X1622671Y1363477D01*
X1621672D01*
X1620672Y1362477D01*
Y1360478D01*
X1621672Y1359478D01*
X1466310Y1363979D02*
X1462312D01*
X1461312Y1362979D01*
Y1360980D01*
X1462312Y1359980D01*
X1466310D01*
X1467310Y1360980D01*
Y1362979D01*
X1465311Y1361979D02*
X1467310Y1363979D01*
Y1362979D02*
X1466310Y1363979D01*
X1467310Y1365978D02*
Y1367977D01*
Y1366978D01*
X1461312D01*
X1462312Y1365978D01*
X1838010Y530130D02*
Y534129D01*
X1840009D01*
X1840676Y533462D01*
Y532129D01*
X1840009Y531463D01*
X1838010D01*
X1839343D02*
X1840676Y530130D01*
X1844008D02*
Y534129D01*
X1842009Y532129D01*
X1844675D01*
X1848673Y530130D02*
X1846007D01*
X1848673Y532796D01*
Y533462D01*
X1848007Y534129D01*
X1846674D01*
X1846007Y533462D01*
X1838010Y516160D02*
Y520159D01*
X1840009D01*
X1840676Y519492D01*
Y518159D01*
X1840009Y517493D01*
X1838010D01*
X1839343D02*
X1840676Y516160D01*
X1844008D02*
Y520159D01*
X1842009Y518159D01*
X1844675D01*
X1846007Y519492D02*
X1846674Y520159D01*
X1848007D01*
X1848673Y519492D01*
Y518826D01*
X1848007Y518159D01*
X1847340D01*
X1848007D01*
X1848673Y517493D01*
Y516826D01*
X1848007Y516160D01*
X1846674D01*
X1846007Y516826D01*
X1838010Y503460D02*
Y507459D01*
X1840009D01*
X1840676Y506792D01*
Y505459D01*
X1840009Y504793D01*
X1838010D01*
X1839343D02*
X1840676Y503460D01*
X1844008D02*
Y507459D01*
X1842009Y505459D01*
X1844675D01*
X1848007Y503460D02*
Y507459D01*
X1846007Y505459D01*
X1848673D01*
X1838010Y489490D02*
Y493489D01*
X1840009D01*
X1840676Y492822D01*
Y491489D01*
X1840009Y490823D01*
X1838010D01*
X1839343D02*
X1840676Y489490D01*
X1844008D02*
Y493489D01*
X1842009Y491489D01*
X1844675D01*
X1848673Y493489D02*
X1846007D01*
Y491489D01*
X1847340Y492156D01*
X1848007D01*
X1848673Y491489D01*
Y490156D01*
X1848007Y489490D01*
X1846674D01*
X1846007Y490156D01*
X1489436Y385806D02*
X1492263Y382978D01*
X1490849Y381564D01*
X1489907D01*
X1488964Y382507D01*
X1488964Y383449D01*
X1490378Y384863D01*
X1489436Y383921D02*
X1487551Y383921D01*
X1485194Y381564D02*
X1488022Y378737D01*
X1488022Y381564D01*
X1486137Y379679D01*
X1484252Y379679D02*
X1483309D01*
X1482367Y378737D01*
Y377794D01*
X1484252Y375909D01*
X1485194D01*
X1486137Y376852D01*
Y377794D01*
X1485666Y378265D01*
X1484723D01*
X1483309Y376852D01*
X1465065Y403995D02*
X1462237Y406822D01*
X1463651Y408236D01*
X1464594D01*
X1465536Y407294D01*
X1465536Y406351D01*
X1464122Y404937D01*
X1465065Y405880D02*
X1466950Y405880D01*
X1469306Y408236D02*
X1466478Y411064D01*
X1466478Y408236D01*
X1468363Y410121D01*
Y412006D02*
Y412949D01*
X1469306Y413891D01*
X1470249D01*
X1470720Y413420D01*
Y412477D01*
X1471662Y412477D01*
X1472133Y412006D01*
Y411064D01*
X1471191Y410121D01*
X1470249D01*
X1469777Y410592D01*
X1469777Y411535D01*
X1468835D01*
X1468363Y412006D01*
X1469777Y411535D02*
X1470720Y412477D01*
X1451857Y419058D02*
X1449029Y421886D01*
X1450443Y423299D01*
X1451385D01*
X1452328Y422357D01*
X1452328Y421414D01*
X1450914Y420001D01*
X1451857Y420943D02*
X1453742Y420943D01*
X1456098Y423299D02*
X1453270Y426127D01*
X1453270Y423299D01*
X1455155Y425184D01*
X1454684Y427541D02*
X1456569Y429426D01*
X1457040Y428954D01*
Y425184D01*
X1457512Y424713D01*
X1451638Y466406D02*
X1454465Y463579D01*
X1453052Y462165D01*
X1452109D01*
X1451167Y463108D01*
X1451167Y464050D01*
X1452580Y465464D01*
X1451638Y464521D02*
X1449753Y464521D01*
X1447397Y462165D02*
X1450224Y459338D01*
X1450224Y462165D01*
X1448339Y460280D01*
X1446925Y456039D02*
X1447397Y457453D01*
Y459338D01*
X1446454Y460280D01*
X1445512D01*
X1444569Y459338D01*
Y458395D01*
X1445040Y457924D01*
X1445983Y457924D01*
X1447397Y459338D01*
X1382509Y543327D02*
X1385336Y540500D01*
X1383923Y539086D01*
X1382980D01*
X1382038Y540029D01*
X1382038Y540971D01*
X1383452Y542385D01*
X1382509Y541442D02*
X1380624Y541442D01*
X1378268Y539086D02*
X1381095Y536259D01*
X1381095Y539086D01*
X1379210Y537201D01*
X1376854Y537672D02*
X1375912Y536730D01*
X1376383Y537201D01*
X1379210Y534374D01*
Y535316D01*
X263430Y340790D02*
X267429D01*
Y338791D01*
X266762Y338124D01*
X265429D01*
X264763Y338791D01*
Y340790D01*
Y339457D02*
X263430Y338124D01*
X267429Y334126D02*
Y336791D01*
X265429D01*
X266096Y335458D01*
Y334792D01*
X265429Y334126D01*
X264096D01*
X263430Y334792D01*
Y336125D01*
X264096Y336791D01*
X266762Y332793D02*
X267429Y332126D01*
Y330793D01*
X266762Y330127D01*
X266096D01*
X265429Y330793D01*
Y331460D01*
Y330793D01*
X264763Y330127D01*
X264096D01*
X263430Y330793D01*
Y332126D01*
X264096Y332793D01*
X300260Y340630D02*
X304259D01*
Y338631D01*
X303592Y337964D01*
X302259D01*
X301593Y338631D01*
Y340630D01*
Y339297D02*
X300260Y337964D01*
X304259Y333965D02*
Y336631D01*
X302259D01*
X302926Y335298D01*
Y334632D01*
X302259Y333965D01*
X300926D01*
X300260Y334632D01*
Y335965D01*
X300926Y336631D01*
X304259Y329967D02*
X303592Y331300D01*
X302259Y332633D01*
X300926D01*
X300260Y331966D01*
Y330633D01*
X300926Y329967D01*
X301593D01*
X302259Y330633D01*
Y332633D01*
X339630Y340710D02*
X343629D01*
Y338711D01*
X342962Y338044D01*
X341629D01*
X340963Y338711D01*
Y340710D01*
Y339377D02*
X339630Y338044D01*
X343629Y334045D02*
Y336711D01*
X341629D01*
X342296Y335378D01*
Y334712D01*
X341629Y334045D01*
X340296D01*
X339630Y334712D01*
Y336045D01*
X340296Y336711D01*
X339630Y330713D02*
X343629D01*
X341629Y332713D01*
Y330047D01*
X377730Y340710D02*
X381729D01*
Y338711D01*
X381062Y338044D01*
X379729D01*
X379063Y338711D01*
Y340710D01*
Y339377D02*
X377730Y338044D01*
X381729Y334045D02*
Y336711D01*
X379729D01*
X380396Y335378D01*
Y334712D01*
X379729Y334045D01*
X378396D01*
X377730Y334712D01*
Y336045D01*
X378396Y336711D01*
X381729Y330047D02*
Y332713D01*
X379729D01*
X380396Y331380D01*
Y330713D01*
X379729Y330047D01*
X378396D01*
X377730Y330713D01*
Y332046D01*
X378396Y332713D01*
X219170Y568010D02*
X215171D01*
Y570009D01*
X215838Y570676D01*
X217171D01*
X217837Y570009D01*
Y568010D01*
Y569343D02*
X219170Y570676D01*
Y574008D02*
X215171D01*
X217171Y572009D01*
Y574674D01*
X215838Y576007D02*
X215171Y576674D01*
Y578007D01*
X215838Y578673D01*
X218504D01*
X219170Y578007D01*
Y576674D01*
X218504Y576007D01*
X215838D01*
X1628680Y1136330D02*
X1632679D01*
Y1134331D01*
X1632012Y1133664D01*
X1630679D01*
X1630013Y1134331D01*
Y1136330D01*
Y1134997D02*
X1628680Y1133664D01*
Y1129666D02*
Y1132331D01*
X1631346Y1129666D01*
X1632012D01*
X1632679Y1130332D01*
Y1131665D01*
X1632012Y1132331D01*
X1632679Y1128333D02*
Y1125667D01*
X1632012D01*
X1629346Y1128333D01*
X1628680D01*
X1642650Y1136250D02*
X1646649D01*
Y1134251D01*
X1645982Y1133584D01*
X1644649D01*
X1643983Y1134251D01*
Y1136250D01*
Y1134917D02*
X1642650Y1133584D01*
Y1129585D02*
Y1132251D01*
X1645316Y1129585D01*
X1645982D01*
X1646649Y1130252D01*
Y1131585D01*
X1645982Y1132251D01*
Y1128253D02*
X1646649Y1127586D01*
Y1126253D01*
X1645982Y1125587D01*
X1645316D01*
X1644649Y1126253D01*
X1643983Y1125587D01*
X1643316D01*
X1642650Y1126253D01*
Y1127586D01*
X1643316Y1128253D01*
X1643983D01*
X1644649Y1127586D01*
X1645316Y1128253D01*
X1645982D01*
X1644649Y1127586D02*
Y1126253D01*
X1655350Y1136250D02*
X1659349D01*
Y1134251D01*
X1658682Y1133584D01*
X1657349D01*
X1656683Y1134251D01*
Y1136250D01*
Y1134917D02*
X1655350Y1133584D01*
Y1129585D02*
Y1132251D01*
X1658016Y1129585D01*
X1658682D01*
X1659349Y1130252D01*
Y1131585D01*
X1658682Y1132251D01*
X1656016Y1128253D02*
X1655350Y1127586D01*
Y1126253D01*
X1656016Y1125587D01*
X1658682D01*
X1659349Y1126253D01*
Y1127586D01*
X1658682Y1128253D01*
X1658016D01*
X1657349Y1127586D01*
Y1125587D01*
X944150Y290590D02*
X948149D01*
Y288591D01*
X947482Y287924D01*
X946149D01*
X945483Y288591D01*
Y290590D01*
Y289257D02*
X944150Y287924D01*
X948149Y283925D02*
Y286591D01*
X946149D01*
X946816Y285258D01*
Y284592D01*
X946149Y283925D01*
X944816D01*
X944150Y284592D01*
Y285925D01*
X944816Y286591D01*
X948149Y282593D02*
Y279927D01*
X947482D01*
X944816Y282593D01*
X944150D01*
X956850Y290510D02*
X960849D01*
Y288511D01*
X960182Y287844D01*
X958849D01*
X958183Y288511D01*
Y290510D01*
Y289177D02*
X956850Y287844D01*
X960849Y283846D02*
Y286511D01*
X958849D01*
X959516Y285178D01*
Y284512D01*
X958849Y283846D01*
X957516D01*
X956850Y284512D01*
Y285845D01*
X957516Y286511D01*
X960182Y282513D02*
X960849Y281846D01*
Y280513D01*
X960182Y279847D01*
X959516D01*
X958849Y280513D01*
X958183Y279847D01*
X957516D01*
X956850Y280513D01*
Y281846D01*
X957516Y282513D01*
X958183D01*
X958849Y281846D01*
X959516Y282513D01*
X960182D01*
X958849Y281846D02*
Y280513D01*
X1095690Y275050D02*
Y271051D01*
X1093691D01*
X1093024Y271718D01*
Y273051D01*
X1093691Y273717D01*
X1095690D01*
X1094357D02*
X1093024Y275050D01*
X1089025Y271051D02*
X1091691D01*
Y273051D01*
X1090358Y272384D01*
X1089692D01*
X1089025Y273051D01*
Y274384D01*
X1089692Y275050D01*
X1091025D01*
X1091691Y274384D01*
X1087693D02*
X1087026Y275050D01*
X1085693D01*
X1085027Y274384D01*
Y271718D01*
X1085693Y271051D01*
X1087026D01*
X1087693Y271718D01*
Y272384D01*
X1087026Y273051D01*
X1085027D01*
X1108390Y260160D02*
Y256161D01*
X1106391D01*
X1105724Y256828D01*
Y258161D01*
X1106391Y258827D01*
X1108390D01*
X1107057D02*
X1105724Y260160D01*
X1101725Y256161D02*
X1103058Y256828D01*
X1104391Y258161D01*
Y259494D01*
X1103725Y260160D01*
X1102392D01*
X1101725Y259494D01*
Y258827D01*
X1102392Y258161D01*
X1104391D01*
X1100393Y256828D02*
X1099726Y256161D01*
X1098393D01*
X1097727Y256828D01*
Y259494D01*
X1098393Y260160D01*
X1099726D01*
X1100393Y259494D01*
Y256828D01*
X1108390Y244920D02*
Y240921D01*
X1106391D01*
X1105724Y241588D01*
Y242921D01*
X1106391Y243587D01*
X1108390D01*
X1107057D02*
X1105724Y244920D01*
X1101725Y240921D02*
X1103058Y241588D01*
X1104391Y242921D01*
Y244254D01*
X1103725Y244920D01*
X1102392D01*
X1101725Y244254D01*
Y243587D01*
X1102392Y242921D01*
X1104391D01*
X1100393Y244920D02*
X1099060D01*
X1099726D01*
Y240921D01*
X1100393Y241588D01*
X1095690Y229330D02*
Y225331D01*
X1093691D01*
X1093024Y225998D01*
Y227331D01*
X1093691Y227997D01*
X1095690D01*
X1094357D02*
X1093024Y229330D01*
X1089025Y225331D02*
X1090358Y225998D01*
X1091691Y227331D01*
Y228664D01*
X1091025Y229330D01*
X1089692D01*
X1089025Y228664D01*
Y227997D01*
X1089692Y227331D01*
X1091691D01*
X1085027Y229330D02*
X1087693D01*
X1085027Y226664D01*
Y225998D01*
X1085693Y225331D01*
X1087026D01*
X1087693Y225998D01*
X594040Y1207040D02*
Y1211039D01*
X592041D01*
X591374Y1210372D01*
Y1209039D01*
X592041Y1208373D01*
X594040D01*
X592707D02*
X591374Y1207040D01*
X590041Y1211039D02*
X587375D01*
Y1210372D01*
X590041Y1207706D01*
Y1207040D01*
X586043Y1207706D02*
X585376Y1207040D01*
X584043D01*
X583377Y1207706D01*
Y1210372D01*
X584043Y1211039D01*
X585376D01*
X586043Y1210372D01*
Y1209706D01*
X585376Y1209039D01*
X583377D01*
X466960Y1222280D02*
Y1226279D01*
X464961D01*
X464294Y1225612D01*
Y1224279D01*
X464961Y1223613D01*
X466960D01*
X465627D02*
X464294Y1222280D01*
X462961Y1226279D02*
X460295D01*
Y1225612D01*
X462961Y1222946D01*
Y1222280D01*
X458963Y1225612D02*
X458296Y1226279D01*
X456963D01*
X456297Y1225612D01*
Y1224946D01*
X456963Y1224279D01*
X456297Y1223613D01*
Y1222946D01*
X456963Y1222280D01*
X458296D01*
X458963Y1222946D01*
Y1223613D01*
X458296Y1224279D01*
X458963Y1224946D01*
Y1225612D01*
X458296Y1224279D02*
X456963D01*
X430850Y1317720D02*
Y1313721D01*
X432849D01*
X433516Y1314388D01*
Y1315721D01*
X432849Y1316387D01*
X430850D01*
X432183D02*
X433516Y1317720D01*
X434849Y1313721D02*
X437514D01*
Y1314388D01*
X434849Y1317054D01*
Y1317720D01*
X438847D02*
X440180D01*
X439514D01*
Y1313721D01*
X438847Y1314388D01*
X621570Y1218330D02*
X625569D01*
Y1220329D01*
X624902Y1220996D01*
X623569D01*
X622903Y1220329D01*
Y1218330D01*
Y1219663D02*
X621570Y1220996D01*
X625569Y1222329D02*
Y1224995D01*
X624902D01*
X622236Y1222329D01*
X621570D01*
X624902Y1226327D02*
X625569Y1226994D01*
Y1228327D01*
X624902Y1228993D01*
X624236D01*
X623569Y1228327D01*
Y1227660D01*
Y1228327D01*
X622903Y1228993D01*
X622236D01*
X621570Y1228327D01*
Y1226994D01*
X622236Y1226327D01*
X607600Y1218330D02*
X611599D01*
Y1220329D01*
X610932Y1220996D01*
X609599D01*
X608933Y1220329D01*
Y1218330D01*
Y1219663D02*
X607600Y1220996D01*
X611599Y1222329D02*
Y1224995D01*
X610932D01*
X608266Y1222329D01*
X607600D01*
Y1228327D02*
X611599D01*
X609599Y1226327D01*
Y1228993D01*
X554450Y1383900D02*
X550451D01*
Y1381901D01*
X551118Y1381234D01*
X552451D01*
X553117Y1381901D01*
Y1383900D01*
Y1382567D02*
X554450Y1381234D01*
X550451Y1377236D02*
X551118Y1378568D01*
X552451Y1379901D01*
X553784D01*
X554450Y1379235D01*
Y1377902D01*
X553784Y1377236D01*
X553117D01*
X552451Y1377902D01*
Y1379901D01*
X550451Y1375903D02*
Y1373237D01*
X551118D01*
X553784Y1375903D01*
X554450D01*
X549370Y1257060D02*
X545371D01*
Y1255061D01*
X546038Y1254394D01*
X547371D01*
X548037Y1255061D01*
Y1257060D01*
Y1255727D02*
X549370Y1254394D01*
X545371Y1253061D02*
Y1250396D01*
X546038D01*
X548704Y1253061D01*
X549370D01*
X545371Y1249063D02*
Y1246397D01*
X546038D01*
X548704Y1249063D01*
X549370D01*
X521240Y1217060D02*
X525239D01*
Y1219059D01*
X524572Y1219726D01*
X523239D01*
X522573Y1219059D01*
Y1217060D01*
Y1218393D02*
X521240Y1219726D01*
X525239Y1221059D02*
Y1223725D01*
X524572D01*
X521906Y1221059D01*
X521240D01*
X525239Y1227723D02*
X524572Y1226390D01*
X523239Y1225057D01*
X521906D01*
X521240Y1225724D01*
Y1227057D01*
X521906Y1227723D01*
X522573D01*
X523239Y1227057D01*
Y1225057D01*
X532670Y1217060D02*
X536669D01*
Y1219059D01*
X536002Y1219726D01*
X534669D01*
X534003Y1219059D01*
Y1217060D01*
Y1218393D02*
X532670Y1219726D01*
X536669Y1221059D02*
Y1223725D01*
X536002D01*
X533336Y1221059D01*
X532670D01*
X536669Y1227723D02*
Y1225057D01*
X534669D01*
X535336Y1226390D01*
Y1227057D01*
X534669Y1227723D01*
X533336D01*
X532670Y1227057D01*
Y1225724D01*
X533336Y1225057D01*
X575550Y1320260D02*
Y1316261D01*
X577549D01*
X578216Y1316928D01*
Y1318261D01*
X577549Y1318927D01*
X575550D01*
X576883D02*
X578216Y1320260D01*
X579549Y1316261D02*
X582215D01*
Y1316928D01*
X579549Y1319594D01*
Y1320260D01*
X583547Y1316928D02*
X584214Y1316261D01*
X585547D01*
X586213Y1316928D01*
Y1319594D01*
X585547Y1320260D01*
X584214D01*
X583547Y1319594D01*
Y1316928D01*
X575630Y1308830D02*
Y1304831D01*
X577629D01*
X578296Y1305498D01*
Y1306831D01*
X577629Y1307497D01*
X575630D01*
X576963D02*
X578296Y1308830D01*
X579629Y1304831D02*
X582295D01*
Y1305498D01*
X579629Y1308164D01*
Y1308830D01*
X586293D02*
X583627D01*
X586293Y1306164D01*
Y1305498D01*
X585627Y1304831D01*
X584294D01*
X583627Y1305498D01*
X702850Y1485500D02*
X706849D01*
Y1483501D01*
X706182Y1482834D01*
X704849D01*
X704183Y1483501D01*
Y1485500D01*
Y1484167D02*
X702850Y1482834D01*
Y1479502D02*
X706849D01*
X704849Y1481501D01*
Y1478835D01*
X672560Y1445500D02*
X668561D01*
Y1447499D01*
X669228Y1448166D01*
X670561D01*
X671227Y1447499D01*
Y1445500D01*
Y1446833D02*
X672560Y1448166D01*
X669228Y1449499D02*
X668561Y1450165D01*
Y1451498D01*
X669228Y1452164D01*
X669894D01*
X670561Y1451498D01*
Y1450832D01*
Y1451498D01*
X671227Y1452164D01*
X671894D01*
X672560Y1451498D01*
Y1450165D01*
X671894Y1449499D01*
X801910Y1485500D02*
X805909D01*
Y1483501D01*
X805242Y1482834D01*
X803909D01*
X803243Y1483501D01*
Y1485500D01*
Y1484167D02*
X801910Y1482834D01*
X805909Y1478835D02*
X805242Y1480168D01*
X803909Y1481501D01*
X802576D01*
X801910Y1480835D01*
Y1479502D01*
X802576Y1478835D01*
X803243D01*
X803909Y1479502D01*
Y1481501D01*
X776700Y1445500D02*
X772701D01*
Y1447499D01*
X773368Y1448166D01*
X774701D01*
X775367Y1447499D01*
Y1445500D01*
Y1446833D02*
X776700Y1448166D01*
X772701Y1452164D02*
Y1449499D01*
X774701D01*
X774034Y1450832D01*
Y1451498D01*
X774701Y1452164D01*
X776034D01*
X776700Y1451498D01*
Y1450165D01*
X776034Y1449499D01*
X707790Y1227360D02*
Y1231359D01*
X709789D01*
X710456Y1230692D01*
Y1229359D01*
X709789Y1228693D01*
X707790D01*
X709123D02*
X710456Y1227360D01*
X714454D02*
X711789D01*
X714454Y1230026D01*
Y1230692D01*
X713788Y1231359D01*
X712455D01*
X711789Y1230692D01*
X718453Y1231359D02*
X715787D01*
Y1229359D01*
X717120Y1230026D01*
X717787D01*
X718453Y1229359D01*
Y1228026D01*
X717787Y1227360D01*
X716454D01*
X715787Y1228026D01*
X1228820Y1453120D02*
X1224821D01*
Y1455119D01*
X1225488Y1455786D01*
X1226821D01*
X1227487Y1455119D01*
Y1453120D01*
Y1454453D02*
X1228820Y1455786D01*
Y1459785D02*
Y1457119D01*
X1226154Y1459785D01*
X1225488D01*
X1224821Y1459118D01*
Y1457785D01*
X1225488Y1457119D01*
X1588230Y835900D02*
X1584231D01*
Y837899D01*
X1584898Y838566D01*
X1586231D01*
X1586897Y837899D01*
Y835900D01*
Y837233D02*
X1588230Y838566D01*
X1584898Y839899D02*
X1584231Y840565D01*
Y841898D01*
X1584898Y842564D01*
X1585564D01*
X1586231Y841898D01*
Y841232D01*
Y841898D01*
X1586897Y842564D01*
X1587564D01*
X1588230Y841898D01*
Y840565D01*
X1587564Y839899D01*
X1584898Y843897D02*
X1584231Y844564D01*
Y845897D01*
X1584898Y846563D01*
X1587564D01*
X1588230Y845897D01*
Y844564D01*
X1587564Y843897D01*
X1584898D01*
X1639030Y834710D02*
X1635031D01*
Y836709D01*
X1635698Y837376D01*
X1637031D01*
X1637697Y836709D01*
Y834710D01*
Y836043D02*
X1639030Y837376D01*
X1635698Y838709D02*
X1635031Y839375D01*
Y840708D01*
X1635698Y841375D01*
X1636364D01*
X1637031Y840708D01*
Y840042D01*
Y840708D01*
X1637697Y841375D01*
X1638364D01*
X1639030Y840708D01*
Y839375D01*
X1638364Y838709D01*
X1639030Y842707D02*
Y844040D01*
Y843374D01*
X1635031D01*
X1635698Y842707D01*
X1200880Y1453120D02*
X1196881D01*
Y1455119D01*
X1197548Y1455786D01*
X1198881D01*
X1199547Y1455119D01*
Y1453120D01*
Y1454453D02*
X1200880Y1455786D01*
Y1457119D02*
Y1458452D01*
Y1457785D01*
X1196881D01*
X1197548Y1457119D01*
X1823320Y628110D02*
Y624111D01*
X1821321D01*
X1820654Y624778D01*
Y626111D01*
X1821321Y626777D01*
X1823320D01*
X1821987D02*
X1820654Y628110D01*
X1819321Y624778D02*
X1818655Y624111D01*
X1817322D01*
X1816655Y624778D01*
Y625444D01*
X1817322Y626111D01*
X1817988D01*
X1817322D01*
X1816655Y626777D01*
Y627444D01*
X1817322Y628110D01*
X1818655D01*
X1819321Y627444D01*
X1815323Y624111D02*
X1812657D01*
Y624778D01*
X1815323Y627444D01*
Y628110D01*
X1885080Y1255300D02*
Y1259299D01*
X1887079D01*
X1887746Y1258632D01*
Y1257299D01*
X1887079Y1256633D01*
X1885080D01*
X1886413D02*
X1887746Y1255300D01*
X1891745D02*
X1889079D01*
X1891745Y1257966D01*
Y1258632D01*
X1891078Y1259299D01*
X1889745D01*
X1889079Y1258632D01*
X1895077Y1255300D02*
Y1259299D01*
X1893077Y1257299D01*
X1895743D01*
X1602980Y1450880D02*
Y1454879D01*
X1604979D01*
X1605646Y1454212D01*
Y1452879D01*
X1604979Y1452213D01*
X1602980D01*
X1604313D02*
X1605646Y1450880D01*
X1606979D02*
X1608312D01*
X1607645D01*
Y1454879D01*
X1606979Y1454212D01*
X1612310Y1450880D02*
Y1454879D01*
X1610311Y1452879D01*
X1612977D01*
X1441850Y1449610D02*
Y1453609D01*
X1443849D01*
X1444516Y1452942D01*
Y1451609D01*
X1443849Y1450943D01*
X1441850D01*
X1443183D02*
X1444516Y1449610D01*
X1445849D02*
X1447182D01*
X1446515D01*
Y1453609D01*
X1445849Y1452942D01*
X1451847Y1453609D02*
X1449181D01*
Y1451609D01*
X1450514Y1452276D01*
X1451180D01*
X1451847Y1451609D01*
Y1450276D01*
X1451180Y1449610D01*
X1449847D01*
X1449181Y1450276D01*
X1602980Y1398810D02*
Y1402809D01*
X1604979D01*
X1605646Y1402142D01*
Y1400809D01*
X1604979Y1400143D01*
X1602980D01*
X1604313D02*
X1605646Y1398810D01*
X1606979D02*
X1608312D01*
X1607645D01*
Y1402809D01*
X1606979Y1402142D01*
X1610311Y1402809D02*
X1612977D01*
Y1402142D01*
X1610311Y1399476D01*
Y1398810D01*
X1635220Y1300720D02*
X1631221D01*
Y1302719D01*
X1631888Y1303386D01*
X1633221D01*
X1633887Y1302719D01*
Y1300720D01*
Y1302053D02*
X1635220Y1303386D01*
Y1307384D02*
Y1304719D01*
X1632554Y1307384D01*
X1631888D01*
X1631221Y1306718D01*
Y1305385D01*
X1631888Y1304719D01*
X1635220Y1311383D02*
Y1308717D01*
X1632554Y1311383D01*
X1631888D01*
X1631221Y1310717D01*
Y1309384D01*
X1631888Y1308717D01*
X1441770Y1400080D02*
Y1404079D01*
X1443769D01*
X1444436Y1403412D01*
Y1402079D01*
X1443769Y1401413D01*
X1441770D01*
X1443103D02*
X1444436Y1400080D01*
X1445769D02*
X1447102D01*
X1446435D01*
Y1404079D01*
X1445769Y1403412D01*
X1451767Y1404079D02*
X1450434Y1403412D01*
X1449101Y1402079D01*
Y1400746D01*
X1449767Y1400080D01*
X1451100D01*
X1451767Y1400746D01*
Y1401413D01*
X1451100Y1402079D01*
X1449101D01*
X1498200Y1322800D02*
Y1318801D01*
X1496201D01*
X1495534Y1319468D01*
Y1320801D01*
X1496201Y1321467D01*
X1498200D01*
X1496867D02*
X1495534Y1322800D01*
X1491535D02*
X1494201D01*
X1491535Y1320134D01*
Y1319468D01*
X1492202Y1318801D01*
X1493535D01*
X1494201Y1319468D01*
X1490203D02*
X1489536Y1318801D01*
X1488203D01*
X1487537Y1319468D01*
Y1320134D01*
X1488203Y1320801D01*
X1488870D01*
X1488203D01*
X1487537Y1321467D01*
Y1322134D01*
X1488203Y1322800D01*
X1489536D01*
X1490203Y1322134D01*
X1874200Y1185640D02*
Y1181641D01*
X1872201D01*
X1871534Y1182308D01*
Y1183641D01*
X1872201Y1184307D01*
X1874200D01*
X1872867D02*
X1871534Y1185640D01*
X1867536D02*
X1870201D01*
X1867536Y1182974D01*
Y1182308D01*
X1868202Y1181641D01*
X1869535D01*
X1870201Y1182308D01*
X1863537Y1181641D02*
X1864870Y1182308D01*
X1866203Y1183641D01*
Y1184974D01*
X1865536Y1185640D01*
X1864203D01*
X1863537Y1184974D01*
Y1184307D01*
X1864203Y1183641D01*
X1866203D01*
X1591850Y1378900D02*
X1595849D01*
Y1376901D01*
X1595182Y1376234D01*
X1593849D01*
X1593183Y1376901D01*
Y1378900D01*
Y1377567D02*
X1591850Y1376234D01*
Y1372236D02*
Y1374901D01*
X1594516Y1372236D01*
X1595182D01*
X1595849Y1372902D01*
Y1374235D01*
X1595182Y1374901D01*
Y1370903D02*
X1595849Y1370236D01*
Y1368903D01*
X1595182Y1368237D01*
X1592516D01*
X1591850Y1368903D01*
Y1370236D01*
X1592516Y1370903D01*
X1595182D01*
X1435640Y1385170D02*
X1439639D01*
Y1383171D01*
X1438972Y1382504D01*
X1437639D01*
X1436973Y1383171D01*
Y1385170D01*
Y1383837D02*
X1435640Y1382504D01*
Y1381171D02*
Y1379838D01*
Y1380505D01*
X1439639D01*
X1438972Y1381171D01*
X1436306Y1377839D02*
X1435640Y1377173D01*
Y1375840D01*
X1436306Y1375173D01*
X1438972D01*
X1439639Y1375840D01*
Y1377173D01*
X1438972Y1377839D01*
X1438306D01*
X1437639Y1377173D01*
Y1375173D01*
X1813020Y1485500D02*
X1809021D01*
Y1483501D01*
X1809688Y1482834D01*
X1811021D01*
X1811687Y1483501D01*
Y1485500D01*
Y1484167D02*
X1813020Y1482834D01*
X1809021Y1478835D02*
X1809688Y1480168D01*
X1811021Y1481501D01*
X1812354D01*
X1813020Y1480835D01*
Y1479502D01*
X1812354Y1478835D01*
X1811687D01*
X1811021Y1479502D01*
Y1481501D01*
X1809688Y1477503D02*
X1809021Y1476836D01*
Y1475503D01*
X1809688Y1474837D01*
X1810354D01*
X1811021Y1475503D01*
Y1476170D01*
Y1475503D01*
X1811687Y1474837D01*
X1812354D01*
X1813020Y1475503D01*
Y1476836D01*
X1812354Y1477503D01*
X2039380Y1459960D02*
Y1455961D01*
X2037381D01*
X2036714Y1456628D01*
Y1457961D01*
X2037381Y1458627D01*
X2039380D01*
X2038047D02*
X2036714Y1459960D01*
X2035381D02*
X2034048D01*
X2034715D01*
Y1455961D01*
X2035381Y1456628D01*
X2032049D02*
X2031383Y1455961D01*
X2030050D01*
X2029383Y1456628D01*
Y1457294D01*
X2030050Y1457961D01*
X2030716D01*
X2030050D01*
X2029383Y1458627D01*
Y1459294D01*
X2030050Y1459960D01*
X2031383D01*
X2032049Y1459294D01*
X1125760Y1484310D02*
X1129759D01*
Y1482311D01*
X1129092Y1481644D01*
X1127759D01*
X1127093Y1482311D01*
Y1484310D01*
Y1482977D02*
X1125760Y1481644D01*
X1126426Y1480311D02*
X1125760Y1479645D01*
Y1478312D01*
X1126426Y1477646D01*
X1129092D01*
X1129759Y1478312D01*
Y1479645D01*
X1129092Y1480311D01*
X1128426D01*
X1127759Y1479645D01*
Y1477646D01*
X1814290Y1349690D02*
X1810291D01*
Y1347691D01*
X1810958Y1347024D01*
X1812291D01*
X1812957Y1347691D01*
Y1349690D01*
Y1348357D02*
X1814290Y1347024D01*
X1810291Y1343026D02*
X1810958Y1344358D01*
X1812291Y1345691D01*
X1813624D01*
X1814290Y1345025D01*
Y1343692D01*
X1813624Y1343026D01*
X1812957D01*
X1812291Y1343692D01*
Y1345691D01*
X1810958Y1341693D02*
X1810291Y1341026D01*
Y1339693D01*
X1810958Y1339027D01*
X1811624D01*
X1812291Y1339693D01*
X1812957Y1339027D01*
X1813624D01*
X1814290Y1339693D01*
Y1341026D01*
X1813624Y1341693D01*
X1812957D01*
X1812291Y1341026D01*
X1811624Y1341693D01*
X1810958D01*
X1812291Y1341026D02*
Y1339693D01*
X1927320Y1443040D02*
X1923321D01*
Y1445039D01*
X1923988Y1445706D01*
X1925321D01*
X1925987Y1445039D01*
Y1443040D01*
Y1444373D02*
X1927320Y1445706D01*
Y1447039D02*
Y1448372D01*
Y1447705D01*
X1923321D01*
X1923988Y1447039D01*
X1927320Y1453037D02*
Y1450371D01*
X1924654Y1453037D01*
X1923988D01*
X1923321Y1452370D01*
Y1451037D01*
X1923988Y1450371D01*
X1107980Y1484310D02*
X1111979D01*
Y1482311D01*
X1111312Y1481644D01*
X1109979D01*
X1109313Y1482311D01*
Y1484310D01*
Y1482977D02*
X1107980Y1481644D01*
X1111312Y1480311D02*
X1111979Y1479645D01*
Y1478312D01*
X1111312Y1477646D01*
X1110646D01*
X1109979Y1478312D01*
X1109313Y1477646D01*
X1108646D01*
X1107980Y1478312D01*
Y1479645D01*
X1108646Y1480311D01*
X1109313D01*
X1109979Y1479645D01*
X1110646Y1480311D01*
X1111312D01*
X1109979Y1479645D02*
Y1478312D01*
X1611946Y651482D02*
X1609119Y648655D01*
X1607705Y650068D01*
Y651011D01*
X1608648Y651953D01*
X1609590Y651953D01*
X1611004Y650540D01*
X1610061Y651482D02*
X1610061Y653367D01*
X1606763Y651953D02*
X1605820D01*
X1604878Y652896D01*
Y653838D01*
X1605349Y654310D01*
X1606291D01*
X1606763Y653838D01*
X1606291Y654310D01*
X1606291Y655252D01*
X1606763Y655723D01*
X1607705D01*
X1608648Y654781D01*
Y653838D01*
X1603935Y654781D02*
X1602993D01*
X1602050Y655723D01*
Y656666D01*
X1602521Y657137D01*
X1603464D01*
X1603935Y656666D01*
X1603464Y657137D01*
X1603464Y658080D01*
X1603935Y658551D01*
X1604878D01*
X1605820Y657608D01*
Y656666D01*
X1622106Y661642D02*
X1619279Y658815D01*
X1617865Y660228D01*
Y661171D01*
X1618808Y662113D01*
X1619750Y662113D01*
X1621164Y660700D01*
X1620221Y661642D02*
X1620221Y663527D01*
X1616923Y662113D02*
X1615980D01*
X1615038Y663056D01*
Y663998D01*
X1615509Y664470D01*
X1616451D01*
X1616923Y663998D01*
X1616451Y664470D01*
X1616451Y665412D01*
X1616923Y665883D01*
X1617865D01*
X1618808Y664941D01*
Y663998D01*
X1614566Y669182D02*
X1616451Y667297D01*
X1612681D01*
X1612210Y666826D01*
Y665883D01*
X1613153Y664941D01*
X1614095D01*
X1557611Y596598D02*
X1554783Y593770D01*
X1553369Y595184D01*
Y596126D01*
X1554312Y597069D01*
X1555255Y597069D01*
X1556668Y595655D01*
X1555726Y596598D02*
X1555726Y598483D01*
X1552427Y597069D02*
X1551485D01*
X1550542Y598011D01*
Y598954D01*
X1551013Y599425D01*
X1551956D01*
X1552427Y598954D01*
X1551956Y599425D01*
X1551956Y600368D01*
X1552427Y600839D01*
X1553369D01*
X1554312Y599896D01*
Y598954D01*
X1549599Y599896D02*
X1548657D01*
X1547715Y600839D01*
Y601781D01*
X1548186Y602253D01*
X1549128D01*
X1549128Y603195D01*
X1549599Y603666D01*
X1550542D01*
X1551485Y602724D01*
Y601781D01*
X1551013Y601310D01*
X1550071Y601310D01*
Y600368D01*
X1549599Y599896D01*
X1550071Y601310D02*
X1549128Y602253D01*
X1548721Y587708D02*
X1545893Y584880D01*
X1544480Y586294D01*
Y587236D01*
X1545422Y588179D01*
X1546364Y588179D01*
X1547778Y586765D01*
X1546836Y587708D02*
X1546836Y589593D01*
X1543537Y588179D02*
X1542594D01*
X1541652Y589121D01*
Y590064D01*
X1542123Y590535D01*
X1543066D01*
X1543537Y590064D01*
X1543066Y590535D01*
X1543066Y591478D01*
X1543537Y591949D01*
X1544480D01*
X1545422Y591006D01*
Y590064D01*
X1542594Y592891D02*
Y593834D01*
X1541652Y594776D01*
X1540710D01*
X1538824Y592891D01*
Y591949D01*
X1539767Y591006D01*
X1540710D01*
X1541181Y591478D01*
Y592420D01*
X1539767Y593834D01*
X1601786Y641322D02*
X1598959Y638495D01*
X1597545Y639908D01*
Y640851D01*
X1598488Y641793D01*
X1599430Y641793D01*
X1600844Y640380D01*
X1599901Y641322D02*
X1599901Y643207D01*
X1596603Y641793D02*
X1595660D01*
X1594718Y642736D01*
Y643678D01*
X1595189Y644150D01*
X1596131D01*
X1596603Y643678D01*
X1596131Y644150D01*
X1596131Y645092D01*
X1596603Y645563D01*
X1597545D01*
X1598488Y644621D01*
Y643678D01*
X1591419Y646035D02*
X1593304Y644150D01*
X1594718Y645563D01*
X1593304Y646035D01*
X1592833Y646506D01*
Y647448D01*
X1593775Y648391D01*
X1594718D01*
X1595660Y647448D01*
Y646506D01*
X1591626Y631162D02*
X1588799Y628335D01*
X1587385Y629748D01*
Y630691D01*
X1588328Y631633D01*
X1589270Y631633D01*
X1590684Y630220D01*
X1589741Y631162D02*
X1589741Y633047D01*
X1586443Y631633D02*
X1585500D01*
X1584558Y632576D01*
Y633518D01*
X1585029Y633990D01*
X1585971D01*
X1586443Y633518D01*
X1585971Y633990D01*
X1585971Y634932D01*
X1586443Y635403D01*
X1587385D01*
X1588328Y634461D01*
Y633518D01*
X1581259Y635875D02*
X1582673Y635403D01*
X1584558D01*
X1585500Y636346D01*
Y637288D01*
X1584558Y638231D01*
X1583615D01*
X1583144Y637760D01*
X1583144Y636817D01*
X1584558Y635403D01*
X1861090Y1484310D02*
X1865089D01*
Y1482311D01*
X1864422Y1481644D01*
X1863089D01*
X1862423Y1482311D01*
Y1484310D01*
Y1482977D02*
X1861090Y1481644D01*
Y1480311D02*
Y1478978D01*
Y1479645D01*
X1865089D01*
X1864422Y1480311D01*
Y1476979D02*
X1865089Y1476313D01*
Y1474980D01*
X1864422Y1474313D01*
X1861756D01*
X1861090Y1474980D01*
Y1476313D01*
X1861756Y1476979D01*
X1864422D01*
X2039220Y1455960D02*
Y1459959D01*
X2037221D01*
X2036554Y1459292D01*
Y1457959D01*
X2037221Y1457293D01*
X2039220D01*
X2037887D02*
X2036554Y1455960D01*
X2032556Y1459959D02*
X2033888Y1459292D01*
X2035221Y1457959D01*
Y1456626D01*
X2034555Y1455960D01*
X2033222D01*
X2032556Y1456626D01*
Y1457293D01*
X2033222Y1457959D01*
X2035221D01*
X2028557Y1459959D02*
X2031223D01*
Y1457959D01*
X2029890Y1458626D01*
X2029223D01*
X2028557Y1457959D01*
Y1456626D01*
X2029223Y1455960D01*
X2030556D01*
X2031223Y1456626D01*
X1861090Y1349690D02*
X1865089D01*
Y1347691D01*
X1864422Y1347024D01*
X1863089D01*
X1862423Y1347691D01*
Y1349690D01*
Y1348357D02*
X1861090Y1347024D01*
Y1343026D02*
Y1345691D01*
X1863756Y1343026D01*
X1864422D01*
X1865089Y1343692D01*
Y1345025D01*
X1864422Y1345691D01*
X1861090Y1341693D02*
Y1340360D01*
Y1341026D01*
X1865089D01*
X1864422Y1341693D01*
X1024160Y1484230D02*
X1028159D01*
Y1482231D01*
X1027492Y1481564D01*
X1026159D01*
X1025493Y1482231D01*
Y1484230D01*
Y1482897D02*
X1024160Y1481564D01*
Y1480231D02*
Y1478898D01*
Y1479565D01*
X1028159D01*
X1027492Y1480231D01*
X1024160Y1476899D02*
Y1475566D01*
Y1476233D01*
X1028159D01*
X1027492Y1476899D01*
X1923320Y1443120D02*
X1927319D01*
Y1445119D01*
X1926652Y1445786D01*
X1925319D01*
X1924653Y1445119D01*
Y1443120D01*
Y1444453D02*
X1923320Y1445786D01*
X1927319Y1449785D02*
X1926652Y1448452D01*
X1925319Y1447119D01*
X1923986D01*
X1923320Y1447785D01*
Y1449118D01*
X1923986Y1449785D01*
X1924653D01*
X1925319Y1449118D01*
Y1447119D01*
X1923320Y1453117D02*
X1927319D01*
X1925319Y1451117D01*
Y1453783D01*
X1007650Y1484310D02*
X1011649D01*
Y1482311D01*
X1010982Y1481644D01*
X1009649D01*
X1008983Y1482311D01*
Y1484310D01*
Y1482977D02*
X1007650Y1481644D01*
X1011649Y1480311D02*
Y1477646D01*
X1010982D01*
X1008316Y1480311D01*
X1007650D01*
X753379Y230680D02*
X749380D01*
Y233346D01*
X750046Y234679D02*
X749380Y235345D01*
Y236678D01*
X750046Y237344D01*
X752712D01*
X753379Y236678D01*
Y235345D01*
X752712Y234679D01*
X752046D01*
X751379Y235345D01*
Y237344D01*
X723251Y230680D02*
X727250D01*
Y233346D01*
X723251Y237344D02*
X723918Y236012D01*
X725251Y234679D01*
X726584D01*
X727250Y235345D01*
Y236678D01*
X726584Y237344D01*
X725917D01*
X725251Y236678D01*
Y234679D01*
X671371Y230680D02*
X675370D01*
Y233346D01*
Y236678D02*
X671371D01*
X673371Y234679D01*
Y237344D01*
X701499Y230680D02*
X697500D01*
Y233346D01*
Y234679D02*
Y236012D01*
Y235345D01*
X701499D01*
X700832Y234679D01*
Y238011D02*
X701499Y238677D01*
Y240010D01*
X700832Y240677D01*
X698166D01*
X697500Y240010D01*
Y238677D01*
X698166Y238011D01*
X700832D01*
X771891Y230680D02*
X775890D01*
Y233346D01*
X771891Y237344D02*
Y234679D01*
X773891D01*
X773224Y236012D01*
Y236678D01*
X773891Y237344D01*
X775224D01*
X775890Y236678D01*
Y235345D01*
X775224Y234679D01*
X799289Y230680D02*
X795290D01*
Y233346D01*
X798622Y234679D02*
X799289Y235345D01*
Y236678D01*
X798622Y237344D01*
X797956D01*
X797289Y236678D01*
X796623Y237344D01*
X795956D01*
X795290Y236678D01*
Y235345D01*
X795956Y234679D01*
X796623D01*
X797289Y235345D01*
X797956Y234679D01*
X798622D01*
X797289Y235345D02*
Y236678D01*
X564339Y188170D02*
X560340D01*
Y190836D01*
Y192169D02*
Y193502D01*
Y192835D01*
X564339D01*
X563672Y192169D01*
X560340Y195501D02*
Y196834D01*
Y196168D01*
X564339D01*
X563672Y195501D01*
X542749Y188170D02*
X538750D01*
Y190836D01*
Y192169D02*
Y193502D01*
Y192835D01*
X542749D01*
X542082Y192169D01*
X538750Y198167D02*
Y195501D01*
X541416Y198167D01*
X542082D01*
X542749Y197500D01*
Y196168D01*
X542082Y195501D01*
X1817830Y107491D02*
Y111490D01*
X1815164D01*
X1813831Y107491D02*
X1811165D01*
Y108158D01*
X1813831Y110824D01*
Y111490D01*
X588072Y513604D02*
X588739Y514271D01*
Y515604D01*
X588072Y516270D01*
X585406D01*
X584740Y515604D01*
Y514271D01*
X585406Y513604D01*
X584740Y509605D02*
Y512271D01*
X587406Y509605D01*
X588072D01*
X588739Y510272D01*
Y511605D01*
X588072Y512271D01*
X585406Y508273D02*
X584740Y507606D01*
Y506273D01*
X585406Y505607D01*
X588072D01*
X588739Y506273D01*
Y507606D01*
X588072Y508273D01*
X587406D01*
X586739Y507606D01*
Y505607D01*
X522510Y1397950D02*
X526509D01*
Y1395951D01*
X525842Y1395284D01*
X524509D01*
X523843Y1395951D01*
Y1397950D01*
Y1396617D02*
X522510Y1395284D01*
Y1393951D02*
Y1392618D01*
Y1393285D01*
X526509D01*
X525842Y1393951D01*
Y1390619D02*
X526509Y1389953D01*
Y1388620D01*
X525842Y1387953D01*
X525176D01*
X524509Y1388620D01*
X523843Y1387953D01*
X523176D01*
X522510Y1388620D01*
Y1389953D01*
X523176Y1390619D01*
X523843D01*
X524509Y1389953D01*
X525176Y1390619D01*
X525842D01*
X524509Y1389953D02*
Y1388620D01*
X1809553Y455077D02*
X1808611D01*
X1807668Y454135D01*
Y453192D01*
X1809553Y451307D01*
X1810496D01*
X1811438Y452250D01*
Y453192D01*
X1810496Y456020D02*
Y456962D01*
X1811438Y457905D01*
X1812381D01*
X1812852Y457434D01*
Y456491D01*
X1812381Y456020D01*
X1812852Y456491D01*
X1813795Y456491D01*
X1814266Y456020D01*
Y455077D01*
X1813323Y454135D01*
X1812381D01*
X1815679Y456491D02*
X1816622Y457434D01*
X1816151Y456962D01*
X1813323Y459790D01*
Y458847D01*
X1773117Y414873D02*
X1774059D01*
X1775002Y415815D01*
Y416758D01*
X1773117Y418643D01*
X1772174D01*
X1771232Y417700D01*
Y416758D01*
X1772174Y413930D02*
Y412988D01*
X1771232Y412045D01*
X1770289D01*
X1769818Y412517D01*
Y413459D01*
X1770289Y413930D01*
X1769818Y413459D01*
X1768875Y413459D01*
X1768404Y413930D01*
Y414873D01*
X1769347Y415815D01*
X1770289D01*
X1767933Y408746D02*
X1769818Y410631D01*
X1768404Y412045D01*
X1767933Y410631D01*
X1767462Y410160D01*
X1766519D01*
X1765577Y411103D01*
Y412045D01*
X1766519Y412988D01*
X1767462D01*
D214*
X1722203Y1245854D02*
Y1242522D01*
Y1244188D01*
X1730534D01*
X1732200Y1242522D01*
Y1240856D01*
X1730534Y1239190D01*
X1722203Y1255851D02*
X1723869Y1252519D01*
X1727202Y1249187D01*
X1730534D01*
X1732200Y1250853D01*
Y1254185D01*
X1730534Y1255851D01*
X1728868D01*
X1727202Y1254185D01*
Y1249187D01*
D314*
X678833Y1547893D02*
X680832Y1545894D01*
X684831D01*
X686830Y1547893D01*
Y1549893D01*
X684831Y1551892D01*
X680832D01*
X678833Y1553891D01*
Y1555891D01*
X680832Y1557890D01*
X684831D01*
X686830Y1555891D01*
X666836Y1557890D02*
X674834D01*
X666836Y1549893D01*
Y1547893D01*
X668836Y1545894D01*
X672834D01*
X674834Y1547893D01*
X784243D02*
X786242Y1545894D01*
X790241D01*
X792240Y1547893D01*
Y1549893D01*
X790241Y1551892D01*
X786242D01*
X784243Y1553891D01*
Y1555891D01*
X786242Y1557890D01*
X790241D01*
X792240Y1555891D01*
X780244Y1547893D02*
X778244Y1545894D01*
X774246D01*
X772246Y1547893D01*
Y1549893D01*
X774246Y1551892D01*
X776245D01*
X774246D01*
X772246Y1553891D01*
Y1555891D01*
X774246Y1557890D01*
X778244D01*
X780244Y1555891D01*
M02*
