G04 Layer_Color=128*
%FSLAX44Y44*%
%MOMM*%
G71*
G01*
G75*
%ADD315C,0.0508*%
D315*
X356870Y1358900D02*
X364490D01*
X360680Y1355090D02*
Y1362710D01*
X1065530Y657860D02*
X1073150D01*
X1069340Y654050D02*
Y661670D01*
X1425020Y845820D02*
X1435020D01*
X1430020Y840820D02*
Y850820D01*
X1425020Y871220D02*
X1435020D01*
X1430020Y866220D02*
Y876220D01*
X1425020Y896620D02*
X1435020D01*
X1430020Y891620D02*
Y901620D01*
X1425020Y922020D02*
X1435020D01*
X1430020Y917020D02*
Y927020D01*
X1425020Y947420D02*
X1435020D01*
X1430020Y942420D02*
Y952420D01*
X1399620Y845820D02*
X1409620D01*
X1404620Y840820D02*
Y850820D01*
X1399620Y871220D02*
X1409620D01*
X1404620Y866220D02*
Y876220D01*
X1399620Y896620D02*
X1409620D01*
X1404620Y891620D02*
Y901620D01*
X1399620Y922020D02*
X1409620D01*
X1404620Y917020D02*
Y927020D01*
X1399620Y947420D02*
X1409620D01*
X1404620Y942420D02*
Y952420D01*
X239730Y69240D02*
X255730D01*
X247730Y61240D02*
Y77240D01*
X402330Y69240D02*
X418330D01*
X410330Y61240D02*
Y77240D01*
X360030Y60340D02*
X369030D01*
X364530Y55840D02*
Y64840D01*
X349830Y78140D02*
X358830D01*
X354330Y73640D02*
Y82640D01*
X339730Y60340D02*
X348730D01*
X344230Y55840D02*
Y64840D01*
X329530Y78140D02*
X338530D01*
X334030Y73640D02*
Y82640D01*
X319430Y60340D02*
X328430D01*
X323930Y55840D02*
Y64840D01*
X309330Y78140D02*
X318330D01*
X313830Y73640D02*
Y82640D01*
X299130Y60340D02*
X308130D01*
X303630Y55840D02*
Y64840D01*
X288930Y78140D02*
X297930D01*
X293430Y73640D02*
Y82640D01*
X249280Y34940D02*
X281780D01*
X265530Y18690D02*
Y51190D01*
X376280Y34940D02*
X408780D01*
X392530Y18690D02*
Y51190D01*
X370230Y126340D02*
X379230D01*
X374730Y121840D02*
Y130840D01*
X393130Y126340D02*
X402130D01*
X397630Y121840D02*
Y130840D01*
X278830Y126340D02*
X287830D01*
X283330Y121840D02*
Y130840D01*
X255930Y126340D02*
X264930D01*
X260430Y121840D02*
Y130840D01*
X1583055Y988060D02*
X1591945D01*
X1587500Y983615D02*
Y992505D01*
X1583055Y1013460D02*
X1591945D01*
X1587500Y1009015D02*
Y1017905D01*
X1583055Y1038860D02*
X1591945D01*
X1587500Y1034415D02*
Y1043305D01*
X1583055Y1064260D02*
X1591945D01*
X1587500Y1059815D02*
Y1068705D01*
X1557655Y988060D02*
X1566545D01*
X1562100Y983615D02*
Y992505D01*
X1557655Y1013460D02*
X1566545D01*
X1562100Y1009015D02*
Y1017905D01*
X1557655Y1038860D02*
X1566545D01*
X1562100Y1034415D02*
Y1043305D01*
X1557655Y1064260D02*
X1566545D01*
X1562100Y1059815D02*
Y1068705D01*
X761910Y119630D02*
X768910D01*
X765410Y116130D02*
Y123130D01*
X736910Y119630D02*
X743910D01*
X740410Y116130D02*
Y123130D01*
X716910Y119630D02*
X723910D01*
X720410Y116130D02*
Y123130D01*
X691910Y119630D02*
X698910D01*
X695410Y116130D02*
Y123130D01*
X686910Y134630D02*
X693910D01*
X690410Y131130D02*
Y138130D01*
X706910Y134630D02*
X713910D01*
X710410Y131130D02*
Y138130D01*
X726910Y134630D02*
X733910D01*
X730410Y131130D02*
Y138130D01*
X746910Y134630D02*
X753910D01*
X750410Y131130D02*
Y138130D01*
X766910Y134630D02*
X773910D01*
X770410Y131130D02*
Y138130D01*
X766910Y102630D02*
X773910D01*
X770410Y99130D02*
Y106130D01*
X746910Y102630D02*
X753910D01*
X750410Y99130D02*
Y106130D01*
X726910Y102630D02*
X733910D01*
X730410Y99130D02*
Y106130D01*
X706910Y102630D02*
X713910D01*
X710410Y99130D02*
Y106130D01*
X686910Y102630D02*
X693910D01*
X690410Y99130D02*
Y106130D01*
X691910Y87630D02*
X698910D01*
X695410Y84130D02*
Y91130D01*
X716910Y87630D02*
X723910D01*
X720410Y84130D02*
Y91130D01*
X736910Y87630D02*
X743910D01*
X740410Y84130D02*
Y91130D01*
X761910Y87630D02*
X768910D01*
X765410Y84130D02*
Y91130D01*
X784610Y67630D02*
X807610D01*
X796110Y56130D02*
Y79130D01*
X784610Y124430D02*
X807610D01*
X796110Y112930D02*
Y135930D01*
X651940Y67630D02*
X674940D01*
X663440Y56130D02*
Y79130D01*
X653210Y124430D02*
X676210D01*
X664710Y112930D02*
Y135930D01*
X464750Y130700D02*
X488750D01*
X476750Y118700D02*
Y142700D01*
X596150Y130700D02*
X620150D01*
X608150Y118700D02*
Y142700D01*
X464750Y73900D02*
X488750D01*
X476750Y61900D02*
Y85900D01*
X596150Y73900D02*
X620150D01*
X608150Y61900D02*
Y85900D01*
X502450Y101000D02*
X512450D01*
X507450Y96000D02*
Y106000D01*
X527450Y101000D02*
X537450D01*
X532450Y96000D02*
Y106000D01*
X547450Y101000D02*
X557450D01*
X552450Y96000D02*
Y106000D01*
X572450Y127200D02*
X582450D01*
X577450Y122200D02*
Y132200D01*
X547450Y127200D02*
X557450D01*
X552450Y122200D02*
Y132200D01*
X527450Y127200D02*
X537450D01*
X532450Y122200D02*
Y132200D01*
X502450Y127200D02*
X512450D01*
X507450Y122200D02*
Y132200D01*
X572450Y101000D02*
X582450D01*
X577450Y96000D02*
Y106000D01*
X1064070Y1300480D02*
X1072070D01*
X1068070Y1296480D02*
Y1304480D01*
X1044070Y1300480D02*
X1052070D01*
X1048070Y1296480D02*
Y1304480D01*
X1024070Y1300480D02*
X1032070D01*
X1028070Y1296480D02*
Y1304480D01*
X1004070Y1300480D02*
X1012070D01*
X1008070Y1296480D02*
Y1304480D01*
X942150Y1306830D02*
X950150D01*
X946150Y1302830D02*
Y1310830D01*
X922150Y1306830D02*
X930150D01*
X926150Y1302830D02*
Y1310830D01*
X902150Y1306830D02*
X910150D01*
X906150Y1302830D02*
Y1310830D01*
X882150Y1306830D02*
X890150D01*
X886150Y1302830D02*
Y1310830D01*
X295110Y1515110D02*
X322110D01*
X308610Y1501610D02*
Y1528610D01*
X248110Y1480110D02*
X275110D01*
X261610Y1466610D02*
Y1493610D01*
X292610Y1450110D02*
X324610D01*
X308610Y1434110D02*
Y1466110D01*
X1958790Y74930D02*
X1982790D01*
X1970790Y62930D02*
Y86930D01*
X1918090Y122030D02*
X1928090D01*
X1923090Y117030D02*
Y127030D01*
X1893090Y122030D02*
X1903090D01*
X1898090Y117030D02*
Y127030D01*
X1918090Y102030D02*
X1928090D01*
X1923090Y97030D02*
Y107030D01*
X1893090Y102030D02*
X1903090D01*
X1898090Y97030D02*
Y107030D01*
X1838390Y74930D02*
X1862390D01*
X1850390Y62930D02*
Y86930D01*
X1238250Y1531620D02*
X1256030D01*
X1247140Y1522730D02*
Y1540510D01*
X1289050Y1531620D02*
X1306830D01*
X1297940Y1522730D02*
Y1540510D01*
X1339850Y1531620D02*
X1357630D01*
X1348740Y1522730D02*
Y1540510D01*
X1634265Y113030D02*
X1645265D01*
X1639765Y107530D02*
Y118530D01*
X1537140Y141430D02*
X1548140D01*
X1542640Y135930D02*
Y146930D01*
X1564890Y141480D02*
X1575890D01*
X1570390Y135980D02*
Y146980D01*
X1592640Y141480D02*
X1603640D01*
X1598140Y135980D02*
Y146980D01*
X1620390Y141480D02*
X1631390D01*
X1625890Y135980D02*
Y146980D01*
X1648140Y141480D02*
X1659140D01*
X1653640Y135980D02*
Y146980D01*
X1551015Y46530D02*
X1562015D01*
X1556515Y41030D02*
Y52030D01*
X1578765Y46530D02*
X1589765D01*
X1584265Y41030D02*
Y52030D01*
X1606515Y46530D02*
X1617515D01*
X1612015Y41030D02*
Y52030D01*
X1634265Y46530D02*
X1645265D01*
X1639765Y41030D02*
Y52030D01*
X1537140Y74930D02*
X1548140D01*
X1542640Y69430D02*
Y80430D01*
X1564865Y74930D02*
X1575865D01*
X1570365Y69430D02*
Y80430D01*
X1592590Y74930D02*
X1603590D01*
X1598090Y69430D02*
Y80430D01*
X1620315Y74930D02*
X1631315D01*
X1625815Y69430D02*
Y80430D01*
X1648040Y74930D02*
X1659040D01*
X1653540Y69430D02*
Y80430D01*
X1551015Y113030D02*
X1562015D01*
X1556515Y107530D02*
Y118530D01*
X1578765Y113030D02*
X1589765D01*
X1584265Y107530D02*
Y118530D01*
X1606515Y113030D02*
X1617515D01*
X1612015Y107530D02*
Y118530D01*
X1705740Y124930D02*
X1737740D01*
X1721740Y108930D02*
Y140930D01*
X1457040Y125330D02*
X1489040D01*
X1473040Y109330D02*
Y141330D01*
X1706090Y45830D02*
X1738090D01*
X1722090Y29830D02*
Y61830D01*
X1457340Y45330D02*
X1489340D01*
X1473340Y29330D02*
Y61330D01*
X1772500Y1224280D02*
X1783500D01*
X1778000Y1218780D02*
Y1229780D01*
X1772500Y1249680D02*
X1783500D01*
X1778000Y1244180D02*
Y1255180D01*
X1772500Y1275080D02*
X1783500D01*
X1778000Y1269580D02*
Y1280580D01*
X2040470Y1197610D02*
X2051470D01*
X2045970Y1192110D02*
Y1203110D01*
X2040470Y1223010D02*
X2051470D01*
X2045970Y1217510D02*
Y1228510D01*
X2040470Y1248410D02*
X2051470D01*
X2045970Y1242910D02*
Y1253910D01*
X1721700Y1240790D02*
X1732700D01*
X1727200Y1235290D02*
Y1246290D01*
X1721700Y1266190D02*
X1732700D01*
X1727200Y1260690D02*
Y1271690D01*
X2013800Y1197610D02*
X2024800D01*
X2019300Y1192110D02*
Y1203110D01*
X2013800Y1223010D02*
X2024800D01*
X2019300Y1217510D02*
Y1228510D01*
X2013800Y1248410D02*
X2024800D01*
X2019300Y1242910D02*
Y1253910D01*
X1305140Y119840D02*
X1316140D01*
X1310640Y114340D02*
Y125340D01*
X1208015Y148240D02*
X1219015D01*
X1213515Y142740D02*
Y153740D01*
X1235765Y148290D02*
X1246765D01*
X1241265Y142790D02*
Y153790D01*
X1263515Y148290D02*
X1274515D01*
X1269015Y142790D02*
Y153790D01*
X1291265Y148290D02*
X1302265D01*
X1296765Y142790D02*
Y153790D01*
X1319015Y148290D02*
X1330015D01*
X1324515Y142790D02*
Y153790D01*
X1221890Y53340D02*
X1232890D01*
X1227390Y47840D02*
Y58840D01*
X1249640Y53340D02*
X1260640D01*
X1255140Y47840D02*
Y58840D01*
X1277390Y53340D02*
X1288390D01*
X1282890Y47840D02*
Y58840D01*
X1305140Y53340D02*
X1316140D01*
X1310640Y47840D02*
Y58840D01*
X1208015Y81740D02*
X1219015D01*
X1213515Y76240D02*
Y87240D01*
X1235740Y81740D02*
X1246740D01*
X1241240Y76240D02*
Y87240D01*
X1263465Y81740D02*
X1274465D01*
X1268965Y76240D02*
Y87240D01*
X1291190Y81740D02*
X1302190D01*
X1296690Y76240D02*
Y87240D01*
X1318915Y81740D02*
X1329915D01*
X1324415Y76240D02*
Y87240D01*
X1221890Y119840D02*
X1232890D01*
X1227390Y114340D02*
Y125340D01*
X1249640Y119840D02*
X1260640D01*
X1255140Y114340D02*
Y125340D01*
X1277390Y119840D02*
X1288390D01*
X1282890Y114340D02*
Y125340D01*
X1376615Y131740D02*
X1408615D01*
X1392615Y115740D02*
Y147740D01*
X1127915Y132140D02*
X1159915D01*
X1143915Y116140D02*
Y148140D01*
X1376965Y52640D02*
X1408965D01*
X1392965Y36640D02*
Y68640D01*
X1128215Y52140D02*
X1160215D01*
X1144215Y36140D02*
Y68140D01*
X1869020Y1155700D02*
X1880020D01*
X1874520Y1150200D02*
Y1161200D01*
X1843620Y1155700D02*
X1854620D01*
X1849120Y1150200D02*
Y1161200D01*
X1818220Y1155700D02*
X1829220D01*
X1823720Y1150200D02*
Y1161200D01*
X1703070Y1351280D02*
X1710690D01*
X1706880Y1347470D02*
Y1355090D01*
X1703070Y1402080D02*
X1710690D01*
X1706880Y1398270D02*
Y1405890D01*
X1703070Y1427480D02*
X1710690D01*
X1706880Y1423670D02*
Y1431290D01*
X1703070Y1452880D02*
X1710690D01*
X1706880Y1449070D02*
Y1456690D01*
X1652270Y1452880D02*
X1659890D01*
X1656080Y1449070D02*
Y1456690D01*
X1652270Y1427480D02*
X1659890D01*
X1656080Y1423670D02*
Y1431290D01*
X1652270Y1402080D02*
X1659890D01*
X1656080Y1398270D02*
Y1405890D01*
X1652270Y1351280D02*
X1659890D01*
X1656080Y1347470D02*
Y1355090D01*
X1540510Y1352550D02*
X1548130D01*
X1544320Y1348740D02*
Y1356360D01*
X1540510Y1403350D02*
X1548130D01*
X1544320Y1399540D02*
Y1407160D01*
X1540510Y1428750D02*
X1548130D01*
X1544320Y1424940D02*
Y1432560D01*
X1540510Y1454150D02*
X1548130D01*
X1544320Y1450340D02*
Y1457960D01*
X1489710Y1454150D02*
X1497330D01*
X1493520Y1450340D02*
Y1457960D01*
X1489710Y1428750D02*
X1497330D01*
X1493520Y1424940D02*
Y1432560D01*
X1489710Y1403350D02*
X1497330D01*
X1493520Y1399540D02*
Y1407160D01*
X1489710Y1352550D02*
X1497330D01*
X1493520Y1348740D02*
Y1356360D01*
X1865170Y605790D02*
X1871170D01*
X1868170Y602790D02*
Y608790D01*
X1905170Y605790D02*
X1911170D01*
X1908170Y602790D02*
Y608790D01*
X1428330Y673100D02*
X1439330D01*
X1433830Y667600D02*
Y678600D01*
X1428330Y698500D02*
X1439330D01*
X1433830Y693000D02*
Y704000D01*
X1428330Y723900D02*
X1439330D01*
X1433830Y718400D02*
Y729400D01*
X1448724Y1532890D02*
X1463964D01*
X1456344Y1525270D02*
Y1540510D01*
X1499339Y1532890D02*
X1514579D01*
X1506959Y1525270D02*
Y1540510D01*
X1549954Y1532890D02*
X1565194D01*
X1557574Y1525270D02*
Y1540510D01*
X1600570Y1532890D02*
X1615810D01*
X1608190Y1525270D02*
Y1540510D01*
X1651185Y1532890D02*
X1666425D01*
X1658805Y1525270D02*
Y1540510D01*
X1701800Y1532890D02*
X1717040D01*
X1709420Y1525270D02*
Y1540510D01*
X1752415Y1532890D02*
X1767655D01*
X1760035Y1525270D02*
Y1540510D01*
X1803030Y1532890D02*
X1818270D01*
X1810650Y1525270D02*
Y1540510D01*
X1853646Y1532890D02*
X1868886D01*
X1861266Y1525270D02*
Y1540510D01*
X1904261Y1532890D02*
X1919501D01*
X1911881Y1525270D02*
Y1540510D01*
X1954876Y1532890D02*
X1970116D01*
X1962496Y1525270D02*
Y1540510D01*
X2005491Y1532890D02*
X2020731D01*
X2013111Y1525270D02*
Y1540510D01*
X1135470Y1531620D02*
X1151470D01*
X1143470Y1523620D02*
Y1539620D01*
X1085470Y1531620D02*
X1101470D01*
X1093470Y1523620D02*
Y1539620D01*
X1035470Y1531620D02*
X1051470D01*
X1043470Y1523620D02*
Y1539620D01*
X985470Y1531620D02*
X1001470D01*
X993470Y1523620D02*
Y1539620D01*
X935470Y1531620D02*
X951470D01*
X943470Y1523620D02*
Y1539620D01*
X644330Y1545340D02*
X654330D01*
X649330Y1540340D02*
Y1550340D01*
X630280Y1520440D02*
X643280D01*
X636780Y1513940D02*
Y1526940D01*
X689330Y1545340D02*
X699330D01*
X694330Y1540340D02*
Y1550340D01*
X700380Y1520440D02*
X713380D01*
X706880Y1513940D02*
Y1526940D01*
X805790Y1520440D02*
X818790D01*
X812290Y1513940D02*
Y1526940D01*
X794740Y1545340D02*
X804740D01*
X799740Y1540340D02*
Y1550340D01*
X735690Y1520440D02*
X748690D01*
X742190Y1513940D02*
Y1526940D01*
X749740Y1545340D02*
X759740D01*
X754740Y1540340D02*
Y1550340D01*
X477160Y1423670D02*
X495660D01*
X486410Y1414420D02*
Y1432920D01*
X546410Y1423670D02*
X566410D01*
X556410Y1413670D02*
Y1433670D01*
X1215700Y421640D02*
X1222700D01*
X1219200Y418140D02*
Y425140D01*
X1241100Y421640D02*
X1248100D01*
X1244600Y418140D02*
Y425140D01*
X1266500Y421640D02*
X1273500D01*
X1270000Y418140D02*
Y425140D01*
X1266500Y345440D02*
X1273500D01*
X1270000Y341940D02*
Y348940D01*
X1241100Y345440D02*
X1248100D01*
X1244600Y341940D02*
Y348940D01*
X1215700Y345440D02*
X1222700D01*
X1219200Y341940D02*
Y348940D01*
X1332540Y354330D02*
X1339540D01*
X1336040Y350830D02*
Y357830D01*
X1332540Y379730D02*
X1339540D01*
X1336040Y376230D02*
Y383230D01*
X1332540Y405130D02*
X1339540D01*
X1336040Y401630D02*
Y408630D01*
X1408740Y405130D02*
X1415740D01*
X1412240Y401630D02*
Y408630D01*
X1408740Y379730D02*
X1415740D01*
X1412240Y376230D02*
Y383230D01*
X1408740Y354330D02*
X1415740D01*
X1412240Y350830D02*
Y357830D01*
X1664740Y1191260D02*
X1667740D01*
X1666240Y1189760D02*
Y1192760D01*
X1664740Y1216660D02*
X1667740D01*
X1666240Y1215160D02*
Y1218160D01*
X1664740Y1242060D02*
X1667740D01*
X1666240Y1240560D02*
Y1243560D01*
X1664740Y1267460D02*
X1667740D01*
X1666240Y1265960D02*
Y1268960D01*
X1044100Y57150D02*
X1064100D01*
X1054100Y47150D02*
Y67150D01*
X899100Y57150D02*
X919100D01*
X909100Y47150D02*
Y67150D01*
X894100Y116750D02*
X924100D01*
X909100Y101750D02*
Y131750D01*
X1039100Y116750D02*
X1069100D01*
X1054100Y101750D02*
Y131750D01*
X760730Y1280160D02*
X773430D01*
X767080Y1273810D02*
Y1286510D01*
X287020Y1153160D02*
X299720D01*
X293370Y1146810D02*
Y1159510D01*
X598670Y1366520D02*
X611370D01*
X605020Y1360170D02*
Y1372870D01*
X1447258Y526321D02*
X1457419D01*
X1452339Y521241D02*
Y531401D01*
X1465219Y508361D02*
X1475379D01*
X1470299Y503281D02*
Y513441D01*
X1483179Y490401D02*
X1493340D01*
X1488259Y485321D02*
Y495480D01*
X1501140Y472440D02*
X1511300D01*
X1506220Y467360D02*
Y477520D01*
X1519101Y454479D02*
X1529261D01*
X1524181Y449399D02*
Y459560D01*
X1465219Y544282D02*
X1475379D01*
X1470299Y539202D02*
Y549362D01*
X1483179Y526321D02*
X1493340D01*
X1488259Y521241D02*
Y531401D01*
X1501140Y508361D02*
X1511300D01*
X1506220Y503281D02*
Y513441D01*
X1519100Y490401D02*
X1529261D01*
X1524180Y485321D02*
Y495480D01*
X1537061Y472440D02*
X1547221D01*
X1542141Y467360D02*
Y477520D01*
X1628990Y900430D02*
X1639990D01*
X1634490Y894930D02*
Y905930D01*
X1603590Y900430D02*
X1614590D01*
X1609090Y894930D02*
Y905930D01*
X1578190Y900430D02*
X1589190D01*
X1583690Y894930D02*
Y905930D01*
X224345Y663346D02*
X240855D01*
X232600Y655091D02*
Y671601D01*
X236664Y642010D02*
X244284D01*
X240474Y638200D02*
Y645820D01*
X224345Y995070D02*
X240855D01*
X232600Y986815D02*
Y1003325D01*
X236156Y1016152D02*
X243776D01*
X239966Y1012342D02*
Y1019962D01*
X398780Y1376680D02*
X411480D01*
X405130Y1370330D02*
Y1383030D01*
X519430Y359953D02*
X527050D01*
X523240Y356143D02*
Y363763D01*
X492591Y599356D02*
X510117D01*
X501354Y590593D02*
Y608119D01*
X1069679Y599356D02*
X1087205D01*
X1078442Y590593D02*
Y608119D01*
X239030Y1408430D02*
X241030D01*
X240030Y1407430D02*
Y1409430D01*
X242840Y1403350D02*
X244840D01*
X243840Y1402350D02*
Y1404350D01*
X235220Y1403350D02*
X237220D01*
X236220Y1402350D02*
Y1404350D01*
X235220Y1413510D02*
X237220D01*
X236220Y1412510D02*
Y1414510D01*
X244110Y1413510D02*
X246110D01*
X245110Y1412510D02*
Y1414510D01*
X792750Y1395730D02*
X794750D01*
X793750Y1394730D02*
Y1396730D01*
X786400Y1055370D02*
X788400D01*
X787400Y1054370D02*
Y1056370D01*
X1097550Y242570D02*
X1099550D01*
X1098550Y241570D02*
Y243570D01*
X1097390Y258160D02*
X1099390D01*
X1098390Y257160D02*
Y259160D01*
X1210900Y1228090D02*
X1212900D01*
X1211900Y1227090D02*
Y1229090D01*
X1190260Y1228090D02*
X1192260D01*
X1191260Y1227090D02*
Y1229090D01*
X1210900Y1233490D02*
X1212900D01*
X1211900Y1232490D02*
Y1234490D01*
X1190890Y1236350D02*
X1192890D01*
X1191890Y1235350D02*
Y1237350D01*
X1784620Y1165860D02*
X1786620D01*
X1785620Y1164860D02*
Y1166860D01*
X841010Y142240D02*
X843010D01*
X842010Y141240D02*
Y143240D01*
X969225Y287247D02*
X971225D01*
X970225Y286247D02*
Y288247D01*
X970550Y293247D02*
X972550D01*
X971550Y292247D02*
Y294247D01*
X1027500Y311150D02*
X1029500D01*
X1028500Y310150D02*
Y312150D01*
X997500Y310437D02*
X999500D01*
X998500Y309437D02*
Y311437D01*
X871490Y270510D02*
X873490D01*
X872490Y269510D02*
Y271510D01*
X1031398Y544942D02*
X1033398D01*
X1032398Y543942D02*
Y545942D01*
X1036398Y551372D02*
X1038398D01*
X1037398Y550372D02*
Y552372D01*
X1041398Y545102D02*
X1043398D01*
X1042398Y544102D02*
Y546102D01*
X1046398Y550262D02*
X1048398D01*
X1047398Y549262D02*
Y551262D01*
X1051398Y543992D02*
X1053398D01*
X1052398Y542992D02*
Y544992D01*
X1056398Y547882D02*
X1058398D01*
X1057398Y546882D02*
Y548882D01*
X1041670Y659130D02*
X1043670D01*
X1042670Y658130D02*
Y660130D01*
X1036590Y652780D02*
X1038590D01*
X1037590Y651780D02*
Y653780D01*
X1031398Y647588D02*
X1033398D01*
X1032398Y646588D02*
Y648588D01*
X1170900Y1125530D02*
X1172900D01*
X1171900Y1124530D02*
Y1126530D01*
X1150900Y1125230D02*
X1152900D01*
X1151900Y1124230D02*
Y1126230D01*
X586780Y113700D02*
X591780D01*
X589280Y111200D02*
Y116200D01*
X1409300Y287690D02*
X1411300D01*
X1410300Y286690D02*
Y288690D01*
X1377990Y537210D02*
X1382990D01*
X1380490Y534710D02*
Y539710D01*
X1017540Y214630D02*
X1019540D01*
X1018540Y213630D02*
Y215630D01*
X1032780Y215900D02*
X1034780D01*
X1033780Y214900D02*
Y216900D01*
X1076110Y163980D02*
X1078110D01*
X1077110Y162980D02*
Y164980D01*
X2033310Y1446530D02*
X2038310D01*
X2035810Y1444030D02*
Y1449030D01*
X280710Y670560D02*
X285710D01*
X283210Y668060D02*
Y673060D01*
X280710Y683260D02*
X285710D01*
X283210Y680760D02*
Y685760D01*
X280710Y695960D02*
X285710D01*
X283210Y693460D02*
Y698460D01*
X226330Y1386840D02*
X228330D01*
X227330Y1385840D02*
Y1387840D01*
X251500Y1374140D02*
X256500D01*
X254000Y1371640D02*
Y1376640D01*
X252770Y1343660D02*
X257770D01*
X255270Y1341160D02*
Y1346160D01*
X254040Y1310640D02*
X259040D01*
X256540Y1308140D02*
Y1313140D01*
X895985Y1235710D02*
X899795D01*
X897890Y1233805D02*
Y1237615D01*
X1614440Y553720D02*
X1616440D01*
X1615440Y552720D02*
Y554720D01*
X1605497Y602249D02*
X1607497D01*
X1606497Y601249D02*
Y603249D01*
X1702070Y495300D02*
X1704070D01*
X1703070Y494300D02*
Y496300D01*
X1702070Y483870D02*
X1704070D01*
X1703070Y482870D02*
Y484870D01*
X1039130Y1466850D02*
X1041130D01*
X1040130Y1465850D02*
Y1467850D01*
X1370600Y443230D02*
X1372600D01*
X1371600Y442230D02*
Y444230D01*
X1350280Y754380D02*
X1352280D01*
X1351280Y753380D02*
Y755380D01*
X1337580Y760730D02*
X1339580D01*
X1338580Y759730D02*
Y761730D01*
X1332500Y759460D02*
X1334500D01*
X1333500Y758460D02*
Y760460D01*
X1068340Y1398270D02*
X1070340D01*
X1069340Y1397270D02*
Y1399270D01*
X1401080Y632460D02*
X1403080D01*
X1402080Y631460D02*
Y633460D01*
X1307100Y633730D02*
X1309100D01*
X1308100Y632730D02*
Y634730D01*
X1350730Y714560D02*
X1352730D01*
X1351730Y713560D02*
Y715560D01*
X1516310Y959190D02*
X1518310D01*
X1517310Y958190D02*
Y960190D01*
X1515040Y851830D02*
X1517040D01*
X1516040Y850830D02*
Y852830D01*
X1515380Y938530D02*
X1517380D01*
X1516380Y937530D02*
Y939530D01*
X1340120Y897890D02*
X1342120D01*
X1341120Y896890D02*
Y898890D01*
X1343930Y932180D02*
X1345930D01*
X1344930Y931180D02*
Y933180D01*
X1313450Y941070D02*
X1315450D01*
X1314450Y940070D02*
Y942070D01*
X1303290Y993140D02*
X1305290D01*
X1304290Y992140D02*
Y994140D01*
X1331230Y993140D02*
X1333230D01*
X1332230Y992140D02*
Y994140D01*
X1636030Y844710D02*
X1638030D01*
X1637030Y843710D02*
Y845710D01*
X1583960Y845900D02*
X1585960D01*
X1584960Y844900D02*
Y846900D01*
X1243600Y797560D02*
X1245600D01*
X1244600Y796560D02*
Y798560D01*
X1298210Y800100D02*
X1300210D01*
X1299210Y799100D02*
Y801100D01*
X1345962Y801878D02*
X1347962D01*
X1346962Y800878D02*
Y802878D01*
X1349010Y871220D02*
X1351010D01*
X1350010Y870220D02*
Y872220D01*
X1336310Y844550D02*
X1338310D01*
X1337310Y843550D02*
Y845550D01*
X1351550Y826180D02*
X1353550D01*
X1352550Y825180D02*
Y827180D01*
X1304560Y824230D02*
X1306560D01*
X1305560Y823230D02*
Y825230D01*
X1248680Y821690D02*
X1250680D01*
X1249680Y820690D02*
Y822690D01*
X1349010Y882650D02*
X1351010D01*
X1350010Y881650D02*
Y883650D01*
X1026440Y1289050D02*
X1028440D01*
X1027440Y1288050D02*
Y1290050D01*
X1046750Y1289050D02*
X1048750D01*
X1047750Y1288050D02*
Y1290050D01*
X1042940Y1261110D02*
X1044940D01*
X1043940Y1260110D02*
Y1262110D01*
X1025160Y1247140D02*
X1027160D01*
X1026160Y1246140D02*
Y1248140D01*
X904510Y1253490D02*
X906510D01*
X905510Y1252490D02*
Y1254490D01*
X922290Y1263040D02*
X924290D01*
X923290Y1262040D02*
Y1264040D01*
X1263920Y937260D02*
X1265920D01*
X1264920Y936260D02*
Y938260D01*
X548910Y1231900D02*
X550910D01*
X549910Y1230900D02*
Y1232900D01*
X687490Y1200300D02*
X689490D01*
X688490Y1199300D02*
Y1201300D01*
X499380Y1225550D02*
X501380D01*
X500380Y1224550D02*
Y1226550D01*
X504460Y1188720D02*
X506460D01*
X505460Y1187720D02*
Y1189720D01*
X622570Y1249680D02*
X624570D01*
X623570Y1248680D02*
Y1250680D01*
X496229Y1305075D02*
X501229D01*
X498729Y1302575D02*
Y1307575D01*
X472480Y1295400D02*
X477480D01*
X474980Y1292900D02*
Y1297900D01*
X279670Y911810D02*
X281670D01*
X280670Y910810D02*
Y912810D01*
X277130Y988010D02*
X279130D01*
X278130Y987010D02*
Y989010D01*
X278400Y949910D02*
X280400D01*
X279400Y948910D02*
Y950910D01*
X283480Y810260D02*
X285480D01*
X284480Y809260D02*
Y811260D01*
X283480Y797560D02*
X285480D01*
X284480Y796560D02*
Y798560D01*
X283480Y784860D02*
X285480D01*
X284480Y783860D02*
Y785860D01*
X283480Y708660D02*
X285480D01*
X284480Y707660D02*
Y709660D01*
X283480Y721360D02*
X285480D01*
X284480Y720360D02*
Y722360D01*
X283480Y734060D02*
X285480D01*
X284480Y733060D02*
Y735060D01*
X260620Y588010D02*
X262620D01*
X261620Y587010D02*
Y589010D01*
X269510Y570230D02*
X271510D01*
X270510Y569230D02*
Y571230D01*
X606060Y186090D02*
X608060D01*
X607060Y185090D02*
Y187090D01*
X792750Y188750D02*
X794750D01*
X793750Y187750D02*
Y189750D01*
X752942Y183670D02*
X754942D01*
X753942Y182670D02*
Y184670D01*
X736870Y186690D02*
X738870D01*
X737870Y185690D02*
Y187690D01*
X715280Y194310D02*
X717280D01*
X716280Y193310D02*
Y195310D01*
X678041Y188560D02*
X680041D01*
X679041Y187560D02*
Y189560D01*
X447310Y295310D02*
X449310D01*
X448310Y294310D02*
Y296310D01*
X517160Y274990D02*
X519160D01*
X518160Y273990D02*
Y275990D01*
X814340Y334010D02*
X816340D01*
X815340Y333010D02*
Y335010D01*
X827040Y304800D02*
X829040D01*
X828040Y303800D02*
Y305800D01*
X413020Y165770D02*
X415020D01*
X414020Y164770D02*
Y166770D01*
X575580Y193710D02*
X577580D01*
X576580Y192710D02*
Y194710D01*
X576850Y175930D02*
X578850D01*
X577850Y174930D02*
Y176930D01*
X488990Y203870D02*
X493990D01*
X491490Y201370D02*
Y206370D01*
X427950Y365000D02*
X432950D01*
X430450Y362500D02*
Y367500D01*
X524550Y300390D02*
X529550D01*
X527050Y297890D02*
Y302890D01*
X515660Y262290D02*
X520660D01*
X518160Y259790D02*
Y264790D01*
X431840Y267370D02*
X436840D01*
X434340Y264870D02*
Y269870D01*
X410250Y326540D02*
X415250D01*
X412750Y324040D02*
Y329040D01*
X457470Y196250D02*
X459470D01*
X458470Y195250D02*
Y197250D01*
X1869710Y190500D02*
X1871710D01*
X1870710Y189500D02*
Y191500D01*
X797830Y207010D02*
X799830D01*
X798830Y206010D02*
Y208010D01*
X790210Y207010D02*
X792210D01*
X791210Y206010D02*
Y208010D01*
X769890Y204470D02*
X771890D01*
X770890Y203470D02*
Y205470D01*
X777510Y199390D02*
X779510D01*
X778510Y198390D02*
Y200390D01*
X694397Y199953D02*
X696397D01*
X695397Y198953D02*
Y200953D01*
X702580Y204470D02*
X704580D01*
X703580Y203470D02*
Y205470D01*
X677370Y207200D02*
X679370D01*
X678370Y206200D02*
Y208200D01*
X669220Y210186D02*
X671220D01*
X670220Y209186D02*
Y211186D01*
X821960Y187960D02*
X823960D01*
X822960Y186960D02*
Y188960D01*
X837200Y163830D02*
X839200D01*
X838200Y162830D02*
Y164830D01*
X794020Y143510D02*
X796020D01*
X795020Y142510D02*
Y144510D01*
X773700Y67310D02*
X775700D01*
X774700Y66310D02*
Y68310D01*
X683530Y67310D02*
X685530D01*
X684530Y66310D02*
Y68310D01*
X663210Y105410D02*
X665210D01*
X664210Y104410D02*
Y106410D01*
X684800Y119380D02*
X686800D01*
X685800Y118380D02*
Y120380D01*
X729250Y85090D02*
X731250D01*
X730250Y84090D02*
Y86090D01*
X1719334Y459740D02*
X1721334D01*
X1720334Y458740D02*
Y460740D01*
X1685330Y478790D02*
X1690330D01*
X1687830Y476290D02*
Y481290D01*
X1707345Y415290D02*
X1709345D01*
X1708345Y414290D02*
Y416290D01*
X1713845Y415290D02*
X1715845D01*
X1714845Y414290D02*
Y416290D01*
X1822720Y170180D02*
X1824720D01*
X1823720Y169180D02*
Y171180D01*
X2034810Y121920D02*
X2036810D01*
X2035810Y120920D02*
Y122920D01*
X1709690Y594360D02*
X1711690D01*
X1710690Y593360D02*
Y595360D01*
X1710444Y600366D02*
X1712444D01*
X1711444Y599366D02*
Y601366D01*
X1597930Y468630D02*
X1599930D01*
X1598930Y467630D02*
Y469630D01*
X1517920Y872490D02*
X1519920D01*
X1518920Y871490D02*
Y873490D01*
X1514110Y800100D02*
X1516110D01*
X1515110Y799100D02*
Y801100D01*
X1298210Y337820D02*
X1300210D01*
X1299210Y336820D02*
Y338820D01*
X1138190Y383540D02*
X1140190D01*
X1139190Y382540D02*
Y384540D01*
X1152160Y383540D02*
X1154160D01*
X1153160Y382540D02*
Y384540D01*
X1167400Y383540D02*
X1169400D01*
X1168400Y382540D02*
Y384540D01*
X1180100Y383540D02*
X1182100D01*
X1181100Y382540D02*
Y384540D01*
X1138190Y411480D02*
X1140190D01*
X1139190Y410480D02*
Y412480D01*
X1152160Y411480D02*
X1154160D01*
X1153160Y410480D02*
Y412480D01*
X1167400Y411480D02*
X1169400D01*
X1168400Y410480D02*
Y412480D01*
X1180100Y412750D02*
X1182100D01*
X1181100Y411750D02*
Y413750D01*
X1604050Y533400D02*
X1609050D01*
X1606550Y530900D02*
Y535900D01*
X1602780Y1052830D02*
X1607780D01*
X1605280Y1050330D02*
Y1055330D01*
X1615480Y1035050D02*
X1620480D01*
X1617980Y1032550D02*
Y1037550D01*
X1624370Y1023620D02*
X1629370D01*
X1626870Y1021120D02*
Y1026120D01*
X1142000Y1445260D02*
X1144000D01*
X1143000Y1444260D02*
Y1446260D01*
X1778270Y528320D02*
X1780270D01*
X1779270Y527320D02*
Y529320D01*
X1742710Y492760D02*
X1744710D01*
X1743710Y491760D02*
Y493760D01*
X1573800Y311150D02*
X1575800D01*
X1574800Y310150D02*
Y312150D01*
X1571260Y322580D02*
X1573260D01*
X1572260Y321580D02*
Y323580D01*
X1553480Y308610D02*
X1555480D01*
X1554480Y307610D02*
Y309610D01*
X1600470Y209550D02*
X1602470D01*
X1601470Y208550D02*
Y210550D01*
X1604280Y190500D02*
X1606280D01*
X1605280Y189500D02*
Y191500D01*
X1554520Y212090D02*
X1556520D01*
X1555520Y211090D02*
Y213090D01*
X1566180Y184150D02*
X1568180D01*
X1567180Y183150D02*
Y185150D01*
X1592850Y185420D02*
X1594850D01*
X1593850Y184420D02*
Y186420D01*
X1613170Y1336040D02*
X1615170D01*
X1614170Y1335040D02*
Y1337040D01*
X1749060Y430530D02*
X1751060D01*
X1750060Y429530D02*
Y431530D01*
X1622060Y311150D02*
X1624060D01*
X1623060Y310150D02*
Y312150D01*
X1605550Y311150D02*
X1607550D01*
X1606550Y310150D02*
Y312150D01*
X1408700Y304800D02*
X1410700D01*
X1409700Y303800D02*
Y305800D01*
X1396000Y193040D02*
X1398000D01*
X1397000Y192040D02*
Y194040D01*
X1402350Y198120D02*
X1404350D01*
X1403350Y197120D02*
Y199120D01*
X1416860Y211360D02*
X1418860D01*
X1417860Y210360D02*
Y212360D01*
X1679210Y611558D02*
X1681210D01*
X1680210Y610559D02*
Y612559D01*
X1666394Y605790D02*
X1668626D01*
X1667510Y604674D02*
Y606906D01*
X1592620Y541020D02*
X1597620D01*
X1595120Y538520D02*
Y543520D01*
X1379490Y242570D02*
X1381490D01*
X1380490Y241570D02*
Y243570D01*
X1362750Y238760D02*
X1367750D01*
X1365250Y236260D02*
Y241260D01*
X439460Y1268730D02*
X444460D01*
X441960Y1266230D02*
Y1271230D01*
X475020Y1267460D02*
X480020D01*
X477520Y1264960D02*
Y1269960D01*
X580660Y1304290D02*
X582660D01*
X581660Y1303290D02*
Y1305290D01*
X561380Y1329690D02*
X566380D01*
X563880Y1327190D02*
Y1332190D01*
X524550Y1344930D02*
X529550D01*
X527050Y1342430D02*
Y1347430D01*
X534710Y1337310D02*
X539710D01*
X537210Y1334810D02*
Y1339810D01*
X679490Y1521460D02*
X684490D01*
X681990Y1518960D02*
Y1523960D01*
X633770Y1497330D02*
X638770D01*
X636270Y1494830D02*
Y1499830D01*
X638850Y1449070D02*
X643850D01*
X641350Y1446570D02*
Y1451570D01*
X487720Y1229360D02*
X492720D01*
X490220Y1226860D02*
Y1231860D01*
X492800Y1328420D02*
X497800D01*
X495300Y1325920D02*
Y1330920D01*
X549950Y1381760D02*
X554950D01*
X552450Y1379260D02*
Y1384260D01*
X360720Y1515110D02*
X365720D01*
X363220Y1512610D02*
Y1517610D01*
X608370Y1305560D02*
X613370D01*
X610870Y1303060D02*
Y1308060D01*
X428260Y1308100D02*
X430260D01*
X429260Y1307100D02*
Y1309100D01*
X428260Y1297940D02*
X430260D01*
X429260Y1296940D02*
Y1298940D01*
X421910Y1308100D02*
X423910D01*
X422910Y1307100D02*
Y1309100D01*
X421910Y1297940D02*
X423910D01*
X422910Y1296940D02*
Y1298940D01*
X415560Y1297940D02*
X417560D01*
X416560Y1296940D02*
Y1298940D01*
X416830Y1205230D02*
X418830D01*
X417830Y1204230D02*
Y1206230D01*
X423180Y1205230D02*
X425180D01*
X424180Y1204230D02*
Y1206230D01*
X492800Y1272540D02*
X497800D01*
X495300Y1270040D02*
Y1275040D01*
X459780Y1226820D02*
X464780D01*
X462280Y1224320D02*
Y1229320D01*
X508270Y1381760D02*
X510270D01*
X509270Y1380760D02*
Y1382760D01*
X508270Y1375410D02*
X510270D01*
X509270Y1374410D02*
Y1376410D01*
X508270Y1369060D02*
X510270D01*
X509270Y1368060D02*
Y1370060D01*
X503190Y1381760D02*
X505190D01*
X504190Y1380760D02*
Y1382760D01*
X503190Y1375410D02*
X505190D01*
X504190Y1374410D02*
Y1376410D01*
X503190Y1369060D02*
X505190D01*
X504190Y1368060D02*
Y1370060D01*
X498110Y1381760D02*
X500110D01*
X499110Y1380760D02*
Y1382760D01*
X498110Y1375410D02*
X500110D01*
X499110Y1374410D02*
Y1376410D01*
X498110Y1369060D02*
X500110D01*
X499110Y1368060D02*
Y1370060D01*
X668290Y1319530D02*
X670290D01*
X669290Y1318530D02*
Y1320530D01*
X689880Y1319530D02*
X691880D01*
X690880Y1318530D02*
Y1320530D01*
X710200Y1319530D02*
X712200D01*
X711200Y1318530D02*
Y1320530D01*
X668290Y1275080D02*
X670290D01*
X669290Y1274080D02*
Y1276080D01*
X694960Y1275080D02*
X696960D01*
X695960Y1274080D02*
Y1276080D01*
X716550Y1275080D02*
X718550D01*
X717550Y1274080D02*
Y1276080D01*
X538520Y1350010D02*
X543520D01*
X541020Y1347510D02*
Y1352510D01*
X303570Y1235710D02*
X308570D01*
X306070Y1233210D02*
Y1238210D01*
X303570Y1221740D02*
X308570D01*
X306070Y1219240D02*
Y1224240D01*
X306110Y1342390D02*
X311110D01*
X308610Y1339890D02*
Y1344890D01*
X306110Y1329690D02*
X311110D01*
X308610Y1327190D02*
Y1332190D01*
X334050Y1372870D02*
X339050D01*
X336550Y1370370D02*
Y1375370D01*
X744260Y1449070D02*
X749260D01*
X746760Y1446570D02*
Y1451570D01*
X740450Y1502410D02*
X745450D01*
X742950Y1499910D02*
Y1504910D01*
X809540Y1504190D02*
X814540D01*
X812040Y1501690D02*
Y1506690D01*
X814110Y1545590D02*
X819110D01*
X816610Y1543090D02*
Y1548090D01*
X242610Y1263650D02*
X247610D01*
X245110Y1261150D02*
Y1266150D01*
X243880Y1230630D02*
X248880D01*
X246380Y1228130D02*
Y1233130D01*
X245150Y1197610D02*
X250150D01*
X247650Y1195110D02*
Y1200110D01*
X1120180Y1402080D02*
X1125180D01*
X1122680Y1399580D02*
Y1404580D01*
X1121450Y1433830D02*
X1126450D01*
X1123950Y1431330D02*
Y1436330D01*
X1098229Y1423393D02*
X1103229D01*
X1100729Y1420893D02*
Y1425893D01*
X1010960Y1372870D02*
X1015960D01*
X1013460Y1370370D02*
Y1375370D01*
X1071920Y1432560D02*
X1076920D01*
X1074420Y1430060D02*
Y1435060D01*
X1056840Y1456850D02*
X1061840D01*
X1059340Y1454350D02*
Y1459350D01*
X1049060Y1419860D02*
X1054060D01*
X1051560Y1417360D02*
Y1422360D01*
X1010960Y1441450D02*
X1015960D01*
X1013460Y1438950D02*
Y1443950D01*
X1066840Y1414780D02*
X1071840D01*
X1069340Y1412280D02*
Y1417280D01*
X1300520Y1450340D02*
X1305520D01*
X1303020Y1447840D02*
Y1452840D01*
X1334810Y1386840D02*
X1339810D01*
X1337310Y1384340D02*
Y1389340D01*
X1271310Y1385570D02*
X1276310D01*
X1273810Y1383070D02*
Y1388070D01*
X736640Y1347470D02*
X741640D01*
X739140Y1344970D02*
Y1349970D01*
X1301790Y1344930D02*
X1306790D01*
X1304290Y1342430D02*
Y1347430D01*
X1196380Y1452880D02*
X1201380D01*
X1198880Y1450380D02*
Y1455380D01*
X1210350Y1454150D02*
X1215350D01*
X1212850Y1451650D02*
Y1456650D01*
X1452920Y1339850D02*
X1457920D01*
X1455420Y1337350D02*
Y1342350D01*
X1696970Y1326940D02*
X1701970D01*
X1699470Y1324440D02*
Y1329440D01*
X1536740Y1332230D02*
X1541740D01*
X1539240Y1329730D02*
Y1334730D01*
X1831380Y1470660D02*
X1836380D01*
X1833880Y1468160D02*
Y1473160D01*
X1950760Y1468120D02*
X1955760D01*
X1953260Y1465620D02*
Y1470620D01*
X1950760Y1443990D02*
X1955760D01*
X1953260Y1441490D02*
Y1446490D01*
X1922820Y1395730D02*
X1927820D01*
X1925320Y1393230D02*
Y1398230D01*
X2012990Y1397000D02*
X2017990D01*
X2015490Y1394500D02*
Y1399500D01*
X1967270Y1413510D02*
X1972270D01*
X1969770Y1411010D02*
Y1416010D01*
X1783120Y1333500D02*
X1788120D01*
X1785620Y1331000D02*
Y1336000D01*
X1885990Y1334770D02*
X1890990D01*
X1888490Y1332270D02*
Y1337270D01*
X1891070Y1522730D02*
X1896070D01*
X1893570Y1520230D02*
Y1525230D01*
X1884720Y1430020D02*
X1889720D01*
X1887220Y1427520D02*
Y1432520D01*
X1992670Y1248410D02*
X1997670D01*
X1995170Y1245910D02*
Y1250910D01*
X1872020Y1247140D02*
X1877020D01*
X1874520Y1244640D02*
Y1249640D01*
X1897420Y1270000D02*
X1902420D01*
X1899920Y1267500D02*
Y1272500D01*
X1348780Y483870D02*
X1353780D01*
X1351280Y481370D02*
Y486370D01*
X1339890Y496570D02*
X1344890D01*
X1342390Y494070D02*
Y499070D01*
X1390690Y439420D02*
X1395690D01*
X1393190Y436920D02*
Y441920D01*
X1422440Y394970D02*
X1427440D01*
X1424940Y392470D02*
Y397470D01*
X1619568Y510990D02*
X1624568D01*
X1622068Y508490D02*
Y513490D01*
X1652310Y480060D02*
X1657310D01*
X1654810Y477560D02*
Y482560D01*
X1574426Y511810D02*
X1579426D01*
X1576926Y509310D02*
Y514310D01*
X1604050Y488950D02*
X1609050D01*
X1606550Y486450D02*
Y491450D01*
X1635800Y457200D02*
X1640800D01*
X1638300Y454700D02*
Y459700D01*
X1742480Y605790D02*
X1747480D01*
X1744980Y603290D02*
Y608290D01*
X1909301Y530860D02*
X1914301D01*
X1911801Y528360D02*
Y533360D01*
X1909301Y516492D02*
X1914301D01*
X1911801Y513992D02*
Y518992D01*
X1909301Y503919D02*
X1914301D01*
X1911801Y501419D02*
Y506419D01*
X1909301Y491347D02*
X1914301D01*
X1911801Y488847D02*
Y493847D01*
X1585000Y600710D02*
X1590000D01*
X1587500Y598210D02*
Y603210D01*
X1626910Y687070D02*
X1631910D01*
X1629410Y684570D02*
Y689570D01*
X1550710Y612140D02*
X1555710D01*
X1553210Y609640D02*
Y614640D01*
X1572300Y601980D02*
X1577300D01*
X1574800Y599480D02*
Y604480D01*
X1571030Y619760D02*
X1576030D01*
X1573530Y617260D02*
Y622260D01*
X1649770Y600710D02*
X1654770D01*
X1652270Y598210D02*
Y603210D01*
X1637070Y601980D02*
X1642070D01*
X1639570Y599480D02*
Y604480D01*
X1618020Y695960D02*
X1623020D01*
X1620520Y693460D02*
Y698460D01*
X1794550Y640080D02*
X1799550D01*
X1797050Y637580D02*
Y642580D01*
X1945680Y605790D02*
X1950680D01*
X1948180Y603290D02*
Y608290D01*
X1804710Y579070D02*
X1809710D01*
X1807210Y576570D02*
Y581570D01*
X512254Y1232684D02*
X517254D01*
X514754Y1230184D02*
Y1235184D01*
X2044740Y1285240D02*
X2049740D01*
X2047240Y1282740D02*
Y1287740D01*
X1825030Y1275080D02*
X1830030D01*
X1827530Y1272580D02*
Y1277580D01*
X1620560Y665480D02*
X1625560D01*
X1623060Y662980D02*
Y667980D01*
X1973620Y1221740D02*
X1978620D01*
X1976120Y1219240D02*
Y1224240D01*
X1629450Y645160D02*
X1634450D01*
X1631950Y642660D02*
Y647660D01*
X1512610Y1002030D02*
X1517610D01*
X1515110Y999530D02*
Y1004530D01*
X1629450Y1131570D02*
X1634450D01*
X1631950Y1129070D02*
Y1134070D01*
X1496100Y1009650D02*
X1501100D01*
X1498600Y1007150D02*
Y1012150D01*
X1645960Y1065530D02*
X1650960D01*
X1648460Y1063030D02*
Y1068030D01*
X1633260Y1076960D02*
X1638260D01*
X1635760Y1074460D02*
Y1079460D01*
X1657390Y1056640D02*
X1662390D01*
X1659890Y1054140D02*
Y1059140D01*
X1654850Y1132840D02*
X1659850D01*
X1657350Y1130340D02*
Y1135340D01*
X1614440Y641350D02*
X1616440D01*
X1615440Y640350D02*
Y642350D01*
X1591350Y1333500D02*
X1596350D01*
X1593850Y1331000D02*
Y1336000D01*
X1603010Y633730D02*
X1605010D01*
X1604010Y632730D02*
Y634730D01*
X1435140Y1344930D02*
X1440140D01*
X1437640Y1342430D02*
Y1347430D01*
X1596660Y629920D02*
X1598660D01*
X1597660Y628920D02*
Y630920D01*
X1310680Y1394460D02*
X1315680D01*
X1313180Y1391960D02*
Y1396960D01*
X1709690Y457200D02*
X1711690D01*
X1710690Y456200D02*
Y458200D01*
X1859550Y209550D02*
X1861550D01*
X1860550Y208550D02*
Y210550D01*
X1869710Y170180D02*
X1871710D01*
X1870710Y169180D02*
Y171180D01*
X945150Y284480D02*
X947150D01*
X946150Y283480D02*
Y285480D01*
X957850Y284480D02*
X959850D01*
X958850Y283480D02*
Y285480D01*
X931180Y284480D02*
X933180D01*
X932180Y283480D02*
Y285480D01*
X1084850Y326390D02*
X1086850D01*
X1085850Y325390D02*
Y327390D01*
X995950Y285750D02*
X997950D01*
X996950Y284750D02*
Y286750D01*
X1025160Y287020D02*
X1027160D01*
X1026160Y286020D02*
Y288020D01*
X1003570Y262890D02*
X1005570D01*
X1004570Y261890D02*
Y263890D01*
X1023890Y248920D02*
X1025890D01*
X1024890Y247920D02*
Y249920D01*
X1004840Y246380D02*
X1006840D01*
X1005840Y245380D02*
Y247380D01*
X995950Y254000D02*
X997950D01*
X996950Y253000D02*
Y255000D01*
X1034050Y276860D02*
X1036050D01*
X1035050Y275860D02*
Y277860D01*
X1028890Y170180D02*
X1030890D01*
X1029890Y169180D02*
Y171180D01*
X992140Y171450D02*
X994140D01*
X993140Y170450D02*
Y172450D01*
X945150Y106680D02*
X947150D01*
X946150Y105680D02*
Y107680D01*
X975600Y106710D02*
X977600D01*
X976600Y105710D02*
Y107710D01*
X990870Y106680D02*
X992870D01*
X991870Y105680D02*
Y107680D01*
X1006110Y106680D02*
X1008110D01*
X1007110Y105680D02*
Y107680D01*
X1021350Y106680D02*
X1023350D01*
X1022350Y105680D02*
Y107680D01*
X1060720Y278130D02*
X1062720D01*
X1061720Y277130D02*
Y279130D01*
X776240Y303530D02*
X778240D01*
X777240Y302530D02*
Y304530D01*
X776240Y289560D02*
X778240D01*
X777240Y288560D02*
Y290560D01*
X813070Y349250D02*
X815070D01*
X814070Y348250D02*
Y350250D01*
X773700Y436880D02*
X775700D01*
X774700Y435880D02*
Y437880D01*
X834660Y430530D02*
X836660D01*
X835660Y429530D02*
Y431530D01*
X795290Y278130D02*
X797290D01*
X796290Y277130D02*
Y279130D01*
X836295Y457200D02*
X842645D01*
X839470Y454025D02*
Y460375D01*
X264430Y273720D02*
X266430D01*
X265430Y272720D02*
Y274720D01*
X301260Y274990D02*
X303260D01*
X302260Y273990D02*
Y275990D01*
X340630Y274990D02*
X342630D01*
X341630Y273990D02*
Y275990D01*
X378730Y274990D02*
X380730D01*
X379730Y273990D02*
Y275990D01*
X289830Y221650D02*
X291830D01*
X290830Y220650D02*
Y222650D01*
X284480Y207680D02*
X286480D01*
X285480Y206680D02*
Y208680D01*
X324120Y211346D02*
X326120D01*
X325120Y210346D02*
Y212346D01*
X329200Y222920D02*
X331200D01*
X330200Y221920D02*
Y223920D01*
X391502Y216498D02*
X393502D01*
X392502Y215498D02*
Y217498D01*
X402860Y225460D02*
X404860D01*
X403860Y224460D02*
Y226460D01*
X223560Y822960D02*
X228560D01*
X226060Y820460D02*
Y825460D01*
X224830Y835660D02*
X229830D01*
X227330Y833160D02*
Y838160D01*
X223560Y848360D02*
X228560D01*
X226060Y845860D02*
Y850860D01*
X283250Y772160D02*
X288250D01*
X285750Y769660D02*
Y774660D01*
X283250Y746760D02*
X288250D01*
X285750Y744260D02*
Y749260D01*
X283250Y759460D02*
X288250D01*
X285750Y756960D02*
Y761960D01*
X264430Y375320D02*
X266430D01*
X265430Y374320D02*
Y376320D01*
X301260Y376590D02*
X303260D01*
X302260Y375590D02*
Y377590D01*
X340630Y376590D02*
X342630D01*
X341630Y375590D02*
Y377590D01*
X378730Y377860D02*
X380730D01*
X379730Y376860D02*
Y378860D01*
X275860Y337220D02*
X277860D01*
X276860Y336220D02*
Y338220D01*
X288560Y337220D02*
X290560D01*
X289560Y336220D02*
Y338220D01*
X327930Y337220D02*
X329930D01*
X328930Y336220D02*
Y338220D01*
X366030Y335950D02*
X368030D01*
X367030Y334950D02*
Y336950D01*
X1093740Y339344D02*
X1095740D01*
X1094740Y338344D02*
Y340344D01*
X992140Y215900D02*
X994140D01*
X993140Y214900D02*
Y216900D01*
X1039130Y191770D02*
X1041130D01*
X1040130Y190770D02*
Y192770D01*
X997220Y210820D02*
X999220D01*
X998220Y209820D02*
Y211820D01*
X981980Y198120D02*
X983980D01*
X982980Y197120D02*
Y199120D01*
X1409970Y175260D02*
X1411970D01*
X1410970Y174260D02*
Y176260D01*
X1364250Y312420D02*
X1366250D01*
X1365250Y311420D02*
Y313420D01*
X1324626Y935395D02*
X1326626D01*
X1325626Y934395D02*
Y936395D01*
X1256300Y876300D02*
X1258300D01*
X1257300Y875300D02*
Y877300D01*
X1957340Y1215390D02*
X1959340D01*
X1958340Y1214390D02*
Y1216390D01*
X925150Y1290320D02*
X927150D01*
X926150Y1289320D02*
Y1291320D01*
X1515040Y896280D02*
X1517040D01*
X1516040Y895280D02*
Y897280D01*
X1520460Y916940D02*
X1522460D01*
X1521460Y915940D02*
Y917940D01*
X128750Y1324750D02*
X228750D01*
X178750Y1274750D02*
Y1374750D01*
X128750Y237750D02*
X228750D01*
X178750Y187750D02*
Y287750D01*
X1912750Y1324750D02*
X2012750D01*
X1962750Y1274750D02*
Y1374750D01*
X1912750Y237750D02*
X2012750D01*
X1962750Y187750D02*
Y287750D01*
X144750Y1140000D02*
X176750D01*
X160750Y1124000D02*
Y1156000D01*
X144750Y422500D02*
X176750D01*
X160750Y406500D02*
Y438500D01*
X1964750Y422500D02*
X1996750D01*
X1980750Y406500D02*
Y438500D01*
X1964750Y1140000D02*
X1996750D01*
X1980750Y1124000D02*
Y1156000D01*
X1034050Y251460D02*
X1036050D01*
X1035050Y250460D02*
Y252460D01*
X884190Y434340D02*
X886190D01*
X885190Y433340D02*
Y435340D01*
X520740Y1259840D02*
X525740D01*
X523240Y1257340D02*
Y1262340D01*
X1516420Y400050D02*
X1521420D01*
X1518920Y397550D02*
Y402550D01*
X1436410Y388620D02*
X1441410D01*
X1438910Y386120D02*
Y391120D01*
X1529350Y530860D02*
X1531350D01*
X1530350Y529860D02*
Y531860D01*
X969280Y242570D02*
X971280D01*
X970280Y241570D02*
Y243570D01*
X1009920Y218440D02*
X1011920D01*
X1010920Y217440D02*
Y219440D01*
X1027700Y219710D02*
X1029700D01*
X1028700Y218710D02*
Y220710D01*
X1060720Y242570D02*
X1062720D01*
X1061720Y241570D02*
Y243570D01*
X997140Y196770D02*
X999140D01*
X998140Y195770D02*
Y197770D01*
X1061950Y262930D02*
X1063950D01*
X1062950Y261930D02*
Y263930D01*
X934990Y147320D02*
X936990D01*
X935990Y146320D02*
Y148320D01*
X1077230Y393700D02*
X1079230D01*
X1078230Y392700D02*
Y394700D01*
X1103265Y375920D02*
X1105265D01*
X1104265Y374920D02*
Y376920D01*
X1077230Y372110D02*
X1079230D01*
X1078230Y371110D02*
Y373110D01*
X1086120Y227330D02*
X1088120D01*
X1087120Y226330D02*
Y228330D01*
X1051703Y327660D02*
X1053703D01*
X1052703Y326660D02*
Y328660D01*
X777490Y261620D02*
X779490D01*
X778490Y260620D02*
Y262620D01*
X770490Y261620D02*
X772490D01*
X771490Y260620D02*
Y262620D01*
X1070880Y257930D02*
X1072880D01*
X1071880Y256930D02*
Y258930D01*
X1075960Y249350D02*
X1077960D01*
X1076960Y248350D02*
Y250350D01*
X527320Y535940D02*
X529320D01*
X528320Y534940D02*
Y536940D01*
X527320Y521970D02*
X529320D01*
X528320Y520970D02*
Y522970D01*
X544950Y488950D02*
X546950D01*
X545950Y487950D02*
Y489950D01*
X534940Y467360D02*
X536940D01*
X535940Y466360D02*
Y468360D01*
X562880Y538226D02*
X564880D01*
X563880Y537226D02*
Y539226D01*
X561610Y516588D02*
X563610D01*
X562610Y515588D02*
Y517588D01*
X576850Y541020D02*
X578850D01*
X577850Y540020D02*
Y542020D01*
X524780Y444500D02*
X526780D01*
X525780Y443500D02*
Y445500D01*
X551398Y481330D02*
X553398D01*
X552398Y480330D02*
Y482330D01*
X620030Y600710D02*
X622030D01*
X621030Y599710D02*
Y601710D01*
X627650Y600710D02*
X629650D01*
X628650Y599710D02*
Y601710D01*
X713085Y468630D02*
X715085D01*
X714085Y467630D02*
Y469630D01*
X706585Y468630D02*
X708585D01*
X707585Y467630D02*
Y469630D01*
X634000Y601980D02*
X636000D01*
X635000Y600980D02*
Y602980D01*
X725440Y530860D02*
X727440D01*
X726440Y529860D02*
Y531860D01*
X724170Y546100D02*
X726170D01*
X725170Y545100D02*
Y547100D01*
X730520Y488160D02*
X732520D01*
X731520Y487160D02*
Y489160D01*
X743220Y598170D02*
X745220D01*
X744220Y597170D02*
Y599170D01*
X743220Y607060D02*
X745220D01*
X744220Y606060D02*
Y608060D01*
X722000Y486349D02*
X724000D01*
X723000Y485349D02*
Y487349D01*
X707660Y295910D02*
X709660D01*
X708660Y294910D02*
Y296910D01*
X457470Y259080D02*
X459470D01*
X458470Y258080D02*
Y260080D01*
X716550Y608330D02*
X718550D01*
X717550Y607330D02*
Y609330D01*
X716550Y599440D02*
X718550D01*
X717550Y598440D02*
Y600440D01*
X748300Y590550D02*
X750300D01*
X749300Y589550D02*
Y591550D01*
X803418Y270002D02*
X805418D01*
X804418Y269002D02*
Y271002D01*
X926100Y661670D02*
X928100D01*
X927100Y660670D02*
Y662670D01*
X955310Y685800D02*
X957310D01*
X956310Y684800D02*
Y686800D01*
X894350Y655320D02*
X896350D01*
X895350Y654320D02*
Y656320D01*
X890540Y676910D02*
X892540D01*
X891540Y675910D02*
Y677910D01*
X876398Y655148D02*
X878398D01*
X877398Y654148D02*
Y656148D01*
X885460Y668020D02*
X887460D01*
X886460Y667020D02*
Y669020D01*
X871490Y648970D02*
X873490D01*
X872490Y647970D02*
Y649970D01*
X863990Y666870D02*
X865990D01*
X864990Y665870D02*
Y667870D01*
X975630Y593090D02*
X977630D01*
X976630Y592090D02*
Y594090D01*
X937530Y600710D02*
X939530D01*
X938530Y599710D02*
Y601710D01*
X846090Y593090D02*
X848090D01*
X847090Y592090D02*
Y594090D01*
X827040Y599440D02*
X829040D01*
X828040Y598440D02*
Y600440D01*
X963190Y924300D02*
X965190D01*
X964190Y923300D02*
Y925300D01*
X856250Y909320D02*
X858250D01*
X857250Y908320D02*
Y910320D01*
X830850Y894080D02*
X832850D01*
X831850Y893080D02*
Y895080D01*
X1018810Y601980D02*
X1020810D01*
X1019810Y600980D02*
Y602980D01*
X1376730Y764760D02*
X1378730D01*
X1377730Y763760D02*
Y765760D01*
X1030240Y596900D02*
X1032240D01*
X1031240Y595900D02*
Y597900D01*
X1361710Y767080D02*
X1363710D01*
X1362710Y766080D02*
Y768080D01*
X1049290Y607060D02*
X1051290D01*
X1050290Y606060D02*
Y608060D01*
X1009920Y932180D02*
X1011920D01*
X1010920Y931180D02*
Y933180D01*
X1083580Y1108710D02*
X1085580D01*
X1084580Y1107710D02*
Y1109710D01*
X1084850Y1099820D02*
X1086850D01*
X1085850Y1098820D02*
Y1100820D01*
X1056910Y605790D02*
X1058910D01*
X1057910Y604790D02*
Y606790D01*
X692420Y252730D02*
X694420D01*
X693420Y251730D02*
Y253730D01*
X698770Y259080D02*
X700770D01*
X699770Y258080D02*
Y260080D01*
X753380Y252730D02*
X755380D01*
X754380Y251730D02*
Y253730D01*
X745380Y272670D02*
X747380D01*
X746380Y271670D02*
Y273670D01*
X961660Y257810D02*
X963660D01*
X962660Y256810D02*
Y258810D01*
X950230Y148590D02*
X952230D01*
X951230Y147590D02*
Y149590D01*
X761398Y605392D02*
X763398D01*
X762398Y604392D02*
Y606392D01*
X1087390Y299720D02*
X1089390D01*
X1088390Y298720D02*
Y300720D01*
X612209Y598170D02*
X614209D01*
X613209Y597170D02*
Y599170D01*
X602709Y598170D02*
X604709D01*
X603709Y597170D02*
Y599170D01*
X540020Y926110D02*
X542020D01*
X541020Y925110D02*
Y927110D01*
X540020Y935610D02*
X542020D01*
X541020Y934610D02*
Y936610D01*
X595010Y713740D02*
X597010D01*
X596010Y712740D02*
Y714740D01*
X585510Y713740D02*
X587510D01*
X586510Y712740D02*
Y714740D01*
X584470Y608330D02*
X586470D01*
X585470Y607330D02*
Y609330D01*
X585740Y589280D02*
X587740D01*
X586740Y588280D02*
Y590280D01*
X651780Y598170D02*
X653780D01*
X652780Y597170D02*
Y599170D01*
X620030Y703580D02*
X622030D01*
X621030Y702580D02*
Y704580D01*
X407940Y703580D02*
X409940D01*
X408940Y702580D02*
Y704580D01*
X1731050Y471170D02*
X1736050D01*
X1733550Y468670D02*
Y473670D01*
X1250900Y1116960D02*
X1252900D01*
X1251900Y1115960D02*
Y1117960D01*
X1232170Y1117600D02*
X1234170D01*
X1233170Y1116600D02*
Y1118600D01*
X541290Y1210310D02*
X543290D01*
X542290Y1209310D02*
Y1211310D01*
X612410Y1179830D02*
X614410D01*
X613410Y1178830D02*
Y1180830D01*
X643350Y1179830D02*
X645350D01*
X644350Y1178830D02*
Y1180830D01*
X1568490Y717550D02*
X1573490D01*
X1570990Y715050D02*
Y720050D01*
X1543090Y694690D02*
X1548090D01*
X1545590Y692190D02*
Y697190D01*
X1531660Y684530D02*
X1536660D01*
X1534160Y682030D02*
Y687030D01*
X203470Y561340D02*
X205470D01*
X204470Y560340D02*
Y562340D01*
X580660Y1290320D02*
X582660D01*
X581660Y1289320D02*
Y1291320D01*
X605830Y1263650D02*
X610830D01*
X608330Y1261150D02*
Y1266150D01*
X605830Y1334770D02*
X610830D01*
X608330Y1332270D02*
Y1337270D01*
X607100Y1324610D02*
X612100D01*
X609600Y1322110D02*
Y1327110D01*
X623840Y1273810D02*
X625840D01*
X624840Y1272810D02*
Y1274810D01*
X615990Y1268730D02*
X620990D01*
X618490Y1266230D02*
Y1271230D01*
X550806Y1298682D02*
X552806D01*
X551806Y1297682D02*
Y1299682D01*
X548910Y1286510D02*
X550910D01*
X549910Y1285510D02*
Y1287510D01*
X548910Y1309370D02*
X550910D01*
X549910Y1308370D02*
Y1310370D01*
X527320Y1309370D02*
X529320D01*
X528320Y1308370D02*
Y1310370D01*
X526050Y1297940D02*
X528050D01*
X527050Y1296940D02*
Y1298940D01*
X527320Y1285240D02*
X529320D01*
X528320Y1284240D02*
Y1286240D01*
X255310Y1512570D02*
X260310D01*
X257810Y1510070D02*
Y1515070D01*
X212130Y1459230D02*
X217130D01*
X214630Y1456730D02*
Y1461730D01*
X304840Y1248410D02*
X309840D01*
X307340Y1245910D02*
Y1250910D01*
X745885Y1192770D02*
X749695D01*
X747790Y1190865D02*
Y1194675D01*
X570500Y1223010D02*
X572500D01*
X571500Y1222010D02*
Y1224010D01*
X565420Y1224280D02*
X567420D01*
X566420Y1223280D02*
Y1225280D01*
X1007507Y667385D02*
X1009507D01*
X1008507Y666385D02*
Y668385D01*
X666398Y649618D02*
X668398D01*
X667398Y648618D02*
Y650618D01*
X617490Y648970D02*
X619490D01*
X618490Y647970D02*
Y649970D01*
X716398Y650088D02*
X718398D01*
X717398Y649088D02*
Y651088D01*
X766398Y649922D02*
X768398D01*
X767398Y648922D02*
Y650922D01*
X811398Y650219D02*
X813398D01*
X812398Y649219D02*
Y651219D01*
X856250Y650240D02*
X858250D01*
X857250Y649240D02*
Y651240D01*
X911343Y650240D02*
X913343D01*
X912343Y649240D02*
Y651240D01*
X961660Y650240D02*
X963660D01*
X962660Y649240D02*
Y651240D01*
X1097550Y646430D02*
X1099550D01*
X1098550Y645430D02*
Y647430D01*
X961398Y543822D02*
X963398D01*
X962398Y542822D02*
Y544822D01*
X911398Y545714D02*
X913398D01*
X912398Y544714D02*
Y546714D01*
X861398Y545753D02*
X863398D01*
X862398Y544753D02*
Y546753D01*
X841398Y546488D02*
X843398D01*
X842398Y545488D02*
Y547488D01*
X811597Y545592D02*
X813597D01*
X812597Y544592D02*
Y546592D01*
X796560Y546100D02*
X798560D01*
X797560Y545100D02*
Y547100D01*
X767350Y546100D02*
X769350D01*
X768350Y545100D02*
Y547100D01*
X694960Y546100D02*
X696960D01*
X695960Y545100D02*
Y547100D01*
X665750Y546100D02*
X667750D01*
X666750Y545100D02*
Y547100D01*
X611750Y545592D02*
X613750D01*
X612750Y544592D02*
Y546592D01*
X566398Y546100D02*
X568398D01*
X567398Y545100D02*
Y547100D01*
X505730Y558800D02*
X507730D01*
X506730Y557800D02*
Y559800D01*
X516398Y651510D02*
X518398D01*
X517398Y650510D02*
Y652510D01*
X566398Y647992D02*
X568398D01*
X567398Y646992D02*
Y648992D01*
X947690Y210820D02*
X949690D01*
X948690Y209820D02*
Y211820D01*
X975630Y209550D02*
X977630D01*
X976630Y208550D02*
Y210550D01*
X1097550Y547370D02*
X1099550D01*
X1098550Y546370D02*
Y548370D01*
X493030Y1356360D02*
X495030D01*
X494030Y1355360D02*
Y1357360D01*
X1554520Y706120D02*
X1559520D01*
X1557020Y703620D02*
Y708620D01*
X700930Y181230D02*
X702930D01*
X701930Y180230D02*
Y182230D01*
X443270Y1352550D02*
X448270D01*
X445770Y1350050D02*
Y1355050D01*
X1023890Y194310D02*
X1025890D01*
X1024890Y193310D02*
Y195310D01*
X365026Y1049079D02*
X393026D01*
X379026Y1035079D02*
Y1063079D01*
X1124682Y1047750D02*
X1152682D01*
X1138682Y1033751D02*
Y1061750D01*
X365223Y578358D02*
X393223D01*
X379223Y564358D02*
Y592359D01*
X1124202Y578356D02*
X1152202D01*
X1138202Y564356D02*
Y592356D01*
X213630Y1530350D02*
X215630D01*
X214630Y1529350D02*
Y1531350D01*
X183150Y1526540D02*
X185150D01*
X184150Y1525540D02*
Y1527540D01*
X197120Y1510030D02*
X199120D01*
X198120Y1509030D02*
Y1511030D01*
X197120Y1520190D02*
X199120D01*
X198120Y1519190D02*
Y1521190D01*
X197120Y1530350D02*
X199120D01*
X198120Y1529350D02*
Y1531350D01*
X188230Y1506220D02*
X190230D01*
X189230Y1505220D02*
Y1507220D01*
X188230Y1515110D02*
X190230D01*
X189230Y1514110D02*
Y1516110D01*
X188230Y1521460D02*
X190230D01*
X189230Y1520460D02*
Y1522460D01*
X219980Y1526540D02*
X221980D01*
X220980Y1525540D02*
Y1527540D01*
X138700Y1506220D02*
X140700D01*
X139700Y1505220D02*
Y1507220D01*
X138700Y1512570D02*
X140700D01*
X139700Y1511570D02*
Y1513570D01*
X138700Y1520190D02*
X140700D01*
X139700Y1519190D02*
Y1521190D01*
X138700Y1526540D02*
X140700D01*
X139700Y1525540D02*
Y1527540D01*
X1642150Y1132840D02*
X1647150D01*
X1644650Y1130340D02*
Y1135340D01*
X1011190Y647827D02*
X1013190D01*
X1012190Y646827D02*
Y648827D01*
X419370Y1210710D02*
X421370D01*
X420370Y1209710D02*
Y1211710D01*
X645623Y605512D02*
X647623D01*
X646623Y604512D02*
Y606512D01*
X1017540Y613410D02*
X1019540D01*
X1018540Y612410D02*
Y614410D01*
X1008650Y613872D02*
X1010650D01*
X1009650Y612873D02*
Y614873D01*
M02*
