G04 Layer_Color=8388736*
%FSLAX44Y44*%
%MOMM*%
G71*
G01*
G75*
%ADD11C,0.2540*%
%ADD198C,0.1524*%
%ADD305C,0.7000*%
D11*
X2022750Y1324750D02*
G03*
X2022750Y1324750I-60000J0D01*
G01*
X2015750Y1140000D02*
G03*
X2015750Y1140000I-35000J0D01*
G01*
Y422500D02*
G03*
X2015750Y422500I-35000J0D01*
G01*
X2022750Y237750D02*
G03*
X2022750Y237750I-60000J0D01*
G01*
X195750Y422500D02*
G03*
X195750Y422500I-35000J0D01*
G01*
X238750Y237750D02*
G03*
X238750Y237750I-60000J0D01*
G01*
X1167190Y576580D02*
G03*
X1167190Y576580I-28000J0D01*
G01*
X406460Y577850D02*
G03*
X406460Y577850I-28000J0D01*
G01*
X1167190Y1047750D02*
G03*
X1167190Y1047750I-28000J0D01*
G01*
X407730D02*
G03*
X407730Y1047750I-28000J0D01*
G01*
X195750Y1140000D02*
G03*
X195750Y1140000I-35000J0D01*
G01*
X238750Y1324750D02*
G03*
X238750Y1324750I-60000J0D01*
G01*
X379730Y1116527D02*
X400050D01*
X379730Y1075750D02*
Y1116527D01*
Y1075750D02*
X384810Y1090990D01*
X374650D02*
X379730Y1075750D01*
X178750Y347099D02*
X240126D01*
X178750Y297750D02*
Y347099D01*
Y297750D02*
X183830Y312990D01*
X173670D02*
X178750Y297750D01*
X160750Y510475D02*
X241342D01*
X160750Y457500D02*
Y510475D01*
Y457500D02*
X165830Y472740D01*
X155670D02*
X160750Y457500D01*
Y1210820D02*
X214659D01*
X160750Y1175000D02*
Y1210820D01*
Y1175000D02*
X165830Y1190240D01*
X155670D02*
X160750Y1175000D01*
X178750Y1432369D02*
X209569D01*
X178750Y1384750D02*
Y1432369D01*
Y1384750D02*
X183830Y1399990D01*
X173670D02*
X178750Y1384750D01*
X2144778Y1564881D02*
Y1569961D01*
X2142238Y241D02*
X2146048D01*
X2144778Y824458D02*
Y1567421D01*
Y241D02*
Y735076D01*
X2139698Y1552181D02*
X2144778Y1567421D01*
X2149859Y1552181D01*
X2144778Y241D02*
X2149859Y15481D01*
X2139698D02*
X2144778Y241D01*
X-25400Y1045210D02*
X0D01*
X78740D02*
X104140D01*
X-15240Y1050290D02*
X0Y1045210D01*
X-15240Y1040130D02*
X0Y1045210D01*
X78740D02*
X93980Y1050290D01*
X78740Y1045210D02*
X93980Y1040130D01*
X0Y1042670D02*
Y1047750D01*
X78740Y1042670D02*
Y1047750D01*
X88900Y617220D02*
Y759862D01*
Y900028D02*
Y1042670D01*
X83820Y632460D02*
X88900Y617220D01*
X93980Y632460D01*
X83820Y1027430D02*
X88900Y1042670D01*
X93980Y1027430D01*
X86360Y617220D02*
X91440D01*
X86360Y1042670D02*
X91440D01*
X-18000Y1040000D02*
Y1207717D01*
Y1406283D02*
Y1574000D01*
X-23080Y1055240D02*
X-18000Y1040000D01*
X-12920Y1055240D01*
X-23080Y1558760D02*
X-18000Y1574000D01*
X-12920Y1558760D01*
X-20540Y1040000D02*
X-15460D01*
X-20540Y1574000D02*
X-15460D01*
X0D02*
X964447D01*
X1165553D02*
X2130000D01*
X0D02*
X15240Y1579080D01*
X0Y1574000D02*
X15240Y1568920D01*
X2114760Y1579080D02*
X2130000Y1574000D01*
X2114760Y1568920D02*
X2130000Y1574000D01*
X0Y1571460D02*
Y1576540D01*
X2130000Y1571460D02*
Y1576540D01*
D198*
Y1517650D02*
G03*
X2089150Y1564000I-43600J2750D01*
G01*
X2082800Y0D02*
G03*
X2130000Y44450I1375J45825D01*
G01*
X0Y38042D02*
G03*
X38042Y0I38042J0D01*
G01*
X44450Y1564000D02*
G03*
X0Y1518920I315J-44765D01*
G01*
Y38100D02*
Y617220D01*
X78740D01*
Y1042670D01*
X0D02*
X78740D01*
X41270Y1564000D02*
X2089790D01*
X2130000Y43390D02*
Y1523790D01*
X38042Y0D02*
X2086610D01*
X0Y38042D02*
Y44450D01*
Y38100D02*
Y409258D01*
Y1042670D02*
Y1522730D01*
X402590Y1107385D02*
Y1122620D01*
X410208D01*
X412747Y1120081D01*
Y1115003D01*
X410208Y1112464D01*
X402590D01*
X407668D02*
X412747Y1107385D01*
X443217D02*
X433060D01*
X443217Y1117542D01*
Y1120081D01*
X440678Y1122620D01*
X435599D01*
X433060Y1120081D01*
X448295Y1107385D02*
Y1109925D01*
X450835D01*
Y1107385D01*
X448295D01*
X460991Y1120081D02*
X463530Y1122620D01*
X468609D01*
X471148Y1120081D01*
Y1117542D01*
X468609Y1115003D01*
X471148Y1112464D01*
Y1109925D01*
X468609Y1107385D01*
X463530D01*
X460991Y1109925D01*
Y1112464D01*
X463530Y1115003D01*
X460991Y1117542D01*
Y1120081D01*
X463530Y1115003D02*
X468609D01*
X476226Y1120081D02*
X478765Y1122620D01*
X483844D01*
X486383Y1120081D01*
Y1109925D01*
X483844Y1107385D01*
X478765D01*
X476226Y1109925D01*
Y1120081D01*
X242666Y337957D02*
Y353192D01*
X250283D01*
X252822Y350653D01*
Y345574D01*
X250283Y343035D01*
X242666D01*
X247744D02*
X252822Y337957D01*
X283292Y353192D02*
X278214Y350653D01*
X273136Y345574D01*
Y340496D01*
X275675Y337957D01*
X280753D01*
X283292Y340496D01*
Y343035D01*
X280753Y345574D01*
X273136D01*
X288371Y337957D02*
Y340496D01*
X290910D01*
Y337957D01*
X288371D01*
X301067Y350653D02*
X303606Y353192D01*
X308684D01*
X311223Y350653D01*
Y340496D01*
X308684Y337957D01*
X303606D01*
X301067Y340496D01*
Y350653D01*
X316302D02*
X318841Y353192D01*
X323919D01*
X326458Y350653D01*
Y340496D01*
X323919Y337957D01*
X318841D01*
X316302Y340496D01*
Y350653D01*
X243882Y501333D02*
Y516568D01*
X251500D01*
X254039Y514029D01*
Y508951D01*
X251500Y506412D01*
X243882D01*
X248960D02*
X254039Y501333D01*
X274352Y514029D02*
X276891Y516568D01*
X281970D01*
X284509Y514029D01*
Y511490D01*
X281970Y508951D01*
X279431D01*
X281970D01*
X284509Y506412D01*
Y503872D01*
X281970Y501333D01*
X276891D01*
X274352Y503872D01*
X289587Y501333D02*
Y503872D01*
X292127D01*
Y501333D01*
X289587D01*
X312440Y516568D02*
X302283D01*
Y508951D01*
X307362Y511490D01*
X309901D01*
X312440Y508951D01*
Y503872D01*
X309901Y501333D01*
X304822D01*
X302283Y503872D01*
X317518Y514029D02*
X320057Y516568D01*
X325136D01*
X327675Y514029D01*
Y503872D01*
X325136Y501333D01*
X320057D01*
X317518Y503872D01*
Y514029D01*
X217199Y1201679D02*
Y1216914D01*
X224817D01*
X227356Y1214375D01*
Y1209296D01*
X224817Y1206757D01*
X217199D01*
X222278D02*
X227356Y1201679D01*
X247670Y1214375D02*
X250209Y1216914D01*
X255287D01*
X257826Y1214375D01*
Y1211836D01*
X255287Y1209296D01*
X252748D01*
X255287D01*
X257826Y1206757D01*
Y1204218D01*
X255287Y1201679D01*
X250209D01*
X247670Y1204218D01*
X262905Y1201679D02*
Y1204218D01*
X265444D01*
Y1201679D01*
X262905D01*
X285757Y1216914D02*
X275600D01*
Y1209296D01*
X280679Y1211836D01*
X283218D01*
X285757Y1209296D01*
Y1204218D01*
X283218Y1201679D01*
X278140D01*
X275600Y1204218D01*
X290836Y1214375D02*
X293375Y1216914D01*
X298453D01*
X300992Y1214375D01*
Y1204218D01*
X298453Y1201679D01*
X293375D01*
X290836Y1204218D01*
Y1214375D01*
X212109Y1423228D02*
Y1438463D01*
X219726D01*
X222266Y1435924D01*
Y1430845D01*
X219726Y1428306D01*
X212109D01*
X217187D02*
X222266Y1423228D01*
X252736Y1438463D02*
X247657Y1435924D01*
X242579Y1430845D01*
Y1425767D01*
X245118Y1423228D01*
X250197D01*
X252736Y1425767D01*
Y1428306D01*
X250197Y1430845D01*
X242579D01*
X257814Y1423228D02*
Y1425767D01*
X260353D01*
Y1423228D01*
X257814D01*
X270510Y1435924D02*
X273049Y1438463D01*
X278127D01*
X280667Y1435924D01*
Y1425767D01*
X278127Y1423228D01*
X273049D01*
X270510Y1425767D01*
Y1435924D01*
X285745D02*
X288284Y1438463D01*
X293363D01*
X295902Y1435924D01*
Y1425767D01*
X293363Y1423228D01*
X288284D01*
X285745Y1425767D01*
Y1435924D01*
X2153920Y739140D02*
Y744218D01*
Y741679D01*
X2138685D01*
X2141224Y739140D01*
X2138685Y761993D02*
Y751836D01*
X2146302D01*
X2143763Y756914D01*
Y759453D01*
X2146302Y761993D01*
X2151381D01*
X2153920Y759453D01*
Y754375D01*
X2151381Y751836D01*
X2138685Y777228D02*
X2141224Y772149D01*
X2146302Y767071D01*
X2151381D01*
X2153920Y769610D01*
Y774688D01*
X2151381Y777228D01*
X2148842D01*
X2146302Y774688D01*
Y767071D01*
X2153920Y782306D02*
X2151381D01*
Y784845D01*
X2153920D01*
Y782306D01*
X2138685Y795002D02*
Y805159D01*
X2141224D01*
X2151381Y795002D01*
X2153920D01*
Y820394D02*
Y810237D01*
X2143763Y820394D01*
X2141224D01*
X2138685Y817855D01*
Y812776D01*
X2141224Y810237D01*
X-20555Y1021340D02*
X-18016Y1023879D01*
X-12938D01*
X-10398Y1021340D01*
Y1018801D01*
X-12938Y1016261D01*
X-15477D01*
X-12938D01*
X-10398Y1013722D01*
Y1011183D01*
X-12938Y1008644D01*
X-18016D01*
X-20555Y1011183D01*
X-5320Y1008644D02*
X-242D01*
X-2781D01*
Y1023879D01*
X-5320Y1021340D01*
X7376D02*
X9915Y1023879D01*
X14993D01*
X17533Y1021340D01*
Y1011183D01*
X14993Y1008644D01*
X9915D01*
X7376Y1011183D01*
Y1021340D01*
X42924Y1008644D02*
X37846Y1013722D01*
Y1018801D01*
X42924Y1023879D01*
X50542Y1008644D02*
Y1018801D01*
X53081D01*
X55620Y1016261D01*
Y1008644D01*
Y1016261D01*
X58159Y1018801D01*
X60699Y1016261D01*
Y1008644D01*
X65777D02*
X70855D01*
X68316D01*
Y1018801D01*
X65777D01*
X78473Y1008644D02*
X83551D01*
X81012D01*
Y1023879D01*
X78473D01*
X91169Y1008644D02*
X96247Y1013722D01*
Y1018801D01*
X91169Y1023879D01*
X98041Y762402D02*
Y767481D01*
Y764941D01*
X82807D01*
X85346Y762402D01*
X82807Y785255D02*
X85346Y780177D01*
X90424Y775098D01*
X95502D01*
X98041Y777637D01*
Y782716D01*
X95502Y785255D01*
X92963D01*
X90424Y782716D01*
Y775098D01*
X82807Y790333D02*
Y800490D01*
X85346D01*
X95502Y790333D01*
X98041D01*
X82807Y815725D02*
Y805568D01*
X90424D01*
X87885Y810647D01*
Y813186D01*
X90424Y815725D01*
X95502D01*
X98041Y813186D01*
Y808108D01*
X95502Y805568D01*
X98041Y841117D02*
X92963Y836039D01*
X87885D01*
X82807Y841117D01*
X98041Y848734D02*
X87885D01*
Y851274D01*
X90424Y853813D01*
X98041D01*
X90424D01*
X87885Y856352D01*
X90424Y858891D01*
X98041D01*
Y863969D02*
Y869048D01*
Y866509D01*
X87885D01*
Y863969D01*
X98041Y876665D02*
Y881744D01*
Y879205D01*
X82807D01*
Y876665D01*
X98041Y889361D02*
X92963Y894440D01*
X87885D01*
X82807Y889361D01*
X-8859Y1220414D02*
Y1210257D01*
X-19015Y1220414D01*
X-21554D01*
X-24093Y1217874D01*
Y1212796D01*
X-21554Y1210257D01*
X-8859Y1225492D02*
Y1230570D01*
Y1228031D01*
X-24093D01*
X-21554Y1225492D01*
Y1238188D02*
X-24093Y1240727D01*
Y1245805D01*
X-21554Y1248344D01*
X-11398D01*
X-8859Y1245805D01*
Y1240727D01*
X-11398Y1238188D01*
X-21554D01*
X-8859Y1263580D02*
Y1253423D01*
X-19015Y1263580D01*
X-21554D01*
X-24093Y1261040D01*
Y1255962D01*
X-21554Y1253423D01*
X-8859Y1268658D02*
X-11398D01*
Y1271197D01*
X-8859D01*
Y1268658D01*
X-21554Y1281354D02*
X-24093Y1283893D01*
Y1288971D01*
X-21554Y1291510D01*
X-19015D01*
X-16476Y1288971D01*
Y1286432D01*
Y1288971D01*
X-13937Y1291510D01*
X-11398D01*
X-8859Y1288971D01*
Y1283893D01*
X-11398Y1281354D01*
X-24093Y1306746D02*
X-21554Y1301667D01*
X-16476Y1296589D01*
X-11398D01*
X-8859Y1299128D01*
Y1304206D01*
X-11398Y1306746D01*
X-13937D01*
X-16476Y1304206D01*
Y1296589D01*
X-8859Y1321981D02*
Y1311824D01*
X-19015Y1321981D01*
X-21554D01*
X-24093Y1319442D01*
Y1314363D01*
X-21554Y1311824D01*
X-8859Y1347372D02*
X-13937Y1342294D01*
X-19015D01*
X-24093Y1347372D01*
X-8859Y1354990D02*
X-19015D01*
Y1357529D01*
X-16476Y1360068D01*
X-8859D01*
X-16476D01*
X-19015Y1362608D01*
X-16476Y1365147D01*
X-8859D01*
Y1370225D02*
Y1375303D01*
Y1372764D01*
X-19015D01*
Y1370225D01*
X-8859Y1382921D02*
Y1387999D01*
Y1385460D01*
X-24093D01*
Y1382921D01*
X-8859Y1395617D02*
X-13937Y1400695D01*
X-19015D01*
X-24093Y1395617D01*
X966987Y1577554D02*
X969526Y1580094D01*
X974605D01*
X977144Y1577554D01*
Y1575015D01*
X974605Y1572476D01*
X977144Y1569937D01*
Y1567398D01*
X974605Y1564859D01*
X969526D01*
X966987Y1567398D01*
Y1569937D01*
X969526Y1572476D01*
X966987Y1575015D01*
Y1577554D01*
X969526Y1572476D02*
X974605D01*
X982222Y1577554D02*
X984762Y1580094D01*
X989840D01*
X992379Y1577554D01*
Y1575015D01*
X989840Y1572476D01*
X987301D01*
X989840D01*
X992379Y1569937D01*
Y1567398D01*
X989840Y1564859D01*
X984762D01*
X982222Y1567398D01*
X997457Y1577554D02*
X999997Y1580094D01*
X1005075D01*
X1007614Y1577554D01*
Y1575015D01*
X1005075Y1572476D01*
X1007614Y1569937D01*
Y1567398D01*
X1005075Y1564859D01*
X999997D01*
X997457Y1567398D01*
Y1569937D01*
X999997Y1572476D01*
X997457Y1575015D01*
Y1577554D01*
X999997Y1572476D02*
X1005075D01*
X1022849Y1580094D02*
X1012692D01*
Y1572476D01*
X1017771Y1575015D01*
X1020310D01*
X1022849Y1572476D01*
Y1567398D01*
X1020310Y1564859D01*
X1015232D01*
X1012692Y1567398D01*
X1027927Y1564859D02*
Y1567398D01*
X1030467D01*
Y1564859D01*
X1027927D01*
X1040623Y1577554D02*
X1043163Y1580094D01*
X1048241D01*
X1050780Y1577554D01*
Y1575015D01*
X1048241Y1572476D01*
X1050780Y1569937D01*
Y1567398D01*
X1048241Y1564859D01*
X1043163D01*
X1040623Y1567398D01*
Y1569937D01*
X1043163Y1572476D01*
X1040623Y1575015D01*
Y1577554D01*
X1043163Y1572476D02*
X1048241D01*
X1066015Y1564859D02*
X1055859D01*
X1066015Y1575015D01*
Y1577554D01*
X1063476Y1580094D01*
X1058398D01*
X1055859Y1577554D01*
X1071094Y1580094D02*
X1081250D01*
Y1577554D01*
X1071094Y1567398D01*
Y1564859D01*
X1106642D02*
X1101564Y1569937D01*
Y1575015D01*
X1106642Y1580094D01*
X1114260Y1564859D02*
Y1575015D01*
X1116799D01*
X1119338Y1572476D01*
Y1564859D01*
Y1572476D01*
X1121877Y1575015D01*
X1124416Y1572476D01*
Y1564859D01*
X1129495D02*
X1134573D01*
X1132034D01*
Y1575015D01*
X1129495D01*
X1142190Y1564859D02*
X1147269D01*
X1144730D01*
Y1580094D01*
X1142190D01*
X1154886Y1564859D02*
X1159965Y1569937D01*
Y1575015D01*
X1154886Y1580094D01*
D305*
X232960Y1695580D02*
Y1730569D01*
X244623Y1718906D01*
X256286Y1730569D01*
Y1695580D01*
X285443D02*
X273780D01*
X267949Y1701411D01*
Y1713074D01*
X273780Y1718906D01*
X285443D01*
X291275Y1713074D01*
Y1707243D01*
X267949D01*
X326263Y1718906D02*
X308769D01*
X302937Y1713074D01*
Y1701411D01*
X308769Y1695580D01*
X326263D01*
X337926Y1730569D02*
Y1695580D01*
Y1713074D01*
X343758Y1718906D01*
X355420D01*
X361252Y1713074D01*
Y1695580D01*
X378746Y1718906D02*
X390409D01*
X396241Y1713074D01*
Y1695580D01*
X378746D01*
X372915Y1701411D01*
X378746Y1707243D01*
X396241D01*
X407904Y1695580D02*
Y1718906D01*
X425398D01*
X431229Y1713074D01*
Y1695580D01*
X442892D02*
X454555D01*
X448724D01*
Y1718906D01*
X442892D01*
X495375D02*
X477881D01*
X472049Y1713074D01*
Y1701411D01*
X477881Y1695580D01*
X495375D01*
X512870Y1718906D02*
X524533D01*
X530364Y1713074D01*
Y1695580D01*
X512870D01*
X507038Y1701411D01*
X512870Y1707243D01*
X530364D01*
X542027Y1695580D02*
X553690D01*
X547858D01*
Y1730569D01*
X542027D01*
X606173D02*
Y1695580D01*
X623667D01*
X629499Y1701411D01*
Y1724737D01*
X623667Y1730569D01*
X606173D01*
X641162Y1718906D02*
Y1695580D01*
Y1707243D01*
X646993Y1713074D01*
X652824Y1718906D01*
X658656D01*
X681982D02*
X693645D01*
X699476Y1713074D01*
Y1695580D01*
X681982D01*
X676150Y1701411D01*
X681982Y1707243D01*
X699476D01*
X711139Y1718906D02*
Y1701411D01*
X716970Y1695580D01*
X722802Y1701411D01*
X728633Y1695580D01*
X734465Y1701411D01*
Y1718906D01*
X746128Y1695580D02*
X757791D01*
X751959D01*
Y1718906D01*
X746128D01*
X775285Y1695580D02*
Y1718906D01*
X792779D01*
X798611Y1713074D01*
Y1695580D01*
X821936Y1683917D02*
X827768D01*
X833599Y1689749D01*
Y1718906D01*
X816105D01*
X810274Y1713074D01*
Y1701411D01*
X816105Y1695580D01*
X833599D01*
X886083D02*
X897745D01*
X903577Y1701411D01*
Y1713074D01*
X897745Y1718906D01*
X886083D01*
X880251Y1713074D01*
Y1701411D01*
X886083Y1695580D01*
X921071D02*
Y1724737D01*
Y1713074D01*
X915240D01*
X926903D01*
X921071D01*
Y1724737D01*
X926903Y1730569D01*
X1002711Y1724737D02*
X996880Y1730569D01*
X985217D01*
X979386Y1724737D01*
Y1718906D01*
X985217Y1713074D01*
X996880D01*
X1002711Y1707243D01*
Y1701411D01*
X996880Y1695580D01*
X985217D01*
X979386Y1701411D01*
X1014374Y1730569D02*
Y1724737D01*
X1026037Y1713074D01*
X1037700Y1724737D01*
Y1730569D01*
X1026037Y1713074D02*
Y1695580D01*
X1049363D02*
Y1730569D01*
X1072689Y1695580D01*
Y1730569D01*
X1107678Y1724737D02*
X1101846Y1730569D01*
X1090183D01*
X1084352Y1724737D01*
Y1701411D01*
X1090183Y1695580D01*
X1101846D01*
X1107678Y1701411D01*
X1119341Y1730569D02*
Y1695580D01*
X1136835D01*
X1142666Y1701411D01*
Y1707243D01*
X1136835Y1713074D01*
X1119341D01*
X1136835D01*
X1142666Y1718906D01*
Y1724737D01*
X1136835Y1730569D01*
X1119341D01*
X1171824D02*
X1160161D01*
X1154329Y1724737D01*
Y1701411D01*
X1160161Y1695580D01*
X1171824D01*
X1177655Y1701411D01*
Y1724737D01*
X1171824Y1730569D01*
X1189318D02*
X1212644Y1695580D01*
Y1730569D02*
X1189318Y1695580D01*
M02*
