G04 Layer_Color=128*
%FSLAX44Y44*%
%MOMM*%
G71*
G01*
G75*
%ADD14R,0.5000X0.5000*%
%ADD15R,0.5000X0.5000*%
%ADD23R,0.4500X0.4000*%
%ADD29R,0.9000X0.9500*%
%ADD30R,0.9000X0.9500*%
%ADD34R,0.8000X0.8000*%
%ADD35R,1.2000X1.1000*%
%ADD42R,0.5000X0.6000*%
%ADD44R,0.6000X0.5000*%
%ADD57R,0.5588X1.9812*%
%ADD58R,1.5000X1.3000*%
%ADD59R,1.3000X1.5000*%
%ADD67R,0.4000X0.9024*%
%ADD199R,1.1684X0.5334*%
%ADD200R,1.1684X0.9398*%
%ADD201R,1.1056X1.8000*%
%ADD202R,1.8000X1.1056*%
%ADD203R,0.7620X1.9050*%
%ADD204R,1.9812X0.5334*%
%ADD206R,1.0160X0.2300*%
%ADD207R,0.2300X1.0160*%
%ADD304R,1.4000X1.4000*%
D14*
X798830Y289560D02*
D03*
X788830D02*
D03*
X798830Y303530D02*
D03*
X788830D02*
D03*
X590710Y1268730D02*
D03*
X600710D02*
D03*
X600550Y1295400D02*
D03*
X590550D02*
D03*
X590710Y1330960D02*
D03*
X600710D02*
D03*
D15*
X441960Y1245710D02*
D03*
Y1235710D02*
D03*
X445770Y1327150D02*
D03*
Y1337150D02*
D03*
X1040130Y1466850D02*
D03*
Y1456850D02*
D03*
D23*
X848700Y152590D02*
D03*
X838200Y148590D02*
D03*
Y156590D02*
D03*
X731520Y185610D02*
D03*
X721020Y181610D02*
D03*
Y189610D02*
D03*
X746760Y185420D02*
D03*
X757260Y189420D02*
D03*
Y181420D02*
D03*
X670220Y190310D02*
D03*
X680720Y194310D02*
D03*
Y186310D02*
D03*
D29*
X1294790Y1381560D02*
D03*
X1304290Y1356560D02*
D03*
D30*
X1313790Y1381560D02*
D03*
D34*
X591820Y1281430D02*
D03*
X606820D02*
D03*
D35*
X822960Y233940D02*
D03*
Y202940D02*
D03*
X847090Y235210D02*
D03*
Y204210D02*
D03*
D42*
X569040Y1209040D02*
D03*
X579040D02*
D03*
X441960Y1224280D02*
D03*
X451960D02*
D03*
X455850Y1315720D02*
D03*
X445850D02*
D03*
X600550Y1318260D02*
D03*
X590550D02*
D03*
X600630Y1306830D02*
D03*
X590630D02*
D03*
X2014220Y1457960D02*
D03*
X2024220D02*
D03*
D44*
X623570Y1243330D02*
D03*
Y1233330D02*
D03*
X609600Y1243330D02*
D03*
Y1233330D02*
D03*
X552450Y1358900D02*
D03*
Y1368900D02*
D03*
X547370Y1232060D02*
D03*
Y1242060D02*
D03*
X523240D02*
D03*
Y1232060D02*
D03*
X534670Y1242060D02*
D03*
Y1232060D02*
D03*
X1811020Y1460500D02*
D03*
Y1470500D02*
D03*
X1812290Y1324690D02*
D03*
Y1334690D02*
D03*
X1925320Y1468120D02*
D03*
Y1458120D02*
D03*
D57*
X815340Y270002D02*
D03*
X828040D02*
D03*
X840740D02*
D03*
X853440D02*
D03*
Y319278D02*
D03*
X840740D02*
D03*
X828040D02*
D03*
X815340D02*
D03*
D58*
X1925490Y1413510D02*
D03*
Y1438910D02*
D03*
X2015490Y1413510D02*
D03*
Y1438910D02*
D03*
D59*
X1785620Y1442720D02*
D03*
X1811020D02*
D03*
X1785620Y1352720D02*
D03*
X1811020D02*
D03*
D67*
X746380Y243692D02*
D03*
X754380D02*
D03*
X746380Y223668D02*
D03*
X754380D02*
D03*
X702500D02*
D03*
X694500D02*
D03*
X800290D02*
D03*
X792290D02*
D03*
X557340Y201182D02*
D03*
X565340D02*
D03*
X557340Y181158D02*
D03*
X565340D02*
D03*
X543750D02*
D03*
X535750D02*
D03*
X702500Y243692D02*
D03*
X694500D02*
D03*
X800290D02*
D03*
X792290D02*
D03*
X543750Y201182D02*
D03*
X535750D02*
D03*
D199*
X471170Y196200D02*
D03*
Y177200D02*
D03*
X491490D02*
D03*
D200*
Y194168D02*
D03*
D201*
X1319530Y1327150D02*
D03*
X1287474D02*
D03*
D202*
X1014730Y1424940D02*
D03*
Y1392884D02*
D03*
D203*
X265430Y395005D02*
D03*
X278130D02*
D03*
X290830D02*
D03*
X303530D02*
D03*
X316230D02*
D03*
X328930D02*
D03*
X341630D02*
D03*
X354330D02*
D03*
X367030D02*
D03*
X379730D02*
D03*
X265430Y248955D02*
D03*
X278130D02*
D03*
X290830D02*
D03*
X303530D02*
D03*
X316230D02*
D03*
X328930D02*
D03*
X341630D02*
D03*
X354330D02*
D03*
X367030D02*
D03*
X379730D02*
D03*
X392430D02*
D03*
X405130D02*
D03*
Y395005D02*
D03*
X392430D02*
D03*
D204*
X1040892Y1407160D02*
D03*
Y1419860D02*
D03*
Y1432560D02*
D03*
Y1445260D02*
D03*
X1090168D02*
D03*
Y1432560D02*
D03*
Y1419860D02*
D03*
Y1407160D02*
D03*
D206*
X565782Y1315440D02*
D03*
Y1310440D02*
D03*
Y1305440D02*
D03*
Y1300440D02*
D03*
Y1295440D02*
D03*
Y1290440D02*
D03*
Y1285440D02*
D03*
Y1280440D02*
D03*
X513718D02*
D03*
Y1285440D02*
D03*
Y1290440D02*
D03*
Y1295440D02*
D03*
Y1300440D02*
D03*
Y1305440D02*
D03*
Y1310440D02*
D03*
Y1315440D02*
D03*
D207*
X557250Y1271908D02*
D03*
X552250D02*
D03*
X547250D02*
D03*
X542250D02*
D03*
X537250D02*
D03*
X532250D02*
D03*
X527250D02*
D03*
X522250D02*
D03*
Y1323972D02*
D03*
X527250D02*
D03*
X532250D02*
D03*
X537250D02*
D03*
X542250D02*
D03*
X547250D02*
D03*
X552250D02*
D03*
X557250D02*
D03*
D304*
X547749Y1305939D02*
D03*
X531751D02*
D03*
X547749Y1289941D02*
D03*
X531751D02*
D03*
M02*
