G04 Layer_Color=32768*
%FSLAX44Y44*%
%MOMM*%
G71*
G01*
G75*
%ADD10C,0.3810*%
%ADD11C,0.2540*%
%ADD213C,0.0254*%
%ADD306C,0.5000*%
D10*
X2281470Y1308598D02*
X3434326D01*
X2281470Y1339078D02*
X3434326D01*
X2281470Y851398D02*
Y1339078D01*
Y851398D02*
X2385588D01*
X2281470Y881878D02*
X2385588D01*
X2281470Y912358D02*
X2385588D01*
X2281470Y942838D02*
X2385588D01*
X2281470Y973318D02*
X2385588D01*
X2281470Y1003798D02*
X2385588D01*
X2281470Y1034278D02*
X2385588D01*
X2281470Y1064758D02*
X2385588D01*
X2281470Y1095238D02*
X2385588D01*
X2281470Y1125718D02*
X2385588D01*
X2281470Y1156198D02*
X2385588D01*
X2281470Y1186678D02*
X2385588D01*
X2281470Y1217158D02*
X2385588D01*
X2281470Y1247638D02*
X2385588D01*
X2281470Y1278118D02*
X2385588D01*
Y851398D02*
Y1339078D01*
Y851398D02*
X2621743D01*
X2385588Y881878D02*
X2621743D01*
X2385588Y912358D02*
X2621743D01*
X2385588Y942838D02*
X2621743D01*
X2385588Y973318D02*
X2621743D01*
X2385588Y1003798D02*
X2621743D01*
X2385588Y1034278D02*
X2621743D01*
X2385588Y1064758D02*
X2621743D01*
X2385588Y1095238D02*
X2621743D01*
X2385588Y1125718D02*
X2621743D01*
X2385588Y1156198D02*
X2621743D01*
X2385588Y1186678D02*
X2621743D01*
X2385588Y1217158D02*
X2621743D01*
X2385588Y1247638D02*
X2621743D01*
X2385588Y1278118D02*
X2621743D01*
Y851398D02*
Y1339078D01*
Y851398D02*
X2840124D01*
X2621743Y881878D02*
X2840124D01*
X2621743Y912358D02*
X2840124D01*
X2621743Y942838D02*
X2840124D01*
X2621743Y973318D02*
X2840124D01*
X2621743Y1003798D02*
X2840124D01*
X2621743Y1034278D02*
X2840124D01*
X2621743Y1064758D02*
X2840124D01*
X2621743Y1095238D02*
X2840124D01*
X2621743Y1125718D02*
X2840124D01*
X2621743Y1156198D02*
X2840124D01*
X2621743Y1186678D02*
X2840124D01*
X2621743Y1217158D02*
X2840124D01*
X2621743Y1247638D02*
X2840124D01*
X2621743Y1278118D02*
X2840124D01*
Y851398D02*
Y1339078D01*
Y851398D02*
X3005182D01*
X2840124Y881878D02*
X3005182D01*
X2840124Y912358D02*
X3005182D01*
X2840124Y942838D02*
X3005182D01*
X2840124Y973318D02*
X3005182D01*
X2840124Y1003798D02*
X3005182D01*
X2840124Y1034278D02*
X3005182D01*
X2840124Y1064758D02*
X3005182D01*
X2840124Y1095238D02*
X3005182D01*
X2840124Y1125718D02*
X3005182D01*
X2840124Y1156198D02*
X3005182D01*
X2840124Y1186678D02*
X3005182D01*
X2840124Y1217158D02*
X3005182D01*
X2840124Y1247638D02*
X3005182D01*
X2840124Y1278118D02*
X3005182D01*
Y851398D02*
Y1339078D01*
Y851398D02*
X3149927D01*
X3005182Y881878D02*
X3149927D01*
X3005182Y912358D02*
X3149927D01*
X3005182Y942838D02*
X3149927D01*
X3005182Y973318D02*
X3149927D01*
X3005182Y1003798D02*
X3149927D01*
X3005182Y1034278D02*
X3149927D01*
X3005182Y1064758D02*
X3149927D01*
X3005182Y1095238D02*
X3149927D01*
X3005182Y1125718D02*
X3149927D01*
X3005182Y1156198D02*
X3149927D01*
X3005182Y1186678D02*
X3149927D01*
X3005182Y1217158D02*
X3149927D01*
X3005182Y1247638D02*
X3149927D01*
X3005182Y1278118D02*
X3149927D01*
Y851398D02*
Y1339078D01*
Y851398D02*
X3434326D01*
X3149927Y881878D02*
X3434326D01*
X3149927Y912358D02*
X3434326D01*
X3149927Y942838D02*
X3434326D01*
X3149927Y973318D02*
X3434326D01*
X3149927Y1003798D02*
X3434326D01*
X3149927Y1034278D02*
X3434326D01*
X3149927Y1064758D02*
X3434326D01*
X3149927Y1095238D02*
X3434326D01*
X3149927Y1125718D02*
X3434326D01*
X3149927Y1156198D02*
X3434326D01*
X3149927Y1186678D02*
X3434326D01*
X3149927Y1217158D02*
X3434326D01*
X3149927Y1247638D02*
X3434326D01*
X3149927Y1278118D02*
X3434326D01*
Y851398D02*
Y1339078D01*
X2281471Y18103D02*
Y331311D01*
Y331394D01*
X2281534Y331546D01*
X2281650Y331663D01*
X2281803Y331726D01*
X2281885D01*
X2324056D01*
Y560996D01*
X2281885D02*
X2324056D01*
X2281803D02*
X2281885D01*
X2281650Y561059D02*
X2281803Y560996D01*
X2281534Y561175D02*
X2281650Y561059D01*
X2281471Y561328D02*
X2281534Y561175D01*
X2281471Y561328D02*
Y561410D01*
X2281470Y819024D02*
X2281471Y561410D01*
X2281470Y819110D02*
X2281470Y819024D01*
X2281470Y819110D02*
Y819196D01*
X2281471Y819326D01*
Y821079D01*
X2281507Y821216D01*
X2281564Y821306D01*
X2281690Y822734D01*
X2282270Y825542D01*
X2283172Y828264D01*
X2284385Y830863D01*
X2285890Y833303D01*
X2287669Y835552D01*
X2289697Y837580D01*
X2291946Y839359D01*
X2294386Y840864D01*
X2296985Y842076D01*
X2299707Y842979D01*
X2302515Y843559D01*
X2303970Y843707D01*
X2304099Y843766D01*
X2304205Y843778D01*
X3412184Y843773D01*
X3412289Y843741D01*
X3413692Y843624D01*
X3416451Y843063D01*
X3419127Y842184D01*
X3421681Y840999D01*
X3424079Y839524D01*
X3426289Y837779D01*
X3428280Y835788D01*
X3430025Y833578D01*
X3431501Y831180D01*
X3432686Y828625D01*
X3433564Y825950D01*
X3434125Y823191D01*
X3434265Y821726D01*
X3434279Y821617D01*
Y821284D02*
Y821617D01*
Y821284D02*
X3434291Y821096D01*
X3434309Y820722D01*
X3434320Y820346D01*
X3434326Y819971D01*
Y819783D02*
Y819971D01*
Y819596D02*
Y819783D01*
X3434320Y819221D02*
X3434326Y819596D01*
X3434309Y818845D02*
X3434320Y819221D01*
X3434291Y818471D02*
X3434309Y818845D01*
X3434279Y818283D02*
X3434291Y818471D01*
X3434275Y20902D02*
X3434279Y818283D01*
X3434247Y20804D02*
X3434275Y20902D01*
X3434158Y19278D02*
X3434247Y20804D01*
X3433611Y16270D02*
X3434158Y19278D01*
X3432705Y13350D02*
X3433611Y16270D01*
X3431453Y10560D02*
X3432705Y13350D01*
X3429873Y7943D02*
X3431453Y10560D01*
X3427988Y5536D02*
X3429873Y7943D01*
X3425826Y3374D02*
X3427988Y5536D01*
X3423419Y1489D02*
X3425826Y3374D01*
X3420801Y-91D02*
X3423419Y1489D01*
X3418012Y-1343D02*
X3420801Y-91D01*
X3415092Y-2249D02*
X3418012Y-1343D01*
X3412084Y-2796D02*
X3415092Y-2249D01*
X3410500Y-2905D02*
X3412084Y-2796D01*
X3410398Y-2918D02*
X3410500Y-2905D01*
X3409831Y-2918D02*
X3410398D01*
X3409644Y-2923D02*
X3409831Y-2918D01*
X3409269Y-2929D02*
X3409644Y-2923D01*
X3408894Y-2929D02*
X3409269D01*
X3408519Y-2923D02*
X3408894Y-2929D01*
X3408332Y-2918D02*
X3408519Y-2923D01*
X2302460Y-2918D02*
X3408332D01*
X2301084D02*
X2302460D01*
X2298356Y-2558D02*
X2301084Y-2918D01*
X2295698Y-1846D02*
X2298356Y-2558D01*
X2293156Y-793D02*
X2295698Y-1846D01*
X2290774Y582D02*
X2293156Y-793D01*
X2288591Y2257D02*
X2290774Y582D01*
X2286645Y4203D02*
X2288591Y2257D01*
X2284971Y6385D02*
X2286645Y4203D01*
X2283595Y8768D02*
X2284971Y6385D01*
X2282542Y11310D02*
X2283595Y8768D01*
X2281830Y13968D02*
X2282542Y11310D01*
X2281471Y16696D02*
X2281830Y13968D01*
X2281471Y16696D02*
Y18103D01*
D11*
X-10010Y2070540D02*
X914990D01*
Y1895540D02*
Y2070540D01*
X-10010Y1995540D02*
X914990D01*
X739990D02*
Y2070540D01*
X389990Y1895540D02*
Y1995540D01*
X-10010Y1895540D02*
Y2070540D01*
Y1895540D02*
X914990D01*
X-10010Y1796290D02*
Y1896290D01*
X914990Y1796290D02*
Y1896290D01*
X-10010Y1795540D02*
X914990D01*
X130192Y1984229D02*
X127653Y1986768D01*
X122574D01*
X120035Y1984229D01*
Y1974072D01*
X122574Y1971533D01*
X127653D01*
X130192Y1974072D01*
X137809Y1971533D02*
X142888D01*
X145427Y1974072D01*
Y1979150D01*
X142888Y1981690D01*
X137809D01*
X135270Y1979150D01*
Y1974072D01*
X137809Y1971533D01*
X150505Y1966454D02*
Y1981690D01*
X158123D01*
X160662Y1979150D01*
Y1974072D01*
X158123Y1971533D01*
X150505D01*
X165740Y1981690D02*
Y1974072D01*
X168279Y1971533D01*
X175897D01*
Y1968994D01*
X173358Y1966454D01*
X170819D01*
X175897Y1971533D02*
Y1981690D01*
X180975D02*
Y1971533D01*
Y1976611D01*
X183515Y1979150D01*
X186054Y1981690D01*
X188593D01*
X196210Y1971533D02*
X201289D01*
X198750D01*
Y1981690D01*
X196210D01*
X213985Y1966454D02*
X216524D01*
X219063Y1968994D01*
Y1981690D01*
X211446D01*
X208906Y1979150D01*
Y1974072D01*
X211446Y1971533D01*
X219063D01*
X224142Y1986768D02*
Y1971533D01*
Y1979150D01*
X226681Y1981690D01*
X231759D01*
X234298Y1979150D01*
Y1971533D01*
X241916Y1984229D02*
Y1981690D01*
X239377D01*
X244455D01*
X241916D01*
Y1974072D01*
X244455Y1971533D01*
X46399Y1957312D02*
Y1942076D01*
X54016D01*
X56556Y1944616D01*
Y1947155D01*
X54016Y1949694D01*
X46399D01*
X54016D01*
X56556Y1952233D01*
Y1954772D01*
X54016Y1957312D01*
X46399D01*
X64173Y1942076D02*
X69252D01*
X71791Y1944616D01*
Y1949694D01*
X69252Y1952233D01*
X64173D01*
X61634Y1949694D01*
Y1944616D01*
X64173Y1942076D01*
X81947Y1936998D02*
X84487D01*
X87026Y1939537D01*
Y1952233D01*
X79408D01*
X76869Y1949694D01*
Y1944616D01*
X79408Y1942076D01*
X87026D01*
X94643Y1952233D02*
X99722D01*
X102261Y1949694D01*
Y1942076D01*
X94643D01*
X92104Y1944616D01*
X94643Y1947155D01*
X102261D01*
X107339Y1952233D02*
X117496D01*
X107339Y1942076D01*
X117496D01*
X122574D02*
X127653D01*
X125113D01*
Y1952233D01*
X122574D01*
X145427D02*
X137809D01*
X135270Y1949694D01*
Y1944616D01*
X137809Y1942076D01*
X145427D01*
X150505D02*
X155584D01*
X153045D01*
Y1952233D01*
X150505D01*
X178436Y1957312D02*
Y1944616D01*
X180975Y1942076D01*
X186054D01*
X188593Y1944616D01*
Y1957312D01*
X193671Y1942076D02*
Y1952233D01*
X201289D01*
X203828Y1949694D01*
Y1942076D01*
X208906D02*
X213985D01*
X211446D01*
Y1952233D01*
X208906D01*
X221602D02*
X226681Y1942076D01*
X231759Y1952233D01*
X244455Y1942076D02*
X239377D01*
X236837Y1944616D01*
Y1949694D01*
X239377Y1952233D01*
X244455D01*
X246994Y1949694D01*
Y1947155D01*
X236837D01*
X252072Y1952233D02*
Y1942076D01*
Y1947155D01*
X254612Y1949694D01*
X257151Y1952233D01*
X259690D01*
X267307Y1942076D02*
X274925D01*
X277464Y1944616D01*
X274925Y1947155D01*
X269847D01*
X267307Y1949694D01*
X269847Y1952233D01*
X277464D01*
X282543Y1942076D02*
X287621D01*
X285082D01*
Y1952233D01*
X282543D01*
X297778Y1954772D02*
Y1952233D01*
X295238D01*
X300317D01*
X297778D01*
Y1944616D01*
X300317Y1942076D01*
X307934Y1952233D02*
Y1944616D01*
X310473Y1942076D01*
X318091D01*
Y1939537D01*
X315552Y1936998D01*
X313013D01*
X318091Y1942076D02*
Y1952233D01*
X165740Y1912620D02*
X155584D01*
X165740Y1922777D01*
Y1925316D01*
X163201Y1927855D01*
X158123D01*
X155584Y1925316D01*
X170819D02*
X173358Y1927855D01*
X178436D01*
X180975Y1925316D01*
Y1915159D01*
X178436Y1912620D01*
X173358D01*
X170819Y1915159D01*
Y1925316D01*
X186054Y1912620D02*
X191132D01*
X188593D01*
Y1927855D01*
X186054Y1925316D01*
X198750D02*
X201289Y1927855D01*
X206367D01*
X208906Y1925316D01*
Y1922777D01*
X206367Y1920237D01*
X208906Y1917698D01*
Y1915159D01*
X206367Y1912620D01*
X201289D01*
X198750Y1915159D01*
Y1917698D01*
X201289Y1920237D01*
X198750Y1922777D01*
Y1925316D01*
X201289Y1920237D02*
X206367D01*
X2257507Y1498035D02*
X2252428Y1495496D01*
X2247350Y1490417D01*
Y1485339D01*
X2249889Y1482800D01*
X2254967D01*
X2257507Y1485339D01*
Y1487878D01*
X2254967Y1490417D01*
X2247350D01*
X2262585Y1482800D02*
Y1485339D01*
X2265124D01*
Y1482800D01*
X2262585D01*
X2300673Y1495496D02*
X2298134Y1498035D01*
X2293055D01*
X2290516Y1495496D01*
Y1485339D01*
X2293055Y1482800D01*
X2298134D01*
X2300673Y1485339D01*
X2313369Y1498035D02*
X2308290D01*
X2305751Y1495496D01*
Y1485339D01*
X2308290Y1482800D01*
X2313369D01*
X2315908Y1485339D01*
Y1495496D01*
X2313369Y1498035D01*
X2320986Y1482800D02*
Y1498035D01*
X2326064Y1492957D01*
X2331143Y1498035D01*
Y1482800D01*
X2336221D02*
Y1498035D01*
X2343839D01*
X2346378Y1495496D01*
Y1490417D01*
X2343839Y1487878D01*
X2336221D01*
X2359074Y1498035D02*
X2353996D01*
X2351456Y1495496D01*
Y1485339D01*
X2353996Y1482800D01*
X2359074D01*
X2361613Y1485339D01*
Y1495496D01*
X2359074Y1498035D01*
X2366691Y1482800D02*
Y1498035D01*
X2376848Y1482800D01*
Y1498035D01*
X2392083D02*
X2381927D01*
Y1482800D01*
X2392083D01*
X2381927Y1490417D02*
X2387005D01*
X2397162Y1482800D02*
Y1498035D01*
X2407318Y1482800D01*
Y1498035D01*
X2412397D02*
X2422553D01*
X2417475D01*
Y1482800D01*
X2442867Y1498035D02*
X2447945D01*
X2445406D01*
Y1482800D01*
X2442867D01*
X2447945D01*
X2455563Y1498035D02*
Y1482800D01*
X2463180D01*
X2465719Y1485339D01*
Y1495496D01*
X2463180Y1498035D01*
X2455563D01*
X2480954D02*
X2470798D01*
Y1482800D01*
X2480954D01*
X2470798Y1490417D02*
X2475876D01*
X2486033Y1482800D02*
Y1498035D01*
X2496190Y1482800D01*
Y1498035D01*
X2501268D02*
X2511425D01*
X2506346D01*
Y1482800D01*
X2516503Y1492957D02*
X2519042D01*
Y1490417D01*
X2516503D01*
Y1492957D01*
Y1485339D02*
X2519042D01*
Y1482800D01*
X2516503D01*
Y1485339D01*
X2554591Y1495496D02*
X2552051Y1498035D01*
X2546973D01*
X2544434Y1495496D01*
Y1485339D01*
X2546973Y1482800D01*
X2552051D01*
X2554591Y1485339D01*
X2567286Y1498035D02*
X2562208D01*
X2559669Y1495496D01*
Y1485339D01*
X2562208Y1482800D01*
X2567286D01*
X2569826Y1485339D01*
Y1495496D01*
X2567286Y1498035D01*
X2574904D02*
Y1482800D01*
X2585061D01*
X2597757Y1498035D02*
X2592678D01*
X2590139Y1495496D01*
Y1485339D01*
X2592678Y1482800D01*
X2597757D01*
X2600296Y1485339D01*
Y1495496D01*
X2597757Y1498035D01*
X2605374D02*
Y1485339D01*
X2607914Y1482800D01*
X2612992D01*
X2615531Y1485339D01*
Y1498035D01*
X2620609Y1482800D02*
Y1498035D01*
X2628227D01*
X2630766Y1495496D01*
Y1490417D01*
X2628227Y1487878D01*
X2620609D01*
X2625688D02*
X2630766Y1482800D01*
X2651079Y1498035D02*
X2661236D01*
X2656158D01*
Y1482800D01*
X2673932Y1498035D02*
X2668854D01*
X2666314Y1495496D01*
Y1485339D01*
X2668854Y1482800D01*
X2673932D01*
X2676471Y1485339D01*
Y1495496D01*
X2673932Y1498035D01*
X2696785D02*
Y1482800D01*
X2704402D01*
X2706941Y1485339D01*
Y1487878D01*
X2704402Y1490417D01*
X2696785D01*
X2704402D01*
X2706941Y1492957D01*
Y1495496D01*
X2704402Y1498035D01*
X2696785D01*
X2722177D02*
X2712020D01*
Y1482800D01*
X2722177D01*
X2712020Y1490417D02*
X2717098D01*
X2742490Y1498035D02*
Y1482800D01*
X2747568Y1487878D01*
X2752646Y1482800D01*
Y1498035D01*
X2757725D02*
Y1482800D01*
Y1490417D01*
X2767881D01*
Y1498035D01*
Y1482800D01*
X2772960Y1498035D02*
X2778038D01*
X2775499D01*
Y1482800D01*
X2772960D01*
X2778038D01*
X2785656Y1498035D02*
X2795813D01*
X2790734D01*
Y1482800D01*
X2811048Y1498035D02*
X2800891D01*
Y1482800D01*
X2811048D01*
X2800891Y1490417D02*
X2805969D01*
X2257507Y1548035D02*
X2247350D01*
Y1540417D01*
X2252428Y1542957D01*
X2254967D01*
X2257507Y1540417D01*
Y1535339D01*
X2254967Y1532800D01*
X2249889D01*
X2247350Y1535339D01*
X2262585Y1532800D02*
Y1535339D01*
X2265124D01*
Y1532800D01*
X2262585D01*
X2300673Y1545496D02*
X2298134Y1548035D01*
X2293055D01*
X2290516Y1545496D01*
Y1542957D01*
X2293055Y1540417D01*
X2298134D01*
X2300673Y1537878D01*
Y1535339D01*
X2298134Y1532800D01*
X2293055D01*
X2290516Y1535339D01*
X2313369Y1548035D02*
X2308290D01*
X2305751Y1545496D01*
Y1535339D01*
X2308290Y1532800D01*
X2313369D01*
X2315908Y1535339D01*
Y1545496D01*
X2313369Y1548035D01*
X2320986D02*
Y1532800D01*
X2331143D01*
X2336221Y1548035D02*
Y1532800D01*
X2343839D01*
X2346378Y1535339D01*
Y1545496D01*
X2343839Y1548035D01*
X2336221D01*
X2361613D02*
X2351456D01*
Y1532800D01*
X2361613D01*
X2351456Y1540417D02*
X2356535D01*
X2366691Y1532800D02*
Y1548035D01*
X2374309D01*
X2376848Y1545496D01*
Y1540417D01*
X2374309Y1537878D01*
X2366691D01*
X2371770D02*
X2376848Y1532800D01*
X2397162D02*
Y1548035D01*
X2404779D01*
X2407318Y1545496D01*
Y1540417D01*
X2404779Y1537878D01*
X2397162D01*
X2402240D02*
X2407318Y1532800D01*
X2422553Y1548035D02*
X2412397D01*
Y1532800D01*
X2422553D01*
X2412397Y1540417D02*
X2417475D01*
X2437788Y1545496D02*
X2435249Y1548035D01*
X2430171D01*
X2427632Y1545496D01*
Y1542957D01*
X2430171Y1540417D01*
X2435249D01*
X2437788Y1537878D01*
Y1535339D01*
X2435249Y1532800D01*
X2430171D01*
X2427632Y1535339D01*
X2442867Y1548035D02*
X2447945D01*
X2445406D01*
Y1532800D01*
X2442867D01*
X2447945D01*
X2465719Y1545496D02*
X2463180Y1548035D01*
X2458102D01*
X2455563Y1545496D01*
Y1542957D01*
X2458102Y1540417D01*
X2463180D01*
X2465719Y1537878D01*
Y1535339D01*
X2463180Y1532800D01*
X2458102D01*
X2455563Y1535339D01*
X2470798Y1548035D02*
X2480954D01*
X2475876D01*
Y1532800D01*
X2486033Y1542957D02*
X2488572D01*
Y1540417D01*
X2486033D01*
Y1542957D01*
Y1535339D02*
X2488572D01*
Y1532800D01*
X2486033D01*
Y1535339D01*
X2513964Y1532800D02*
Y1542957D01*
X2519042Y1548035D01*
X2524120Y1542957D01*
Y1532800D01*
Y1540417D01*
X2513964D01*
X2529199Y1532800D02*
Y1548035D01*
X2536816D01*
X2539356Y1545496D01*
Y1540417D01*
X2536816Y1537878D01*
X2529199D01*
X2544434Y1532800D02*
Y1548035D01*
X2552051D01*
X2554591Y1545496D01*
Y1540417D01*
X2552051Y1537878D01*
X2544434D01*
X2559669Y1548035D02*
Y1532800D01*
X2569826D01*
X2574904Y1548035D02*
Y1545496D01*
X2579982Y1540417D01*
X2585061Y1545496D01*
Y1548035D01*
X2579982Y1540417D02*
Y1532800D01*
X2605374Y1548035D02*
X2615531D01*
X2610453D01*
Y1532800D01*
X2628227Y1548035D02*
X2623148D01*
X2620609Y1545496D01*
Y1535339D01*
X2623148Y1532800D01*
X2628227D01*
X2630766Y1535339D01*
Y1545496D01*
X2628227Y1548035D01*
X2651079D02*
Y1532800D01*
X2658697D01*
X2661236Y1535339D01*
Y1537878D01*
X2658697Y1540417D01*
X2651079D01*
X2658697D01*
X2661236Y1542957D01*
Y1545496D01*
X2658697Y1548035D01*
X2651079D01*
X2673932D02*
X2668854D01*
X2666314Y1545496D01*
Y1535339D01*
X2668854Y1532800D01*
X2673932D01*
X2676471Y1535339D01*
Y1545496D01*
X2673932Y1548035D01*
X2681550D02*
X2691706D01*
X2686628D01*
Y1532800D01*
X2696785Y1548035D02*
Y1532800D01*
Y1540417D01*
X2706941D01*
Y1548035D01*
Y1532800D01*
X2737411Y1545496D02*
X2734872Y1548035D01*
X2729794D01*
X2727255Y1545496D01*
Y1542957D01*
X2729794Y1540417D01*
X2734872D01*
X2737411Y1537878D01*
Y1535339D01*
X2734872Y1532800D01*
X2729794D01*
X2727255Y1535339D01*
X2742490Y1548035D02*
X2747568D01*
X2745029D01*
Y1532800D01*
X2742490D01*
X2747568D01*
X2755186Y1548035D02*
Y1532800D01*
X2762803D01*
X2765342Y1535339D01*
Y1545496D01*
X2762803Y1548035D01*
X2755186D01*
X2780577D02*
X2770421D01*
Y1532800D01*
X2780577D01*
X2770421Y1540417D02*
X2775499D01*
X2795813Y1545496D02*
X2793273Y1548035D01*
X2788195D01*
X2785656Y1545496D01*
Y1542957D01*
X2788195Y1540417D01*
X2793273D01*
X2795813Y1537878D01*
Y1535339D01*
X2793273Y1532800D01*
X2788195D01*
X2785656Y1535339D01*
X2826283Y1545496D02*
X2823744Y1548035D01*
X2818665D01*
X2816126Y1545496D01*
Y1535339D01*
X2818665Y1532800D01*
X2823744D01*
X2826283Y1535339D01*
X2838979Y1548035D02*
X2833900D01*
X2831361Y1545496D01*
Y1535339D01*
X2833900Y1532800D01*
X2838979D01*
X2841518Y1535339D01*
Y1545496D01*
X2838979Y1548035D01*
X2846596D02*
Y1532800D01*
X2856753D01*
X2869449Y1548035D02*
X2864370D01*
X2861831Y1545496D01*
Y1535339D01*
X2864370Y1532800D01*
X2869449D01*
X2871988Y1535339D01*
Y1545496D01*
X2869449Y1548035D01*
X2877066D02*
Y1535339D01*
X2879605Y1532800D01*
X2884684D01*
X2887223Y1535339D01*
Y1548035D01*
X2892301Y1532800D02*
Y1548035D01*
X2899919D01*
X2902458Y1545496D01*
Y1540417D01*
X2899919Y1537878D01*
X2892301D01*
X2897380D02*
X2902458Y1532800D01*
X2922772Y1540417D02*
X2932928D01*
X2953242Y1548035D02*
Y1532800D01*
X2960859D01*
X2963398Y1535339D01*
Y1537878D01*
X2960859Y1540417D01*
X2953242D01*
X2960859D01*
X2963398Y1542957D01*
Y1545496D01*
X2960859Y1548035D01*
X2953242D01*
X2968477D02*
Y1532800D01*
X2978633D01*
X2983712Y1548035D02*
Y1535339D01*
X2986251Y1532800D01*
X2991329D01*
X2993868Y1535339D01*
Y1548035D01*
X3009104D02*
X2998947D01*
Y1532800D01*
X3009104D01*
X2998947Y1540417D02*
X3004025D01*
X2254967Y1582800D02*
Y1598035D01*
X2247350Y1590417D01*
X2257507D01*
X2262585Y1582800D02*
Y1585339D01*
X2265124D01*
Y1582800D01*
X2262585D01*
X2290516Y1598035D02*
Y1582800D01*
X2298134D01*
X2300673Y1585339D01*
Y1587878D01*
X2298134Y1590417D01*
X2290516D01*
X2298134D01*
X2300673Y1592957D01*
Y1595496D01*
X2298134Y1598035D01*
X2290516D01*
X2313369D02*
X2308290D01*
X2305751Y1595496D01*
Y1585339D01*
X2308290Y1582800D01*
X2313369D01*
X2315908Y1585339D01*
Y1595496D01*
X2313369Y1598035D01*
X2320986Y1582800D02*
Y1592957D01*
X2326064Y1598035D01*
X2331143Y1592957D01*
Y1582800D01*
Y1590417D01*
X2320986D01*
X2336221Y1582800D02*
Y1598035D01*
X2343839D01*
X2346378Y1595496D01*
Y1590417D01*
X2343839Y1587878D01*
X2336221D01*
X2341300D02*
X2346378Y1582800D01*
X2351456Y1598035D02*
Y1582800D01*
X2359074D01*
X2361613Y1585339D01*
Y1595496D01*
X2359074Y1598035D01*
X2351456D01*
X2392083D02*
X2381927D01*
Y1590417D01*
X2387005D01*
X2381927D01*
Y1582800D01*
X2397162Y1598035D02*
X2402240D01*
X2399701D01*
Y1582800D01*
X2397162D01*
X2402240D01*
X2409857D02*
Y1598035D01*
X2420014Y1582800D01*
Y1598035D01*
X2425092D02*
X2430171D01*
X2427632D01*
Y1582800D01*
X2425092D01*
X2430171D01*
X2447945Y1595496D02*
X2445406Y1598035D01*
X2440328D01*
X2437788Y1595496D01*
Y1592957D01*
X2440328Y1590417D01*
X2445406D01*
X2447945Y1587878D01*
Y1585339D01*
X2445406Y1582800D01*
X2440328D01*
X2437788Y1585339D01*
X2453024Y1598035D02*
Y1582800D01*
Y1590417D01*
X2463180D01*
Y1598035D01*
Y1582800D01*
X2468259Y1592957D02*
X2470798D01*
Y1590417D01*
X2468259D01*
Y1592957D01*
Y1585339D02*
X2470798D01*
Y1582800D01*
X2468259D01*
Y1585339D01*
X2496190Y1598035D02*
X2501268D01*
X2498729D01*
Y1582800D01*
X2496190D01*
X2501268D01*
X2508885D02*
Y1598035D01*
X2513964Y1592957D01*
X2519042Y1598035D01*
Y1582800D01*
X2524120D02*
Y1598035D01*
X2529199Y1592957D01*
X2534277Y1598035D01*
Y1582800D01*
X2549512Y1598035D02*
X2539355D01*
Y1582800D01*
X2549512D01*
X2539355Y1590417D02*
X2544434D01*
X2554591Y1582800D02*
Y1598035D01*
X2562208D01*
X2564747Y1595496D01*
Y1590417D01*
X2562208Y1587878D01*
X2554591D01*
X2559669D02*
X2564747Y1582800D01*
X2579982Y1595496D02*
X2577443Y1598035D01*
X2572365D01*
X2569826Y1595496D01*
Y1592957D01*
X2572365Y1590417D01*
X2577443D01*
X2579982Y1587878D01*
Y1585339D01*
X2577443Y1582800D01*
X2572365D01*
X2569826Y1585339D01*
X2585061Y1598035D02*
X2590139D01*
X2587600D01*
Y1582800D01*
X2585061D01*
X2590139D01*
X2605374Y1598035D02*
X2600296D01*
X2597757Y1595496D01*
Y1585339D01*
X2600296Y1582800D01*
X2605374D01*
X2607914Y1585339D01*
Y1595496D01*
X2605374Y1598035D01*
X2612992Y1582800D02*
Y1598035D01*
X2623148Y1582800D01*
Y1598035D01*
X2643462Y1582800D02*
Y1592957D01*
X2648540Y1598035D01*
X2653618Y1592957D01*
Y1582800D01*
Y1590417D01*
X2643462D01*
X2658697Y1592957D02*
Y1585339D01*
X2661236Y1582800D01*
X2668853D01*
Y1592957D01*
X2673932Y1582800D02*
X2684089Y1592957D01*
X2699324Y1598035D02*
X2689167D01*
Y1582800D01*
X2699324D01*
X2689167Y1590417D02*
X2694245D01*
X2704402Y1598035D02*
Y1582800D01*
X2714559D01*
X2729794Y1598035D02*
X2719637D01*
Y1582800D01*
X2729794D01*
X2719637Y1590417D02*
X2724716D01*
X2745029Y1595496D02*
X2742490Y1598035D01*
X2737411D01*
X2734872Y1595496D01*
Y1585339D01*
X2737411Y1582800D01*
X2742490D01*
X2745029Y1585339D01*
X2750107Y1598035D02*
X2760264D01*
X2755186D01*
Y1582800D01*
X2765342D02*
Y1598035D01*
X2772960D01*
X2775499Y1595496D01*
Y1590417D01*
X2772960Y1587878D01*
X2765342D01*
X2770421D02*
X2775499Y1582800D01*
X2788195Y1598035D02*
X2783117D01*
X2780577Y1595496D01*
Y1585339D01*
X2783117Y1582800D01*
X2788195D01*
X2790734Y1585339D01*
Y1595496D01*
X2788195Y1598035D01*
X2795813D02*
Y1582800D01*
X2805969D01*
X2821205Y1598035D02*
X2811048D01*
Y1582800D01*
X2821205D01*
X2811048Y1590417D02*
X2816126D01*
X2836440Y1595496D02*
X2833900Y1598035D01*
X2828822D01*
X2826283Y1595496D01*
Y1592957D01*
X2828822Y1590417D01*
X2833900D01*
X2836440Y1587878D01*
Y1585339D01*
X2833900Y1582800D01*
X2828822D01*
X2826283Y1585339D01*
X2851674Y1595496D02*
X2849135Y1598035D01*
X2844057D01*
X2841518Y1595496D01*
Y1592957D01*
X2844057Y1590417D01*
X2849135D01*
X2851674Y1587878D01*
Y1585339D01*
X2849135Y1582800D01*
X2844057D01*
X2841518Y1585339D01*
X2871988Y1582800D02*
Y1598035D01*
X2882145Y1582800D01*
Y1598035D01*
X2887223Y1582800D02*
X2892301D01*
X2889762D01*
Y1592957D01*
X2887223D01*
X2899919Y1590417D02*
Y1592957D01*
X2902458D01*
Y1590417D01*
X2899919D01*
Y1585339D02*
X2902458D01*
Y1582800D01*
X2899919Y1580261D01*
X2902458Y1582800D02*
X2899919D01*
Y1585339D01*
X2927850Y1595496D02*
X2930389Y1598035D01*
X2935468D01*
X2938007Y1595496D01*
Y1585339D01*
X2935468Y1582800D01*
X2930389D01*
X2927850Y1585339D01*
Y1595496D01*
X2943085Y1582800D02*
Y1585339D01*
X2945624D01*
Y1582800D01*
X2943085D01*
X2955781Y1595496D02*
X2958320Y1598035D01*
X2963398D01*
X2965938Y1595496D01*
Y1585339D01*
X2963398Y1582800D01*
X2958320D01*
X2955781Y1585339D01*
Y1595496D01*
X2981172Y1598035D02*
X2971016D01*
Y1590417D01*
X2976094Y1592957D01*
X2978633D01*
X2981172Y1590417D01*
Y1585339D01*
X2978633Y1582800D01*
X2973555D01*
X2971016Y1585339D01*
X2986251Y1590417D02*
X2996408D01*
X3001486Y1595496D02*
X3004025Y1598035D01*
X3009104D01*
X3011643Y1595496D01*
Y1585339D01*
X3009104Y1582800D01*
X3004025D01*
X3001486Y1585339D01*
Y1595496D01*
X3016721Y1582800D02*
Y1585339D01*
X3019260D01*
Y1582800D01*
X3016721D01*
X3029417D02*
X3034495D01*
X3031956D01*
Y1598035D01*
X3029417Y1595496D01*
X3052270Y1582800D02*
X3042113D01*
X3052270Y1592957D01*
Y1595496D01*
X3049731Y1598035D01*
X3044652D01*
X3042113Y1595496D01*
X3072583Y1592957D02*
Y1585339D01*
X3075122Y1582800D01*
X3082740D01*
Y1592957D01*
X3087818Y1582800D02*
Y1592957D01*
X3090357D01*
X3092896Y1590417D01*
Y1582800D01*
Y1590417D01*
X3095435Y1592957D01*
X3097975Y1590417D01*
Y1582800D01*
X3128445Y1595496D02*
X3125906Y1598035D01*
X3120827D01*
X3118288Y1595496D01*
Y1585339D01*
X3120827Y1582800D01*
X3125906D01*
X3128445Y1585339D01*
Y1590417D01*
X3123367D01*
X3141141Y1598035D02*
X3136063D01*
X3133523Y1595496D01*
Y1585339D01*
X3136063Y1582800D01*
X3141141D01*
X3143680Y1585339D01*
Y1595496D01*
X3141141Y1598035D01*
X3148759D02*
Y1582800D01*
X3158915D01*
X3163994Y1598035D02*
Y1582800D01*
X3171611D01*
X3174150Y1585339D01*
Y1595496D01*
X3171611Y1598035D01*
X3163994D01*
X3179229Y1590417D02*
Y1592957D01*
X3181768D01*
Y1590417D01*
X3179229D01*
Y1585339D02*
X3181768D01*
Y1582800D01*
X3179229Y1580261D01*
X3181768Y1582800D02*
X3179229D01*
Y1585339D01*
X3207159Y1595496D02*
X3209699Y1598035D01*
X3214777D01*
X3217316Y1595496D01*
Y1592957D01*
X3214777Y1590417D01*
X3212238D01*
X3214777D01*
X3217316Y1587878D01*
Y1585339D01*
X3214777Y1582800D01*
X3209699D01*
X3207159Y1585339D01*
X3222394Y1590417D02*
X3232551D01*
X3247786Y1598035D02*
X3242708Y1595496D01*
X3237630Y1590417D01*
Y1585339D01*
X3240169Y1582800D01*
X3245247D01*
X3247786Y1585339D01*
Y1587878D01*
X3245247Y1590417D01*
X3237630D01*
X3252865Y1592957D02*
Y1585339D01*
X3255404Y1582800D01*
X3263022D01*
Y1592957D01*
X3268100Y1582800D02*
Y1592957D01*
X3270639D01*
X3273178Y1590417D01*
Y1582800D01*
Y1590417D01*
X3275717Y1592957D01*
X3278257Y1590417D01*
Y1582800D01*
X3298570D02*
Y1598035D01*
X3308727Y1582800D01*
Y1598035D01*
X3313805D02*
X3318883D01*
X3316344D01*
Y1582800D01*
X3313805D01*
X3318883D01*
X3336658Y1595496D02*
X3334118Y1598035D01*
X3329040D01*
X3326501Y1595496D01*
Y1585339D01*
X3329040Y1582800D01*
X3334118D01*
X3336658Y1585339D01*
X3341736Y1598035D02*
Y1582800D01*
Y1587878D01*
X3351893Y1598035D01*
X3344275Y1590417D01*
X3351893Y1582800D01*
X3367128Y1598035D02*
X3356971D01*
Y1582800D01*
X3367128D01*
X3356971Y1590417D02*
X3362049D01*
X3372206Y1598035D02*
Y1582800D01*
X3382363D01*
X2247350Y1645496D02*
X2249889Y1648035D01*
X2254967D01*
X2257507Y1645496D01*
Y1642957D01*
X2254967Y1640417D01*
X2252428D01*
X2254967D01*
X2257507Y1637878D01*
Y1635339D01*
X2254967Y1632800D01*
X2249889D01*
X2247350Y1635339D01*
X2262585Y1632800D02*
Y1635339D01*
X2265124D01*
Y1632800D01*
X2262585D01*
X2300673Y1648035D02*
X2290516D01*
Y1640417D01*
X2295594D01*
X2290516D01*
Y1632800D01*
X2305751Y1648035D02*
X2310829D01*
X2308290D01*
Y1632800D01*
X2305751D01*
X2310829D01*
X2318447D02*
Y1648035D01*
X2328604Y1632800D01*
Y1648035D01*
X2333682D02*
X2338760D01*
X2336221D01*
Y1632800D01*
X2333682D01*
X2338760D01*
X2356535Y1645496D02*
X2353996Y1648035D01*
X2348917D01*
X2346378Y1645496D01*
Y1642957D01*
X2348917Y1640417D01*
X2353996D01*
X2356535Y1637878D01*
Y1635339D01*
X2353996Y1632800D01*
X2348917D01*
X2346378Y1635339D01*
X2361613Y1648035D02*
Y1632800D01*
Y1640417D01*
X2371770D01*
Y1648035D01*
Y1632800D01*
X2387005Y1648035D02*
X2376848D01*
Y1632800D01*
X2387005D01*
X2376848Y1640417D02*
X2381927D01*
X2392083Y1648035D02*
Y1632800D01*
X2399701D01*
X2402240Y1635339D01*
Y1645496D01*
X2399701Y1648035D01*
X2392083D01*
X2422553Y1632800D02*
Y1648035D01*
X2430171D01*
X2432710Y1645496D01*
Y1640417D01*
X2430171Y1637878D01*
X2422553D01*
X2437788Y1632800D02*
Y1642957D01*
X2442867Y1648035D01*
X2447945Y1642957D01*
Y1632800D01*
Y1640417D01*
X2437788D01*
X2453024Y1632800D02*
Y1648035D01*
X2463180Y1632800D01*
Y1648035D01*
X2478415D02*
X2468259D01*
Y1632800D01*
X2478415D01*
X2468259Y1640417D02*
X2473337D01*
X2483494Y1648035D02*
Y1632800D01*
X2493650D01*
X2513964Y1648035D02*
X2524120D01*
X2519042D01*
Y1632800D01*
X2529199Y1648035D02*
Y1632800D01*
Y1640417D01*
X2539356D01*
Y1648035D01*
Y1632800D01*
X2544434Y1648035D02*
X2549512D01*
X2546973D01*
Y1632800D01*
X2544434D01*
X2549512D01*
X2567286Y1645496D02*
X2564747Y1648035D01*
X2559669D01*
X2557130Y1645496D01*
Y1635339D01*
X2559669Y1632800D01*
X2564747D01*
X2567286Y1635339D01*
X2572365Y1648035D02*
Y1632800D01*
Y1637878D01*
X2582522Y1648035D01*
X2574904Y1640417D01*
X2582522Y1632800D01*
X2587600D02*
Y1648035D01*
X2597757Y1632800D01*
Y1648035D01*
X2612992D02*
X2602835D01*
Y1632800D01*
X2612992D01*
X2602835Y1640417D02*
X2607914D01*
X2628227Y1645496D02*
X2625688Y1648035D01*
X2620609D01*
X2618070Y1645496D01*
Y1642957D01*
X2620609Y1640417D01*
X2625688D01*
X2628227Y1637878D01*
Y1635339D01*
X2625688Y1632800D01*
X2620609D01*
X2618070Y1635339D01*
X2643462Y1645496D02*
X2640923Y1648035D01*
X2635844D01*
X2633305Y1645496D01*
Y1642957D01*
X2635844Y1640417D01*
X2640923D01*
X2643462Y1637878D01*
Y1635339D01*
X2640923Y1632800D01*
X2635844D01*
X2633305Y1635339D01*
X2663775Y1648035D02*
X2668853D01*
X2666314D01*
Y1632800D01*
X2663775D01*
X2668853D01*
X2686628Y1645496D02*
X2684089Y1648035D01*
X2679010D01*
X2676471Y1645496D01*
Y1642957D01*
X2679010Y1640417D01*
X2684089D01*
X2686628Y1637878D01*
Y1635339D01*
X2684089Y1632800D01*
X2679010D01*
X2676471Y1635339D01*
X2706941Y1632800D02*
Y1648035D01*
X2717098Y1632800D01*
Y1648035D01*
X2729794D02*
X2724716D01*
X2722177Y1645496D01*
Y1635339D01*
X2724716Y1632800D01*
X2729794D01*
X2732333Y1635339D01*
Y1645496D01*
X2729794Y1648035D01*
X2737411D02*
X2747568D01*
X2742490D01*
Y1632800D01*
X2778038Y1645496D02*
X2775499Y1648035D01*
X2770421D01*
X2767881Y1645496D01*
Y1635339D01*
X2770421Y1632800D01*
X2775499D01*
X2778038Y1635339D01*
X2783117Y1632800D02*
Y1648035D01*
X2790734D01*
X2793273Y1645496D01*
Y1640417D01*
X2790734Y1637878D01*
X2783117D01*
X2788195D02*
X2793273Y1632800D01*
X2798352Y1648035D02*
X2803430D01*
X2800891D01*
Y1632800D01*
X2798352D01*
X2803430D01*
X2811048Y1648035D02*
X2821205D01*
X2816126D01*
Y1632800D01*
X2826283Y1648035D02*
X2831361D01*
X2828822D01*
Y1632800D01*
X2826283D01*
X2831361D01*
X2849135Y1645496D02*
X2846596Y1648035D01*
X2841518D01*
X2838979Y1645496D01*
Y1635339D01*
X2841518Y1632800D01*
X2846596D01*
X2849135Y1635339D01*
X2854214Y1632800D02*
Y1642957D01*
X2859292Y1648035D01*
X2864370Y1642957D01*
Y1632800D01*
Y1640417D01*
X2854214D01*
X2869449Y1648035D02*
Y1632800D01*
X2879605D01*
X2884684Y1642957D02*
X2887223D01*
Y1640417D01*
X2884684D01*
Y1642957D01*
Y1635339D02*
X2887223D01*
Y1632800D01*
X2884684D01*
Y1635339D01*
X2912615Y1648035D02*
X2922772D01*
X2917693D01*
Y1632800D01*
X2935468Y1648035D02*
X2930389D01*
X2927850Y1645496D01*
Y1635339D01*
X2930389Y1632800D01*
X2935468D01*
X2938007Y1635339D01*
Y1645496D01*
X2935468Y1648035D01*
X2958320D02*
Y1632800D01*
X2965938D01*
X2968477Y1635339D01*
Y1637878D01*
X2965938Y1640417D01*
X2958320D01*
X2965938D01*
X2968477Y1642957D01*
Y1645496D01*
X2965938Y1648035D01*
X2958320D01*
X2983712D02*
X2973555D01*
Y1632800D01*
X2983712D01*
X2973555Y1640417D02*
X2978633D01*
X3004025Y1632800D02*
Y1642957D01*
X3009104Y1648035D01*
X3014182Y1642957D01*
Y1632800D01*
Y1640417D01*
X3004025D01*
X3019260Y1632800D02*
Y1648035D01*
X3026878D01*
X3029417Y1645496D01*
Y1640417D01*
X3026878Y1637878D01*
X3019260D01*
X3034496Y1632800D02*
Y1648035D01*
X3042113D01*
X3044652Y1645496D01*
Y1640417D01*
X3042113Y1637878D01*
X3034496D01*
X3049731Y1632800D02*
Y1648035D01*
X3057348D01*
X3059887Y1645496D01*
Y1640417D01*
X3057348Y1637878D01*
X3049731D01*
X3054809D02*
X3059887Y1632800D01*
X3072583Y1648035D02*
X3067505D01*
X3064966Y1645496D01*
Y1635339D01*
X3067505Y1632800D01*
X3072583D01*
X3075122Y1635339D01*
Y1645496D01*
X3072583Y1648035D01*
X3080201D02*
X3090357Y1632800D01*
Y1648035D02*
X3080201Y1632800D01*
X3095435Y1648035D02*
X3100514D01*
X3097975D01*
Y1632800D01*
X3095435D01*
X3100514D01*
X3108131D02*
Y1648035D01*
X3113210Y1642957D01*
X3118288Y1648035D01*
Y1632800D01*
X3123367D02*
Y1642957D01*
X3128445Y1648035D01*
X3133523Y1642957D01*
Y1632800D01*
Y1640417D01*
X3123367D01*
X3138602Y1648035D02*
X3148759D01*
X3143680D01*
Y1632800D01*
X3163994Y1648035D02*
X3153837D01*
Y1632800D01*
X3163994D01*
X3153837Y1640417D02*
X3158915D01*
X3169072Y1648035D02*
Y1632800D01*
X3179229D01*
X3184307Y1648035D02*
Y1645496D01*
X3189385Y1640417D01*
X3194464Y1645496D01*
Y1648035D01*
X3189385Y1640417D02*
Y1632800D01*
X3214777D02*
X3219855D01*
X3217316D01*
Y1648035D01*
X3214777Y1645496D01*
X3227473Y1632800D02*
Y1635339D01*
X3230012D01*
Y1632800D01*
X3227473D01*
X3250326Y1648035D02*
X3245247Y1645496D01*
X3240169Y1640417D01*
Y1635339D01*
X3242708Y1632800D01*
X3247786D01*
X3250326Y1635339D01*
Y1637878D01*
X3247786Y1640417D01*
X3240169D01*
X3255404Y1632800D02*
Y1642957D01*
X3257943D01*
X3260482Y1640417D01*
Y1632800D01*
Y1640417D01*
X3263022Y1642957D01*
X3265561Y1640417D01*
Y1632800D01*
X3270639D02*
Y1642957D01*
X3273178D01*
X3275717Y1640417D01*
Y1632800D01*
Y1640417D01*
X3278257Y1642957D01*
X3280796Y1640417D01*
Y1632800D01*
X3007507Y1682800D02*
X2997350D01*
X3007507Y1692957D01*
Y1695496D01*
X3004968Y1698035D01*
X2999889D01*
X2997350Y1695496D01*
X3012585D02*
X3015124Y1698035D01*
X3020203D01*
X3022742Y1695496D01*
Y1685339D01*
X3020203Y1682800D01*
X3015124D01*
X3012585Y1685339D01*
Y1695496D01*
X3027820D02*
X3030359Y1698035D01*
X3035438D01*
X3037977Y1695496D01*
Y1685339D01*
X3035438Y1682800D01*
X3030359D01*
X3027820Y1685339D01*
Y1695496D01*
X3007507Y1707800D02*
X2997350D01*
X3007507Y1717957D01*
Y1720496D01*
X3004968Y1723035D01*
X2999889D01*
X2997350Y1720496D01*
X3022742Y1723035D02*
X3012585D01*
Y1715417D01*
X3017663Y1717957D01*
X3020203D01*
X3022742Y1715417D01*
Y1710339D01*
X3020203Y1707800D01*
X3015124D01*
X3012585Y1710339D01*
X3027820Y1720496D02*
X3030359Y1723035D01*
X3035438D01*
X3037977Y1720496D01*
Y1710339D01*
X3035438Y1707800D01*
X3030359D01*
X3027820Y1710339D01*
Y1720496D01*
X2647350Y1698035D02*
Y1682800D01*
X2657507D01*
X2662585Y1695496D02*
X2665124Y1698035D01*
X2670203D01*
X2672742Y1695496D01*
Y1692957D01*
X2670203Y1690417D01*
X2667663D01*
X2670203D01*
X2672742Y1687878D01*
Y1685339D01*
X2670203Y1682800D01*
X2665124D01*
X2662585Y1685339D01*
X2682899Y1682800D02*
X2677820Y1687878D01*
Y1692957D01*
X2682899Y1698035D01*
X2690516D02*
Y1682800D01*
X2700673D01*
X2715908D02*
X2705751D01*
X2715908Y1692957D01*
Y1695496D01*
X2713369Y1698035D01*
X2708290D01*
X2705751Y1695496D01*
X2723525Y1680261D02*
X2726064Y1682800D01*
Y1685339D01*
X2723525D01*
Y1682800D01*
X2726064D01*
X2723525Y1680261D01*
X2720986Y1677722D01*
X2736221Y1698035D02*
Y1682800D01*
X2746378D01*
X2759074D02*
Y1698035D01*
X2751456Y1690417D01*
X2761613D01*
X2766691Y1682800D02*
X2771770Y1687878D01*
Y1692957D01*
X2766691Y1698035D01*
X2647350Y1723035D02*
Y1707800D01*
X2657507D01*
X2662585D02*
X2667663D01*
X2665124D01*
Y1723035D01*
X2662585Y1720496D01*
X2680359Y1707800D02*
X2675281Y1712878D01*
Y1717957D01*
X2680359Y1723035D01*
X2687977D02*
Y1707800D01*
X2698134D01*
X2713369D02*
X2703212D01*
X2713369Y1717957D01*
Y1720496D01*
X2710829Y1723035D01*
X2705751D01*
X2703212Y1720496D01*
X2718447Y1707800D02*
X2723525Y1712878D01*
Y1717957D01*
X2718447Y1723035D01*
X2733682Y1705261D02*
X2736221Y1707800D01*
Y1710339D01*
X2733682D01*
Y1707800D01*
X2736221D01*
X2733682Y1705261D01*
X2731143Y1702722D01*
X2761613Y1723035D02*
Y1707800D01*
X2771770D01*
X2787005Y1723035D02*
X2781926Y1720496D01*
X2776848Y1715417D01*
Y1710339D01*
X2779387Y1707800D01*
X2784466D01*
X2787005Y1710339D01*
Y1712878D01*
X2784466Y1715417D01*
X2776848D01*
X2797162Y1707800D02*
X2792083Y1712878D01*
Y1717957D01*
X2797162Y1723035D01*
X2804779D02*
Y1707800D01*
X2814936D01*
X2830171Y1723035D02*
X2820014D01*
Y1715417D01*
X2825092Y1717957D01*
X2827632D01*
X2830171Y1715417D01*
Y1710339D01*
X2827632Y1707800D01*
X2822553D01*
X2820014Y1710339D01*
X2835249Y1707800D02*
X2840327Y1712878D01*
Y1717957D01*
X2835249Y1723035D01*
X2847945Y1715417D02*
Y1717957D01*
X2850484D01*
Y1715417D01*
X2847945D01*
Y1710339D02*
X2850484D01*
Y1707800D01*
X2847945Y1705261D01*
X2850484Y1707800D02*
X2847945D01*
Y1710339D01*
X2432507Y1698035D02*
X2422350D01*
Y1690417D01*
X2427428Y1692957D01*
X2429967D01*
X2432507Y1690417D01*
Y1685339D01*
X2429967Y1682800D01*
X2424889D01*
X2422350Y1685339D01*
X2447742Y1698035D02*
X2437585D01*
Y1690417D01*
X2442663Y1692957D01*
X2445203D01*
X2447742Y1690417D01*
Y1685339D01*
X2445203Y1682800D01*
X2440124D01*
X2437585Y1685339D01*
X2455359Y1682800D02*
X2460438D01*
X2462977Y1685339D01*
Y1690417D01*
X2460438Y1692957D01*
X2455359D01*
X2452820Y1690417D01*
Y1685339D01*
X2455359Y1682800D01*
X2468055Y1698035D02*
Y1682800D01*
Y1690417D01*
X2470594Y1692957D01*
X2475673D01*
X2478212Y1690417D01*
Y1682800D01*
X2483290D02*
Y1692957D01*
X2485829D01*
X2488369Y1690417D01*
Y1682800D01*
Y1690417D01*
X2490908Y1692957D01*
X2493447Y1690417D01*
Y1682800D01*
X2498525Y1690417D02*
Y1692957D01*
X2501064D01*
Y1690417D01*
X2498525D01*
Y1685339D02*
X2501064D01*
Y1682800D01*
X2498525Y1680261D01*
X2501064Y1682800D02*
X2498525D01*
Y1685339D01*
X2432507Y1723035D02*
X2422350D01*
Y1715417D01*
X2427428Y1717957D01*
X2429967D01*
X2432507Y1715417D01*
Y1710339D01*
X2429967Y1707800D01*
X2424889D01*
X2422350Y1710339D01*
X2447742Y1723035D02*
X2437585D01*
Y1715417D01*
X2442663Y1717957D01*
X2445203D01*
X2447742Y1715417D01*
Y1710339D01*
X2445203Y1707800D01*
X2440124D01*
X2437585Y1710339D01*
X2455359Y1707800D02*
X2460438D01*
X2462977Y1710339D01*
Y1715417D01*
X2460438Y1717957D01*
X2455359D01*
X2452820Y1715417D01*
Y1710339D01*
X2455359Y1707800D01*
X2468055Y1723035D02*
Y1707800D01*
Y1715417D01*
X2470594Y1717957D01*
X2475673D01*
X2478212Y1715417D01*
Y1707800D01*
X2483290D02*
Y1717957D01*
X2485829D01*
X2488369Y1715417D01*
Y1707800D01*
Y1715417D01*
X2490908Y1717957D01*
X2493447Y1715417D01*
Y1707800D01*
X2498525Y1715417D02*
Y1717957D01*
X2501064D01*
Y1715417D01*
X2498525D01*
Y1710339D02*
X2501064D01*
Y1707800D01*
X2498525Y1705261D01*
X2501064Y1707800D02*
X2498525D01*
Y1710339D01*
X2307507Y1695496D02*
X2304967Y1698035D01*
X2299889D01*
X2297350Y1695496D01*
Y1692957D01*
X2299889Y1690417D01*
X2304967D01*
X2307507Y1687878D01*
Y1685339D01*
X2304967Y1682800D01*
X2299889D01*
X2297350Y1685339D01*
X2322742Y1698035D02*
X2312585D01*
Y1682800D01*
X2322742D01*
X2312585Y1690417D02*
X2317663D01*
X2327820D02*
Y1692957D01*
X2330359D01*
Y1690417D01*
X2327820D01*
Y1685339D02*
X2330359D01*
Y1682800D01*
X2327820Y1680261D01*
X2330359Y1682800D02*
X2327820D01*
Y1685339D01*
X2307507Y1720496D02*
X2304967Y1723035D01*
X2299889D01*
X2297350Y1720496D01*
Y1717957D01*
X2299889Y1715417D01*
X2304967D01*
X2307507Y1712878D01*
Y1710339D01*
X2304967Y1707800D01*
X2299889D01*
X2297350Y1710339D01*
X2322742Y1723035D02*
X2312585D01*
Y1707800D01*
X2322742D01*
X2312585Y1715417D02*
X2317663D01*
X2327820D02*
Y1717957D01*
X2330359D01*
Y1715417D01*
X2327820D01*
Y1710339D02*
X2330359D01*
Y1707800D01*
X2327820Y1705261D01*
X2330359Y1707800D02*
X2327820D01*
Y1710339D01*
X3204968Y1782800D02*
Y1798035D01*
X3197350Y1790417D01*
X3207507D01*
X3212585Y1795496D02*
X3215124Y1798035D01*
X3220203D01*
X3222742Y1795496D01*
Y1785339D01*
X3220203Y1782800D01*
X3215124D01*
X3212585Y1785339D01*
Y1795496D01*
X3227820D02*
X3230359Y1798035D01*
X3235438D01*
X3237977Y1795496D01*
Y1785339D01*
X3235438Y1782800D01*
X3230359D01*
X3227820Y1785339D01*
Y1795496D01*
X3007507Y1782800D02*
X2997350D01*
X3007507Y1792957D01*
Y1795496D01*
X3004968Y1798035D01*
X2999889D01*
X2997350Y1795496D01*
X3022742Y1798035D02*
X3012585D01*
Y1790417D01*
X3017663Y1792957D01*
X3020203D01*
X3022742Y1790417D01*
Y1785339D01*
X3020203Y1782800D01*
X3015124D01*
X3012585Y1785339D01*
X3027820Y1795496D02*
X3030359Y1798035D01*
X3035438D01*
X3037977Y1795496D01*
Y1785339D01*
X3035438Y1782800D01*
X3030359D01*
X3027820Y1785339D01*
Y1795496D01*
X2647350Y1798035D02*
Y1782800D01*
X2657507D01*
X2662585D02*
X2667663D01*
X2665124D01*
Y1798035D01*
X2662585Y1795496D01*
X2680359Y1782800D02*
X2675281Y1787878D01*
Y1792957D01*
X2680359Y1798035D01*
X2687977D02*
Y1782800D01*
X2698134D01*
X2713369D02*
X2703212D01*
X2713369Y1792957D01*
Y1795496D01*
X2710829Y1798035D01*
X2705751D01*
X2703212Y1795496D01*
X2718447Y1782800D02*
X2723525Y1787878D01*
Y1792957D01*
X2718447Y1798035D01*
X2733682Y1780261D02*
X2736221Y1782800D01*
Y1785339D01*
X2733682D01*
Y1782800D01*
X2736221D01*
X2733682Y1780261D01*
X2731143Y1777722D01*
X2761613Y1798035D02*
Y1782800D01*
X2771770D01*
X2787005Y1798035D02*
X2781926Y1795496D01*
X2776848Y1790417D01*
Y1785339D01*
X2779387Y1782800D01*
X2784466D01*
X2787005Y1785339D01*
Y1787878D01*
X2784466Y1790417D01*
X2776848D01*
X2797162Y1782800D02*
X2792083Y1787878D01*
Y1792957D01*
X2797162Y1798035D01*
X2804779D02*
Y1782800D01*
X2814936D01*
X2830171Y1798035D02*
X2820014D01*
Y1790417D01*
X2825092Y1792957D01*
X2827632D01*
X2830171Y1790417D01*
Y1785339D01*
X2827632Y1782800D01*
X2822553D01*
X2820014Y1785339D01*
X2835249Y1782800D02*
X2840327Y1787878D01*
Y1792957D01*
X2835249Y1798035D01*
X2847945Y1790417D02*
Y1792957D01*
X2850484D01*
Y1790417D01*
X2847945D01*
Y1785339D02*
X2850484D01*
Y1782800D01*
X2847945Y1780261D01*
X2850484Y1782800D02*
X2847945D01*
Y1785339D01*
X2422350Y1782800D02*
X2427428D01*
X2424889D01*
Y1798035D01*
X2422350Y1795496D01*
X2435046D02*
X2437585Y1798035D01*
X2442663D01*
X2445203Y1795496D01*
Y1785339D01*
X2442663Y1782800D01*
X2437585D01*
X2435046Y1785339D01*
Y1795496D01*
X2450281D02*
X2452820Y1798035D01*
X2457899D01*
X2460438Y1795496D01*
Y1785339D01*
X2457899Y1782800D01*
X2452820D01*
X2450281Y1785339D01*
Y1795496D01*
X2468055Y1782800D02*
X2473134D01*
X2475673Y1785339D01*
Y1790417D01*
X2473134Y1792957D01*
X2468055D01*
X2465516Y1790417D01*
Y1785339D01*
X2468055Y1782800D01*
X2480751Y1798035D02*
Y1782800D01*
Y1790417D01*
X2483290Y1792957D01*
X2488369D01*
X2490908Y1790417D01*
Y1782800D01*
X2495986D02*
Y1792957D01*
X2498525D01*
X2501064Y1790417D01*
Y1782800D01*
Y1790417D01*
X2503604Y1792957D01*
X2506143Y1790417D01*
Y1782800D01*
X2511221Y1790417D02*
Y1792957D01*
X2513760D01*
Y1790417D01*
X2511221D01*
Y1785339D02*
X2513760D01*
Y1782800D01*
X2511221Y1780261D01*
X2513760Y1782800D02*
X2511221D01*
Y1785339D01*
X2297350Y1798035D02*
Y1782800D01*
X2304967D01*
X2307507Y1785339D01*
Y1795496D01*
X2304967Y1798035D01*
X2297350D01*
X2312585D02*
X2317663D01*
X2315124D01*
Y1782800D01*
X2312585D01*
X2317663D01*
X2335438Y1798035D02*
X2325281D01*
Y1790417D01*
X2330359D01*
X2325281D01*
Y1782800D01*
X2350673Y1798035D02*
X2340516D01*
Y1790417D01*
X2345594D01*
X2340516D01*
Y1782800D01*
X2355751Y1790417D02*
Y1792957D01*
X2358290D01*
Y1790417D01*
X2355751D01*
Y1785339D02*
X2358290D01*
Y1782800D01*
X2355751Y1780261D01*
X2358290Y1782800D02*
X2355751D01*
Y1785339D01*
X3207507Y1773035D02*
X3197350D01*
Y1765417D01*
X3202428Y1767957D01*
X3204968D01*
X3207507Y1765417D01*
Y1760339D01*
X3204968Y1757800D01*
X3199889D01*
X3197350Y1760339D01*
X3212585Y1770496D02*
X3215124Y1773035D01*
X3220203D01*
X3222742Y1770496D01*
Y1760339D01*
X3220203Y1757800D01*
X3215124D01*
X3212585Y1760339D01*
Y1770496D01*
X3227820D02*
X3230359Y1773035D01*
X3235438D01*
X3237977Y1770496D01*
Y1760339D01*
X3235438Y1757800D01*
X3230359D01*
X3227820Y1760339D01*
Y1770496D01*
X3007507Y1757800D02*
X2997350D01*
X3007507Y1767957D01*
Y1770496D01*
X3004968Y1773035D01*
X2999889D01*
X2997350Y1770496D01*
X3012585D02*
X3015124Y1773035D01*
X3020203D01*
X3022742Y1770496D01*
Y1760339D01*
X3020203Y1757800D01*
X3015124D01*
X3012585Y1760339D01*
Y1770496D01*
X3027820D02*
X3030359Y1773035D01*
X3035438D01*
X3037977Y1770496D01*
Y1760339D01*
X3035438Y1757800D01*
X3030359D01*
X3027820Y1760339D01*
Y1770496D01*
X2647350Y1773035D02*
Y1757800D01*
X2657507D01*
X2662585Y1770496D02*
X2665124Y1773035D01*
X2670203D01*
X2672742Y1770496D01*
Y1767957D01*
X2670203Y1765417D01*
X2667663D01*
X2670203D01*
X2672742Y1762878D01*
Y1760339D01*
X2670203Y1757800D01*
X2665124D01*
X2662585Y1760339D01*
X2682899Y1757800D02*
X2677820Y1762878D01*
Y1767957D01*
X2682899Y1773035D01*
X2690516D02*
Y1757800D01*
X2700673D01*
X2715908D02*
X2705751D01*
X2715908Y1767957D01*
Y1770496D01*
X2713369Y1773035D01*
X2708290D01*
X2705751Y1770496D01*
X2723525Y1755261D02*
X2726064Y1757800D01*
Y1760339D01*
X2723525D01*
Y1757800D01*
X2726064D01*
X2723525Y1755261D01*
X2720986Y1752722D01*
X2736221Y1773035D02*
Y1757800D01*
X2746378D01*
X2759074D02*
Y1773035D01*
X2751456Y1765417D01*
X2761613D01*
X2766691Y1757800D02*
X2771770Y1762878D01*
Y1767957D01*
X2766691Y1773035D01*
X2422350Y1757800D02*
X2427428D01*
X2424889D01*
Y1773035D01*
X2422350Y1770496D01*
X2435046D02*
X2437585Y1773035D01*
X2442663D01*
X2445203Y1770496D01*
Y1760339D01*
X2442663Y1757800D01*
X2437585D01*
X2435046Y1760339D01*
Y1770496D01*
X2450281D02*
X2452820Y1773035D01*
X2457899D01*
X2460438Y1770496D01*
Y1760339D01*
X2457899Y1757800D01*
X2452820D01*
X2450281Y1760339D01*
Y1770496D01*
X2468055Y1757800D02*
X2473134D01*
X2475673Y1760339D01*
Y1765417D01*
X2473134Y1767957D01*
X2468055D01*
X2465516Y1765417D01*
Y1760339D01*
X2468055Y1757800D01*
X2480751Y1773035D02*
Y1757800D01*
Y1765417D01*
X2483290Y1767957D01*
X2488369D01*
X2490908Y1765417D01*
Y1757800D01*
X2495986D02*
Y1767957D01*
X2498525D01*
X2501064Y1765417D01*
Y1757800D01*
Y1765417D01*
X2503604Y1767957D01*
X2506143Y1765417D01*
Y1757800D01*
X2511221Y1765417D02*
Y1767957D01*
X2513760D01*
Y1765417D01*
X2511221D01*
Y1760339D02*
X2513760D01*
Y1757800D01*
X2511221Y1755261D01*
X2513760Y1757800D02*
X2511221D01*
Y1760339D01*
X2297350Y1773035D02*
Y1757800D01*
X2304967D01*
X2307507Y1760339D01*
Y1770496D01*
X2304967Y1773035D01*
X2297350D01*
X2312585D02*
X2317663D01*
X2315124D01*
Y1757800D01*
X2312585D01*
X2317663D01*
X2335438Y1773035D02*
X2325281D01*
Y1765417D01*
X2330359D01*
X2325281D01*
Y1757800D01*
X2350673Y1773035D02*
X2340516D01*
Y1765417D01*
X2345594D01*
X2340516D01*
Y1757800D01*
X2355751Y1765417D02*
Y1767957D01*
X2358290D01*
Y1765417D01*
X2355751D01*
Y1760339D02*
X2358290D01*
Y1757800D01*
X2355751Y1755261D01*
X2358290Y1757800D02*
X2355751D01*
Y1760339D01*
X3207507Y1832800D02*
X3197350D01*
X3207507Y1842957D01*
Y1845496D01*
X3204968Y1848035D01*
X3199889D01*
X3197350Y1845496D01*
X3222742Y1848035D02*
X3212585D01*
Y1840417D01*
X3217663Y1842957D01*
X3220203D01*
X3222742Y1840417D01*
Y1835339D01*
X3220203Y1832800D01*
X3215124D01*
X3212585Y1835339D01*
X3227820Y1845496D02*
X3230359Y1848035D01*
X3235438D01*
X3237977Y1845496D01*
Y1835339D01*
X3235438Y1832800D01*
X3230359D01*
X3227820Y1835339D01*
Y1845496D01*
X3007507Y1832800D02*
X2997350D01*
X3007507Y1842957D01*
Y1845496D01*
X3004968Y1848035D01*
X2999889D01*
X2997350Y1845496D01*
X3012585D02*
X3015124Y1848035D01*
X3020203D01*
X3022742Y1845496D01*
Y1835339D01*
X3020203Y1832800D01*
X3015124D01*
X3012585Y1835339D01*
Y1845496D01*
X3027820D02*
X3030359Y1848035D01*
X3035438D01*
X3037977Y1845496D01*
Y1835339D01*
X3035438Y1832800D01*
X3030359D01*
X3027820Y1835339D01*
Y1845496D01*
X2647350Y1848035D02*
Y1832800D01*
X2657507D01*
X2662585Y1845496D02*
X2665124Y1848035D01*
X2670203D01*
X2672742Y1845496D01*
Y1842957D01*
X2670203Y1840417D01*
X2667663D01*
X2670203D01*
X2672742Y1837878D01*
Y1835339D01*
X2670203Y1832800D01*
X2665124D01*
X2662585Y1835339D01*
X2682899Y1832800D02*
X2677820Y1837878D01*
Y1842957D01*
X2682899Y1848035D01*
X2690516D02*
Y1832800D01*
X2700673D01*
X2715908D02*
X2705751D01*
X2715908Y1842957D01*
Y1845496D01*
X2713369Y1848035D01*
X2708290D01*
X2705751Y1845496D01*
X2723525Y1830261D02*
X2726064Y1832800D01*
Y1835339D01*
X2723525D01*
Y1832800D01*
X2726064D01*
X2723525Y1830261D01*
X2720986Y1827722D01*
X2736221Y1848035D02*
Y1832800D01*
X2746378D01*
X2759074D02*
Y1848035D01*
X2751456Y1840417D01*
X2761613D01*
X2766691Y1832800D02*
X2771770Y1837878D01*
Y1842957D01*
X2766691Y1848035D01*
X2422350Y1835339D02*
X2424889Y1832800D01*
X2429967D01*
X2432507Y1835339D01*
Y1845496D01*
X2429967Y1848035D01*
X2424889D01*
X2422350Y1845496D01*
Y1842957D01*
X2424889Y1840417D01*
X2432507D01*
X2437585Y1845496D02*
X2440124Y1848035D01*
X2445203D01*
X2447742Y1845496D01*
Y1835339D01*
X2445203Y1832800D01*
X2440124D01*
X2437585Y1835339D01*
Y1845496D01*
X2455359Y1832800D02*
X2460438D01*
X2462977Y1835339D01*
Y1840417D01*
X2460438Y1842957D01*
X2455359D01*
X2452820Y1840417D01*
Y1835339D01*
X2455359Y1832800D01*
X2468055Y1848035D02*
Y1832800D01*
Y1840417D01*
X2470594Y1842957D01*
X2475673D01*
X2478212Y1840417D01*
Y1832800D01*
X2483290D02*
Y1842957D01*
X2485829D01*
X2488369Y1840417D01*
Y1832800D01*
Y1840417D01*
X2490908Y1842957D01*
X2493447Y1840417D01*
Y1832800D01*
X2498525Y1840417D02*
Y1842957D01*
X2501064D01*
Y1840417D01*
X2498525D01*
Y1835339D02*
X2501064D01*
Y1832800D01*
X2498525Y1830261D01*
X2501064Y1832800D02*
X2498525D01*
Y1835339D01*
X2297350Y1848035D02*
Y1832800D01*
X2304967D01*
X2307507Y1835339D01*
Y1845496D01*
X2304967Y1848035D01*
X2297350D01*
X2312585D02*
X2317663D01*
X2315124D01*
Y1832800D01*
X2312585D01*
X2317663D01*
X2335438Y1848035D02*
X2325281D01*
Y1840417D01*
X2330359D01*
X2325281D01*
Y1832800D01*
X2350673Y1848035D02*
X2340516D01*
Y1840417D01*
X2345594D01*
X2340516D01*
Y1832800D01*
X2355751Y1840417D02*
Y1842957D01*
X2358290D01*
Y1840417D01*
X2355751D01*
Y1835339D02*
X2358290D01*
Y1832800D01*
X2355751Y1830261D01*
X2358290Y1832800D02*
X2355751D01*
Y1835339D01*
X3207507Y1857800D02*
X3197350D01*
X3207507Y1867957D01*
Y1870496D01*
X3204968Y1873035D01*
X3199889D01*
X3197350Y1870496D01*
X3212585D02*
X3215124Y1873035D01*
X3220203D01*
X3222742Y1870496D01*
Y1860339D01*
X3220203Y1857800D01*
X3215124D01*
X3212585Y1860339D01*
Y1870496D01*
X3227820D02*
X3230359Y1873035D01*
X3235438D01*
X3237977Y1870496D01*
Y1860339D01*
X3235438Y1857800D01*
X3230359D01*
X3227820Y1860339D01*
Y1870496D01*
X3007507Y1857800D02*
X2997350D01*
X3007507Y1867957D01*
Y1870496D01*
X3004968Y1873035D01*
X2999889D01*
X2997350Y1870496D01*
X3022742Y1873035D02*
X3012585D01*
Y1865417D01*
X3017663Y1867957D01*
X3020203D01*
X3022742Y1865417D01*
Y1860339D01*
X3020203Y1857800D01*
X3015124D01*
X3012585Y1860339D01*
X3027820Y1870496D02*
X3030359Y1873035D01*
X3035438D01*
X3037977Y1870496D01*
Y1860339D01*
X3035438Y1857800D01*
X3030359D01*
X3027820Y1860339D01*
Y1870496D01*
X2647350Y1873035D02*
Y1857800D01*
X2657507D01*
X2662585D02*
X2667663D01*
X2665124D01*
Y1873035D01*
X2662585Y1870496D01*
X2680359Y1857800D02*
X2675281Y1862878D01*
Y1867957D01*
X2680359Y1873035D01*
X2687977D02*
Y1857800D01*
X2698134D01*
X2713369D02*
X2703212D01*
X2713369Y1867957D01*
Y1870496D01*
X2710829Y1873035D01*
X2705751D01*
X2703212Y1870496D01*
X2718447Y1857800D02*
X2723525Y1862878D01*
Y1867957D01*
X2718447Y1873035D01*
X2733682Y1855261D02*
X2736221Y1857800D01*
Y1860339D01*
X2733682D01*
Y1857800D01*
X2736221D01*
X2733682Y1855261D01*
X2731143Y1852722D01*
X2761613Y1873035D02*
Y1857800D01*
X2771770D01*
X2787005Y1873035D02*
X2781926Y1870496D01*
X2776848Y1865417D01*
Y1860339D01*
X2779387Y1857800D01*
X2784466D01*
X2787005Y1860339D01*
Y1862878D01*
X2784466Y1865417D01*
X2776848D01*
X2797162Y1857800D02*
X2792083Y1862878D01*
Y1867957D01*
X2797162Y1873035D01*
X2804779D02*
Y1857800D01*
X2814936D01*
X2830171Y1873035D02*
X2820014D01*
Y1865417D01*
X2825092Y1867957D01*
X2827632D01*
X2830171Y1865417D01*
Y1860339D01*
X2827632Y1857800D01*
X2822553D01*
X2820014Y1860339D01*
X2835249Y1857800D02*
X2840327Y1862878D01*
Y1867957D01*
X2835249Y1873035D01*
X2847945Y1865417D02*
Y1867957D01*
X2850484D01*
Y1865417D01*
X2847945D01*
Y1860339D02*
X2850484D01*
Y1857800D01*
X2847945Y1855261D01*
X2850484Y1857800D02*
X2847945D01*
Y1860339D01*
X2422350D02*
X2424889Y1857800D01*
X2429967D01*
X2432507Y1860339D01*
Y1870496D01*
X2429967Y1873035D01*
X2424889D01*
X2422350Y1870496D01*
Y1867957D01*
X2424889Y1865417D01*
X2432507D01*
X2437585Y1870496D02*
X2440124Y1873035D01*
X2445203D01*
X2447742Y1870496D01*
Y1860339D01*
X2445203Y1857800D01*
X2440124D01*
X2437585Y1860339D01*
Y1870496D01*
X2455359Y1857800D02*
X2460438D01*
X2462977Y1860339D01*
Y1865417D01*
X2460438Y1867957D01*
X2455359D01*
X2452820Y1865417D01*
Y1860339D01*
X2455359Y1857800D01*
X2468055Y1873035D02*
Y1857800D01*
Y1865417D01*
X2470594Y1867957D01*
X2475673D01*
X2478212Y1865417D01*
Y1857800D01*
X2483290D02*
Y1867957D01*
X2485829D01*
X2488369Y1865417D01*
Y1857800D01*
Y1865417D01*
X2490908Y1867957D01*
X2493447Y1865417D01*
Y1857800D01*
X2498525Y1865417D02*
Y1867957D01*
X2501064D01*
Y1865417D01*
X2498525D01*
Y1860339D02*
X2501064D01*
Y1857800D01*
X2498525Y1855261D01*
X2501064Y1857800D02*
X2498525D01*
Y1860339D01*
X2297350Y1873035D02*
Y1857800D01*
X2304967D01*
X2307507Y1860339D01*
Y1870496D01*
X2304967Y1873035D01*
X2297350D01*
X2312585D02*
X2317663D01*
X2315124D01*
Y1857800D01*
X2312585D01*
X2317663D01*
X2335438Y1873035D02*
X2325281D01*
Y1865417D01*
X2330359D01*
X2325281D01*
Y1857800D01*
X2350673Y1873035D02*
X2340516D01*
Y1865417D01*
X2345594D01*
X2340516D01*
Y1857800D01*
X2355751Y1865417D02*
Y1867957D01*
X2358290D01*
Y1865417D01*
X2355751D01*
Y1860339D02*
X2358290D01*
Y1857800D01*
X2355751Y1855261D01*
X2358290Y1857800D02*
X2355751D01*
Y1860339D01*
X3207507Y1920496D02*
X3204968Y1923035D01*
X3199889D01*
X3197350Y1920496D01*
Y1910339D01*
X3199889Y1907800D01*
X3204968D01*
X3207507Y1910339D01*
Y1915417D01*
X3202428D01*
X3215124Y1917957D02*
X3220203D01*
X3222742Y1915417D01*
Y1907800D01*
X3215124D01*
X3212585Y1910339D01*
X3215124Y1912878D01*
X3222742D01*
X3227820Y1902722D02*
Y1917957D01*
X3235438D01*
X3237977Y1915417D01*
Y1910339D01*
X3235438Y1907800D01*
X3227820D01*
X3263369D02*
X3258290Y1912878D01*
Y1917957D01*
X3263369Y1923035D01*
X3270986Y1917957D02*
Y1910339D01*
X3273525Y1907800D01*
X3281143D01*
Y1917957D01*
X3286221Y1907800D02*
Y1917957D01*
X3288760D01*
X3291300Y1915417D01*
Y1907800D01*
Y1915417D01*
X3293839Y1917957D01*
X3296378Y1915417D01*
Y1907800D01*
X3301456D02*
X3306535Y1912878D01*
Y1917957D01*
X3301456Y1923035D01*
X3314152Y1915417D02*
Y1917957D01*
X3316691D01*
Y1915417D01*
X3314152D01*
Y1910339D02*
X3316691D01*
Y1907800D01*
X3314152Y1905261D01*
X3316691Y1907800D02*
X3314152D01*
Y1910339D01*
X2997350Y1923035D02*
Y1907800D01*
X3002428Y1912878D01*
X3007507Y1907800D01*
Y1923035D01*
X3012585Y1907800D02*
X3017663D01*
X3015124D01*
Y1917957D01*
X3012585D01*
X3035438Y1923035D02*
Y1907800D01*
X3027820D01*
X3025281Y1910339D01*
Y1915417D01*
X3027820Y1917957D01*
X3035438D01*
X3043055Y1920496D02*
Y1917957D01*
X3040516D01*
X3045594D01*
X3043055D01*
Y1910339D01*
X3045594Y1907800D01*
X3053212Y1923035D02*
Y1907800D01*
Y1915417D01*
X3055751Y1917957D01*
X3060829D01*
X3063369Y1915417D01*
Y1907800D01*
X3088760D02*
X3083682Y1912878D01*
Y1917957D01*
X3088760Y1923035D01*
X3096378Y1917957D02*
Y1910339D01*
X3098917Y1907800D01*
X3106535D01*
Y1917957D01*
X3111613Y1907800D02*
Y1917957D01*
X3114152D01*
X3116691Y1915417D01*
Y1907800D01*
Y1915417D01*
X3119231Y1917957D01*
X3121770Y1915417D01*
Y1907800D01*
X3126848D02*
X3131927Y1912878D01*
Y1917957D01*
X3126848Y1923035D01*
X3139544Y1915417D02*
Y1917957D01*
X3142083D01*
Y1915417D01*
X3139544D01*
Y1910339D02*
X3142083D01*
Y1907800D01*
X3139544Y1905261D01*
X3142083Y1907800D02*
X3139544D01*
Y1910339D01*
X2647350Y1923035D02*
Y1907800D01*
X2657507D01*
X2665124Y1917957D02*
X2670203D01*
X2672742Y1915417D01*
Y1907800D01*
X2665124D01*
X2662585Y1910339D01*
X2665124Y1912878D01*
X2672742D01*
X2677820Y1917957D02*
Y1910339D01*
X2680359Y1907800D01*
X2687977D01*
Y1905261D01*
X2685438Y1902722D01*
X2682899D01*
X2687977Y1907800D02*
Y1917957D01*
X2700673Y1907800D02*
X2695594D01*
X2693055Y1910339D01*
Y1915417D01*
X2695594Y1917957D01*
X2700673D01*
X2703212Y1915417D01*
Y1912878D01*
X2693055D01*
X2708290Y1917957D02*
Y1907800D01*
Y1912878D01*
X2710829Y1915417D01*
X2713369Y1917957D01*
X2715908D01*
X2743839Y1907800D02*
X2738760Y1912878D01*
Y1917957D01*
X2743839Y1923035D01*
X2751456Y1907800D02*
Y1923035D01*
X2759074D01*
X2761613Y1920496D01*
Y1915417D01*
X2759074Y1912878D01*
X2751456D01*
X2756535D02*
X2761613Y1907800D01*
X2774309D02*
X2769231D01*
X2766691Y1910339D01*
Y1915417D01*
X2769231Y1917957D01*
X2774309D01*
X2776848Y1915417D01*
Y1912878D01*
X2766691D01*
X2784466Y1907800D02*
Y1920496D01*
Y1915417D01*
X2781927D01*
X2787005D01*
X2784466D01*
Y1920496D01*
X2787005Y1923035D01*
X2802240Y1907800D02*
X2797162D01*
X2794622Y1910339D01*
Y1915417D01*
X2797162Y1917957D01*
X2802240D01*
X2804779Y1915417D01*
Y1912878D01*
X2794622D01*
X2809857Y1917957D02*
Y1907800D01*
Y1912878D01*
X2812397Y1915417D01*
X2814936Y1917957D01*
X2817475D01*
X2832710Y1907800D02*
X2827632D01*
X2825092Y1910339D01*
Y1915417D01*
X2827632Y1917957D01*
X2832710D01*
X2835249Y1915417D01*
Y1912878D01*
X2825092D01*
X2840327Y1907800D02*
Y1917957D01*
X2847945D01*
X2850484Y1915417D01*
Y1907800D01*
X2865719Y1917957D02*
X2858102D01*
X2855563Y1915417D01*
Y1910339D01*
X2858102Y1907800D01*
X2865719D01*
X2878415D02*
X2873337D01*
X2870798Y1910339D01*
Y1915417D01*
X2873337Y1917957D01*
X2878415D01*
X2880954Y1915417D01*
Y1912878D01*
X2870798D01*
X2886033Y1907800D02*
X2891111Y1912878D01*
Y1917957D01*
X2886033Y1923035D01*
X2898729Y1915417D02*
Y1917957D01*
X2901268D01*
Y1915417D01*
X2898729D01*
Y1910339D02*
X2901268D01*
Y1907800D01*
X2898729Y1905261D01*
X2901268Y1907800D02*
X2898729D01*
Y1910339D01*
X2422350Y1923035D02*
X2427428D01*
X2424889D01*
Y1907800D01*
X2422350D01*
X2427428D01*
X2435046D02*
Y1917957D01*
X2437585D01*
X2440124Y1915417D01*
Y1907800D01*
Y1915417D01*
X2442663Y1917957D01*
X2445203Y1915417D01*
Y1907800D01*
X2450281Y1902722D02*
Y1917957D01*
X2457899D01*
X2460438Y1915417D01*
Y1910339D01*
X2457899Y1907800D01*
X2450281D01*
X2473134D02*
X2468055D01*
X2465516Y1910339D01*
Y1915417D01*
X2468055Y1917957D01*
X2473134D01*
X2475673Y1915417D01*
Y1912878D01*
X2465516D01*
X2490908Y1923035D02*
Y1907800D01*
X2483290D01*
X2480751Y1910339D01*
Y1915417D01*
X2483290Y1917957D01*
X2490908D01*
X2498525D02*
X2503604D01*
X2506143Y1915417D01*
Y1907800D01*
X2498525D01*
X2495986Y1910339D01*
X2498525Y1912878D01*
X2506143D01*
X2511221Y1907800D02*
Y1917957D01*
X2518839D01*
X2521378Y1915417D01*
Y1907800D01*
X2536613Y1917957D02*
X2528996D01*
X2526456Y1915417D01*
Y1910339D01*
X2528996Y1907800D01*
X2536613D01*
X2549309D02*
X2544231D01*
X2541691Y1910339D01*
Y1915417D01*
X2544231Y1917957D01*
X2549309D01*
X2551848Y1915417D01*
Y1912878D01*
X2541691D01*
X2556927Y1915417D02*
Y1917957D01*
X2559466D01*
Y1915417D01*
X2556927D01*
Y1910339D02*
X2559466D01*
Y1907800D01*
X2556927Y1905261D01*
X2559466Y1907800D02*
X2556927D01*
Y1910339D01*
X2297350Y1923035D02*
X2307507D01*
X2302428D01*
Y1907800D01*
X2312585Y1923035D02*
Y1920496D01*
X2317663Y1915417D01*
X2322742Y1920496D01*
Y1923035D01*
X2317663Y1915417D02*
Y1907800D01*
X2327820D02*
Y1923035D01*
X2335438D01*
X2337977Y1920496D01*
Y1915417D01*
X2335438Y1912878D01*
X2327820D01*
X2353212Y1923035D02*
X2343055D01*
Y1907800D01*
X2353212D01*
X2343055Y1915417D02*
X2348134D01*
X2358290D02*
Y1917957D01*
X2360829D01*
Y1915417D01*
X2358290D01*
Y1910339D02*
X2360829D01*
Y1907800D01*
X2358290Y1905261D01*
X2360829Y1907800D02*
X2358290D01*
Y1910339D01*
X2257507Y1957800D02*
X2247350D01*
X2257507Y1967957D01*
Y1970496D01*
X2254967Y1973035D01*
X2249889D01*
X2247350Y1970496D01*
X2262585Y1957800D02*
Y1960339D01*
X2265124D01*
Y1957800D01*
X2262585D01*
X2290516Y1973035D02*
X2300673D01*
X2295594D01*
Y1957800D01*
X2305751Y1973035D02*
Y1957800D01*
Y1965417D01*
X2315908D01*
Y1973035D01*
Y1957800D01*
X2320986Y1973035D02*
X2326064D01*
X2323525D01*
Y1957800D01*
X2320986D01*
X2326064D01*
X2343839Y1970496D02*
X2341300Y1973035D01*
X2336221D01*
X2333682Y1970496D01*
Y1967957D01*
X2336221Y1965417D01*
X2341300D01*
X2343839Y1962878D01*
Y1960339D01*
X2341300Y1957800D01*
X2336221D01*
X2333682Y1960339D01*
X2364152Y1973035D02*
Y1957800D01*
X2371770D01*
X2374309Y1960339D01*
Y1962878D01*
X2371770Y1965417D01*
X2364152D01*
X2371770D01*
X2374309Y1967957D01*
Y1970496D01*
X2371770Y1973035D01*
X2364152D01*
X2387005D02*
X2381927D01*
X2379387Y1970496D01*
Y1960339D01*
X2381927Y1957800D01*
X2387005D01*
X2389544Y1960339D01*
Y1970496D01*
X2387005Y1973035D01*
X2394622Y1957800D02*
Y1967957D01*
X2399701Y1973035D01*
X2404779Y1967957D01*
Y1957800D01*
Y1965417D01*
X2394622D01*
X2409857Y1957800D02*
Y1973035D01*
X2417475D01*
X2420014Y1970496D01*
Y1965417D01*
X2417475Y1962878D01*
X2409857D01*
X2414936D02*
X2420014Y1957800D01*
X2425092Y1973035D02*
Y1957800D01*
X2432710D01*
X2435249Y1960339D01*
Y1970496D01*
X2432710Y1973035D01*
X2425092D01*
X2465719Y1970496D02*
X2463180Y1973035D01*
X2458102D01*
X2455563Y1970496D01*
Y1960339D01*
X2458102Y1957800D01*
X2463180D01*
X2465719Y1960339D01*
X2478415Y1973035D02*
X2473337D01*
X2470798Y1970496D01*
Y1960339D01*
X2473337Y1957800D01*
X2478415D01*
X2480954Y1960339D01*
Y1970496D01*
X2478415Y1973035D01*
X2486033Y1957800D02*
Y1973035D01*
X2496190Y1957800D01*
Y1973035D01*
X2501268D02*
X2511425D01*
X2506346D01*
Y1957800D01*
X2516503D02*
Y1967957D01*
X2521581Y1973035D01*
X2526660Y1967957D01*
Y1957800D01*
Y1965417D01*
X2516503D01*
X2531738Y1973035D02*
X2536816D01*
X2534277D01*
Y1957800D01*
X2531738D01*
X2536816D01*
X2544434D02*
Y1973035D01*
X2554591Y1957800D01*
Y1973035D01*
X2569826Y1970496D02*
X2567286Y1973035D01*
X2562208D01*
X2559669Y1970496D01*
Y1967957D01*
X2562208Y1965417D01*
X2567286D01*
X2569826Y1962878D01*
Y1960339D01*
X2567286Y1957800D01*
X2562208D01*
X2559669Y1960339D01*
X2590139Y1973035D02*
X2595218D01*
X2592678D01*
Y1957800D01*
X2590139D01*
X2595218D01*
X2602835D02*
Y1973035D01*
X2607914Y1967957D01*
X2612992Y1973035D01*
Y1957800D01*
X2618070D02*
Y1973035D01*
X2625688D01*
X2628227Y1970496D01*
Y1965417D01*
X2625688Y1962878D01*
X2618070D01*
X2643462Y1973035D02*
X2633305D01*
Y1957800D01*
X2643462D01*
X2633305Y1965417D02*
X2638383D01*
X2648540Y1973035D02*
Y1957800D01*
X2656158D01*
X2658697Y1960339D01*
Y1970496D01*
X2656158Y1973035D01*
X2648540D01*
X2663775Y1957800D02*
Y1967957D01*
X2668853Y1973035D01*
X2673932Y1967957D01*
Y1957800D01*
Y1965417D01*
X2663775D01*
X2679010Y1957800D02*
Y1973035D01*
X2689167Y1957800D01*
Y1973035D01*
X2704402Y1970496D02*
X2701863Y1973035D01*
X2696785D01*
X2694245Y1970496D01*
Y1960339D01*
X2696785Y1957800D01*
X2701863D01*
X2704402Y1960339D01*
X2719637Y1973035D02*
X2709481D01*
Y1957800D01*
X2719637D01*
X2709481Y1965417D02*
X2714559D01*
X2750107Y1970496D02*
X2747568Y1973035D01*
X2742490D01*
X2739951Y1970496D01*
Y1960339D01*
X2742490Y1957800D01*
X2747568D01*
X2750107Y1960339D01*
X2762803Y1973035D02*
X2757725D01*
X2755186Y1970496D01*
Y1960339D01*
X2757725Y1957800D01*
X2762803D01*
X2765342Y1960339D01*
Y1970496D01*
X2762803Y1973035D01*
X2770421Y1957800D02*
Y1973035D01*
X2780577Y1957800D01*
Y1973035D01*
X2785656D02*
X2795813D01*
X2790734D01*
Y1957800D01*
X2800891D02*
Y1973035D01*
X2808509D01*
X2811048Y1970496D01*
Y1965417D01*
X2808509Y1962878D01*
X2800891D01*
X2805969D02*
X2811048Y1957800D01*
X2823744Y1973035D02*
X2818665D01*
X2816126Y1970496D01*
Y1960339D01*
X2818665Y1957800D01*
X2823744D01*
X2826283Y1960339D01*
Y1970496D01*
X2823744Y1973035D01*
X2831361D02*
Y1957800D01*
X2841518D01*
X2846596Y1973035D02*
Y1957800D01*
X2856753D01*
X2871988Y1973035D02*
X2861831D01*
Y1957800D01*
X2871988D01*
X2861831Y1965417D02*
X2866909D01*
X2877066Y1973035D02*
Y1957800D01*
X2884684D01*
X2887223Y1960339D01*
Y1970496D01*
X2884684Y1973035D01*
X2877066D01*
X2907537D02*
X2917693D01*
X2912615D01*
Y1957800D01*
X2922772D02*
Y1973035D01*
X2930389D01*
X2932928Y1970496D01*
Y1965417D01*
X2930389Y1962878D01*
X2922772D01*
X2927850D02*
X2932928Y1957800D01*
X2938007D02*
Y1967957D01*
X2943085Y1973035D01*
X2948163Y1967957D01*
Y1957800D01*
Y1965417D01*
X2938007D01*
X2963398Y1970496D02*
X2960859Y1973035D01*
X2955781D01*
X2953242Y1970496D01*
Y1960339D01*
X2955781Y1957800D01*
X2960859D01*
X2963398Y1960339D01*
X2968477Y1973035D02*
Y1957800D01*
Y1962878D01*
X2978633Y1973035D01*
X2971016Y1965417D01*
X2978633Y1957800D01*
X2993868Y1970496D02*
X2991329Y1973035D01*
X2986251D01*
X2983712Y1970496D01*
Y1967957D01*
X2986251Y1965417D01*
X2991329D01*
X2993868Y1962878D01*
Y1960339D01*
X2991329Y1957800D01*
X2986251D01*
X2983712Y1960339D01*
X3001486Y1955261D02*
X3004025Y1957800D01*
Y1960339D01*
X3001486D01*
Y1957800D01*
X3004025D01*
X3001486Y1955261D01*
X2998947Y1952722D01*
X3029417Y1973035D02*
X3039574D01*
X3034496D01*
Y1957800D01*
X3044652D02*
Y1973035D01*
X3052270D01*
X3054809Y1970496D01*
Y1965417D01*
X3052270Y1962878D01*
X3044652D01*
X3049731D02*
X3054809Y1957800D01*
X3059887D02*
Y1967957D01*
X3064966Y1973035D01*
X3070044Y1967957D01*
Y1957800D01*
Y1965417D01*
X3059887D01*
X3085279Y1970496D02*
X3082740Y1973035D01*
X3077661D01*
X3075122Y1970496D01*
Y1960339D01*
X3077661Y1957800D01*
X3082740D01*
X3085279Y1960339D01*
X3090357Y1973035D02*
Y1957800D01*
Y1962878D01*
X3100514Y1973035D01*
X3092896Y1965417D01*
X3100514Y1957800D01*
X3120828D02*
Y1967957D01*
X3125906Y1973035D01*
X3130984Y1967957D01*
Y1957800D01*
Y1965417D01*
X3120828D01*
X3136063Y1957800D02*
Y1973035D01*
X3146219Y1957800D01*
Y1973035D01*
X3151298D02*
Y1957800D01*
X3158915D01*
X3161454Y1960339D01*
Y1970496D01*
X3158915Y1973035D01*
X3151298D01*
X3191924Y1970496D02*
X3189385Y1973035D01*
X3184307D01*
X3181768Y1970496D01*
Y1960339D01*
X3184307Y1957800D01*
X3189385D01*
X3191924Y1960339D01*
Y1965417D01*
X3186846D01*
X3197003Y1957800D02*
Y1967957D01*
X3202081Y1973035D01*
X3207159Y1967957D01*
Y1957800D01*
Y1965417D01*
X3197003D01*
X3212238Y1957800D02*
Y1973035D01*
X3219855D01*
X3222395Y1970496D01*
Y1965417D01*
X3219855Y1962878D01*
X3212238D01*
X3252865Y1970496D02*
X3250326Y1973035D01*
X3245247D01*
X3242708Y1970496D01*
Y1967957D01*
X3245247Y1965417D01*
X3250326D01*
X3252865Y1962878D01*
Y1960339D01*
X3250326Y1957800D01*
X3245247D01*
X3242708Y1960339D01*
X3257943Y1973035D02*
X3263022D01*
X3260482D01*
Y1957800D01*
X3257943D01*
X3263022D01*
X3270639Y1973035D02*
X3280796D01*
Y1970496D01*
X3270639Y1960339D01*
Y1957800D01*
X3280796D01*
X3296031Y1973035D02*
X3285874D01*
Y1957800D01*
X3296031D01*
X3285874Y1965417D02*
X3290952D01*
X3311266Y1970496D02*
X3308727Y1973035D01*
X3303648D01*
X3301109Y1970496D01*
Y1967957D01*
X3303648Y1965417D01*
X3308727D01*
X3311266Y1962878D01*
Y1960339D01*
X3308727Y1957800D01*
X3303648D01*
X3301109Y1960339D01*
X3331579Y1957800D02*
Y1967957D01*
X3336658Y1973035D01*
X3341736Y1967957D01*
Y1957800D01*
Y1965417D01*
X3331579D01*
X3346814Y1957800D02*
Y1973035D01*
X3354432D01*
X3356971Y1970496D01*
Y1965417D01*
X3354432Y1962878D01*
X3346814D01*
X3351893D02*
X3356971Y1957800D01*
X3372206Y1973035D02*
X3362049D01*
Y1957800D01*
X3372206D01*
X3362049Y1965417D02*
X3367128D01*
X3392520Y1957800D02*
Y1967957D01*
X3397598Y1973035D01*
X3402676Y1967957D01*
Y1957800D01*
Y1965417D01*
X3392520D01*
X3417911Y1970496D02*
X3415372Y1973035D01*
X3410294D01*
X3407755Y1970496D01*
Y1967957D01*
X3410294Y1965417D01*
X3415372D01*
X3417911Y1962878D01*
Y1960339D01*
X3415372Y1957800D01*
X3410294D01*
X3407755Y1960339D01*
X3448381Y1973035D02*
X3438225D01*
Y1965417D01*
X3443303D01*
X3438225D01*
Y1957800D01*
X3461077Y1973035D02*
X3455999D01*
X3453460Y1970496D01*
Y1960339D01*
X3455999Y1957800D01*
X3461077D01*
X3463617Y1960339D01*
Y1970496D01*
X3461077Y1973035D01*
X3468695D02*
Y1957800D01*
X3478852D01*
X3483930Y1973035D02*
Y1957800D01*
X3494087D01*
X3506783Y1973035D02*
X3501704D01*
X3499165Y1970496D01*
Y1960339D01*
X3501704Y1957800D01*
X3506783D01*
X3509322Y1960339D01*
Y1970496D01*
X3506783Y1973035D01*
X3514400D02*
Y1957800D01*
X3519478Y1962878D01*
X3524557Y1957800D01*
Y1973035D01*
X3539792Y1970496D02*
X3537253Y1973035D01*
X3532174D01*
X3529635Y1970496D01*
Y1967957D01*
X3532174Y1965417D01*
X3537253D01*
X3539792Y1962878D01*
Y1960339D01*
X3537253Y1957800D01*
X3532174D01*
X3529635Y1960339D01*
X3544870Y1967957D02*
X3547409D01*
Y1965417D01*
X3544870D01*
Y1967957D01*
Y1960339D02*
X3547409D01*
Y1957800D01*
X3544870D01*
Y1960339D01*
X2247350Y2007800D02*
X2252428D01*
X2249889D01*
Y2023035D01*
X2247350Y2020496D01*
X2260046Y2007800D02*
Y2010339D01*
X2262585D01*
Y2007800D01*
X2260046D01*
X2287977D02*
Y2023035D01*
X2295594D01*
X2298134Y2020496D01*
Y2015417D01*
X2295594Y2012878D01*
X2287977D01*
X2293055D02*
X2298134Y2007800D01*
X2313369Y2023035D02*
X2303212D01*
Y2007800D01*
X2313369D01*
X2303212Y2015417D02*
X2308290D01*
X2318447Y2007800D02*
Y2023035D01*
X2323525Y2017957D01*
X2328604Y2023035D01*
Y2007800D01*
X2341300Y2023035D02*
X2336221D01*
X2333682Y2020496D01*
Y2010339D01*
X2336221Y2007800D01*
X2341300D01*
X2343839Y2010339D01*
Y2020496D01*
X2341300Y2023035D01*
X2348917D02*
Y2012878D01*
X2353996Y2007800D01*
X2359074Y2012878D01*
Y2023035D01*
X2374309D02*
X2364152D01*
Y2007800D01*
X2374309D01*
X2364152Y2015417D02*
X2369231D01*
X2394622Y2007800D02*
Y2017957D01*
X2399701Y2023035D01*
X2404779Y2017957D01*
Y2007800D01*
Y2015417D01*
X2394622D01*
X2409857Y2023035D02*
Y2007800D01*
X2420014D01*
X2425092Y2023035D02*
Y2007800D01*
X2435249D01*
X2455563D02*
Y2023035D01*
X2465719Y2007800D01*
Y2023035D01*
X2478415D02*
X2473337D01*
X2470798Y2020496D01*
Y2010339D01*
X2473337Y2007800D01*
X2478415D01*
X2480954Y2010339D01*
Y2020496D01*
X2478415Y2023035D01*
X2486033Y2007800D02*
Y2023035D01*
X2496190Y2007800D01*
Y2023035D01*
X2501268Y2015417D02*
X2511425D01*
X2526660Y2023035D02*
X2516503D01*
Y2015417D01*
X2521581D01*
X2516503D01*
Y2007800D01*
X2531738Y2023035D02*
Y2010339D01*
X2534277Y2007800D01*
X2539356D01*
X2541895Y2010339D01*
Y2023035D01*
X2546973Y2007800D02*
Y2023035D01*
X2557130Y2007800D01*
Y2023035D01*
X2572365Y2020496D02*
X2569826Y2023035D01*
X2564747D01*
X2562208Y2020496D01*
Y2010339D01*
X2564747Y2007800D01*
X2569826D01*
X2572365Y2010339D01*
X2577443Y2023035D02*
X2587600D01*
X2582522D01*
Y2007800D01*
X2592678Y2023035D02*
X2597757D01*
X2595218D01*
Y2007800D01*
X2592678D01*
X2597757D01*
X2612992Y2023035D02*
X2607914D01*
X2605374Y2020496D01*
Y2010339D01*
X2607914Y2007800D01*
X2612992D01*
X2615531Y2010339D01*
Y2020496D01*
X2612992Y2023035D01*
X2620609Y2007800D02*
Y2023035D01*
X2630766Y2007800D01*
Y2023035D01*
X2635844Y2007800D02*
Y2017957D01*
X2640923Y2023035D01*
X2646001Y2017957D01*
Y2007800D01*
Y2015417D01*
X2635844D01*
X2651079Y2023035D02*
Y2007800D01*
X2661236D01*
X2681550Y2023035D02*
X2686628D01*
X2684089D01*
Y2007800D01*
X2681550D01*
X2686628D01*
X2694245D02*
Y2023035D01*
X2704402Y2007800D01*
Y2023035D01*
X2709481Y2007800D02*
Y2023035D01*
X2719637Y2007800D01*
Y2023035D01*
X2734872D02*
X2724716D01*
Y2007800D01*
X2734872D01*
X2724716Y2015417D02*
X2729794D01*
X2739951Y2007800D02*
Y2023035D01*
X2747568D01*
X2750107Y2020496D01*
Y2015417D01*
X2747568Y2012878D01*
X2739951D01*
X2745029D02*
X2750107Y2007800D01*
X2770421Y2023035D02*
Y2007800D01*
X2780577D01*
X2785656D02*
Y2017957D01*
X2790734Y2023035D01*
X2795813Y2017957D01*
Y2007800D01*
Y2015417D01*
X2785656D01*
X2800891Y2023035D02*
Y2020496D01*
X2805969Y2015417D01*
X2811048Y2020496D01*
Y2023035D01*
X2805969Y2015417D02*
Y2007800D01*
X2826283Y2023035D02*
X2816126D01*
Y2007800D01*
X2826283D01*
X2816126Y2015417D02*
X2821205D01*
X2831361Y2007800D02*
Y2023035D01*
X2838979D01*
X2841518Y2020496D01*
Y2015417D01*
X2838979Y2012878D01*
X2831361D01*
X2836440D02*
X2841518Y2007800D01*
X2861831D02*
Y2023035D01*
X2869449D01*
X2871988Y2020496D01*
Y2015417D01*
X2869449Y2012878D01*
X2861831D01*
X2877066Y2007800D02*
Y2017957D01*
X2882145Y2023035D01*
X2887223Y2017957D01*
Y2007800D01*
Y2015417D01*
X2877066D01*
X2892301Y2023035D02*
Y2007800D01*
X2899919D01*
X2902458Y2010339D01*
Y2020496D01*
X2899919Y2023035D01*
X2892301D01*
X2917693Y2020496D02*
X2915154Y2023035D01*
X2910076D01*
X2907537Y2020496D01*
Y2017957D01*
X2910076Y2015417D01*
X2915154D01*
X2917693Y2012878D01*
Y2010339D01*
X2915154Y2007800D01*
X2910076D01*
X2907537Y2010339D01*
X2922772Y2007800D02*
Y2010339D01*
X2925311D01*
Y2007800D01*
X2922772D01*
X2247350Y2057800D02*
Y2073035D01*
X2252428Y2067957D01*
X2257507Y2073035D01*
Y2057800D01*
X2262585D02*
X2267663D01*
X2265124D01*
Y2067957D01*
X2262585D01*
X2275281Y2057800D02*
Y2067957D01*
X2282899D01*
X2285438Y2065417D01*
Y2057800D01*
X2290516D02*
X2295594D01*
X2293055D01*
Y2067957D01*
X2290516D01*
X2303212Y2057800D02*
Y2067957D01*
X2305751D01*
X2308290Y2065417D01*
Y2057800D01*
Y2065417D01*
X2310829Y2067957D01*
X2313369Y2065417D01*
Y2057800D01*
X2318447Y2067957D02*
Y2060339D01*
X2320986Y2057800D01*
X2328604D01*
Y2067957D01*
X2333682Y2057800D02*
Y2067957D01*
X2336221D01*
X2338760Y2065417D01*
Y2057800D01*
Y2065417D01*
X2341300Y2067957D01*
X2343839Y2065417D01*
Y2057800D01*
X2364152Y2073035D02*
X2374309D01*
X2369231D01*
Y2057800D01*
X2379387Y2073035D02*
Y2057800D01*
Y2065417D01*
X2381927Y2067957D01*
X2387005D01*
X2389544Y2065417D01*
Y2057800D01*
X2394622Y2067957D02*
Y2057800D01*
Y2062878D01*
X2397162Y2065417D01*
X2399701Y2067957D01*
X2402240D01*
X2412397Y2057800D02*
X2417475D01*
X2420014Y2060339D01*
Y2065417D01*
X2417475Y2067957D01*
X2412397D01*
X2409857Y2065417D01*
Y2060339D01*
X2412397Y2057800D01*
X2425092Y2067957D02*
Y2060339D01*
X2427632Y2057800D01*
X2435249D01*
Y2067957D01*
X2445406Y2052722D02*
X2447945D01*
X2450484Y2055261D01*
Y2067957D01*
X2442867D01*
X2440328Y2065417D01*
Y2060339D01*
X2442867Y2057800D01*
X2450484D01*
X2455563Y2073035D02*
Y2057800D01*
Y2065417D01*
X2458102Y2067957D01*
X2463180D01*
X2465719Y2065417D01*
Y2057800D01*
X2486033Y2073035D02*
Y2057800D01*
Y2065417D01*
X2496190D01*
Y2073035D01*
Y2057800D01*
X2503807D02*
X2508885D01*
X2511425Y2060339D01*
Y2065417D01*
X2508885Y2067957D01*
X2503807D01*
X2501268Y2065417D01*
Y2060339D01*
X2503807Y2057800D01*
X2516503D02*
X2521581D01*
X2519042D01*
Y2073035D01*
X2516503D01*
X2536816Y2057800D02*
X2531738D01*
X2529199Y2060339D01*
Y2065417D01*
X2531738Y2067957D01*
X2536816D01*
X2539356Y2065417D01*
Y2062878D01*
X2529199D01*
X2559669Y2073035D02*
Y2062878D01*
X2564747Y2057800D01*
X2569826Y2062878D01*
Y2073035D01*
X2574904D02*
X2579982D01*
X2577443D01*
Y2057800D01*
X2574904D01*
X2579982D01*
X2587600D02*
Y2067957D01*
X2592678Y2073035D01*
X2597757Y2067957D01*
Y2057800D01*
Y2065417D01*
X2587600D01*
X2602835Y2067957D02*
X2605374D01*
Y2065417D01*
X2602835D01*
Y2067957D01*
Y2060339D02*
X2605374D01*
Y2057800D01*
X2602835D01*
Y2060339D01*
X2630766Y2070496D02*
X2633305Y2073035D01*
X2638383D01*
X2640923Y2070496D01*
Y2060339D01*
X2638383Y2057800D01*
X2633305D01*
X2630766Y2060339D01*
Y2070496D01*
X2646001Y2057800D02*
Y2060339D01*
X2648540D01*
Y2057800D01*
X2646001D01*
X2666314D02*
Y2073035D01*
X2658697Y2065417D01*
X2668853D01*
X2684089Y2073035D02*
X2673932D01*
Y2065417D01*
X2679010Y2067957D01*
X2681549D01*
X2684089Y2065417D01*
Y2060339D01*
X2681549Y2057800D01*
X2676471D01*
X2673932Y2060339D01*
X2689167Y2057800D02*
Y2067957D01*
X2691706D01*
X2694245Y2065417D01*
Y2057800D01*
Y2065417D01*
X2696785Y2067957D01*
X2699324Y2065417D01*
Y2057800D01*
X2704402D02*
Y2067957D01*
X2706941D01*
X2709481Y2065417D01*
Y2057800D01*
Y2065417D01*
X2712020Y2067957D01*
X2714559Y2065417D01*
Y2057800D01*
X2739951D02*
X2734872Y2062878D01*
Y2067957D01*
X2739951Y2073035D01*
X2747568Y2052722D02*
Y2067957D01*
X2755186D01*
X2757725Y2065417D01*
Y2060339D01*
X2755186Y2057800D01*
X2747568D01*
X2765342Y2067957D02*
X2770421D01*
X2772960Y2065417D01*
Y2057800D01*
X2765342D01*
X2762803Y2060339D01*
X2765342Y2062878D01*
X2772960D01*
X2788195Y2073035D02*
Y2057800D01*
X2780577D01*
X2778038Y2060339D01*
Y2065417D01*
X2780577Y2067957D01*
X2788195D01*
X2793273Y2057800D02*
X2798352Y2062878D01*
Y2067957D01*
X2793273Y2073035D01*
X2821204Y2057800D02*
X2831361Y2067957D01*
X2851674Y2070496D02*
X2854214Y2073035D01*
X2859292D01*
X2861831Y2070496D01*
Y2060339D01*
X2859292Y2057800D01*
X2854214D01*
X2851674Y2060339D01*
Y2070496D01*
X2866909Y2057800D02*
Y2060339D01*
X2869449D01*
Y2057800D01*
X2866909D01*
X2889762D02*
X2879605D01*
X2889762Y2067957D01*
Y2070496D01*
X2887223Y2073035D01*
X2882144D01*
X2879605Y2070496D01*
X2894840Y2057800D02*
Y2067957D01*
X2897380D01*
X2899919Y2065417D01*
Y2057800D01*
Y2065417D01*
X2902458Y2067957D01*
X2904997Y2065417D01*
Y2057800D01*
X2910076D02*
Y2067957D01*
X2912615D01*
X2915154Y2065417D01*
Y2057800D01*
Y2065417D01*
X2917693Y2067957D01*
X2920232Y2065417D01*
Y2057800D01*
X2945624D02*
X2940546Y2062878D01*
Y2067957D01*
X2945624Y2073035D01*
X2963398D02*
Y2057800D01*
X2955781D01*
X2953242Y2060339D01*
Y2065417D01*
X2955781Y2067957D01*
X2963398D01*
X2968477D02*
Y2057800D01*
Y2062878D01*
X2971016Y2065417D01*
X2973555Y2067957D01*
X2976094D01*
X2983712Y2057800D02*
X2988790D01*
X2986251D01*
Y2067957D01*
X2983712D01*
X2996407Y2057800D02*
X3001486D01*
X2998947D01*
Y2073035D01*
X2996407D01*
X3009103Y2057800D02*
X3014182D01*
X3011643D01*
Y2073035D01*
X3009103D01*
X3021799Y2057800D02*
X3026878Y2062878D01*
Y2067957D01*
X3021799Y2073035D01*
X3034495Y2057800D02*
Y2060339D01*
X3037035D01*
Y2057800D01*
X3034495D01*
X3062426Y2073035D02*
Y2057800D01*
X3070044D01*
X3072583Y2060339D01*
Y2070496D01*
X3070044Y2073035D01*
X3062426D01*
X3077661Y2067957D02*
Y2057800D01*
Y2062878D01*
X3080201Y2065417D01*
X3082740Y2067957D01*
X3085279D01*
X3092896Y2057800D02*
X3097975D01*
X3095435D01*
Y2067957D01*
X3092896D01*
X3105592Y2057800D02*
X3110670D01*
X3108131D01*
Y2073035D01*
X3105592D01*
X3118288Y2057800D02*
X3123366D01*
X3120827D01*
Y2073035D01*
X3118288D01*
X3130984Y2057800D02*
X3136062D01*
X3133523D01*
Y2067957D01*
X3130984D01*
X3143680Y2057800D02*
Y2067957D01*
X3151298D01*
X3153837Y2065417D01*
Y2057800D01*
X3163994Y2052722D02*
X3166533D01*
X3169072Y2055261D01*
Y2067957D01*
X3161454D01*
X3158915Y2065417D01*
Y2060339D01*
X3161454Y2057800D01*
X3169072D01*
X3174150Y2067957D02*
X3176689D01*
Y2065417D01*
X3174150D01*
Y2067957D01*
Y2060339D02*
X3176689D01*
Y2057800D01*
X3174150D01*
Y2060339D01*
X3202081Y2073035D02*
Y2057800D01*
X3212238D01*
X3217316D02*
X3222394D01*
X3219855D01*
Y2073035D01*
X3217316Y2070496D01*
X3230012Y2065417D02*
X3240169D01*
X3245247Y2073035D02*
Y2057800D01*
X3255404D01*
X3270639Y2073035D02*
X3265561Y2070496D01*
X3260482Y2065417D01*
Y2060339D01*
X3263021Y2057800D01*
X3268100D01*
X3270639Y2060339D01*
Y2062878D01*
X3268100Y2065417D01*
X3260482D01*
X2247350Y2082800D02*
Y2098035D01*
X2252428Y2092957D01*
X2257507Y2098035D01*
Y2082800D01*
X2262585D02*
X2267663D01*
X2265124D01*
Y2092957D01*
X2262585D01*
X2275281Y2082800D02*
Y2092957D01*
X2282899D01*
X2285438Y2090417D01*
Y2082800D01*
X2290516D02*
X2295594D01*
X2293055D01*
Y2092957D01*
X2290516D01*
X2303212Y2082800D02*
Y2092957D01*
X2305751D01*
X2308290Y2090417D01*
Y2082800D01*
Y2090417D01*
X2310829Y2092957D01*
X2313369Y2090417D01*
Y2082800D01*
X2318447Y2092957D02*
Y2085339D01*
X2320986Y2082800D01*
X2328604D01*
Y2092957D01*
X2333682Y2082800D02*
Y2092957D01*
X2336221D01*
X2338760Y2090417D01*
Y2082800D01*
Y2090417D01*
X2341300Y2092957D01*
X2343839Y2090417D01*
Y2082800D01*
X2374309Y2095496D02*
X2371770Y2098035D01*
X2366691D01*
X2364152Y2095496D01*
Y2085339D01*
X2366691Y2082800D01*
X2371770D01*
X2374309Y2085339D01*
Y2090417D01*
X2369231D01*
X2381927Y2092957D02*
X2387005D01*
X2389544Y2090417D01*
Y2082800D01*
X2381927D01*
X2379387Y2085339D01*
X2381927Y2087878D01*
X2389544D01*
X2394622Y2077722D02*
Y2092957D01*
X2402240D01*
X2404779Y2090417D01*
Y2085339D01*
X2402240Y2082800D01*
X2394622D01*
X2409857Y2092957D02*
X2412397D01*
Y2090417D01*
X2409857D01*
Y2092957D01*
Y2085339D02*
X2412397D01*
Y2082800D01*
X2409857D01*
Y2085339D01*
X2437788Y2082800D02*
X2442867D01*
X2440328D01*
Y2098035D01*
X2437788Y2095496D01*
X2460641Y2098035D02*
X2450484D01*
Y2090417D01*
X2455563Y2092957D01*
X2458102D01*
X2460641Y2090417D01*
Y2085339D01*
X2458102Y2082800D01*
X2453024D01*
X2450484Y2085339D01*
X2465719Y2095496D02*
X2468259Y2098035D01*
X2473337D01*
X2475876Y2095496D01*
Y2085339D01*
X2473337Y2082800D01*
X2468259D01*
X2465719Y2085339D01*
Y2095496D01*
X2480954Y2092957D02*
Y2085339D01*
X2483494Y2082800D01*
X2491111D01*
Y2092957D01*
X2496190Y2082800D02*
Y2092957D01*
X2498729D01*
X2501268Y2090417D01*
Y2082800D01*
Y2090417D01*
X2503807Y2092957D01*
X2506346Y2090417D01*
Y2082800D01*
X2247350Y2107800D02*
Y2123035D01*
X2252428Y2117957D01*
X2257507Y2123035D01*
Y2107800D01*
X2262585D02*
X2267663D01*
X2265124D01*
Y2117957D01*
X2262585D01*
X2275281Y2107800D02*
Y2117957D01*
X2282899D01*
X2285438Y2115417D01*
Y2107800D01*
X2290516D02*
X2295594D01*
X2293055D01*
Y2117957D01*
X2290516D01*
X2303212Y2107800D02*
Y2117957D01*
X2305751D01*
X2308290Y2115417D01*
Y2107800D01*
Y2115417D01*
X2310829Y2117957D01*
X2313369Y2115417D01*
Y2107800D01*
X2318447Y2117957D02*
Y2110339D01*
X2320986Y2107800D01*
X2328604D01*
Y2117957D01*
X2333682Y2107800D02*
Y2117957D01*
X2336221D01*
X2338760Y2115417D01*
Y2107800D01*
Y2115417D01*
X2341300Y2117957D01*
X2343839Y2115417D01*
Y2107800D01*
X2364152Y2123035D02*
X2374309D01*
X2369231D01*
Y2107800D01*
X2379387Y2117957D02*
Y2107800D01*
Y2112878D01*
X2381927Y2115417D01*
X2384466Y2117957D01*
X2387005D01*
X2397162D02*
X2402240D01*
X2404779Y2115417D01*
Y2107800D01*
X2397162D01*
X2394622Y2110339D01*
X2397162Y2112878D01*
X2404779D01*
X2420014Y2117957D02*
X2412397D01*
X2409857Y2115417D01*
Y2110339D01*
X2412397Y2107800D01*
X2420014D01*
X2425092D02*
Y2123035D01*
Y2112878D02*
X2432710Y2117957D01*
X2425092Y2112878D02*
X2432710Y2107800D01*
X2440328Y2117957D02*
X2442867D01*
Y2115417D01*
X2440328D01*
Y2117957D01*
Y2110339D02*
X2442867D01*
Y2107800D01*
X2440328D01*
Y2110339D01*
X2478415Y2107800D02*
X2468259D01*
X2478415Y2117957D01*
Y2120496D01*
X2475876Y2123035D01*
X2470798D01*
X2468259Y2120496D01*
X2483494D02*
X2486033Y2123035D01*
X2491111D01*
X2493650Y2120496D01*
Y2110339D01*
X2491111Y2107800D01*
X2486033D01*
X2483494Y2110339D01*
Y2120496D01*
X2498729D02*
X2501268Y2123035D01*
X2506346D01*
X2508885Y2120496D01*
Y2110339D01*
X2506346Y2107800D01*
X2501268D01*
X2498729Y2110339D01*
Y2120496D01*
X2513964Y2117957D02*
Y2110339D01*
X2516503Y2107800D01*
X2524120D01*
Y2117957D01*
X2529199Y2107800D02*
Y2117957D01*
X2531738D01*
X2534277Y2115417D01*
Y2107800D01*
Y2115417D01*
X2536816Y2117957D01*
X2539356Y2115417D01*
Y2107800D01*
X2247350Y2148035D02*
Y2132800D01*
X2254967D01*
X2257507Y2135339D01*
Y2137878D01*
X2254967Y2140417D01*
X2247350D01*
X2254967D01*
X2257507Y2142957D01*
Y2145496D01*
X2254967Y2148035D01*
X2247350D01*
X2265124Y2132800D02*
X2270203D01*
X2272742Y2135339D01*
Y2140417D01*
X2270203Y2142957D01*
X2265124D01*
X2262585Y2140417D01*
Y2135339D01*
X2265124Y2132800D01*
X2280359Y2142957D02*
X2285438D01*
X2287977Y2140417D01*
Y2132800D01*
X2280359D01*
X2277820Y2135339D01*
X2280359Y2137878D01*
X2287977D01*
X2293055Y2142957D02*
Y2132800D01*
Y2137878D01*
X2295594Y2140417D01*
X2298134Y2142957D01*
X2300673D01*
X2318447Y2148035D02*
Y2132800D01*
X2310829D01*
X2308290Y2135339D01*
Y2140417D01*
X2310829Y2142957D01*
X2318447D01*
X2338760Y2132800D02*
X2343839D01*
X2341300D01*
Y2142957D01*
X2338760D01*
X2351456Y2132800D02*
Y2142957D01*
X2359074D01*
X2361613Y2140417D01*
Y2132800D01*
X2369231D02*
Y2145496D01*
Y2140417D01*
X2366691D01*
X2371770D01*
X2369231D01*
Y2145496D01*
X2371770Y2148035D01*
X2381927Y2132800D02*
X2387005D01*
X2389544Y2135339D01*
Y2140417D01*
X2387005Y2142957D01*
X2381927D01*
X2379387Y2140417D01*
Y2135339D01*
X2381927Y2132800D01*
X2247350Y1448035D02*
X2257507D01*
Y1445496D01*
X2247350Y1435339D01*
Y1432800D01*
X2262585D02*
Y1435339D01*
X2265124D01*
Y1432800D01*
X2262585D01*
X2290516D02*
Y1448035D01*
X2298134D01*
X2300673Y1445496D01*
Y1440418D01*
X2298134Y1437878D01*
X2290516D01*
X2305751Y1432800D02*
Y1442957D01*
X2310829Y1448035D01*
X2315908Y1442957D01*
Y1432800D01*
Y1440418D01*
X2305751D01*
X2320986Y1432800D02*
Y1448035D01*
X2331143Y1432800D01*
Y1448035D01*
X2346378D02*
X2336221D01*
Y1432800D01*
X2346378D01*
X2336221Y1440418D02*
X2341300D01*
X2351456Y1448035D02*
Y1432800D01*
X2361613D01*
X2366691Y1448035D02*
X2371770D01*
X2369231D01*
Y1432800D01*
X2366691D01*
X2371770D01*
X2379387Y1448035D02*
X2389544D01*
Y1445496D01*
X2379387Y1435339D01*
Y1432800D01*
X2389544D01*
X2404779Y1448035D02*
X2394622D01*
Y1432800D01*
X2404779D01*
X2394622Y1440418D02*
X2399701D01*
X2425092Y1448035D02*
X2435249D01*
X2430171D01*
Y1432800D01*
X2440328Y1448035D02*
Y1432800D01*
Y1440418D01*
X2450484D01*
Y1448035D01*
Y1432800D01*
X2465719Y1448035D02*
X2455563D01*
Y1432800D01*
X2465719D01*
X2455563Y1440418D02*
X2460641D01*
X2486033Y1448035D02*
Y1432800D01*
X2493650D01*
X2496190Y1435339D01*
Y1437878D01*
X2493650Y1440418D01*
X2486033D01*
X2493650D01*
X2496190Y1442957D01*
Y1445496D01*
X2493650Y1448035D01*
X2486033D01*
X2508885D02*
X2503807D01*
X2501268Y1445496D01*
Y1435339D01*
X2503807Y1432800D01*
X2508885D01*
X2511425Y1435339D01*
Y1445496D01*
X2508885Y1448035D01*
X2516503Y1432800D02*
Y1442957D01*
X2521581Y1448035D01*
X2526660Y1442957D01*
Y1432800D01*
Y1440418D01*
X2516503D01*
X2531738Y1432800D02*
Y1448035D01*
X2539356D01*
X2541895Y1445496D01*
Y1440418D01*
X2539356Y1437878D01*
X2531738D01*
X2536816D02*
X2541895Y1432800D01*
X2546973Y1448035D02*
Y1432800D01*
X2554591D01*
X2557130Y1435339D01*
Y1445496D01*
X2554591Y1448035D01*
X2546973D01*
X2582522Y1432800D02*
X2577443Y1437878D01*
Y1442957D01*
X2582522Y1448035D01*
X2600296Y1432800D02*
X2590139D01*
X2600296Y1442957D01*
Y1445496D01*
X2597757Y1448035D01*
X2592678D01*
X2590139Y1445496D01*
X2605374Y1432800D02*
Y1448035D01*
X2612992D01*
X2615531Y1445496D01*
Y1440418D01*
X2612992Y1437878D01*
X2605374D01*
X2630766Y1445496D02*
X2628227Y1448035D01*
X2623148D01*
X2620609Y1445496D01*
Y1435339D01*
X2623148Y1432800D01*
X2628227D01*
X2630766Y1435339D01*
X2646001Y1445496D02*
X2643462Y1448035D01*
X2638383D01*
X2635844Y1445496D01*
Y1442957D01*
X2638383Y1440418D01*
X2643462D01*
X2646001Y1437878D01*
Y1435339D01*
X2643462Y1432800D01*
X2638383D01*
X2635844Y1435339D01*
X2666314Y1432800D02*
Y1448035D01*
X2673932D01*
X2676471Y1445496D01*
Y1440418D01*
X2673932Y1437878D01*
X2666314D01*
X2691706Y1448035D02*
X2681550D01*
Y1432800D01*
X2691706D01*
X2681550Y1440418D02*
X2686628D01*
X2696785Y1432800D02*
Y1448035D01*
X2704402D01*
X2706941Y1445496D01*
Y1440418D01*
X2704402Y1437878D01*
X2696785D01*
X2701863D02*
X2706941Y1432800D01*
X2727255D02*
Y1448035D01*
X2734872D01*
X2737411Y1445496D01*
Y1440418D01*
X2734872Y1437878D01*
X2727255D01*
X2742490Y1432800D02*
Y1442957D01*
X2747568Y1448035D01*
X2752646Y1442957D01*
Y1432800D01*
Y1440418D01*
X2742490D01*
X2757725Y1432800D02*
Y1448035D01*
X2767881Y1432800D01*
Y1448035D01*
X2783117D02*
X2772960D01*
Y1432800D01*
X2783117D01*
X2772960Y1440418D02*
X2778038D01*
X2788195Y1448035D02*
Y1432800D01*
X2798352D01*
X2803430D02*
X2808509Y1437878D01*
Y1442957D01*
X2803430Y1448035D01*
X2816126Y1432800D02*
Y1435339D01*
X2818665D01*
Y1432800D01*
X2816126D01*
X2844057D02*
Y1448035D01*
X2851674D01*
X2854214Y1445496D01*
Y1440418D01*
X2851674Y1437878D01*
X2844057D01*
X2859292Y1448035D02*
Y1432800D01*
X2869449D01*
X2874527D02*
Y1442957D01*
X2879605Y1448035D01*
X2884684Y1442957D01*
Y1432800D01*
Y1440418D01*
X2874527D01*
X2899919Y1445496D02*
X2897380Y1448035D01*
X2892301D01*
X2889762Y1445496D01*
Y1435339D01*
X2892301Y1432800D01*
X2897380D01*
X2899919Y1435339D01*
X2915154Y1448035D02*
X2904997D01*
Y1432800D01*
X2915154D01*
X2904997Y1440418D02*
X2910076D01*
X2945624Y1448035D02*
X2935468D01*
Y1440418D01*
X2940546D01*
X2935468D01*
Y1432800D01*
X2950703Y1448035D02*
X2955781D01*
X2953242D01*
Y1432800D01*
X2950703D01*
X2955781D01*
X2963398Y1448035D02*
Y1432800D01*
X2971016D01*
X2973555Y1435339D01*
Y1445496D01*
X2971016Y1448035D01*
X2963398D01*
X2978633D02*
Y1435339D01*
X2981172Y1432800D01*
X2986251D01*
X2988790Y1435339D01*
Y1448035D01*
X3004025Y1445496D02*
X3001486Y1448035D01*
X2996408D01*
X2993868Y1445496D01*
Y1435339D01*
X2996408Y1432800D01*
X3001486D01*
X3004025Y1435339D01*
X3009104Y1448035D02*
X3014182D01*
X3011643D01*
Y1432800D01*
X3009104D01*
X3014182D01*
X3021800D02*
Y1442957D01*
X3026878Y1448035D01*
X3031956Y1442957D01*
Y1432800D01*
Y1440418D01*
X3021800D01*
X3037035Y1448035D02*
Y1432800D01*
X3047191D01*
X3062426Y1445496D02*
X3059887Y1448035D01*
X3054809D01*
X3052270Y1445496D01*
Y1442957D01*
X3054809Y1440418D01*
X3059887D01*
X3062426Y1437878D01*
Y1435339D01*
X3059887Y1432800D01*
X3054809D01*
X3052270Y1435339D01*
X3090357Y1448035D02*
X3085279D01*
X3082740Y1445496D01*
Y1435339D01*
X3085279Y1432800D01*
X3090357D01*
X3092896Y1435339D01*
Y1445496D01*
X3090357Y1448035D01*
X3097975Y1432800D02*
Y1448035D01*
X3108132Y1432800D01*
Y1448035D01*
X3128445D02*
X3138602D01*
X3133523D01*
Y1432800D01*
X3143680Y1448035D02*
Y1432800D01*
Y1440418D01*
X3153837D01*
Y1448035D01*
Y1432800D01*
X3169072Y1448035D02*
X3158915D01*
Y1432800D01*
X3169072D01*
X3158915Y1440418D02*
X3163994D01*
X3189385Y1432800D02*
Y1448035D01*
X3197003D01*
X3199542Y1445496D01*
Y1440418D01*
X3197003Y1437878D01*
X3189385D01*
X3204620Y1432800D02*
Y1442957D01*
X3209699Y1448035D01*
X3214777Y1442957D01*
Y1432800D01*
Y1440418D01*
X3204620D01*
X3219855Y1432800D02*
Y1448035D01*
X3230012Y1432800D01*
Y1448035D01*
X3245247D02*
X3235091D01*
Y1432800D01*
X3245247D01*
X3235091Y1440418D02*
X3240169D01*
X3250326Y1448035D02*
Y1432800D01*
X3260482D01*
X3290952Y1445496D02*
X3288413Y1448035D01*
X3283335D01*
X3280796Y1445496D01*
Y1442957D01*
X3283335Y1440418D01*
X3288413D01*
X3290952Y1437878D01*
Y1435339D01*
X3288413Y1432800D01*
X3283335D01*
X3280796Y1435339D01*
X3296031Y1448035D02*
X3306187D01*
X3301109D01*
Y1432800D01*
X3311266D02*
Y1448035D01*
X3318883D01*
X3321423Y1445496D01*
Y1440418D01*
X3318883Y1437878D01*
X3311266D01*
X3316344D02*
X3321423Y1432800D01*
X3326501Y1448035D02*
X3331579D01*
X3329040D01*
Y1432800D01*
X3326501D01*
X3331579D01*
X3339197D02*
Y1448035D01*
X3346814D01*
X3349354Y1445496D01*
Y1440418D01*
X3346814Y1437878D01*
X3339197D01*
X3364589Y1445496D02*
X3362049Y1448035D01*
X3356971D01*
X3354432Y1445496D01*
Y1442957D01*
X3356971Y1440418D01*
X3362049D01*
X3364589Y1437878D01*
Y1435339D01*
X3362049Y1432800D01*
X3356971D01*
X3354432Y1435339D01*
X3384902Y1432800D02*
Y1442957D01*
X3389980Y1448035D01*
X3395059Y1442957D01*
Y1432800D01*
Y1440418D01*
X3384902D01*
X3410294Y1445496D02*
X3407755Y1448035D01*
X3402676D01*
X3400137Y1445496D01*
Y1442957D01*
X3402676Y1440418D01*
X3407755D01*
X3410294Y1437878D01*
Y1435339D01*
X3407755Y1432800D01*
X3402676D01*
X3400137Y1435339D01*
X3440764Y1448035D02*
X3430607D01*
Y1440418D01*
X3435686D01*
X3430607D01*
Y1432800D01*
X3453460Y1448035D02*
X3448381D01*
X3445842Y1445496D01*
Y1435339D01*
X3448381Y1432800D01*
X3453460D01*
X3455999Y1435339D01*
Y1445496D01*
X3453460Y1448035D01*
X3461077D02*
Y1432800D01*
X3471234D01*
X3476313Y1448035D02*
Y1432800D01*
X3486469D01*
X3499165Y1448035D02*
X3494087D01*
X3491548Y1445496D01*
Y1435339D01*
X3494087Y1432800D01*
X3499165D01*
X3501704Y1435339D01*
Y1445496D01*
X3499165Y1448035D01*
X3506783D02*
Y1432800D01*
X3511861Y1437878D01*
X3516939Y1432800D01*
Y1448035D01*
X3532174Y1445496D02*
X3529635Y1448035D01*
X3524557D01*
X3522018Y1445496D01*
Y1442957D01*
X3524557Y1440418D01*
X3529635D01*
X3532174Y1437878D01*
Y1435339D01*
X3529635Y1432800D01*
X3524557D01*
X3522018Y1435339D01*
X3537253Y1442957D02*
X3539792D01*
Y1440418D01*
X3537253D01*
Y1442957D01*
Y1435339D02*
X3539792D01*
Y1432800D01*
X3537253D01*
Y1435339D01*
X2297350Y1415417D02*
X2307507D01*
X2337977Y1423035D02*
X2327820D01*
Y1415417D01*
X2332899D01*
X2327820D01*
Y1407800D01*
X2343055Y1423035D02*
X2348134D01*
X2345594D01*
Y1407800D01*
X2343055D01*
X2348134D01*
X2355751Y1423035D02*
Y1407800D01*
X2363369D01*
X2365908Y1410339D01*
Y1420496D01*
X2363369Y1423035D01*
X2355751D01*
X2370986D02*
Y1410339D01*
X2373525Y1407800D01*
X2378604D01*
X2381143Y1410339D01*
Y1423035D01*
X2396378Y1420496D02*
X2393839Y1423035D01*
X2388760D01*
X2386221Y1420496D01*
Y1410339D01*
X2388760Y1407800D01*
X2393839D01*
X2396378Y1410339D01*
X2401456Y1423035D02*
X2406535D01*
X2403996D01*
Y1407800D01*
X2401456D01*
X2406535D01*
X2414152D02*
Y1417957D01*
X2419230Y1423035D01*
X2424309Y1417957D01*
Y1407800D01*
Y1415417D01*
X2414152D01*
X2429387Y1423035D02*
Y1407800D01*
X2439544D01*
X2459857Y1423035D02*
Y1407800D01*
X2467475D01*
X2470014Y1410339D01*
Y1420496D01*
X2467475Y1423035D01*
X2459857D01*
X2475092D02*
X2480171D01*
X2477632D01*
Y1407800D01*
X2475092D01*
X2480171D01*
X2487788D02*
Y1417957D01*
X2492867Y1423035D01*
X2497945Y1417957D01*
Y1407800D01*
Y1415417D01*
X2487788D01*
X2503023Y1407800D02*
Y1423035D01*
X2508102Y1417957D01*
X2513180Y1423035D01*
Y1407800D01*
X2518259Y1423035D02*
X2528415D01*
X2523337D01*
Y1407800D01*
X2543650Y1423035D02*
X2533494D01*
Y1407800D01*
X2543650D01*
X2533494Y1415417D02*
X2538572D01*
X2548729Y1407800D02*
Y1423035D01*
X2556346D01*
X2558885Y1420496D01*
Y1415417D01*
X2556346Y1412878D01*
X2548729D01*
X2553807D02*
X2558885Y1407800D01*
X2579199D02*
X2584277D01*
X2581738D01*
Y1423035D01*
X2579199Y1420496D01*
X2591895Y1415417D02*
X2602051D01*
X2607130Y1407800D02*
X2612208D01*
X2609669D01*
Y1423035D01*
X2607130Y1420496D01*
X2619826Y1407800D02*
Y1410339D01*
X2622365D01*
Y1407800D01*
X2619826D01*
X2642678Y1423035D02*
X2632521D01*
Y1415417D01*
X2637600Y1417957D01*
X2640139D01*
X2642678Y1415417D01*
Y1410339D01*
X2640139Y1407800D01*
X2635061D01*
X2632521Y1410339D01*
X2647757Y1407800D02*
Y1423035D01*
X2652835Y1417957D01*
X2657913Y1423035D01*
Y1407800D01*
X2662992D02*
Y1423035D01*
X2668070Y1417957D01*
X2673148Y1423035D01*
Y1407800D01*
X2680766Y1405261D02*
X2683305Y1407800D01*
Y1410339D01*
X2680766D01*
Y1407800D01*
X2683305D01*
X2680766Y1405261D01*
X2678227Y1402722D01*
X2718853Y1420496D02*
X2716314Y1423035D01*
X2711236D01*
X2708697Y1420496D01*
Y1417957D01*
X2711236Y1415417D01*
X2716314D01*
X2718853Y1412878D01*
Y1410339D01*
X2716314Y1407800D01*
X2711236D01*
X2708697Y1410339D01*
X2731549Y1423035D02*
X2726471D01*
X2723932Y1420496D01*
Y1410339D01*
X2726471Y1407800D01*
X2731549D01*
X2734089Y1410339D01*
Y1420496D01*
X2731549Y1423035D01*
X2739167D02*
Y1407800D01*
X2749324D01*
X2754402Y1423035D02*
Y1407800D01*
X2762020D01*
X2764559Y1410339D01*
Y1420496D01*
X2762020Y1423035D01*
X2754402D01*
X2779794D02*
X2769637D01*
Y1407800D01*
X2779794D01*
X2769637Y1415417D02*
X2774716D01*
X2784872Y1407800D02*
Y1423035D01*
X2792490D01*
X2795029Y1420496D01*
Y1415417D01*
X2792490Y1412878D01*
X2784872D01*
X2789951D02*
X2795029Y1407800D01*
X2815342D02*
Y1423035D01*
X2820421Y1417957D01*
X2825499Y1423035D01*
Y1407800D01*
X2830577D02*
Y1417957D01*
X2835656Y1423035D01*
X2840734Y1417957D01*
Y1407800D01*
Y1415417D01*
X2830577D01*
X2855969Y1420496D02*
X2853430Y1423035D01*
X2848352D01*
X2845812Y1420496D01*
Y1417957D01*
X2848352Y1415417D01*
X2853430D01*
X2855969Y1412878D01*
Y1410339D01*
X2853430Y1407800D01*
X2848352D01*
X2845812Y1410339D01*
X2861048Y1423035D02*
Y1407800D01*
Y1412878D01*
X2871204Y1423035D01*
X2863587Y1415417D01*
X2871204Y1407800D01*
X2899135Y1423035D02*
X2894057D01*
X2891518Y1420496D01*
Y1410339D01*
X2894057Y1407800D01*
X2899135D01*
X2901674Y1410339D01*
Y1420496D01*
X2899135Y1423035D01*
X2906753Y1407800D02*
Y1423035D01*
X2914370D01*
X2916909Y1420496D01*
Y1415417D01*
X2914370Y1412878D01*
X2906753D01*
X2932144Y1423035D02*
X2921988D01*
Y1407800D01*
X2932144D01*
X2921988Y1415417D02*
X2927066D01*
X2937223Y1407800D02*
Y1423035D01*
X2947380Y1407800D01*
Y1423035D01*
X2952458D02*
X2957536D01*
X2954997D01*
Y1407800D01*
X2952458D01*
X2957536D01*
X2965154D02*
Y1423035D01*
X2975311Y1407800D01*
Y1423035D01*
X2990546Y1420496D02*
X2988007Y1423035D01*
X2982928D01*
X2980389Y1420496D01*
Y1410339D01*
X2982928Y1407800D01*
X2988007D01*
X2990546Y1410339D01*
Y1415417D01*
X2985468D01*
X3010859Y1407800D02*
Y1417957D01*
X3015938Y1423035D01*
X3021016Y1417957D01*
Y1407800D01*
Y1415417D01*
X3010859D01*
X3026094Y1423035D02*
X3036251D01*
X3031172D01*
Y1407800D01*
X3056564Y1423035D02*
Y1407800D01*
X3066721D01*
X3081956Y1423035D02*
X3071799D01*
Y1407800D01*
X3081956D01*
X3071799Y1415417D02*
X3076878D01*
X3087035Y1407800D02*
Y1417957D01*
X3092113Y1423035D01*
X3097191Y1417957D01*
Y1407800D01*
Y1415417D01*
X3087035D01*
X3112426Y1420496D02*
X3109887Y1423035D01*
X3104809D01*
X3102270Y1420496D01*
Y1417957D01*
X3104809Y1415417D01*
X3109887D01*
X3112426Y1412878D01*
Y1410339D01*
X3109887Y1407800D01*
X3104809D01*
X3102270Y1410339D01*
X3117505Y1423035D02*
X3127661D01*
X3122583D01*
Y1407800D01*
X3147975D02*
X3153053D01*
X3150514D01*
Y1423035D01*
X3147975Y1420496D01*
X3160671Y1407800D02*
Y1423035D01*
X3165749Y1417957D01*
X3170827Y1423035D01*
Y1407800D01*
X3175906D02*
Y1423035D01*
X3180984Y1417957D01*
X3186063Y1423035D01*
Y1407800D01*
X3216533Y1420496D02*
X3213994Y1423035D01*
X3208915D01*
X3206376Y1420496D01*
Y1410339D01*
X3208915Y1407800D01*
X3213994D01*
X3216533Y1410339D01*
Y1415417D01*
X3211454D01*
X3221611Y1407800D02*
Y1423035D01*
X3229229D01*
X3231768Y1420496D01*
Y1415417D01*
X3229229Y1412878D01*
X3221611D01*
X3226689D02*
X3231768Y1407800D01*
X3247003Y1423035D02*
X3236846D01*
Y1407800D01*
X3247003D01*
X3236846Y1415417D02*
X3241924D01*
X3252081Y1407800D02*
Y1417957D01*
X3257159Y1423035D01*
X3262238Y1417957D01*
Y1407800D01*
Y1415417D01*
X3252081D01*
X3267316Y1423035D02*
X3277473D01*
X3272394D01*
Y1407800D01*
X3292708Y1423035D02*
X3282551D01*
Y1407800D01*
X3292708D01*
X3282551Y1415417D02*
X3287630D01*
X3297786Y1407800D02*
Y1423035D01*
X3305404D01*
X3307943Y1420496D01*
Y1415417D01*
X3305404Y1412878D01*
X3297786D01*
X3302865D02*
X3307943Y1407800D01*
X3328257Y1423035D02*
X3338413D01*
X3333335D01*
Y1407800D01*
X3343492Y1423035D02*
Y1407800D01*
Y1415417D01*
X3353648D01*
Y1423035D01*
Y1407800D01*
X3358727D02*
Y1417957D01*
X3363805Y1423035D01*
X3368883Y1417957D01*
Y1407800D01*
Y1415417D01*
X3358727D01*
X3373962Y1407800D02*
Y1423035D01*
X3384118Y1407800D01*
Y1423035D01*
X3414589D02*
X3404432D01*
Y1415417D01*
X3409510D01*
X3404432D01*
Y1407800D01*
X3419667Y1423035D02*
X3424745D01*
X3422206D01*
Y1407800D01*
X3419667D01*
X3424745D01*
X3432363Y1423035D02*
Y1407800D01*
X3439980D01*
X3442520Y1410339D01*
Y1420496D01*
X3439980Y1423035D01*
X3432363D01*
X3447598D02*
Y1410339D01*
X3450137Y1407800D01*
X3455215D01*
X3457755Y1410339D01*
Y1423035D01*
X3472990Y1420496D02*
X3470450Y1423035D01*
X3465372D01*
X3462833Y1420496D01*
Y1410339D01*
X3465372Y1407800D01*
X3470450D01*
X3472990Y1410339D01*
X3478068Y1423035D02*
X3483146D01*
X3480607D01*
Y1407800D01*
X3478068D01*
X3483146D01*
X3490764D02*
Y1417957D01*
X3495842Y1423035D01*
X3500921Y1417957D01*
Y1407800D01*
Y1415417D01*
X3490764D01*
X3505999Y1423035D02*
Y1407800D01*
X3516156D01*
X2297350Y1390417D02*
X2307507D01*
X2327820Y1382800D02*
Y1398035D01*
X2332899Y1392957D01*
X2337977Y1398035D01*
Y1382800D01*
X2343055Y1398035D02*
X2348134D01*
X2345594D01*
Y1382800D01*
X2343055D01*
X2348134D01*
X2355751D02*
Y1398035D01*
X2365908Y1382800D01*
Y1398035D01*
X2370986D02*
X2376064D01*
X2373525D01*
Y1382800D01*
X2370986D01*
X2376064D01*
X2383682D02*
Y1398035D01*
X2388760Y1392957D01*
X2393839Y1398035D01*
Y1382800D01*
X2398917Y1398035D02*
Y1385339D01*
X2401456Y1382800D01*
X2406535D01*
X2409074Y1385339D01*
Y1398035D01*
X2414152Y1382800D02*
Y1398035D01*
X2419230Y1392957D01*
X2424309Y1398035D01*
Y1382800D01*
X2452240D02*
Y1398035D01*
X2444622Y1390417D01*
X2454779D01*
X2459857Y1382800D02*
Y1398035D01*
X2464936Y1392957D01*
X2470014Y1398035D01*
Y1382800D01*
X2475092D02*
Y1398035D01*
X2480171Y1392957D01*
X2485249Y1398035D01*
Y1382800D01*
X2505563Y1398035D02*
Y1382800D01*
X2513180D01*
X2515719Y1385339D01*
Y1395496D01*
X2513180Y1398035D01*
X2505563D01*
X2520798D02*
X2525876D01*
X2523337D01*
Y1382800D01*
X2520798D01*
X2525876D01*
X2543650Y1395496D02*
X2541111Y1398035D01*
X2536033D01*
X2533494Y1395496D01*
Y1392957D01*
X2536033Y1390417D01*
X2541111D01*
X2543650Y1387878D01*
Y1385339D01*
X2541111Y1382800D01*
X2536033D01*
X2533494Y1385339D01*
X2548729Y1398035D02*
X2558885D01*
X2553807D01*
Y1382800D01*
X2563964D02*
Y1392957D01*
X2569042Y1398035D01*
X2574120Y1392957D01*
Y1382800D01*
Y1390417D01*
X2563964D01*
X2579199Y1382800D02*
Y1398035D01*
X2589355Y1382800D01*
Y1398035D01*
X2604590Y1395496D02*
X2602051Y1398035D01*
X2596973D01*
X2594434Y1395496D01*
Y1385339D01*
X2596973Y1382800D01*
X2602051D01*
X2604590Y1385339D01*
X2619826Y1398035D02*
X2609669D01*
Y1382800D01*
X2619826D01*
X2609669Y1390417D02*
X2614747D01*
X2650296Y1398035D02*
X2640139D01*
Y1390417D01*
X2645217D01*
X2640139D01*
Y1382800D01*
X2655374D02*
Y1398035D01*
X2662992D01*
X2665531Y1395496D01*
Y1390417D01*
X2662992Y1387878D01*
X2655374D01*
X2660453D02*
X2665531Y1382800D01*
X2678227Y1398035D02*
X2673148D01*
X2670609Y1395496D01*
Y1385339D01*
X2673148Y1382800D01*
X2678227D01*
X2680766Y1385339D01*
Y1395496D01*
X2678227Y1398035D01*
X2685844Y1382800D02*
Y1398035D01*
X2690923Y1392957D01*
X2696001Y1398035D01*
Y1382800D01*
X2716314Y1398035D02*
X2726471D01*
X2721393D01*
Y1382800D01*
X2731549Y1398035D02*
Y1382800D01*
Y1390417D01*
X2741706D01*
Y1398035D01*
Y1382800D01*
X2756941Y1398035D02*
X2746785D01*
Y1382800D01*
X2756941D01*
X2746785Y1390417D02*
X2751863D01*
X2777255Y1382800D02*
Y1398035D01*
X2784872D01*
X2787411Y1395496D01*
Y1390417D01*
X2784872Y1387878D01*
X2777255D01*
X2792490Y1382800D02*
Y1392957D01*
X2797568Y1398035D01*
X2802646Y1392957D01*
Y1382800D01*
Y1390417D01*
X2792490D01*
X2807725Y1382800D02*
Y1398035D01*
X2817881Y1382800D01*
Y1398035D01*
X2833117D02*
X2822960D01*
Y1382800D01*
X2833117D01*
X2822960Y1390417D02*
X2828038D01*
X2838195Y1398035D02*
Y1382800D01*
X2848352D01*
X2878822Y1398035D02*
X2868665D01*
Y1382800D01*
X2878822D01*
X2868665Y1390417D02*
X2873744D01*
X2883900Y1398035D02*
Y1382800D01*
X2891518D01*
X2894057Y1385339D01*
Y1395496D01*
X2891518Y1398035D01*
X2883900D01*
X2909292Y1395496D02*
X2906753Y1398035D01*
X2901674D01*
X2899135Y1395496D01*
Y1385339D01*
X2901674Y1382800D01*
X2906753D01*
X2909292Y1385339D01*
Y1390417D01*
X2904214D01*
X2924527Y1398035D02*
X2914370D01*
Y1382800D01*
X2924527D01*
X2914370Y1390417D02*
X2919449D01*
X2297350Y1365417D02*
X2307507D01*
X2327820Y1370496D02*
X2330359Y1373035D01*
X2335438D01*
X2337977Y1370496D01*
Y1367957D01*
X2335438Y1365417D01*
X2332899D01*
X2335438D01*
X2337977Y1362878D01*
Y1360339D01*
X2335438Y1357800D01*
X2330359D01*
X2327820Y1360339D01*
X2368447Y1373035D02*
X2358290D01*
Y1365417D01*
X2363369D01*
X2358290D01*
Y1357800D01*
X2373525Y1373035D02*
X2378604D01*
X2376064D01*
Y1357800D01*
X2373525D01*
X2378604D01*
X2386221Y1373035D02*
Y1357800D01*
X2393839D01*
X2396378Y1360339D01*
Y1370496D01*
X2393839Y1373035D01*
X2386221D01*
X2401456D02*
Y1360339D01*
X2403996Y1357800D01*
X2409074D01*
X2411613Y1360339D01*
Y1373035D01*
X2426848Y1370496D02*
X2424309Y1373035D01*
X2419231D01*
X2416691Y1370496D01*
Y1360339D01*
X2419231Y1357800D01*
X2424309D01*
X2426848Y1360339D01*
X2431927Y1373035D02*
X2437005D01*
X2434466D01*
Y1357800D01*
X2431927D01*
X2437005D01*
X2444622D02*
Y1367957D01*
X2449701Y1373035D01*
X2454779Y1367957D01*
Y1357800D01*
Y1365417D01*
X2444622D01*
X2459857Y1373035D02*
Y1357800D01*
X2470014D01*
X2485249Y1370496D02*
X2482710Y1373035D01*
X2477632D01*
X2475092Y1370496D01*
Y1367957D01*
X2477632Y1365417D01*
X2482710D01*
X2485249Y1362878D01*
Y1360339D01*
X2482710Y1357800D01*
X2477632D01*
X2475092Y1360339D01*
X2515719Y1370496D02*
X2513180Y1373035D01*
X2508102D01*
X2505563Y1370496D01*
Y1367957D01*
X2508102Y1365417D01*
X2513180D01*
X2515719Y1362878D01*
Y1360339D01*
X2513180Y1357800D01*
X2508102D01*
X2505563Y1360339D01*
X2520798Y1373035D02*
Y1357800D01*
Y1365417D01*
X2530954D01*
Y1373035D01*
Y1357800D01*
X2543650Y1373035D02*
X2538572D01*
X2536033Y1370496D01*
Y1360339D01*
X2538572Y1357800D01*
X2543650D01*
X2546190Y1360339D01*
Y1370496D01*
X2543650Y1373035D01*
X2551268D02*
Y1360339D01*
X2553807Y1357800D01*
X2558885D01*
X2561425Y1360339D01*
Y1373035D01*
X2566503D02*
Y1357800D01*
X2576660D01*
X2581738Y1373035D02*
Y1357800D01*
X2589355D01*
X2591895Y1360339D01*
Y1370496D01*
X2589355Y1373035D01*
X2581738D01*
X2612208D02*
Y1357800D01*
X2622365D01*
X2627443Y1373035D02*
X2632522D01*
X2629982D01*
Y1357800D01*
X2627443D01*
X2632522D01*
X2650296Y1373035D02*
X2640139D01*
Y1357800D01*
X2650296D01*
X2640139Y1365417D02*
X2645217D01*
X2678227Y1373035D02*
X2673148D01*
X2670609Y1370496D01*
Y1360339D01*
X2673148Y1357800D01*
X2678227D01*
X2680766Y1360339D01*
Y1370496D01*
X2678227Y1373035D01*
X2685844Y1357800D02*
Y1373035D01*
X2696001Y1357800D01*
Y1373035D01*
X2716314D02*
X2726471D01*
X2721393D01*
Y1357800D01*
X2731549Y1373035D02*
Y1357800D01*
X2736628Y1362878D01*
X2741706Y1357800D01*
Y1373035D01*
X2754402D02*
X2749324D01*
X2746785Y1370496D01*
Y1360339D01*
X2749324Y1357800D01*
X2754402D01*
X2756941Y1360339D01*
Y1370496D01*
X2754402Y1373035D01*
X2777255D02*
Y1357800D01*
X2787411D01*
X2792490Y1373035D02*
X2797568D01*
X2795029D01*
Y1357800D01*
X2792490D01*
X2797568D01*
X2805186D02*
Y1373035D01*
X2815342Y1357800D01*
Y1373035D01*
X2830577D02*
X2820421D01*
Y1357800D01*
X2830577D01*
X2820421Y1365417D02*
X2825499D01*
X2845813Y1370496D02*
X2843273Y1373035D01*
X2838195D01*
X2835656Y1370496D01*
Y1367957D01*
X2838195Y1365417D01*
X2843273D01*
X2845813Y1362878D01*
Y1360339D01*
X2843273Y1357800D01*
X2838195D01*
X2835656Y1360339D01*
X2866126Y1373035D02*
X2876283D01*
X2871204D01*
Y1357800D01*
X2881361Y1373035D02*
Y1357800D01*
Y1365417D01*
X2891518D01*
Y1373035D01*
Y1357800D01*
X2896596D02*
Y1367957D01*
X2901674Y1373035D01*
X2906753Y1367957D01*
Y1357800D01*
Y1365417D01*
X2896596D01*
X2911831Y1373035D02*
X2921988D01*
X2916909D01*
Y1357800D01*
X2942301Y1373035D02*
X2947380D01*
X2944840D01*
Y1357800D01*
X2942301D01*
X2947380D01*
X2954997D02*
Y1373035D01*
X2965154Y1357800D01*
Y1373035D01*
X2970232D02*
X2980389D01*
X2975311D01*
Y1357800D01*
X2995624Y1373035D02*
X2985468D01*
Y1357800D01*
X2995624D01*
X2985468Y1365417D02*
X2990546D01*
X3000703Y1357800D02*
Y1373035D01*
X3008320D01*
X3010859Y1370496D01*
Y1365417D01*
X3008320Y1362878D01*
X3000703D01*
X3005781D02*
X3010859Y1357800D01*
X3026094Y1370496D02*
X3023555Y1373035D01*
X3018477D01*
X3015938Y1370496D01*
Y1367957D01*
X3018477Y1365417D01*
X3023555D01*
X3026094Y1362878D01*
Y1360339D01*
X3023555Y1357800D01*
X3018477D01*
X3015938Y1360339D01*
X3041329Y1373035D02*
X3031172D01*
Y1357800D01*
X3041329D01*
X3031172Y1365417D02*
X3036251D01*
X3056564Y1370496D02*
X3054025Y1373035D01*
X3048947D01*
X3046408Y1370496D01*
Y1360339D01*
X3048947Y1357800D01*
X3054025D01*
X3056564Y1360339D01*
X3061643Y1373035D02*
X3071800D01*
X3066721D01*
Y1357800D01*
X3092113D02*
Y1367957D01*
X3097191Y1373035D01*
X3102270Y1367957D01*
Y1357800D01*
Y1365417D01*
X3092113D01*
X3107348Y1373035D02*
X3117505D01*
X3112426D01*
Y1357800D01*
X3137818D02*
Y1367957D01*
X3142896Y1373035D01*
X3147975Y1367957D01*
Y1357800D01*
Y1365417D01*
X3137818D01*
X3168288Y1357800D02*
Y1373035D01*
X3175906D01*
X3178445Y1370496D01*
Y1365417D01*
X3175906Y1362878D01*
X3168288D01*
X3173367D02*
X3178445Y1357800D01*
X3183523Y1373035D02*
X3188602D01*
X3186063D01*
Y1357800D01*
X3183523D01*
X3188602D01*
X3206376Y1370496D02*
X3203837Y1373035D01*
X3198759D01*
X3196219Y1370496D01*
Y1360339D01*
X3198759Y1357800D01*
X3203837D01*
X3206376Y1360339D01*
Y1365417D01*
X3201298D01*
X3211454Y1373035D02*
Y1357800D01*
Y1365417D01*
X3221611D01*
Y1373035D01*
Y1357800D01*
X3226689Y1373035D02*
X3236846D01*
X3231768D01*
Y1357800D01*
X3257159D02*
Y1367957D01*
X3262238Y1373035D01*
X3267316Y1367957D01*
Y1357800D01*
Y1365417D01*
X3257159D01*
X3272395Y1357800D02*
Y1373035D01*
X3282551Y1357800D01*
Y1373035D01*
X3297786Y1370496D02*
X3295247Y1373035D01*
X3290169D01*
X3287630Y1370496D01*
Y1360339D01*
X3290169Y1357800D01*
X3295247D01*
X3297786Y1360339D01*
Y1365417D01*
X3292708D01*
X3302865Y1373035D02*
Y1357800D01*
X3313022D01*
X3328257Y1373035D02*
X3318100D01*
Y1357800D01*
X3328257D01*
X3318100Y1365417D02*
X3323178D01*
X2297350Y1340417D02*
X2307507D01*
X2327820Y1332800D02*
Y1348035D01*
X2335438D01*
X2337977Y1345496D01*
Y1340417D01*
X2335438Y1337878D01*
X2327820D01*
X2343055Y1348035D02*
Y1332800D01*
X2353212D01*
X2358290D02*
Y1342957D01*
X2363369Y1348035D01*
X2368447Y1342957D01*
Y1332800D01*
Y1340417D01*
X2358290D01*
X2383682Y1345496D02*
X2381143Y1348035D01*
X2376064D01*
X2373525Y1345496D01*
Y1335339D01*
X2376064Y1332800D01*
X2381143D01*
X2383682Y1335339D01*
X2398917Y1348035D02*
X2388760D01*
Y1332800D01*
X2398917D01*
X2388760Y1340417D02*
X2393839D01*
X2426848Y1348035D02*
X2421770D01*
X2419231Y1345496D01*
Y1335339D01*
X2421770Y1332800D01*
X2426848D01*
X2429387Y1335339D01*
Y1345496D01*
X2426848Y1348035D01*
X2434466Y1332800D02*
Y1348035D01*
X2444622Y1332800D01*
Y1348035D01*
X2459857D02*
X2449701D01*
Y1332800D01*
X2459857D01*
X2449701Y1340417D02*
X2454779D01*
X2490328Y1348035D02*
X2480171D01*
Y1340417D01*
X2485249D01*
X2480171D01*
Y1332800D01*
X2495406Y1348035D02*
X2500484D01*
X2497945D01*
Y1332800D01*
X2495406D01*
X2500484D01*
X2508102Y1348035D02*
Y1332800D01*
X2515719D01*
X2518259Y1335339D01*
Y1345496D01*
X2515719Y1348035D01*
X2508102D01*
X2523337D02*
Y1335339D01*
X2525876Y1332800D01*
X2530954D01*
X2533494Y1335339D01*
Y1348035D01*
X2548729Y1345496D02*
X2546190Y1348035D01*
X2541111D01*
X2538572Y1345496D01*
Y1335339D01*
X2541111Y1332800D01*
X2546190D01*
X2548729Y1335339D01*
X2553807Y1348035D02*
X2558885D01*
X2556346D01*
Y1332800D01*
X2553807D01*
X2558885D01*
X2566503D02*
Y1342957D01*
X2571581Y1348035D01*
X2576660Y1342957D01*
Y1332800D01*
Y1340417D01*
X2566503D01*
X2581738Y1348035D02*
Y1332800D01*
X2591895D01*
X2612208Y1348035D02*
X2617286D01*
X2614747D01*
Y1332800D01*
X2612208D01*
X2617286D01*
X2624904D02*
Y1348035D01*
X2635061Y1332800D01*
Y1348035D01*
X2640139D02*
X2650296D01*
X2645217D01*
Y1332800D01*
X2662992Y1348035D02*
X2657914D01*
X2655374Y1345496D01*
Y1335339D01*
X2657914Y1332800D01*
X2662992D01*
X2665531Y1335339D01*
Y1345496D01*
X2662992Y1348035D01*
X2696001D02*
X2685844D01*
Y1332800D01*
X2696001D01*
X2685844Y1340417D02*
X2690923D01*
X2701079Y1332800D02*
Y1342957D01*
X2706158Y1348035D01*
X2711236Y1342957D01*
Y1332800D01*
Y1340417D01*
X2701079D01*
X2726471Y1345496D02*
X2723932Y1348035D01*
X2718853D01*
X2716314Y1345496D01*
Y1335339D01*
X2718853Y1332800D01*
X2723932D01*
X2726471Y1335339D01*
X2731549Y1348035D02*
Y1332800D01*
Y1340417D01*
X2741706D01*
Y1348035D01*
Y1332800D01*
X2762020D02*
Y1348035D01*
X2769637D01*
X2772177Y1345496D01*
Y1340417D01*
X2769637Y1337878D01*
X2762020D01*
X2777255Y1332800D02*
Y1342957D01*
X2782333Y1348035D01*
X2787411Y1342957D01*
Y1332800D01*
Y1340417D01*
X2777255D01*
X2792490Y1332800D02*
Y1348035D01*
X2802646Y1332800D01*
Y1348035D01*
X2817881D02*
X2807725D01*
Y1332800D01*
X2817881D01*
X2807725Y1340417D02*
X2812803D01*
X2822960Y1348035D02*
Y1332800D01*
X2833117D01*
X2863587Y1345496D02*
X2861048Y1348035D01*
X2855969D01*
X2853430Y1345496D01*
Y1335339D01*
X2855969Y1332800D01*
X2861048D01*
X2863587Y1335339D01*
X2876283Y1348035D02*
X2871205D01*
X2868665Y1345496D01*
Y1335339D01*
X2871205Y1332800D01*
X2876283D01*
X2878822Y1335339D01*
Y1345496D01*
X2876283Y1348035D01*
X2883900Y1332800D02*
Y1348035D01*
X2891518D01*
X2894057Y1345496D01*
Y1340417D01*
X2891518Y1337878D01*
X2883900D01*
X2888979D02*
X2894057Y1332800D01*
X2899135D02*
Y1348035D01*
X2909292Y1332800D01*
Y1348035D01*
X2924527D02*
X2914370D01*
Y1332800D01*
X2924527D01*
X2914370Y1340417D02*
X2919449D01*
X2929605Y1332800D02*
Y1348035D01*
X2937223D01*
X2939762Y1345496D01*
Y1340417D01*
X2937223Y1337878D01*
X2929605D01*
X2934684D02*
X2939762Y1332800D01*
X2965154D02*
X2960076Y1337878D01*
Y1342957D01*
X2965154Y1348035D01*
X2982928D02*
X2972772D01*
Y1340417D01*
X2977850D01*
X2972772D01*
Y1332800D01*
X2995624Y1348035D02*
X2990546D01*
X2988007Y1345496D01*
Y1335339D01*
X2990546Y1332800D01*
X2995624D01*
X2998163Y1335339D01*
Y1345496D01*
X2995624Y1348035D01*
X3003242D02*
Y1335339D01*
X3005781Y1332800D01*
X3010859D01*
X3013398Y1335339D01*
Y1348035D01*
X3018477Y1332800D02*
Y1348035D01*
X3026094D01*
X3028633Y1345496D01*
Y1340417D01*
X3026094Y1337878D01*
X3018477D01*
X3023555D02*
X3028633Y1332800D01*
X3056564Y1348035D02*
X3051486D01*
X3048947Y1345496D01*
Y1335339D01*
X3051486Y1332800D01*
X3056564D01*
X3059104Y1335339D01*
Y1345496D01*
X3056564Y1348035D01*
X3064182Y1332800D02*
Y1348035D01*
X3074339Y1332800D01*
Y1348035D01*
X3094652D02*
X3104809D01*
X3099731D01*
Y1332800D01*
X3109887Y1348035D02*
Y1332800D01*
Y1340417D01*
X3120044D01*
Y1348035D01*
Y1332800D01*
X3135279Y1348035D02*
X3125122D01*
Y1332800D01*
X3135279D01*
X3125122Y1340417D02*
X3130201D01*
X3155592Y1348035D02*
X3165749D01*
X3160671D01*
Y1332800D01*
X3178445Y1348035D02*
X3173367D01*
X3170827Y1345496D01*
Y1335339D01*
X3173367Y1332800D01*
X3178445D01*
X3180984Y1335339D01*
Y1345496D01*
X3178445Y1348035D01*
X3186063Y1332800D02*
Y1348035D01*
X3193680D01*
X3196219Y1345496D01*
Y1340417D01*
X3193680Y1337878D01*
X3186063D01*
X3216533Y1332800D02*
Y1342957D01*
X3221611Y1348035D01*
X3226689Y1342957D01*
Y1332800D01*
Y1340417D01*
X3216533D01*
X3231768Y1332800D02*
Y1348035D01*
X3241924Y1332800D01*
Y1348035D01*
X3247003D02*
Y1332800D01*
X3254620D01*
X3257159Y1335339D01*
Y1345496D01*
X3254620Y1348035D01*
X3247003D01*
X3287630D02*
X3277473D01*
Y1340417D01*
X3282551D01*
X3277473D01*
Y1332800D01*
X3300326Y1348035D02*
X3295247D01*
X3292708Y1345496D01*
Y1335339D01*
X3295247Y1332800D01*
X3300326D01*
X3302865Y1335339D01*
Y1345496D01*
X3300326Y1348035D01*
X3307943D02*
Y1335339D01*
X3310482Y1332800D01*
X3315561D01*
X3318100Y1335339D01*
Y1348035D01*
X3323178Y1332800D02*
Y1348035D01*
X3330796D01*
X3333335Y1345496D01*
Y1340417D01*
X3330796Y1337878D01*
X3323178D01*
X3328257D02*
X3333335Y1332800D01*
X3361266Y1348035D02*
X3356187D01*
X3353648Y1345496D01*
Y1335339D01*
X3356187Y1332800D01*
X3361266D01*
X3363805Y1335339D01*
Y1345496D01*
X3361266Y1348035D01*
X3368883Y1332800D02*
Y1348035D01*
X3379040Y1332800D01*
Y1348035D01*
X3399354D02*
X3409510D01*
X3404432D01*
Y1332800D01*
X3414589Y1348035D02*
Y1332800D01*
Y1340417D01*
X3424745D01*
Y1348035D01*
Y1332800D01*
X3439980Y1348035D02*
X3429824D01*
Y1332800D01*
X3439980D01*
X3429824Y1340417D02*
X3434902D01*
X3460294Y1348035D02*
Y1332800D01*
X3467911D01*
X3470450Y1335339D01*
Y1337878D01*
X3467911Y1340417D01*
X3460294D01*
X3467911D01*
X3470450Y1342957D01*
Y1345496D01*
X3467911Y1348035D01*
X3460294D01*
X3483146D02*
X3478068D01*
X3475529Y1345496D01*
Y1335339D01*
X3478068Y1332800D01*
X3483146D01*
X3485686Y1335339D01*
Y1345496D01*
X3483146Y1348035D01*
X3490764D02*
X3500921D01*
X3495842D01*
Y1332800D01*
X3505999Y1348035D02*
X3516156D01*
X3511077D01*
Y1332800D01*
X3528852Y1348035D02*
X3523773D01*
X3521234Y1345496D01*
Y1335339D01*
X3523773Y1332800D01*
X3528852D01*
X3531391Y1335339D01*
Y1345496D01*
X3528852Y1348035D01*
X3536469Y1332800D02*
Y1348035D01*
X3541548Y1342957D01*
X3546626Y1348035D01*
Y1332800D01*
X3566939Y1348035D02*
Y1332800D01*
X3577096D01*
X3582174D02*
Y1342957D01*
X3587253Y1348035D01*
X3592331Y1342957D01*
Y1332800D01*
Y1340417D01*
X3582174D01*
X3597409Y1348035D02*
Y1345496D01*
X3602488Y1340417D01*
X3607566Y1345496D01*
Y1348035D01*
X3602488Y1340417D02*
Y1332800D01*
X3622801Y1348035D02*
X3612644D01*
Y1332800D01*
X3622801D01*
X3612644Y1340417D02*
X3617723D01*
X3627880Y1332800D02*
Y1348035D01*
X3635497D01*
X3638036Y1345496D01*
Y1340417D01*
X3635497Y1337878D01*
X3627880D01*
X3632958D02*
X3638036Y1332800D01*
X3643115D02*
X3648193Y1337878D01*
Y1342957D01*
X3643115Y1348035D01*
X439990Y1960775D02*
Y1945540D01*
X447607D01*
X450147Y1948079D01*
Y1958236D01*
X447607Y1960775D01*
X439990D01*
X462843Y1945540D02*
X457764D01*
X455225Y1948079D01*
Y1953158D01*
X457764Y1955697D01*
X462843D01*
X465382Y1953158D01*
Y1950618D01*
X455225D01*
X470460Y1945540D02*
X478078D01*
X480617Y1948079D01*
X478078Y1950618D01*
X472999D01*
X470460Y1953158D01*
X472999Y1955697D01*
X480617D01*
X485695Y1945540D02*
X490774D01*
X488234D01*
Y1955697D01*
X485695D01*
X503470Y1940462D02*
X506009D01*
X508548Y1943001D01*
Y1955697D01*
X500930D01*
X498391Y1953158D01*
Y1948079D01*
X500930Y1945540D01*
X508548D01*
X513626D02*
Y1955697D01*
X521244D01*
X523783Y1953158D01*
Y1945540D01*
X536479D02*
X531400D01*
X528861Y1948079D01*
Y1953158D01*
X531400Y1955697D01*
X536479D01*
X539018Y1953158D01*
Y1950618D01*
X528861D01*
X554253Y1960775D02*
Y1945540D01*
X546636D01*
X544096Y1948079D01*
Y1953158D01*
X546636Y1955697D01*
X554253D01*
X574566Y1960775D02*
Y1945540D01*
X582184D01*
X584723Y1948079D01*
Y1950618D01*
Y1953158D01*
X582184Y1955697D01*
X574566D01*
X589801D02*
Y1948079D01*
X592341Y1945540D01*
X599958D01*
Y1943001D01*
X597419Y1940462D01*
X594880D01*
X599958Y1945540D02*
Y1955697D01*
X620272Y1945540D02*
Y1955697D01*
X625350Y1960775D01*
X630428Y1955697D01*
Y1945540D01*
Y1953158D01*
X620272D01*
X635507Y1960775D02*
Y1945540D01*
X645664D01*
X650742Y1960775D02*
X660899D01*
X655820D01*
Y1945540D01*
X665977D02*
Y1955697D01*
X671055Y1960775D01*
X676134Y1955697D01*
Y1945540D01*
Y1953158D01*
X665977D01*
X681212Y1960775D02*
Y1958236D01*
X686290Y1953158D01*
X691369Y1958236D01*
Y1960775D01*
X686290Y1953158D02*
Y1945540D01*
X439990Y1930697D02*
Y1923079D01*
X442529Y1920540D01*
X445068Y1923079D01*
X447607Y1920540D01*
X450147Y1923079D01*
Y1930697D01*
X455225D02*
Y1923079D01*
X457764Y1920540D01*
X460303Y1923079D01*
X462843Y1920540D01*
X465382Y1923079D01*
Y1930697D01*
X470460D02*
Y1923079D01*
X472999Y1920540D01*
X475538Y1923079D01*
X478078Y1920540D01*
X480617Y1923079D01*
Y1930697D01*
X485695Y1920540D02*
Y1923079D01*
X488234D01*
Y1920540D01*
X485695D01*
X498391Y1935775D02*
Y1920540D01*
X506009D01*
X508548Y1923079D01*
Y1925618D01*
Y1928158D01*
X506009Y1930697D01*
X498391D01*
X513626D02*
Y1923079D01*
X516165Y1920540D01*
X523783D01*
Y1930697D01*
X528861Y1920540D02*
Y1923079D01*
X531400D01*
Y1920540D01*
X528861D01*
X551714Y1930697D02*
X544096D01*
X541557Y1928158D01*
Y1923079D01*
X544096Y1920540D01*
X551714D01*
X559331D02*
X564410D01*
X566949Y1923079D01*
Y1928158D01*
X564410Y1930697D01*
X559331D01*
X556792Y1928158D01*
Y1923079D01*
X559331Y1920540D01*
X572027D02*
Y1930697D01*
X574566D01*
X577106Y1928158D01*
Y1920540D01*
Y1928158D01*
X579645Y1930697D01*
X582184Y1928158D01*
Y1920540D01*
X587262D02*
Y1923079D01*
X589801D01*
Y1920540D01*
X587262D01*
X602497Y1933236D02*
Y1930697D01*
X599958D01*
X605037D01*
X602497D01*
Y1923079D01*
X605037Y1920540D01*
X612654Y1930697D02*
Y1920540D01*
Y1925618D01*
X615193Y1928158D01*
X617733Y1930697D01*
X620272D01*
X50147Y1858236D02*
X47608Y1860775D01*
X42529D01*
X39990Y1858236D01*
Y1848079D01*
X42529Y1845540D01*
X47608D01*
X50147Y1848079D01*
X57764Y1845540D02*
X62843D01*
X65382Y1848079D01*
Y1853158D01*
X62843Y1855697D01*
X57764D01*
X55225Y1853158D01*
Y1848079D01*
X57764Y1845540D01*
X70460D02*
Y1855697D01*
X78078D01*
X80617Y1853158D01*
Y1845540D01*
X88234Y1858236D02*
Y1855697D01*
X85695D01*
X90774D01*
X88234D01*
Y1848079D01*
X90774Y1845540D01*
X100930Y1855697D02*
X106009D01*
X108548Y1853158D01*
Y1845540D01*
X100930D01*
X98391Y1848079D01*
X100930Y1850618D01*
X108548D01*
X123783Y1855697D02*
X116165D01*
X113626Y1853158D01*
Y1848079D01*
X116165Y1845540D01*
X123783D01*
X131400Y1858236D02*
Y1855697D01*
X128861D01*
X133940D01*
X131400D01*
Y1848079D01*
X133940Y1845540D01*
X141557Y1855697D02*
X144096D01*
Y1853158D01*
X141557D01*
Y1855697D01*
Y1848079D02*
X144096D01*
Y1845540D01*
X141557D01*
Y1848079D01*
X42529Y1830697D02*
X47608D01*
X50147Y1828158D01*
Y1820540D01*
X42529D01*
X39990Y1823079D01*
X42529Y1825618D01*
X50147D01*
X55225Y1820540D02*
X60303D01*
X57764D01*
Y1835775D01*
X55225D01*
X70460Y1833236D02*
Y1830697D01*
X67921D01*
X72999D01*
X70460D01*
Y1823079D01*
X72999Y1820540D01*
X83156Y1830697D02*
X88234D01*
X90774Y1828158D01*
Y1820540D01*
X83156D01*
X80617Y1823079D01*
X83156Y1825618D01*
X90774D01*
X95852Y1830697D02*
Y1823079D01*
X98391Y1820540D01*
X106009D01*
Y1818001D01*
X103469Y1815462D01*
X100930D01*
X106009Y1820540D02*
Y1830697D01*
X111087Y1818001D02*
X121244D01*
X126322Y1835775D02*
Y1820540D01*
X133940D01*
X136479Y1823079D01*
Y1825618D01*
Y1828158D01*
X133940Y1830697D01*
X126322D01*
X141557Y1820540D02*
Y1830697D01*
X149175D01*
X151714Y1828158D01*
Y1820540D01*
X164410Y1825618D02*
Y1828158D01*
X161871D01*
Y1825618D01*
X164410D01*
X166949Y1828158D01*
Y1833236D01*
X164410Y1835775D01*
X159331D01*
X156792Y1833236D01*
Y1823079D01*
X159331Y1820540D01*
X166949D01*
X172027Y1830697D02*
Y1823079D01*
X174566Y1820540D01*
X182184D01*
Y1818001D01*
X179645Y1815462D01*
X177106D01*
X182184Y1820540D02*
Y1830697D01*
X189802D02*
X194880D01*
X197419Y1828158D01*
Y1820540D01*
X189802D01*
X187262Y1823079D01*
X189802Y1825618D01*
X197419D01*
X202497Y1835775D02*
Y1820540D01*
Y1828158D01*
X205037Y1830697D01*
X210115D01*
X212654Y1828158D01*
Y1820540D01*
X220272D02*
X225350D01*
X227889Y1823079D01*
Y1828158D01*
X225350Y1830697D01*
X220272D01*
X217733Y1828158D01*
Y1823079D01*
X220272Y1820540D01*
X235507D02*
X240585D01*
X243124Y1823079D01*
Y1828158D01*
X240585Y1830697D01*
X235507D01*
X232968Y1828158D01*
Y1823079D01*
X235507Y1820540D01*
X248203D02*
Y1823079D01*
X250742D01*
Y1820540D01*
X248203D01*
X271055Y1830697D02*
X263438D01*
X260898Y1828158D01*
Y1823079D01*
X263438Y1820540D01*
X271055D01*
X278673D02*
X283751D01*
X286290Y1823079D01*
Y1828158D01*
X283751Y1830697D01*
X278673D01*
X276134Y1828158D01*
Y1823079D01*
X278673Y1820540D01*
X291369D02*
Y1830697D01*
X293908D01*
X296447Y1828158D01*
Y1820540D01*
Y1828158D01*
X298986Y1830697D01*
X301525Y1828158D01*
Y1820540D01*
X2296710Y1331453D02*
Y1316218D01*
X2306867D01*
X2314484Y1326375D02*
X2319563D01*
X2322102Y1323836D01*
Y1316218D01*
X2314484D01*
X2311945Y1318757D01*
X2314484Y1321297D01*
X2322102D01*
X2327180Y1326375D02*
Y1318757D01*
X2329720Y1316218D01*
X2337337D01*
Y1313679D01*
X2334798Y1311140D01*
X2332259D01*
X2337337Y1316218D02*
Y1326375D01*
X2350033Y1316218D02*
X2344955D01*
X2342415Y1318757D01*
Y1323836D01*
X2344955Y1326375D01*
X2350033D01*
X2352572Y1323836D01*
Y1321297D01*
X2342415D01*
X2357650Y1326375D02*
Y1316218D01*
Y1321297D01*
X2360190Y1323836D01*
X2362729Y1326375D01*
X2365268D01*
X2296710Y859018D02*
X2301788D01*
X2299249D01*
Y874253D01*
X2296710Y871714D01*
X2319563Y874253D02*
X2309406D01*
Y866636D01*
X2314484Y869175D01*
X2317024D01*
X2319563Y866636D01*
Y861557D01*
X2317024Y859018D01*
X2311945D01*
X2309406Y861557D01*
X2296710Y889498D02*
X2301788D01*
X2299249D01*
Y904733D01*
X2296710Y902194D01*
X2317024Y889498D02*
Y904733D01*
X2309406Y897116D01*
X2319563D01*
X2296710Y919978D02*
X2301788D01*
X2299249D01*
Y935213D01*
X2296710Y932674D01*
X2309406D02*
X2311945Y935213D01*
X2317024D01*
X2319563Y932674D01*
Y930135D01*
X2317024Y927596D01*
X2314484D01*
X2317024D01*
X2319563Y925057D01*
Y922517D01*
X2317024Y919978D01*
X2311945D01*
X2309406Y922517D01*
X2296710Y950458D02*
X2301788D01*
X2299249D01*
Y965693D01*
X2296710Y963154D01*
X2319563Y950458D02*
X2309406D01*
X2319563Y960615D01*
Y963154D01*
X2317024Y965693D01*
X2311945D01*
X2309406Y963154D01*
X2296710Y980938D02*
X2301788D01*
X2299249D01*
Y996173D01*
X2296710Y993634D01*
X2309406Y980938D02*
X2314484D01*
X2311945D01*
Y996173D01*
X2309406Y993634D01*
X2296710Y1011418D02*
X2301788D01*
X2299249D01*
Y1026653D01*
X2296710Y1024114D01*
X2309406D02*
X2311945Y1026653D01*
X2317024D01*
X2319563Y1024114D01*
Y1013957D01*
X2317024Y1011418D01*
X2311945D01*
X2309406Y1013957D01*
Y1024114D01*
X2296710Y1044437D02*
X2299249Y1041898D01*
X2304328D01*
X2306867Y1044437D01*
Y1054594D01*
X2304328Y1057133D01*
X2299249D01*
X2296710Y1054594D01*
Y1052055D01*
X2299249Y1049516D01*
X2306867D01*
X2296710Y1085074D02*
X2299249Y1087613D01*
X2304328D01*
X2306867Y1085074D01*
Y1082535D01*
X2304328Y1079996D01*
X2306867Y1077457D01*
Y1074917D01*
X2304328Y1072378D01*
X2299249D01*
X2296710Y1074917D01*
Y1077457D01*
X2299249Y1079996D01*
X2296710Y1082535D01*
Y1085074D01*
X2299249Y1079996D02*
X2304328D01*
X2296710Y1118093D02*
X2306867D01*
Y1115554D01*
X2296710Y1105397D01*
Y1102858D01*
X2306867Y1148573D02*
X2301788Y1146034D01*
X2296710Y1140956D01*
Y1135877D01*
X2299249Y1133338D01*
X2304328D01*
X2306867Y1135877D01*
Y1138417D01*
X2304328Y1140956D01*
X2296710D01*
X2306867Y1179053D02*
X2296710D01*
Y1171436D01*
X2301788Y1173975D01*
X2304328D01*
X2306867Y1171436D01*
Y1166357D01*
X2304328Y1163818D01*
X2299249D01*
X2296710Y1166357D01*
X2304328Y1194298D02*
Y1209533D01*
X2296710Y1201916D01*
X2306867D01*
X2296710Y1237474D02*
X2299249Y1240013D01*
X2304328D01*
X2306867Y1237474D01*
Y1234935D01*
X2304328Y1232396D01*
X2301788D01*
X2304328D01*
X2306867Y1229856D01*
Y1227317D01*
X2304328Y1224778D01*
X2299249D01*
X2296710Y1227317D01*
X2306867Y1255258D02*
X2296710D01*
X2306867Y1265415D01*
Y1267954D01*
X2304328Y1270493D01*
X2299249D01*
X2296710Y1267954D01*
Y1285738D02*
X2301788D01*
X2299249D01*
Y1300973D01*
X2296710Y1298434D01*
X2400828Y1316218D02*
Y1331453D01*
X2410985Y1316218D01*
Y1331453D01*
X2418602Y1326375D02*
X2423681D01*
X2426220Y1323836D01*
Y1316218D01*
X2418602D01*
X2416063Y1318757D01*
X2418602Y1321297D01*
X2426220D01*
X2431298Y1316218D02*
Y1326375D01*
X2433837D01*
X2436376Y1323836D01*
Y1316218D01*
Y1323836D01*
X2438916Y1326375D01*
X2441455Y1323836D01*
Y1316218D01*
X2454151D02*
X2449072D01*
X2446533Y1318757D01*
Y1323836D01*
X2449072Y1326375D01*
X2454151D01*
X2456690Y1323836D01*
Y1321297D01*
X2446533D01*
X2400828Y874253D02*
Y859018D01*
X2408445D01*
X2410985Y861557D01*
Y864097D01*
X2408445Y866636D01*
X2400828D01*
X2408445D01*
X2410985Y869175D01*
Y871714D01*
X2408445Y874253D01*
X2400828D01*
X2418602Y859018D02*
X2423681D01*
X2426220Y861557D01*
Y866636D01*
X2423681Y869175D01*
X2418602D01*
X2416063Y866636D01*
Y861557D01*
X2418602Y859018D01*
X2433837Y871714D02*
Y869175D01*
X2431298D01*
X2436376D01*
X2433837D01*
Y861557D01*
X2436376Y859018D01*
X2446533Y871714D02*
Y869175D01*
X2443994D01*
X2449072D01*
X2446533D01*
Y861557D01*
X2449072Y859018D01*
X2459229D02*
X2464307D01*
X2466847Y861557D01*
Y866636D01*
X2464307Y869175D01*
X2459229D01*
X2456690Y866636D01*
Y861557D01*
X2459229Y859018D01*
X2471925D02*
Y869175D01*
X2474464D01*
X2477003Y866636D01*
Y859018D01*
Y866636D01*
X2479543Y869175D01*
X2482082Y866636D01*
Y859018D01*
X2510013Y874253D02*
X2504934D01*
X2502395Y871714D01*
Y861557D01*
X2504934Y859018D01*
X2510013D01*
X2512552Y861557D01*
Y871714D01*
X2510013Y874253D01*
X2517630Y869175D02*
X2522708Y859018D01*
X2527787Y869175D01*
X2540483Y859018D02*
X2535404D01*
X2532865Y861557D01*
Y866636D01*
X2535404Y869175D01*
X2540483D01*
X2543022Y866636D01*
Y864097D01*
X2532865D01*
X2548100Y869175D02*
Y859018D01*
Y864097D01*
X2550639Y866636D01*
X2553179Y869175D01*
X2555718D01*
X2563335Y859018D02*
X2568414D01*
X2565875D01*
Y874253D01*
X2563335D01*
X2578571Y869175D02*
X2583649D01*
X2586188Y866636D01*
Y859018D01*
X2578571D01*
X2576031Y861557D01*
X2578571Y864097D01*
X2586188D01*
X2591266Y869175D02*
Y861557D01*
X2593806Y859018D01*
X2601423D01*
Y856479D01*
X2598884Y853940D01*
X2596345D01*
X2601423Y859018D02*
Y869175D01*
X2400828Y904733D02*
Y889498D01*
X2408445D01*
X2410985Y892037D01*
Y894576D01*
X2408445Y897116D01*
X2400828D01*
X2408445D01*
X2410985Y899655D01*
Y902194D01*
X2408445Y904733D01*
X2400828D01*
X2418602Y889498D02*
X2423681D01*
X2426220Y892037D01*
Y897116D01*
X2423681Y899655D01*
X2418602D01*
X2416063Y897116D01*
Y892037D01*
X2418602Y889498D01*
X2433837Y902194D02*
Y899655D01*
X2431298D01*
X2436376D01*
X2433837D01*
Y892037D01*
X2436376Y889498D01*
X2446533Y902194D02*
Y899655D01*
X2443994D01*
X2449072D01*
X2446533D01*
Y892037D01*
X2449072Y889498D01*
X2459229D02*
X2464307D01*
X2466847Y892037D01*
Y897116D01*
X2464307Y899655D01*
X2459229D01*
X2456690Y897116D01*
Y892037D01*
X2459229Y889498D01*
X2471925D02*
Y899655D01*
X2474464D01*
X2477003Y897116D01*
Y889498D01*
Y897116D01*
X2479543Y899655D01*
X2482082Y897116D01*
Y889498D01*
X2512552Y902194D02*
X2510013Y904733D01*
X2504934D01*
X2502395Y902194D01*
Y899655D01*
X2504934Y897116D01*
X2510013D01*
X2512552Y894576D01*
Y892037D01*
X2510013Y889498D01*
X2504934D01*
X2502395Y892037D01*
X2520169Y889498D02*
X2525248D01*
X2527787Y892037D01*
Y897116D01*
X2525248Y899655D01*
X2520169D01*
X2517630Y897116D01*
Y892037D01*
X2520169Y889498D01*
X2532865D02*
X2537944D01*
X2535404D01*
Y904733D01*
X2532865D01*
X2555718D02*
Y889498D01*
X2548100D01*
X2545561Y892037D01*
Y897116D01*
X2548100Y899655D01*
X2555718D01*
X2568414Y889498D02*
X2563335D01*
X2560796Y892037D01*
Y897116D01*
X2563335Y899655D01*
X2568414D01*
X2570953Y897116D01*
Y894576D01*
X2560796D01*
X2576031Y899655D02*
Y889498D01*
Y894576D01*
X2578571Y897116D01*
X2581110Y899655D01*
X2583649D01*
X2400828Y935213D02*
Y919978D01*
X2410985D01*
X2426220Y935213D02*
X2421141Y932674D01*
X2416063Y927596D01*
Y922517D01*
X2418602Y919978D01*
X2423681D01*
X2426220Y922517D01*
Y925057D01*
X2423681Y927596D01*
X2416063D01*
X2400828Y965693D02*
Y950458D01*
X2408445D01*
X2410985Y952997D01*
Y963154D01*
X2408445Y965693D01*
X2400828D01*
X2416063Y950458D02*
X2421141D01*
X2418602D01*
Y960615D01*
X2416063D01*
X2436376Y950458D02*
X2431298D01*
X2428759Y952997D01*
Y958076D01*
X2431298Y960615D01*
X2436376D01*
X2438916Y958076D01*
Y955536D01*
X2428759D01*
X2443994Y950458D02*
X2449072D01*
X2446533D01*
Y965693D01*
X2443994D01*
X2464307Y950458D02*
X2459229D01*
X2456690Y952997D01*
Y958076D01*
X2459229Y960615D01*
X2464307D01*
X2466847Y958076D01*
Y955536D01*
X2456690D01*
X2482082Y960615D02*
X2474464D01*
X2471925Y958076D01*
Y952997D01*
X2474464Y950458D01*
X2482082D01*
X2489699Y963154D02*
Y960615D01*
X2487160D01*
X2492238D01*
X2489699D01*
Y952997D01*
X2492238Y950458D01*
X2499856Y960615D02*
Y950458D01*
Y955536D01*
X2502395Y958076D01*
X2504934Y960615D01*
X2507473D01*
X2515091Y950458D02*
X2520169D01*
X2517630D01*
Y960615D01*
X2515091D01*
X2537944D02*
X2530326D01*
X2527787Y958076D01*
Y952997D01*
X2530326Y950458D01*
X2537944D01*
X2553179Y965693D02*
X2543022D01*
Y958076D01*
X2548100Y960615D01*
X2550639D01*
X2553179Y958076D01*
Y952997D01*
X2550639Y950458D01*
X2545561D01*
X2543022Y952997D01*
X2400828Y996173D02*
Y980938D01*
X2410985D01*
X2426220Y996173D02*
X2416063D01*
Y988556D01*
X2421141Y991095D01*
X2423681D01*
X2426220Y988556D01*
Y983477D01*
X2423681Y980938D01*
X2418602D01*
X2416063Y983477D01*
X2400828Y1026653D02*
Y1011418D01*
X2408445D01*
X2410985Y1013957D01*
Y1024114D01*
X2408445Y1026653D01*
X2400828D01*
X2416063Y1011418D02*
X2421141D01*
X2418602D01*
Y1021575D01*
X2416063D01*
X2436376Y1011418D02*
X2431298D01*
X2428759Y1013957D01*
Y1019036D01*
X2431298Y1021575D01*
X2436376D01*
X2438916Y1019036D01*
Y1016497D01*
X2428759D01*
X2443994Y1011418D02*
X2449072D01*
X2446533D01*
Y1026653D01*
X2443994D01*
X2464307Y1011418D02*
X2459229D01*
X2456690Y1013957D01*
Y1019036D01*
X2459229Y1021575D01*
X2464307D01*
X2466847Y1019036D01*
Y1016497D01*
X2456690D01*
X2482082Y1021575D02*
X2474464D01*
X2471925Y1019036D01*
Y1013957D01*
X2474464Y1011418D01*
X2482082D01*
X2489699Y1024114D02*
Y1021575D01*
X2487160D01*
X2492238D01*
X2489699D01*
Y1013957D01*
X2492238Y1011418D01*
X2499856Y1021575D02*
Y1011418D01*
Y1016497D01*
X2502395Y1019036D01*
X2504934Y1021575D01*
X2507473D01*
X2515091Y1011418D02*
X2520169D01*
X2517630D01*
Y1021575D01*
X2515091D01*
X2537944D02*
X2530326D01*
X2527787Y1019036D01*
Y1013957D01*
X2530326Y1011418D01*
X2537944D01*
X2543022Y1024114D02*
X2545561Y1026653D01*
X2550639D01*
X2553179Y1024114D01*
Y1021575D01*
X2550639Y1019036D01*
X2548100D01*
X2550639D01*
X2553179Y1016497D01*
Y1013957D01*
X2550639Y1011418D01*
X2545561D01*
X2543022Y1013957D01*
X2400828Y1057133D02*
Y1041898D01*
X2410985D01*
X2423681D02*
Y1057133D01*
X2416063Y1049516D01*
X2426220D01*
X2451611Y1041898D02*
X2446533Y1046976D01*
Y1052055D01*
X2451611Y1057133D01*
X2459229Y1041898D02*
Y1057133D01*
X2466847D01*
X2469386Y1054594D01*
Y1049516D01*
X2466847Y1046976D01*
X2459229D01*
X2474464Y1057133D02*
Y1041898D01*
X2479543Y1046976D01*
X2484621Y1041898D01*
Y1057133D01*
X2489699Y1041898D02*
Y1057133D01*
X2497317D01*
X2499856Y1054594D01*
Y1049516D01*
X2497317Y1046976D01*
X2489699D01*
X2494778D02*
X2499856Y1041898D01*
X2504934D02*
X2510013Y1046976D01*
Y1052055D01*
X2504934Y1057133D01*
X2400828Y1087613D02*
Y1072378D01*
X2408445D01*
X2410985Y1074917D01*
Y1085074D01*
X2408445Y1087613D01*
X2400828D01*
X2416063Y1072378D02*
X2421141D01*
X2418602D01*
Y1082535D01*
X2416063D01*
X2436376Y1072378D02*
X2431298D01*
X2428759Y1074917D01*
Y1079996D01*
X2431298Y1082535D01*
X2436376D01*
X2438916Y1079996D01*
Y1077457D01*
X2428759D01*
X2443994Y1072378D02*
X2449072D01*
X2446533D01*
Y1087613D01*
X2443994D01*
X2464307Y1072378D02*
X2459229D01*
X2456690Y1074917D01*
Y1079996D01*
X2459229Y1082535D01*
X2464307D01*
X2466847Y1079996D01*
Y1077457D01*
X2456690D01*
X2482082Y1082535D02*
X2474464D01*
X2471925Y1079996D01*
Y1074917D01*
X2474464Y1072378D01*
X2482082D01*
X2489699Y1085074D02*
Y1082535D01*
X2487160D01*
X2492238D01*
X2489699D01*
Y1074917D01*
X2492238Y1072378D01*
X2499856Y1082535D02*
Y1072378D01*
Y1077457D01*
X2502395Y1079996D01*
X2504934Y1082535D01*
X2507473D01*
X2515091Y1072378D02*
X2520169D01*
X2517630D01*
Y1082535D01*
X2515091D01*
X2537944D02*
X2530326D01*
X2527787Y1079996D01*
Y1074917D01*
X2530326Y1072378D01*
X2537944D01*
X2553179D02*
X2543022D01*
X2553179Y1082535D01*
Y1085074D01*
X2550639Y1087613D01*
X2545561D01*
X2543022Y1085074D01*
X2400828Y1118093D02*
Y1102858D01*
X2410985D01*
X2416063Y1115554D02*
X2418602Y1118093D01*
X2423681D01*
X2426220Y1115554D01*
Y1113015D01*
X2423681Y1110476D01*
X2421141D01*
X2423681D01*
X2426220Y1107936D01*
Y1105397D01*
X2423681Y1102858D01*
X2418602D01*
X2416063Y1105397D01*
X2400828Y1148573D02*
Y1133338D01*
X2408445D01*
X2410985Y1135877D01*
Y1146034D01*
X2408445Y1148573D01*
X2400828D01*
X2416063Y1133338D02*
X2421141D01*
X2418602D01*
Y1143495D01*
X2416063D01*
X2436376Y1133338D02*
X2431298D01*
X2428759Y1135877D01*
Y1140956D01*
X2431298Y1143495D01*
X2436376D01*
X2438916Y1140956D01*
Y1138417D01*
X2428759D01*
X2443994Y1133338D02*
X2449072D01*
X2446533D01*
Y1148573D01*
X2443994D01*
X2464307Y1133338D02*
X2459229D01*
X2456690Y1135877D01*
Y1140956D01*
X2459229Y1143495D01*
X2464307D01*
X2466847Y1140956D01*
Y1138417D01*
X2456690D01*
X2482082Y1143495D02*
X2474464D01*
X2471925Y1140956D01*
Y1135877D01*
X2474464Y1133338D01*
X2482082D01*
X2489699Y1146034D02*
Y1143495D01*
X2487160D01*
X2492238D01*
X2489699D01*
Y1135877D01*
X2492238Y1133338D01*
X2499856Y1143495D02*
Y1133338D01*
Y1138417D01*
X2502395Y1140956D01*
X2504934Y1143495D01*
X2507473D01*
X2515091Y1133338D02*
X2520169D01*
X2517630D01*
Y1143495D01*
X2515091D01*
X2537944D02*
X2530326D01*
X2527787Y1140956D01*
Y1135877D01*
X2530326Y1133338D01*
X2537944D01*
X2550639D02*
Y1148573D01*
X2543022Y1140956D01*
X2553179D01*
X2400828Y1179053D02*
Y1163818D01*
X2410985D01*
X2426220D02*
X2416063D01*
X2426220Y1173975D01*
Y1176514D01*
X2423681Y1179053D01*
X2418602D01*
X2416063Y1176514D01*
X2400828Y1209533D02*
Y1194298D01*
X2408445D01*
X2410985Y1196837D01*
Y1206994D01*
X2408445Y1209533D01*
X2400828D01*
X2416063Y1194298D02*
X2421141D01*
X2418602D01*
Y1204455D01*
X2416063D01*
X2436376Y1194298D02*
X2431298D01*
X2428759Y1196837D01*
Y1201916D01*
X2431298Y1204455D01*
X2436376D01*
X2438916Y1201916D01*
Y1199377D01*
X2428759D01*
X2443994Y1194298D02*
X2449072D01*
X2446533D01*
Y1209533D01*
X2443994D01*
X2464307Y1194298D02*
X2459229D01*
X2456690Y1196837D01*
Y1201916D01*
X2459229Y1204455D01*
X2464307D01*
X2466847Y1201916D01*
Y1199377D01*
X2456690D01*
X2482082Y1204455D02*
X2474464D01*
X2471925Y1201916D01*
Y1196837D01*
X2474464Y1194298D01*
X2482082D01*
X2489699Y1206994D02*
Y1204455D01*
X2487160D01*
X2492238D01*
X2489699D01*
Y1196837D01*
X2492238Y1194298D01*
X2499856Y1204455D02*
Y1194298D01*
Y1199377D01*
X2502395Y1201916D01*
X2504934Y1204455D01*
X2507473D01*
X2515091Y1194298D02*
X2520169D01*
X2517630D01*
Y1204455D01*
X2515091D01*
X2537944D02*
X2530326D01*
X2527787Y1201916D01*
Y1196837D01*
X2530326Y1194298D01*
X2537944D01*
X2543022D02*
X2548100D01*
X2545561D01*
Y1209533D01*
X2543022Y1206994D01*
X2400828Y1240013D02*
Y1224778D01*
X2410985D01*
X2416063D02*
X2421141D01*
X2418602D01*
Y1240013D01*
X2416063Y1237474D01*
X2400828Y1270493D02*
X2410985D01*
X2405906D01*
Y1255258D01*
X2418602D02*
X2423681D01*
X2426220Y1257797D01*
Y1262876D01*
X2423681Y1265415D01*
X2418602D01*
X2416063Y1262876D01*
Y1257797D01*
X2418602Y1255258D01*
X2431298Y1250180D02*
Y1265415D01*
X2438916D01*
X2441455Y1262876D01*
Y1257797D01*
X2438916Y1255258D01*
X2431298D01*
X2471925Y1267954D02*
X2469386Y1270493D01*
X2464307D01*
X2461768Y1267954D01*
Y1265415D01*
X2464307Y1262876D01*
X2469386D01*
X2471925Y1260337D01*
Y1257797D01*
X2469386Y1255258D01*
X2464307D01*
X2461768Y1257797D01*
X2479543Y1255258D02*
X2484621D01*
X2487160Y1257797D01*
Y1262876D01*
X2484621Y1265415D01*
X2479543D01*
X2477003Y1262876D01*
Y1257797D01*
X2479543Y1255258D01*
X2492238D02*
X2497317D01*
X2494778D01*
Y1270493D01*
X2492238D01*
X2515091D02*
Y1255258D01*
X2507473D01*
X2504934Y1257797D01*
Y1262876D01*
X2507473Y1265415D01*
X2515091D01*
X2527787Y1255258D02*
X2522708D01*
X2520169Y1257797D01*
Y1262876D01*
X2522708Y1265415D01*
X2527787D01*
X2530326Y1262876D01*
Y1260337D01*
X2520169D01*
X2535404Y1265415D02*
Y1255258D01*
Y1260337D01*
X2537944Y1262876D01*
X2540483Y1265415D01*
X2543022D01*
X2400828Y1300973D02*
X2410985D01*
X2405906D01*
Y1285738D01*
X2418602D02*
X2423681D01*
X2426220Y1288277D01*
Y1293356D01*
X2423681Y1295895D01*
X2418602D01*
X2416063Y1293356D01*
Y1288277D01*
X2418602Y1285738D01*
X2431298Y1280660D02*
Y1295895D01*
X2438916D01*
X2441455Y1293356D01*
Y1288277D01*
X2438916Y1285738D01*
X2431298D01*
X2469386Y1300973D02*
X2464307D01*
X2461768Y1298434D01*
Y1288277D01*
X2464307Y1285738D01*
X2469386D01*
X2471925Y1288277D01*
Y1298434D01*
X2469386Y1300973D01*
X2477003Y1295895D02*
X2482082Y1285738D01*
X2487160Y1295895D01*
X2499856Y1285738D02*
X2494778D01*
X2492238Y1288277D01*
Y1293356D01*
X2494778Y1295895D01*
X2499856D01*
X2502395Y1293356D01*
Y1290816D01*
X2492238D01*
X2507473Y1295895D02*
Y1285738D01*
Y1290816D01*
X2510013Y1293356D01*
X2512552Y1295895D01*
X2515091D01*
X2522708Y1285738D02*
X2527787D01*
X2525248D01*
Y1300973D01*
X2522708D01*
X2537944Y1295895D02*
X2543022D01*
X2545561Y1293356D01*
Y1285738D01*
X2537944D01*
X2535404Y1288277D01*
X2537944Y1290816D01*
X2545561D01*
X2550639Y1295895D02*
Y1288277D01*
X2553179Y1285738D01*
X2560796D01*
Y1283199D01*
X2558257Y1280660D01*
X2555718D01*
X2560796Y1285738D02*
Y1295895D01*
X2636983Y1316218D02*
Y1331453D01*
X2642061Y1326375D01*
X2647140Y1331453D01*
Y1316218D01*
X2654757Y1326375D02*
X2659836D01*
X2662375Y1323836D01*
Y1316218D01*
X2654757D01*
X2652218Y1318757D01*
X2654757Y1321297D01*
X2662375D01*
X2669992Y1328914D02*
Y1326375D01*
X2667453D01*
X2672532D01*
X2669992D01*
Y1318757D01*
X2672532Y1316218D01*
X2687767D02*
X2682688D01*
X2680149Y1318757D01*
Y1323836D01*
X2682688Y1326375D01*
X2687767D01*
X2690306Y1323836D01*
Y1321297D01*
X2680149D01*
X2695384Y1326375D02*
Y1316218D01*
Y1321297D01*
X2697923Y1323836D01*
X2700463Y1326375D01*
X2703002D01*
X2710619Y1316218D02*
X2715698D01*
X2713158D01*
Y1326375D01*
X2710619D01*
X2725854D02*
X2730933D01*
X2733472Y1323836D01*
Y1316218D01*
X2725854D01*
X2723315Y1318757D01*
X2725854Y1321297D01*
X2733472D01*
X2738550Y1316218D02*
X2743629D01*
X2741089D01*
Y1331453D01*
X2738550D01*
X2647140Y902194D02*
X2644601Y904733D01*
X2639522D01*
X2636983Y902194D01*
Y899655D01*
X2639522Y897116D01*
X2644601D01*
X2647140Y894576D01*
Y892037D01*
X2644601Y889498D01*
X2639522D01*
X2636983Y892037D01*
X2654757Y889498D02*
X2659836D01*
X2662375Y892037D01*
Y897116D01*
X2659836Y899655D01*
X2654757D01*
X2652218Y897116D01*
Y892037D01*
X2654757Y889498D01*
X2667453D02*
X2672532D01*
X2669992D01*
Y904733D01*
X2667453D01*
X2690306D02*
Y889498D01*
X2682688D01*
X2680149Y892037D01*
Y897116D01*
X2682688Y899655D01*
X2690306D01*
X2703002Y889498D02*
X2697923D01*
X2695384Y892037D01*
Y897116D01*
X2697923Y899655D01*
X2703002D01*
X2705541Y897116D01*
Y894576D01*
X2695384D01*
X2710619Y899655D02*
Y889498D01*
Y894576D01*
X2713158Y897116D01*
X2715698Y899655D01*
X2718237D01*
X2741089Y889498D02*
Y904733D01*
X2748707D01*
X2751246Y902194D01*
Y897116D01*
X2748707Y894576D01*
X2741089D01*
X2746168D02*
X2751246Y889498D01*
X2763942D02*
X2758864D01*
X2756324Y892037D01*
Y897116D01*
X2758864Y899655D01*
X2763942D01*
X2766481Y897116D01*
Y894576D01*
X2756324D01*
X2771559Y889498D02*
X2779177D01*
X2781716Y892037D01*
X2779177Y894576D01*
X2774099D01*
X2771559Y897116D01*
X2774099Y899655D01*
X2781716D01*
X2786795Y889498D02*
X2791873D01*
X2789334D01*
Y899655D01*
X2786795D01*
X2799490Y889498D02*
X2807108D01*
X2809647Y892037D01*
X2807108Y894576D01*
X2802030D01*
X2799490Y897116D01*
X2802030Y899655D01*
X2809647D01*
X2817265Y902194D02*
Y899655D01*
X2814726D01*
X2819804D01*
X2817265D01*
Y892037D01*
X2819804Y889498D01*
X2647140Y932674D02*
X2644601Y935213D01*
X2639522D01*
X2636983Y932674D01*
Y922517D01*
X2639522Y919978D01*
X2644601D01*
X2647140Y922517D01*
X2654757Y919978D02*
X2659836D01*
X2662375Y922517D01*
Y927596D01*
X2659836Y930135D01*
X2654757D01*
X2652218Y927596D01*
Y922517D01*
X2654757Y919978D01*
X2667453Y914900D02*
Y930135D01*
X2675071D01*
X2677610Y927596D01*
Y922517D01*
X2675071Y919978D01*
X2667453D01*
X2682688Y914900D02*
Y930135D01*
X2690306D01*
X2692845Y927596D01*
Y922517D01*
X2690306Y919978D01*
X2682688D01*
X2705541D02*
X2700463D01*
X2697923Y922517D01*
Y927596D01*
X2700463Y930135D01*
X2705541D01*
X2708080Y927596D01*
Y925057D01*
X2697923D01*
X2713158Y930135D02*
Y919978D01*
Y925057D01*
X2715698Y927596D01*
X2718237Y930135D01*
X2720776D01*
X2636983Y965693D02*
Y950458D01*
X2644601D01*
X2647140Y952997D01*
Y963154D01*
X2644601Y965693D01*
X2636983D01*
X2662375D02*
X2652218D01*
Y950458D01*
X2662375D01*
X2652218Y958076D02*
X2657296D01*
X2682688Y950458D02*
X2687767D01*
X2685227D01*
Y965693D01*
X2682688Y963154D01*
X2695384D02*
X2697923Y965693D01*
X2703002D01*
X2705541Y963154D01*
Y952997D01*
X2703002Y950458D01*
X2697923D01*
X2695384Y952997D01*
Y963154D01*
X2718237Y950458D02*
Y965693D01*
X2710619Y958076D01*
X2720776D01*
X2741089Y950458D02*
Y965693D01*
X2746168Y960615D01*
X2751246Y965693D01*
Y950458D01*
X2756324Y965693D02*
Y950458D01*
X2766481D01*
X2647140Y993634D02*
X2644601Y996173D01*
X2639522D01*
X2636983Y993634D01*
Y983477D01*
X2639522Y980938D01*
X2644601D01*
X2647140Y983477D01*
X2654757Y980938D02*
X2659836D01*
X2662375Y983477D01*
Y988556D01*
X2659836Y991095D01*
X2654757D01*
X2652218Y988556D01*
Y983477D01*
X2654757Y980938D01*
X2667453Y975860D02*
Y991095D01*
X2675071D01*
X2677610Y988556D01*
Y983477D01*
X2675071Y980938D01*
X2667453D01*
X2682688Y975860D02*
Y991095D01*
X2690306D01*
X2692845Y988556D01*
Y983477D01*
X2690306Y980938D01*
X2682688D01*
X2705541D02*
X2700463D01*
X2697923Y983477D01*
Y988556D01*
X2700463Y991095D01*
X2705541D01*
X2708080Y988556D01*
Y986016D01*
X2697923D01*
X2713158Y991095D02*
Y980938D01*
Y986016D01*
X2715698Y988556D01*
X2718237Y991095D01*
X2720776D01*
X2636983Y1026653D02*
Y1011418D01*
X2644601D01*
X2647140Y1013957D01*
Y1024114D01*
X2644601Y1026653D01*
X2636983D01*
X2662375D02*
X2652218D01*
Y1011418D01*
X2662375D01*
X2652218Y1019036D02*
X2657296D01*
X2682688Y1011418D02*
X2687767D01*
X2685227D01*
Y1026653D01*
X2682688Y1024114D01*
X2695384D02*
X2697923Y1026653D01*
X2703002D01*
X2705541Y1024114D01*
Y1013957D01*
X2703002Y1011418D01*
X2697923D01*
X2695384Y1013957D01*
Y1024114D01*
X2718237Y1011418D02*
Y1026653D01*
X2710619Y1019036D01*
X2720776D01*
X2741089Y1011418D02*
Y1026653D01*
X2746168Y1021575D01*
X2751246Y1026653D01*
Y1011418D01*
X2756324Y1026653D02*
Y1011418D01*
X2766481D01*
X2647140Y1054594D02*
X2644601Y1057133D01*
X2639522D01*
X2636983Y1054594D01*
Y1044437D01*
X2639522Y1041898D01*
X2644601D01*
X2647140Y1044437D01*
X2654757Y1041898D02*
X2659836D01*
X2662375Y1044437D01*
Y1049516D01*
X2659836Y1052055D01*
X2654757D01*
X2652218Y1049516D01*
Y1044437D01*
X2654757Y1041898D01*
X2667453Y1036820D02*
Y1052055D01*
X2675071D01*
X2677610Y1049516D01*
Y1044437D01*
X2675071Y1041898D01*
X2667453D01*
X2682688Y1036820D02*
Y1052055D01*
X2690306D01*
X2692845Y1049516D01*
Y1044437D01*
X2690306Y1041898D01*
X2682688D01*
X2705541D02*
X2700463D01*
X2697923Y1044437D01*
Y1049516D01*
X2700463Y1052055D01*
X2705541D01*
X2708080Y1049516D01*
Y1046976D01*
X2697923D01*
X2713158Y1052055D02*
Y1041898D01*
Y1046976D01*
X2715698Y1049516D01*
X2718237Y1052055D01*
X2720776D01*
X2636983Y1087613D02*
Y1072378D01*
X2644601D01*
X2647140Y1074917D01*
Y1085074D01*
X2644601Y1087613D01*
X2636983D01*
X2662375D02*
X2652218D01*
Y1072378D01*
X2662375D01*
X2652218Y1079996D02*
X2657296D01*
X2682688Y1072378D02*
X2687767D01*
X2685227D01*
Y1087613D01*
X2682688Y1085074D01*
X2695384D02*
X2697923Y1087613D01*
X2703002D01*
X2705541Y1085074D01*
Y1074917D01*
X2703002Y1072378D01*
X2697923D01*
X2695384Y1074917D01*
Y1085074D01*
X2718237Y1072378D02*
Y1087613D01*
X2710619Y1079996D01*
X2720776D01*
X2741089Y1072378D02*
Y1087613D01*
X2746168Y1082535D01*
X2751246Y1087613D01*
Y1072378D01*
X2756324Y1087613D02*
Y1072378D01*
X2766481D01*
X2647140Y1115554D02*
X2644601Y1118093D01*
X2639522D01*
X2636983Y1115554D01*
Y1105397D01*
X2639522Y1102858D01*
X2644601D01*
X2647140Y1105397D01*
X2654757Y1102858D02*
X2659836D01*
X2662375Y1105397D01*
Y1110476D01*
X2659836Y1113015D01*
X2654757D01*
X2652218Y1110476D01*
Y1105397D01*
X2654757Y1102858D01*
X2667453Y1097780D02*
Y1113015D01*
X2675071D01*
X2677610Y1110476D01*
Y1105397D01*
X2675071Y1102858D01*
X2667453D01*
X2682688Y1097780D02*
Y1113015D01*
X2690306D01*
X2692845Y1110476D01*
Y1105397D01*
X2690306Y1102858D01*
X2682688D01*
X2705541D02*
X2700463D01*
X2697923Y1105397D01*
Y1110476D01*
X2700463Y1113015D01*
X2705541D01*
X2708080Y1110476D01*
Y1107936D01*
X2697923D01*
X2713158Y1113015D02*
Y1102858D01*
Y1107936D01*
X2715698Y1110476D01*
X2718237Y1113015D01*
X2720776D01*
X2636983Y1148573D02*
Y1133338D01*
X2644601D01*
X2647140Y1135877D01*
Y1146034D01*
X2644601Y1148573D01*
X2636983D01*
X2662375D02*
X2652218D01*
Y1133338D01*
X2662375D01*
X2652218Y1140956D02*
X2657296D01*
X2682688Y1133338D02*
X2687767D01*
X2685227D01*
Y1148573D01*
X2682688Y1146034D01*
X2695384D02*
X2697923Y1148573D01*
X2703002D01*
X2705541Y1146034D01*
Y1135877D01*
X2703002Y1133338D01*
X2697923D01*
X2695384Y1135877D01*
Y1146034D01*
X2718237Y1133338D02*
Y1148573D01*
X2710619Y1140956D01*
X2720776D01*
X2741089Y1133338D02*
Y1148573D01*
X2746168Y1143495D01*
X2751246Y1148573D01*
Y1133338D01*
X2756324Y1148573D02*
Y1133338D01*
X2766481D01*
X2647140Y1176514D02*
X2644601Y1179053D01*
X2639522D01*
X2636983Y1176514D01*
Y1166357D01*
X2639522Y1163818D01*
X2644601D01*
X2647140Y1166357D01*
X2654757Y1163818D02*
X2659836D01*
X2662375Y1166357D01*
Y1171436D01*
X2659836Y1173975D01*
X2654757D01*
X2652218Y1171436D01*
Y1166357D01*
X2654757Y1163818D01*
X2667453Y1158740D02*
Y1173975D01*
X2675071D01*
X2677610Y1171436D01*
Y1166357D01*
X2675071Y1163818D01*
X2667453D01*
X2682688Y1158740D02*
Y1173975D01*
X2690306D01*
X2692845Y1171436D01*
Y1166357D01*
X2690306Y1163818D01*
X2682688D01*
X2705541D02*
X2700463D01*
X2697923Y1166357D01*
Y1171436D01*
X2700463Y1173975D01*
X2705541D01*
X2708080Y1171436D01*
Y1168896D01*
X2697923D01*
X2713158Y1173975D02*
Y1163818D01*
Y1168896D01*
X2715698Y1171436D01*
X2718237Y1173975D01*
X2720776D01*
X2636983Y1209533D02*
Y1194298D01*
X2644601D01*
X2647140Y1196837D01*
Y1206994D01*
X2644601Y1209533D01*
X2636983D01*
X2662375D02*
X2652218D01*
Y1194298D01*
X2662375D01*
X2652218Y1201916D02*
X2657296D01*
X2682688Y1194298D02*
X2687767D01*
X2685227D01*
Y1209533D01*
X2682688Y1206994D01*
X2695384D02*
X2697923Y1209533D01*
X2703002D01*
X2705541Y1206994D01*
Y1196837D01*
X2703002Y1194298D01*
X2697923D01*
X2695384Y1196837D01*
Y1206994D01*
X2718237Y1194298D02*
Y1209533D01*
X2710619Y1201916D01*
X2720776D01*
X2741089Y1194298D02*
Y1209533D01*
X2746168Y1204455D01*
X2751246Y1209533D01*
Y1194298D01*
X2756324Y1209533D02*
Y1194298D01*
X2766481D01*
X2647140Y1237474D02*
X2644601Y1240013D01*
X2639522D01*
X2636983Y1237474D01*
Y1227317D01*
X2639522Y1224778D01*
X2644601D01*
X2647140Y1227317D01*
X2654757Y1224778D02*
X2659836D01*
X2662375Y1227317D01*
Y1232396D01*
X2659836Y1234935D01*
X2654757D01*
X2652218Y1232396D01*
Y1227317D01*
X2654757Y1224778D01*
X2667453Y1219700D02*
Y1234935D01*
X2675071D01*
X2677610Y1232396D01*
Y1227317D01*
X2675071Y1224778D01*
X2667453D01*
X2682688Y1219700D02*
Y1234935D01*
X2690306D01*
X2692845Y1232396D01*
Y1227317D01*
X2690306Y1224778D01*
X2682688D01*
X2705541D02*
X2700463D01*
X2697923Y1227317D01*
Y1232396D01*
X2700463Y1234935D01*
X2705541D01*
X2708080Y1232396D01*
Y1229856D01*
X2697923D01*
X2713158Y1234935D02*
Y1224778D01*
Y1229856D01*
X2715698Y1232396D01*
X2718237Y1234935D01*
X2720776D01*
X2647140Y1267954D02*
X2644601Y1270493D01*
X2639522D01*
X2636983Y1267954D01*
Y1265415D01*
X2639522Y1262876D01*
X2644601D01*
X2647140Y1260337D01*
Y1257797D01*
X2644601Y1255258D01*
X2639522D01*
X2636983Y1257797D01*
X2654757Y1255258D02*
X2659836D01*
X2662375Y1257797D01*
Y1262876D01*
X2659836Y1265415D01*
X2654757D01*
X2652218Y1262876D01*
Y1257797D01*
X2654757Y1255258D01*
X2667453D02*
X2672532D01*
X2669992D01*
Y1270493D01*
X2667453D01*
X2690306D02*
Y1255258D01*
X2682688D01*
X2680149Y1257797D01*
Y1262876D01*
X2682688Y1265415D01*
X2690306D01*
X2703002Y1255258D02*
X2697923D01*
X2695384Y1257797D01*
Y1262876D01*
X2697923Y1265415D01*
X2703002D01*
X2705541Y1262876D01*
Y1260337D01*
X2695384D01*
X2710619Y1265415D02*
Y1255258D01*
Y1260337D01*
X2713158Y1262876D01*
X2715698Y1265415D01*
X2718237D01*
X2741089Y1255258D02*
Y1270493D01*
X2748707D01*
X2751246Y1267954D01*
Y1262876D01*
X2748707Y1260337D01*
X2741089D01*
X2746168D02*
X2751246Y1255258D01*
X2763942D02*
X2758864D01*
X2756324Y1257797D01*
Y1262876D01*
X2758864Y1265415D01*
X2763942D01*
X2766481Y1262876D01*
Y1260337D01*
X2756324D01*
X2771559Y1255258D02*
X2779177D01*
X2781716Y1257797D01*
X2779177Y1260337D01*
X2774099D01*
X2771559Y1262876D01*
X2774099Y1265415D01*
X2781716D01*
X2786795Y1255258D02*
X2791873D01*
X2789334D01*
Y1265415D01*
X2786795D01*
X2799490Y1255258D02*
X2807108D01*
X2809647Y1257797D01*
X2807108Y1260337D01*
X2802030D01*
X2799490Y1262876D01*
X2802030Y1265415D01*
X2809647D01*
X2817265Y1267954D02*
Y1265415D01*
X2814726D01*
X2819804D01*
X2817265D01*
Y1257797D01*
X2819804Y1255258D01*
X2855364Y1331453D02*
X2865521D01*
X2860442D01*
Y1316218D01*
X2870599Y1331453D02*
Y1316218D01*
Y1323836D01*
X2873138Y1326375D01*
X2878217D01*
X2880756Y1323836D01*
Y1316218D01*
X2885834D02*
X2890912D01*
X2888373D01*
Y1326375D01*
X2885834D01*
X2908687D02*
X2901069D01*
X2898530Y1323836D01*
Y1318757D01*
X2901069Y1316218D01*
X2908687D01*
X2913765D02*
Y1331453D01*
Y1321297D02*
X2921382Y1326375D01*
X2913765Y1321297D02*
X2921382Y1316218D01*
X2929000D02*
Y1326375D01*
X2936618D01*
X2939157Y1323836D01*
Y1316218D01*
X2951853D02*
X2946774D01*
X2944235Y1318757D01*
Y1323836D01*
X2946774Y1326375D01*
X2951853D01*
X2954392Y1323836D01*
Y1321297D01*
X2944235D01*
X2959470Y1316218D02*
X2967088D01*
X2969627Y1318757D01*
X2967088Y1321297D01*
X2962009D01*
X2959470Y1323836D01*
X2962009Y1326375D01*
X2969627D01*
X2974705Y1316218D02*
X2982323D01*
X2984862Y1318757D01*
X2982323Y1321297D01*
X2977245D01*
X2974705Y1323836D01*
X2977245Y1326375D01*
X2984862D01*
X2855364Y902194D02*
X2857903Y904733D01*
X2862981D01*
X2865521Y902194D01*
Y892037D01*
X2862981Y889498D01*
X2857903D01*
X2855364Y892037D01*
Y902194D01*
X2870599Y889498D02*
Y892037D01*
X2873138D01*
Y889498D01*
X2870599D01*
X2890912D02*
Y904733D01*
X2883295Y897116D01*
X2893452D01*
X2898530Y902194D02*
X2901069Y904733D01*
X2906147D01*
X2908687Y902194D01*
Y892037D01*
X2906147Y889498D01*
X2901069D01*
X2898530Y892037D01*
Y902194D01*
X2913765Y889498D02*
Y899655D01*
X2916304D01*
X2918843Y897116D01*
Y889498D01*
Y897116D01*
X2921382Y899655D01*
X2923922Y897116D01*
Y889498D01*
X2929000D02*
X2934078D01*
X2931539D01*
Y899655D01*
X2929000D01*
X2941696Y889498D02*
X2946774D01*
X2944235D01*
Y904733D01*
X2941696D01*
X2855364Y932674D02*
X2857903Y935213D01*
X2862981D01*
X2865521Y932674D01*
Y922517D01*
X2862981Y919978D01*
X2857903D01*
X2855364Y922517D01*
Y932674D01*
X2870599Y919978D02*
Y922517D01*
X2873138D01*
Y919978D01*
X2870599D01*
X2883295Y935213D02*
X2893452D01*
Y932674D01*
X2883295Y922517D01*
Y919978D01*
X2898530D02*
X2903608D01*
X2901069D01*
Y935213D01*
X2898530Y932674D01*
X2911226Y919978D02*
Y930135D01*
X2913765D01*
X2916304Y927596D01*
Y919978D01*
Y927596D01*
X2918843Y930135D01*
X2921382Y927596D01*
Y919978D01*
X2926461D02*
X2931539D01*
X2929000D01*
Y930135D01*
X2926461D01*
X2939157Y919978D02*
X2944235D01*
X2941696D01*
Y935213D01*
X2939157D01*
X2865521Y965693D02*
X2860442Y963154D01*
X2855364Y958076D01*
Y952997D01*
X2857903Y950458D01*
X2862981D01*
X2865521Y952997D01*
Y955536D01*
X2862981Y958076D01*
X2855364D01*
X2870599Y950458D02*
Y952997D01*
X2873138D01*
Y950458D01*
X2870599D01*
X2883295Y965693D02*
X2893452D01*
Y963154D01*
X2883295Y952997D01*
Y950458D01*
X2898530Y952997D02*
X2901069Y950458D01*
X2906147D01*
X2908687Y952997D01*
Y963154D01*
X2906147Y965693D01*
X2901069D01*
X2898530Y963154D01*
Y960615D01*
X2901069Y958076D01*
X2908687D01*
X2913765Y950458D02*
Y960615D01*
X2916304D01*
X2918843Y958076D01*
Y950458D01*
Y958076D01*
X2921382Y960615D01*
X2923922Y958076D01*
Y950458D01*
X2929000D02*
X2934078D01*
X2931539D01*
Y960615D01*
X2929000D01*
X2941696Y950458D02*
X2946774D01*
X2944235D01*
Y965693D01*
X2941696D01*
X2855364Y993634D02*
X2857903Y996173D01*
X2862981D01*
X2865521Y993634D01*
Y983477D01*
X2862981Y980938D01*
X2857903D01*
X2855364Y983477D01*
Y993634D01*
X2870599Y980938D02*
Y983477D01*
X2873138D01*
Y980938D01*
X2870599D01*
X2883295Y996173D02*
X2893452D01*
Y993634D01*
X2883295Y983477D01*
Y980938D01*
X2898530D02*
X2903608D01*
X2901069D01*
Y996173D01*
X2898530Y993634D01*
X2911226Y980938D02*
Y991095D01*
X2913765D01*
X2916304Y988556D01*
Y980938D01*
Y988556D01*
X2918843Y991095D01*
X2921382Y988556D01*
Y980938D01*
X2926461D02*
X2931539D01*
X2929000D01*
Y991095D01*
X2926461D01*
X2939157Y980938D02*
X2944235D01*
X2941696D01*
Y996173D01*
X2939157D01*
X2855364Y1026653D02*
X2865521D01*
Y1024114D01*
X2855364Y1013957D01*
Y1011418D01*
X2870599D02*
Y1013957D01*
X2873138D01*
Y1011418D01*
X2870599D01*
X2883295Y1026653D02*
X2893452D01*
Y1024114D01*
X2883295Y1013957D01*
Y1011418D01*
X2908687D02*
X2898530D01*
X2908687Y1021575D01*
Y1024114D01*
X2906147Y1026653D01*
X2901069D01*
X2898530Y1024114D01*
X2913765Y1011418D02*
Y1021575D01*
X2916304D01*
X2918843Y1019036D01*
Y1011418D01*
Y1019036D01*
X2921382Y1021575D01*
X2923922Y1019036D01*
Y1011418D01*
X2929000D02*
X2934078D01*
X2931539D01*
Y1021575D01*
X2929000D01*
X2941696Y1011418D02*
X2946774D01*
X2944235D01*
Y1026653D01*
X2941696D01*
X2855364Y1054594D02*
X2857903Y1057133D01*
X2862981D01*
X2865521Y1054594D01*
Y1044437D01*
X2862981Y1041898D01*
X2857903D01*
X2855364Y1044437D01*
Y1054594D01*
X2870599Y1041898D02*
Y1044437D01*
X2873138D01*
Y1041898D01*
X2870599D01*
X2883295Y1057133D02*
X2893452D01*
Y1054594D01*
X2883295Y1044437D01*
Y1041898D01*
X2898530D02*
X2903608D01*
X2901069D01*
Y1057133D01*
X2898530Y1054594D01*
X2911226Y1041898D02*
Y1052055D01*
X2913765D01*
X2916304Y1049516D01*
Y1041898D01*
Y1049516D01*
X2918843Y1052055D01*
X2921382Y1049516D01*
Y1041898D01*
X2926461D02*
X2931539D01*
X2929000D01*
Y1052055D01*
X2926461D01*
X2939157Y1041898D02*
X2944235D01*
X2941696D01*
Y1057133D01*
X2939157D01*
X2865521Y1072378D02*
X2855364D01*
X2865521Y1082535D01*
Y1085074D01*
X2862981Y1087613D01*
X2857903D01*
X2855364Y1085074D01*
X2870599Y1087613D02*
X2880756D01*
Y1085074D01*
X2870599Y1074917D01*
Y1072378D01*
X2885834D02*
Y1074917D01*
X2888373D01*
Y1072378D01*
X2885834D01*
X2906147D02*
Y1087613D01*
X2898530Y1079996D01*
X2908687D01*
X2921382Y1072378D02*
Y1087613D01*
X2913765Y1079996D01*
X2923922D01*
X2929000Y1072378D02*
Y1082535D01*
X2931539D01*
X2934078Y1079996D01*
Y1072378D01*
Y1079996D01*
X2936618Y1082535D01*
X2939157Y1079996D01*
Y1072378D01*
X2944235D02*
X2949313D01*
X2946774D01*
Y1082535D01*
X2944235D01*
X2956931Y1072378D02*
X2962009D01*
X2959470D01*
Y1087613D01*
X2956931D01*
X2855364Y1115554D02*
X2857903Y1118093D01*
X2862981D01*
X2865521Y1115554D01*
Y1105397D01*
X2862981Y1102858D01*
X2857903D01*
X2855364Y1105397D01*
Y1115554D01*
X2870599Y1102858D02*
Y1105397D01*
X2873138D01*
Y1102858D01*
X2870599D01*
X2883295Y1118093D02*
X2893452D01*
Y1115554D01*
X2883295Y1105397D01*
Y1102858D01*
X2898530D02*
X2903608D01*
X2901069D01*
Y1118093D01*
X2898530Y1115554D01*
X2911226Y1102858D02*
Y1113015D01*
X2913765D01*
X2916304Y1110476D01*
Y1102858D01*
Y1110476D01*
X2918843Y1113015D01*
X2921382Y1110476D01*
Y1102858D01*
X2926461D02*
X2931539D01*
X2929000D01*
Y1113015D01*
X2926461D01*
X2939157Y1102858D02*
X2944235D01*
X2941696D01*
Y1118093D01*
X2939157D01*
X2855364Y1148573D02*
X2865521D01*
Y1146034D01*
X2855364Y1135877D01*
Y1133338D01*
X2870599D02*
Y1135877D01*
X2873138D01*
Y1133338D01*
X2870599D01*
X2883295Y1148573D02*
X2893452D01*
Y1146034D01*
X2883295Y1135877D01*
Y1133338D01*
X2908687D02*
X2898530D01*
X2908687Y1143495D01*
Y1146034D01*
X2906147Y1148573D01*
X2901069D01*
X2898530Y1146034D01*
X2913765Y1133338D02*
Y1143495D01*
X2916304D01*
X2918843Y1140956D01*
Y1133338D01*
Y1140956D01*
X2921382Y1143495D01*
X2923922Y1140956D01*
Y1133338D01*
X2929000D02*
X2934078D01*
X2931539D01*
Y1143495D01*
X2929000D01*
X2941696Y1133338D02*
X2946774D01*
X2944235D01*
Y1148573D01*
X2941696D01*
X2855364Y1176514D02*
X2857903Y1179053D01*
X2862981D01*
X2865521Y1176514D01*
Y1166357D01*
X2862981Y1163818D01*
X2857903D01*
X2855364Y1166357D01*
Y1176514D01*
X2870599Y1163818D02*
Y1166357D01*
X2873138D01*
Y1163818D01*
X2870599D01*
X2883295Y1179053D02*
X2893452D01*
Y1176514D01*
X2883295Y1166357D01*
Y1163818D01*
X2898530D02*
X2903608D01*
X2901069D01*
Y1179053D01*
X2898530Y1176514D01*
X2911226Y1163818D02*
Y1173975D01*
X2913765D01*
X2916304Y1171436D01*
Y1163818D01*
Y1171436D01*
X2918843Y1173975D01*
X2921382Y1171436D01*
Y1163818D01*
X2926461D02*
X2931539D01*
X2929000D01*
Y1173975D01*
X2926461D01*
X2939157Y1163818D02*
X2944235D01*
X2941696D01*
Y1179053D01*
X2939157D01*
X2865521Y1209533D02*
X2860442Y1206994D01*
X2855364Y1201916D01*
Y1196837D01*
X2857903Y1194298D01*
X2862981D01*
X2865521Y1196837D01*
Y1199377D01*
X2862981Y1201916D01*
X2855364D01*
X2870599Y1194298D02*
Y1196837D01*
X2873138D01*
Y1194298D01*
X2870599D01*
X2883295Y1209533D02*
X2893452D01*
Y1206994D01*
X2883295Y1196837D01*
Y1194298D01*
X2898530Y1196837D02*
X2901069Y1194298D01*
X2906147D01*
X2908687Y1196837D01*
Y1206994D01*
X2906147Y1209533D01*
X2901069D01*
X2898530Y1206994D01*
Y1204455D01*
X2901069Y1201916D01*
X2908687D01*
X2913765Y1194298D02*
Y1204455D01*
X2916304D01*
X2918843Y1201916D01*
Y1194298D01*
Y1201916D01*
X2921382Y1204455D01*
X2923922Y1201916D01*
Y1194298D01*
X2929000D02*
X2934078D01*
X2931539D01*
Y1204455D01*
X2929000D01*
X2941696Y1194298D02*
X2946774D01*
X2944235D01*
Y1209533D01*
X2941696D01*
X2855364Y1237474D02*
X2857903Y1240013D01*
X2862981D01*
X2865521Y1237474D01*
Y1227317D01*
X2862981Y1224778D01*
X2857903D01*
X2855364Y1227317D01*
Y1237474D01*
X2870599Y1224778D02*
Y1227317D01*
X2873138D01*
Y1224778D01*
X2870599D01*
X2883295Y1240013D02*
X2893452D01*
Y1237474D01*
X2883295Y1227317D01*
Y1224778D01*
X2898530D02*
X2903608D01*
X2901069D01*
Y1240013D01*
X2898530Y1237474D01*
X2911226Y1224778D02*
Y1234935D01*
X2913765D01*
X2916304Y1232396D01*
Y1224778D01*
Y1232396D01*
X2918843Y1234935D01*
X2921382Y1232396D01*
Y1224778D01*
X2926461D02*
X2931539D01*
X2929000D01*
Y1234935D01*
X2926461D01*
X2939157Y1224778D02*
X2944235D01*
X2941696D01*
Y1240013D01*
X2939157D01*
X2855364Y1267954D02*
X2857903Y1270493D01*
X2862981D01*
X2865521Y1267954D01*
Y1257797D01*
X2862981Y1255258D01*
X2857903D01*
X2855364Y1257797D01*
Y1267954D01*
X2870599Y1255258D02*
Y1257797D01*
X2873138D01*
Y1255258D01*
X2870599D01*
X2890912D02*
Y1270493D01*
X2883295Y1262876D01*
X2893452D01*
X2898530Y1267954D02*
X2901069Y1270493D01*
X2906147D01*
X2908687Y1267954D01*
Y1257797D01*
X2906147Y1255258D01*
X2901069D01*
X2898530Y1257797D01*
Y1267954D01*
X2913765Y1255258D02*
Y1265415D01*
X2916304D01*
X2918843Y1262876D01*
Y1255258D01*
Y1262876D01*
X2921382Y1265415D01*
X2923922Y1262876D01*
Y1255258D01*
X2929000D02*
X2934078D01*
X2931539D01*
Y1265415D01*
X2929000D01*
X2941696Y1255258D02*
X2946774D01*
X2944235D01*
Y1270493D01*
X2941696D01*
X3030579Y1328914D02*
X3028040Y1331453D01*
X3022961D01*
X3020422Y1328914D01*
Y1318757D01*
X3022961Y1316218D01*
X3028040D01*
X3030579Y1318757D01*
X3038196Y1316218D02*
X3043275D01*
X3045814Y1318757D01*
Y1323836D01*
X3043275Y1326375D01*
X3038196D01*
X3035657Y1323836D01*
Y1318757D01*
X3038196Y1316218D01*
X3050892D02*
Y1326375D01*
X3058510D01*
X3061049Y1323836D01*
Y1316218D01*
X3066127D02*
X3073745D01*
X3076284Y1318757D01*
X3073745Y1321297D01*
X3068666D01*
X3066127Y1323836D01*
X3068666Y1326375D01*
X3076284D01*
X3083901Y1328914D02*
Y1326375D01*
X3081362D01*
X3086441D01*
X3083901D01*
Y1318757D01*
X3086441Y1316218D01*
X3096597Y1326375D02*
X3101676D01*
X3104215Y1323836D01*
Y1316218D01*
X3096597D01*
X3094058Y1318757D01*
X3096597Y1321297D01*
X3104215D01*
X3109293Y1316218D02*
Y1326375D01*
X3116911D01*
X3119450Y1323836D01*
Y1316218D01*
X3127068Y1328914D02*
Y1326375D01*
X3124528D01*
X3129607D01*
X3127068D01*
Y1318757D01*
X3129607Y1316218D01*
X3020422Y902194D02*
X3022961Y904733D01*
X3028040D01*
X3030579Y902194D01*
Y899655D01*
X3028040Y897116D01*
X3025500D01*
X3028040D01*
X3030579Y894576D01*
Y892037D01*
X3028040Y889498D01*
X3022961D01*
X3020422Y892037D01*
X3035657Y889498D02*
Y892037D01*
X3038196D01*
Y889498D01*
X3035657D01*
X3058510Y904733D02*
X3048353D01*
Y897116D01*
X3053431Y899655D01*
X3055970D01*
X3058510Y897116D01*
Y892037D01*
X3055970Y889498D01*
X3050892D01*
X3048353Y892037D01*
X3028040Y950458D02*
Y965693D01*
X3020422Y958076D01*
X3030579D01*
X3035657Y950458D02*
Y952997D01*
X3038196D01*
Y950458D01*
X3035657D01*
X3055970D02*
Y965693D01*
X3048353Y958076D01*
X3058510D01*
X3028040Y1011418D02*
Y1026653D01*
X3020422Y1019036D01*
X3030579D01*
X3035657Y1011418D02*
Y1013957D01*
X3038196D01*
Y1011418D01*
X3035657D01*
X3055970D02*
Y1026653D01*
X3048353Y1019036D01*
X3058510D01*
X3028040Y1072378D02*
Y1087613D01*
X3020422Y1079996D01*
X3030579D01*
X3035657Y1072378D02*
Y1074917D01*
X3038196D01*
Y1072378D01*
X3035657D01*
X3055970D02*
Y1087613D01*
X3048353Y1079996D01*
X3058510D01*
X3028040Y1133338D02*
Y1148573D01*
X3020422Y1140956D01*
X3030579D01*
X3035657Y1133338D02*
Y1135877D01*
X3038196D01*
Y1133338D01*
X3035657D01*
X3055970D02*
Y1148573D01*
X3048353Y1140956D01*
X3058510D01*
X3028040Y1194298D02*
Y1209533D01*
X3020422Y1201916D01*
X3030579D01*
X3035657Y1194298D02*
Y1196837D01*
X3038196D01*
Y1194298D01*
X3035657D01*
X3055970D02*
Y1209533D01*
X3048353Y1201916D01*
X3058510D01*
X3020422Y1267954D02*
X3022961Y1270493D01*
X3028040D01*
X3030579Y1267954D01*
Y1265415D01*
X3028040Y1262876D01*
X3025500D01*
X3028040D01*
X3030579Y1260337D01*
Y1257797D01*
X3028040Y1255258D01*
X3022961D01*
X3020422Y1257797D01*
X3035657Y1255258D02*
Y1257797D01*
X3038196D01*
Y1255258D01*
X3035657D01*
X3058510Y1270493D02*
X3048353D01*
Y1262876D01*
X3053431Y1265415D01*
X3055970D01*
X3058510Y1262876D01*
Y1257797D01*
X3055970Y1255258D01*
X3050892D01*
X3048353Y1257797D01*
X3165167Y1331453D02*
Y1316218D01*
X3172784D01*
X3175323Y1318757D01*
Y1321297D01*
X3172784Y1323836D01*
X3165167D01*
X3172784D01*
X3175323Y1326375D01*
Y1328914D01*
X3172784Y1331453D01*
X3165167D01*
X3182941Y1316218D02*
X3188019D01*
X3190558Y1318757D01*
Y1323836D01*
X3188019Y1326375D01*
X3182941D01*
X3180402Y1323836D01*
Y1318757D01*
X3182941Y1316218D01*
X3198176Y1326375D02*
X3203254D01*
X3205793Y1323836D01*
Y1316218D01*
X3198176D01*
X3195637Y1318757D01*
X3198176Y1321297D01*
X3205793D01*
X3210872Y1326375D02*
Y1316218D01*
Y1321297D01*
X3213411Y1323836D01*
X3215950Y1326375D01*
X3218489D01*
X3236264Y1331453D02*
Y1316218D01*
X3228646D01*
X3226107Y1318757D01*
Y1323836D01*
X3228646Y1326375D01*
X3236264D01*
X3256577Y1331453D02*
Y1316218D01*
X3266734D01*
X3274352Y1326375D02*
X3279430D01*
X3281969Y1323836D01*
Y1316218D01*
X3274352D01*
X3271812Y1318757D01*
X3274352Y1321297D01*
X3281969D01*
X3287047Y1326375D02*
Y1318757D01*
X3289586Y1316218D01*
X3297204D01*
Y1313679D01*
X3294665Y1311140D01*
X3292126D01*
X3297204Y1316218D02*
Y1326375D01*
X3309900Y1316218D02*
X3304821D01*
X3302282Y1318757D01*
Y1323836D01*
X3304821Y1326375D01*
X3309900D01*
X3312439Y1323836D01*
Y1321297D01*
X3302282D01*
X3317517Y1326375D02*
Y1316218D01*
Y1321297D01*
X3320056Y1323836D01*
X3322596Y1326375D01*
X3325135D01*
X3358144Y1328914D02*
X3355605Y1331453D01*
X3350527D01*
X3347988Y1328914D01*
Y1326375D01*
X3350527Y1323836D01*
X3355605D01*
X3358144Y1321297D01*
Y1318757D01*
X3355605Y1316218D01*
X3350527D01*
X3347988Y1318757D01*
X3365762Y1328914D02*
Y1326375D01*
X3363223D01*
X3368301D01*
X3365762D01*
Y1318757D01*
X3368301Y1316218D01*
X3378458Y1326375D02*
X3383536D01*
X3386075Y1323836D01*
Y1316218D01*
X3378458D01*
X3375919Y1318757D01*
X3378458Y1321297D01*
X3386075D01*
X3401310Y1326375D02*
X3393693D01*
X3391154Y1323836D01*
Y1318757D01*
X3393693Y1316218D01*
X3401310D01*
X3406389D02*
Y1331453D01*
Y1321297D02*
X3414006Y1326375D01*
X3406389Y1321297D02*
X3414006Y1316218D01*
D213*
X3419086Y851398D02*
X3434326Y866638D01*
X3403846Y851398D02*
X3434326Y881878D01*
X3388606Y851398D02*
X3419086Y881878D01*
X3373366Y851398D02*
X3403846Y881878D01*
X3358126Y851398D02*
X3388606Y881878D01*
X3342886Y851398D02*
X3373366Y881878D01*
X3327646Y851398D02*
X3358126Y881878D01*
X3312406Y851398D02*
X3342886Y881878D01*
X3297166Y851398D02*
X3327646Y881878D01*
X3281926Y851398D02*
X3312406Y881878D01*
X3266686Y851398D02*
X3297166Y881878D01*
X3251446Y851398D02*
X3281926Y881878D01*
X3236206Y851398D02*
X3266686Y881878D01*
X3220966Y851398D02*
X3251446Y881878D01*
X3205726Y851398D02*
X3236206Y881878D01*
X3190486Y851398D02*
X3220966Y881878D01*
X3175246Y851398D02*
X3205726Y881878D01*
X3160006Y851398D02*
X3190486Y881878D01*
X3149927Y856559D02*
X3175246Y881878D01*
X3149927Y871799D02*
X3160006Y881878D01*
X3419086D02*
X3434326Y897118D01*
X3403846Y881878D02*
X3434326Y912358D01*
X3388606Y881878D02*
X3419086Y912358D01*
X3373366Y881878D02*
X3403846Y912358D01*
X3358126Y881878D02*
X3388606Y912358D01*
X3342886Y881878D02*
X3373366Y912358D01*
X3327646Y881878D02*
X3358126Y912358D01*
X3312406Y881878D02*
X3342886Y912358D01*
X3297166Y881878D02*
X3327646Y912358D01*
X3281926Y881878D02*
X3312406Y912358D01*
X3266686Y881878D02*
X3297166Y912358D01*
X3251446Y881878D02*
X3281926Y912358D01*
X3236206Y881878D02*
X3266686Y912358D01*
X3220966Y881878D02*
X3251446Y912358D01*
X3205726Y881878D02*
X3236206Y912358D01*
X3190486Y881878D02*
X3220966Y912358D01*
X3175246Y881878D02*
X3205726Y912358D01*
X3160006Y881878D02*
X3190486Y912358D01*
X3149927Y887039D02*
X3175246Y912358D01*
X3149927Y902279D02*
X3160006Y912358D01*
X3419086D02*
X3434326Y927598D01*
X3403846Y912358D02*
X3434326Y942838D01*
X3388606Y912358D02*
X3419086Y942838D01*
X3373366Y912358D02*
X3403846Y942838D01*
X3358126Y912358D02*
X3388606Y942838D01*
X3342886Y912358D02*
X3373366Y942838D01*
X3327646Y912358D02*
X3358126Y942838D01*
X3312406Y912358D02*
X3342886Y942838D01*
X3297166Y912358D02*
X3327646Y942838D01*
X3281926Y912358D02*
X3312406Y942838D01*
X3266686Y912358D02*
X3297166Y942838D01*
X3251446Y912358D02*
X3281926Y942838D01*
X3236206Y912358D02*
X3266686Y942838D01*
X3220966Y912358D02*
X3251446Y942838D01*
X3205726Y912358D02*
X3236206Y942838D01*
X3190486Y912358D02*
X3220966Y942838D01*
X3175246Y912358D02*
X3205726Y942838D01*
X3160006Y912358D02*
X3190486Y942838D01*
X3149927Y917519D02*
X3175246Y942838D01*
X3149927Y932759D02*
X3160006Y942838D01*
X3419086D02*
X3434326Y958078D01*
X3403846Y942838D02*
X3434326Y973318D01*
X3388606Y942838D02*
X3419086Y973318D01*
X3373366Y942838D02*
X3403846Y973318D01*
X3358126Y942838D02*
X3388606Y973318D01*
X3342886Y942838D02*
X3373366Y973318D01*
X3327646Y942838D02*
X3358126Y973318D01*
X3312406Y942838D02*
X3342886Y973318D01*
X3297166Y942838D02*
X3327646Y973318D01*
X3281926Y942838D02*
X3312406Y973318D01*
X3266686Y942838D02*
X3297166Y973318D01*
X3251446Y942838D02*
X3281926Y973318D01*
X3236206Y942838D02*
X3266686Y973318D01*
X3220966Y942838D02*
X3251446Y973318D01*
X3205726Y942838D02*
X3236206Y973318D01*
X3190486Y942838D02*
X3220966Y973318D01*
X3175246Y942838D02*
X3205726Y973318D01*
X3160006Y942838D02*
X3190486Y973318D01*
X3149927Y947999D02*
X3175246Y973318D01*
X3149927Y963239D02*
X3160006Y973318D01*
X3419086D02*
X3434326Y988558D01*
X3403846Y973318D02*
X3434326Y1003798D01*
X3388606Y973318D02*
X3419086Y1003798D01*
X3373366Y973318D02*
X3403846Y1003798D01*
X3358126Y973318D02*
X3388606Y1003798D01*
X3342886Y973318D02*
X3373366Y1003798D01*
X3327646Y973318D02*
X3358126Y1003798D01*
X3312406Y973318D02*
X3342886Y1003798D01*
X3297166Y973318D02*
X3327646Y1003798D01*
X3281926Y973318D02*
X3312406Y1003798D01*
X3266686Y973318D02*
X3297166Y1003798D01*
X3251446Y973318D02*
X3281926Y1003798D01*
X3236206Y973318D02*
X3266686Y1003798D01*
X3220966Y973318D02*
X3251446Y1003798D01*
X3205726Y973318D02*
X3236206Y1003798D01*
X3190486Y973318D02*
X3220966Y1003798D01*
X3175246Y973318D02*
X3205726Y1003798D01*
X3160006Y973318D02*
X3190486Y1003798D01*
X3149927Y978479D02*
X3175246Y1003798D01*
X3149927Y993719D02*
X3160006Y1003798D01*
X3419086D02*
X3434326Y1019038D01*
X3403846Y1003798D02*
X3434326Y1034278D01*
X3388606Y1003798D02*
X3419086Y1034278D01*
X3373366Y1003798D02*
X3403846Y1034278D01*
X3358126Y1003798D02*
X3388606Y1034278D01*
X3342886Y1003798D02*
X3373366Y1034278D01*
X3327646Y1003798D02*
X3358126Y1034278D01*
X3312406Y1003798D02*
X3342886Y1034278D01*
X3297166Y1003798D02*
X3327646Y1034278D01*
X3281926Y1003798D02*
X3312406Y1034278D01*
X3266686Y1003798D02*
X3297166Y1034278D01*
X3251446Y1003798D02*
X3281926Y1034278D01*
X3236206Y1003798D02*
X3266686Y1034278D01*
X3220966Y1003798D02*
X3251446Y1034278D01*
X3205726Y1003798D02*
X3236206Y1034278D01*
X3190486Y1003798D02*
X3220966Y1034278D01*
X3175246Y1003798D02*
X3205726Y1034278D01*
X3160006Y1003798D02*
X3190486Y1034278D01*
X3149927Y1008959D02*
X3175246Y1034278D01*
X3149927Y1024199D02*
X3160006Y1034278D01*
X3419086D02*
X3434326Y1049518D01*
X3403846Y1034278D02*
X3434326Y1064758D01*
X3388606Y1034278D02*
X3419086Y1064758D01*
X3373366Y1034278D02*
X3403846Y1064758D01*
X3358126Y1034278D02*
X3388606Y1064758D01*
X3342886Y1034278D02*
X3373366Y1064758D01*
X3327646Y1034278D02*
X3358126Y1064758D01*
X3312406Y1034278D02*
X3342886Y1064758D01*
X3297166Y1034278D02*
X3327646Y1064758D01*
X3281926Y1034278D02*
X3312406Y1064758D01*
X3266686Y1034278D02*
X3297166Y1064758D01*
X3251446Y1034278D02*
X3281926Y1064758D01*
X3236206Y1034278D02*
X3266686Y1064758D01*
X3220966Y1034278D02*
X3251446Y1064758D01*
X3205726Y1034278D02*
X3236206Y1064758D01*
X3190486Y1034278D02*
X3220966Y1064758D01*
X3175246Y1034278D02*
X3205726Y1064758D01*
X3160006Y1034278D02*
X3190486Y1064758D01*
X3149927Y1039439D02*
X3175246Y1064758D01*
X3149927Y1054679D02*
X3160006Y1064758D01*
X3419086D02*
X3434326Y1079998D01*
X3403846Y1064758D02*
X3434326Y1095238D01*
X3388606Y1064758D02*
X3419086Y1095238D01*
X3373366Y1064758D02*
X3403846Y1095238D01*
X3358126Y1064758D02*
X3388606Y1095238D01*
X3342886Y1064758D02*
X3373366Y1095238D01*
X3327646Y1064758D02*
X3358126Y1095238D01*
X3312406Y1064758D02*
X3342886Y1095238D01*
X3297166Y1064758D02*
X3327646Y1095238D01*
X3281926Y1064758D02*
X3312406Y1095238D01*
X3266686Y1064758D02*
X3297166Y1095238D01*
X3251446Y1064758D02*
X3281926Y1095238D01*
X3236206Y1064758D02*
X3266686Y1095238D01*
X3220966Y1064758D02*
X3251446Y1095238D01*
X3205726Y1064758D02*
X3236206Y1095238D01*
X3190486Y1064758D02*
X3220966Y1095238D01*
X3175246Y1064758D02*
X3205726Y1095238D01*
X3160006Y1064758D02*
X3190486Y1095238D01*
X3149927Y1069919D02*
X3175246Y1095238D01*
X3149927Y1085159D02*
X3160006Y1095238D01*
X3419086D02*
X3434326Y1110478D01*
X3403846Y1095238D02*
X3434326Y1125718D01*
X3388606Y1095238D02*
X3419086Y1125718D01*
X3373366Y1095238D02*
X3403846Y1125718D01*
X3358126Y1095238D02*
X3388606Y1125718D01*
X3342886Y1095238D02*
X3373366Y1125718D01*
X3327646Y1095238D02*
X3358126Y1125718D01*
X3312406Y1095238D02*
X3342886Y1125718D01*
X3297166Y1095238D02*
X3327646Y1125718D01*
X3281926Y1095238D02*
X3312406Y1125718D01*
X3266686Y1095238D02*
X3297166Y1125718D01*
X3251446Y1095238D02*
X3281926Y1125718D01*
X3236206Y1095238D02*
X3266686Y1125718D01*
X3220966Y1095238D02*
X3251446Y1125718D01*
X3205726Y1095238D02*
X3236206Y1125718D01*
X3190486Y1095238D02*
X3220966Y1125718D01*
X3175246Y1095238D02*
X3205726Y1125718D01*
X3160006Y1095238D02*
X3190486Y1125718D01*
X3149927Y1100399D02*
X3175246Y1125718D01*
X3149927Y1115639D02*
X3160006Y1125718D01*
X3419086D02*
X3434326Y1140958D01*
X3403846Y1125718D02*
X3434326Y1156198D01*
X3388606Y1125718D02*
X3419086Y1156198D01*
X3373366Y1125718D02*
X3403846Y1156198D01*
X3358126Y1125718D02*
X3388606Y1156198D01*
X3342886Y1125718D02*
X3373366Y1156198D01*
X3327646Y1125718D02*
X3358126Y1156198D01*
X3312406Y1125718D02*
X3342886Y1156198D01*
X3297166Y1125718D02*
X3327646Y1156198D01*
X3281926Y1125718D02*
X3312406Y1156198D01*
X3266686Y1125718D02*
X3297166Y1156198D01*
X3251446Y1125718D02*
X3281926Y1156198D01*
X3236206Y1125718D02*
X3266686Y1156198D01*
X3220966Y1125718D02*
X3251446Y1156198D01*
X3205726Y1125718D02*
X3236206Y1156198D01*
X3190486Y1125718D02*
X3220966Y1156198D01*
X3175246Y1125718D02*
X3205726Y1156198D01*
X3160006Y1125718D02*
X3190486Y1156198D01*
X3149927Y1130879D02*
X3175246Y1156198D01*
X3149927Y1146119D02*
X3160006Y1156198D01*
X3419086D02*
X3434326Y1171438D01*
X3403846Y1156198D02*
X3434326Y1186678D01*
X3388606Y1156198D02*
X3419086Y1186678D01*
X3373366Y1156198D02*
X3403846Y1186678D01*
X3358126Y1156198D02*
X3388606Y1186678D01*
X3342886Y1156198D02*
X3373366Y1186678D01*
X3327646Y1156198D02*
X3358126Y1186678D01*
X3312406Y1156198D02*
X3342886Y1186678D01*
X3297166Y1156198D02*
X3327646Y1186678D01*
X3281926Y1156198D02*
X3312406Y1186678D01*
X3266686Y1156198D02*
X3297166Y1186678D01*
X3251446Y1156198D02*
X3281926Y1186678D01*
X3236206Y1156198D02*
X3266686Y1186678D01*
X3220966Y1156198D02*
X3251446Y1186678D01*
X3205726Y1156198D02*
X3236206Y1186678D01*
X3190486Y1156198D02*
X3220966Y1186678D01*
X3175246Y1156198D02*
X3205726Y1186678D01*
X3160006Y1156198D02*
X3190486Y1186678D01*
X3149927Y1161359D02*
X3175246Y1186678D01*
X3149927Y1176599D02*
X3160006Y1186678D01*
X3419086D02*
X3434326Y1201918D01*
X3403846Y1186678D02*
X3434326Y1217158D01*
X3388606Y1186678D02*
X3419086Y1217158D01*
X3373366Y1186678D02*
X3403846Y1217158D01*
X3358126Y1186678D02*
X3388606Y1217158D01*
X3342886Y1186678D02*
X3373366Y1217158D01*
X3327646Y1186678D02*
X3358126Y1217158D01*
X3312406Y1186678D02*
X3342886Y1217158D01*
X3297166Y1186678D02*
X3327646Y1217158D01*
X3281926Y1186678D02*
X3312406Y1217158D01*
X3266686Y1186678D02*
X3297166Y1217158D01*
X3251446Y1186678D02*
X3281926Y1217158D01*
X3236206Y1186678D02*
X3266686Y1217158D01*
X3220966Y1186678D02*
X3251446Y1217158D01*
X3205726Y1186678D02*
X3236206Y1217158D01*
X3190486Y1186678D02*
X3220966Y1217158D01*
X3175246Y1186678D02*
X3205726Y1217158D01*
X3160006Y1186678D02*
X3190486Y1217158D01*
X3149927Y1191839D02*
X3175246Y1217158D01*
X3149927Y1207079D02*
X3160006Y1217158D01*
X3419086D02*
X3434326Y1232398D01*
X3403846Y1217158D02*
X3434326Y1247638D01*
X3388606Y1217158D02*
X3419086Y1247638D01*
X3373366Y1217158D02*
X3403846Y1247638D01*
X3358126Y1217158D02*
X3388606Y1247638D01*
X3342886Y1217158D02*
X3373366Y1247638D01*
X3327646Y1217158D02*
X3358126Y1247638D01*
X3312406Y1217158D02*
X3342886Y1247638D01*
X3297166Y1217158D02*
X3327646Y1247638D01*
X3281926Y1217158D02*
X3312406Y1247638D01*
X3266686Y1217158D02*
X3297166Y1247638D01*
X3251446Y1217158D02*
X3281926Y1247638D01*
X3236206Y1217158D02*
X3266686Y1247638D01*
X3220966Y1217158D02*
X3251446Y1247638D01*
X3205726Y1217158D02*
X3236206Y1247638D01*
X3190486Y1217158D02*
X3220966Y1247638D01*
X3175246Y1217158D02*
X3205726Y1247638D01*
X3160006Y1217158D02*
X3190486Y1247638D01*
X3149927Y1222319D02*
X3175246Y1247638D01*
X3149927Y1237559D02*
X3160006Y1247638D01*
X3419086D02*
X3434326Y1262878D01*
X3403846Y1247638D02*
X3434326Y1278118D01*
X3388606Y1247638D02*
X3419086Y1278118D01*
X3373366Y1247638D02*
X3403846Y1278118D01*
X3358126Y1247638D02*
X3388606Y1278118D01*
X3342886Y1247638D02*
X3373366Y1278118D01*
X3327646Y1247638D02*
X3358126Y1278118D01*
X3312406Y1247638D02*
X3342886Y1278118D01*
X3297166Y1247638D02*
X3327646Y1278118D01*
X3281926Y1247638D02*
X3312406Y1278118D01*
X3266686Y1247638D02*
X3297166Y1278118D01*
X3251446Y1247638D02*
X3281926Y1278118D01*
X3236206Y1247638D02*
X3266686Y1278118D01*
X3220966Y1247638D02*
X3251446Y1278118D01*
X3205726Y1247638D02*
X3236206Y1278118D01*
X3190486Y1247638D02*
X3220966Y1278118D01*
X3175246Y1247638D02*
X3205726Y1278118D01*
X3160006Y1247638D02*
X3190486Y1278118D01*
X3149927Y1252799D02*
X3175246Y1278118D01*
X3149927Y1268039D02*
X3160006Y1278118D01*
X3419086D02*
X3434326Y1293358D01*
X3403846Y1278118D02*
X3434326Y1308598D01*
X3388606Y1278118D02*
X3419086Y1308598D01*
X3373366Y1278118D02*
X3403846Y1308598D01*
X3358126Y1278118D02*
X3388606Y1308598D01*
X3342886Y1278118D02*
X3373366Y1308598D01*
X3327646Y1278118D02*
X3358126Y1308598D01*
X3312406Y1278118D02*
X3342886Y1308598D01*
X3297166Y1278118D02*
X3327646Y1308598D01*
X3281926Y1278118D02*
X3312406Y1308598D01*
X3266686Y1278118D02*
X3297166Y1308598D01*
X3251446Y1278118D02*
X3281926Y1308598D01*
X3236206Y1278118D02*
X3266686Y1308598D01*
X3220966Y1278118D02*
X3251446Y1308598D01*
X3205726Y1278118D02*
X3236206Y1308598D01*
X3190486Y1278118D02*
X3220966Y1308598D01*
X3175246Y1278118D02*
X3205726Y1308598D01*
X3160006Y1278118D02*
X3190486Y1308598D01*
X3149927Y1283279D02*
X3175246Y1308598D01*
X3149927Y1298519D02*
X3160006Y1308598D01*
X3423144Y1129D02*
X3430039Y8024D01*
X3403713Y-3061D02*
X3434276Y27500D01*
X3388474Y-3061D02*
X3434276Y42741D01*
X3373233Y-3061D02*
X3434276Y57981D01*
X3357993Y-3061D02*
X3434276Y73221D01*
X3342753Y-3061D02*
X3434276Y88461D01*
X3327513Y-3061D02*
X3434276Y103701D01*
X3312273Y-3061D02*
X3434276Y118941D01*
X3297033Y-3061D02*
X3434276Y134181D01*
X3281794Y-3061D02*
X3434276Y149421D01*
X3266553Y-3061D02*
X3434276Y164661D01*
X3251313Y-3061D02*
X3434276Y179901D01*
X3236073Y-3061D02*
X3434276Y195141D01*
X3220833Y-3061D02*
X3434276Y210381D01*
X3205593Y-3061D02*
X3434276Y225621D01*
X3190353Y-3061D02*
X3434276Y240861D01*
X3175114Y-3061D02*
X3434276Y256102D01*
X3159873Y-3061D02*
X3434277Y271342D01*
X3144633Y-3061D02*
X3434277Y286582D01*
X3129393Y-3061D02*
X3434277Y301822D01*
X3114153Y-3061D02*
X3434277Y317062D01*
X3098913Y-3061D02*
X3434277Y332302D01*
X3083673Y-3061D02*
X3434277Y347542D01*
X3068434Y-3061D02*
X3434277Y362782D01*
X3053193Y-3061D02*
X3434277Y378022D01*
X3037953Y-3061D02*
X3434277Y393262D01*
X3022713Y-3061D02*
X3434277Y408502D01*
X3007473Y-3061D02*
X3434277Y423742D01*
X2992233Y-3061D02*
X3434278Y438983D01*
X2976993Y-3061D02*
X3434278Y454223D01*
X2961754Y-3061D02*
X3434278Y469463D01*
X2946513Y-3061D02*
X3434278Y484703D01*
X2931273Y-3061D02*
X3434278Y499943D01*
X2916033Y-3061D02*
X3434278Y515183D01*
X2900793Y-3061D02*
X3434278Y530423D01*
X2885553Y-3061D02*
X3434278Y545663D01*
X2870313Y-3061D02*
X3434278Y560903D01*
X2855074Y-3061D02*
X3434278Y576143D01*
X2839833Y-3061D02*
X3434278Y591383D01*
X2824594Y-3061D02*
X3434278Y606623D01*
X2809353Y-3061D02*
X3434278Y621864D01*
X2794113Y-3061D02*
X3434279Y637104D01*
X2778873Y-3061D02*
X3434279Y652344D01*
X2763633Y-3061D02*
X3434279Y667584D01*
X2748393Y-3061D02*
X3434279Y682824D01*
X2733153Y-3061D02*
X3434279Y698064D01*
X2717914Y-3061D02*
X3434279Y713304D01*
X2702673Y-3061D02*
X3434279Y728544D01*
X2687433Y-3061D02*
X3434279Y743784D01*
X2672193Y-3061D02*
X3434279Y759024D01*
X2656953Y-3061D02*
X3434279Y774264D01*
X2641713Y-3061D02*
X3434279Y789504D01*
X2626473Y-3061D02*
X3434279Y804744D01*
X2611234Y-3061D02*
X3434326Y820031D01*
X2595993Y-3061D02*
X3431093Y832038D01*
X2580753Y-3061D02*
X3423741Y839926D01*
X2565513Y-3061D02*
X3412469Y843894D01*
X2550273Y-3061D02*
X3397249Y843914D01*
X2535033Y-3061D02*
X3382009Y843914D01*
X2519793Y-3061D02*
X3366769Y843914D01*
X2504553Y-3061D02*
X3351529Y843914D01*
X2489313Y-3061D02*
X3336289Y843914D01*
X2474073Y-3061D02*
X3321049Y843914D01*
X2458833Y-3061D02*
X3305809Y843914D01*
X2443593Y-3061D02*
X3290569Y843914D01*
X2428353Y-3061D02*
X3275329Y843914D01*
X2413113Y-3061D02*
X3260089Y843914D01*
X2397873Y-3061D02*
X3244849Y843914D01*
X2382633Y-3061D02*
X3229609Y843914D01*
X2367393Y-3061D02*
X3214369Y843914D01*
X2352153Y-3061D02*
X3199129Y843914D01*
X2336913Y-3061D02*
X3183889Y843914D01*
X2321673Y-3061D02*
X3168649Y843914D01*
X2306433Y-3061D02*
X3153409Y843914D01*
X2293235Y-1020D02*
X3138169Y843914D01*
X2285073Y6058D02*
X3122929Y843914D01*
X2281471Y17696D02*
X3107689Y843914D01*
X2281471Y32936D02*
X3092449Y843914D01*
X2281471Y48176D02*
X3077209Y843914D01*
X2281471Y63416D02*
X3061969Y843914D01*
X2281471Y78656D02*
X3046729Y843914D01*
X2281471Y93896D02*
X3031489Y843914D01*
X2281471Y109136D02*
X3016249Y843914D01*
X2281471Y124376D02*
X3001010Y843914D01*
X2281471Y139616D02*
X2985769Y843914D01*
X2281471Y154856D02*
X2970529Y843914D01*
X2281471Y170096D02*
X2955289Y843914D01*
X2281471Y185336D02*
X2940049Y843915D01*
X2281471Y200576D02*
X2924810Y843915D01*
X2281471Y215816D02*
X2909569Y843915D01*
X2281471Y231056D02*
X2894330Y843915D01*
X2281471Y246296D02*
X2879090Y843915D01*
X2281471Y261536D02*
X2863849Y843915D01*
X2281471Y276776D02*
X2848610Y843915D01*
X2324056Y334601D02*
X2833370Y843915D01*
X2281471Y292016D02*
X2321375Y331920D01*
X2324056Y349841D02*
X2818130Y843915D01*
X2281471Y307256D02*
X2306135Y331920D01*
X2324056Y365081D02*
X2802890Y843915D01*
X2281471Y322496D02*
X2290895Y331920D01*
X2324056Y380321D02*
X2787650Y843915D01*
X2324056Y395561D02*
X2772410Y843915D01*
X2324056Y410801D02*
X2757170Y843915D01*
X2324056Y426041D02*
X2741930Y843915D01*
X2324056Y441281D02*
X2726690Y843915D01*
X2324056Y456521D02*
X2711450Y843915D01*
X2324056Y471761D02*
X2696210Y843915D01*
X2324056Y487001D02*
X2680970Y843915D01*
X2324056Y502241D02*
X2665730Y843915D01*
X2324056Y517481D02*
X2650490Y843915D01*
X2324056Y532721D02*
X2635250Y843915D01*
X2324056Y547961D02*
X2620010Y843915D01*
X2321656Y560801D02*
X2604770Y843915D01*
X2306416Y560801D02*
X2589530Y843915D01*
X2291176Y560801D02*
X2574290Y843915D01*
X2281471Y566336D02*
X2559050Y843915D01*
X2281471Y581576D02*
X2543810Y843915D01*
X2281471Y596816D02*
X2528570Y843915D01*
X2281471Y612056D02*
X2513330Y843915D01*
X2281471Y627296D02*
X2498090Y843915D01*
X2281471Y642536D02*
X2482850Y843915D01*
X2281471Y657776D02*
X2467610Y843915D01*
X2281470Y673016D02*
X2452370Y843915D01*
X2281470Y688256D02*
X2437130Y843915D01*
X2281470Y703496D02*
X2421890Y843915D01*
X2281470Y718736D02*
X2406650Y843915D01*
X2281470Y733976D02*
X2391410Y843915D01*
X2281470Y749215D02*
X2376171Y843915D01*
X2281470Y764455D02*
X2360930Y843916D01*
X2281470Y779696D02*
X2345690Y843916D01*
X2281470Y794936D02*
X2330450Y843916D01*
X2281470Y810175D02*
X2315211Y843916D01*
X2282507Y826452D02*
X2298991Y842936D01*
D306*
X59984Y2045532D02*
X54985Y2050530D01*
X44988D01*
X39990Y2045532D01*
Y2040533D01*
X44988Y2035535D01*
X54985D01*
X59984Y2030537D01*
Y2025538D01*
X54985Y2020540D01*
X44988D01*
X39990Y2025538D01*
X69980Y2050530D02*
Y2045532D01*
X79977Y2035535D01*
X89974Y2045532D01*
Y2050530D01*
X79977Y2035535D02*
Y2020540D01*
X99971D02*
Y2050530D01*
X119964Y2020540D01*
Y2050530D01*
X149954Y2045532D02*
X144956Y2050530D01*
X134959D01*
X129961Y2045532D01*
Y2025538D01*
X134959Y2020540D01*
X144956D01*
X149954Y2025538D01*
X159951Y2050530D02*
Y2020540D01*
X174946D01*
X179945Y2025538D01*
Y2030537D01*
X174946Y2035535D01*
X159951D01*
X174946D01*
X179945Y2040533D01*
Y2045532D01*
X174946Y2050530D01*
X159951D01*
X204937D02*
X194940D01*
X189942Y2045532D01*
Y2025538D01*
X194940Y2020540D01*
X204937D01*
X209935Y2025538D01*
Y2045532D01*
X204937Y2050530D01*
X219932D02*
X239925Y2020540D01*
Y2050530D02*
X219932Y2020540D01*
X764990Y2050530D02*
Y2030537D01*
X774987Y2020540D01*
X784984Y2030537D01*
Y2050530D01*
X794980Y2045532D02*
X799979Y2050530D01*
X809975D01*
X814974Y2045532D01*
Y2040533D01*
X809975Y2035535D01*
X804977D01*
X809975D01*
X814974Y2030537D01*
Y2025538D01*
X809975Y2020540D01*
X799979D01*
X794980Y2025538D01*
X824971Y2050530D02*
X834967D01*
X829969D01*
Y2020540D01*
X824971D01*
X834967D01*
X849962D02*
X859959D01*
X854961D01*
Y2050530D01*
X849962Y2045532D01*
M02*
