G04 Layer_Color=8421504*
%FSLAX44Y44*%
%MOMM*%
G71*
G01*
G75*
%ADD10R,1.1000X1.7000*%
%ADD11R,1.3716X1.8542*%
%ADD12R,1.8542X1.3716*%
%ADD13R,0.4064X1.8034*%
%ADD14R,0.3048X1.2700*%
%ADD15R,1.2700X0.3048*%
%ADD17R,2.7000X2.4000*%
%ADD18O,0.9500X0.3300*%
%ADD19O,0.3300X0.9500*%
%ADD20R,5.2000X5.2000*%
%ADD21R,0.9000X0.7000*%
%ADD22R,0.7000X0.9000*%
%ADD23R,1.8500X2.4000*%
%ADD45R,0.0254X0.0254*%
G36*
X946420Y544560D02*
X934450D01*
Y556530D01*
X946420D01*
Y544560D01*
D02*
G37*
G36*
X932450Y544560D02*
X920480Y544560D01*
Y556530D01*
X932450D01*
Y544560D01*
D02*
G37*
G36*
X974360Y544560D02*
X962390Y544560D01*
Y556530D01*
X974360D01*
Y544560D01*
D02*
G37*
G36*
X960390D02*
X948420D01*
Y556530D01*
X960390D01*
Y544560D01*
D02*
G37*
G36*
X946420Y530590D02*
X934450D01*
X934450Y542560D01*
X946420D01*
Y530590D01*
D02*
G37*
G36*
X932450D02*
X920480D01*
Y542560D01*
X932450D01*
Y530590D01*
D02*
G37*
G36*
X974360D02*
X962390D01*
Y542560D01*
X974360D01*
Y530590D01*
D02*
G37*
G36*
X960390D02*
X948420D01*
Y542560D01*
X960390D01*
X960390Y530590D01*
D02*
G37*
G36*
X946420Y572500D02*
X934450D01*
X934450Y584470D01*
X946420D01*
Y572500D01*
D02*
G37*
G36*
X932450D02*
X920480D01*
Y584470D01*
X932450D01*
Y572500D01*
D02*
G37*
G36*
X974360D02*
X962390D01*
Y584470D01*
X974360D01*
Y572500D01*
D02*
G37*
G36*
X960390D02*
X948420D01*
Y584470D01*
X960390D01*
X960390Y572500D01*
D02*
G37*
G36*
X946420Y558530D02*
X934450D01*
Y570500D01*
X946420D01*
Y558530D01*
D02*
G37*
G36*
X932450Y570500D02*
Y558530D01*
X920480D01*
Y570500D01*
X932450Y570500D01*
D02*
G37*
G36*
X974360Y558530D02*
X962390D01*
Y570500D01*
X974360Y570500D01*
Y558530D01*
D02*
G37*
G36*
X960390D02*
X948420D01*
Y570500D01*
X960390D01*
Y558530D01*
D02*
G37*
D10*
X984250Y850900D02*
D03*
X1011250D02*
D03*
X940707D02*
D03*
X967707D02*
D03*
D11*
X806199Y1127760D02*
D03*
X774195D02*
D03*
X732028Y725170D02*
D03*
X764032D02*
D03*
X732028Y682110D02*
D03*
X764032D02*
D03*
X732028Y649342D02*
D03*
X764032D02*
D03*
X738124Y1127760D02*
D03*
X706120D02*
D03*
X1238971Y765810D02*
D03*
X1206967D02*
D03*
D12*
X1189196Y1146556D02*
D03*
Y1114552D02*
D03*
X1141730Y1148842D02*
D03*
X1141730Y1116838D02*
D03*
X986790Y441452D02*
D03*
Y409448D02*
D03*
X953770Y409448D02*
D03*
Y441452D02*
D03*
X910590Y409448D02*
D03*
Y441452D02*
D03*
X867410Y409448D02*
D03*
Y441452D02*
D03*
X825500Y409448D02*
D03*
Y441452D02*
D03*
X875030Y627888D02*
D03*
Y659892D02*
D03*
X995177Y627888D02*
D03*
Y659892D02*
D03*
X962409Y629158D02*
D03*
Y661162D02*
D03*
X929640Y629158D02*
D03*
Y661162D02*
D03*
X947420Y1117346D02*
D03*
Y1149350D02*
D03*
X1042988Y1117346D02*
D03*
Y1149350D02*
D03*
X995204Y1117346D02*
D03*
Y1149350D02*
D03*
X1282700Y1146302D02*
D03*
Y1114298D02*
D03*
X894715Y1117853D02*
D03*
Y1149857D02*
D03*
X1236980Y1146556D02*
D03*
Y1114552D02*
D03*
X1019558Y409448D02*
D03*
Y441452D02*
D03*
X1093629Y1150620D02*
D03*
Y1118616D02*
D03*
X750570Y1060450D02*
D03*
Y1092454D02*
D03*
X846931Y1117853D02*
D03*
Y1149857D02*
D03*
D13*
X1153922Y464297D02*
D03*
X1187958D02*
D03*
X1153922Y491477D02*
D03*
X1187958D02*
D03*
X1153922Y518658D02*
D03*
X1187958D02*
D03*
X1153922Y545838D02*
D03*
X1187958D02*
D03*
X1153922Y573019D02*
D03*
X1187958D02*
D03*
X1153922Y600200D02*
D03*
X1187958D02*
D03*
X1153922Y654560D02*
D03*
X1153922Y627380D02*
D03*
X1187958Y654560D02*
D03*
X1187958Y627380D02*
D03*
X1111250Y835276D02*
D03*
X1145286D02*
D03*
X1111250Y863727D02*
D03*
X1145286D02*
D03*
X1111250Y891667D02*
D03*
X1145286D02*
D03*
X1111250Y918848D02*
D03*
X1145286D02*
D03*
X1111250Y946028D02*
D03*
X1145286D02*
D03*
X1111250Y973209D02*
D03*
X1145286D02*
D03*
X1111250Y1028316D02*
D03*
X1145286D02*
D03*
X1111250Y1000389D02*
D03*
X1145286D02*
D03*
D14*
X974920Y594360D02*
D03*
X969920D02*
D03*
X964920D02*
D03*
X959920D02*
D03*
X954920D02*
D03*
X949920D02*
D03*
X944920D02*
D03*
X939920D02*
D03*
X934920D02*
D03*
X929920D02*
D03*
X924920D02*
D03*
X919920D02*
D03*
Y520700D02*
D03*
X924920D02*
D03*
X929920D02*
D03*
X934920D02*
D03*
X939920D02*
D03*
X944920D02*
D03*
X949920D02*
D03*
X954920D02*
D03*
X959920D02*
D03*
X964920D02*
D03*
X969920D02*
D03*
X974920D02*
D03*
D15*
X910590Y585030D02*
D03*
Y580030D02*
D03*
Y575030D02*
D03*
Y570030D02*
D03*
Y565030D02*
D03*
Y560030D02*
D03*
Y555030D02*
D03*
Y550030D02*
D03*
Y545030D02*
D03*
Y540030D02*
D03*
Y535030D02*
D03*
Y530030D02*
D03*
X984250D02*
D03*
Y535030D02*
D03*
Y540030D02*
D03*
Y545030D02*
D03*
Y550030D02*
D03*
Y555030D02*
D03*
Y560030D02*
D03*
Y565030D02*
D03*
Y570030D02*
D03*
Y575030D02*
D03*
Y580030D02*
D03*
Y585030D02*
D03*
D17*
X840740Y628970D02*
D03*
Y668970D02*
D03*
X802640Y627700D02*
D03*
Y667700D02*
D03*
D18*
X992008Y962268D02*
D03*
Y957268D02*
D03*
Y952268D02*
D03*
Y947268D02*
D03*
Y942268D02*
D03*
Y937268D02*
D03*
Y932268D02*
D03*
Y927268D02*
D03*
Y922268D02*
D03*
Y917268D02*
D03*
Y912268D02*
D03*
Y907268D02*
D03*
X922508D02*
D03*
Y912268D02*
D03*
Y917268D02*
D03*
Y922268D02*
D03*
Y927268D02*
D03*
Y932268D02*
D03*
Y937268D02*
D03*
Y942268D02*
D03*
Y947268D02*
D03*
Y952268D02*
D03*
Y957268D02*
D03*
Y962268D02*
D03*
D19*
X984758Y900018D02*
D03*
X979758D02*
D03*
X974758D02*
D03*
X969758D02*
D03*
X964758D02*
D03*
X959758D02*
D03*
X954758D02*
D03*
X949758D02*
D03*
X944758D02*
D03*
X939758D02*
D03*
X934758D02*
D03*
X929758D02*
D03*
Y969518D02*
D03*
X934758D02*
D03*
X939758D02*
D03*
X944758D02*
D03*
X949758D02*
D03*
X954758D02*
D03*
X959758D02*
D03*
X964758D02*
D03*
X969758D02*
D03*
X974758D02*
D03*
X979758D02*
D03*
X984758D02*
D03*
D20*
X957580Y934720D02*
D03*
D21*
X829970Y725170D02*
D03*
X848970Y731670D02*
D03*
Y718670D02*
D03*
D22*
X875030Y718210D02*
D03*
X868530Y737210D02*
D03*
X881530D02*
D03*
D23*
X1268730Y726760D02*
D03*
Y766760D02*
D03*
X1307251Y724220D02*
D03*
Y764220D02*
D03*
X800100Y1054420D02*
D03*
Y1094420D02*
D03*
X703580Y1054420D02*
D03*
Y1094420D02*
D03*
D45*
X947420Y557530D02*
D03*
M02*
