G04 Layer_Physical_Order=1*
G04 Layer_Color=255*
%FSLAX44Y44*%
%MOMM*%
G71*
G01*
G75*
%ADD10R,1.1000X1.7000*%
%ADD11R,1.3716X1.8542*%
%ADD12R,1.8542X1.3716*%
%ADD13R,0.4064X1.8034*%
%ADD14R,0.3048X1.2700*%
%ADD15R,1.2700X0.3048*%
%ADD16R,5.5880X5.5880*%
%ADD17R,2.7000X2.4000*%
%ADD18O,0.9500X0.3300*%
%ADD19O,0.3300X0.9500*%
%ADD20R,5.2000X5.2000*%
%ADD21R,0.9000X0.7000*%
%ADD22R,0.7000X0.9000*%
%ADD23R,1.8500X2.4000*%
%ADD24C,0.2540*%
%ADD25C,0.3048*%
%ADD26C,0.5080*%
%ADD27C,1.0000*%
%ADD28C,0.6350*%
%ADD29C,1.2700*%
%ADD30C,0.3810*%
%ADD31C,1.1684*%
%ADD32C,3.0480*%
%ADD33O,2.7000X1.5000*%
%ADD34O,3.3020X1.5240*%
%ADD35C,0.7000*%
%ADD36C,0.7000*%
%ADD37C,1.5240*%
%ADD38C,0.9000*%
D10*
X984250Y850900D02*
D03*
X1011250D02*
D03*
X940707D02*
D03*
X967707D02*
D03*
D11*
X806199Y1127760D02*
D03*
X774195D02*
D03*
X732028Y725170D02*
D03*
X764032D02*
D03*
X732028Y682110D02*
D03*
X764032D02*
D03*
X732028Y649342D02*
D03*
X764032D02*
D03*
X738124Y1127760D02*
D03*
X706120D02*
D03*
X1238971Y765810D02*
D03*
X1206967D02*
D03*
D12*
X1189196Y1146556D02*
D03*
Y1114552D02*
D03*
X1141730Y1148842D02*
D03*
X1141730Y1116838D02*
D03*
X986790Y441452D02*
D03*
Y409448D02*
D03*
X953770Y409448D02*
D03*
Y441452D02*
D03*
X910590Y409448D02*
D03*
Y441452D02*
D03*
X867410Y409448D02*
D03*
Y441452D02*
D03*
X825500Y409448D02*
D03*
Y441452D02*
D03*
X875030Y627888D02*
D03*
Y659892D02*
D03*
X995177Y627888D02*
D03*
Y659892D02*
D03*
X962409Y629158D02*
D03*
Y661162D02*
D03*
X929640Y629158D02*
D03*
Y661162D02*
D03*
X947420Y1117346D02*
D03*
Y1149350D02*
D03*
X1042988Y1117346D02*
D03*
Y1149350D02*
D03*
X995204Y1117346D02*
D03*
Y1149350D02*
D03*
X1282700Y1146302D02*
D03*
Y1114298D02*
D03*
X894715Y1117853D02*
D03*
Y1149857D02*
D03*
X1236980Y1146556D02*
D03*
Y1114552D02*
D03*
X1019558Y409448D02*
D03*
Y441452D02*
D03*
X1093629Y1150620D02*
D03*
Y1118616D02*
D03*
X750570Y1060450D02*
D03*
Y1092454D02*
D03*
X846931Y1117853D02*
D03*
Y1149857D02*
D03*
D13*
X1153922Y464297D02*
D03*
X1187958D02*
D03*
X1153922Y491477D02*
D03*
X1187958D02*
D03*
X1153922Y518658D02*
D03*
X1187958D02*
D03*
X1153922Y545838D02*
D03*
X1187958D02*
D03*
X1153922Y573019D02*
D03*
X1187958D02*
D03*
X1153922Y600200D02*
D03*
X1187958D02*
D03*
X1153922Y654560D02*
D03*
X1153922Y627380D02*
D03*
X1187958Y654560D02*
D03*
X1187958Y627380D02*
D03*
X1111250Y835276D02*
D03*
X1145286D02*
D03*
X1111250Y863727D02*
D03*
X1145286D02*
D03*
X1111250Y891667D02*
D03*
X1145286D02*
D03*
X1111250Y918848D02*
D03*
X1145286D02*
D03*
X1111250Y946028D02*
D03*
X1145286D02*
D03*
X1111250Y973209D02*
D03*
X1145286D02*
D03*
X1111250Y1028316D02*
D03*
X1145286D02*
D03*
X1111250Y1000389D02*
D03*
X1145286D02*
D03*
D14*
X974920Y594360D02*
D03*
X969920D02*
D03*
X964920D02*
D03*
X959920D02*
D03*
X954920D02*
D03*
X949920D02*
D03*
X944920D02*
D03*
X939920D02*
D03*
X934920D02*
D03*
X929920D02*
D03*
X924920D02*
D03*
X919920D02*
D03*
Y520700D02*
D03*
X924920D02*
D03*
X929920D02*
D03*
X934920D02*
D03*
X939920D02*
D03*
X944920D02*
D03*
X949920D02*
D03*
X954920D02*
D03*
X959920D02*
D03*
X964920D02*
D03*
X969920D02*
D03*
X974920D02*
D03*
D15*
X910590Y585030D02*
D03*
Y580030D02*
D03*
Y575030D02*
D03*
Y570030D02*
D03*
Y565030D02*
D03*
Y560030D02*
D03*
Y555030D02*
D03*
Y550030D02*
D03*
Y545030D02*
D03*
Y540030D02*
D03*
Y535030D02*
D03*
Y530030D02*
D03*
X984250D02*
D03*
Y535030D02*
D03*
Y540030D02*
D03*
Y545030D02*
D03*
Y550030D02*
D03*
Y555030D02*
D03*
Y560030D02*
D03*
Y565030D02*
D03*
Y570030D02*
D03*
Y575030D02*
D03*
Y580030D02*
D03*
Y585030D02*
D03*
D16*
X947420Y557530D02*
D03*
D17*
X840740Y628970D02*
D03*
Y668970D02*
D03*
X802640Y627700D02*
D03*
Y667700D02*
D03*
D18*
X992008Y962268D02*
D03*
Y957268D02*
D03*
Y952268D02*
D03*
Y947268D02*
D03*
Y942268D02*
D03*
Y937268D02*
D03*
Y932268D02*
D03*
Y927268D02*
D03*
Y922268D02*
D03*
Y917268D02*
D03*
Y912268D02*
D03*
Y907268D02*
D03*
X922508D02*
D03*
Y912268D02*
D03*
Y917268D02*
D03*
Y922268D02*
D03*
Y927268D02*
D03*
Y932268D02*
D03*
Y937268D02*
D03*
Y942268D02*
D03*
Y947268D02*
D03*
Y952268D02*
D03*
Y957268D02*
D03*
Y962268D02*
D03*
D19*
X984758Y900018D02*
D03*
X979758D02*
D03*
X974758D02*
D03*
X969758D02*
D03*
X964758D02*
D03*
X959758D02*
D03*
X954758D02*
D03*
X949758D02*
D03*
X944758D02*
D03*
X939758D02*
D03*
X934758D02*
D03*
X929758D02*
D03*
Y969518D02*
D03*
X934758D02*
D03*
X939758D02*
D03*
X944758D02*
D03*
X949758D02*
D03*
X954758D02*
D03*
X959758D02*
D03*
X964758D02*
D03*
X969758D02*
D03*
X974758D02*
D03*
X979758D02*
D03*
X984758D02*
D03*
D20*
X957580Y934720D02*
D03*
D21*
X829970Y725170D02*
D03*
X848970Y731670D02*
D03*
Y718670D02*
D03*
D22*
X875030Y718210D02*
D03*
X868530Y737210D02*
D03*
X881530D02*
D03*
D23*
X1268730Y726760D02*
D03*
Y766760D02*
D03*
X1307251Y724220D02*
D03*
Y764220D02*
D03*
X800100Y1054420D02*
D03*
Y1094420D02*
D03*
X703580Y1054420D02*
D03*
Y1094420D02*
D03*
D24*
X942340Y725170D02*
X943610Y726440D01*
X929640Y712470D02*
X942340Y725170D01*
X959914Y934537D02*
X960128Y937268D01*
X943610Y920750D02*
X957580Y934720D01*
X949920Y560030D02*
X984250D01*
X949920Y555030D02*
X974920Y530030D01*
X949920Y560030D02*
X954920Y565030D01*
X919920Y585030D02*
X944920Y560030D01*
X929920Y540030D02*
X947420Y557530D01*
X910590Y560030D02*
X944920D01*
X755650Y856030D02*
X935577D01*
X944758Y969518D02*
Y1114684D01*
X945642Y1115568D01*
X899160Y940926D02*
X900502Y942268D01*
X922508D01*
X899160Y939800D02*
Y940926D01*
X834413Y932268D02*
X922508D01*
X894020Y947348D02*
X922428D01*
X922508Y947268D01*
X893940D02*
X894020Y947348D01*
X887882Y947268D02*
X893940D01*
X887730Y947420D02*
X887882Y947268D01*
X887730Y946150D02*
Y947420D01*
X939758Y916898D02*
X943610Y920750D01*
X958124Y934175D02*
X959914Y934537D01*
X954920Y565030D02*
X974920Y585030D01*
X964758Y941898D02*
Y969518D01*
X954920Y565030D02*
Y594360D01*
X969010Y850900D02*
Y863600D01*
X979758Y890952D02*
X986790Y883920D01*
Y853440D02*
Y883920D01*
X984250Y850900D02*
X986790Y853440D01*
X967707Y821657D02*
Y850900D01*
X868680Y807720D02*
X953770D01*
X967707Y821657D01*
X940707Y850900D02*
Y864507D01*
X935577Y856030D02*
X940707Y850900D01*
Y864507D02*
X959758Y883558D01*
X1141730Y1114552D02*
X1189196D01*
X985779Y613410D02*
X1000257Y627888D01*
X934720Y594560D02*
Y629158D01*
X1104900Y737870D02*
X1107440D01*
X1103630Y739140D02*
Y742950D01*
X1107440Y737870D02*
X1108710Y739140D01*
Y742950D02*
X1109980Y744220D01*
X1103630Y739140D02*
X1104900Y737870D01*
X1108710Y739140D02*
Y742950D01*
X1287251Y744220D02*
X1307251Y724220D01*
X1109980Y744220D02*
X1287251D01*
X835660Y520700D02*
X836930Y519430D01*
X834390Y523215D02*
X835660Y521945D01*
X830580Y520700D02*
Y521945D01*
X831850Y523215D01*
X834390D01*
X816610Y519430D02*
X829310D01*
X835660Y520700D02*
Y521945D01*
X829310Y519430D02*
X830580Y520700D01*
X900302Y539750D02*
X910310D01*
X879982Y519430D02*
X900302Y539750D01*
X836930Y519430D02*
X879982D01*
X802640Y533400D02*
X816610Y519430D01*
X880175Y962660D02*
X904886D01*
X872555Y970280D02*
X880175Y962660D01*
X859790Y970280D02*
X872555D01*
X899160Y975360D02*
X912252Y962268D01*
X886460Y975360D02*
X899160D01*
X873760Y880110D02*
X881380Y872490D01*
X806450Y880110D02*
X873760D01*
X800100Y886460D02*
X806450Y880110D01*
X869950Y867410D02*
X875030Y862330D01*
X731520Y867410D02*
X869950D01*
X706120Y892810D02*
X731520Y867410D01*
X872490Y872490D02*
X877570Y867410D01*
X735330Y872490D02*
X872490D01*
X721360Y886460D02*
X735330Y872490D01*
X875030Y862330D02*
X932180D01*
X954758Y884908D01*
X877570Y867410D02*
X928168D01*
X925830Y872490D02*
X944758Y891418D01*
X881380Y872490D02*
X925830D01*
X949758Y889000D02*
Y900018D01*
X928168Y867410D02*
X949758Y889000D01*
X721360Y941690D02*
X738830Y959160D01*
X721360Y886460D02*
Y941690D01*
X738830Y959160D02*
X753110D01*
X732790Y965200D02*
X738830Y959160D01*
X761110Y953572D02*
X785932D01*
X761110Y923572D02*
X811248D01*
X761110Y913572D02*
X815717D01*
X761110Y973572D02*
X786882D01*
X732790Y965200D02*
Y1047750D01*
X753110Y969160D02*
Y981710D01*
X706120Y892810D02*
Y958850D01*
X723900Y976630D01*
X755650Y1019810D02*
X773430D01*
X750570Y1024890D02*
X755650Y1019810D01*
X750570Y1024890D02*
Y1060450D01*
X753110Y981710D02*
X758190Y986790D01*
X774700D01*
X778510Y990600D01*
Y1014730D01*
X773430Y1019810D02*
X778510Y1014730D01*
X785932Y953572D02*
X800100Y967740D01*
X786882Y973572D02*
X791210Y977900D01*
X838200Y919480D02*
X845988Y927268D01*
X815717Y913572D02*
X834413Y932268D01*
X811248Y923572D02*
X811530Y923290D01*
X984250Y535030D02*
X1042310D01*
X1113043Y464297D01*
X1153922D01*
X984250Y540030D02*
X1047470D01*
X1096023Y491477D01*
X1153922D01*
X944920Y594360D02*
Y600826D01*
X939920Y606669D02*
X962409Y629158D01*
X939920Y594360D02*
Y606669D01*
X944920Y600826D02*
X957504Y613410D01*
X985779D01*
X839470Y667700D02*
X840740Y668970D01*
X761402Y534670D02*
X784860D01*
X761110Y534962D02*
X761402Y534670D01*
X739140Y596900D02*
X746760Y604520D01*
X739140Y586740D02*
Y596900D01*
Y586740D02*
X745330Y580550D01*
X753110D01*
X764032Y682110D02*
Y725170D01*
X764032Y725170D01*
X829970D01*
X764032Y649342D02*
X772532D01*
X848970Y718670D02*
X874570D01*
X875030Y718210D01*
X910310Y539750D02*
X910590Y540030D01*
X934720Y594560D02*
X934920Y594360D01*
X875030Y627888D02*
X889508D01*
X881530Y737210D02*
X890930D01*
X881530D02*
Y749150D01*
X877570Y753110D02*
X881530Y749150D01*
X737870Y753110D02*
X877570D01*
X732028Y747268D02*
X737870Y753110D01*
X732028Y725170D02*
Y747268D01*
Y649342D02*
Y682110D01*
X787250Y718670D02*
X848970D01*
X974920Y520700D02*
Y530030D01*
X947420Y557530D02*
X949920Y555030D01*
X919920Y520700D02*
Y530030D01*
X910590D02*
X919920D01*
X944880Y520660D02*
X944920Y520700D01*
X944880Y478790D02*
Y520660D01*
X840860Y557530D02*
X848360Y565030D01*
X910590D01*
X802640Y627700D02*
X810260Y620080D01*
X798068Y549402D02*
X842772D01*
X853400Y560030D01*
X910590D01*
X761110Y554962D02*
X767052D01*
X772160Y560070D01*
X787400D01*
X746760Y604520D02*
X798830D01*
X802640Y608330D01*
Y627700D01*
Y608330D02*
X807720Y603250D01*
X815340D01*
X939920Y489070D02*
Y520700D01*
X934720Y483870D02*
X939920Y489070D01*
X934920Y498040D02*
Y520700D01*
X878840Y488950D02*
X925830D01*
X830580Y618810D02*
X840740Y628970D01*
X880110Y585470D02*
X881380D01*
Y513080D02*
X903330Y535030D01*
X910590D01*
X854710Y546100D02*
X857250D01*
X866180Y555030D01*
X910590D01*
X866140Y535940D02*
Y539750D01*
X876420Y550030D01*
X910590D01*
X761110Y544962D02*
X787268D01*
X787400Y560070D02*
X798068Y549402D01*
X925830Y488950D02*
X934920Y498040D01*
X889000Y595630D02*
X899600Y585030D01*
X910590D01*
X881380Y585470D02*
X886820Y580030D01*
X910590D01*
X787268Y544962D02*
X794512Y537718D01*
Y526288D02*
Y537718D01*
Y526288D02*
X807720Y513080D01*
X881380D01*
X802640Y533400D02*
Y535940D01*
X814070Y557530D02*
X840860D01*
X910282Y569722D02*
X910590Y570030D01*
X827278Y569722D02*
X910282D01*
X826770Y570230D02*
X827278Y569722D01*
X931418Y465328D02*
X944880Y478790D01*
X919920Y585030D02*
Y594360D01*
X944920Y560030D02*
X947420Y557530D01*
X974920Y585030D02*
Y594360D01*
X712841Y649342D02*
X714483Y647700D01*
X715010D01*
X949920Y474940D02*
Y520700D01*
X935990Y461010D02*
X949920Y474940D01*
X953770Y392430D02*
Y409448D01*
X951230Y389890D02*
X953770Y392430D01*
X946150Y389890D02*
X951230D01*
X984250Y545030D02*
X1060250D01*
X947420Y557530D02*
X949920Y560030D01*
X984250Y565030D02*
X1112400D01*
X1120389Y573019D01*
X1153922D01*
X1139949Y600200D02*
X1153922D01*
X1116841Y654560D02*
X1153922D01*
X984250Y585030D02*
X1047310D01*
X1116841Y654560D01*
X984250Y580030D02*
X1049930D01*
X1097280Y627380D01*
X1153922D01*
X984250Y570030D02*
X984558Y569722D01*
X1109472D01*
X1139949Y600200D01*
X984250Y575030D02*
X1063980D01*
X1068070Y579120D01*
Y582930D01*
X1060250Y545030D02*
X1068070Y537210D01*
X1069340D01*
X969920Y594360D02*
Y602890D01*
X972820Y605790D01*
X1004570D01*
X984250Y555030D02*
X1109940D01*
X1119132Y545838D01*
X1153922D01*
X984250Y550030D02*
X1107320D01*
X1138692Y518658D01*
X1153922D01*
X986790Y441452D02*
Y462280D01*
X954920Y494150D02*
X986790Y462280D01*
X954920Y494150D02*
Y520700D01*
X986790Y441452D02*
X1019558D01*
X1019558Y441452D01*
X1295400Y647700D02*
X1369060D01*
X1238250Y704850D02*
X1295400Y647700D01*
X1014730Y704850D02*
X1238250D01*
X995177Y685297D02*
X1014730Y704850D01*
X995177Y659892D02*
Y685297D01*
X1369060Y505460D02*
Y609600D01*
X1327897Y464297D02*
X1369060Y505460D01*
X1187958Y464297D02*
X1327897D01*
X1381760Y698500D02*
X1451610D01*
X1460500Y511810D02*
X1478280Y529590D01*
Y671830D01*
X1451610Y698500D02*
X1478280Y671830D01*
X1348740Y685800D02*
X1369060D01*
X1344930Y689610D02*
X1348740Y685800D01*
X1206967Y782787D02*
X1211580Y787400D01*
X1206967Y765810D02*
Y782787D01*
X1211580Y787400D02*
X1337310D01*
X1344930Y779780D01*
Y689610D02*
Y779780D01*
X974920Y530030D02*
X984250D01*
X1187958Y491477D02*
X1322057D01*
X845988Y927268D02*
X922508D01*
X899263Y917268D02*
X922508D01*
Y907268D02*
X930128D01*
X939758Y900018D02*
Y916898D01*
X929758Y900018D02*
Y906898D01*
X930128Y907268D01*
X939758Y916898D01*
X958124Y934175D02*
X959758Y900018D01*
X985032Y907268D02*
X992008D01*
X960128Y937268D02*
X992008D01*
X984758Y961898D02*
Y969518D01*
X929758Y962542D02*
Y969518D01*
X910998Y912268D02*
X922508D01*
X902970Y904240D02*
X910998Y912268D01*
X887730Y905735D02*
X899263Y917268D01*
X902356Y952268D02*
X922508D01*
X910278Y957268D02*
X922508D01*
X912252Y962268D02*
X922508D01*
X904886Y962660D02*
X910278Y957268D01*
X992008Y912268D02*
X1019402D01*
X1096394Y835276D01*
X1111250D01*
X992008Y962268D02*
X1025768D01*
X1091816Y1028316D01*
X1111250D01*
X800100Y1054420D02*
Y1057910D01*
X703580Y1094420D02*
X748604D01*
X750570Y1092454D01*
X798134D02*
X800100Y1094420D01*
X750570Y1092454D02*
X798134D01*
X979758Y890952D02*
Y900018D01*
X984758Y892302D02*
Y900018D01*
Y892302D02*
X991870Y885190D01*
X1007110D01*
X1011250Y881050D01*
Y850900D02*
Y881050D01*
X969010Y863600D02*
X974758Y869348D01*
Y900018D01*
X1216660Y1060450D02*
X1236980Y1080770D01*
Y1114552D01*
X1042988Y1083627D02*
Y1117346D01*
X954758Y995398D02*
X1042988Y1083627D01*
X954758Y969518D02*
Y995398D01*
X949758Y969518D02*
Y1032308D01*
X995204Y1077754D01*
Y1117346D01*
X939758Y969518D02*
Y1032552D01*
X894715Y1077595D02*
X939758Y1032552D01*
X1093629Y1150620D02*
X1139952D01*
X1141730Y1148842D01*
X1187958Y518658D02*
X1311910D01*
X1323477Y530225D01*
X1351915D01*
X1419860Y530860D02*
X1447800D01*
X1469390Y552450D01*
Y664210D01*
X1381760Y685800D02*
X1447800D01*
X1469390Y664210D01*
X1187958Y545838D02*
X1192776Y541020D01*
X1332230D01*
X1339850Y548640D01*
X1353820D01*
X1419860Y549910D02*
X1441450D01*
X1463040Y571500D01*
Y654050D01*
X1381760Y673100D02*
X1443990D01*
X1463040Y654050D01*
X1322581Y600200D02*
X1332230Y590550D01*
X1187958Y600200D02*
X1322581D01*
X1419860Y590550D02*
X1427480D01*
X1443990Y607060D01*
Y633730D01*
X1430020Y647700D02*
X1443990Y633730D01*
X1381760Y647700D02*
X1430020D01*
X1187958Y573019D02*
X1195329Y580390D01*
X1337310Y574040D02*
X1350010D01*
X1330960Y580390D02*
X1337310Y574040D01*
X1195329Y580390D02*
X1330960D01*
X1435100Y574040D02*
X1454150Y593090D01*
Y643890D01*
X1437640Y660400D02*
X1454150Y643890D01*
X1381760Y660400D02*
X1437640D01*
X1187958Y627380D02*
X1234440D01*
X1242060Y635000D01*
X1187958Y654560D02*
X1188469Y654050D01*
X1233170D01*
X1262380Y622300D02*
X1369060D01*
X1145286Y863727D02*
X1151763D01*
X1167130Y848360D01*
X1145286Y835276D02*
X1181986D01*
X1182370Y835660D01*
X1242060Y635000D02*
X1369060D01*
X1145286Y973209D02*
X1311702D01*
X1319711Y965200D01*
X1145286Y946028D02*
X1320678D01*
X1145286Y918848D02*
X1399083D01*
X1145286Y891667D02*
X1408303D01*
X1093629Y1150620D02*
Y1183481D01*
X1093470Y1183640D02*
X1093629Y1183481D01*
X776698Y923290D02*
X811530D01*
X703580Y1054420D02*
X726120D01*
X732790Y1047750D01*
X800100Y967740D02*
Y1054420D01*
Y886460D02*
Y900430D01*
X738124Y1127760D02*
X750570Y1115314D01*
Y1092454D02*
Y1115314D01*
X772532Y649342D02*
X775970Y652780D01*
Y707390D01*
X787250Y718670D01*
X894715Y1077595D02*
Y1117853D01*
X846931D02*
X894715D01*
X774195Y1106935D02*
Y1127760D01*
X791210Y977900D02*
Y1018540D01*
X929640Y661162D02*
Y712470D01*
X943930Y726760D02*
X1268730D01*
Y687070D02*
X1295400Y660400D01*
X1369060D01*
X1268730Y687070D02*
Y726760D01*
X962409Y661162D02*
Y680972D01*
X961390Y681990D02*
X962409Y680972D01*
X1307251Y687918D02*
X1322070Y673100D01*
X1307251Y687918D02*
Y724220D01*
X1322070Y673100D02*
X1369060D01*
X947420Y1144270D02*
Y1149350D01*
X943610Y727080D02*
X943930Y726760D01*
X943610Y726440D02*
X943930Y726760D01*
X943610Y723900D02*
Y726440D01*
Y727080D01*
X992008Y917268D02*
X1023292D01*
X1076833Y863727D01*
X1111250D01*
X992008Y957268D02*
X1029658D01*
X1072779Y1000389D01*
X1111250D01*
X1081913Y891667D02*
X1111250D01*
X992008Y932268D02*
X1050202D01*
X1063623Y918848D01*
X1111250D01*
X992008Y947268D02*
X1059028D01*
X1084969Y973209D01*
X1111250D01*
X992008Y942268D02*
X1070538D01*
X1074298Y946028D01*
X1111250D01*
X1046312Y927268D02*
X1081913Y891667D01*
X992008Y927268D02*
X1046312D01*
X1096772Y1071880D02*
X1141730Y1116838D01*
X974758Y969518D02*
Y977298D01*
X1057910Y1060450D01*
X1216660D01*
X969758Y969518D02*
Y980687D01*
X1060950Y1071880D01*
X1096772D01*
X1331331Y1000389D02*
X1353820Y977900D01*
X1145286Y1000389D02*
X1331331D01*
X1283083Y1028316D02*
X1291590Y1019810D01*
X1145286Y1028316D02*
X1283083D01*
X754380Y725170D02*
X764032D01*
X749300Y720090D02*
X754380Y725170D01*
X749300Y641350D02*
Y720090D01*
Y641350D02*
X755650Y635000D01*
X770890D01*
X779780Y626110D01*
Y615950D02*
Y626110D01*
X773430Y609600D02*
X779780Y615950D01*
X739140Y609600D02*
X773430D01*
X730250Y600710D02*
X739140Y609600D01*
X730250Y557530D02*
Y600710D01*
X720090Y547370D02*
X730250Y557530D01*
X703580Y547370D02*
X720090D01*
X679450Y523240D02*
X703580Y547370D01*
X679450Y473710D02*
Y523240D01*
Y473710D02*
X687832Y465328D01*
X931418D01*
X959758Y883558D02*
Y900018D01*
X954758Y884908D02*
Y900018D01*
X944758Y891418D02*
Y900018D01*
X959758Y969518D02*
Y978808D01*
X1093629Y1112679D01*
Y1118616D01*
X976630Y1148080D02*
X993934D01*
X995204Y1149350D01*
X956310Y1140460D02*
X963930D01*
X947420Y1149350D02*
X956310Y1140460D01*
X742950Y635750D02*
X755650Y623050D01*
X742950Y635750D02*
Y732790D01*
X753110Y742950D01*
X828040D01*
X839320Y731670D01*
X848970D01*
X889508Y627888D02*
X910590Y648970D01*
Y717550D01*
X890930Y737210D02*
X910590Y717550D01*
X887730Y728980D02*
X900430Y716280D01*
X876760Y728980D02*
X887730D01*
X868530Y737210D02*
X876760Y728980D01*
X875030Y659892D02*
X888492D01*
X900430Y671830D01*
Y716280D01*
X897552Y957072D02*
X902356Y952268D01*
X761110Y594962D02*
X762232D01*
X761110Y584962D02*
X779018D01*
X787400Y576580D01*
Y560070D02*
Y576580D01*
X762232Y594962D02*
X769184Y588010D01*
X830580Y596900D02*
Y618810D01*
X769184Y588010D02*
X862330D01*
X875030Y600710D01*
Y627888D01*
X1101090Y745490D02*
X1103630Y742950D01*
X969010Y745490D02*
X1101090D01*
X929758Y962542D02*
X943354Y951230D01*
X960128Y937268D02*
X964758Y941898D01*
X958124Y934175D02*
X974090Y919480D01*
X985032Y907268D01*
X964758Y941898D02*
X972820Y952500D01*
X984758Y961898D01*
X957580Y934720D02*
X958124Y934175D01*
X943354Y951230D02*
X957335Y935174D01*
X922508Y937268D02*
X955032D01*
X929920Y520700D02*
Y540030D01*
X919920Y530030D02*
X929920Y540030D01*
X949920Y520700D02*
Y555030D01*
X957335Y935174D02*
X957580Y934720D01*
X955032Y937268D02*
X957580Y934720D01*
D25*
X989330Y828040D02*
X996950Y820420D01*
X959920Y504390D02*
X967740Y496570D01*
X730250Y912490D02*
X736920Y919160D01*
X730250Y889000D02*
Y912490D01*
Y889000D02*
X741680Y877570D01*
X777500Y903572D02*
X782320Y898752D01*
X761110Y903572D02*
X777500D01*
X736920Y919160D02*
X753110D01*
X773430Y877570D02*
X782320Y886460D01*
X741680Y877570D02*
X773430D01*
X782320Y886460D02*
Y898752D01*
X953770Y441452D02*
Y469900D01*
X959920Y476050D01*
X844550Y497840D02*
X895350D01*
X894280Y545030D02*
X910590D01*
X924920Y504550D02*
Y520700D01*
X918210Y497840D02*
X924920Y504550D01*
X895350Y497840D02*
X918210D01*
X848640Y575030D02*
X910590D01*
X845820Y577850D02*
X848640Y575030D01*
X838200Y577850D02*
X845820D01*
X900430Y613410D02*
X920750D01*
X924920Y609240D01*
Y594360D02*
Y609240D01*
X959920Y476050D02*
Y477655D01*
X958183Y479393D02*
X959920Y477655D01*
Y504390D02*
Y520700D01*
X965200Y496570D02*
X967740D01*
X1271270Y764220D02*
X1307251D01*
X1325560D01*
X1369060Y698500D02*
Y709930D01*
X1376680Y717550D01*
X1460500D01*
X1489710Y688340D01*
X986790Y387350D02*
Y409448D01*
X1416050Y387350D02*
X1469390D01*
X1489710Y407670D01*
Y688340D01*
X1238971Y765810D02*
X1267780D01*
X1189196Y1146556D02*
X1236980D01*
X1189196D02*
Y1169194D01*
X1237234Y1114298D02*
X1282700D01*
X1236980Y1114552D02*
X1237234Y1114298D01*
X879348Y889762D02*
X885190Y883920D01*
X910590D01*
X879348Y889762D02*
Y916178D01*
X885438Y922268D01*
X922508D01*
X934758Y890308D02*
Y900018D01*
X928370Y883920D02*
X934758Y890308D01*
X910590Y883920D02*
X928370D01*
X992008Y952268D02*
X1043708D01*
X1061720Y970280D01*
X992008Y922268D02*
X1036072D01*
X1041400Y916940D01*
X1042670D01*
X1021080Y1127442D02*
X1042988Y1149350D01*
X1021080Y1079500D02*
Y1127442D01*
X1011682Y659892D02*
X1012190Y660400D01*
X995177Y659892D02*
X1011682D01*
X979758Y969518D02*
Y975948D01*
X1033780Y1029970D01*
X1061720D01*
X996950Y820420D02*
X1035050D01*
X989330Y828040D02*
X991870Y830580D01*
X964758Y900018D02*
X969758D01*
X964758Y875472D02*
X965200Y875030D01*
X964758Y875472D02*
Y900018D01*
X878332Y957072D02*
X897552D01*
X876300Y955040D02*
X878332Y957072D01*
D26*
X712841Y649342D02*
X732028D01*
X774700Y440690D02*
X775462Y441452D01*
X825500D02*
X867410D01*
X910590D01*
X698500Y623050D02*
X755650D01*
X698500Y478050D02*
X755650D01*
X753110Y480590D02*
Y510550D01*
Y480590D02*
X755650Y478050D01*
X709130Y540550D02*
X753110D01*
X698500Y529920D02*
X709130Y540550D01*
X698500Y478050D02*
Y529920D01*
X848970Y731670D02*
X862990D01*
X868530Y737210D01*
X761110Y524962D02*
X775518D01*
X781050Y519430D01*
Y483870D02*
Y519430D01*
X775230Y478050D02*
X781050Y483870D01*
X755650Y478050D02*
X775230D01*
X1370330Y360680D02*
X1408430Y398780D01*
X775462Y441452D02*
X825500D01*
X910590D02*
Y450850D01*
X904240Y457200D02*
X910590Y450850D01*
X885190Y457200D02*
X904240D01*
X844550Y497840D02*
X866140Y476250D01*
X885190D01*
X1408430Y398780D02*
Y506730D01*
X1381760Y609600D02*
X1391920D01*
X1408430Y593090D01*
Y506730D02*
Y593090D01*
X847090Y1150015D02*
Y1169670D01*
X846931Y1149857D02*
X847090Y1150015D01*
X838200Y1169670D02*
X847090D01*
X829310Y1160780D02*
X838200Y1169670D01*
X829310Y1041400D02*
Y1160780D01*
Y979170D02*
Y1041400D01*
Y979170D02*
X853440Y955040D01*
X876300D01*
D27*
X774700Y440690D02*
X953008D01*
X731520Y401320D02*
Y440690D01*
X774700D01*
X953008D02*
X953770Y441452D01*
X772160Y360680D02*
X1068326D01*
X731520Y401320D02*
X772160Y360680D01*
X1068326D02*
X1370330D01*
X1019558Y409448D02*
X1068326Y360680D01*
X1370330D02*
X1485900D01*
X1503680Y378460D01*
Y394970D01*
X806199Y1127760D02*
Y1170689D01*
X1281430Y1183640D02*
X1483360D01*
X1093470D02*
X1281430D01*
X892810D02*
X1093470D01*
X819150D02*
X892810D01*
X806199Y1170689D02*
X819150Y1183640D01*
X1515110Y672600D02*
Y1151890D01*
X1483360Y1183640D02*
X1515110Y1151890D01*
D28*
X698500Y856660D02*
Y1001660D01*
Y856660D02*
X755650D01*
X802640Y667700D02*
X839470D01*
X802640D02*
X803910Y668970D01*
X840740Y668970D02*
X879160Y707390D01*
X886460D01*
X886492Y707422D01*
X1381760Y622300D02*
X1383030Y623570D01*
X1381760Y635000D02*
X1402080D01*
X1407160Y640080D01*
X1383030Y623570D02*
X1430020D01*
X1424940Y640080D02*
X1426210Y638810D01*
X1407160Y640080D02*
X1424940D01*
X1267780Y765810D02*
X1268730Y766760D01*
X910590Y409448D02*
X911860Y408178D01*
Y387350D02*
Y408178D01*
X824230Y386080D02*
Y408178D01*
X825500Y409448D01*
X867410Y388620D02*
Y409448D01*
X894715Y1149857D02*
Y1181735D01*
X892810Y1183640D02*
X894715Y1181735D01*
X1282700Y1146302D02*
Y1182370D01*
X1281430Y1183640D02*
X1282700Y1182370D01*
X806199Y1127760D02*
X819150Y1114809D01*
X803910Y668970D02*
Y689610D01*
X723900Y1145540D02*
X725170D01*
X706120Y1127760D02*
X723900Y1145540D01*
X788670Y935990D02*
X803910Y951230D01*
D29*
X1268730Y766760D02*
X1271270Y764220D01*
X1325560D02*
X1325880Y764540D01*
D30*
X1363980Y1156970D02*
Y1169670D01*
X1305560Y1060450D02*
Y1098550D01*
X1363980Y1156970D01*
X934758Y969518D02*
Y1024852D01*
X918210Y1041400D02*
X934758Y1024852D01*
X829310Y1041400D02*
X918210D01*
D31*
X1369060Y698500D02*
D03*
Y685800D02*
D03*
Y673100D02*
D03*
Y660400D02*
D03*
Y647700D02*
D03*
Y635000D02*
D03*
Y622300D02*
D03*
Y609600D02*
D03*
X1381760Y698500D02*
D03*
Y685800D02*
D03*
Y673100D02*
D03*
Y660400D02*
D03*
Y647700D02*
D03*
Y635000D02*
D03*
Y622300D02*
D03*
Y609600D02*
D03*
D32*
X1515110Y672600D02*
D03*
X1408430Y506730D02*
D03*
X1308100Y560070D02*
D03*
D33*
X698500Y1001660D02*
D03*
Y856660D02*
D03*
X698500Y623050D02*
D03*
Y478050D02*
D03*
D34*
X755650Y1001660D02*
D03*
Y856660D02*
D03*
X755650Y623050D02*
D03*
Y478050D02*
D03*
D35*
X753110Y969160D02*
D03*
Y959160D02*
D03*
Y949160D02*
D03*
Y939160D02*
D03*
Y929160D02*
D03*
Y919160D02*
D03*
Y909160D02*
D03*
X761110Y973572D02*
D03*
X761110Y963572D02*
D03*
X761110Y953572D02*
D03*
Y943572D02*
D03*
X761110Y933572D02*
D03*
X761110Y923572D02*
D03*
Y913572D02*
D03*
X753110Y590550D02*
D03*
Y580550D02*
D03*
Y570550D02*
D03*
Y560550D02*
D03*
Y550550D02*
D03*
Y540550D02*
D03*
Y530550D02*
D03*
X761110Y594962D02*
D03*
X761110Y584962D02*
D03*
X761110Y574962D02*
D03*
Y564962D02*
D03*
Y554962D02*
D03*
Y544962D02*
D03*
Y534962D02*
D03*
D36*
X753110Y899160D02*
D03*
X753110Y889160D02*
D03*
X761110Y903572D02*
D03*
X761110Y893572D02*
D03*
Y883572D02*
D03*
X753110Y520550D02*
D03*
Y510550D02*
D03*
X761110Y524962D02*
D03*
Y514962D02*
D03*
Y504962D02*
D03*
X943354Y951230D02*
D03*
X974090Y919480D02*
D03*
X972820Y952500D02*
D03*
X943610Y920750D02*
D03*
X958124Y934175D02*
D03*
X928370Y575310D02*
D03*
X948420Y570500D02*
D03*
X942340Y558800D02*
D03*
X929640Y557530D02*
D03*
X965200Y543560D02*
D03*
X954405Y558530D02*
D03*
D37*
X787400Y560070D02*
D03*
D38*
X899160Y939800D02*
D03*
X887730Y946150D02*
D03*
X868680Y807720D02*
D03*
X886460Y975360D02*
D03*
X723900Y976630D02*
D03*
X838200Y919480D02*
D03*
X784860Y534670D02*
D03*
X889000Y595630D02*
D03*
X815340Y603250D02*
D03*
X934720Y483870D02*
D03*
X854710Y546100D02*
D03*
X866140Y535940D02*
D03*
X878840Y488950D02*
D03*
X880110Y585470D02*
D03*
X844550Y497840D02*
D03*
X895350D02*
D03*
X890960Y541902D02*
D03*
X802640Y535940D02*
D03*
X814070Y557530D02*
D03*
X826770Y570230D02*
D03*
X838200Y577850D02*
D03*
X885190Y457200D02*
D03*
Y476250D02*
D03*
X900430Y613410D02*
D03*
X715010Y647700D02*
D03*
X731520Y440690D02*
D03*
X946150Y389890D02*
D03*
X1068070Y582930D02*
D03*
X1069340Y537210D02*
D03*
X1004570Y605790D02*
D03*
X958183Y479393D02*
D03*
X965200Y496570D02*
D03*
X1460500Y511810D02*
D03*
X886492Y707422D02*
D03*
X1430020Y623570D02*
D03*
X1426210Y638810D02*
D03*
X1325880Y764540D02*
D03*
X986790Y387350D02*
D03*
X1416050D02*
D03*
X911860D02*
D03*
X824230Y386080D02*
D03*
X867410Y388620D02*
D03*
X933450Y457200D02*
D03*
X1322057Y491477D02*
D03*
X811530Y923290D02*
D03*
X902970Y904240D02*
D03*
X887730Y905735D02*
D03*
X910590Y883920D02*
D03*
X859790Y970280D02*
D03*
X1351915Y530225D02*
D03*
X1419860Y530860D02*
D03*
X1353820Y548640D02*
D03*
X1419860Y549910D02*
D03*
X1332230Y590550D02*
D03*
X1419860D02*
D03*
X1350010Y574040D02*
D03*
X1435100D02*
D03*
X1182370Y835660D02*
D03*
X1167130Y848360D02*
D03*
X1262380Y622300D02*
D03*
X1233170Y654050D02*
D03*
X1353820Y977900D02*
D03*
X1319711Y965200D02*
D03*
X1320678Y946028D02*
D03*
X1399083Y918848D02*
D03*
X1408303Y891667D02*
D03*
X1503680Y394970D02*
D03*
X847090Y1169670D02*
D03*
X1189196Y1169194D02*
D03*
X800100Y900430D02*
D03*
X819150Y1114809D02*
D03*
X803910Y689610D02*
D03*
X725170Y1145540D02*
D03*
X774195Y1106935D02*
D03*
X791210Y1018540D02*
D03*
X961390Y681990D02*
D03*
X943610Y723900D02*
D03*
X1061720Y970280D02*
D03*
X1042670Y916940D02*
D03*
X1021080Y1079500D02*
D03*
X1012190Y660400D02*
D03*
X1061720Y1029970D02*
D03*
X1363980Y1169670D02*
D03*
X1305560Y1060450D02*
D03*
X1291590Y1019810D02*
D03*
X788670Y935990D02*
D03*
X803910Y951230D02*
D03*
X1035050Y820420D02*
D03*
X991870Y830580D02*
D03*
X965200Y875030D02*
D03*
X976630Y1148080D02*
D03*
X963930Y1140460D02*
D03*
X876300Y955040D02*
D03*
X830580Y596900D02*
D03*
X969010Y745490D02*
D03*
M02*
