M48
;Layer_Color=9474304
;FILE_FORMAT=4:4
METRIC,LZ
;TYPE=PLATED
T1F00S00C0.3000
T2F00S00C0.4000
T3F00S00C0.5000
T4F00S00C0.5500
T5F00S00C0.6604
T6F00S00C0.7620
T8F00S00C1.2700
%
T01
X0092964Y0055753
X0094234Y005588
X00954405Y0055853
X0094842Y005705
X0092837Y0057531
X009652Y0054356
X0097409Y0091948
X00958124Y00934175
X0094361Y0092075
X00943354Y0095123
X0097282Y009525
T02
X0082423Y0038608
X0086741Y0038862
X0091186Y0038735
X0094615Y0038989
X0098679Y0038735
X0141605
X0150368Y0039497
X014605Y0051181
X0141986Y0053086
Y0054991
X014351Y0057404
X0141986Y0059055
X0143002Y0062357
X0142621Y0063881
X0135001Y0057404
X0135382Y0054864
X01351915Y00530225
X01322057Y00491477
X0133223Y0059055
X0126238Y006223
X0123317Y0065405
X0132588Y0076454
X0096901Y0074549
X0094361Y007239
X0096139Y0068199
X0101219Y006604
X0100457Y0060579
X0106807Y0058293
X0106934Y0053721
X009652Y0049657
X00958183Y00479393
X0093472Y0048387
X0093345Y004572
X0088519
Y0047625
X0087884Y0048895
X0089535Y0049784
X0089096Y00541902
X0086614Y0053594
X0085471Y005461
X008382Y0057785
X0082677Y0057023
X0081407Y0055753
X0080264Y0053594
X0081534Y0060325
X0083058Y005969
X00889Y0059563
X0088011Y0058547
X0090043Y0061341
X00886492Y00707422
X0080391Y0068961
X0084455Y0049784
X0078486Y0053467
X0073152Y0044069
X0071501Y006477
X007239Y0097663
X0078867Y0093599
X0079121Y0101854
X00774195Y01106935
X0072517Y0114554
X0081915Y01114809
X0084709Y0116967
X0096393Y0114046
X0097663Y0114808
X0102108Y010795
X0106172Y0102997
Y0097028
X0104267Y0091694
X0103505Y0082042
X0099187Y0083058
X009652Y0087503
X0091059Y0088392
X0090297Y0090424
X0088773Y00905735
Y0094615
X0089916Y009398
X008763Y0095504
X0088646Y0097536
X0085979Y0097028
X008382Y0091948
X0081153Y0092329
X008001Y0090043
X0080391Y0095123
X0086868Y0080772
X0116713Y0084836
X0118237Y0083566
X01189196Y01169194
X0136398Y0116967
X0130556Y0106045
X0129159Y0101981
X01319711Y009652
X01320678Y00946028
X0135382Y009779
X01399083Y00918848
X01408303Y00891667
T03
X0075311Y0053055
X0075311Y0090916
T04
X0075311Y0051055
Y0052055
X0076111Y00524962
Y00534962
Y00544962
Y00554962
Y00564962
Y00574962
X0076111Y00584962
X0076111Y00594962
X0075311Y0059055
Y0058055
Y0057055
Y0056055
Y0055055
Y0054055
X0076111Y00514962
Y00504962
X0076111Y00883572
Y00893572
X0076111Y00903572
X0076111Y00913572
Y00923572
X0076111Y00933572
X0076111Y00943572
Y00953572
X0076111Y00963572
X0076111Y00973572
X0075311Y0096916
Y0095916
Y0094916
Y0093916
Y0092916
Y0091916
X0075311Y0089916
X0075311Y0088916
T05
X0136906Y006096
Y006223
Y00635
Y006477
Y006604
Y006731
Y006858
Y006985
X0138176
Y006858
Y006731
Y006604
Y006477
Y00635
Y006223
Y006096
T06
X007874Y0056007
T08
X013081Y0056007
X0140843Y0050673
X0151511Y006726
M30
