G04 Layer_Color=8388736*
%FSLAX44Y44*%
%MOMM*%
G71*
G01*
G75*
%ADD11R,1.3716X1.8542*%
%ADD12R,1.8542X1.3716*%
%ADD13R,0.4064X1.8034*%
%ADD14R,0.3048X1.2700*%
%ADD15R,1.2700X0.3048*%
%ADD16R,5.5880X5.5880*%
%ADD46R,1.1508X1.7508*%
%ADD47R,2.7508X2.4508*%
%ADD48O,1.0008X0.3808*%
%ADD49O,0.3808X1.0008*%
%ADD50R,5.2508X5.2508*%
%ADD51R,0.9508X0.7508*%
%ADD52R,0.7508X0.9508*%
%ADD53R,1.9008X2.4508*%
%ADD54C,1.2192*%
%ADD55C,3.1496*%
%ADD56O,2.7508X1.5508*%
%ADD57O,3.3528X1.5748*%
%ADD58C,0.7508*%
%ADD59C,0.7508*%
%ADD60C,1.5748*%
%ADD61C,0.9508*%
D11*
X806199Y1127760D02*
D03*
X774195D02*
D03*
X732028Y725170D02*
D03*
X764032D02*
D03*
X732028Y682110D02*
D03*
X764032D02*
D03*
X732028Y649342D02*
D03*
X764032D02*
D03*
X738124Y1127760D02*
D03*
X706120D02*
D03*
X1238971Y765810D02*
D03*
X1206967D02*
D03*
D12*
X1189196Y1146556D02*
D03*
Y1114552D02*
D03*
X1141730Y1148842D02*
D03*
X1141730Y1116838D02*
D03*
X986790Y441452D02*
D03*
Y409448D02*
D03*
X953770Y409448D02*
D03*
Y441452D02*
D03*
X910590Y409448D02*
D03*
Y441452D02*
D03*
X867410Y409448D02*
D03*
Y441452D02*
D03*
X825500Y409448D02*
D03*
Y441452D02*
D03*
X875030Y627888D02*
D03*
Y659892D02*
D03*
X995177Y627888D02*
D03*
Y659892D02*
D03*
X962409Y629158D02*
D03*
Y661162D02*
D03*
X929640Y629158D02*
D03*
Y661162D02*
D03*
X947420Y1117346D02*
D03*
Y1149350D02*
D03*
X1042988Y1117346D02*
D03*
Y1149350D02*
D03*
X995204Y1117346D02*
D03*
Y1149350D02*
D03*
X1282700Y1146302D02*
D03*
Y1114298D02*
D03*
X894715Y1117853D02*
D03*
Y1149857D02*
D03*
X1236980Y1146556D02*
D03*
Y1114552D02*
D03*
X1019558Y409448D02*
D03*
Y441452D02*
D03*
X1093629Y1150620D02*
D03*
Y1118616D02*
D03*
X750570Y1060450D02*
D03*
Y1092454D02*
D03*
X846931Y1117853D02*
D03*
Y1149857D02*
D03*
D13*
X1153922Y464297D02*
D03*
X1187958D02*
D03*
X1153922Y491477D02*
D03*
X1187958D02*
D03*
X1153922Y518658D02*
D03*
X1187958D02*
D03*
X1153922Y545838D02*
D03*
X1187958D02*
D03*
X1153922Y573019D02*
D03*
X1187958D02*
D03*
X1153922Y600200D02*
D03*
X1187958D02*
D03*
X1153922Y654560D02*
D03*
X1153922Y627380D02*
D03*
X1187958Y654560D02*
D03*
X1187958Y627380D02*
D03*
X1111250Y835276D02*
D03*
X1145286D02*
D03*
X1111250Y863727D02*
D03*
X1145286D02*
D03*
X1111250Y891667D02*
D03*
X1145286D02*
D03*
X1111250Y918848D02*
D03*
X1145286D02*
D03*
X1111250Y946028D02*
D03*
X1145286D02*
D03*
X1111250Y973209D02*
D03*
X1145286D02*
D03*
X1111250Y1028316D02*
D03*
X1145286D02*
D03*
X1111250Y1000389D02*
D03*
X1145286D02*
D03*
D14*
X974920Y594360D02*
D03*
X969920D02*
D03*
X964920D02*
D03*
X959920D02*
D03*
X954920D02*
D03*
X949920D02*
D03*
X944920D02*
D03*
X939920D02*
D03*
X934920D02*
D03*
X929920D02*
D03*
X924920D02*
D03*
X919920D02*
D03*
Y520700D02*
D03*
X924920D02*
D03*
X929920D02*
D03*
X934920D02*
D03*
X939920D02*
D03*
X944920D02*
D03*
X949920D02*
D03*
X954920D02*
D03*
X959920D02*
D03*
X964920D02*
D03*
X969920D02*
D03*
X974920D02*
D03*
D15*
X910590Y585030D02*
D03*
Y580030D02*
D03*
Y575030D02*
D03*
Y570030D02*
D03*
Y565030D02*
D03*
Y560030D02*
D03*
Y555030D02*
D03*
Y550030D02*
D03*
Y545030D02*
D03*
Y540030D02*
D03*
Y535030D02*
D03*
Y530030D02*
D03*
X984250D02*
D03*
Y535030D02*
D03*
Y540030D02*
D03*
Y545030D02*
D03*
Y550030D02*
D03*
Y555030D02*
D03*
Y560030D02*
D03*
Y565030D02*
D03*
Y570030D02*
D03*
Y575030D02*
D03*
Y580030D02*
D03*
Y585030D02*
D03*
D16*
X947420Y557530D02*
D03*
D46*
X984250Y850900D02*
D03*
X1011250D02*
D03*
X940707D02*
D03*
X967707D02*
D03*
D47*
X840740Y628970D02*
D03*
Y668970D02*
D03*
X802640Y627700D02*
D03*
Y667700D02*
D03*
D48*
X992008Y962268D02*
D03*
Y957268D02*
D03*
Y952268D02*
D03*
Y947268D02*
D03*
Y942268D02*
D03*
Y937268D02*
D03*
Y932268D02*
D03*
Y927268D02*
D03*
Y922268D02*
D03*
Y917268D02*
D03*
Y912268D02*
D03*
Y907268D02*
D03*
X922508D02*
D03*
Y912268D02*
D03*
Y917268D02*
D03*
Y922268D02*
D03*
Y927268D02*
D03*
Y932268D02*
D03*
Y937268D02*
D03*
Y942268D02*
D03*
Y947268D02*
D03*
Y952268D02*
D03*
Y957268D02*
D03*
Y962268D02*
D03*
D49*
X984758Y900018D02*
D03*
X979758D02*
D03*
X974758D02*
D03*
X969758D02*
D03*
X964758D02*
D03*
X959758D02*
D03*
X954758D02*
D03*
X949758D02*
D03*
X944758D02*
D03*
X939758D02*
D03*
X934758D02*
D03*
X929758D02*
D03*
Y969518D02*
D03*
X934758D02*
D03*
X939758D02*
D03*
X944758D02*
D03*
X949758D02*
D03*
X954758D02*
D03*
X959758D02*
D03*
X964758D02*
D03*
X969758D02*
D03*
X974758D02*
D03*
X979758D02*
D03*
X984758D02*
D03*
D50*
X957580Y934720D02*
D03*
D51*
X829970Y725170D02*
D03*
X848970Y731670D02*
D03*
Y718670D02*
D03*
D52*
X875030Y718210D02*
D03*
X868530Y737210D02*
D03*
X881530D02*
D03*
D53*
X1268730Y726760D02*
D03*
Y766760D02*
D03*
X1307251Y724220D02*
D03*
Y764220D02*
D03*
X800100Y1054420D02*
D03*
Y1094420D02*
D03*
X703580Y1054420D02*
D03*
Y1094420D02*
D03*
D54*
X1369060Y698500D02*
D03*
Y685800D02*
D03*
Y673100D02*
D03*
Y660400D02*
D03*
Y647700D02*
D03*
Y635000D02*
D03*
Y622300D02*
D03*
Y609600D02*
D03*
X1381760Y698500D02*
D03*
Y685800D02*
D03*
Y673100D02*
D03*
Y660400D02*
D03*
Y647700D02*
D03*
Y635000D02*
D03*
Y622300D02*
D03*
Y609600D02*
D03*
D55*
X1515110Y672600D02*
D03*
X1408430Y506730D02*
D03*
X1308100Y560070D02*
D03*
D56*
X698500Y1001660D02*
D03*
Y856660D02*
D03*
X698500Y623050D02*
D03*
Y478050D02*
D03*
D57*
X755650Y1001660D02*
D03*
Y856660D02*
D03*
X755650Y623050D02*
D03*
Y478050D02*
D03*
D58*
X753110Y969160D02*
D03*
Y959160D02*
D03*
Y949160D02*
D03*
Y939160D02*
D03*
Y929160D02*
D03*
Y919160D02*
D03*
Y909160D02*
D03*
X761110Y973572D02*
D03*
X761110Y963572D02*
D03*
X761110Y953572D02*
D03*
Y943572D02*
D03*
X761110Y933572D02*
D03*
X761110Y923572D02*
D03*
Y913572D02*
D03*
X753110Y590550D02*
D03*
Y580550D02*
D03*
Y570550D02*
D03*
Y560550D02*
D03*
Y550550D02*
D03*
Y540550D02*
D03*
Y530550D02*
D03*
X761110Y594962D02*
D03*
X761110Y584962D02*
D03*
X761110Y574962D02*
D03*
Y564962D02*
D03*
Y554962D02*
D03*
Y544962D02*
D03*
Y534962D02*
D03*
D59*
X753110Y899160D02*
D03*
X753110Y889160D02*
D03*
X761110Y903572D02*
D03*
X761110Y893572D02*
D03*
Y883572D02*
D03*
X753110Y520550D02*
D03*
Y510550D02*
D03*
X761110Y524962D02*
D03*
Y514962D02*
D03*
Y504962D02*
D03*
X943354Y951230D02*
D03*
X974090Y919480D02*
D03*
X972820Y952500D02*
D03*
X943610Y920750D02*
D03*
X958124Y934175D02*
D03*
X928370Y575310D02*
D03*
X948420Y570500D02*
D03*
X942340Y558800D02*
D03*
X929640Y557530D02*
D03*
X965200Y543560D02*
D03*
X954405Y558530D02*
D03*
D60*
X787400Y560070D02*
D03*
D61*
X899160Y939800D02*
D03*
X887730Y946150D02*
D03*
X886460Y975360D02*
D03*
X723900Y976630D02*
D03*
X838200Y919480D02*
D03*
X784860Y534670D02*
D03*
X889000Y595630D02*
D03*
X815340Y603250D02*
D03*
X934720Y483870D02*
D03*
X854710Y546100D02*
D03*
X866140Y535940D02*
D03*
X878840Y488950D02*
D03*
X880110Y585470D02*
D03*
X844550Y497840D02*
D03*
X895350D02*
D03*
X890960Y541902D02*
D03*
X802640Y535940D02*
D03*
X814070Y557530D02*
D03*
X826770Y570230D02*
D03*
X838200Y577850D02*
D03*
X885190Y457200D02*
D03*
Y476250D02*
D03*
X900430Y613410D02*
D03*
X715010Y647700D02*
D03*
X731520Y440690D02*
D03*
X946150Y389890D02*
D03*
X1068070Y582930D02*
D03*
X1069340Y537210D02*
D03*
X1004570Y605790D02*
D03*
X958183Y479393D02*
D03*
X965200Y496570D02*
D03*
X1460500Y511810D02*
D03*
X886492Y707422D02*
D03*
X1430020Y623570D02*
D03*
X1426210Y638810D02*
D03*
X1325880Y764540D02*
D03*
X986790Y387350D02*
D03*
X1416050D02*
D03*
X911860D02*
D03*
X824230Y386080D02*
D03*
X867410Y388620D02*
D03*
X933450Y457200D02*
D03*
X1322057Y491477D02*
D03*
X811530Y923290D02*
D03*
X902970Y904240D02*
D03*
X887730Y905735D02*
D03*
X910590Y883920D02*
D03*
X859790Y970280D02*
D03*
X1351915Y530225D02*
D03*
X1419860Y530860D02*
D03*
X1353820Y548640D02*
D03*
X1419860Y549910D02*
D03*
X1332230Y590550D02*
D03*
X1419860D02*
D03*
X1350010Y574040D02*
D03*
X1435100D02*
D03*
X1182370Y835660D02*
D03*
X1167130Y848360D02*
D03*
X1262380Y622300D02*
D03*
X1233170Y654050D02*
D03*
X1353820Y977900D02*
D03*
X1319711Y965200D02*
D03*
X1320678Y946028D02*
D03*
X1399083Y918848D02*
D03*
X1408303Y891667D02*
D03*
X1503680Y394970D02*
D03*
X847090Y1169670D02*
D03*
X1189196Y1169194D02*
D03*
X800100Y900430D02*
D03*
X819150Y1114809D02*
D03*
X803910Y689610D02*
D03*
X725170Y1145540D02*
D03*
X774195Y1106935D02*
D03*
X791210Y1018540D02*
D03*
X961390Y681990D02*
D03*
X943610Y723900D02*
D03*
X1061720Y970280D02*
D03*
X1042670Y916940D02*
D03*
X1021080Y1079500D02*
D03*
X1012190Y660400D02*
D03*
X1061720Y1029970D02*
D03*
X1363980Y1169670D02*
D03*
X1305560Y1060450D02*
D03*
X1291590Y1019810D02*
D03*
X788670Y935990D02*
D03*
X803910Y951230D02*
D03*
X1035050Y820420D02*
D03*
X991870Y830580D02*
D03*
X965200Y875030D02*
D03*
X976630Y1148080D02*
D03*
X963930Y1140460D02*
D03*
X876300Y955040D02*
D03*
X830580Y596900D02*
D03*
X969010Y745490D02*
D03*
M02*
