M48
INCH
T01C0.0300
T02C0.1181
T03C0.0320
T04C0.0600
T05C0.0350
T06C0.1200
T07C0.0400
T08C0.1120
%
T01
X+025500Y-003000
X+027000Y-004500
X-012000Y-003000
X-024670Y+003000
X-025750Y+003000
X-026830Y+003000
X-027910Y+003000
X-028990Y+003000
X-025210Y+002000
X-026290Y+002000
X-027370Y+002000
X-028450Y+002000
X-024670Y-005000
X-025750Y-005000
X-026830Y-005000
X-027910Y-005000
X-028990Y-005000
X-025210Y-006000
X-026290Y-006000
X-027370Y-006000
X-028450Y-006000
X-008920Y+003000
X-010000Y+003000
X-011080Y+003000
X-012160Y+003000
X-013240Y+003000
X-009460Y+002000
X-010540Y+002000
X-011620Y+002000
X-012700Y+002000
X-013240Y-005000
X-012160Y-005000
X-011080Y-005000
X-010000Y-005000
X-008920Y-005000
X-012700Y-006000
X-011620Y-006000
X-010540Y-006000
X-009460Y-006000
X+002510Y+003000
X+003590Y+003000
X+004670Y+003000
X+005750Y+003000
X+006830Y+003000
X+003050Y+002000
X+004130Y+002000
X+005210Y+002000
X+006290Y+002000
X+006830Y-005000
X+005750Y-005000
X+004670Y-005000
X+003590Y-005000
X+002510Y-005000
X+006290Y-006000
X+005210Y-006000
X+004130Y-006000
X+003050Y-006000
X-028580Y-013000
X-027500Y-013000
X-026420Y-013000
X-025340Y-013000
X-024260Y-013000
X-028040Y-014000
X-026960Y-014000
X-025880Y-014000
X-024800Y-014000
X-013080Y-013000
X-012000Y-013000
X-010920Y-013000
X-009840Y-013000
X-008760Y-013000
X-012540Y-014000
X-011460Y-014000
X-010380Y-014000
X-009300Y-014000
T02
X-021910Y+002500
X-031750Y+002500
X-021910Y-005500
X-031750Y-005500
X-006160Y+002500
X-016000Y+002500
X-006160Y-005500
X-016000Y-005500
X+009590Y+002500
X-000250Y+002500
X+009590Y-005500
X-000250Y-005500
X-021500Y-013500
X-031340Y-013500
X-006000Y-013500
X-015840Y-013500
T03
X+043712Y-003500
X+044500Y-003500
X+045287Y-003500
X+039500Y-007500
X+040287Y-007500
X+041074Y-007500
X+038212Y-003500
X+039000Y-003500
X+039787Y-003500
T04
X+033018Y-003250
X+035018Y-003250
X+032377Y-014250
X+027637Y-014250
X+042627Y-014250
X+037887Y-014250
T05
X+029515Y-016104
X+030500Y-016104
X+030500Y-015120
X+029515Y-015120
X+039765Y-016104
X+040750Y-016104
X+040750Y-015120
X+039765Y-015120
T06
X-038000Y+004000
X-038000Y-018000
X+046000Y+004000
X+046000Y-018000
T07
X+020500Y+002500
X+020500Y+001500
X+021500Y+002500
X+021500Y+001500
X+022500Y+002500
X+022500Y+001500
X+023500Y+002500
X+023500Y+001500
X+024500Y+002500
X+024500Y+001500
X+025500Y+002500
X+025500Y+001500
X+026500Y+002500
X+026500Y+001500
X+027500Y+002500
X+027500Y+001500
X+028500Y+002500
X+028500Y+001500
X+029500Y+002500
X+029500Y+001500
X+030500Y+002500
X+030500Y+001500
X+031500Y+002500
X+031500Y+001500
X+032500Y+002500
X+032500Y+001500
X+033500Y+002500
X+033500Y+001500
X+034500Y+002500
X+034500Y+001500
X+035500Y+002500
X+035500Y+001500
X+036500Y+002500
X+036500Y+001500
X+037500Y+002500
X+037500Y+001500
X+038500Y+002500
X+038500Y+001500
X+039500Y+002500
X+039500Y+001500
X+022000Y-004000
X+022000Y-005000
X+023000Y-004000
X+023000Y-005000
X+024000Y-004000
X+024000Y-005000
X+025000Y-004000
X+025000Y-005000
X+026000Y-004000
X+026000Y-005000
T08
X+016905Y+002000
X+043095Y+002000
X+018405Y-004500
X+029595Y-004500
M30
