M48
INCH
T01C0.0300
T02C0.0600
T03C0.0320
T04C0.0400
T05C0.1200
T06C0.1120
T07C0.0380
%
T01
X-001500Y+000000
X-004500Y-004500
X+022750Y+004250
X+026750Y+004250
X+022750Y+000750
X+026750Y+000750
X+022750Y-002750
X+026750Y-002750
T02
X+031000Y+000000
X+033000Y+000000
T03
X-029500Y-004500
X-028712Y-004500
T04
X+018500Y+004250
X+019500Y+004250
X+018500Y+000750
X+019500Y+000750
X+018500Y-002750
X+019500Y-002750
X-003500Y-003000
X-003500Y-004000
X-002500Y-003000
X-002500Y-004000
X-001500Y-003000
X-001500Y-004000
X-000500Y-003000
X-000500Y-004000
X+000500Y-003000
X+000500Y-004000
X+001500Y-003000
X+001500Y-004000
X+002500Y-003000
X+002500Y-004000
X+003500Y-003000
X+003500Y-004000
T05
X+034000Y-005500
X+034000Y+005500
X-034000Y+005500
X-034000Y-005500
T06
X-007095Y-003500
X+007095Y-003500
T07
X-007500Y+005500
X-006500Y+005500
X-005500Y+005500
X-004500Y+005500
X-003500Y+005500
X-002500Y+005500
X-001500Y+005500
X-000500Y+005500
X+000500Y+005500
X+001500Y+005500
X+002500Y+005500
X+003500Y+005500
X+004500Y+005500
X+005500Y+005500
X+006500Y+005500
X+007500Y+005500
M30
