M48
INCH
T01C0.0300
T02C0.0400
T03C0.0600
T04C0.1200
T05C0.1120
%
T01
X-013500Y+012000
X+007500Y+022500
X-022500Y+018000
X+016500Y-006000
X+015000Y+028500
X-028500Y+027000
X+034500Y+016500
X+028500Y+016500
X+028500Y+019500
X+025500Y-003000
X+004500Y+021000
X+007500Y+021000
X+009000Y-009000
X+015000Y-009000
X-036000Y+019500
X+003000Y-004500
X+001500Y+018000
X+006000Y-012000
X+012000Y-013500
X-019500Y+001500
X-015000Y+024000
X-013500Y+022500
X-013500Y+019500
X-030000Y+019500
X+034500Y-013500
X-010500Y+009000
X-019500Y+025500
X-015000Y+022500
X-024000Y+025500
X+003000Y+016500
X-003000Y+019500
X+010500Y+015000
X-004500Y-015000
X-018000Y+021000
X+036000Y-007500
X-003000Y-015000
X-009000Y+010500
X-010500Y+007500
X-007500Y+019500
X-040500Y+027000
X-024000Y+006000
X+034500Y+006000
X-024000Y+004500
X+022500Y+018000
X-022500Y+021000
X-004500Y-004500
X-008500Y+001500
X-007500Y+001500
X-006500Y+001500
X-005500Y+001500
X-004500Y+001500
X-003500Y+001500
X-002500Y+001500
X-001500Y+001500
X-000500Y+001500
X+000500Y+001500
X+001500Y+001500
X+002500Y+001500
X+003500Y+001500
X+004500Y+001500
X+005500Y+001500
X+006500Y+001500
X+007500Y+001500
X+008500Y+001500
X+009500Y+001500
X+010500Y+001500
X+010500Y+007500
X+009500Y+007500
X+008500Y+007500
X+007500Y+007500
X+006500Y+007500
X+005500Y+007500
X+004500Y+007500
X+003500Y+007500
X+002500Y+007500
X+001500Y+007500
X+000500Y+007500
X-000500Y+007500
X-001500Y+007500
X-002500Y+007500
X-003500Y+007500
X-004500Y+007500
X-005500Y+007500
X-006500Y+007500
X-007500Y+007500
X-008500Y+007500
X-000750Y-004000
X+001250Y-004000
X-004000Y-010250
X-001000Y-010250
X+002000Y-010250
X+005000Y-010250
X-038000Y+023500
X-037000Y+023500
X-036000Y+023500
X-035000Y+023500
X-034000Y+023500
X-033000Y+023500
X-032000Y+023500
X-031000Y+023500
X-031000Y+026500
X-032000Y+026500
X-033000Y+026500
X-034000Y+026500
X-035000Y+026500
X-036000Y+026500
X-037000Y+026500
X-038000Y+026500
X-027125Y+023625
X-026125Y+023625
X-025125Y+023625
X-024125Y+023625
X-023125Y+023625
X-022125Y+023625
X-021125Y+023625
X-020125Y+023625
X-020125Y+026625
X-021125Y+026625
X-022125Y+026625
X-023125Y+026625
X-024125Y+026625
X-025125Y+026625
X-026125Y+026625
X-027125Y+026625
X+023000Y+020681
X+024000Y+020681
X+025000Y+020681
X+026000Y+020681
X+027000Y+020681
X+028000Y+020681
X+029000Y+020681
X+030000Y+020681
X+031000Y+020681
X+032000Y+020681
X+033000Y+020681
X+034000Y+020681
X+035000Y+020681
X+036000Y+020681
X+036000Y+023681
X+035000Y+023681
X+034000Y+023681
X+033000Y+023681
X+032000Y+023681
X+031000Y+023681
X+030000Y+023681
X+029000Y+023681
X+028000Y+023681
X+027000Y+023681
X+026000Y+023681
X+025000Y+023681
X+024000Y+023681
X+023007Y+023681
X+031000Y+015250
X+033000Y+015250
X+025250Y+008000
X+028250Y+008000
X+031750Y+008000
X+034750Y+008000
X+023250Y-005000
X+024250Y-005000
X+025250Y-005000
X+026250Y-005000
X+027250Y-005000
X+028250Y-005000
X+029250Y-005000
X+030250Y-005000
X+031250Y-005000
X+032250Y-005000
X+033250Y-005000
X+034250Y-005000
X+035250Y-005000
X+036250Y-005000
X+036250Y-002000
X+035250Y-002000
X+034250Y-002000
X+033250Y-002000
X+032250Y-002000
X+031250Y-002000
X+030250Y-002000
X+029250Y-002000
X+028250Y-002000
X+027250Y-002000
X+026250Y-002000
X+025250Y-002000
X+024250Y-002000
X+023257Y-002000
X+030750Y-010000
X+032750Y-010000
X+025750Y-016750
X+028750Y-016750
X+032000Y-016750
X+035000Y-016750
X-035500Y+002500
X-034500Y+002500
X-033500Y+002500
X-032500Y+002500
X-031500Y+002500
X-030500Y+002500
X-029500Y+002500
X-028500Y+002500
X-027500Y+002500
X-026500Y+002500
X-026500Y+005500
X-027500Y+005500
X-028500Y+005500
X-029500Y+005500
X-030500Y+005500
X-031500Y+005500
X-032500Y+005500
X-033500Y+005500
X-034500Y+005500
X-035500Y+005500
X-035500Y-009000
X-034500Y-009000
X-033500Y-009000
X-032500Y-009000
X-031500Y-009000
X-030500Y-009000
X-029500Y-009000
X-028500Y-009000
X-027500Y-009000
X-026500Y-009000
X-026500Y-006000
X-027500Y-006000
X-028500Y-006000
X-029500Y-006000
X-030500Y-006000
X-031500Y-006000
X-032500Y-006000
X-033500Y-006000
X-034500Y-006000
X-035500Y-006000
X-018500Y-003000
X-017500Y-003000
X-016500Y-003000
X-015500Y-003000
X-015500Y+000000
X-016500Y+000000
X-017500Y+000000
X-018500Y+000000
X+008500Y-005750
X+008500Y-002750
X-002267Y+013556
X+001732Y+013556
X+004576Y+013567
X+008576Y+013567
X-031412Y-001487
X-028412Y-001487
X-031500Y-013000
X-028500Y-013000
X-047750Y-003000
X-044750Y-003000
X-047750Y+001500
X-044750Y+001500
X-047750Y+006000
X-044750Y+006000
X-036300Y+017000
X-035500Y+017000
X-034700Y+017000
X-029300Y+017000
X-028500Y+017000
X-027700Y+017000
X-037000Y+014500
X-033000Y+014500
X-037000Y+012000
X-033000Y+012000
X-031000Y+014500
X-027000Y+014500
X-031000Y+012000
X-027000Y+012000
X-034000Y+009500
X-030000Y+009500
X-021300Y+017000
X-020500Y+017000
X-019700Y+017000
X-014300Y+017000
X-013500Y+017000
X-012700Y+017000
X-022000Y+014500
X-018000Y+014500
X-022000Y+012000
X-018000Y+012000
X-016000Y+014500
X-012000Y+014500
X-016000Y+012000
X-012000Y+012000
X-019000Y+009500
X-015000Y+009500
T02
X-001500Y+016450
X-000500Y+016450
X+000500Y+016450
X+005500Y+016400
X+006500Y+016400
X+007500Y+016400
X+020500Y+009750
X+021500Y+009750
X+022500Y+009750
X+020500Y-015250
X+021500Y-015250
X+022500Y-015250
X+030500Y+026000
X+031500Y+026000
X+032500Y+026000
X+025250Y+026000
X+026250Y+026000
X+027250Y+026000
X+025500Y+001250
X+026500Y+001250
X+027500Y+001250
X+030750Y+001250
X+031750Y+001250
X+032750Y+001250
X-010500Y+025500
X-010500Y+024500
X-009500Y+025500
X-009500Y+024500
X-008500Y+025500
X-008500Y+024500
X-007500Y+025500
X-007500Y+024500
X-006500Y+025500
X-006500Y+024500
X-005500Y+025500
X-005500Y+024500
X-004500Y+025500
X-004500Y+024500
X-003500Y+025500
X-003500Y+024500
X-002500Y+025500
X-002500Y+024500
X-001500Y+025500
X-001500Y+024500
X-000500Y+025500
X-000500Y+024500
X+000500Y+025500
X+000500Y+024500
X+001500Y+025500
X+001500Y+024500
X+002500Y+025500
X+002500Y+024500
X+003500Y+025500
X+003500Y+024500
X+004500Y+025500
X+004500Y+024500
X+005500Y+025500
X+005500Y+024500
X+006500Y+025500
X+006500Y+024500
X+007500Y+025500
X+007500Y+024500
X+008500Y+025500
X+008500Y+024500
X-017500Y-014500
X-017500Y-015500
X-016500Y-014500
X-016500Y-015500
X-015500Y-014500
X-015500Y-015500
X-014500Y-014500
X-014500Y-015500
X-013500Y-014500
X-013500Y-015500
X-012500Y-014500
X-012500Y-015500
X-011500Y-014500
X-011500Y-015500
X-010500Y-014500
X-010500Y-015500
X+019500Y+016000
X+019500Y+015000
X+020500Y+016000
X+020500Y+015000
X+021500Y+016000
X+021500Y+015000
X+022500Y+016000
X+022500Y+015000
X+023500Y+016000
X+023500Y+015000
X+019500Y-009500
X+019500Y-010500
X+020500Y-009500
X+020500Y-010500
X+021500Y-009500
X+021500Y-010500
X+022500Y-009500
X+022500Y-010500
X+023500Y-009500
X+023500Y-010500
X-047250Y-008000
X-046250Y-008000
X-045250Y-008000
T03
X-046750Y+021750
X-046750Y+023750
X-046750Y+009500
X-046750Y+011500
X-046750Y+015500
X-046750Y+017500
X-046750Y-013750
X-046750Y-011750
T04
X-048295Y+028547
X+038000Y+028500
X+038283Y-018460
X-048295Y-018460
T05
X-014095Y+025000
X+012095Y+025000
X-021095Y-015000
X-006905Y-015000
X+015905Y+015500
X+027095Y+015500
X+015905Y-010000
X+027095Y-010000
M30
