G04 Layer_Physical_Order=2*
G04 Layer_Color=16711680*
%FSLAX44Y44*%
%MOMM*%
G71*
G01*
G75*
%ADD24C,0.2540*%
%ADD25C,0.3048*%
%ADD26C,0.5080*%
%ADD27C,1.0000*%
%ADD28C,0.6350*%
%ADD30C,0.3810*%
%ADD31C,1.1684*%
%ADD32C,3.0480*%
%ADD33O,2.7000X1.5000*%
%ADD34O,3.3020X1.5240*%
%ADD35C,0.7000*%
%ADD36C,0.7000*%
%ADD37C,1.5240*%
%ADD38C,0.9000*%
%ADD39R,5.3610X5.3610*%
%ADD40R,5.0311X5.0562*%
D24*
X1320800Y946150D02*
X1417320Y849630D01*
X895350Y939800D02*
X899160D01*
X881380Y925830D02*
X895350Y939800D01*
X795020Y828040D02*
X881380Y914400D01*
Y925830D01*
X791210Y833120D02*
X875030Y916940D01*
Y933450D01*
X887730Y946150D01*
X732790Y929640D02*
X753110D01*
X732310Y968530D02*
X753110D01*
X728980Y939800D02*
X753110D01*
X1399083Y918848D02*
X1431534Y886396D01*
X1431133Y882402D02*
X1432929Y880606D01*
X1431534Y884600D02*
X1431534Y886396D01*
X1434725Y880606D02*
X1435126Y881008D01*
X1431133Y884199D02*
X1431534Y884600D01*
X1431133Y882402D02*
Y884199D01*
X1432929Y880606D02*
X1434725D01*
X1435126Y881008D02*
X1436922Y881008D01*
X1381760Y647700D02*
X1414960D01*
X1444080Y676820D01*
Y873850D01*
X1436922Y881008D02*
X1444080Y873850D01*
X1163320Y754380D02*
X1164590Y755650D01*
Y740410D02*
X1165860D01*
X1163320Y762000D02*
Y764540D01*
X1164590Y760730D02*
X1169670D01*
X1164590Y765810D02*
X1165860D01*
X1163320Y751840D02*
X1164590Y750570D01*
X1169670Y760730D02*
X1170940Y759460D01*
X1169670Y750570D02*
X1170940Y749300D01*
X1163320Y741680D02*
Y744220D01*
X1164590Y750570D02*
X1169670D01*
X1163320Y744220D02*
X1164590Y745490D01*
X1169670D01*
X1170940Y746760D01*
X1165860Y740410D02*
X1167130Y739140D01*
Y767080D02*
Y848360D01*
X1170940Y756920D02*
Y759460D01*
X1163320Y764540D02*
X1164590Y765810D01*
X1163320Y762000D02*
X1164590Y760730D01*
X1170940Y746760D02*
Y749300D01*
X1165860Y765810D02*
X1167130Y767080D01*
X1164590Y755650D02*
X1169670D01*
X1163320Y751840D02*
Y754380D01*
Y741680D02*
X1164590Y740410D01*
X1169670Y755650D02*
X1170940Y756920D01*
X1167130Y720090D02*
Y739140D01*
Y720090D02*
X1174671Y712549D01*
X1198917Y682915D02*
Y684710D01*
X1200713Y681118D02*
X1202510D01*
X1200713Y686507D02*
X1202510Y688303D01*
X1198917Y691895D02*
X1200713D01*
X1202510Y690099D01*
X1216878Y673934D02*
Y675730D01*
X1184549Y699079D02*
X1188141Y702671D01*
X1206102Y675730D02*
X1207898Y673934D01*
X1180957Y709855D02*
Y711651D01*
X1177365Y704467D02*
Y706263D01*
X1206102Y677526D02*
X1207898Y679322D01*
X1179161Y702671D02*
X1180957D01*
X1215082Y677526D02*
X1216878Y675730D01*
X1186345Y706263D02*
X1188141Y704467D01*
X1209694Y673934D02*
X1211490Y675730D01*
X1207898Y673934D02*
X1209694D01*
X1188141Y695487D02*
X1189937Y697283D01*
X1195325Y688303D02*
X1197121Y690099D01*
X1179161Y708059D02*
X1180957Y709855D01*
X1191733Y699079D02*
X1193529D01*
X1213286Y677526D02*
X1215082D01*
X1191733Y690099D02*
Y691895D01*
X1179161Y713447D02*
X1180957Y711651D01*
X1177365Y704467D02*
X1179161Y702671D01*
X1202510Y688303D02*
Y690099D01*
X1209694Y681118D02*
Y682915D01*
X1177365Y713447D02*
X1179161D01*
X1180957Y702671D02*
X1182753Y704467D01*
X1191733Y690099D02*
X1193529Y688303D01*
X1184549Y697283D02*
Y699079D01*
X1193529Y688303D02*
X1195325D01*
X1197121Y690099D02*
X1198917Y691895D01*
X1191733D02*
X1195325Y695487D01*
X1217776Y667648D02*
X1219572Y667648D01*
X1198917Y684710D02*
X1200713Y686507D01*
X1211490Y675730D02*
X1213286Y677526D01*
X1215082Y666750D02*
X1216878D01*
X1213286Y668546D02*
Y670342D01*
X1184549Y697283D02*
X1186345Y695487D01*
X1184549Y706263D02*
X1186345D01*
X1182753Y704467D02*
X1184549Y706263D01*
X1189937Y697283D02*
X1191733Y699079D01*
X1186345Y695487D02*
X1188141D01*
X1207898Y684710D02*
X1209694Y682915D01*
X1207898Y679322D02*
X1209694Y681118D01*
X1174671Y712549D02*
X1176467Y712549D01*
X1206102Y675730D02*
Y677526D01*
X1216878Y666750D02*
X1217776Y667648D01*
X1193529Y699079D02*
X1195325Y697283D01*
Y695487D02*
Y697283D01*
X1202510Y681118D02*
X1206102Y684710D01*
X1213286Y670342D02*
X1216878Y673934D01*
X1177365Y706263D02*
X1179161Y708059D01*
X1198917Y682915D02*
X1200713Y681118D01*
X1213286Y668546D02*
X1215082Y666750D01*
X1176467Y712549D02*
X1177365Y713447D01*
X1188141Y702671D02*
Y704467D01*
X1206102Y684710D02*
X1207898D01*
X1219572Y667648D02*
X1233170Y654050D01*
X1447128Y839470D02*
Y845820D01*
X1449668Y848360D01*
X1447128Y853440D02*
X1449668Y850900D01*
X1447128Y853440D02*
Y884592D01*
X1449668Y848360D02*
Y850900D01*
X1353820Y977900D02*
X1447128Y884592D01*
X1449668Y717550D02*
X1450938Y716280D01*
X1449668Y742950D02*
X1450938Y744220D01*
X1449668Y681990D02*
X1450938Y683260D01*
X1449668Y707390D02*
X1450938Y706120D01*
X1447128Y698500D02*
Y701040D01*
X1449668Y722630D02*
X1450938Y723900D01*
X1447128Y718820D02*
X1448398Y717550D01*
X1450938Y683260D02*
Y685800D01*
X1448398Y742950D02*
X1449668D01*
X1448398Y697230D02*
X1449668D01*
Y687070D02*
X1450938Y685800D01*
X1447128Y688340D02*
X1448398Y687070D01*
X1450938Y693420D02*
Y695960D01*
X1448398Y702310D02*
X1449668D01*
X1450938Y703580D02*
Y706120D01*
X1448398Y727710D02*
X1449668D01*
X1450938Y713740D02*
Y716280D01*
X1447128Y708660D02*
Y711200D01*
Y701040D02*
X1448398Y702310D01*
X1447128Y688340D02*
Y690880D01*
X1449668Y737870D02*
X1450938Y736600D01*
X1447128Y690880D02*
X1448398Y692150D01*
X1447128Y708660D02*
X1448398Y707390D01*
X1449668D01*
X1447128Y749300D02*
X1448398Y748030D01*
X1447128Y728980D02*
X1448398Y727710D01*
X1450938Y723900D02*
Y726440D01*
X1448398Y687070D02*
X1449668D01*
Y712470D02*
X1450938Y713740D01*
X1447128Y731520D02*
X1448398Y732790D01*
X1447128Y739140D02*
Y741680D01*
X1449668Y727710D02*
X1450938Y726440D01*
X1448398Y748030D02*
X1449668D01*
X1448398Y717550D02*
X1449668D01*
X1447128Y741680D02*
X1448398Y742950D01*
X1447128Y680720D02*
X1448398Y681990D01*
X1449668D01*
X1448398Y712470D02*
X1449668D01*
X1447128Y718820D02*
Y721360D01*
Y728980D02*
Y731520D01*
X1449668Y748030D02*
X1450938Y746760D01*
X1449668Y697230D02*
X1450938Y695960D01*
X1448398Y722630D02*
X1449668D01*
X1447128Y698500D02*
X1448398Y697230D01*
X1447128Y721360D02*
X1448398Y722630D01*
X1450938Y734060D02*
Y736600D01*
X1449668Y732790D02*
X1450938Y734060D01*
X1447128Y749300D02*
Y750570D01*
X1449668Y692150D02*
X1450938Y693420D01*
Y744220D02*
Y746760D01*
X1448398Y692150D02*
X1449668D01*
Y702310D02*
X1450938Y703580D01*
X1447128Y711200D02*
X1448398Y712470D01*
X1447128Y739140D02*
X1448398Y737870D01*
X1449668D01*
X1448398Y732790D02*
X1449668D01*
X1447128Y675557D02*
Y680720D01*
X1400810Y629239D02*
X1447128Y675557D01*
X1400810Y605790D02*
Y629239D01*
X1390650Y595630D02*
X1400810Y605790D01*
X1372870Y595630D02*
X1390650D01*
X1369060Y599440D02*
X1372870Y595630D01*
X1369060Y599440D02*
Y609600D01*
X1449668Y767080D02*
X1450938Y765810D01*
Y753110D02*
Y755650D01*
X1448398Y807720D02*
X1449668D01*
X1447128Y758190D02*
X1448398Y756920D01*
X1449668Y777240D02*
X1450938Y775970D01*
X1449668Y833120D02*
X1450938Y834390D01*
X1448398Y817880D02*
X1449668D01*
X1448398Y797560D02*
X1449668D01*
Y772160D02*
X1450938Y773430D01*
X1448398Y833120D02*
X1449668D01*
X1448398Y822960D02*
X1449668D01*
X1448398Y772160D02*
X1449668D01*
X1450938Y803910D02*
Y806450D01*
X1448398Y838200D02*
X1449668D01*
X1447128Y750570D02*
X1448398Y751840D01*
X1450938Y763270D02*
Y765810D01*
Y834390D02*
Y836930D01*
X1448398Y802640D02*
X1449668D01*
X1448398Y787400D02*
X1449668D01*
X1447128Y781050D02*
X1448398Y782320D01*
X1450938Y793750D02*
Y796290D01*
X1447128Y798830D02*
Y801370D01*
X1449668Y756920D02*
X1450938Y755650D01*
Y824230D02*
Y826770D01*
X1448398Y792480D02*
X1449668D01*
Y782320D02*
X1450938Y783590D01*
X1447128Y821690D02*
X1448398Y822960D01*
X1447128Y811530D02*
X1448398Y812800D01*
X1450938Y773430D02*
Y775970D01*
X1449668Y797560D02*
X1450938Y796290D01*
X1447128Y791210D02*
X1448398Y792480D01*
X1447128Y831850D02*
X1448398Y833120D01*
X1449668Y822960D02*
X1450938Y824230D01*
X1447128Y758190D02*
Y760730D01*
Y829310D02*
X1448398Y828040D01*
X1447128Y760730D02*
X1448398Y762000D01*
X1447128Y778510D02*
X1448398Y777240D01*
X1447128Y770890D02*
X1448398Y772160D01*
X1447128Y768350D02*
X1448398Y767080D01*
X1449668D01*
Y787400D02*
X1450938Y786130D01*
X1448398Y777240D02*
X1449668D01*
Y828040D02*
X1450938Y826770D01*
X1447128Y768350D02*
Y770890D01*
X1449668Y812800D02*
X1450938Y814070D01*
X1447128Y788670D02*
X1448398Y787400D01*
Y756920D02*
X1449668D01*
X1450938Y783590D02*
Y786130D01*
X1448398Y762000D02*
X1449668D01*
X1447128Y778510D02*
Y781050D01*
Y788670D02*
Y791210D01*
Y808990D02*
Y811530D01*
Y798830D02*
X1448398Y797560D01*
X1449668Y817880D02*
X1450938Y816610D01*
X1447128Y801370D02*
X1448398Y802640D01*
Y782320D02*
X1449668D01*
X1448398Y751840D02*
X1449668D01*
X1447128Y839470D02*
X1448398Y838200D01*
X1449668Y807720D02*
X1450938Y806450D01*
X1447128Y819150D02*
Y821690D01*
Y829310D02*
Y831850D01*
X1448398Y828040D02*
X1449668D01*
X1447128Y819150D02*
X1448398Y817880D01*
X1449668Y751840D02*
X1450938Y753110D01*
X1448398Y812800D02*
X1449668D01*
Y762000D02*
X1450938Y763270D01*
X1449668Y838200D02*
X1450938Y836930D01*
Y814070D02*
Y816610D01*
X1447128Y808990D02*
X1448398Y807720D01*
X1449668Y802640D02*
X1450938Y803910D01*
X1449668Y792480D02*
X1450938Y793750D01*
X1417320Y759460D02*
Y849630D01*
Y693420D02*
Y751840D01*
X1416050Y758190D02*
X1417320Y759460D01*
X1414552Y756920D02*
X1415822Y758190D01*
X1414552Y754380D02*
X1415822Y753110D01*
X1414552Y754380D02*
Y756920D01*
X1415822Y753110D02*
X1416050D01*
X1417320Y751840D01*
X1415822Y758190D02*
X1416050D01*
X1409700Y685800D02*
X1417320Y693420D01*
X1381760Y685800D02*
X1409700D01*
X765810Y706456D02*
Y708660D01*
X770890Y706456D02*
Y708660D01*
X751840Y709930D02*
X754380D01*
X760730Y706456D02*
Y708660D01*
X762000Y709930D01*
X764540D02*
X765810Y708660D01*
X755650Y706456D02*
Y708660D01*
X756920Y705186D02*
X759460D01*
X775970Y706456D02*
Y708660D01*
X767080Y705186D02*
X769620D01*
X762000Y709930D02*
X764540D01*
X770890Y708660D02*
X772160Y709930D01*
X750570Y708660D02*
X751840Y709930D01*
X779780Y705186D02*
X781050Y706456D01*
X732790Y708660D02*
X750570D01*
X781050Y707390D02*
X782320Y708660D01*
X750570D02*
Y708661D01*
X754380Y709930D02*
X755650Y708660D01*
X777240Y705186D02*
X779780D01*
X772160Y709930D02*
X774700D01*
X765810Y706456D02*
X767080Y705186D01*
X755650Y706456D02*
X756920Y705186D01*
X782320Y708660D02*
X866140D01*
X759460Y705186D02*
X760730Y706456D01*
X781050Y706456D02*
Y707390D01*
X750570Y708660D02*
X750570Y708661D01*
X769620Y705186D02*
X770890Y706456D01*
X774700Y709930D02*
X775970Y708660D01*
Y706456D02*
X777240Y705186D01*
X873760Y591820D02*
X880110Y585470D01*
X873760Y591820D02*
Y701040D01*
X866140Y708660D02*
X873760Y701040D01*
X728980Y704850D02*
X732790Y708660D01*
X728980Y568960D02*
Y704850D01*
Y568960D02*
X736600Y561340D01*
X752320D01*
X765810Y459019D02*
Y462280D01*
X775970Y459019D02*
Y462280D01*
X786130Y459019D02*
Y462280D01*
X762000Y463550D02*
X764540D01*
X786130Y459019D02*
X787400Y457748D01*
X760730Y461010D02*
Y462280D01*
X765810Y459019D02*
X767080Y457748D01*
X774700Y463550D02*
X775970Y462280D01*
X791932Y459740D02*
X835660D01*
X772160Y463550D02*
X774700D01*
X781050Y462280D02*
X782320Y463550D01*
X777240Y457748D02*
X779780D01*
X775970Y459019D02*
X777240Y457748D01*
X764540Y463550D02*
X765810Y462280D01*
X770890D02*
X772160Y463550D01*
X782320D02*
X784860D01*
X786130Y462280D01*
X760730D02*
X762000Y463550D01*
X767080Y457748D02*
X769620D01*
X779780D02*
X781050Y459019D01*
X769620Y457748D02*
X770890Y459019D01*
X787400Y457748D02*
X789940D01*
X770890Y459019D02*
Y462280D01*
X781050Y459019D02*
Y462280D01*
X759460Y459740D02*
X760730Y461010D01*
X789940Y457748D02*
X791932Y459740D01*
X854710Y478790D02*
Y546100D01*
X835660Y459740D02*
X854710Y478790D01*
X740410Y459740D02*
X759460D01*
X732790Y467360D02*
X740410Y459740D01*
X732790Y467360D02*
Y512930D01*
X740410Y520550D01*
X753110D01*
X779780Y501152D02*
X782320D01*
X784860Y504962D02*
X810260D01*
X777240D02*
X778510Y503692D01*
X783590Y502422D02*
Y503692D01*
X778510Y502422D02*
X779780Y501152D01*
X778510Y502422D02*
Y503692D01*
X782320Y501152D02*
X783590Y502422D01*
Y503692D02*
X784860Y504962D01*
X826770Y521472D02*
Y570230D01*
X810260Y504962D02*
X826770Y521472D01*
X761110Y504962D02*
X777240D01*
X793750Y518772D02*
X795020Y517502D01*
Y516232D02*
X796290Y514962D01*
X781050Y518772D02*
X783590D01*
X786130Y511152D02*
X788670D01*
X779780Y516232D02*
Y517502D01*
X783590Y518772D02*
X784860Y517502D01*
X791210Y518772D02*
X793750D01*
X784860Y512422D02*
Y517502D01*
Y512422D02*
X786130Y511152D01*
X789940Y517502D02*
X791210Y518772D01*
X789940Y512422D02*
Y517502D01*
X778510Y514962D02*
X779780Y516232D01*
X795020D02*
Y517502D01*
X779780D02*
X781050Y518772D01*
X788670Y511152D02*
X789940Y512422D01*
X814070Y518772D02*
Y557530D01*
X810260Y514962D02*
X814070Y518772D01*
X796290Y514962D02*
X810260D01*
X761110D02*
X778510D01*
X801370Y534670D02*
X802640Y535940D01*
X784860Y534670D02*
X801370D01*
X867918Y922528D02*
Y970788D01*
X831850Y886460D02*
X867918Y922528D01*
Y970788D02*
X872490Y975360D01*
X881772D01*
X761110Y953572D02*
X783788D01*
X736440Y909160D02*
X753110D01*
X723900Y976630D02*
X758052D01*
X761110Y973572D01*
X740410Y899160D02*
X753110D01*
X761110Y883572D02*
X761740Y882942D01*
X776350D01*
X761110Y893572D02*
X761740Y892942D01*
X834390Y923290D02*
X838200Y919480D01*
X811530Y923290D02*
X834390D01*
X811530D02*
X815340Y919480D01*
X751840Y828040D02*
X795020D01*
X902462Y893572D02*
Y903732D01*
X822960Y814070D02*
X902462Y893572D01*
X746760Y814070D02*
X822960D01*
X887730Y891540D02*
Y905735D01*
X817880Y821690D02*
X887730Y891540D01*
X749300Y821690D02*
X817880D01*
X753110Y833120D02*
X791210D01*
X736600Y849630D02*
X753110Y833120D01*
X736600Y849630D02*
Y895350D01*
X740410Y899160D01*
X902462Y903732D02*
X902970Y904240D01*
X731520D02*
X736440Y909160D01*
X731520Y848360D02*
Y904240D01*
Y848360D02*
X751840Y828040D01*
X726440Y923290D02*
X732790Y929640D01*
X726440Y844550D02*
Y923290D01*
Y844550D02*
X749300Y821690D01*
X721360Y839470D02*
X746760Y814070D01*
X721360Y932180D02*
X728980Y939800D01*
X721360Y839470D02*
Y932180D01*
X715010Y951230D02*
X732310Y968530D01*
X715010Y835660D02*
Y951230D01*
Y835660D02*
X742950Y807720D01*
X752320Y561340D02*
X753110Y560550D01*
X752320Y551340D02*
X753110Y550550D01*
X736600Y551340D02*
X752320D01*
X885190Y595630D02*
X889000D01*
X725170Y517850D02*
X737870Y530550D01*
X753110D01*
X725170Y466090D02*
Y517850D01*
Y466090D02*
X738591Y452669D01*
X723900Y564040D02*
X736600Y551340D01*
X723900Y564040D02*
Y709770D01*
X729140Y715010D01*
X867410D01*
X880110Y600710D02*
X885190Y595630D01*
X880110Y600710D02*
Y702310D01*
X867410Y715010D02*
X880110Y702310D01*
X815340Y603250D02*
X817118Y605028D01*
X932180Y481330D02*
X934720Y483870D01*
X866140Y474980D02*
Y535940D01*
X843829Y452669D02*
X866140Y474980D01*
X738591Y452669D02*
X843829D01*
X882650Y497840D02*
X899160Y481330D01*
X932180D01*
X817118Y605028D02*
X847852D01*
X882650Y570230D01*
Y497840D02*
Y570230D01*
X878840Y488950D02*
Y568960D01*
X761110Y574962D02*
X773590D01*
X793750Y595122D02*
X830072D01*
X773590Y574962D02*
X793750Y595122D01*
X715010Y646430D02*
Y647700D01*
X1045210Y605790D02*
X1068070Y582930D01*
X1004570Y605790D02*
X1045210D01*
X1068070Y538480D02*
X1069340Y537210D01*
X1068070Y538480D02*
Y582930D01*
X1460500Y510540D02*
Y511810D01*
X1322057Y491477D02*
X1323823Y489712D01*
X1439672D01*
X1460500Y510540D01*
X776350Y882942D02*
X779868Y886460D01*
X761740Y892942D02*
X778378D01*
X781050Y890270D01*
X830580D01*
X859790Y919480D02*
Y970280D01*
X830580Y890270D02*
X859790Y919480D01*
X1381760Y673100D02*
X1414960D01*
X1426300Y684440D01*
Y858610D01*
X1351915Y530225D02*
X1352550Y530860D01*
X1419860D01*
X1353820Y548640D02*
X1355090Y549910D01*
X1419860D01*
X1381760Y660400D02*
X1409700D01*
X1435100Y685800D01*
Y864870D01*
X1332230Y590550D02*
X1419860D01*
X1350010Y574040D02*
X1435100D01*
X1182370Y727710D02*
Y835660D01*
Y727710D02*
X1275080Y635000D01*
X1369060D01*
X1262380Y622300D02*
Y624840D01*
X1233170Y654050D02*
X1262380Y624840D01*
X1320678Y946028D02*
X1320800Y946150D01*
X1408303Y891667D02*
X1435100Y864870D01*
X779868Y886460D02*
X831850D01*
X783788Y953572D02*
X800100Y937260D01*
Y900430D02*
Y937260D01*
X774195Y1050795D02*
Y1106935D01*
Y1050795D02*
X791210Y1033780D01*
Y1018540D02*
Y1033780D01*
X1319711Y965200D02*
X1426300Y858610D01*
X1381760Y698500D02*
Y845820D01*
X1291590Y935990D02*
Y1019810D01*
Y935990D02*
X1381760Y845820D01*
X742950Y807720D02*
X868680D01*
X830072Y595122D02*
X830580Y595630D01*
Y596900D01*
X850900D01*
X878840Y568960D01*
X961390Y737870D02*
X969010Y745490D01*
X961390Y681990D02*
Y737870D01*
X963930Y1008380D02*
X999998Y972312D01*
X963930Y1008380D02*
Y1140460D01*
X943610Y723900D02*
Y737870D01*
X999998Y794258D01*
Y972312D01*
X993275Y769755D02*
X1008380Y784860D01*
Y979170D01*
X976630Y1010920D02*
X1008380Y979170D01*
X976630Y1010920D02*
Y1148080D01*
X969010Y745490D02*
X980703Y757183D01*
X982148Y764719D02*
X988239Y758628D01*
X990035D01*
X985740Y768311D02*
X988785Y765265D01*
X985740Y768311D02*
Y770107D01*
X990035Y758628D02*
X991831Y760424D01*
Y762220D01*
X991479Y769755D02*
X993275D01*
X980352Y764719D02*
X982148D01*
X988785Y765265D02*
X991831Y762220D01*
X980703Y757183D02*
Y758979D01*
X978556Y761127D02*
X980703Y758979D01*
X987536Y771903D02*
X989332D01*
X985740Y770107D02*
X987536Y771903D01*
X978556Y761127D02*
Y762923D01*
X980352Y764719D01*
X989332Y771903D02*
X991479Y769755D01*
D25*
X910590Y883920D02*
Y946150D01*
X901700Y955040D02*
X910590Y946150D01*
X876300Y955040D02*
X901700D01*
X761110Y963572D02*
X761740Y962942D01*
X890960Y502230D02*
Y541902D01*
Y502230D02*
X895350Y497840D01*
X890960Y541902D02*
Y582350D01*
X900430Y591820D01*
Y613410D01*
X986790Y387350D02*
X1416050D01*
X1061720Y1162050D02*
X1069340Y1169670D01*
X1061720Y970280D02*
X1062990Y969010D01*
X1042670Y916940D02*
X1052830D01*
X1062990Y927100D01*
Y969010D01*
X1021080Y669290D02*
Y1079500D01*
X1012190Y660400D02*
X1021080Y669290D01*
X1061720Y970280D02*
Y1029970D01*
Y1162050D01*
X1062990Y833120D02*
Y927100D01*
X1050290Y820420D02*
X1062990Y833120D01*
X1035050Y820420D02*
X1050290D01*
X965200Y842010D02*
Y875030D01*
X976630Y830580D02*
X991870D01*
X965200Y842010D02*
X976630Y830580D01*
D26*
X761740Y962942D02*
X782602D01*
X787400Y967740D01*
X885190Y457200D02*
Y476250D01*
X721360Y440690D02*
X731520D01*
X717550Y444500D02*
X721360Y440690D01*
X717550Y444500D02*
Y643890D01*
X715010Y646430D02*
X717550Y643890D01*
X1011523Y479393D02*
X1069340Y537210D01*
X958183Y479393D02*
X1011523D01*
X958183D02*
Y489553D01*
X965200Y496570D01*
D27*
X1069340Y1169670D02*
X1363980D01*
X1503680Y394970D02*
Y575310D01*
X1550670Y622300D01*
Y694690D01*
X1503680Y741680D02*
X1550670Y694690D01*
X1503680Y741680D02*
Y1082040D01*
X1363980Y1169670D02*
X1416050D01*
X847090D02*
X1069340D01*
X1416050D02*
X1503680Y1082040D01*
X962660Y373380D02*
X1435100D01*
X925830D02*
X962660D01*
X946150Y389890D02*
X962660Y373380D01*
X882650D02*
X925830D01*
X911860Y387350D02*
X925830Y373380D01*
X836930D02*
X882650D01*
X867410Y388620D02*
X882650Y373380D01*
X732790D02*
X836930D01*
X824230Y386080D02*
X836930Y373380D01*
X1485900Y643390D02*
X1515110Y672600D01*
X1481320Y638810D02*
X1485900Y643390D01*
X1426210Y638810D02*
X1481320D01*
X1485900Y424180D02*
Y643390D01*
X1435100Y373380D02*
X1485900Y424180D01*
X698500Y478050D02*
Y623050D01*
Y407670D02*
Y478050D01*
Y407670D02*
X732790Y373380D01*
D28*
X1102579Y562610D02*
X1443990D01*
X909320Y1145540D02*
X920750Y1134110D01*
Y842010D02*
Y1134110D01*
X886492Y807752D02*
X920750Y842010D01*
X749300Y604520D02*
X795020D01*
X746760Y601980D02*
X749300Y604520D01*
X746760Y596900D02*
Y601980D01*
Y596900D02*
X753110Y590550D01*
X753110Y859200D02*
X755650Y856660D01*
X753110Y859200D02*
Y889160D01*
X698500Y1001660D02*
X755650D01*
X755650Y1001030D02*
X770890D01*
X761740Y902942D02*
X776350D01*
X761110Y903572D02*
X761740Y902942D01*
X788670Y915262D02*
Y935990D01*
X776350Y902942D02*
X788670Y915262D01*
X761110Y933572D02*
X761740Y932942D01*
X785622D01*
X795020Y604520D02*
X803910Y613410D01*
Y689610D01*
X886492Y707422D02*
X978092Y615823D01*
X1049366D01*
X1456690Y575310D02*
Y609600D01*
X1442720Y623570D02*
X1456690Y609600D01*
X1430020Y623570D02*
X1442720D01*
X933450Y396240D02*
Y457200D01*
X939800Y389890D02*
X946150D01*
X933450Y396240D02*
X939800Y389890D01*
X1049366Y615823D02*
X1102579Y562610D01*
X1443990D02*
X1456690Y575310D01*
X770890Y1001030D02*
X801640D01*
X819150Y1018540D01*
Y1114809D01*
X886492Y707422D02*
Y807752D01*
X725170Y1145540D02*
X909320D01*
X770890Y1001030D02*
X787400Y984520D01*
X785622Y932942D02*
X788670Y935990D01*
X787400Y967740D02*
Y984520D01*
Y967740D02*
X803910Y951230D01*
D30*
X838200Y504190D02*
X844550Y497840D01*
X838200Y504190D02*
Y577850D01*
X1325880Y764540D02*
Y881380D01*
X1270000Y937260D02*
X1325880Y881380D01*
X1270000Y937260D02*
Y1024890D01*
X1305560Y1060450D01*
D31*
X1369060Y698500D02*
D03*
Y685800D02*
D03*
Y673100D02*
D03*
Y660400D02*
D03*
Y647700D02*
D03*
Y635000D02*
D03*
Y622300D02*
D03*
Y609600D02*
D03*
X1381760Y698500D02*
D03*
Y685800D02*
D03*
Y673100D02*
D03*
Y660400D02*
D03*
Y647700D02*
D03*
Y635000D02*
D03*
Y622300D02*
D03*
Y609600D02*
D03*
D32*
X1515110Y672600D02*
D03*
X1408430Y506730D02*
D03*
X1308100Y560070D02*
D03*
D33*
X698500Y1001660D02*
D03*
Y856660D02*
D03*
X698500Y623050D02*
D03*
Y478050D02*
D03*
D34*
X755650Y1001660D02*
D03*
Y856660D02*
D03*
X755650Y623050D02*
D03*
Y478050D02*
D03*
D35*
X753110Y969160D02*
D03*
Y959160D02*
D03*
Y949160D02*
D03*
Y939160D02*
D03*
Y929160D02*
D03*
Y919160D02*
D03*
Y909160D02*
D03*
X761110Y973572D02*
D03*
X761110Y963572D02*
D03*
X761110Y953572D02*
D03*
Y943572D02*
D03*
X761110Y933572D02*
D03*
X761110Y923572D02*
D03*
Y913572D02*
D03*
X753110Y590550D02*
D03*
Y580550D02*
D03*
Y570550D02*
D03*
Y560550D02*
D03*
Y550550D02*
D03*
Y540550D02*
D03*
Y530550D02*
D03*
X761110Y594962D02*
D03*
X761110Y584962D02*
D03*
X761110Y574962D02*
D03*
Y564962D02*
D03*
Y554962D02*
D03*
Y544962D02*
D03*
Y534962D02*
D03*
D36*
X753110Y899160D02*
D03*
X753110Y889160D02*
D03*
X761110Y903572D02*
D03*
X761110Y893572D02*
D03*
Y883572D02*
D03*
X753110Y520550D02*
D03*
Y510550D02*
D03*
X761110Y524962D02*
D03*
Y514962D02*
D03*
Y504962D02*
D03*
X943354Y951230D02*
D03*
X974090Y919480D02*
D03*
X972820Y952500D02*
D03*
X943610Y920750D02*
D03*
X958124Y934175D02*
D03*
X928370Y575310D02*
D03*
X948420Y570500D02*
D03*
X942340Y558800D02*
D03*
X929640Y557530D02*
D03*
X965200Y543560D02*
D03*
X954405Y558530D02*
D03*
D37*
X787400Y560070D02*
D03*
D38*
X899160Y939800D02*
D03*
X887730Y946150D02*
D03*
X868680Y807720D02*
D03*
X886460Y975360D02*
D03*
X723900Y976630D02*
D03*
X838200Y919480D02*
D03*
X784860Y534670D02*
D03*
X889000Y595630D02*
D03*
X815340Y603250D02*
D03*
X934720Y483870D02*
D03*
X854710Y546100D02*
D03*
X866140Y535940D02*
D03*
X878840Y488950D02*
D03*
X880110Y585470D02*
D03*
X844550Y497840D02*
D03*
X895350D02*
D03*
X890960Y541902D02*
D03*
X802640Y535940D02*
D03*
X814070Y557530D02*
D03*
X826770Y570230D02*
D03*
X838200Y577850D02*
D03*
X885190Y457200D02*
D03*
Y476250D02*
D03*
X900430Y613410D02*
D03*
X715010Y647700D02*
D03*
X731520Y440690D02*
D03*
X946150Y389890D02*
D03*
X1068070Y582930D02*
D03*
X1069340Y537210D02*
D03*
X1004570Y605790D02*
D03*
X958183Y479393D02*
D03*
X965200Y496570D02*
D03*
X1460500Y511810D02*
D03*
X886492Y707422D02*
D03*
X1430020Y623570D02*
D03*
X1426210Y638810D02*
D03*
X1325880Y764540D02*
D03*
X986790Y387350D02*
D03*
X1416050D02*
D03*
X911860D02*
D03*
X824230Y386080D02*
D03*
X867410Y388620D02*
D03*
X933450Y457200D02*
D03*
X1322057Y491477D02*
D03*
X811530Y923290D02*
D03*
X902970Y904240D02*
D03*
X887730Y905735D02*
D03*
X910590Y883920D02*
D03*
X859790Y970280D02*
D03*
X1351915Y530225D02*
D03*
X1419860Y530860D02*
D03*
X1353820Y548640D02*
D03*
X1419860Y549910D02*
D03*
X1332230Y590550D02*
D03*
X1419860D02*
D03*
X1350010Y574040D02*
D03*
X1435100D02*
D03*
X1182370Y835660D02*
D03*
X1167130Y848360D02*
D03*
X1262380Y622300D02*
D03*
X1233170Y654050D02*
D03*
X1353820Y977900D02*
D03*
X1319711Y965200D02*
D03*
X1320678Y946028D02*
D03*
X1399083Y918848D02*
D03*
X1408303Y891667D02*
D03*
X1503680Y394970D02*
D03*
X847090Y1169670D02*
D03*
X1189196Y1169194D02*
D03*
X800100Y900430D02*
D03*
X819150Y1114809D02*
D03*
X803910Y689610D02*
D03*
X725170Y1145540D02*
D03*
X774195Y1106935D02*
D03*
X791210Y1018540D02*
D03*
X961390Y681990D02*
D03*
X943610Y723900D02*
D03*
X1061720Y970280D02*
D03*
X1042670Y916940D02*
D03*
X1021080Y1079500D02*
D03*
X1012190Y660400D02*
D03*
X1061720Y1029970D02*
D03*
X1363980Y1169670D02*
D03*
X1305560Y1060450D02*
D03*
X1291590Y1019810D02*
D03*
X788670Y935990D02*
D03*
X803910Y951230D02*
D03*
X1035050Y820420D02*
D03*
X991870Y830580D02*
D03*
X965200Y875030D02*
D03*
X976630Y1148080D02*
D03*
X963930Y1140460D02*
D03*
X876300Y955040D02*
D03*
X830580Y596900D02*
D03*
X969010Y745490D02*
D03*
D39*
X947285Y557665D02*
D03*
D40*
X957824Y934839D02*
D03*
M02*
