G04 Layer_Color=255*
%FSLAX44Y44*%
%MOMM*%
G71*
G01*
G75*
%ADD31C,1.1684*%
%ADD32C,3.0480*%
%ADD33O,2.7000X1.5000*%
%ADD34O,3.3020X1.5240*%
%ADD35C,0.7000*%
%ADD36C,0.7000*%
%ADD37C,1.5240*%
D31*
X1369060Y698500D02*
D03*
Y685800D02*
D03*
Y673100D02*
D03*
Y660400D02*
D03*
Y647700D02*
D03*
Y635000D02*
D03*
Y622300D02*
D03*
Y609600D02*
D03*
X1381760Y698500D02*
D03*
Y685800D02*
D03*
Y673100D02*
D03*
Y660400D02*
D03*
Y647700D02*
D03*
Y635000D02*
D03*
Y622300D02*
D03*
Y609600D02*
D03*
D32*
X1515110Y672600D02*
D03*
X1408430Y506730D02*
D03*
X1308100Y560070D02*
D03*
D33*
X698500Y1001660D02*
D03*
Y856660D02*
D03*
X698500Y623050D02*
D03*
Y478050D02*
D03*
D34*
X755650Y1001660D02*
D03*
Y856660D02*
D03*
X755650Y623050D02*
D03*
Y478050D02*
D03*
D35*
X753110Y969160D02*
D03*
Y959160D02*
D03*
Y949160D02*
D03*
Y939160D02*
D03*
Y929160D02*
D03*
Y919160D02*
D03*
Y909160D02*
D03*
X761110Y973572D02*
D03*
X761110Y963572D02*
D03*
X761110Y953572D02*
D03*
Y943572D02*
D03*
X761110Y933572D02*
D03*
X761110Y923572D02*
D03*
Y913572D02*
D03*
X753110Y590550D02*
D03*
Y580550D02*
D03*
Y570550D02*
D03*
Y560550D02*
D03*
Y550550D02*
D03*
Y540550D02*
D03*
Y530550D02*
D03*
X761110Y594962D02*
D03*
X761110Y584962D02*
D03*
X761110Y574962D02*
D03*
Y564962D02*
D03*
Y554962D02*
D03*
Y544962D02*
D03*
Y534962D02*
D03*
D36*
X753110Y899160D02*
D03*
X753110Y889160D02*
D03*
X761110Y903572D02*
D03*
X761110Y893572D02*
D03*
Y883572D02*
D03*
X753110Y520550D02*
D03*
Y510550D02*
D03*
X761110Y524962D02*
D03*
Y514962D02*
D03*
Y504962D02*
D03*
X943354Y951230D02*
D03*
X974090Y919480D02*
D03*
X972820Y952500D02*
D03*
X943610Y920750D02*
D03*
X958124Y934175D02*
D03*
X928370Y575310D02*
D03*
X948420Y570500D02*
D03*
X942340Y558800D02*
D03*
X929640Y557530D02*
D03*
X965200Y543560D02*
D03*
X954405Y558530D02*
D03*
D37*
X787400Y560070D02*
D03*
M02*
