G04 Layer_Color=65535*
%FSLAX44Y44*%
%MOMM*%
G71*
G01*
G75*
%ADD24C,0.2540*%
%ADD26C,0.5080*%
%ADD41C,0.1524*%
%ADD42C,0.2000*%
%ADD43C,0.1016*%
%ADD44C,0.0762*%
G36*
X1438684Y787665D02*
X1438872Y787654D01*
X1439072Y787643D01*
X1439261Y787621D01*
X1439427Y787598D01*
X1439449D01*
X1439527Y787576D01*
X1439627Y787554D01*
X1439760Y787521D01*
X1439904Y787465D01*
X1440060Y787399D01*
X1440226Y787321D01*
X1440371Y787232D01*
X1440393Y787221D01*
X1440437Y787188D01*
X1440504Y787121D01*
X1440593Y787044D01*
X1440693Y786944D01*
X1440793Y786810D01*
X1440903Y786666D01*
X1440992Y786500D01*
X1441003Y786477D01*
X1441026Y786422D01*
X1441070Y786322D01*
X1441114Y786189D01*
X1441148Y786033D01*
X1441192Y785856D01*
X1441214Y785656D01*
X1441225Y785445D01*
Y785434D01*
Y785401D01*
Y785356D01*
X1441214Y785279D01*
X1441203Y785201D01*
X1441192Y785101D01*
X1441170Y784990D01*
X1441148Y784868D01*
X1441070Y784613D01*
X1441026Y784479D01*
X1440959Y784335D01*
X1440881Y784191D01*
X1440804Y784058D01*
X1440704Y783924D01*
X1440593Y783791D01*
X1440582Y783780D01*
X1440559Y783758D01*
X1440526Y783725D01*
X1440471Y783691D01*
X1440404Y783636D01*
X1440315Y783580D01*
X1440204Y783514D01*
X1440082Y783458D01*
X1439938Y783392D01*
X1439771Y783325D01*
X1439594Y783270D01*
X1439383Y783225D01*
X1439161Y783181D01*
X1438917Y783148D01*
X1438639Y783125D01*
X1438351Y783114D01*
X1436386D01*
Y779995D01*
X1435365D01*
Y787676D01*
X1438517D01*
X1438684Y787665D01*
D02*
G37*
G36*
X1419337D02*
X1419436D01*
X1419670Y787654D01*
X1419914Y787621D01*
X1420180Y787587D01*
X1420424Y787532D01*
X1420547Y787499D01*
X1420646Y787465D01*
X1420658D01*
X1420669Y787454D01*
X1420735Y787421D01*
X1420835Y787376D01*
X1420957Y787299D01*
X1421090Y787199D01*
X1421235Y787066D01*
X1421368Y786910D01*
X1421501Y786733D01*
Y786722D01*
X1421512Y786711D01*
X1421557Y786644D01*
X1421601Y786533D01*
X1421668Y786389D01*
X1421723Y786222D01*
X1421779Y786022D01*
X1421812Y785811D01*
X1421823Y785578D01*
Y785567D01*
Y785545D01*
Y785501D01*
X1421812Y785445D01*
Y785367D01*
X1421801Y785290D01*
X1421756Y785101D01*
X1421690Y784879D01*
X1421601Y784646D01*
X1421468Y784413D01*
X1421379Y784302D01*
X1421290Y784191D01*
X1421279Y784180D01*
X1421268Y784169D01*
X1421235Y784135D01*
X1421190Y784102D01*
X1421135Y784058D01*
X1421068Y784013D01*
X1420979Y783958D01*
X1420891Y783891D01*
X1420780Y783836D01*
X1420658Y783780D01*
X1420524Y783714D01*
X1420380Y783658D01*
X1420213Y783614D01*
X1420047Y783558D01*
X1419858Y783525D01*
X1419659Y783492D01*
X1419681Y783480D01*
X1419725Y783458D01*
X1419792Y783414D01*
X1419881Y783370D01*
X1420080Y783247D01*
X1420180Y783170D01*
X1420269Y783103D01*
X1420291Y783081D01*
X1420347Y783025D01*
X1420435Y782937D01*
X1420547Y782826D01*
X1420669Y782670D01*
X1420813Y782504D01*
X1420957Y782304D01*
X1421113Y782082D01*
X1422433Y779995D01*
X1421168D01*
X1420158Y781593D01*
Y781605D01*
X1420136Y781627D01*
X1420114Y781660D01*
X1420080Y781704D01*
X1420003Y781827D01*
X1419903Y781982D01*
X1419781Y782149D01*
X1419659Y782326D01*
X1419536Y782493D01*
X1419425Y782648D01*
X1419414Y782659D01*
X1419381Y782703D01*
X1419326Y782770D01*
X1419248Y782848D01*
X1419081Y783014D01*
X1418992Y783092D01*
X1418904Y783159D01*
X1418893Y783170D01*
X1418870Y783181D01*
X1418826Y783203D01*
X1418759Y783236D01*
X1418693Y783270D01*
X1418615Y783303D01*
X1418438Y783358D01*
X1418426D01*
X1418404Y783370D01*
X1418360D01*
X1418304Y783381D01*
X1418227Y783392D01*
X1418138D01*
X1418016Y783403D01*
X1416706D01*
Y779995D01*
X1415685D01*
Y787676D01*
X1419248D01*
X1419337Y787665D01*
D02*
G37*
G36*
X1413875Y779995D02*
X1412854D01*
Y787676D01*
X1413875D01*
Y779995D01*
D02*
G37*
G36*
X1336976D02*
X1335955D01*
Y783614D01*
X1331981D01*
Y779995D01*
X1330960D01*
Y787676D01*
X1331981D01*
Y784524D01*
X1335955D01*
Y787676D01*
X1336976D01*
Y779995D01*
D02*
G37*
G36*
X1427240Y799080D02*
X1427384Y799058D01*
X1427551Y799025D01*
X1427728Y798980D01*
X1427917Y798925D01*
X1428094Y798836D01*
X1428105D01*
X1428116Y798825D01*
X1428172Y798792D01*
X1428261Y798736D01*
X1428372Y798658D01*
X1428494Y798547D01*
X1428627Y798425D01*
X1428749Y798281D01*
X1428871Y798114D01*
X1428882Y798092D01*
X1428927Y798037D01*
X1428971Y797937D01*
X1429049Y797793D01*
X1429115Y797626D01*
X1429204Y797437D01*
X1429282Y797215D01*
X1429349Y796971D01*
Y796960D01*
X1429360Y796938D01*
X1429371Y796905D01*
X1429382Y796849D01*
X1429393Y796783D01*
X1429404Y796705D01*
X1429426Y796605D01*
X1429437Y796494D01*
X1429460Y796372D01*
X1429471Y796239D01*
X1429482Y796083D01*
X1429504Y795928D01*
X1429515Y795750D01*
Y795573D01*
X1429526Y795373D01*
Y795162D01*
Y795151D01*
Y795106D01*
Y795029D01*
Y794940D01*
X1429515Y794818D01*
Y794685D01*
X1429504Y794540D01*
X1429493Y794385D01*
X1429460Y794030D01*
X1429404Y793663D01*
X1429337Y793308D01*
X1429293Y793142D01*
X1429238Y792975D01*
Y792964D01*
X1429227Y792942D01*
X1429204Y792897D01*
X1429182Y792842D01*
X1429160Y792764D01*
X1429115Y792687D01*
X1429027Y792498D01*
X1428916Y792298D01*
X1428771Y792076D01*
X1428605Y791876D01*
X1428405Y791688D01*
X1428394D01*
X1428383Y791665D01*
X1428350Y791643D01*
X1428305Y791621D01*
X1428250Y791588D01*
X1428194Y791543D01*
X1428028Y791466D01*
X1427828Y791388D01*
X1427595Y791310D01*
X1427317Y791266D01*
X1427018Y791244D01*
X1426907D01*
X1426829Y791255D01*
X1426740Y791266D01*
X1426629Y791288D01*
X1426507Y791310D01*
X1426374Y791344D01*
X1426241Y791388D01*
X1426096Y791432D01*
X1425952Y791499D01*
X1425808Y791577D01*
X1425663Y791665D01*
X1425519Y791776D01*
X1425386Y791898D01*
X1425264Y792032D01*
X1425253Y792043D01*
X1425231Y792076D01*
X1425197Y792132D01*
X1425142Y792220D01*
X1425086Y792320D01*
X1425031Y792454D01*
X1424953Y792609D01*
X1424886Y792786D01*
X1424820Y792986D01*
X1424753Y793219D01*
X1424687Y793475D01*
X1424631Y793763D01*
X1424576Y794074D01*
X1424542Y794407D01*
X1424520Y794773D01*
X1424509Y795162D01*
Y795173D01*
Y795217D01*
Y795295D01*
Y795384D01*
X1424520Y795506D01*
Y795639D01*
X1424531Y795783D01*
X1424542Y795950D01*
X1424576Y796294D01*
X1424631Y796660D01*
X1424698Y797027D01*
X1424742Y797193D01*
X1424787Y797360D01*
Y797371D01*
X1424798Y797393D01*
X1424820Y797437D01*
X1424842Y797493D01*
X1424864Y797570D01*
X1424909Y797648D01*
X1424998Y797837D01*
X1425108Y798037D01*
X1425253Y798248D01*
X1425419Y798458D01*
X1425619Y798636D01*
X1425630D01*
X1425641Y798658D01*
X1425675Y798680D01*
X1425719Y798703D01*
X1425775Y798747D01*
X1425841Y798780D01*
X1426008Y798869D01*
X1426207Y798947D01*
X1426440Y799025D01*
X1426718Y799069D01*
X1427018Y799091D01*
X1427118D01*
X1427240Y799080D01*
D02*
G37*
G36*
X1436120Y789246D02*
X1429870D01*
Y789923D01*
X1436120D01*
Y789246D01*
D02*
G37*
G36*
X1359120D02*
X1352871D01*
Y789923D01*
X1359120D01*
Y789246D01*
D02*
G37*
G36*
X1425763Y787698D02*
X1425908Y787676D01*
X1426074Y787643D01*
X1426252Y787598D01*
X1426440Y787543D01*
X1426618Y787454D01*
X1426629D01*
X1426640Y787443D01*
X1426696Y787410D01*
X1426785Y787354D01*
X1426896Y787277D01*
X1427018Y787166D01*
X1427151Y787044D01*
X1427273Y786899D01*
X1427395Y786733D01*
X1427406Y786711D01*
X1427451Y786655D01*
X1427495Y786555D01*
X1427573Y786411D01*
X1427639Y786244D01*
X1427728Y786056D01*
X1427806Y785834D01*
X1427872Y785589D01*
Y785578D01*
X1427883Y785556D01*
X1427895Y785523D01*
X1427906Y785467D01*
X1427917Y785401D01*
X1427928Y785323D01*
X1427950Y785223D01*
X1427961Y785112D01*
X1427983Y784990D01*
X1427995Y784857D01*
X1428006Y784701D01*
X1428028Y784546D01*
X1428039Y784368D01*
Y784191D01*
X1428050Y783991D01*
Y783780D01*
Y783769D01*
Y783725D01*
Y783647D01*
Y783558D01*
X1428039Y783436D01*
Y783303D01*
X1428028Y783159D01*
X1428017Y783003D01*
X1427983Y782648D01*
X1427928Y782282D01*
X1427861Y781926D01*
X1427817Y781760D01*
X1427761Y781593D01*
Y781582D01*
X1427750Y781560D01*
X1427728Y781516D01*
X1427706Y781460D01*
X1427684Y781383D01*
X1427639Y781305D01*
X1427551Y781116D01*
X1427440Y780916D01*
X1427295Y780694D01*
X1427129Y780495D01*
X1426929Y780306D01*
X1426918D01*
X1426907Y780284D01*
X1426873Y780262D01*
X1426829Y780239D01*
X1426774Y780206D01*
X1426718Y780162D01*
X1426552Y780084D01*
X1426352Y780006D01*
X1426119Y779929D01*
X1425841Y779884D01*
X1425541Y779862D01*
X1425430D01*
X1425353Y779873D01*
X1425264Y779884D01*
X1425153Y779906D01*
X1425031Y779929D01*
X1424898Y779962D01*
X1424764Y780006D01*
X1424620Y780051D01*
X1424476Y780117D01*
X1424332Y780195D01*
X1424187Y780284D01*
X1424043Y780395D01*
X1423910Y780517D01*
X1423788Y780650D01*
X1423777Y780661D01*
X1423754Y780694D01*
X1423721Y780750D01*
X1423665Y780839D01*
X1423610Y780939D01*
X1423555Y781072D01*
X1423477Y781227D01*
X1423410Y781405D01*
X1423344Y781605D01*
X1423277Y781838D01*
X1423210Y782093D01*
X1423155Y782382D01*
X1423099Y782692D01*
X1423066Y783025D01*
X1423044Y783392D01*
X1423033Y783780D01*
Y783791D01*
Y783836D01*
Y783913D01*
Y784002D01*
X1423044Y784124D01*
Y784257D01*
X1423055Y784402D01*
X1423066Y784568D01*
X1423099Y784912D01*
X1423155Y785279D01*
X1423221Y785645D01*
X1423266Y785811D01*
X1423310Y785978D01*
Y785989D01*
X1423321Y786011D01*
X1423344Y786056D01*
X1423366Y786111D01*
X1423388Y786189D01*
X1423432Y786266D01*
X1423521Y786455D01*
X1423632Y786655D01*
X1423777Y786866D01*
X1423943Y787077D01*
X1424143Y787254D01*
X1424154D01*
X1424165Y787277D01*
X1424198Y787299D01*
X1424243Y787321D01*
X1424298Y787365D01*
X1424365Y787399D01*
X1424531Y787487D01*
X1424731Y787565D01*
X1424964Y787643D01*
X1425242Y787687D01*
X1425541Y787710D01*
X1425641D01*
X1425763Y787698D01*
D02*
G37*
G36*
X1434643Y777864D02*
X1428394D01*
Y778541D01*
X1434643D01*
Y777864D01*
D02*
G37*
G36*
X1403375Y776317D02*
X1403464D01*
X1403675Y776294D01*
X1403908Y776261D01*
X1404152Y776206D01*
X1404418Y776139D01*
X1404674Y776050D01*
X1404685D01*
X1404707Y776039D01*
X1404740Y776028D01*
X1404785Y776006D01*
X1404907Y775939D01*
X1405062Y775862D01*
X1405229Y775751D01*
X1405406Y775617D01*
X1405573Y775473D01*
X1405728Y775295D01*
X1405750Y775273D01*
X1405795Y775207D01*
X1405862Y775107D01*
X1405950Y774962D01*
X1406039Y774785D01*
X1406139Y774563D01*
X1406239Y774319D01*
X1406317Y774041D01*
X1405395Y773797D01*
Y773808D01*
X1405384Y773819D01*
X1405373Y773852D01*
X1405362Y773897D01*
X1405329Y773997D01*
X1405284Y774130D01*
X1405218Y774285D01*
X1405140Y774430D01*
X1405062Y774585D01*
X1404962Y774718D01*
X1404951Y774729D01*
X1404918Y774774D01*
X1404851Y774829D01*
X1404774Y774907D01*
X1404674Y774996D01*
X1404541Y775085D01*
X1404396Y775173D01*
X1404230Y775251D01*
X1404208Y775262D01*
X1404152Y775284D01*
X1404052Y775318D01*
X1403919Y775362D01*
X1403764Y775395D01*
X1403586Y775429D01*
X1403386Y775451D01*
X1403175Y775462D01*
X1403053D01*
X1402998Y775451D01*
X1402931D01*
X1402765Y775440D01*
X1402576Y775406D01*
X1402365Y775373D01*
X1402165Y775318D01*
X1401965Y775240D01*
X1401943Y775229D01*
X1401877Y775207D01*
X1401788Y775151D01*
X1401677Y775096D01*
X1401544Y775007D01*
X1401399Y774918D01*
X1401266Y774807D01*
X1401144Y774685D01*
X1401133Y774674D01*
X1401089Y774630D01*
X1401033Y774552D01*
X1400966Y774463D01*
X1400889Y774352D01*
X1400811Y774219D01*
X1400733Y774074D01*
X1400656Y773919D01*
Y773908D01*
X1400645Y773886D01*
X1400633Y773852D01*
X1400611Y773797D01*
X1400589Y773730D01*
X1400567Y773653D01*
X1400533Y773564D01*
X1400511Y773464D01*
X1400456Y773231D01*
X1400411Y772964D01*
X1400378Y772687D01*
X1400367Y772376D01*
Y772365D01*
Y772332D01*
Y772276D01*
X1400378Y772210D01*
Y772121D01*
X1400389Y772010D01*
X1400400Y771899D01*
X1400411Y771777D01*
X1400456Y771499D01*
X1400511Y771211D01*
X1400600Y770922D01*
X1400711Y770645D01*
Y770633D01*
X1400733Y770611D01*
X1400744Y770578D01*
X1400778Y770534D01*
X1400855Y770412D01*
X1400977Y770256D01*
X1401122Y770090D01*
X1401299Y769923D01*
X1401510Y769768D01*
X1401743Y769623D01*
X1401754D01*
X1401777Y769612D01*
X1401810Y769590D01*
X1401866Y769568D01*
X1401921Y769546D01*
X1401999Y769524D01*
X1402176Y769457D01*
X1402398Y769401D01*
X1402643Y769346D01*
X1402909Y769302D01*
X1403186Y769290D01*
X1403297D01*
X1403364Y769302D01*
X1403431D01*
X1403597Y769324D01*
X1403797Y769346D01*
X1404008Y769390D01*
X1404241Y769457D01*
X1404474Y769535D01*
X1404485D01*
X1404507Y769546D01*
X1404530Y769557D01*
X1404574Y769579D01*
X1404696Y769635D01*
X1404829Y769701D01*
X1404985Y769779D01*
X1405151Y769868D01*
X1405307Y769967D01*
X1405440Y770079D01*
Y771522D01*
X1403175D01*
Y772432D01*
X1406439D01*
Y769579D01*
X1406427Y769568D01*
X1406405Y769557D01*
X1406361Y769524D01*
X1406305Y769479D01*
X1406239Y769435D01*
X1406161Y769379D01*
X1406061Y769313D01*
X1405961Y769246D01*
X1405728Y769102D01*
X1405462Y768946D01*
X1405184Y768802D01*
X1404885Y768680D01*
X1404874D01*
X1404851Y768669D01*
X1404807Y768658D01*
X1404751Y768636D01*
X1404674Y768613D01*
X1404585Y768580D01*
X1404485Y768558D01*
X1404385Y768536D01*
X1404141Y768480D01*
X1403864Y768425D01*
X1403564Y768391D01*
X1403253Y768380D01*
X1403142D01*
X1403064Y768391D01*
X1402964D01*
X1402842Y768402D01*
X1402709Y768425D01*
X1402565Y768436D01*
X1402243Y768502D01*
X1401899Y768580D01*
X1401544Y768702D01*
X1401366Y768769D01*
X1401188Y768858D01*
X1401177Y768869D01*
X1401144Y768880D01*
X1401100Y768913D01*
X1401033Y768946D01*
X1400955Y769002D01*
X1400878Y769057D01*
X1400667Y769213D01*
X1400445Y769413D01*
X1400212Y769657D01*
X1399990Y769934D01*
X1399790Y770256D01*
Y770267D01*
X1399768Y770301D01*
X1399745Y770345D01*
X1399712Y770423D01*
X1399679Y770500D01*
X1399646Y770611D01*
X1399601Y770722D01*
X1399557Y770855D01*
X1399512Y771000D01*
X1399468Y771166D01*
X1399435Y771333D01*
X1399401Y771510D01*
X1399346Y771899D01*
X1399324Y772310D01*
Y772321D01*
Y772365D01*
Y772421D01*
X1399335Y772498D01*
Y772598D01*
X1399346Y772720D01*
X1399368Y772842D01*
X1399379Y772987D01*
X1399413Y773142D01*
X1399435Y773309D01*
X1399523Y773664D01*
X1399635Y774030D01*
X1399790Y774396D01*
X1399801Y774408D01*
X1399812Y774441D01*
X1399834Y774485D01*
X1399879Y774552D01*
X1399923Y774641D01*
X1399979Y774729D01*
X1400134Y774940D01*
X1400323Y775184D01*
X1400556Y775417D01*
X1400822Y775651D01*
X1400977Y775751D01*
X1401133Y775850D01*
X1401144Y775862D01*
X1401177Y775873D01*
X1401222Y775895D01*
X1401288Y775928D01*
X1401377Y775961D01*
X1401477Y776006D01*
X1401588Y776050D01*
X1401721Y776095D01*
X1401866Y776139D01*
X1402021Y776172D01*
X1402187Y776217D01*
X1402365Y776250D01*
X1402753Y776305D01*
X1402953Y776328D01*
X1403309D01*
X1403375Y776317D01*
D02*
G37*
G36*
X1341993Y787665D02*
X1342182Y787654D01*
X1342382Y787643D01*
X1342570Y787621D01*
X1342737Y787598D01*
X1342759D01*
X1342837Y787576D01*
X1342937Y787554D01*
X1343070Y787521D01*
X1343214Y787465D01*
X1343370Y787399D01*
X1343536Y787321D01*
X1343680Y787232D01*
X1343703Y787221D01*
X1343747Y787188D01*
X1343814Y787121D01*
X1343902Y787044D01*
X1344002Y786944D01*
X1344102Y786810D01*
X1344213Y786666D01*
X1344302Y786500D01*
X1344313Y786477D01*
X1344335Y786422D01*
X1344380Y786322D01*
X1344424Y786189D01*
X1344457Y786033D01*
X1344502Y785856D01*
X1344524Y785656D01*
X1344535Y785445D01*
Y785434D01*
Y785401D01*
Y785356D01*
X1344524Y785279D01*
X1344513Y785201D01*
X1344502Y785101D01*
X1344480Y784990D01*
X1344457Y784868D01*
X1344380Y784613D01*
X1344335Y784479D01*
X1344269Y784335D01*
X1344191Y784191D01*
X1344113Y784058D01*
X1344013Y783924D01*
X1343902Y783791D01*
X1343891Y783780D01*
X1343869Y783758D01*
X1343836Y783725D01*
X1343780Y783691D01*
X1343714Y783636D01*
X1343625Y783580D01*
X1343514Y783514D01*
X1343392Y783458D01*
X1343248Y783392D01*
X1343081Y783325D01*
X1342903Y783270D01*
X1342693Y783225D01*
X1342471Y783181D01*
X1342226Y783148D01*
X1341949Y783125D01*
X1341660Y783114D01*
X1339695D01*
Y779995D01*
X1338674D01*
Y787676D01*
X1341827D01*
X1341993Y787665D01*
D02*
G37*
G36*
X1411866Y779995D02*
X1410712D01*
X1409813Y782326D01*
X1406594D01*
X1405762Y779995D01*
X1404685D01*
X1407615Y787676D01*
X1408725D01*
X1411866Y779995D01*
D02*
G37*
G36*
X1401688Y787665D02*
X1401877Y787654D01*
X1402076Y787643D01*
X1402265Y787621D01*
X1402432Y787598D01*
X1402454D01*
X1402531Y787576D01*
X1402631Y787554D01*
X1402765Y787521D01*
X1402909Y787465D01*
X1403064Y787399D01*
X1403231Y787321D01*
X1403375Y787232D01*
X1403397Y787221D01*
X1403442Y787188D01*
X1403508Y787121D01*
X1403597Y787044D01*
X1403697Y786944D01*
X1403797Y786810D01*
X1403908Y786666D01*
X1403997Y786500D01*
X1404008Y786477D01*
X1404030Y786422D01*
X1404074Y786322D01*
X1404119Y786189D01*
X1404152Y786033D01*
X1404196Y785856D01*
X1404219Y785656D01*
X1404230Y785445D01*
Y785434D01*
Y785401D01*
Y785356D01*
X1404219Y785279D01*
X1404208Y785201D01*
X1404196Y785101D01*
X1404174Y784990D01*
X1404152Y784868D01*
X1404074Y784613D01*
X1404030Y784479D01*
X1403963Y784335D01*
X1403886Y784191D01*
X1403808Y784058D01*
X1403708Y783924D01*
X1403597Y783791D01*
X1403586Y783780D01*
X1403564Y783758D01*
X1403530Y783725D01*
X1403475Y783691D01*
X1403408Y783636D01*
X1403320Y783580D01*
X1403209Y783514D01*
X1403087Y783458D01*
X1402942Y783392D01*
X1402776Y783325D01*
X1402598Y783270D01*
X1402387Y783225D01*
X1402165Y783181D01*
X1401921Y783148D01*
X1401644Y783125D01*
X1401355Y783114D01*
X1399390D01*
Y779995D01*
X1398369D01*
Y787676D01*
X1401521D01*
X1401688Y787665D01*
D02*
G37*
G36*
X1348986D02*
X1349208Y787654D01*
X1349430Y787632D01*
X1349652Y787598D01*
X1349841Y787565D01*
X1349852D01*
X1349874Y787554D01*
X1349907D01*
X1349952Y787532D01*
X1350074Y787499D01*
X1350229Y787443D01*
X1350407Y787365D01*
X1350596Y787265D01*
X1350784Y787154D01*
X1350962Y787010D01*
X1350973Y786999D01*
X1350984Y786988D01*
X1351017Y786955D01*
X1351062Y786921D01*
X1351173Y786810D01*
X1351306Y786655D01*
X1351450Y786466D01*
X1351606Y786244D01*
X1351750Y785989D01*
X1351872Y785700D01*
Y785689D01*
X1351883Y785667D01*
X1351905Y785623D01*
X1351916Y785556D01*
X1351950Y785478D01*
X1351972Y785390D01*
X1351994Y785290D01*
X1352027Y785168D01*
X1352061Y785045D01*
X1352083Y784901D01*
X1352138Y784590D01*
X1352172Y784246D01*
X1352183Y783869D01*
Y783858D01*
Y783836D01*
Y783780D01*
Y783725D01*
X1352172Y783647D01*
Y783558D01*
X1352161Y783347D01*
X1352127Y783103D01*
X1352094Y782848D01*
X1352039Y782581D01*
X1351972Y782315D01*
Y782304D01*
X1351961Y782282D01*
X1351950Y782248D01*
X1351939Y782204D01*
X1351894Y782082D01*
X1351828Y781926D01*
X1351761Y781749D01*
X1351672Y781571D01*
X1351561Y781383D01*
X1351450Y781205D01*
X1351439Y781183D01*
X1351395Y781127D01*
X1351328Y781050D01*
X1351239Y780950D01*
X1351139Y780839D01*
X1351017Y780728D01*
X1350895Y780606D01*
X1350751Y780506D01*
X1350729Y780495D01*
X1350684Y780461D01*
X1350607Y780417D01*
X1350496Y780361D01*
X1350363Y780295D01*
X1350207Y780239D01*
X1350029Y780173D01*
X1349830Y780117D01*
X1349807D01*
X1349774Y780106D01*
X1349741Y780095D01*
X1349630Y780084D01*
X1349474Y780062D01*
X1349297Y780040D01*
X1349086Y780017D01*
X1348853Y780006D01*
X1348598Y779995D01*
X1345834D01*
Y787676D01*
X1348786D01*
X1348986Y787665D01*
D02*
G37*
G36*
X1359120Y800627D02*
X1352871D01*
Y801304D01*
X1359120D01*
Y800627D01*
D02*
G37*
G36*
X1350085Y795406D02*
X1352960Y791377D01*
X1351705D01*
X1349763Y794107D01*
X1349752Y794118D01*
X1349730Y794152D01*
X1349708Y794196D01*
X1349663Y794252D01*
X1349563Y794407D01*
X1349452Y794574D01*
X1349441Y794563D01*
X1349408Y794518D01*
X1349364Y794452D01*
X1349308Y794363D01*
X1349186Y794185D01*
X1349130Y794107D01*
X1349086Y794041D01*
X1347144Y791377D01*
X1345923D01*
X1348886Y795351D01*
X1346267Y799058D01*
X1347477D01*
X1348875Y797082D01*
Y797071D01*
X1348897Y797060D01*
X1348920Y797027D01*
X1348953Y796982D01*
X1349019Y796871D01*
X1349119Y796738D01*
X1349219Y796583D01*
X1349319Y796427D01*
X1349408Y796283D01*
X1349486Y796150D01*
X1349497Y796172D01*
X1349530Y796216D01*
X1349586Y796305D01*
X1349663Y796416D01*
X1349752Y796538D01*
X1349863Y796694D01*
X1349974Y796849D01*
X1350107Y797016D01*
X1351639Y799058D01*
X1352749D01*
X1350085Y795406D01*
D02*
G37*
G36*
X1442879Y791377D02*
X1441825D01*
X1437807Y797404D01*
Y791377D01*
X1436830D01*
Y799058D01*
X1437873D01*
X1441902Y793020D01*
Y799058D01*
X1442879D01*
Y791377D01*
D02*
G37*
G36*
X1433722Y800627D02*
X1427473D01*
Y801304D01*
X1433722D01*
Y800627D01*
D02*
G37*
G36*
X1410945Y802759D02*
X1409791D01*
X1408892Y805090D01*
X1405673D01*
X1404840Y802759D01*
X1403764D01*
X1406694Y810440D01*
X1407804D01*
X1410945Y802759D01*
D02*
G37*
G36*
X1400767Y810429D02*
X1400955Y810417D01*
X1401155Y810406D01*
X1401344Y810384D01*
X1401510Y810362D01*
X1401532D01*
X1401610Y810340D01*
X1401710Y810318D01*
X1401843Y810284D01*
X1401988Y810229D01*
X1402143Y810162D01*
X1402310Y810085D01*
X1402454Y809996D01*
X1402476Y809985D01*
X1402520Y809951D01*
X1402587Y809885D01*
X1402676Y809807D01*
X1402776Y809707D01*
X1402876Y809574D01*
X1402987Y809430D01*
X1403075Y809263D01*
X1403087Y809241D01*
X1403109Y809185D01*
X1403153Y809085D01*
X1403197Y808952D01*
X1403231Y808797D01*
X1403275Y808619D01*
X1403297Y808419D01*
X1403309Y808209D01*
Y808197D01*
Y808164D01*
Y808120D01*
X1403297Y808042D01*
X1403286Y807964D01*
X1403275Y807865D01*
X1403253Y807754D01*
X1403231Y807631D01*
X1403153Y807376D01*
X1403109Y807243D01*
X1403042Y807099D01*
X1402964Y806954D01*
X1402887Y806821D01*
X1402787Y806688D01*
X1402676Y806555D01*
X1402665Y806544D01*
X1402643Y806521D01*
X1402609Y806488D01*
X1402554Y806455D01*
X1402487Y806399D01*
X1402398Y806344D01*
X1402287Y806277D01*
X1402165Y806222D01*
X1402021Y806155D01*
X1401854Y806088D01*
X1401677Y806033D01*
X1401466Y805989D01*
X1401244Y805944D01*
X1401000Y805911D01*
X1400722Y805889D01*
X1400434Y805878D01*
X1398469D01*
Y802759D01*
X1397448D01*
Y810440D01*
X1400600D01*
X1400767Y810429D01*
D02*
G37*
G36*
X1338142Y802759D02*
X1336987D01*
X1336088Y805090D01*
X1332869D01*
X1332037Y802759D01*
X1330960D01*
X1333890Y810440D01*
X1335000D01*
X1338142Y802759D01*
D02*
G37*
G36*
X1403164Y799047D02*
X1403353Y799036D01*
X1403553Y799025D01*
X1403741Y799002D01*
X1403908Y798980D01*
X1403930D01*
X1404008Y798958D01*
X1404108Y798936D01*
X1404241Y798903D01*
X1404385Y798847D01*
X1404541Y798780D01*
X1404707Y798703D01*
X1404851Y798614D01*
X1404874Y798603D01*
X1404918Y798569D01*
X1404985Y798503D01*
X1405073Y798425D01*
X1405173Y798325D01*
X1405273Y798192D01*
X1405384Y798048D01*
X1405473Y797881D01*
X1405484Y797859D01*
X1405506Y797804D01*
X1405551Y797704D01*
X1405595Y797570D01*
X1405628Y797415D01*
X1405673Y797237D01*
X1405695Y797038D01*
X1405706Y796827D01*
Y796816D01*
Y796783D01*
Y796738D01*
X1405695Y796660D01*
X1405684Y796583D01*
X1405673Y796483D01*
X1405651Y796372D01*
X1405628Y796250D01*
X1405551Y795994D01*
X1405506Y795861D01*
X1405440Y795717D01*
X1405362Y795573D01*
X1405284Y795439D01*
X1405184Y795306D01*
X1405073Y795173D01*
X1405062Y795162D01*
X1405040Y795140D01*
X1405007Y795106D01*
X1404951Y795073D01*
X1404885Y795018D01*
X1404796Y794962D01*
X1404685Y794895D01*
X1404563Y794840D01*
X1404418Y794773D01*
X1404252Y794707D01*
X1404074Y794651D01*
X1403864Y794607D01*
X1403642Y794563D01*
X1403397Y794529D01*
X1403120Y794507D01*
X1402831Y794496D01*
X1400867D01*
Y791377D01*
X1399845D01*
Y799058D01*
X1402998D01*
X1403164Y799047D01*
D02*
G37*
G36*
X1363161D02*
X1363349Y799036D01*
X1363549Y799025D01*
X1363738Y799002D01*
X1363904Y798980D01*
X1363926D01*
X1364004Y798958D01*
X1364104Y798936D01*
X1364237Y798903D01*
X1364382Y798847D01*
X1364537Y798780D01*
X1364703Y798703D01*
X1364848Y798614D01*
X1364870Y798603D01*
X1364914Y798569D01*
X1364981Y798503D01*
X1365070Y798425D01*
X1365170Y798325D01*
X1365269Y798192D01*
X1365381Y798048D01*
X1365469Y797881D01*
X1365480Y797859D01*
X1365503Y797804D01*
X1365547Y797704D01*
X1365591Y797570D01*
X1365625Y797415D01*
X1365669Y797237D01*
X1365691Y797038D01*
X1365702Y796827D01*
Y796816D01*
Y796783D01*
Y796738D01*
X1365691Y796660D01*
X1365680Y796583D01*
X1365669Y796483D01*
X1365647Y796372D01*
X1365625Y796250D01*
X1365547Y795994D01*
X1365503Y795861D01*
X1365436Y795717D01*
X1365358Y795573D01*
X1365281Y795439D01*
X1365181Y795306D01*
X1365070Y795173D01*
X1365059Y795162D01*
X1365036Y795140D01*
X1365003Y795106D01*
X1364948Y795073D01*
X1364881Y795018D01*
X1364792Y794962D01*
X1364681Y794895D01*
X1364559Y794840D01*
X1364415Y794773D01*
X1364248Y794707D01*
X1364071Y794651D01*
X1363860Y794607D01*
X1363638Y794563D01*
X1363394Y794529D01*
X1363116Y794507D01*
X1362827Y794496D01*
X1360863D01*
Y791377D01*
X1359842D01*
Y799058D01*
X1362994D01*
X1363161Y799047D01*
D02*
G37*
G36*
X1338142Y791377D02*
X1336987D01*
X1336088Y793708D01*
X1332869D01*
X1332037Y791377D01*
X1330960D01*
X1333890Y799058D01*
X1335000D01*
X1338142Y791377D01*
D02*
G37*
G36*
X1413343D02*
X1412188D01*
X1411289Y793708D01*
X1408070D01*
X1407238Y791377D01*
X1406161D01*
X1409091Y799058D01*
X1410202D01*
X1413343Y791377D01*
D02*
G37*
G36*
X1345012Y794618D02*
Y794607D01*
Y794563D01*
Y794507D01*
Y794429D01*
X1345001Y794329D01*
Y794218D01*
X1344990Y794085D01*
X1344979Y793952D01*
X1344946Y793652D01*
X1344901Y793342D01*
X1344835Y793042D01*
X1344790Y792897D01*
X1344746Y792764D01*
Y792753D01*
X1344735Y792731D01*
X1344713Y792698D01*
X1344691Y792653D01*
X1344624Y792531D01*
X1344524Y792376D01*
X1344391Y792198D01*
X1344235Y792021D01*
X1344036Y791832D01*
X1343791Y791665D01*
X1343780D01*
X1343758Y791643D01*
X1343725Y791632D01*
X1343669Y791599D01*
X1343603Y791565D01*
X1343514Y791532D01*
X1343425Y791499D01*
X1343314Y791455D01*
X1343192Y791410D01*
X1343059Y791377D01*
X1342914Y791344D01*
X1342748Y791310D01*
X1342581Y791288D01*
X1342404Y791266D01*
X1342004Y791244D01*
X1341904D01*
X1341827Y791255D01*
X1341738D01*
X1341627Y791266D01*
X1341505Y791277D01*
X1341383Y791288D01*
X1341105Y791332D01*
X1340806Y791399D01*
X1340517Y791488D01*
X1340239Y791610D01*
X1340228D01*
X1340206Y791632D01*
X1340173Y791654D01*
X1340128Y791676D01*
X1340006Y791765D01*
X1339862Y791887D01*
X1339695Y792043D01*
X1339540Y792220D01*
X1339385Y792442D01*
X1339263Y792687D01*
Y792698D01*
X1339252Y792720D01*
X1339241Y792764D01*
X1339218Y792820D01*
X1339196Y792886D01*
X1339174Y792975D01*
X1339141Y793075D01*
X1339118Y793197D01*
X1339096Y793330D01*
X1339063Y793475D01*
X1339041Y793630D01*
X1339019Y793797D01*
X1338996Y793985D01*
X1338985Y794185D01*
X1338974Y794396D01*
Y794618D01*
Y799058D01*
X1339995D01*
Y794618D01*
Y794607D01*
Y794574D01*
Y794518D01*
Y794452D01*
X1340006Y794374D01*
Y794274D01*
X1340017Y794063D01*
X1340040Y793819D01*
X1340073Y793575D01*
X1340117Y793342D01*
X1340139Y793242D01*
X1340173Y793142D01*
X1340184Y793120D01*
X1340206Y793064D01*
X1340262Y792986D01*
X1340328Y792875D01*
X1340406Y792764D01*
X1340517Y792642D01*
X1340650Y792520D01*
X1340806Y792420D01*
X1340828Y792409D01*
X1340883Y792376D01*
X1340983Y792343D01*
X1341116Y792298D01*
X1341272Y792243D01*
X1341472Y792209D01*
X1341682Y792176D01*
X1341915Y792165D01*
X1342027D01*
X1342093Y792176D01*
X1342193D01*
X1342293Y792187D01*
X1342537Y792232D01*
X1342803Y792287D01*
X1343059Y792376D01*
X1343303Y792498D01*
X1343414Y792576D01*
X1343514Y792664D01*
X1343525Y792675D01*
X1343536Y792687D01*
X1343558Y792720D01*
X1343592Y792764D01*
X1343625Y792831D01*
X1343669Y792897D01*
X1343714Y792997D01*
X1343758Y793097D01*
X1343802Y793219D01*
X1343836Y793364D01*
X1343880Y793530D01*
X1343914Y793708D01*
X1343947Y793908D01*
X1343969Y794118D01*
X1343991Y794363D01*
Y794618D01*
Y799058D01*
X1345012D01*
Y794618D01*
D02*
G37*
G36*
X1420813Y799047D02*
X1420913D01*
X1421146Y799036D01*
X1421390Y799002D01*
X1421656Y798969D01*
X1421901Y798914D01*
X1422023Y798880D01*
X1422123Y798847D01*
X1422134D01*
X1422145Y798836D01*
X1422211Y798803D01*
X1422311Y798758D01*
X1422433Y798680D01*
X1422567Y798581D01*
X1422711Y798447D01*
X1422844Y798292D01*
X1422977Y798114D01*
Y798103D01*
X1422988Y798092D01*
X1423033Y798026D01*
X1423077Y797915D01*
X1423144Y797770D01*
X1423199Y797604D01*
X1423255Y797404D01*
X1423288Y797193D01*
X1423299Y796960D01*
Y796949D01*
Y796927D01*
Y796882D01*
X1423288Y796827D01*
Y796749D01*
X1423277Y796672D01*
X1423233Y796483D01*
X1423166Y796261D01*
X1423077Y796028D01*
X1422944Y795795D01*
X1422855Y795684D01*
X1422766Y795573D01*
X1422755Y795562D01*
X1422744Y795550D01*
X1422711Y795517D01*
X1422666Y795484D01*
X1422611Y795439D01*
X1422544Y795395D01*
X1422456Y795340D01*
X1422367Y795273D01*
X1422256Y795217D01*
X1422134Y795162D01*
X1422001Y795095D01*
X1421856Y795040D01*
X1421690Y794995D01*
X1421523Y794940D01*
X1421335Y794907D01*
X1421135Y794873D01*
X1421157Y794862D01*
X1421201Y794840D01*
X1421268Y794796D01*
X1421357Y794751D01*
X1421557Y794629D01*
X1421656Y794551D01*
X1421745Y794485D01*
X1421767Y794463D01*
X1421823Y794407D01*
X1421912Y794318D01*
X1422023Y794207D01*
X1422145Y794052D01*
X1422289Y793885D01*
X1422433Y793686D01*
X1422589Y793464D01*
X1423910Y791377D01*
X1422644D01*
X1421634Y792975D01*
Y792986D01*
X1421612Y793008D01*
X1421590Y793042D01*
X1421557Y793086D01*
X1421479Y793208D01*
X1421379Y793364D01*
X1421257Y793530D01*
X1421135Y793708D01*
X1421013Y793874D01*
X1420902Y794030D01*
X1420891Y794041D01*
X1420857Y794085D01*
X1420802Y794152D01*
X1420724Y794230D01*
X1420558Y794396D01*
X1420469Y794474D01*
X1420380Y794540D01*
X1420369Y794551D01*
X1420347Y794563D01*
X1420302Y794585D01*
X1420236Y794618D01*
X1420169Y794651D01*
X1420091Y794685D01*
X1419914Y794740D01*
X1419903D01*
X1419881Y794751D01*
X1419836D01*
X1419781Y794762D01*
X1419703Y794773D01*
X1419614D01*
X1419492Y794784D01*
X1418182D01*
Y791377D01*
X1417161D01*
Y799058D01*
X1420724D01*
X1420813Y799047D01*
D02*
G37*
G36*
X1415352Y791377D02*
X1414331D01*
Y799058D01*
X1415352D01*
Y791377D01*
D02*
G37*
G36*
X1358266Y776217D02*
X1358410Y776195D01*
X1358587Y776161D01*
X1358787Y776106D01*
X1358987Y776039D01*
X1359187Y775950D01*
X1359198D01*
X1359209Y775939D01*
X1359276Y775906D01*
X1359375Y775839D01*
X1359487Y775762D01*
X1359620Y775651D01*
X1359753Y775528D01*
X1359886Y775384D01*
X1359997Y775218D01*
X1360008Y775196D01*
X1360042Y775140D01*
X1360086Y775040D01*
X1360141Y774918D01*
X1360197Y774774D01*
X1360241Y774607D01*
X1360275Y774419D01*
X1360286Y774230D01*
Y774208D01*
Y774141D01*
X1360275Y774052D01*
X1360252Y773930D01*
X1360219Y773786D01*
X1360164Y773631D01*
X1360097Y773475D01*
X1360008Y773320D01*
X1359997Y773298D01*
X1359964Y773253D01*
X1359897Y773175D01*
X1359808Y773087D01*
X1359697Y772987D01*
X1359564Y772876D01*
X1359409Y772776D01*
X1359220Y772676D01*
X1359231D01*
X1359253Y772665D01*
X1359287Y772654D01*
X1359331Y772643D01*
X1359453Y772598D01*
X1359609Y772532D01*
X1359786Y772443D01*
X1359964Y772332D01*
X1360130Y772188D01*
X1360286Y772021D01*
X1360297Y771999D01*
X1360341Y771932D01*
X1360408Y771821D01*
X1360474Y771677D01*
X1360541Y771499D01*
X1360608Y771288D01*
X1360652Y771044D01*
X1360663Y770778D01*
Y770767D01*
Y770733D01*
Y770678D01*
X1360652Y770611D01*
X1360641Y770523D01*
X1360619Y770423D01*
X1360596Y770312D01*
X1360574Y770190D01*
X1360486Y769923D01*
X1360419Y769779D01*
X1360352Y769646D01*
X1360264Y769501D01*
X1360164Y769357D01*
X1360053Y769213D01*
X1359919Y769080D01*
X1359908Y769069D01*
X1359886Y769046D01*
X1359842Y769013D01*
X1359786Y768969D01*
X1359720Y768913D01*
X1359631Y768858D01*
X1359531Y768791D01*
X1359409Y768736D01*
X1359287Y768669D01*
X1359142Y768602D01*
X1358998Y768547D01*
X1358832Y768491D01*
X1358654Y768447D01*
X1358465Y768414D01*
X1358277Y768391D01*
X1358066Y768380D01*
X1357966D01*
X1357899Y768391D01*
X1357810Y768402D01*
X1357711Y768414D01*
X1357599Y768436D01*
X1357477Y768458D01*
X1357211Y768525D01*
X1356933Y768636D01*
X1356789Y768702D01*
X1356656Y768780D01*
X1356523Y768880D01*
X1356390Y768980D01*
X1356378Y768991D01*
X1356356Y769013D01*
X1356323Y769046D01*
X1356290Y769091D01*
X1356234Y769146D01*
X1356179Y769224D01*
X1356112Y769302D01*
X1356046Y769401D01*
X1355979Y769512D01*
X1355912Y769623D01*
X1355790Y769890D01*
X1355690Y770201D01*
X1355657Y770367D01*
X1355635Y770545D01*
X1356578Y770667D01*
Y770656D01*
X1356589Y770633D01*
X1356600Y770589D01*
X1356612Y770534D01*
X1356623Y770467D01*
X1356645Y770389D01*
X1356700Y770223D01*
X1356778Y770023D01*
X1356878Y769834D01*
X1356989Y769657D01*
X1357122Y769501D01*
X1357144Y769490D01*
X1357189Y769446D01*
X1357278Y769390D01*
X1357389Y769335D01*
X1357522Y769268D01*
X1357688Y769213D01*
X1357877Y769168D01*
X1358077Y769157D01*
X1358143D01*
X1358188Y769168D01*
X1358310Y769180D01*
X1358465Y769213D01*
X1358643Y769268D01*
X1358832Y769346D01*
X1359020Y769457D01*
X1359198Y769612D01*
X1359220Y769635D01*
X1359276Y769701D01*
X1359342Y769801D01*
X1359431Y769934D01*
X1359520Y770101D01*
X1359586Y770289D01*
X1359642Y770511D01*
X1359664Y770756D01*
Y770767D01*
Y770789D01*
Y770822D01*
X1359653Y770867D01*
X1359642Y770989D01*
X1359609Y771133D01*
X1359564Y771311D01*
X1359487Y771488D01*
X1359375Y771666D01*
X1359231Y771832D01*
X1359209Y771854D01*
X1359153Y771899D01*
X1359065Y771965D01*
X1358943Y772043D01*
X1358787Y772121D01*
X1358598Y772188D01*
X1358388Y772232D01*
X1358154Y772254D01*
X1358055D01*
X1357977Y772243D01*
X1357877Y772232D01*
X1357766Y772210D01*
X1357633Y772188D01*
X1357489Y772154D01*
X1357599Y772987D01*
X1357655D01*
X1357699Y772976D01*
X1357844D01*
X1357966Y772998D01*
X1358110Y773020D01*
X1358277Y773053D01*
X1358465Y773109D01*
X1358643Y773186D01*
X1358832Y773286D01*
X1358843D01*
X1358854Y773298D01*
X1358909Y773342D01*
X1358987Y773420D01*
X1359076Y773520D01*
X1359165Y773664D01*
X1359242Y773830D01*
X1359298Y774019D01*
X1359320Y774130D01*
Y774252D01*
Y774263D01*
Y774274D01*
Y774341D01*
X1359298Y774430D01*
X1359276Y774552D01*
X1359231Y774685D01*
X1359176Y774829D01*
X1359087Y774974D01*
X1358965Y775107D01*
X1358954Y775118D01*
X1358898Y775162D01*
X1358820Y775218D01*
X1358721Y775284D01*
X1358587Y775340D01*
X1358432Y775395D01*
X1358254Y775440D01*
X1358055Y775451D01*
X1357966D01*
X1357866Y775429D01*
X1357733Y775406D01*
X1357588Y775362D01*
X1357444Y775307D01*
X1357289Y775218D01*
X1357144Y775107D01*
X1357133Y775096D01*
X1357089Y775040D01*
X1357022Y774962D01*
X1356945Y774852D01*
X1356867Y774707D01*
X1356789Y774530D01*
X1356723Y774319D01*
X1356678Y774074D01*
X1355735Y774241D01*
Y774252D01*
X1355746Y774285D01*
X1355757Y774330D01*
X1355768Y774396D01*
X1355790Y774474D01*
X1355824Y774563D01*
X1355890Y774774D01*
X1356001Y775018D01*
X1356134Y775262D01*
X1356301Y775495D01*
X1356512Y775706D01*
X1356523Y775717D01*
X1356545Y775728D01*
X1356578Y775751D01*
X1356623Y775784D01*
X1356678Y775828D01*
X1356756Y775873D01*
X1356834Y775917D01*
X1356933Y775973D01*
X1357155Y776061D01*
X1357411Y776150D01*
X1357711Y776206D01*
X1357866Y776228D01*
X1358143D01*
X1358266Y776217D01*
D02*
G37*
G36*
X1408115Y753453D02*
X1408259Y753431D01*
X1408437Y753398D01*
X1408636Y753342D01*
X1408836Y753276D01*
X1409036Y753187D01*
X1409047D01*
X1409058Y753176D01*
X1409125Y753142D01*
X1409225Y753076D01*
X1409336Y752998D01*
X1409469Y752887D01*
X1409602Y752765D01*
X1409735Y752621D01*
X1409846Y752454D01*
X1409857Y752432D01*
X1409891Y752377D01*
X1409935Y752277D01*
X1409991Y752155D01*
X1410046Y752010D01*
X1410090Y751844D01*
X1410124Y751655D01*
X1410135Y751466D01*
Y751444D01*
Y751378D01*
X1410124Y751289D01*
X1410102Y751167D01*
X1410068Y751022D01*
X1410013Y750867D01*
X1409946Y750712D01*
X1409857Y750556D01*
X1409846Y750534D01*
X1409813Y750490D01*
X1409746Y750412D01*
X1409658Y750323D01*
X1409547Y750223D01*
X1409413Y750112D01*
X1409258Y750012D01*
X1409069Y749912D01*
X1409080D01*
X1409103Y749901D01*
X1409136Y749890D01*
X1409180Y749879D01*
X1409302Y749835D01*
X1409458Y749768D01*
X1409635Y749679D01*
X1409813Y749568D01*
X1409980Y749424D01*
X1410135Y749258D01*
X1410146Y749235D01*
X1410190Y749169D01*
X1410257Y749058D01*
X1410324Y748913D01*
X1410390Y748736D01*
X1410457Y748525D01*
X1410501Y748281D01*
X1410512Y748014D01*
Y748003D01*
Y747970D01*
Y747915D01*
X1410501Y747848D01*
X1410490Y747759D01*
X1410468Y747659D01*
X1410446Y747548D01*
X1410423Y747426D01*
X1410335Y747160D01*
X1410268Y747015D01*
X1410202Y746882D01*
X1410113Y746738D01*
X1410013Y746594D01*
X1409902Y746449D01*
X1409769Y746316D01*
X1409758Y746305D01*
X1409735Y746283D01*
X1409691Y746249D01*
X1409635Y746205D01*
X1409569Y746150D01*
X1409480Y746094D01*
X1409380Y746028D01*
X1409258Y745972D01*
X1409136Y745905D01*
X1408992Y745839D01*
X1408847Y745783D01*
X1408681Y745728D01*
X1408503Y745683D01*
X1408315Y745650D01*
X1408126Y745628D01*
X1407915Y745617D01*
X1407815D01*
X1407748Y745628D01*
X1407660Y745639D01*
X1407560Y745650D01*
X1407449Y745672D01*
X1407327Y745695D01*
X1407060Y745761D01*
X1406783Y745872D01*
X1406638Y745939D01*
X1406505Y746016D01*
X1406372Y746116D01*
X1406239Y746216D01*
X1406228Y746227D01*
X1406205Y746249D01*
X1406172Y746283D01*
X1406139Y746327D01*
X1406083Y746383D01*
X1406028Y746460D01*
X1405961Y746538D01*
X1405895Y746638D01*
X1405828Y746749D01*
X1405762Y746860D01*
X1405639Y747126D01*
X1405540Y747437D01*
X1405506Y747604D01*
X1405484Y747781D01*
X1406427Y747903D01*
Y747892D01*
X1406439Y747870D01*
X1406450Y747826D01*
X1406461Y747770D01*
X1406472Y747704D01*
X1406494Y747626D01*
X1406550Y747459D01*
X1406627Y747260D01*
X1406727Y747071D01*
X1406838Y746893D01*
X1406971Y746738D01*
X1406994Y746727D01*
X1407038Y746682D01*
X1407127Y746627D01*
X1407238Y746571D01*
X1407371Y746505D01*
X1407538Y746449D01*
X1407726Y746405D01*
X1407926Y746394D01*
X1407993D01*
X1408037Y746405D01*
X1408159Y746416D01*
X1408315Y746449D01*
X1408492Y746505D01*
X1408681Y746582D01*
X1408869Y746693D01*
X1409047Y746849D01*
X1409069Y746871D01*
X1409125Y746938D01*
X1409191Y747038D01*
X1409280Y747171D01*
X1409369Y747337D01*
X1409436Y747526D01*
X1409491Y747748D01*
X1409513Y747992D01*
Y748003D01*
Y748026D01*
Y748059D01*
X1409502Y748103D01*
X1409491Y748225D01*
X1409458Y748370D01*
X1409413Y748547D01*
X1409336Y748725D01*
X1409225Y748902D01*
X1409080Y749069D01*
X1409058Y749091D01*
X1409003Y749135D01*
X1408914Y749202D01*
X1408792Y749280D01*
X1408636Y749357D01*
X1408448Y749424D01*
X1408237Y749468D01*
X1408004Y749491D01*
X1407904D01*
X1407826Y749480D01*
X1407726Y749468D01*
X1407615Y749446D01*
X1407482Y749424D01*
X1407338Y749391D01*
X1407449Y750223D01*
X1407504D01*
X1407549Y750212D01*
X1407693D01*
X1407815Y750234D01*
X1407959Y750257D01*
X1408126Y750290D01*
X1408315Y750345D01*
X1408492Y750423D01*
X1408681Y750523D01*
X1408692D01*
X1408703Y750534D01*
X1408759Y750578D01*
X1408836Y750656D01*
X1408925Y750756D01*
X1409014Y750900D01*
X1409091Y751067D01*
X1409147Y751255D01*
X1409169Y751367D01*
Y751489D01*
Y751500D01*
Y751511D01*
Y751577D01*
X1409147Y751666D01*
X1409125Y751788D01*
X1409080Y751921D01*
X1409025Y752066D01*
X1408936Y752210D01*
X1408814Y752343D01*
X1408803Y752354D01*
X1408747Y752399D01*
X1408670Y752454D01*
X1408570Y752521D01*
X1408437Y752576D01*
X1408281Y752632D01*
X1408104Y752676D01*
X1407904Y752687D01*
X1407815D01*
X1407715Y752665D01*
X1407582Y752643D01*
X1407438Y752599D01*
X1407293Y752543D01*
X1407138Y752454D01*
X1406994Y752343D01*
X1406983Y752332D01*
X1406938Y752277D01*
X1406871Y752199D01*
X1406794Y752088D01*
X1406716Y751944D01*
X1406638Y751766D01*
X1406572Y751555D01*
X1406527Y751311D01*
X1405584Y751478D01*
Y751489D01*
X1405595Y751522D01*
X1405606Y751566D01*
X1405617Y751633D01*
X1405639Y751711D01*
X1405673Y751799D01*
X1405739Y752010D01*
X1405850Y752254D01*
X1405983Y752499D01*
X1406150Y752732D01*
X1406361Y752943D01*
X1406372Y752954D01*
X1406394Y752965D01*
X1406427Y752987D01*
X1406472Y753020D01*
X1406527Y753065D01*
X1406605Y753109D01*
X1406683Y753154D01*
X1406783Y753209D01*
X1407005Y753298D01*
X1407260Y753387D01*
X1407560Y753442D01*
X1407715Y753464D01*
X1407993D01*
X1408115Y753453D01*
D02*
G37*
G36*
X1373994Y745750D02*
X1372939D01*
X1368921Y751777D01*
Y745750D01*
X1367944D01*
Y753431D01*
X1368988D01*
X1373017Y747393D01*
Y753431D01*
X1373994D01*
Y745750D01*
D02*
G37*
G36*
X1402321Y749979D02*
X1404407D01*
Y749102D01*
X1402321D01*
Y746993D01*
X1401433D01*
Y749102D01*
X1399346D01*
Y749979D01*
X1401433D01*
Y752066D01*
X1402321D01*
Y749979D01*
D02*
G37*
G36*
X1367234Y755001D02*
X1360985D01*
Y755678D01*
X1367234D01*
Y755001D01*
D02*
G37*
G36*
X1346466Y757132D02*
X1345445D01*
Y764813D01*
X1346466D01*
Y757132D01*
D02*
G37*
G36*
X1344457D02*
X1343303D01*
X1342404Y759463D01*
X1339185D01*
X1338353Y757132D01*
X1337276D01*
X1340206Y764813D01*
X1341316D01*
X1344457Y757132D01*
D02*
G37*
G36*
X1334279Y764802D02*
X1334467Y764791D01*
X1334667Y764780D01*
X1334856Y764757D01*
X1335022Y764735D01*
X1335045D01*
X1335122Y764713D01*
X1335222Y764691D01*
X1335356Y764657D01*
X1335500Y764602D01*
X1335655Y764535D01*
X1335822Y764458D01*
X1335966Y764369D01*
X1335988Y764358D01*
X1336033Y764324D01*
X1336099Y764258D01*
X1336188Y764180D01*
X1336288Y764080D01*
X1336388Y763947D01*
X1336499Y763803D01*
X1336588Y763636D01*
X1336599Y763614D01*
X1336621Y763559D01*
X1336665Y763459D01*
X1336710Y763325D01*
X1336743Y763170D01*
X1336787Y762992D01*
X1336810Y762793D01*
X1336821Y762582D01*
Y762571D01*
Y762537D01*
Y762493D01*
X1336810Y762415D01*
X1336799Y762337D01*
X1336787Y762238D01*
X1336765Y762127D01*
X1336743Y762004D01*
X1336665Y761749D01*
X1336621Y761616D01*
X1336554Y761472D01*
X1336477Y761328D01*
X1336399Y761194D01*
X1336299Y761061D01*
X1336188Y760928D01*
X1336177Y760917D01*
X1336155Y760895D01*
X1336121Y760861D01*
X1336066Y760828D01*
X1335999Y760772D01*
X1335910Y760717D01*
X1335800Y760650D01*
X1335677Y760595D01*
X1335533Y760528D01*
X1335367Y760462D01*
X1335189Y760406D01*
X1334978Y760362D01*
X1334756Y760317D01*
X1334512Y760284D01*
X1334234Y760262D01*
X1333946Y760251D01*
X1331981D01*
Y757132D01*
X1330960D01*
Y764813D01*
X1334112D01*
X1334279Y764802D01*
D02*
G37*
G36*
X1344457Y745750D02*
X1343303D01*
X1342404Y748081D01*
X1339185D01*
X1338353Y745750D01*
X1337276D01*
X1340206Y753431D01*
X1341316D01*
X1344457Y745750D01*
D02*
G37*
G36*
X1334279Y753420D02*
X1334467Y753409D01*
X1334667Y753398D01*
X1334856Y753376D01*
X1335022Y753353D01*
X1335045D01*
X1335122Y753331D01*
X1335222Y753309D01*
X1335356Y753276D01*
X1335500Y753220D01*
X1335655Y753154D01*
X1335822Y753076D01*
X1335966Y752987D01*
X1335988Y752976D01*
X1336033Y752943D01*
X1336099Y752876D01*
X1336188Y752798D01*
X1336288Y752699D01*
X1336388Y752565D01*
X1336499Y752421D01*
X1336588Y752254D01*
X1336599Y752232D01*
X1336621Y752177D01*
X1336665Y752077D01*
X1336710Y751944D01*
X1336743Y751788D01*
X1336787Y751611D01*
X1336810Y751411D01*
X1336821Y751200D01*
Y751189D01*
Y751156D01*
Y751111D01*
X1336810Y751033D01*
X1336799Y750956D01*
X1336787Y750856D01*
X1336765Y750745D01*
X1336743Y750623D01*
X1336665Y750368D01*
X1336621Y750234D01*
X1336554Y750090D01*
X1336477Y749946D01*
X1336399Y749812D01*
X1336299Y749679D01*
X1336188Y749546D01*
X1336177Y749535D01*
X1336155Y749513D01*
X1336121Y749480D01*
X1336066Y749446D01*
X1335999Y749391D01*
X1335910Y749335D01*
X1335800Y749269D01*
X1335677Y749213D01*
X1335533Y749146D01*
X1335367Y749080D01*
X1335189Y749024D01*
X1334978Y748980D01*
X1334756Y748936D01*
X1334512Y748902D01*
X1334234Y748880D01*
X1333946Y748869D01*
X1331981D01*
Y745750D01*
X1330960D01*
Y753431D01*
X1334112D01*
X1334279Y753420D01*
D02*
G37*
G36*
X1367234Y743619D02*
X1360985D01*
Y744296D01*
X1367234D01*
Y743619D01*
D02*
G37*
G36*
X1346466Y745750D02*
X1345445D01*
Y753431D01*
X1346466D01*
Y745750D01*
D02*
G37*
G36*
X1415074D02*
X1414009D01*
X1411034Y753431D01*
X1412144D01*
X1414142Y747848D01*
Y747837D01*
X1414153Y747815D01*
X1414164Y747781D01*
X1414186Y747737D01*
X1414197Y747670D01*
X1414220Y747604D01*
X1414275Y747437D01*
X1414342Y747249D01*
X1414408Y747038D01*
X1414541Y746594D01*
Y746605D01*
X1414553Y746627D01*
X1414564Y746660D01*
X1414575Y746705D01*
X1414608Y746827D01*
X1414664Y746993D01*
X1414719Y747182D01*
X1414786Y747393D01*
X1414863Y747615D01*
X1414952Y747848D01*
X1417039Y753431D01*
X1418071D01*
X1415074Y745750D01*
D02*
G37*
G36*
X1358354Y753453D02*
X1358443Y753442D01*
X1358554Y753431D01*
X1358676Y753409D01*
X1358798Y753387D01*
X1359087Y753309D01*
X1359375Y753198D01*
X1359520Y753131D01*
X1359664Y753054D01*
X1359797Y752954D01*
X1359919Y752843D01*
X1359931Y752832D01*
X1359953Y752821D01*
X1359975Y752776D01*
X1360019Y752732D01*
X1360075Y752676D01*
X1360130Y752599D01*
X1360186Y752521D01*
X1360252Y752421D01*
X1360363Y752210D01*
X1360474Y751944D01*
X1360519Y751811D01*
X1360541Y751655D01*
X1360563Y751500D01*
X1360574Y751333D01*
Y751311D01*
Y751255D01*
X1360563Y751167D01*
X1360552Y751045D01*
X1360530Y750911D01*
X1360486Y750756D01*
X1360441Y750590D01*
X1360374Y750423D01*
X1360363Y750401D01*
X1360341Y750345D01*
X1360297Y750257D01*
X1360230Y750134D01*
X1360141Y750001D01*
X1360030Y749835D01*
X1359897Y749668D01*
X1359742Y749480D01*
X1359720Y749457D01*
X1359664Y749391D01*
X1359609Y749335D01*
X1359553Y749280D01*
X1359487Y749213D01*
X1359398Y749124D01*
X1359309Y749035D01*
X1359198Y748936D01*
X1359087Y748825D01*
X1358954Y748702D01*
X1358809Y748580D01*
X1358654Y748436D01*
X1358476Y748292D01*
X1358299Y748137D01*
X1358288Y748125D01*
X1358266Y748103D01*
X1358221Y748070D01*
X1358166Y748026D01*
X1358099Y747959D01*
X1358021Y747892D01*
X1357844Y747748D01*
X1357655Y747581D01*
X1357477Y747415D01*
X1357322Y747271D01*
X1357255Y747215D01*
X1357200Y747160D01*
X1357189Y747149D01*
X1357155Y747115D01*
X1357111Y747071D01*
X1357056Y747004D01*
X1357000Y746927D01*
X1356933Y746849D01*
X1356800Y746660D01*
X1360585D01*
Y745750D01*
X1355491D01*
Y745761D01*
Y745806D01*
Y745872D01*
X1355502Y745961D01*
X1355513Y746061D01*
X1355535Y746172D01*
X1355557Y746283D01*
X1355602Y746405D01*
Y746416D01*
X1355613Y746427D01*
X1355635Y746494D01*
X1355679Y746594D01*
X1355746Y746727D01*
X1355835Y746882D01*
X1355946Y747060D01*
X1356068Y747237D01*
X1356223Y747426D01*
Y747437D01*
X1356245Y747448D01*
X1356301Y747515D01*
X1356401Y747615D01*
X1356545Y747759D01*
X1356711Y747926D01*
X1356922Y748125D01*
X1357178Y748347D01*
X1357455Y748580D01*
X1357466Y748592D01*
X1357511Y748625D01*
X1357577Y748680D01*
X1357655Y748747D01*
X1357755Y748836D01*
X1357877Y748936D01*
X1357999Y749047D01*
X1358143Y749169D01*
X1358421Y749435D01*
X1358698Y749702D01*
X1358832Y749835D01*
X1358954Y749968D01*
X1359065Y750090D01*
X1359153Y750212D01*
Y750223D01*
X1359176Y750234D01*
X1359198Y750268D01*
X1359220Y750312D01*
X1359298Y750434D01*
X1359387Y750578D01*
X1359464Y750756D01*
X1359542Y750945D01*
X1359586Y751156D01*
X1359609Y751355D01*
Y751367D01*
Y751378D01*
X1359597Y751444D01*
X1359586Y751555D01*
X1359553Y751677D01*
X1359509Y751833D01*
X1359431Y751988D01*
X1359331Y752143D01*
X1359198Y752299D01*
X1359176Y752321D01*
X1359120Y752365D01*
X1359043Y752421D01*
X1358920Y752499D01*
X1358765Y752565D01*
X1358587Y752632D01*
X1358376Y752676D01*
X1358143Y752687D01*
X1358077D01*
X1358032Y752676D01*
X1357899Y752665D01*
X1357744Y752632D01*
X1357577Y752588D01*
X1357389Y752510D01*
X1357211Y752410D01*
X1357045Y752277D01*
X1357022Y752254D01*
X1356978Y752199D01*
X1356911Y752110D01*
X1356845Y751977D01*
X1356767Y751822D01*
X1356700Y751622D01*
X1356656Y751400D01*
X1356634Y751144D01*
X1355668Y751244D01*
Y751255D01*
X1355679Y751289D01*
Y751344D01*
X1355690Y751422D01*
X1355713Y751511D01*
X1355735Y751611D01*
X1355768Y751733D01*
X1355801Y751855D01*
X1355890Y752121D01*
X1356023Y752388D01*
X1356101Y752521D01*
X1356201Y752654D01*
X1356301Y752776D01*
X1356412Y752887D01*
X1356423Y752898D01*
X1356445Y752909D01*
X1356478Y752943D01*
X1356534Y752976D01*
X1356600Y753020D01*
X1356678Y753065D01*
X1356767Y753120D01*
X1356878Y753176D01*
X1357000Y753231D01*
X1357133Y753287D01*
X1357278Y753331D01*
X1357433Y753376D01*
X1357599Y753409D01*
X1357777Y753442D01*
X1357966Y753453D01*
X1358166Y753464D01*
X1358277D01*
X1358354Y753453D01*
D02*
G37*
G36*
X1351927Y753420D02*
X1352027D01*
X1352260Y753409D01*
X1352505Y753376D01*
X1352771Y753342D01*
X1353015Y753287D01*
X1353137Y753253D01*
X1353237Y753220D01*
X1353248D01*
X1353259Y753209D01*
X1353326Y753176D01*
X1353426Y753131D01*
X1353548Y753054D01*
X1353681Y752954D01*
X1353826Y752821D01*
X1353959Y752665D01*
X1354092Y752488D01*
Y752477D01*
X1354103Y752465D01*
X1354147Y752399D01*
X1354192Y752288D01*
X1354259Y752143D01*
X1354314Y751977D01*
X1354370Y751777D01*
X1354403Y751566D01*
X1354414Y751333D01*
Y751322D01*
Y751300D01*
Y751255D01*
X1354403Y751200D01*
Y751122D01*
X1354392Y751045D01*
X1354347Y750856D01*
X1354281Y750634D01*
X1354192Y750401D01*
X1354059Y750168D01*
X1353970Y750057D01*
X1353881Y749946D01*
X1353870Y749935D01*
X1353859Y749923D01*
X1353826Y749890D01*
X1353781Y749857D01*
X1353726Y749812D01*
X1353659Y749768D01*
X1353570Y749713D01*
X1353481Y749646D01*
X1353371Y749591D01*
X1353248Y749535D01*
X1353115Y749468D01*
X1352971Y749413D01*
X1352804Y749369D01*
X1352638Y749313D01*
X1352449Y749280D01*
X1352249Y749246D01*
X1352272Y749235D01*
X1352316Y749213D01*
X1352383Y749169D01*
X1352471Y749124D01*
X1352671Y749002D01*
X1352771Y748924D01*
X1352860Y748858D01*
X1352882Y748836D01*
X1352938Y748780D01*
X1353026Y748691D01*
X1353137Y748580D01*
X1353259Y748425D01*
X1353404Y748259D01*
X1353548Y748059D01*
X1353703Y747837D01*
X1355024Y745750D01*
X1353759D01*
X1352749Y747348D01*
Y747359D01*
X1352727Y747382D01*
X1352704Y747415D01*
X1352671Y747459D01*
X1352594Y747581D01*
X1352494Y747737D01*
X1352372Y747903D01*
X1352249Y748081D01*
X1352127Y748247D01*
X1352016Y748403D01*
X1352005Y748414D01*
X1351972Y748458D01*
X1351916Y748525D01*
X1351839Y748603D01*
X1351672Y748769D01*
X1351583Y748847D01*
X1351495Y748913D01*
X1351483Y748924D01*
X1351461Y748936D01*
X1351417Y748958D01*
X1351350Y748991D01*
X1351284Y749024D01*
X1351206Y749058D01*
X1351028Y749113D01*
X1351017D01*
X1350995Y749124D01*
X1350951D01*
X1350895Y749135D01*
X1350818Y749146D01*
X1350729D01*
X1350607Y749158D01*
X1349297D01*
Y745750D01*
X1348276D01*
Y753431D01*
X1351839D01*
X1351927Y753420D01*
D02*
G37*
G36*
X1346466Y768513D02*
X1345445D01*
Y776195D01*
X1346466D01*
Y768513D01*
D02*
G37*
G36*
X1344457D02*
X1343303D01*
X1342404Y770844D01*
X1339185D01*
X1338353Y768513D01*
X1337276D01*
X1340206Y776195D01*
X1341316D01*
X1344457Y768513D01*
D02*
G37*
G36*
X1334279Y776183D02*
X1334467Y776172D01*
X1334667Y776161D01*
X1334856Y776139D01*
X1335022Y776117D01*
X1335045D01*
X1335122Y776095D01*
X1335222Y776072D01*
X1335356Y776039D01*
X1335500Y775984D01*
X1335655Y775917D01*
X1335822Y775839D01*
X1335966Y775751D01*
X1335988Y775739D01*
X1336033Y775706D01*
X1336099Y775639D01*
X1336188Y775562D01*
X1336288Y775462D01*
X1336388Y775329D01*
X1336499Y775184D01*
X1336588Y775018D01*
X1336599Y774996D01*
X1336621Y774940D01*
X1336665Y774840D01*
X1336710Y774707D01*
X1336743Y774552D01*
X1336787Y774374D01*
X1336810Y774174D01*
X1336821Y773963D01*
Y773952D01*
Y773919D01*
Y773875D01*
X1336810Y773797D01*
X1336799Y773719D01*
X1336787Y773619D01*
X1336765Y773508D01*
X1336743Y773386D01*
X1336665Y773131D01*
X1336621Y772998D01*
X1336554Y772853D01*
X1336477Y772709D01*
X1336399Y772576D01*
X1336299Y772443D01*
X1336188Y772310D01*
X1336177Y772299D01*
X1336155Y772276D01*
X1336121Y772243D01*
X1336066Y772210D01*
X1335999Y772154D01*
X1335910Y772099D01*
X1335800Y772032D01*
X1335677Y771977D01*
X1335533Y771910D01*
X1335367Y771843D01*
X1335189Y771788D01*
X1334978Y771743D01*
X1334756Y771699D01*
X1334512Y771666D01*
X1334234Y771644D01*
X1333946Y771633D01*
X1331981D01*
Y768513D01*
X1330960D01*
Y776195D01*
X1334112D01*
X1334279Y776183D01*
D02*
G37*
G36*
X1351927D02*
X1352027D01*
X1352260Y776172D01*
X1352505Y776139D01*
X1352771Y776106D01*
X1353015Y776050D01*
X1353137Y776017D01*
X1353237Y775984D01*
X1353248D01*
X1353259Y775973D01*
X1353326Y775939D01*
X1353426Y775895D01*
X1353548Y775817D01*
X1353681Y775717D01*
X1353826Y775584D01*
X1353959Y775429D01*
X1354092Y775251D01*
Y775240D01*
X1354103Y775229D01*
X1354147Y775162D01*
X1354192Y775051D01*
X1354259Y774907D01*
X1354314Y774741D01*
X1354370Y774541D01*
X1354403Y774330D01*
X1354414Y774097D01*
Y774086D01*
Y774063D01*
Y774019D01*
X1354403Y773963D01*
Y773886D01*
X1354392Y773808D01*
X1354347Y773619D01*
X1354281Y773397D01*
X1354192Y773164D01*
X1354059Y772931D01*
X1353970Y772820D01*
X1353881Y772709D01*
X1353870Y772698D01*
X1353859Y772687D01*
X1353826Y772654D01*
X1353781Y772620D01*
X1353726Y772576D01*
X1353659Y772532D01*
X1353570Y772476D01*
X1353481Y772410D01*
X1353371Y772354D01*
X1353248Y772299D01*
X1353115Y772232D01*
X1352971Y772176D01*
X1352804Y772132D01*
X1352638Y772076D01*
X1352449Y772043D01*
X1352249Y772010D01*
X1352272Y771999D01*
X1352316Y771977D01*
X1352383Y771932D01*
X1352471Y771888D01*
X1352671Y771766D01*
X1352771Y771688D01*
X1352860Y771621D01*
X1352882Y771599D01*
X1352938Y771544D01*
X1353026Y771455D01*
X1353137Y771344D01*
X1353259Y771189D01*
X1353404Y771022D01*
X1353548Y770822D01*
X1353703Y770600D01*
X1355024Y768513D01*
X1353759D01*
X1352749Y770112D01*
Y770123D01*
X1352727Y770145D01*
X1352704Y770178D01*
X1352671Y770223D01*
X1352594Y770345D01*
X1352494Y770500D01*
X1352372Y770667D01*
X1352249Y770844D01*
X1352127Y771011D01*
X1352016Y771166D01*
X1352005Y771177D01*
X1351972Y771222D01*
X1351916Y771288D01*
X1351839Y771366D01*
X1351672Y771533D01*
X1351583Y771610D01*
X1351495Y771677D01*
X1351483Y771688D01*
X1351461Y771699D01*
X1351417Y771721D01*
X1351350Y771755D01*
X1351284Y771788D01*
X1351206Y771821D01*
X1351028Y771877D01*
X1351017D01*
X1350995Y771888D01*
X1350951D01*
X1350895Y771899D01*
X1350818Y771910D01*
X1350729D01*
X1350607Y771921D01*
X1349297D01*
Y768513D01*
X1348276D01*
Y776195D01*
X1351839D01*
X1351927Y776183D01*
D02*
G37*
G36*
X1413975Y768513D02*
X1412921D01*
X1408903Y774541D01*
Y768513D01*
X1407926D01*
Y776195D01*
X1408969D01*
X1412999Y770156D01*
Y776195D01*
X1413975D01*
Y768513D01*
D02*
G37*
G36*
X1373994D02*
X1372939D01*
X1368921Y774541D01*
Y768513D01*
X1367944D01*
Y776195D01*
X1368988D01*
X1373017Y770156D01*
Y776195D01*
X1373994D01*
Y768513D01*
D02*
G37*
G36*
X1418837Y776183D02*
X1419059Y776172D01*
X1419281Y776150D01*
X1419503Y776117D01*
X1419692Y776084D01*
X1419703D01*
X1419725Y776072D01*
X1419758D01*
X1419803Y776050D01*
X1419925Y776017D01*
X1420080Y775961D01*
X1420258Y775884D01*
X1420447Y775784D01*
X1420635Y775673D01*
X1420813Y775528D01*
X1420824Y775517D01*
X1420835Y775506D01*
X1420868Y775473D01*
X1420913Y775440D01*
X1421024Y775329D01*
X1421157Y775173D01*
X1421301Y774985D01*
X1421457Y774763D01*
X1421601Y774507D01*
X1421723Y774219D01*
Y774208D01*
X1421734Y774185D01*
X1421756Y774141D01*
X1421767Y774074D01*
X1421801Y773997D01*
X1421823Y773908D01*
X1421845Y773808D01*
X1421879Y773686D01*
X1421912Y773564D01*
X1421934Y773420D01*
X1421989Y773109D01*
X1422023Y772765D01*
X1422034Y772387D01*
Y772376D01*
Y772354D01*
Y772299D01*
Y772243D01*
X1422023Y772165D01*
Y772076D01*
X1422012Y771866D01*
X1421978Y771621D01*
X1421945Y771366D01*
X1421890Y771100D01*
X1421823Y770833D01*
Y770822D01*
X1421812Y770800D01*
X1421801Y770767D01*
X1421790Y770722D01*
X1421745Y770600D01*
X1421679Y770445D01*
X1421612Y770267D01*
X1421523Y770090D01*
X1421412Y769901D01*
X1421301Y769723D01*
X1421290Y769701D01*
X1421246Y769646D01*
X1421179Y769568D01*
X1421090Y769468D01*
X1420990Y769357D01*
X1420868Y769246D01*
X1420746Y769124D01*
X1420602Y769024D01*
X1420580Y769013D01*
X1420535Y768980D01*
X1420458Y768935D01*
X1420347Y768880D01*
X1420213Y768813D01*
X1420058Y768758D01*
X1419881Y768691D01*
X1419681Y768636D01*
X1419659D01*
X1419625Y768624D01*
X1419592Y768613D01*
X1419481Y768602D01*
X1419326Y768580D01*
X1419148Y768558D01*
X1418937Y768536D01*
X1418704Y768525D01*
X1418449Y768513D01*
X1415685D01*
Y776195D01*
X1418637D01*
X1418837Y776183D01*
D02*
G37*
G36*
X1412599Y763814D02*
X1409524D01*
X1409114Y761738D01*
X1409125Y761749D01*
X1409147Y761760D01*
X1409180Y761783D01*
X1409236Y761816D01*
X1409302Y761849D01*
X1409380Y761893D01*
X1409558Y761982D01*
X1409780Y762071D01*
X1410024Y762149D01*
X1410290Y762204D01*
X1410423Y762226D01*
X1410668D01*
X1410734Y762215D01*
X1410823Y762204D01*
X1410923Y762193D01*
X1411034Y762171D01*
X1411156Y762138D01*
X1411422Y762060D01*
X1411567Y762004D01*
X1411711Y761927D01*
X1411855Y761849D01*
X1412000Y761760D01*
X1412133Y761649D01*
X1412266Y761527D01*
X1412277Y761516D01*
X1412299Y761494D01*
X1412333Y761461D01*
X1412377Y761405D01*
X1412433Y761328D01*
X1412488Y761250D01*
X1412555Y761150D01*
X1412621Y761039D01*
X1412677Y760917D01*
X1412743Y760784D01*
X1412799Y760628D01*
X1412854Y760473D01*
X1412899Y760306D01*
X1412932Y760118D01*
X1412954Y759929D01*
X1412965Y759729D01*
Y759718D01*
Y759685D01*
Y759629D01*
X1412954Y759551D01*
X1412943Y759463D01*
X1412932Y759363D01*
X1412910Y759241D01*
X1412888Y759119D01*
X1412821Y758830D01*
X1412710Y758530D01*
X1412643Y758375D01*
X1412555Y758231D01*
X1412466Y758075D01*
X1412355Y757931D01*
X1412344Y757920D01*
X1412321Y757887D01*
X1412277Y757842D01*
X1412222Y757787D01*
X1412144Y757720D01*
X1412055Y757631D01*
X1411944Y757553D01*
X1411822Y757465D01*
X1411689Y757376D01*
X1411533Y757298D01*
X1411367Y757221D01*
X1411189Y757143D01*
X1411001Y757087D01*
X1410790Y757043D01*
X1410568Y757010D01*
X1410335Y756999D01*
X1410235D01*
X1410157Y757010D01*
X1410068Y757021D01*
X1409968Y757032D01*
X1409846Y757043D01*
X1409724Y757076D01*
X1409447Y757143D01*
X1409169Y757243D01*
X1409025Y757309D01*
X1408881Y757387D01*
X1408747Y757476D01*
X1408614Y757576D01*
X1408603Y757587D01*
X1408581Y757598D01*
X1408559Y757642D01*
X1408514Y757687D01*
X1408459Y757742D01*
X1408403Y757809D01*
X1408337Y757898D01*
X1408281Y757998D01*
X1408215Y758097D01*
X1408148Y758220D01*
X1408026Y758486D01*
X1407926Y758797D01*
X1407893Y758963D01*
X1407870Y759141D01*
X1408858Y759219D01*
Y759207D01*
Y759185D01*
X1408869Y759152D01*
X1408881Y759096D01*
X1408914Y758974D01*
X1408958Y758808D01*
X1409025Y758641D01*
X1409114Y758453D01*
X1409225Y758286D01*
X1409358Y758131D01*
X1409380Y758120D01*
X1409424Y758075D01*
X1409513Y758020D01*
X1409635Y757953D01*
X1409769Y757887D01*
X1409935Y757831D01*
X1410124Y757787D01*
X1410335Y757775D01*
X1410401D01*
X1410446Y757787D01*
X1410579Y757798D01*
X1410734Y757842D01*
X1410923Y757898D01*
X1411112Y757986D01*
X1411311Y758120D01*
X1411400Y758197D01*
X1411489Y758286D01*
X1411500Y758297D01*
X1411511Y758308D01*
X1411533Y758342D01*
X1411567Y758375D01*
X1411644Y758497D01*
X1411733Y758652D01*
X1411811Y758841D01*
X1411889Y759074D01*
X1411944Y759352D01*
X1411966Y759496D01*
Y759651D01*
Y759662D01*
Y759685D01*
Y759729D01*
X1411955Y759785D01*
Y759851D01*
X1411944Y759929D01*
X1411911Y760107D01*
X1411855Y760317D01*
X1411778Y760528D01*
X1411667Y760728D01*
X1411511Y760917D01*
Y760928D01*
X1411489Y760939D01*
X1411434Y760994D01*
X1411334Y761072D01*
X1411201Y761161D01*
X1411023Y761239D01*
X1410823Y761316D01*
X1410590Y761372D01*
X1410457Y761394D01*
X1410246D01*
X1410157Y761383D01*
X1410046Y761372D01*
X1409913Y761339D01*
X1409780Y761305D01*
X1409635Y761250D01*
X1409491Y761183D01*
X1409480Y761172D01*
X1409436Y761150D01*
X1409369Y761094D01*
X1409280Y761039D01*
X1409191Y760961D01*
X1409103Y760861D01*
X1409003Y760761D01*
X1408925Y760639D01*
X1408037Y760761D01*
X1408781Y764713D01*
X1412599D01*
Y763814D01*
D02*
G37*
G36*
X1371275Y764802D02*
X1371463Y764791D01*
X1371663Y764780D01*
X1371852Y764757D01*
X1372018Y764735D01*
X1372040D01*
X1372118Y764713D01*
X1372218Y764691D01*
X1372351Y764657D01*
X1372496Y764602D01*
X1372651Y764535D01*
X1372817Y764458D01*
X1372962Y764369D01*
X1372984Y764358D01*
X1373028Y764324D01*
X1373095Y764258D01*
X1373184Y764180D01*
X1373284Y764080D01*
X1373383Y763947D01*
X1373494Y763803D01*
X1373583Y763636D01*
X1373594Y763614D01*
X1373616Y763559D01*
X1373661Y763459D01*
X1373705Y763325D01*
X1373739Y763170D01*
X1373783Y762992D01*
X1373805Y762793D01*
X1373816Y762582D01*
Y762571D01*
Y762537D01*
Y762493D01*
X1373805Y762415D01*
X1373794Y762337D01*
X1373783Y762238D01*
X1373761Y762127D01*
X1373739Y762004D01*
X1373661Y761749D01*
X1373616Y761616D01*
X1373550Y761472D01*
X1373472Y761328D01*
X1373394Y761194D01*
X1373295Y761061D01*
X1373184Y760928D01*
X1373172Y760917D01*
X1373150Y760895D01*
X1373117Y760861D01*
X1373062Y760828D01*
X1372995Y760772D01*
X1372906Y760717D01*
X1372795Y760650D01*
X1372673Y760595D01*
X1372529Y760528D01*
X1372362Y760462D01*
X1372185Y760406D01*
X1371974Y760362D01*
X1371752Y760317D01*
X1371508Y760284D01*
X1371230Y760262D01*
X1370941Y760251D01*
X1368977D01*
Y757132D01*
X1367956D01*
Y764813D01*
X1371108D01*
X1371275Y764802D01*
D02*
G37*
G36*
X1351927D02*
X1352027D01*
X1352260Y764791D01*
X1352505Y764757D01*
X1352771Y764724D01*
X1353015Y764669D01*
X1353137Y764635D01*
X1353237Y764602D01*
X1353248D01*
X1353259Y764591D01*
X1353326Y764557D01*
X1353426Y764513D01*
X1353548Y764435D01*
X1353681Y764335D01*
X1353826Y764202D01*
X1353959Y764047D01*
X1354092Y763869D01*
Y763858D01*
X1354103Y763847D01*
X1354147Y763781D01*
X1354192Y763670D01*
X1354259Y763525D01*
X1354314Y763359D01*
X1354370Y763159D01*
X1354403Y762948D01*
X1354414Y762715D01*
Y762704D01*
Y762682D01*
Y762637D01*
X1354403Y762582D01*
Y762504D01*
X1354392Y762426D01*
X1354347Y762238D01*
X1354281Y762016D01*
X1354192Y761783D01*
X1354059Y761550D01*
X1353970Y761439D01*
X1353881Y761328D01*
X1353870Y761316D01*
X1353859Y761305D01*
X1353826Y761272D01*
X1353781Y761239D01*
X1353726Y761194D01*
X1353659Y761150D01*
X1353570Y761094D01*
X1353481Y761028D01*
X1353371Y760972D01*
X1353248Y760917D01*
X1353115Y760850D01*
X1352971Y760795D01*
X1352804Y760750D01*
X1352638Y760695D01*
X1352449Y760661D01*
X1352249Y760628D01*
X1352272Y760617D01*
X1352316Y760595D01*
X1352383Y760551D01*
X1352471Y760506D01*
X1352671Y760384D01*
X1352771Y760306D01*
X1352860Y760240D01*
X1352882Y760218D01*
X1352938Y760162D01*
X1353026Y760073D01*
X1353137Y759962D01*
X1353259Y759807D01*
X1353404Y759640D01*
X1353548Y759441D01*
X1353703Y759219D01*
X1355024Y757132D01*
X1353759D01*
X1352749Y758730D01*
Y758741D01*
X1352727Y758763D01*
X1352704Y758797D01*
X1352671Y758841D01*
X1352594Y758963D01*
X1352494Y759119D01*
X1352372Y759285D01*
X1352249Y759463D01*
X1352127Y759629D01*
X1352016Y759785D01*
X1352005Y759796D01*
X1351972Y759840D01*
X1351916Y759907D01*
X1351839Y759984D01*
X1351672Y760151D01*
X1351583Y760229D01*
X1351495Y760295D01*
X1351483Y760306D01*
X1351461Y760317D01*
X1351417Y760340D01*
X1351350Y760373D01*
X1351284Y760406D01*
X1351206Y760440D01*
X1351028Y760495D01*
X1351017D01*
X1350995Y760506D01*
X1350951D01*
X1350895Y760517D01*
X1350818Y760528D01*
X1350729D01*
X1350607Y760539D01*
X1349297D01*
Y757132D01*
X1348276D01*
Y764813D01*
X1351839D01*
X1351927Y764802D01*
D02*
G37*
G36*
X1417472Y757132D02*
X1416406D01*
X1413432Y764813D01*
X1414541D01*
X1416539Y759230D01*
Y759219D01*
X1416551Y759196D01*
X1416562Y759163D01*
X1416584Y759119D01*
X1416595Y759052D01*
X1416617Y758985D01*
X1416673Y758819D01*
X1416739Y758630D01*
X1416806Y758419D01*
X1416939Y757975D01*
Y757986D01*
X1416950Y758009D01*
X1416961Y758042D01*
X1416972Y758086D01*
X1417006Y758208D01*
X1417061Y758375D01*
X1417117Y758564D01*
X1417183Y758774D01*
X1417261Y758997D01*
X1417350Y759230D01*
X1419436Y764813D01*
X1420469D01*
X1417472Y757132D01*
D02*
G37*
G36*
X1367234Y766382D02*
X1360985D01*
Y767059D01*
X1367234D01*
Y766382D01*
D02*
G37*
G36*
X1358266Y764835D02*
X1358410Y764813D01*
X1358587Y764780D01*
X1358787Y764724D01*
X1358987Y764657D01*
X1359187Y764569D01*
X1359198D01*
X1359209Y764557D01*
X1359276Y764524D01*
X1359375Y764458D01*
X1359487Y764380D01*
X1359620Y764269D01*
X1359753Y764147D01*
X1359886Y764003D01*
X1359997Y763836D01*
X1360008Y763814D01*
X1360042Y763758D01*
X1360086Y763658D01*
X1360141Y763536D01*
X1360197Y763392D01*
X1360241Y763225D01*
X1360275Y763037D01*
X1360286Y762848D01*
Y762826D01*
Y762759D01*
X1360275Y762671D01*
X1360252Y762548D01*
X1360219Y762404D01*
X1360164Y762249D01*
X1360097Y762093D01*
X1360008Y761938D01*
X1359997Y761916D01*
X1359964Y761871D01*
X1359897Y761794D01*
X1359808Y761705D01*
X1359697Y761605D01*
X1359564Y761494D01*
X1359409Y761394D01*
X1359220Y761294D01*
X1359231D01*
X1359253Y761283D01*
X1359287Y761272D01*
X1359331Y761261D01*
X1359453Y761217D01*
X1359609Y761150D01*
X1359786Y761061D01*
X1359964Y760950D01*
X1360130Y760806D01*
X1360286Y760639D01*
X1360297Y760617D01*
X1360341Y760551D01*
X1360408Y760440D01*
X1360474Y760295D01*
X1360541Y760118D01*
X1360608Y759907D01*
X1360652Y759662D01*
X1360663Y759396D01*
Y759385D01*
Y759352D01*
Y759296D01*
X1360652Y759230D01*
X1360641Y759141D01*
X1360619Y759041D01*
X1360596Y758930D01*
X1360574Y758808D01*
X1360486Y758541D01*
X1360419Y758397D01*
X1360352Y758264D01*
X1360264Y758120D01*
X1360164Y757975D01*
X1360053Y757831D01*
X1359919Y757698D01*
X1359908Y757687D01*
X1359886Y757664D01*
X1359842Y757631D01*
X1359786Y757587D01*
X1359720Y757531D01*
X1359631Y757476D01*
X1359531Y757409D01*
X1359409Y757354D01*
X1359287Y757287D01*
X1359142Y757221D01*
X1358998Y757165D01*
X1358832Y757110D01*
X1358654Y757065D01*
X1358465Y757032D01*
X1358277Y757010D01*
X1358066Y756999D01*
X1357966D01*
X1357899Y757010D01*
X1357810Y757021D01*
X1357711Y757032D01*
X1357599Y757054D01*
X1357477Y757076D01*
X1357211Y757143D01*
X1356933Y757254D01*
X1356789Y757320D01*
X1356656Y757398D01*
X1356523Y757498D01*
X1356390Y757598D01*
X1356378Y757609D01*
X1356356Y757631D01*
X1356323Y757664D01*
X1356290Y757709D01*
X1356234Y757764D01*
X1356179Y757842D01*
X1356112Y757920D01*
X1356046Y758020D01*
X1355979Y758131D01*
X1355912Y758242D01*
X1355790Y758508D01*
X1355690Y758819D01*
X1355657Y758985D01*
X1355635Y759163D01*
X1356578Y759285D01*
Y759274D01*
X1356589Y759252D01*
X1356600Y759207D01*
X1356612Y759152D01*
X1356623Y759085D01*
X1356645Y759008D01*
X1356700Y758841D01*
X1356778Y758641D01*
X1356878Y758453D01*
X1356989Y758275D01*
X1357122Y758120D01*
X1357144Y758109D01*
X1357189Y758064D01*
X1357278Y758009D01*
X1357389Y757953D01*
X1357522Y757887D01*
X1357688Y757831D01*
X1357877Y757787D01*
X1358077Y757775D01*
X1358143D01*
X1358188Y757787D01*
X1358310Y757798D01*
X1358465Y757831D01*
X1358643Y757887D01*
X1358832Y757964D01*
X1359020Y758075D01*
X1359198Y758231D01*
X1359220Y758253D01*
X1359276Y758319D01*
X1359342Y758419D01*
X1359431Y758552D01*
X1359520Y758719D01*
X1359586Y758908D01*
X1359642Y759130D01*
X1359664Y759374D01*
Y759385D01*
Y759407D01*
Y759441D01*
X1359653Y759485D01*
X1359642Y759607D01*
X1359609Y759751D01*
X1359564Y759929D01*
X1359487Y760107D01*
X1359375Y760284D01*
X1359231Y760451D01*
X1359209Y760473D01*
X1359153Y760517D01*
X1359065Y760584D01*
X1358943Y760661D01*
X1358787Y760739D01*
X1358598Y760806D01*
X1358388Y760850D01*
X1358154Y760872D01*
X1358055D01*
X1357977Y760861D01*
X1357877Y760850D01*
X1357766Y760828D01*
X1357633Y760806D01*
X1357489Y760772D01*
X1357599Y761605D01*
X1357655D01*
X1357699Y761594D01*
X1357844D01*
X1357966Y761616D01*
X1358110Y761638D01*
X1358277Y761672D01*
X1358465Y761727D01*
X1358643Y761805D01*
X1358832Y761905D01*
X1358843D01*
X1358854Y761916D01*
X1358909Y761960D01*
X1358987Y762038D01*
X1359076Y762138D01*
X1359165Y762282D01*
X1359242Y762449D01*
X1359298Y762637D01*
X1359320Y762748D01*
Y762870D01*
Y762881D01*
Y762893D01*
Y762959D01*
X1359298Y763048D01*
X1359276Y763170D01*
X1359231Y763303D01*
X1359176Y763447D01*
X1359087Y763592D01*
X1358965Y763725D01*
X1358954Y763736D01*
X1358898Y763781D01*
X1358820Y763836D01*
X1358721Y763903D01*
X1358587Y763958D01*
X1358432Y764014D01*
X1358254Y764058D01*
X1358055Y764069D01*
X1357966D01*
X1357866Y764047D01*
X1357733Y764025D01*
X1357588Y763980D01*
X1357444Y763925D01*
X1357289Y763836D01*
X1357144Y763725D01*
X1357133Y763714D01*
X1357089Y763658D01*
X1357022Y763581D01*
X1356945Y763470D01*
X1356867Y763325D01*
X1356789Y763148D01*
X1356723Y762937D01*
X1356678Y762693D01*
X1355735Y762859D01*
Y762870D01*
X1355746Y762904D01*
X1355757Y762948D01*
X1355768Y763015D01*
X1355790Y763092D01*
X1355824Y763181D01*
X1355890Y763392D01*
X1356001Y763636D01*
X1356134Y763880D01*
X1356301Y764113D01*
X1356512Y764324D01*
X1356523Y764335D01*
X1356545Y764347D01*
X1356578Y764369D01*
X1356623Y764402D01*
X1356678Y764446D01*
X1356756Y764491D01*
X1356834Y764535D01*
X1356933Y764591D01*
X1357155Y764680D01*
X1357411Y764768D01*
X1357711Y764824D01*
X1357866Y764846D01*
X1358143D01*
X1358266Y764835D01*
D02*
G37*
G36*
X1404718Y761361D02*
X1406805D01*
Y760484D01*
X1404718D01*
Y758375D01*
X1403830D01*
Y760484D01*
X1401743D01*
Y761361D01*
X1403830D01*
Y763447D01*
X1404718D01*
Y761361D01*
D02*
G37*
G36*
X1412954Y802759D02*
X1411933D01*
Y810440D01*
X1412954D01*
Y802759D01*
D02*
G37*
G36*
X1342060Y833292D02*
X1342149D01*
X1342348Y833270D01*
X1342570Y833248D01*
X1342803Y833203D01*
X1343037Y833148D01*
X1343248Y833070D01*
X1343259D01*
X1343270Y833059D01*
X1343336Y833026D01*
X1343436Y832970D01*
X1343547Y832892D01*
X1343680Y832792D01*
X1343825Y832670D01*
X1343958Y832515D01*
X1344080Y832348D01*
X1344091Y832326D01*
X1344124Y832260D01*
X1344180Y832171D01*
X1344235Y832038D01*
X1344291Y831882D01*
X1344346Y831716D01*
X1344380Y831527D01*
X1344391Y831338D01*
Y831316D01*
Y831261D01*
X1344380Y831161D01*
X1344357Y831039D01*
X1344324Y830894D01*
X1344269Y830739D01*
X1344202Y830584D01*
X1344113Y830417D01*
X1344102Y830395D01*
X1344069Y830350D01*
X1344002Y830262D01*
X1343914Y830173D01*
X1343802Y830062D01*
X1343669Y829940D01*
X1343503Y829829D01*
X1343314Y829718D01*
X1343325D01*
X1343347Y829707D01*
X1343381Y829696D01*
X1343425Y829673D01*
X1343558Y829629D01*
X1343714Y829551D01*
X1343880Y829451D01*
X1344069Y829329D01*
X1344235Y829185D01*
X1344391Y829007D01*
X1344402Y828985D01*
X1344446Y828919D01*
X1344513Y828819D01*
X1344579Y828686D01*
X1344646Y828508D01*
X1344713Y828319D01*
X1344757Y828097D01*
X1344768Y827853D01*
Y827842D01*
Y827831D01*
Y827764D01*
X1344757Y827653D01*
X1344735Y827520D01*
X1344713Y827365D01*
X1344668Y827198D01*
X1344613Y827020D01*
X1344535Y826843D01*
X1344524Y826821D01*
X1344491Y826765D01*
X1344446Y826688D01*
X1344380Y826577D01*
X1344291Y826466D01*
X1344202Y826344D01*
X1344091Y826221D01*
X1343969Y826122D01*
X1343958Y826110D01*
X1343914Y826077D01*
X1343836Y826033D01*
X1343736Y825988D01*
X1343614Y825922D01*
X1343470Y825855D01*
X1343314Y825800D01*
X1343125Y825744D01*
X1343103D01*
X1343037Y825722D01*
X1342926Y825711D01*
X1342781Y825689D01*
X1342604Y825666D01*
X1342393Y825644D01*
X1342160Y825633D01*
X1341893Y825622D01*
X1338963D01*
Y833303D01*
X1341982D01*
X1342060Y833292D01*
D02*
G37*
G36*
X1436142Y823491D02*
X1429892D01*
Y824168D01*
X1436142D01*
Y823491D01*
D02*
G37*
G36*
X1351417D02*
X1345168D01*
Y824168D01*
X1351417D01*
Y823491D01*
D02*
G37*
G36*
X1379777Y832393D02*
X1375237D01*
Y830051D01*
X1379488D01*
Y829141D01*
X1375237D01*
Y826532D01*
X1379955D01*
Y825622D01*
X1374216D01*
Y833303D01*
X1379777D01*
Y832393D01*
D02*
G37*
G36*
X1365458D02*
X1360918D01*
Y830051D01*
X1365170D01*
Y829141D01*
X1360918D01*
Y826532D01*
X1365636D01*
Y825622D01*
X1359897D01*
Y833303D01*
X1365458D01*
Y832393D01*
D02*
G37*
G36*
X1355801Y833292D02*
X1355901D01*
X1356134Y833281D01*
X1356378Y833248D01*
X1356645Y833214D01*
X1356889Y833159D01*
X1357011Y833125D01*
X1357111Y833092D01*
X1357122D01*
X1357133Y833081D01*
X1357200Y833048D01*
X1357300Y833003D01*
X1357422Y832926D01*
X1357555Y832826D01*
X1357699Y832692D01*
X1357833Y832537D01*
X1357966Y832359D01*
Y832348D01*
X1357977Y832337D01*
X1358021Y832271D01*
X1358066Y832160D01*
X1358132Y832016D01*
X1358188Y831849D01*
X1358243Y831649D01*
X1358277Y831438D01*
X1358288Y831205D01*
Y831194D01*
Y831172D01*
Y831127D01*
X1358277Y831072D01*
Y830994D01*
X1358266Y830917D01*
X1358221Y830728D01*
X1358154Y830506D01*
X1358066Y830273D01*
X1357932Y830040D01*
X1357844Y829929D01*
X1357755Y829818D01*
X1357744Y829807D01*
X1357733Y829796D01*
X1357699Y829762D01*
X1357655Y829729D01*
X1357599Y829685D01*
X1357533Y829640D01*
X1357444Y829585D01*
X1357355Y829518D01*
X1357244Y829463D01*
X1357122Y829407D01*
X1356989Y829340D01*
X1356845Y829285D01*
X1356678Y829240D01*
X1356512Y829185D01*
X1356323Y829152D01*
X1356123Y829118D01*
X1356145Y829107D01*
X1356190Y829085D01*
X1356256Y829041D01*
X1356345Y828996D01*
X1356545Y828874D01*
X1356645Y828796D01*
X1356734Y828730D01*
X1356756Y828708D01*
X1356811Y828652D01*
X1356900Y828563D01*
X1357011Y828452D01*
X1357133Y828297D01*
X1357278Y828130D01*
X1357422Y827931D01*
X1357577Y827709D01*
X1358898Y825622D01*
X1357633D01*
X1356623Y827220D01*
Y827231D01*
X1356600Y827254D01*
X1356578Y827287D01*
X1356545Y827331D01*
X1356467Y827453D01*
X1356367Y827609D01*
X1356245Y827775D01*
X1356123Y827953D01*
X1356001Y828119D01*
X1355890Y828275D01*
X1355879Y828286D01*
X1355846Y828330D01*
X1355790Y828397D01*
X1355713Y828475D01*
X1355546Y828641D01*
X1355457Y828719D01*
X1355368Y828785D01*
X1355357Y828796D01*
X1355335Y828808D01*
X1355291Y828830D01*
X1355224Y828863D01*
X1355158Y828896D01*
X1355080Y828930D01*
X1354902Y828985D01*
X1354891D01*
X1354869Y828996D01*
X1354825D01*
X1354769Y829007D01*
X1354691Y829018D01*
X1354603D01*
X1354480Y829030D01*
X1353171D01*
Y825622D01*
X1352150D01*
Y833303D01*
X1355713D01*
X1355801Y833292D01*
D02*
G37*
G36*
X1362705Y821944D02*
X1362783D01*
X1362994Y821921D01*
X1363227Y821888D01*
X1363471Y821833D01*
X1363738Y821766D01*
X1363982Y821677D01*
X1363993D01*
X1364015Y821666D01*
X1364048Y821644D01*
X1364093Y821622D01*
X1364204Y821566D01*
X1364348Y821466D01*
X1364515Y821355D01*
X1364681Y821211D01*
X1364837Y821044D01*
X1364981Y820856D01*
Y820845D01*
X1364992Y820834D01*
X1365014Y820800D01*
X1365036Y820767D01*
X1365092Y820656D01*
X1365159Y820512D01*
X1365236Y820334D01*
X1365292Y820123D01*
X1365347Y819901D01*
X1365369Y819657D01*
X1364393Y819579D01*
Y819590D01*
Y819613D01*
X1364382Y819646D01*
X1364370Y819701D01*
X1364337Y819823D01*
X1364293Y819990D01*
X1364226Y820167D01*
X1364126Y820345D01*
X1364004Y820512D01*
X1363849Y820667D01*
X1363826Y820678D01*
X1363771Y820723D01*
X1363660Y820789D01*
X1363516Y820856D01*
X1363327Y820922D01*
X1363105Y820989D01*
X1362827Y821033D01*
X1362517Y821044D01*
X1362361D01*
X1362295Y821033D01*
X1362206Y821022D01*
X1362006Y821000D01*
X1361784Y820956D01*
X1361562Y820900D01*
X1361351Y820811D01*
X1361263Y820756D01*
X1361174Y820700D01*
X1361151Y820689D01*
X1361107Y820645D01*
X1361040Y820567D01*
X1360974Y820478D01*
X1360896Y820356D01*
X1360830Y820223D01*
X1360785Y820068D01*
X1360763Y819890D01*
Y819868D01*
Y819823D01*
X1360774Y819746D01*
X1360796Y819657D01*
X1360830Y819546D01*
X1360885Y819435D01*
X1360952Y819324D01*
X1361052Y819213D01*
X1361063Y819202D01*
X1361118Y819168D01*
X1361163Y819135D01*
X1361207Y819113D01*
X1361274Y819080D01*
X1361351Y819035D01*
X1361451Y819002D01*
X1361562Y818958D01*
X1361684Y818913D01*
X1361828Y818858D01*
X1361984Y818813D01*
X1362162Y818758D01*
X1362361Y818714D01*
X1362583Y818658D01*
X1362594D01*
X1362639Y818647D01*
X1362705Y818636D01*
X1362783Y818614D01*
X1362883Y818591D01*
X1363005Y818558D01*
X1363127Y818525D01*
X1363260Y818492D01*
X1363549Y818414D01*
X1363826Y818336D01*
X1363960Y818292D01*
X1364082Y818247D01*
X1364193Y818214D01*
X1364282Y818170D01*
X1364293D01*
X1364315Y818158D01*
X1364348Y818136D01*
X1364393Y818114D01*
X1364515Y818047D01*
X1364659Y817959D01*
X1364825Y817837D01*
X1364992Y817703D01*
X1365147Y817548D01*
X1365281Y817382D01*
X1365292Y817359D01*
X1365336Y817304D01*
X1365381Y817204D01*
X1365447Y817071D01*
X1365503Y816915D01*
X1365558Y816727D01*
X1365591Y816516D01*
X1365603Y816294D01*
Y816283D01*
Y816272D01*
Y816238D01*
Y816194D01*
X1365580Y816072D01*
X1365558Y815916D01*
X1365514Y815739D01*
X1365458Y815550D01*
X1365369Y815350D01*
X1365247Y815139D01*
Y815128D01*
X1365236Y815117D01*
X1365181Y815051D01*
X1365103Y814951D01*
X1364992Y814840D01*
X1364848Y814706D01*
X1364670Y814562D01*
X1364470Y814429D01*
X1364237Y814307D01*
X1364226D01*
X1364204Y814296D01*
X1364171Y814285D01*
X1364126Y814262D01*
X1364060Y814240D01*
X1363982Y814207D01*
X1363804Y814163D01*
X1363593Y814107D01*
X1363338Y814052D01*
X1363061Y814018D01*
X1362761Y814007D01*
X1362583D01*
X1362495Y814018D01*
X1362395D01*
X1362284Y814029D01*
X1362150Y814040D01*
X1361873Y814085D01*
X1361584Y814129D01*
X1361296Y814207D01*
X1361018Y814307D01*
X1361007D01*
X1360985Y814318D01*
X1360952Y814340D01*
X1360907Y814362D01*
X1360774Y814429D01*
X1360619Y814529D01*
X1360441Y814662D01*
X1360252Y814817D01*
X1360075Y815006D01*
X1359908Y815217D01*
Y815228D01*
X1359886Y815250D01*
X1359875Y815284D01*
X1359842Y815328D01*
X1359819Y815384D01*
X1359786Y815450D01*
X1359709Y815617D01*
X1359631Y815827D01*
X1359564Y816061D01*
X1359520Y816327D01*
X1359498Y816605D01*
X1360452Y816693D01*
Y816682D01*
Y816671D01*
X1360463Y816638D01*
Y816593D01*
X1360486Y816494D01*
X1360519Y816349D01*
X1360563Y816205D01*
X1360608Y816038D01*
X1360685Y815883D01*
X1360763Y815739D01*
X1360774Y815728D01*
X1360807Y815683D01*
X1360863Y815605D01*
X1360952Y815528D01*
X1361063Y815428D01*
X1361185Y815328D01*
X1361351Y815228D01*
X1361529Y815139D01*
X1361540D01*
X1361551Y815128D01*
X1361584Y815117D01*
X1361618Y815106D01*
X1361729Y815073D01*
X1361873Y815028D01*
X1362050Y814984D01*
X1362250Y814951D01*
X1362472Y814928D01*
X1362717Y814917D01*
X1362816D01*
X1362927Y814928D01*
X1363061Y814939D01*
X1363216Y814962D01*
X1363394Y814984D01*
X1363571Y815028D01*
X1363738Y815084D01*
X1363760Y815095D01*
X1363815Y815117D01*
X1363893Y815162D01*
X1363993Y815206D01*
X1364093Y815284D01*
X1364204Y815361D01*
X1364315Y815450D01*
X1364404Y815561D01*
X1364415Y815572D01*
X1364437Y815617D01*
X1364470Y815672D01*
X1364515Y815761D01*
X1364559Y815850D01*
X1364592Y815961D01*
X1364615Y816083D01*
X1364626Y816216D01*
Y816227D01*
Y816283D01*
X1364615Y816349D01*
X1364603Y816438D01*
X1364570Y816527D01*
X1364537Y816638D01*
X1364481Y816749D01*
X1364404Y816849D01*
X1364393Y816860D01*
X1364359Y816893D01*
X1364315Y816937D01*
X1364237Y817004D01*
X1364148Y817071D01*
X1364026Y817148D01*
X1363882Y817226D01*
X1363716Y817293D01*
X1363704Y817304D01*
X1363649Y817315D01*
X1363560Y817348D01*
X1363505Y817359D01*
X1363427Y817382D01*
X1363349Y817415D01*
X1363249Y817437D01*
X1363138Y817470D01*
X1363005Y817504D01*
X1362872Y817537D01*
X1362717Y817581D01*
X1362539Y817626D01*
X1362350Y817670D01*
X1362339D01*
X1362306Y817681D01*
X1362250Y817692D01*
X1362184Y817714D01*
X1362095Y817737D01*
X1361995Y817759D01*
X1361773Y817825D01*
X1361529Y817903D01*
X1361274Y817981D01*
X1361052Y818059D01*
X1360952Y818103D01*
X1360863Y818147D01*
X1360852D01*
X1360841Y818158D01*
X1360774Y818203D01*
X1360674Y818258D01*
X1360563Y818347D01*
X1360430Y818447D01*
X1360297Y818569D01*
X1360164Y818714D01*
X1360053Y818869D01*
X1360042Y818891D01*
X1360008Y818947D01*
X1359964Y819035D01*
X1359919Y819146D01*
X1359875Y819291D01*
X1359831Y819457D01*
X1359797Y819635D01*
X1359786Y819823D01*
Y819835D01*
Y819846D01*
Y819879D01*
Y819923D01*
X1359808Y820034D01*
X1359831Y820179D01*
X1359864Y820345D01*
X1359919Y820534D01*
X1359997Y820723D01*
X1360108Y820911D01*
Y820922D01*
X1360119Y820933D01*
X1360175Y821000D01*
X1360252Y821089D01*
X1360352Y821200D01*
X1360486Y821322D01*
X1360652Y821455D01*
X1360852Y821577D01*
X1361074Y821688D01*
X1361085D01*
X1361107Y821699D01*
X1361140Y821710D01*
X1361185Y821733D01*
X1361240Y821755D01*
X1361318Y821777D01*
X1361484Y821821D01*
X1361695Y821866D01*
X1361940Y821910D01*
X1362195Y821944D01*
X1362483Y821955D01*
X1362628D01*
X1362705Y821944D01*
D02*
G37*
G36*
X1426263Y814140D02*
X1425319D01*
Y820145D01*
X1425308Y820134D01*
X1425253Y820090D01*
X1425186Y820023D01*
X1425075Y819946D01*
X1424953Y819846D01*
X1424798Y819735D01*
X1424620Y819613D01*
X1424420Y819490D01*
X1424409D01*
X1424398Y819479D01*
X1424332Y819435D01*
X1424220Y819379D01*
X1424087Y819313D01*
X1423932Y819235D01*
X1423765Y819157D01*
X1423599Y819080D01*
X1423432Y819013D01*
Y819923D01*
X1423443D01*
X1423466Y819946D01*
X1423510Y819957D01*
X1423566Y819990D01*
X1423632Y820023D01*
X1423710Y820068D01*
X1423899Y820179D01*
X1424121Y820301D01*
X1424343Y820456D01*
X1424576Y820634D01*
X1424809Y820822D01*
X1424820Y820834D01*
X1424831Y820845D01*
X1424864Y820878D01*
X1424909Y820911D01*
X1425009Y821022D01*
X1425142Y821155D01*
X1425275Y821311D01*
X1425419Y821488D01*
X1425541Y821666D01*
X1425652Y821855D01*
X1426263D01*
Y814140D01*
D02*
G37*
G36*
X1419015Y821810D02*
X1419115D01*
X1419348Y821799D01*
X1419592Y821766D01*
X1419858Y821733D01*
X1420103Y821677D01*
X1420225Y821644D01*
X1420325Y821610D01*
X1420336D01*
X1420347Y821599D01*
X1420413Y821566D01*
X1420513Y821522D01*
X1420635Y821444D01*
X1420768Y821344D01*
X1420913Y821211D01*
X1421046Y821056D01*
X1421179Y820878D01*
Y820867D01*
X1421190Y820856D01*
X1421235Y820789D01*
X1421279Y820678D01*
X1421346Y820534D01*
X1421401Y820367D01*
X1421457Y820167D01*
X1421490Y819957D01*
X1421501Y819724D01*
Y819712D01*
Y819690D01*
Y819646D01*
X1421490Y819590D01*
Y819513D01*
X1421479Y819435D01*
X1421434Y819246D01*
X1421368Y819024D01*
X1421279Y818791D01*
X1421146Y818558D01*
X1421057Y818447D01*
X1420968Y818336D01*
X1420957Y818325D01*
X1420946Y818314D01*
X1420913Y818281D01*
X1420868Y818247D01*
X1420813Y818203D01*
X1420746Y818158D01*
X1420658Y818103D01*
X1420569Y818036D01*
X1420458Y817981D01*
X1420336Y817925D01*
X1420202Y817859D01*
X1420058Y817803D01*
X1419892Y817759D01*
X1419725Y817703D01*
X1419536Y817670D01*
X1419337Y817637D01*
X1419359Y817626D01*
X1419403Y817604D01*
X1419470Y817559D01*
X1419559Y817515D01*
X1419758Y817393D01*
X1419858Y817315D01*
X1419947Y817248D01*
X1419969Y817226D01*
X1420025Y817171D01*
X1420114Y817082D01*
X1420225Y816971D01*
X1420347Y816815D01*
X1420491Y816649D01*
X1420635Y816449D01*
X1420791Y816227D01*
X1422112Y814140D01*
X1420846D01*
X1419836Y815739D01*
Y815750D01*
X1419814Y815772D01*
X1419792Y815805D01*
X1419758Y815850D01*
X1419681Y815972D01*
X1419581Y816127D01*
X1419459Y816294D01*
X1419337Y816471D01*
X1419214Y816638D01*
X1419104Y816793D01*
X1419092Y816804D01*
X1419059Y816849D01*
X1419004Y816915D01*
X1418926Y816993D01*
X1418759Y817160D01*
X1418671Y817237D01*
X1418582Y817304D01*
X1418571Y817315D01*
X1418548Y817326D01*
X1418504Y817348D01*
X1418438Y817382D01*
X1418371Y817415D01*
X1418293Y817448D01*
X1418116Y817504D01*
X1418105D01*
X1418082Y817515D01*
X1418038D01*
X1417982Y817526D01*
X1417905Y817537D01*
X1417816D01*
X1417694Y817548D01*
X1416384D01*
Y814140D01*
X1415363D01*
Y821821D01*
X1418926D01*
X1419015Y821810D01*
D02*
G37*
G36*
X1413554Y814140D02*
X1412532D01*
Y821821D01*
X1413554D01*
Y814140D01*
D02*
G37*
G36*
X1350085Y818170D02*
X1352960Y814140D01*
X1351705D01*
X1349763Y816871D01*
X1349752Y816882D01*
X1349730Y816915D01*
X1349708Y816960D01*
X1349663Y817015D01*
X1349563Y817171D01*
X1349452Y817337D01*
X1349441Y817326D01*
X1349408Y817282D01*
X1349364Y817215D01*
X1349308Y817126D01*
X1349186Y816949D01*
X1349130Y816871D01*
X1349086Y816804D01*
X1347144Y814140D01*
X1345923D01*
X1348886Y818114D01*
X1346267Y821821D01*
X1347477D01*
X1348875Y819846D01*
Y819835D01*
X1348897Y819823D01*
X1348920Y819790D01*
X1348953Y819746D01*
X1349019Y819635D01*
X1349119Y819501D01*
X1349219Y819346D01*
X1349319Y819191D01*
X1349408Y819046D01*
X1349486Y818913D01*
X1349497Y818935D01*
X1349530Y818980D01*
X1349586Y819069D01*
X1349663Y819180D01*
X1349752Y819302D01*
X1349863Y819457D01*
X1349974Y819613D01*
X1350107Y819779D01*
X1351639Y821821D01*
X1352749D01*
X1350085Y818170D01*
D02*
G37*
G36*
X1441081Y814140D02*
X1440027D01*
X1436008Y820167D01*
Y814140D01*
X1435032D01*
Y821821D01*
X1436075D01*
X1440104Y815783D01*
Y821821D01*
X1441081D01*
Y814140D01*
D02*
G37*
G36*
X1345012Y817382D02*
Y817370D01*
Y817326D01*
Y817271D01*
Y817193D01*
X1345001Y817093D01*
Y816982D01*
X1344990Y816849D01*
X1344979Y816715D01*
X1344946Y816416D01*
X1344901Y816105D01*
X1344835Y815805D01*
X1344790Y815661D01*
X1344746Y815528D01*
Y815517D01*
X1344735Y815495D01*
X1344713Y815461D01*
X1344691Y815417D01*
X1344624Y815295D01*
X1344524Y815139D01*
X1344391Y814962D01*
X1344235Y814784D01*
X1344036Y814595D01*
X1343791Y814429D01*
X1343780D01*
X1343758Y814407D01*
X1343725Y814396D01*
X1343669Y814362D01*
X1343603Y814329D01*
X1343514Y814296D01*
X1343425Y814262D01*
X1343314Y814218D01*
X1343192Y814174D01*
X1343059Y814140D01*
X1342914Y814107D01*
X1342748Y814074D01*
X1342581Y814052D01*
X1342404Y814029D01*
X1342004Y814007D01*
X1341904D01*
X1341827Y814018D01*
X1341738D01*
X1341627Y814029D01*
X1341505Y814040D01*
X1341383Y814052D01*
X1341105Y814096D01*
X1340806Y814163D01*
X1340517Y814251D01*
X1340239Y814373D01*
X1340228D01*
X1340206Y814396D01*
X1340173Y814418D01*
X1340128Y814440D01*
X1340006Y814529D01*
X1339862Y814651D01*
X1339695Y814806D01*
X1339540Y814984D01*
X1339385Y815206D01*
X1339263Y815450D01*
Y815461D01*
X1339252Y815483D01*
X1339241Y815528D01*
X1339218Y815583D01*
X1339196Y815650D01*
X1339174Y815739D01*
X1339141Y815839D01*
X1339118Y815961D01*
X1339096Y816094D01*
X1339063Y816238D01*
X1339041Y816394D01*
X1339019Y816560D01*
X1338996Y816749D01*
X1338985Y816949D01*
X1338974Y817160D01*
Y817382D01*
Y821821D01*
X1339995D01*
Y817382D01*
Y817370D01*
Y817337D01*
Y817282D01*
Y817215D01*
X1340006Y817137D01*
Y817037D01*
X1340017Y816826D01*
X1340040Y816582D01*
X1340073Y816338D01*
X1340117Y816105D01*
X1340139Y816005D01*
X1340173Y815905D01*
X1340184Y815883D01*
X1340206Y815827D01*
X1340262Y815750D01*
X1340328Y815639D01*
X1340406Y815528D01*
X1340517Y815406D01*
X1340650Y815284D01*
X1340806Y815184D01*
X1340828Y815173D01*
X1340883Y815139D01*
X1340983Y815106D01*
X1341116Y815062D01*
X1341272Y815006D01*
X1341472Y814973D01*
X1341682Y814939D01*
X1341915Y814928D01*
X1342027D01*
X1342093Y814939D01*
X1342193D01*
X1342293Y814951D01*
X1342537Y814995D01*
X1342803Y815051D01*
X1343059Y815139D01*
X1343303Y815261D01*
X1343414Y815339D01*
X1343514Y815428D01*
X1343525Y815439D01*
X1343536Y815450D01*
X1343558Y815483D01*
X1343592Y815528D01*
X1343625Y815594D01*
X1343669Y815661D01*
X1343714Y815761D01*
X1343758Y815861D01*
X1343802Y815983D01*
X1343836Y816127D01*
X1343880Y816294D01*
X1343914Y816471D01*
X1343947Y816671D01*
X1343969Y816882D01*
X1343991Y817126D01*
Y817382D01*
Y821821D01*
X1345012D01*
Y817382D01*
D02*
G37*
G36*
X1386870Y832393D02*
X1384339D01*
Y825622D01*
X1383318D01*
Y832393D01*
X1380787D01*
Y833303D01*
X1386870D01*
Y832393D01*
D02*
G37*
G36*
X946825Y513842D02*
X943015D01*
Y516382D01*
X946825D01*
Y513842D01*
D02*
G37*
G36*
X1391998Y831183D02*
X1392919D01*
Y830406D01*
X1391842D01*
X1391454Y828497D01*
X1392919D01*
Y827720D01*
X1391287D01*
X1390843Y825489D01*
X1390055D01*
X1390510Y827720D01*
X1388868D01*
X1388413Y825489D01*
X1387636D01*
X1388080Y827720D01*
X1387203D01*
Y828497D01*
X1388246D01*
X1388635Y830406D01*
X1387203D01*
Y831183D01*
X1388790D01*
X1389256Y833436D01*
X1390033D01*
X1389578Y831183D01*
X1391210D01*
X1391676Y833436D01*
X1392464D01*
X1391998Y831183D01*
D02*
G37*
G36*
X1369909Y833425D02*
X1369987D01*
X1370198Y833403D01*
X1370431Y833370D01*
X1370675Y833314D01*
X1370941Y833248D01*
X1371186Y833159D01*
X1371197D01*
X1371219Y833148D01*
X1371252Y833125D01*
X1371297Y833103D01*
X1371408Y833048D01*
X1371552Y832948D01*
X1371718Y832837D01*
X1371885Y832692D01*
X1372040Y832526D01*
X1372185Y832337D01*
Y832326D01*
X1372196Y832315D01*
X1372218Y832282D01*
X1372240Y832249D01*
X1372296Y832138D01*
X1372362Y831993D01*
X1372440Y831816D01*
X1372496Y831605D01*
X1372551Y831383D01*
X1372573Y831139D01*
X1371596Y831061D01*
Y831072D01*
Y831094D01*
X1371585Y831127D01*
X1371574Y831183D01*
X1371541Y831305D01*
X1371496Y831472D01*
X1371430Y831649D01*
X1371330Y831827D01*
X1371208Y831993D01*
X1371053Y832149D01*
X1371030Y832160D01*
X1370975Y832204D01*
X1370864Y832271D01*
X1370719Y832337D01*
X1370531Y832404D01*
X1370309Y832470D01*
X1370031Y832515D01*
X1369720Y832526D01*
X1369565D01*
X1369498Y832515D01*
X1369410Y832504D01*
X1369210Y832482D01*
X1368988Y832437D01*
X1368766Y832382D01*
X1368555Y832293D01*
X1368466Y832237D01*
X1368377Y832182D01*
X1368355Y832171D01*
X1368311Y832126D01*
X1368244Y832049D01*
X1368178Y831960D01*
X1368100Y831838D01*
X1368033Y831705D01*
X1367989Y831549D01*
X1367967Y831372D01*
Y831349D01*
Y831305D01*
X1367978Y831227D01*
X1368000Y831139D01*
X1368033Y831028D01*
X1368089Y830917D01*
X1368155Y830806D01*
X1368255Y830695D01*
X1368266Y830684D01*
X1368322Y830650D01*
X1368366Y830617D01*
X1368411Y830595D01*
X1368477Y830561D01*
X1368555Y830517D01*
X1368655Y830484D01*
X1368766Y830439D01*
X1368888Y830395D01*
X1369032Y830339D01*
X1369188Y830295D01*
X1369365Y830239D01*
X1369565Y830195D01*
X1369787Y830140D01*
X1369798D01*
X1369843Y830128D01*
X1369909Y830117D01*
X1369987Y830095D01*
X1370087Y830073D01*
X1370209Y830040D01*
X1370331Y830006D01*
X1370464Y829973D01*
X1370753Y829895D01*
X1371030Y829818D01*
X1371163Y829773D01*
X1371286Y829729D01*
X1371397Y829696D01*
X1371485Y829651D01*
X1371496D01*
X1371519Y829640D01*
X1371552Y829618D01*
X1371596Y829596D01*
X1371718Y829529D01*
X1371863Y829440D01*
X1372029Y829318D01*
X1372196Y829185D01*
X1372351Y829030D01*
X1372484Y828863D01*
X1372496Y828841D01*
X1372540Y828785D01*
X1372584Y828686D01*
X1372651Y828552D01*
X1372706Y828397D01*
X1372762Y828208D01*
X1372795Y827997D01*
X1372806Y827775D01*
Y827764D01*
Y827753D01*
Y827720D01*
Y827675D01*
X1372784Y827553D01*
X1372762Y827398D01*
X1372717Y827220D01*
X1372662Y827032D01*
X1372573Y826832D01*
X1372451Y826621D01*
Y826610D01*
X1372440Y826599D01*
X1372384Y826532D01*
X1372307Y826432D01*
X1372196Y826321D01*
X1372052Y826188D01*
X1371874Y826044D01*
X1371674Y825911D01*
X1371441Y825788D01*
X1371430D01*
X1371408Y825777D01*
X1371374Y825766D01*
X1371330Y825744D01*
X1371263Y825722D01*
X1371186Y825689D01*
X1371008Y825644D01*
X1370797Y825589D01*
X1370542Y825533D01*
X1370264Y825500D01*
X1369965Y825489D01*
X1369787D01*
X1369698Y825500D01*
X1369598D01*
X1369487Y825511D01*
X1369354Y825522D01*
X1369077Y825566D01*
X1368788Y825611D01*
X1368499Y825689D01*
X1368222Y825788D01*
X1368211D01*
X1368189Y825800D01*
X1368155Y825822D01*
X1368111Y825844D01*
X1367978Y825911D01*
X1367822Y826011D01*
X1367645Y826144D01*
X1367456Y826299D01*
X1367278Y826488D01*
X1367112Y826699D01*
Y826710D01*
X1367090Y826732D01*
X1367079Y826765D01*
X1367045Y826810D01*
X1367023Y826865D01*
X1366990Y826932D01*
X1366912Y827098D01*
X1366835Y827309D01*
X1366768Y827542D01*
X1366724Y827809D01*
X1366701Y828086D01*
X1367656Y828175D01*
Y828164D01*
Y828153D01*
X1367667Y828119D01*
Y828075D01*
X1367689Y827975D01*
X1367722Y827831D01*
X1367767Y827686D01*
X1367811Y827520D01*
X1367889Y827365D01*
X1367967Y827220D01*
X1367978Y827209D01*
X1368011Y827165D01*
X1368067Y827087D01*
X1368155Y827009D01*
X1368266Y826909D01*
X1368389Y826810D01*
X1368555Y826710D01*
X1368733Y826621D01*
X1368744D01*
X1368755Y826610D01*
X1368788Y826599D01*
X1368821Y826588D01*
X1368932Y826554D01*
X1369077Y826510D01*
X1369254Y826466D01*
X1369454Y826432D01*
X1369676Y826410D01*
X1369920Y826399D01*
X1370020D01*
X1370131Y826410D01*
X1370264Y826421D01*
X1370420Y826443D01*
X1370597Y826466D01*
X1370775Y826510D01*
X1370941Y826565D01*
X1370964Y826577D01*
X1371019Y826599D01*
X1371097Y826643D01*
X1371197Y826688D01*
X1371297Y826765D01*
X1371408Y826843D01*
X1371519Y826932D01*
X1371608Y827043D01*
X1371619Y827054D01*
X1371641Y827098D01*
X1371674Y827154D01*
X1371718Y827243D01*
X1371763Y827331D01*
X1371796Y827442D01*
X1371818Y827564D01*
X1371830Y827698D01*
Y827709D01*
Y827764D01*
X1371818Y827831D01*
X1371807Y827920D01*
X1371774Y828008D01*
X1371741Y828119D01*
X1371685Y828230D01*
X1371608Y828330D01*
X1371596Y828341D01*
X1371563Y828375D01*
X1371519Y828419D01*
X1371441Y828486D01*
X1371352Y828552D01*
X1371230Y828630D01*
X1371086Y828708D01*
X1370919Y828774D01*
X1370908Y828785D01*
X1370853Y828796D01*
X1370764Y828830D01*
X1370708Y828841D01*
X1370631Y828863D01*
X1370553Y828896D01*
X1370453Y828919D01*
X1370342Y828952D01*
X1370209Y828985D01*
X1370076Y829018D01*
X1369920Y829063D01*
X1369743Y829107D01*
X1369554Y829152D01*
X1369543D01*
X1369510Y829163D01*
X1369454Y829174D01*
X1369388Y829196D01*
X1369299Y829218D01*
X1369199Y829240D01*
X1368977Y829307D01*
X1368733Y829385D01*
X1368477Y829463D01*
X1368255Y829540D01*
X1368155Y829585D01*
X1368067Y829629D01*
X1368056D01*
X1368044Y829640D01*
X1367978Y829685D01*
X1367878Y829740D01*
X1367767Y829829D01*
X1367634Y829929D01*
X1367500Y830051D01*
X1367367Y830195D01*
X1367256Y830350D01*
X1367245Y830373D01*
X1367212Y830428D01*
X1367168Y830517D01*
X1367123Y830628D01*
X1367079Y830772D01*
X1367034Y830939D01*
X1367001Y831116D01*
X1366990Y831305D01*
Y831316D01*
Y831327D01*
Y831361D01*
Y831405D01*
X1367012Y831516D01*
X1367034Y831660D01*
X1367068Y831827D01*
X1367123Y832016D01*
X1367201Y832204D01*
X1367312Y832393D01*
Y832404D01*
X1367323Y832415D01*
X1367378Y832482D01*
X1367456Y832570D01*
X1367556Y832681D01*
X1367689Y832803D01*
X1367856Y832937D01*
X1368056Y833059D01*
X1368277Y833170D01*
X1368289D01*
X1368311Y833181D01*
X1368344Y833192D01*
X1368389Y833214D01*
X1368444Y833236D01*
X1368522Y833259D01*
X1368688Y833303D01*
X1368899Y833347D01*
X1369143Y833392D01*
X1369399Y833425D01*
X1369687Y833436D01*
X1369832D01*
X1369909Y833425D01*
D02*
G37*
G36*
X931825Y598678D02*
X928015D01*
X928015Y601218D01*
X931825D01*
X931825Y598678D01*
D02*
G37*
G36*
X906272Y548125D02*
X903732D01*
Y551935D01*
X906272D01*
Y548125D01*
D02*
G37*
G36*
X991108Y543125D02*
X988568Y543125D01*
Y546935D01*
X991108Y546935D01*
Y543125D01*
D02*
G37*
G36*
X1334767Y833425D02*
X1334867Y833414D01*
X1334989Y833403D01*
X1335111Y833392D01*
X1335256Y833359D01*
X1335555Y833292D01*
X1335888Y833192D01*
X1336055Y833125D01*
X1336210Y833048D01*
X1336366Y832948D01*
X1336521Y832848D01*
X1336532Y832837D01*
X1336554Y832826D01*
X1336599Y832792D01*
X1336654Y832737D01*
X1336710Y832681D01*
X1336787Y832604D01*
X1336865Y832515D01*
X1336954Y832426D01*
X1337043Y832315D01*
X1337132Y832182D01*
X1337231Y832049D01*
X1337320Y831905D01*
X1337398Y831738D01*
X1337487Y831572D01*
X1337553Y831394D01*
X1337620Y831194D01*
X1336621Y830961D01*
Y830972D01*
X1336610Y830994D01*
X1336588Y831039D01*
X1336565Y831094D01*
X1336543Y831161D01*
X1336510Y831250D01*
X1336421Y831427D01*
X1336310Y831627D01*
X1336177Y831827D01*
X1336010Y832016D01*
X1335833Y832182D01*
X1335811Y832204D01*
X1335744Y832249D01*
X1335633Y832304D01*
X1335489Y832382D01*
X1335300Y832448D01*
X1335089Y832515D01*
X1334834Y832559D01*
X1334556Y832570D01*
X1334467D01*
X1334412Y832559D01*
X1334334D01*
X1334245Y832548D01*
X1334035Y832515D01*
X1333802Y832470D01*
X1333557Y832393D01*
X1333302Y832282D01*
X1333069Y832138D01*
X1333058D01*
X1333047Y832115D01*
X1332969Y832060D01*
X1332869Y831971D01*
X1332747Y831838D01*
X1332603Y831671D01*
X1332470Y831483D01*
X1332348Y831250D01*
X1332236Y830994D01*
Y830983D01*
X1332225Y830961D01*
X1332214Y830928D01*
X1332203Y830872D01*
X1332181Y830806D01*
X1332159Y830728D01*
X1332126Y830539D01*
X1332081Y830317D01*
X1332037Y830073D01*
X1332014Y829807D01*
X1332003Y829518D01*
Y829507D01*
Y829474D01*
Y829418D01*
Y829352D01*
X1332014Y829274D01*
Y829174D01*
X1332026Y829063D01*
X1332037Y828941D01*
X1332070Y828674D01*
X1332126Y828386D01*
X1332192Y828097D01*
X1332281Y827809D01*
Y827797D01*
X1332292Y827775D01*
X1332314Y827742D01*
X1332336Y827686D01*
X1332403Y827553D01*
X1332503Y827398D01*
X1332625Y827220D01*
X1332780Y827032D01*
X1332958Y826865D01*
X1333169Y826710D01*
X1333180D01*
X1333202Y826699D01*
X1333235Y826676D01*
X1333280Y826654D01*
X1333335Y826632D01*
X1333402Y826599D01*
X1333557Y826532D01*
X1333757Y826466D01*
X1333979Y826410D01*
X1334223Y826366D01*
X1334479Y826355D01*
X1334556D01*
X1334623Y826366D01*
X1334701D01*
X1334778Y826377D01*
X1334978Y826421D01*
X1335211Y826477D01*
X1335444Y826565D01*
X1335688Y826688D01*
X1335811Y826754D01*
X1335922Y826843D01*
X1335933Y826854D01*
X1335944Y826865D01*
X1335977Y826898D01*
X1336022Y826932D01*
X1336066Y826987D01*
X1336121Y827054D01*
X1336188Y827120D01*
X1336243Y827209D01*
X1336310Y827309D01*
X1336388Y827420D01*
X1336454Y827531D01*
X1336521Y827664D01*
X1336577Y827809D01*
X1336632Y827964D01*
X1336687Y828130D01*
X1336732Y828308D01*
X1337753Y828053D01*
Y828042D01*
X1337742Y827997D01*
X1337720Y827931D01*
X1337686Y827842D01*
X1337653Y827742D01*
X1337609Y827620D01*
X1337553Y827487D01*
X1337487Y827342D01*
X1337331Y827032D01*
X1337132Y826721D01*
X1337009Y826565D01*
X1336887Y826410D01*
X1336754Y826277D01*
X1336599Y826144D01*
X1336588Y826133D01*
X1336565Y826110D01*
X1336510Y826088D01*
X1336454Y826044D01*
X1336366Y825988D01*
X1336277Y825933D01*
X1336155Y825877D01*
X1336033Y825822D01*
X1335888Y825755D01*
X1335733Y825700D01*
X1335566Y825644D01*
X1335389Y825589D01*
X1335200Y825544D01*
X1335000Y825522D01*
X1334789Y825500D01*
X1334567Y825489D01*
X1334445D01*
X1334357Y825500D01*
X1334257D01*
X1334135Y825511D01*
X1334001Y825533D01*
X1333846Y825555D01*
X1333524Y825611D01*
X1333191Y825700D01*
X1332858Y825822D01*
X1332703Y825900D01*
X1332547Y825988D01*
X1332536Y825999D01*
X1332514Y826011D01*
X1332470Y826044D01*
X1332425Y826088D01*
X1332359Y826133D01*
X1332281Y826199D01*
X1332192Y826277D01*
X1332103Y826366D01*
X1332014Y826466D01*
X1331915Y826565D01*
X1331715Y826821D01*
X1331526Y827120D01*
X1331360Y827453D01*
Y827465D01*
X1331337Y827498D01*
X1331326Y827553D01*
X1331293Y827620D01*
X1331271Y827709D01*
X1331237Y827820D01*
X1331193Y827942D01*
X1331160Y828075D01*
X1331127Y828219D01*
X1331082Y828386D01*
X1331027Y828730D01*
X1330982Y829118D01*
X1330960Y829518D01*
Y829529D01*
Y829574D01*
Y829640D01*
X1330971Y829718D01*
Y829829D01*
X1330982Y829940D01*
X1330993Y830084D01*
X1331015Y830228D01*
X1331071Y830550D01*
X1331149Y830906D01*
X1331260Y831261D01*
X1331415Y831605D01*
X1331426Y831616D01*
X1331437Y831649D01*
X1331460Y831694D01*
X1331504Y831749D01*
X1331548Y831827D01*
X1331604Y831916D01*
X1331748Y832115D01*
X1331937Y832337D01*
X1332159Y832559D01*
X1332414Y832781D01*
X1332714Y832970D01*
X1332725Y832981D01*
X1332758Y832992D01*
X1332803Y833014D01*
X1332858Y833048D01*
X1332947Y833081D01*
X1333036Y833114D01*
X1333147Y833159D01*
X1333269Y833203D01*
X1333402Y833248D01*
X1333546Y833292D01*
X1333857Y833359D01*
X1334212Y833414D01*
X1334579Y833436D01*
X1334689D01*
X1334767Y833425D01*
D02*
G37*
G36*
X1415374Y825622D02*
X1414353D01*
Y833303D01*
X1415374D01*
Y825622D01*
D02*
G37*
G36*
X1413365D02*
X1412211D01*
X1411311Y827953D01*
X1408092D01*
X1407260Y825622D01*
X1406183D01*
X1409114Y833303D01*
X1410224D01*
X1413365Y825622D01*
D02*
G37*
G36*
X1403186Y833292D02*
X1403375Y833281D01*
X1403575Y833270D01*
X1403764Y833248D01*
X1403930Y833225D01*
X1403952D01*
X1404030Y833203D01*
X1404130Y833181D01*
X1404263Y833148D01*
X1404407Y833092D01*
X1404563Y833026D01*
X1404729Y832948D01*
X1404874Y832859D01*
X1404896Y832848D01*
X1404940Y832815D01*
X1405007Y832748D01*
X1405096Y832670D01*
X1405195Y832570D01*
X1405295Y832437D01*
X1405406Y832293D01*
X1405495Y832126D01*
X1405506Y832104D01*
X1405529Y832049D01*
X1405573Y831949D01*
X1405617Y831816D01*
X1405651Y831660D01*
X1405695Y831483D01*
X1405717Y831283D01*
X1405728Y831072D01*
Y831061D01*
Y831028D01*
Y830983D01*
X1405717Y830906D01*
X1405706Y830828D01*
X1405695Y830728D01*
X1405673Y830617D01*
X1405651Y830495D01*
X1405573Y830239D01*
X1405529Y830106D01*
X1405462Y829962D01*
X1405384Y829818D01*
X1405307Y829685D01*
X1405207Y829551D01*
X1405096Y829418D01*
X1405085Y829407D01*
X1405062Y829385D01*
X1405029Y829352D01*
X1404973Y829318D01*
X1404907Y829263D01*
X1404818Y829207D01*
X1404707Y829141D01*
X1404585Y829085D01*
X1404441Y829018D01*
X1404274Y828952D01*
X1404097Y828896D01*
X1403886Y828852D01*
X1403664Y828808D01*
X1403419Y828774D01*
X1403142Y828752D01*
X1402853Y828741D01*
X1400889D01*
Y825622D01*
X1399868D01*
Y833303D01*
X1403020D01*
X1403186Y833292D01*
D02*
G37*
G36*
X1440182D02*
X1440371Y833281D01*
X1440571Y833270D01*
X1440759Y833248D01*
X1440926Y833225D01*
X1440948D01*
X1441026Y833203D01*
X1441125Y833181D01*
X1441259Y833148D01*
X1441403Y833092D01*
X1441558Y833026D01*
X1441725Y832948D01*
X1441869Y832859D01*
X1441891Y832848D01*
X1441936Y832815D01*
X1442002Y832748D01*
X1442091Y832670D01*
X1442191Y832570D01*
X1442291Y832437D01*
X1442402Y832293D01*
X1442491Y832126D01*
X1442502Y832104D01*
X1442524Y832049D01*
X1442569Y831949D01*
X1442613Y831816D01*
X1442646Y831660D01*
X1442691Y831483D01*
X1442713Y831283D01*
X1442724Y831072D01*
Y831061D01*
Y831028D01*
Y830983D01*
X1442713Y830906D01*
X1442702Y830828D01*
X1442691Y830728D01*
X1442668Y830617D01*
X1442646Y830495D01*
X1442569Y830239D01*
X1442524Y830106D01*
X1442457Y829962D01*
X1442380Y829818D01*
X1442302Y829685D01*
X1442202Y829551D01*
X1442091Y829418D01*
X1442080Y829407D01*
X1442058Y829385D01*
X1442025Y829352D01*
X1441969Y829318D01*
X1441902Y829263D01*
X1441814Y829207D01*
X1441703Y829141D01*
X1441581Y829085D01*
X1441436Y829018D01*
X1441270Y828952D01*
X1441092Y828896D01*
X1440881Y828852D01*
X1440659Y828808D01*
X1440415Y828774D01*
X1440138Y828752D01*
X1439849Y828741D01*
X1437884D01*
Y825622D01*
X1436863D01*
Y833303D01*
X1440016D01*
X1440182Y833292D01*
D02*
G37*
G36*
X1427262Y833325D02*
X1427351Y833314D01*
X1427462Y833303D01*
X1427584Y833281D01*
X1427706Y833259D01*
X1427995Y833181D01*
X1428283Y833070D01*
X1428427Y833003D01*
X1428572Y832926D01*
X1428705Y832826D01*
X1428827Y832715D01*
X1428838Y832704D01*
X1428860Y832692D01*
X1428882Y832648D01*
X1428927Y832604D01*
X1428982Y832548D01*
X1429038Y832470D01*
X1429093Y832393D01*
X1429160Y832293D01*
X1429271Y832082D01*
X1429382Y831816D01*
X1429426Y831683D01*
X1429449Y831527D01*
X1429471Y831372D01*
X1429482Y831205D01*
Y831183D01*
Y831127D01*
X1429471Y831039D01*
X1429460Y830917D01*
X1429437Y830783D01*
X1429393Y830628D01*
X1429349Y830462D01*
X1429282Y830295D01*
X1429271Y830273D01*
X1429249Y830217D01*
X1429204Y830128D01*
X1429138Y830006D01*
X1429049Y829873D01*
X1428938Y829707D01*
X1428805Y829540D01*
X1428649Y829352D01*
X1428627Y829329D01*
X1428572Y829263D01*
X1428516Y829207D01*
X1428461Y829152D01*
X1428394Y829085D01*
X1428305Y828996D01*
X1428216Y828907D01*
X1428105Y828808D01*
X1427995Y828697D01*
X1427861Y828575D01*
X1427717Y828452D01*
X1427562Y828308D01*
X1427384Y828164D01*
X1427206Y828008D01*
X1427195Y827997D01*
X1427173Y827975D01*
X1427129Y827942D01*
X1427073Y827897D01*
X1427007Y827831D01*
X1426929Y827764D01*
X1426751Y827620D01*
X1426563Y827453D01*
X1426385Y827287D01*
X1426230Y827143D01*
X1426163Y827087D01*
X1426107Y827032D01*
X1426096Y827020D01*
X1426063Y826987D01*
X1426019Y826943D01*
X1425963Y826876D01*
X1425908Y826798D01*
X1425841Y826721D01*
X1425708Y826532D01*
X1429493D01*
Y825622D01*
X1424398D01*
Y825633D01*
Y825677D01*
Y825744D01*
X1424409Y825833D01*
X1424420Y825933D01*
X1424442Y826044D01*
X1424465Y826155D01*
X1424509Y826277D01*
Y826288D01*
X1424520Y826299D01*
X1424542Y826366D01*
X1424587Y826466D01*
X1424653Y826599D01*
X1424742Y826754D01*
X1424853Y826932D01*
X1424975Y827109D01*
X1425131Y827298D01*
Y827309D01*
X1425153Y827320D01*
X1425208Y827387D01*
X1425308Y827487D01*
X1425453Y827631D01*
X1425619Y827797D01*
X1425830Y827997D01*
X1426085Y828219D01*
X1426363Y828452D01*
X1426374Y828464D01*
X1426418Y828497D01*
X1426485Y828552D01*
X1426563Y828619D01*
X1426662Y828708D01*
X1426785Y828808D01*
X1426907Y828919D01*
X1427051Y829041D01*
X1427328Y829307D01*
X1427606Y829574D01*
X1427739Y829707D01*
X1427861Y829840D01*
X1427972Y829962D01*
X1428061Y830084D01*
Y830095D01*
X1428083Y830106D01*
X1428105Y830140D01*
X1428128Y830184D01*
X1428205Y830306D01*
X1428294Y830450D01*
X1428372Y830628D01*
X1428450Y830817D01*
X1428494Y831028D01*
X1428516Y831227D01*
Y831238D01*
Y831250D01*
X1428505Y831316D01*
X1428494Y831427D01*
X1428461Y831549D01*
X1428416Y831705D01*
X1428338Y831860D01*
X1428239Y832016D01*
X1428105Y832171D01*
X1428083Y832193D01*
X1428028Y832237D01*
X1427950Y832293D01*
X1427828Y832371D01*
X1427673Y832437D01*
X1427495Y832504D01*
X1427284Y832548D01*
X1427051Y832559D01*
X1426984D01*
X1426940Y832548D01*
X1426807Y832537D01*
X1426651Y832504D01*
X1426485Y832459D01*
X1426296Y832382D01*
X1426119Y832282D01*
X1425952Y832149D01*
X1425930Y832126D01*
X1425885Y832071D01*
X1425819Y831982D01*
X1425752Y831849D01*
X1425675Y831694D01*
X1425608Y831494D01*
X1425564Y831272D01*
X1425541Y831016D01*
X1424576Y831116D01*
Y831127D01*
X1424587Y831161D01*
Y831216D01*
X1424598Y831294D01*
X1424620Y831383D01*
X1424642Y831483D01*
X1424676Y831605D01*
X1424709Y831727D01*
X1424798Y831993D01*
X1424931Y832260D01*
X1425009Y832393D01*
X1425108Y832526D01*
X1425208Y832648D01*
X1425319Y832759D01*
X1425331Y832770D01*
X1425353Y832781D01*
X1425386Y832815D01*
X1425441Y832848D01*
X1425508Y832892D01*
X1425586Y832937D01*
X1425675Y832992D01*
X1425786Y833048D01*
X1425908Y833103D01*
X1426041Y833159D01*
X1426185Y833203D01*
X1426341Y833248D01*
X1426507Y833281D01*
X1426685Y833314D01*
X1426873Y833325D01*
X1427073Y833336D01*
X1427184D01*
X1427262Y833325D01*
D02*
G37*
G36*
X1420835Y833292D02*
X1420935D01*
X1421168Y833281D01*
X1421412Y833248D01*
X1421679Y833214D01*
X1421923Y833159D01*
X1422045Y833125D01*
X1422145Y833092D01*
X1422156D01*
X1422167Y833081D01*
X1422234Y833048D01*
X1422334Y833003D01*
X1422456Y832926D01*
X1422589Y832826D01*
X1422733Y832692D01*
X1422866Y832537D01*
X1423000Y832359D01*
Y832348D01*
X1423011Y832337D01*
X1423055Y832271D01*
X1423099Y832160D01*
X1423166Y832016D01*
X1423221Y831849D01*
X1423277Y831649D01*
X1423310Y831438D01*
X1423321Y831205D01*
Y831194D01*
Y831172D01*
Y831127D01*
X1423310Y831072D01*
Y830994D01*
X1423299Y830917D01*
X1423255Y830728D01*
X1423188Y830506D01*
X1423099Y830273D01*
X1422966Y830040D01*
X1422877Y829929D01*
X1422789Y829818D01*
X1422778Y829807D01*
X1422766Y829796D01*
X1422733Y829762D01*
X1422689Y829729D01*
X1422633Y829685D01*
X1422567Y829640D01*
X1422478Y829585D01*
X1422389Y829518D01*
X1422278Y829463D01*
X1422156Y829407D01*
X1422023Y829340D01*
X1421879Y829285D01*
X1421712Y829240D01*
X1421546Y829185D01*
X1421357Y829152D01*
X1421157Y829118D01*
X1421179Y829107D01*
X1421224Y829085D01*
X1421290Y829041D01*
X1421379Y828996D01*
X1421579Y828874D01*
X1421679Y828796D01*
X1421767Y828730D01*
X1421790Y828708D01*
X1421845Y828652D01*
X1421934Y828563D01*
X1422045Y828452D01*
X1422167Y828297D01*
X1422311Y828130D01*
X1422456Y827931D01*
X1422611Y827709D01*
X1423932Y825622D01*
X1422666D01*
X1421656Y827220D01*
Y827231D01*
X1421634Y827254D01*
X1421612Y827287D01*
X1421579Y827331D01*
X1421501Y827453D01*
X1421401Y827609D01*
X1421279Y827775D01*
X1421157Y827953D01*
X1421035Y828119D01*
X1420924Y828275D01*
X1420913Y828286D01*
X1420880Y828330D01*
X1420824Y828397D01*
X1420746Y828475D01*
X1420580Y828641D01*
X1420491Y828719D01*
X1420402Y828785D01*
X1420391Y828796D01*
X1420369Y828808D01*
X1420325Y828830D01*
X1420258Y828863D01*
X1420191Y828896D01*
X1420114Y828930D01*
X1419936Y828985D01*
X1419925D01*
X1419903Y828996D01*
X1419858D01*
X1419803Y829007D01*
X1419725Y829018D01*
X1419636D01*
X1419514Y829030D01*
X1418204D01*
Y825622D01*
X1417183D01*
Y833303D01*
X1420746D01*
X1420835Y833292D01*
D02*
G37*
G36*
X1338142Y814140D02*
X1336987D01*
X1336088Y816471D01*
X1332869D01*
X1332037Y814140D01*
X1330960D01*
X1333890Y821821D01*
X1335000D01*
X1338142Y814140D01*
D02*
G37*
G36*
X1401366Y821810D02*
X1401555Y821799D01*
X1401754Y821788D01*
X1401943Y821766D01*
X1402110Y821744D01*
X1402132D01*
X1402210Y821721D01*
X1402310Y821699D01*
X1402443Y821666D01*
X1402587Y821610D01*
X1402742Y821544D01*
X1402909Y821466D01*
X1403053Y821377D01*
X1403075Y821366D01*
X1403120Y821333D01*
X1403186Y821266D01*
X1403275Y821189D01*
X1403375Y821089D01*
X1403475Y820956D01*
X1403586Y820811D01*
X1403675Y820645D01*
X1403686Y820623D01*
X1403708Y820567D01*
X1403752Y820467D01*
X1403797Y820334D01*
X1403830Y820179D01*
X1403875Y820001D01*
X1403897Y819801D01*
X1403908Y819590D01*
Y819579D01*
Y819546D01*
Y819501D01*
X1403897Y819424D01*
X1403886Y819346D01*
X1403875Y819246D01*
X1403852Y819135D01*
X1403830Y819013D01*
X1403752Y818758D01*
X1403708Y818625D01*
X1403642Y818480D01*
X1403564Y818336D01*
X1403486Y818203D01*
X1403386Y818070D01*
X1403275Y817936D01*
X1403264Y817925D01*
X1403242Y817903D01*
X1403209Y817870D01*
X1403153Y817837D01*
X1403087Y817781D01*
X1402998Y817726D01*
X1402887Y817659D01*
X1402765Y817604D01*
X1402620Y817537D01*
X1402454Y817470D01*
X1402276Y817415D01*
X1402065Y817370D01*
X1401843Y817326D01*
X1401599Y817293D01*
X1401322Y817271D01*
X1401033Y817259D01*
X1399068D01*
Y814140D01*
X1398047D01*
Y821821D01*
X1401199D01*
X1401366Y821810D01*
D02*
G37*
G36*
X1411544Y814140D02*
X1410390D01*
X1409491Y816471D01*
X1406272D01*
X1405440Y814140D01*
X1404363D01*
X1407293Y821821D01*
X1408403D01*
X1411544Y814140D01*
D02*
G37*
G36*
X1372573Y820911D02*
X1368033D01*
Y818569D01*
X1372285D01*
Y817659D01*
X1368033D01*
Y815051D01*
X1372751D01*
Y814140D01*
X1367012D01*
Y821821D01*
X1372573D01*
Y820911D01*
D02*
G37*
G36*
X1375137Y815051D02*
X1378922D01*
Y814140D01*
X1374116D01*
Y821821D01*
X1375137D01*
Y815051D01*
D02*
G37*
G36*
X1350085Y806788D02*
X1352960Y802759D01*
X1351705D01*
X1349763Y805489D01*
X1349752Y805500D01*
X1349730Y805534D01*
X1349708Y805578D01*
X1349663Y805633D01*
X1349563Y805789D01*
X1349452Y805955D01*
X1349441Y805944D01*
X1349408Y805900D01*
X1349364Y805833D01*
X1349308Y805744D01*
X1349186Y805567D01*
X1349130Y805489D01*
X1349086Y805423D01*
X1347144Y802759D01*
X1345923D01*
X1348886Y806732D01*
X1346267Y810440D01*
X1347477D01*
X1348875Y808464D01*
Y808453D01*
X1348897Y808442D01*
X1348920Y808408D01*
X1348953Y808364D01*
X1349019Y808253D01*
X1349119Y808120D01*
X1349219Y807964D01*
X1349319Y807809D01*
X1349408Y807665D01*
X1349486Y807532D01*
X1349497Y807554D01*
X1349530Y807598D01*
X1349586Y807687D01*
X1349663Y807798D01*
X1349752Y807920D01*
X1349863Y808075D01*
X1349974Y808231D01*
X1350107Y808397D01*
X1351639Y810440D01*
X1352749D01*
X1350085Y806788D01*
D02*
G37*
G36*
X1434321Y812009D02*
X1428072D01*
Y812686D01*
X1434321D01*
Y812009D01*
D02*
G37*
G36*
X1437762Y810429D02*
X1437951Y810417D01*
X1438151Y810406D01*
X1438340Y810384D01*
X1438506Y810362D01*
X1438528D01*
X1438606Y810340D01*
X1438706Y810318D01*
X1438839Y810284D01*
X1438983Y810229D01*
X1439139Y810162D01*
X1439305Y810085D01*
X1439449Y809996D01*
X1439472Y809985D01*
X1439516Y809951D01*
X1439583Y809885D01*
X1439671Y809807D01*
X1439771Y809707D01*
X1439871Y809574D01*
X1439982Y809430D01*
X1440071Y809263D01*
X1440082Y809241D01*
X1440104Y809185D01*
X1440149Y809085D01*
X1440193Y808952D01*
X1440226Y808797D01*
X1440271Y808619D01*
X1440293Y808419D01*
X1440304Y808209D01*
Y808197D01*
Y808164D01*
Y808120D01*
X1440293Y808042D01*
X1440282Y807964D01*
X1440271Y807865D01*
X1440249Y807754D01*
X1440226Y807631D01*
X1440149Y807376D01*
X1440104Y807243D01*
X1440038Y807099D01*
X1439960Y806954D01*
X1439882Y806821D01*
X1439782Y806688D01*
X1439671Y806555D01*
X1439660Y806544D01*
X1439638Y806521D01*
X1439605Y806488D01*
X1439549Y806455D01*
X1439483Y806399D01*
X1439394Y806344D01*
X1439283Y806277D01*
X1439161Y806222D01*
X1439017Y806155D01*
X1438850Y806088D01*
X1438672Y806033D01*
X1438462Y805989D01*
X1438240Y805944D01*
X1437995Y805911D01*
X1437718Y805889D01*
X1437429Y805878D01*
X1435465D01*
Y802759D01*
X1434443D01*
Y810440D01*
X1437596D01*
X1437762Y810429D01*
D02*
G37*
G36*
X1425663Y802759D02*
X1424720D01*
Y808764D01*
X1424709Y808753D01*
X1424653Y808708D01*
X1424587Y808642D01*
X1424476Y808564D01*
X1424354Y808464D01*
X1424198Y808353D01*
X1424021Y808231D01*
X1423821Y808109D01*
X1423810D01*
X1423799Y808098D01*
X1423732Y808053D01*
X1423621Y807998D01*
X1423488Y807931D01*
X1423333Y807853D01*
X1423166Y807776D01*
X1423000Y807698D01*
X1422833Y807631D01*
Y808542D01*
X1422844D01*
X1422866Y808564D01*
X1422911Y808575D01*
X1422966Y808608D01*
X1423033Y808642D01*
X1423111Y808686D01*
X1423299Y808797D01*
X1423521Y808919D01*
X1423743Y809074D01*
X1423976Y809252D01*
X1424209Y809441D01*
X1424220Y809452D01*
X1424232Y809463D01*
X1424265Y809496D01*
X1424309Y809529D01*
X1424409Y809641D01*
X1424542Y809774D01*
X1424676Y809929D01*
X1424820Y810107D01*
X1424942Y810284D01*
X1425053Y810473D01*
X1425663D01*
Y802759D01*
D02*
G37*
G36*
X1418415Y810429D02*
X1418515D01*
X1418748Y810417D01*
X1418992Y810384D01*
X1419259Y810351D01*
X1419503Y810295D01*
X1419625Y810262D01*
X1419725Y810229D01*
X1419736D01*
X1419747Y810218D01*
X1419814Y810184D01*
X1419914Y810140D01*
X1420036Y810062D01*
X1420169Y809962D01*
X1420313Y809829D01*
X1420447Y809674D01*
X1420580Y809496D01*
Y809485D01*
X1420591Y809474D01*
X1420635Y809407D01*
X1420680Y809296D01*
X1420746Y809152D01*
X1420802Y808986D01*
X1420857Y808786D01*
X1420891Y808575D01*
X1420902Y808342D01*
Y808331D01*
Y808308D01*
Y808264D01*
X1420891Y808209D01*
Y808131D01*
X1420880Y808053D01*
X1420835Y807865D01*
X1420768Y807643D01*
X1420680Y807409D01*
X1420547Y807176D01*
X1420458Y807065D01*
X1420369Y806954D01*
X1420358Y806943D01*
X1420347Y806932D01*
X1420313Y806899D01*
X1420269Y806865D01*
X1420213Y806821D01*
X1420147Y806777D01*
X1420058Y806721D01*
X1419969Y806655D01*
X1419858Y806599D01*
X1419736Y806544D01*
X1419603Y806477D01*
X1419459Y806422D01*
X1419292Y806377D01*
X1419126Y806322D01*
X1418937Y806288D01*
X1418737Y806255D01*
X1418759Y806244D01*
X1418804Y806222D01*
X1418870Y806177D01*
X1418959Y806133D01*
X1419159Y806011D01*
X1419259Y805933D01*
X1419348Y805866D01*
X1419370Y805844D01*
X1419425Y805789D01*
X1419514Y805700D01*
X1419625Y805589D01*
X1419747Y805434D01*
X1419892Y805267D01*
X1420036Y805067D01*
X1420191Y804845D01*
X1421512Y802759D01*
X1420247D01*
X1419237Y804357D01*
Y804368D01*
X1419214Y804390D01*
X1419192Y804424D01*
X1419159Y804468D01*
X1419081Y804590D01*
X1418981Y804745D01*
X1418859Y804912D01*
X1418737Y805090D01*
X1418615Y805256D01*
X1418504Y805411D01*
X1418493Y805423D01*
X1418460Y805467D01*
X1418404Y805534D01*
X1418327Y805611D01*
X1418160Y805778D01*
X1418071Y805855D01*
X1417982Y805922D01*
X1417971Y805933D01*
X1417949Y805944D01*
X1417905Y805966D01*
X1417838Y806000D01*
X1417771Y806033D01*
X1417694Y806066D01*
X1417516Y806122D01*
X1417505D01*
X1417483Y806133D01*
X1417439D01*
X1417383Y806144D01*
X1417305Y806155D01*
X1417216D01*
X1417094Y806166D01*
X1415785D01*
Y802759D01*
X1414763D01*
Y810440D01*
X1418327D01*
X1418415Y810429D01*
D02*
G37*
G36*
X1365880Y802759D02*
X1364825D01*
X1360807Y808786D01*
Y802759D01*
X1359831D01*
Y810440D01*
X1360874D01*
X1364903Y804401D01*
Y810440D01*
X1365880D01*
Y802759D01*
D02*
G37*
G36*
X1359120Y812009D02*
X1352871D01*
Y812686D01*
X1359120D01*
Y812009D01*
D02*
G37*
G36*
X1345012Y806000D02*
Y805989D01*
Y805944D01*
Y805889D01*
Y805811D01*
X1345001Y805711D01*
Y805600D01*
X1344990Y805467D01*
X1344979Y805334D01*
X1344946Y805034D01*
X1344901Y804723D01*
X1344835Y804424D01*
X1344790Y804279D01*
X1344746Y804146D01*
Y804135D01*
X1344735Y804113D01*
X1344713Y804080D01*
X1344691Y804035D01*
X1344624Y803913D01*
X1344524Y803758D01*
X1344391Y803580D01*
X1344235Y803402D01*
X1344036Y803214D01*
X1343791Y803047D01*
X1343780D01*
X1343758Y803025D01*
X1343725Y803014D01*
X1343669Y802981D01*
X1343603Y802947D01*
X1343514Y802914D01*
X1343425Y802881D01*
X1343314Y802836D01*
X1343192Y802792D01*
X1343059Y802759D01*
X1342914Y802725D01*
X1342748Y802692D01*
X1342581Y802670D01*
X1342404Y802648D01*
X1342004Y802625D01*
X1341904D01*
X1341827Y802636D01*
X1341738D01*
X1341627Y802648D01*
X1341505Y802659D01*
X1341383Y802670D01*
X1341105Y802714D01*
X1340806Y802781D01*
X1340517Y802870D01*
X1340239Y802992D01*
X1340228D01*
X1340206Y803014D01*
X1340173Y803036D01*
X1340128Y803058D01*
X1340006Y803147D01*
X1339862Y803269D01*
X1339695Y803425D01*
X1339540Y803602D01*
X1339385Y803824D01*
X1339263Y804068D01*
Y804080D01*
X1339252Y804102D01*
X1339241Y804146D01*
X1339218Y804202D01*
X1339196Y804268D01*
X1339174Y804357D01*
X1339141Y804457D01*
X1339118Y804579D01*
X1339096Y804712D01*
X1339063Y804856D01*
X1339041Y805012D01*
X1339019Y805178D01*
X1338996Y805367D01*
X1338985Y805567D01*
X1338974Y805778D01*
Y806000D01*
Y810440D01*
X1339995D01*
Y806000D01*
Y805989D01*
Y805955D01*
Y805900D01*
Y805833D01*
X1340006Y805755D01*
Y805656D01*
X1340017Y805445D01*
X1340040Y805201D01*
X1340073Y804956D01*
X1340117Y804723D01*
X1340139Y804623D01*
X1340173Y804523D01*
X1340184Y804501D01*
X1340206Y804446D01*
X1340262Y804368D01*
X1340328Y804257D01*
X1340406Y804146D01*
X1340517Y804024D01*
X1340650Y803902D01*
X1340806Y803802D01*
X1340828Y803791D01*
X1340883Y803758D01*
X1340983Y803724D01*
X1341116Y803680D01*
X1341272Y803624D01*
X1341472Y803591D01*
X1341682Y803558D01*
X1341915Y803547D01*
X1342027D01*
X1342093Y803558D01*
X1342193D01*
X1342293Y803569D01*
X1342537Y803613D01*
X1342803Y803669D01*
X1343059Y803758D01*
X1343303Y803880D01*
X1343414Y803957D01*
X1343514Y804046D01*
X1343525Y804057D01*
X1343536Y804068D01*
X1343558Y804102D01*
X1343592Y804146D01*
X1343625Y804213D01*
X1343669Y804279D01*
X1343714Y804379D01*
X1343758Y804479D01*
X1343802Y804601D01*
X1343836Y804745D01*
X1343880Y804912D01*
X1343914Y805090D01*
X1343947Y805289D01*
X1343969Y805500D01*
X1343991Y805744D01*
Y806000D01*
Y810440D01*
X1345012D01*
Y806000D01*
D02*
G37*
%LPC*%
G36*
X1438584Y786766D02*
X1436386D01*
Y784024D01*
X1438450D01*
X1438528Y784035D01*
X1438606D01*
X1438695Y784046D01*
X1438906Y784069D01*
X1439139Y784113D01*
X1439372Y784180D01*
X1439583Y784268D01*
X1439682Y784324D01*
X1439760Y784391D01*
X1439782Y784413D01*
X1439827Y784457D01*
X1439893Y784546D01*
X1439971Y784657D01*
X1440049Y784801D01*
X1440115Y784979D01*
X1440160Y785179D01*
X1440182Y785412D01*
Y785423D01*
Y785434D01*
Y785490D01*
X1440171Y785589D01*
X1440149Y785700D01*
X1440126Y785823D01*
X1440082Y785967D01*
X1440016Y786100D01*
X1439938Y786233D01*
X1439927Y786244D01*
X1439893Y786289D01*
X1439838Y786344D01*
X1439771Y786422D01*
X1439671Y786500D01*
X1439560Y786566D01*
X1439438Y786633D01*
X1439294Y786688D01*
X1439283D01*
X1439238Y786699D01*
X1439172Y786711D01*
X1439083Y786733D01*
X1438950Y786744D01*
X1438784Y786755D01*
X1438584Y786766D01*
D02*
G37*
G36*
X1419126Y786822D02*
X1416706D01*
Y784280D01*
X1418992D01*
X1419126Y784291D01*
X1419281Y784302D01*
X1419459Y784313D01*
X1419636Y784335D01*
X1419814Y784368D01*
X1419969Y784413D01*
X1419991Y784424D01*
X1420036Y784446D01*
X1420103Y784479D01*
X1420191Y784524D01*
X1420291Y784590D01*
X1420391Y784668D01*
X1420491Y784768D01*
X1420569Y784879D01*
X1420580Y784890D01*
X1420602Y784934D01*
X1420635Y785001D01*
X1420680Y785090D01*
X1420713Y785190D01*
X1420746Y785301D01*
X1420768Y785434D01*
X1420780Y785567D01*
Y785578D01*
Y785589D01*
X1420768Y785656D01*
X1420757Y785756D01*
X1420735Y785889D01*
X1420680Y786022D01*
X1420613Y786178D01*
X1420513Y786322D01*
X1420380Y786466D01*
X1420358Y786477D01*
X1420302Y786522D01*
X1420213Y786577D01*
X1420069Y786644D01*
X1419903Y786711D01*
X1419681Y786766D01*
X1419425Y786810D01*
X1419126Y786822D01*
D02*
G37*
G36*
X1427007Y798314D02*
X1426940D01*
X1426896Y798303D01*
X1426774Y798281D01*
X1426629Y798248D01*
X1426463Y798181D01*
X1426285Y798081D01*
X1426196Y798015D01*
X1426107Y797948D01*
X1426030Y797859D01*
X1425952Y797759D01*
Y797748D01*
X1425930Y797726D01*
X1425908Y797682D01*
X1425874Y797626D01*
X1425841Y797537D01*
X1425797Y797437D01*
X1425763Y797315D01*
X1425719Y797171D01*
X1425675Y797004D01*
X1425630Y796816D01*
X1425586Y796605D01*
X1425553Y796372D01*
X1425519Y796105D01*
X1425497Y795817D01*
X1425486Y795506D01*
X1425475Y795162D01*
Y795140D01*
Y795084D01*
Y794984D01*
X1425486Y794851D01*
Y794707D01*
X1425497Y794529D01*
X1425508Y794341D01*
X1425530Y794141D01*
X1425586Y793708D01*
X1425619Y793497D01*
X1425663Y793297D01*
X1425708Y793108D01*
X1425775Y792931D01*
X1425841Y792775D01*
X1425919Y792642D01*
Y792631D01*
X1425941Y792620D01*
X1425997Y792542D01*
X1426096Y792442D01*
X1426219Y792331D01*
X1426385Y792220D01*
X1426574Y792121D01*
X1426785Y792043D01*
X1426896Y792032D01*
X1427018Y792021D01*
X1427084D01*
X1427129Y792032D01*
X1427240Y792054D01*
X1427395Y792098D01*
X1427562Y792176D01*
X1427750Y792287D01*
X1427839Y792354D01*
X1427928Y792442D01*
X1428017Y792531D01*
X1428105Y792642D01*
Y792653D01*
X1428128Y792675D01*
X1428150Y792709D01*
X1428172Y792764D01*
X1428216Y792842D01*
X1428250Y792942D01*
X1428294Y793053D01*
X1428338Y793186D01*
X1428372Y793353D01*
X1428416Y793530D01*
X1428461Y793741D01*
X1428494Y793963D01*
X1428516Y794230D01*
X1428538Y794507D01*
X1428560Y794818D01*
Y795162D01*
Y795173D01*
Y795184D01*
Y795240D01*
Y795340D01*
X1428549Y795473D01*
Y795617D01*
X1428538Y795795D01*
X1428527Y795983D01*
X1428505Y796194D01*
X1428450Y796616D01*
X1428416Y796827D01*
X1428372Y797027D01*
X1428327Y797215D01*
X1428261Y797393D01*
X1428194Y797548D01*
X1428116Y797682D01*
Y797693D01*
X1428094Y797704D01*
X1428072Y797737D01*
X1428039Y797781D01*
X1427939Y797881D01*
X1427817Y798003D01*
X1427650Y798114D01*
X1427462Y798214D01*
X1427362Y798259D01*
X1427251Y798292D01*
X1427129Y798303D01*
X1427007Y798314D01*
D02*
G37*
G36*
X1425530Y786933D02*
X1425464D01*
X1425419Y786921D01*
X1425297Y786899D01*
X1425153Y786866D01*
X1424986Y786799D01*
X1424809Y786699D01*
X1424720Y786633D01*
X1424631Y786566D01*
X1424554Y786477D01*
X1424476Y786377D01*
Y786366D01*
X1424454Y786344D01*
X1424431Y786300D01*
X1424398Y786244D01*
X1424365Y786155D01*
X1424320Y786056D01*
X1424287Y785934D01*
X1424243Y785789D01*
X1424198Y785623D01*
X1424154Y785434D01*
X1424109Y785223D01*
X1424076Y784990D01*
X1424043Y784724D01*
X1424021Y784435D01*
X1424010Y784124D01*
X1423999Y783780D01*
Y783758D01*
Y783702D01*
Y783603D01*
X1424010Y783469D01*
Y783325D01*
X1424021Y783148D01*
X1424032Y782959D01*
X1424054Y782759D01*
X1424109Y782326D01*
X1424143Y782115D01*
X1424187Y781915D01*
X1424232Y781727D01*
X1424298Y781549D01*
X1424365Y781394D01*
X1424442Y781261D01*
Y781249D01*
X1424465Y781238D01*
X1424520Y781161D01*
X1424620Y781061D01*
X1424742Y780950D01*
X1424909Y780839D01*
X1425097Y780739D01*
X1425308Y780661D01*
X1425419Y780650D01*
X1425541Y780639D01*
X1425608D01*
X1425652Y780650D01*
X1425763Y780672D01*
X1425919Y780717D01*
X1426085Y780794D01*
X1426274Y780905D01*
X1426363Y780972D01*
X1426452Y781061D01*
X1426540Y781150D01*
X1426629Y781261D01*
Y781272D01*
X1426651Y781294D01*
X1426674Y781327D01*
X1426696Y781383D01*
X1426740Y781460D01*
X1426774Y781560D01*
X1426818Y781671D01*
X1426862Y781804D01*
X1426896Y781971D01*
X1426940Y782149D01*
X1426984Y782359D01*
X1427018Y782581D01*
X1427040Y782848D01*
X1427062Y783125D01*
X1427084Y783436D01*
Y783780D01*
Y783791D01*
Y783802D01*
Y783858D01*
Y783958D01*
X1427073Y784091D01*
Y784235D01*
X1427062Y784413D01*
X1427051Y784602D01*
X1427029Y784812D01*
X1426973Y785234D01*
X1426940Y785445D01*
X1426896Y785645D01*
X1426851Y785834D01*
X1426785Y786011D01*
X1426718Y786167D01*
X1426640Y786300D01*
Y786311D01*
X1426618Y786322D01*
X1426596Y786355D01*
X1426563Y786400D01*
X1426463Y786500D01*
X1426341Y786622D01*
X1426174Y786733D01*
X1425985Y786833D01*
X1425885Y786877D01*
X1425775Y786910D01*
X1425652Y786921D01*
X1425530Y786933D01*
D02*
G37*
G36*
X1341893Y786766D02*
X1339695D01*
Y784024D01*
X1341760D01*
X1341838Y784035D01*
X1341915D01*
X1342004Y784046D01*
X1342215Y784069D01*
X1342448Y784113D01*
X1342681Y784180D01*
X1342892Y784268D01*
X1342992Y784324D01*
X1343070Y784391D01*
X1343092Y784413D01*
X1343136Y784457D01*
X1343203Y784546D01*
X1343281Y784657D01*
X1343358Y784801D01*
X1343425Y784979D01*
X1343470Y785179D01*
X1343492Y785412D01*
Y785423D01*
Y785434D01*
Y785490D01*
X1343481Y785589D01*
X1343458Y785700D01*
X1343436Y785823D01*
X1343392Y785967D01*
X1343325Y786100D01*
X1343248Y786233D01*
X1343236Y786244D01*
X1343203Y786289D01*
X1343148Y786344D01*
X1343081Y786422D01*
X1342981Y786500D01*
X1342870Y786566D01*
X1342748Y786633D01*
X1342604Y786688D01*
X1342593D01*
X1342548Y786699D01*
X1342482Y786711D01*
X1342393Y786733D01*
X1342260Y786744D01*
X1342093Y786755D01*
X1341893Y786766D01*
D02*
G37*
G36*
X1408148Y786877D02*
Y786866D01*
X1408137Y786844D01*
Y786799D01*
X1408115Y786755D01*
X1408104Y786677D01*
X1408081Y786600D01*
X1408037Y786411D01*
X1407982Y786189D01*
X1407904Y785945D01*
X1407826Y785678D01*
X1407726Y785401D01*
X1406894Y783159D01*
X1409491D01*
X1408692Y785267D01*
Y785279D01*
X1408681Y785312D01*
X1408659Y785367D01*
X1408636Y785434D01*
X1408603Y785512D01*
X1408570Y785612D01*
X1408537Y785723D01*
X1408492Y785834D01*
X1408403Y786089D01*
X1408315Y786355D01*
X1408226Y786622D01*
X1408148Y786877D01*
D02*
G37*
G36*
X1401588Y786766D02*
X1399390D01*
Y784024D01*
X1401455D01*
X1401532Y784035D01*
X1401610D01*
X1401699Y784046D01*
X1401910Y784069D01*
X1402143Y784113D01*
X1402376Y784180D01*
X1402587Y784268D01*
X1402687Y784324D01*
X1402765Y784391D01*
X1402787Y784413D01*
X1402831Y784457D01*
X1402898Y784546D01*
X1402975Y784657D01*
X1403053Y784801D01*
X1403120Y784979D01*
X1403164Y785179D01*
X1403186Y785412D01*
Y785423D01*
Y785434D01*
Y785490D01*
X1403175Y785589D01*
X1403153Y785700D01*
X1403131Y785823D01*
X1403087Y785967D01*
X1403020Y786100D01*
X1402942Y786233D01*
X1402931Y786244D01*
X1402898Y786289D01*
X1402842Y786344D01*
X1402776Y786422D01*
X1402676Y786500D01*
X1402565Y786566D01*
X1402443Y786633D01*
X1402298Y786688D01*
X1402287D01*
X1402243Y786699D01*
X1402176Y786711D01*
X1402088Y786733D01*
X1401954Y786744D01*
X1401788Y786755D01*
X1401588Y786766D01*
D02*
G37*
G36*
X1348631D02*
X1346855D01*
Y780905D01*
X1348675D01*
X1348753Y780916D01*
X1348920Y780928D01*
X1349108Y780939D01*
X1349308Y780961D01*
X1349508Y780994D01*
X1349674Y781039D01*
X1349697Y781050D01*
X1349752Y781061D01*
X1349830Y781094D01*
X1349930Y781138D01*
X1350041Y781205D01*
X1350152Y781272D01*
X1350263Y781349D01*
X1350374Y781438D01*
X1350385Y781460D01*
X1350429Y781505D01*
X1350496Y781582D01*
X1350573Y781693D01*
X1350662Y781838D01*
X1350762Y782004D01*
X1350851Y782193D01*
X1350928Y782404D01*
Y782415D01*
X1350940Y782437D01*
X1350951Y782470D01*
X1350962Y782515D01*
X1350973Y782570D01*
X1350995Y782648D01*
X1351017Y782726D01*
X1351039Y782814D01*
X1351073Y783036D01*
X1351106Y783292D01*
X1351128Y783580D01*
X1351139Y783891D01*
Y783902D01*
Y783947D01*
Y784002D01*
X1351128Y784091D01*
Y784191D01*
X1351117Y784302D01*
X1351106Y784435D01*
X1351095Y784568D01*
X1351039Y784868D01*
X1350973Y785179D01*
X1350873Y785467D01*
X1350806Y785612D01*
X1350740Y785734D01*
Y785745D01*
X1350718Y785767D01*
X1350695Y785800D01*
X1350673Y785845D01*
X1350584Y785956D01*
X1350473Y786089D01*
X1350329Y786233D01*
X1350163Y786377D01*
X1349974Y786500D01*
X1349774Y786600D01*
X1349752Y786611D01*
X1349697Y786622D01*
X1349597Y786655D01*
X1349452Y786688D01*
X1349275Y786711D01*
X1349053Y786744D01*
X1348920Y786755D01*
X1348775D01*
X1348631Y786766D01*
D02*
G37*
G36*
X1407227Y809641D02*
Y809629D01*
X1407216Y809607D01*
Y809563D01*
X1407193Y809518D01*
X1407182Y809441D01*
X1407160Y809363D01*
X1407116Y809174D01*
X1407060Y808952D01*
X1406983Y808708D01*
X1406905Y808442D01*
X1406805Y808164D01*
X1405972Y805922D01*
X1408570D01*
X1407771Y808031D01*
Y808042D01*
X1407760Y808075D01*
X1407737Y808131D01*
X1407715Y808197D01*
X1407682Y808275D01*
X1407648Y808375D01*
X1407615Y808486D01*
X1407571Y808597D01*
X1407482Y808852D01*
X1407393Y809119D01*
X1407304Y809385D01*
X1407227Y809641D01*
D02*
G37*
G36*
X1400667Y809529D02*
X1398469D01*
Y806788D01*
X1400533D01*
X1400611Y806799D01*
X1400689D01*
X1400778Y806810D01*
X1400989Y806832D01*
X1401222Y806877D01*
X1401455Y806943D01*
X1401666Y807032D01*
X1401766Y807087D01*
X1401843Y807154D01*
X1401866Y807176D01*
X1401910Y807221D01*
X1401976Y807309D01*
X1402054Y807421D01*
X1402132Y807565D01*
X1402198Y807742D01*
X1402243Y807942D01*
X1402265Y808175D01*
Y808186D01*
Y808197D01*
Y808253D01*
X1402254Y808353D01*
X1402232Y808464D01*
X1402210Y808586D01*
X1402165Y808730D01*
X1402099Y808864D01*
X1402021Y808997D01*
X1402010Y809008D01*
X1401976Y809052D01*
X1401921Y809108D01*
X1401854Y809185D01*
X1401754Y809263D01*
X1401644Y809330D01*
X1401521Y809396D01*
X1401377Y809452D01*
X1401366D01*
X1401322Y809463D01*
X1401255Y809474D01*
X1401166Y809496D01*
X1401033Y809507D01*
X1400867Y809518D01*
X1400667Y809529D01*
D02*
G37*
G36*
X1334423Y809641D02*
Y809629D01*
X1334412Y809607D01*
Y809563D01*
X1334390Y809518D01*
X1334379Y809441D01*
X1334357Y809363D01*
X1334312Y809174D01*
X1334257Y808952D01*
X1334179Y808708D01*
X1334101Y808442D01*
X1334001Y808164D01*
X1333169Y805922D01*
X1335766D01*
X1334967Y808031D01*
Y808042D01*
X1334956Y808075D01*
X1334934Y808131D01*
X1334911Y808197D01*
X1334878Y808275D01*
X1334845Y808375D01*
X1334812Y808486D01*
X1334767Y808597D01*
X1334678Y808852D01*
X1334590Y809119D01*
X1334501Y809385D01*
X1334423Y809641D01*
D02*
G37*
G36*
X1403064Y798148D02*
X1400867D01*
Y795406D01*
X1402931D01*
X1403009Y795417D01*
X1403087D01*
X1403175Y795428D01*
X1403386Y795451D01*
X1403619Y795495D01*
X1403852Y795562D01*
X1404063Y795650D01*
X1404163Y795706D01*
X1404241Y795772D01*
X1404263Y795795D01*
X1404308Y795839D01*
X1404374Y795928D01*
X1404452Y796039D01*
X1404530Y796183D01*
X1404596Y796361D01*
X1404641Y796561D01*
X1404663Y796794D01*
Y796805D01*
Y796816D01*
Y796871D01*
X1404652Y796971D01*
X1404629Y797082D01*
X1404607Y797204D01*
X1404563Y797348D01*
X1404496Y797482D01*
X1404418Y797615D01*
X1404407Y797626D01*
X1404374Y797670D01*
X1404319Y797726D01*
X1404252Y797804D01*
X1404152Y797881D01*
X1404041Y797948D01*
X1403919Y798015D01*
X1403775Y798070D01*
X1403764D01*
X1403719Y798081D01*
X1403653Y798092D01*
X1403564Y798114D01*
X1403431Y798126D01*
X1403264Y798137D01*
X1403064Y798148D01*
D02*
G37*
G36*
X1363061D02*
X1360863D01*
Y795406D01*
X1362927D01*
X1363005Y795417D01*
X1363083D01*
X1363172Y795428D01*
X1363383Y795451D01*
X1363616Y795495D01*
X1363849Y795562D01*
X1364060Y795650D01*
X1364160Y795706D01*
X1364237Y795772D01*
X1364259Y795795D01*
X1364304Y795839D01*
X1364370Y795928D01*
X1364448Y796039D01*
X1364526Y796183D01*
X1364592Y796361D01*
X1364637Y796561D01*
X1364659Y796794D01*
Y796805D01*
Y796816D01*
Y796871D01*
X1364648Y796971D01*
X1364626Y797082D01*
X1364603Y797204D01*
X1364559Y797348D01*
X1364492Y797482D01*
X1364415Y797615D01*
X1364404Y797626D01*
X1364370Y797670D01*
X1364315Y797726D01*
X1364248Y797804D01*
X1364148Y797881D01*
X1364037Y797948D01*
X1363915Y798015D01*
X1363771Y798070D01*
X1363760D01*
X1363716Y798081D01*
X1363649Y798092D01*
X1363560Y798114D01*
X1363427Y798126D01*
X1363260Y798137D01*
X1363061Y798148D01*
D02*
G37*
G36*
X1334423Y798259D02*
Y798248D01*
X1334412Y798225D01*
Y798181D01*
X1334390Y798137D01*
X1334379Y798059D01*
X1334357Y797981D01*
X1334312Y797793D01*
X1334257Y797570D01*
X1334179Y797326D01*
X1334101Y797060D01*
X1334001Y796783D01*
X1333169Y794540D01*
X1335766D01*
X1334967Y796649D01*
Y796660D01*
X1334956Y796694D01*
X1334934Y796749D01*
X1334911Y796816D01*
X1334878Y796893D01*
X1334845Y796993D01*
X1334812Y797104D01*
X1334767Y797215D01*
X1334678Y797471D01*
X1334590Y797737D01*
X1334501Y798003D01*
X1334423Y798259D01*
D02*
G37*
G36*
X1409624D02*
Y798248D01*
X1409613Y798225D01*
Y798181D01*
X1409591Y798137D01*
X1409580Y798059D01*
X1409558Y797981D01*
X1409513Y797793D01*
X1409458Y797570D01*
X1409380Y797326D01*
X1409302Y797060D01*
X1409203Y796783D01*
X1408370Y794540D01*
X1410967D01*
X1410168Y796649D01*
Y796660D01*
X1410157Y796694D01*
X1410135Y796749D01*
X1410113Y796816D01*
X1410079Y796893D01*
X1410046Y796993D01*
X1410013Y797104D01*
X1409968Y797215D01*
X1409880Y797471D01*
X1409791Y797737D01*
X1409702Y798003D01*
X1409624Y798259D01*
D02*
G37*
G36*
X1420602Y798203D02*
X1418182D01*
Y795661D01*
X1420469D01*
X1420602Y795673D01*
X1420757Y795684D01*
X1420935Y795695D01*
X1421113Y795717D01*
X1421290Y795750D01*
X1421446Y795795D01*
X1421468Y795806D01*
X1421512Y795828D01*
X1421579Y795861D01*
X1421668Y795906D01*
X1421767Y795972D01*
X1421867Y796050D01*
X1421967Y796150D01*
X1422045Y796261D01*
X1422056Y796272D01*
X1422078Y796316D01*
X1422112Y796383D01*
X1422156Y796472D01*
X1422189Y796572D01*
X1422223Y796683D01*
X1422245Y796816D01*
X1422256Y796949D01*
Y796960D01*
Y796971D01*
X1422245Y797038D01*
X1422234Y797138D01*
X1422211Y797271D01*
X1422156Y797404D01*
X1422089Y797559D01*
X1421989Y797704D01*
X1421856Y797848D01*
X1421834Y797859D01*
X1421779Y797904D01*
X1421690Y797959D01*
X1421546Y798026D01*
X1421379Y798092D01*
X1421157Y798148D01*
X1420902Y798192D01*
X1420602Y798203D01*
D02*
G37*
G36*
X1340739Y764014D02*
Y764003D01*
X1340728Y763980D01*
Y763936D01*
X1340706Y763892D01*
X1340694Y763814D01*
X1340672Y763736D01*
X1340628Y763547D01*
X1340572Y763325D01*
X1340495Y763081D01*
X1340417Y762815D01*
X1340317Y762537D01*
X1339485Y760295D01*
X1342082D01*
X1341283Y762404D01*
Y762415D01*
X1341272Y762449D01*
X1341250Y762504D01*
X1341227Y762571D01*
X1341194Y762648D01*
X1341161Y762748D01*
X1341127Y762859D01*
X1341083Y762970D01*
X1340994Y763225D01*
X1340905Y763492D01*
X1340817Y763758D01*
X1340739Y764014D01*
D02*
G37*
G36*
X1334179Y763903D02*
X1331981D01*
Y761161D01*
X1334046D01*
X1334123Y761172D01*
X1334201D01*
X1334290Y761183D01*
X1334501Y761205D01*
X1334734Y761250D01*
X1334967Y761316D01*
X1335178Y761405D01*
X1335278Y761461D01*
X1335356Y761527D01*
X1335378Y761550D01*
X1335422Y761594D01*
X1335489Y761683D01*
X1335566Y761794D01*
X1335644Y761938D01*
X1335711Y762115D01*
X1335755Y762315D01*
X1335777Y762548D01*
Y762560D01*
Y762571D01*
Y762626D01*
X1335766Y762726D01*
X1335744Y762837D01*
X1335722Y762959D01*
X1335677Y763103D01*
X1335611Y763237D01*
X1335533Y763370D01*
X1335522Y763381D01*
X1335489Y763425D01*
X1335433Y763481D01*
X1335367Y763559D01*
X1335267Y763636D01*
X1335156Y763703D01*
X1335034Y763769D01*
X1334889Y763825D01*
X1334878D01*
X1334834Y763836D01*
X1334767Y763847D01*
X1334678Y763869D01*
X1334545Y763880D01*
X1334379Y763892D01*
X1334179Y763903D01*
D02*
G37*
G36*
X1340739Y752632D02*
Y752621D01*
X1340728Y752599D01*
Y752554D01*
X1340706Y752510D01*
X1340694Y752432D01*
X1340672Y752354D01*
X1340628Y752166D01*
X1340572Y751944D01*
X1340495Y751700D01*
X1340417Y751433D01*
X1340317Y751156D01*
X1339485Y748913D01*
X1342082D01*
X1341283Y751022D01*
Y751033D01*
X1341272Y751067D01*
X1341250Y751122D01*
X1341227Y751189D01*
X1341194Y751267D01*
X1341161Y751367D01*
X1341127Y751478D01*
X1341083Y751589D01*
X1340994Y751844D01*
X1340905Y752110D01*
X1340817Y752377D01*
X1340739Y752632D01*
D02*
G37*
G36*
X1334179Y752521D02*
X1331981D01*
Y749779D01*
X1334046D01*
X1334123Y749790D01*
X1334201D01*
X1334290Y749801D01*
X1334501Y749824D01*
X1334734Y749868D01*
X1334967Y749935D01*
X1335178Y750023D01*
X1335278Y750079D01*
X1335356Y750145D01*
X1335378Y750168D01*
X1335422Y750212D01*
X1335489Y750301D01*
X1335566Y750412D01*
X1335644Y750556D01*
X1335711Y750734D01*
X1335755Y750934D01*
X1335777Y751167D01*
Y751178D01*
Y751189D01*
Y751244D01*
X1335766Y751344D01*
X1335744Y751455D01*
X1335722Y751577D01*
X1335677Y751722D01*
X1335611Y751855D01*
X1335533Y751988D01*
X1335522Y751999D01*
X1335489Y752044D01*
X1335433Y752099D01*
X1335367Y752177D01*
X1335267Y752254D01*
X1335156Y752321D01*
X1335034Y752388D01*
X1334889Y752443D01*
X1334878D01*
X1334834Y752454D01*
X1334767Y752465D01*
X1334678Y752488D01*
X1334545Y752499D01*
X1334379Y752510D01*
X1334179Y752521D01*
D02*
G37*
G36*
X1351717Y752576D02*
X1349297D01*
Y750034D01*
X1351583D01*
X1351717Y750046D01*
X1351872Y750057D01*
X1352050Y750068D01*
X1352227Y750090D01*
X1352405Y750123D01*
X1352560Y750168D01*
X1352582Y750179D01*
X1352627Y750201D01*
X1352693Y750234D01*
X1352782Y750279D01*
X1352882Y750345D01*
X1352982Y750423D01*
X1353082Y750523D01*
X1353160Y750634D01*
X1353171Y750645D01*
X1353193Y750689D01*
X1353226Y750756D01*
X1353271Y750845D01*
X1353304Y750945D01*
X1353337Y751056D01*
X1353359Y751189D01*
X1353371Y751322D01*
Y751333D01*
Y751344D01*
X1353359Y751411D01*
X1353348Y751511D01*
X1353326Y751644D01*
X1353271Y751777D01*
X1353204Y751933D01*
X1353104Y752077D01*
X1352971Y752221D01*
X1352949Y752232D01*
X1352893Y752277D01*
X1352804Y752332D01*
X1352660Y752399D01*
X1352494Y752465D01*
X1352272Y752521D01*
X1352016Y752565D01*
X1351717Y752576D01*
D02*
G37*
G36*
X1340739Y775395D02*
Y775384D01*
X1340728Y775362D01*
Y775318D01*
X1340706Y775273D01*
X1340694Y775196D01*
X1340672Y775118D01*
X1340628Y774929D01*
X1340572Y774707D01*
X1340495Y774463D01*
X1340417Y774197D01*
X1340317Y773919D01*
X1339485Y771677D01*
X1342082D01*
X1341283Y773786D01*
Y773797D01*
X1341272Y773830D01*
X1341250Y773886D01*
X1341227Y773952D01*
X1341194Y774030D01*
X1341161Y774130D01*
X1341127Y774241D01*
X1341083Y774352D01*
X1340994Y774607D01*
X1340905Y774874D01*
X1340817Y775140D01*
X1340739Y775395D01*
D02*
G37*
G36*
X1334179Y775284D02*
X1331981D01*
Y772543D01*
X1334046D01*
X1334123Y772554D01*
X1334201D01*
X1334290Y772565D01*
X1334501Y772587D01*
X1334734Y772632D01*
X1334967Y772698D01*
X1335178Y772787D01*
X1335278Y772842D01*
X1335356Y772909D01*
X1335378Y772931D01*
X1335422Y772976D01*
X1335489Y773064D01*
X1335566Y773175D01*
X1335644Y773320D01*
X1335711Y773497D01*
X1335755Y773697D01*
X1335777Y773930D01*
Y773941D01*
Y773952D01*
Y774008D01*
X1335766Y774108D01*
X1335744Y774219D01*
X1335722Y774341D01*
X1335677Y774485D01*
X1335611Y774618D01*
X1335533Y774752D01*
X1335522Y774763D01*
X1335489Y774807D01*
X1335433Y774863D01*
X1335367Y774940D01*
X1335267Y775018D01*
X1335156Y775085D01*
X1335034Y775151D01*
X1334889Y775207D01*
X1334878D01*
X1334834Y775218D01*
X1334767Y775229D01*
X1334678Y775251D01*
X1334545Y775262D01*
X1334379Y775273D01*
X1334179Y775284D01*
D02*
G37*
G36*
X1351717Y775340D02*
X1349297D01*
Y772798D01*
X1351583D01*
X1351717Y772809D01*
X1351872Y772820D01*
X1352050Y772831D01*
X1352227Y772853D01*
X1352405Y772887D01*
X1352560Y772931D01*
X1352582Y772942D01*
X1352627Y772964D01*
X1352693Y772998D01*
X1352782Y773042D01*
X1352882Y773109D01*
X1352982Y773186D01*
X1353082Y773286D01*
X1353160Y773397D01*
X1353171Y773409D01*
X1353193Y773453D01*
X1353226Y773520D01*
X1353271Y773608D01*
X1353304Y773708D01*
X1353337Y773819D01*
X1353359Y773952D01*
X1353371Y774086D01*
Y774097D01*
Y774108D01*
X1353359Y774174D01*
X1353348Y774274D01*
X1353326Y774408D01*
X1353271Y774541D01*
X1353204Y774696D01*
X1353104Y774840D01*
X1352971Y774985D01*
X1352949Y774996D01*
X1352893Y775040D01*
X1352804Y775096D01*
X1352660Y775162D01*
X1352494Y775229D01*
X1352272Y775284D01*
X1352016Y775329D01*
X1351717Y775340D01*
D02*
G37*
G36*
X1418482Y775284D02*
X1416706D01*
Y769424D01*
X1418526D01*
X1418604Y769435D01*
X1418770Y769446D01*
X1418959Y769457D01*
X1419159Y769479D01*
X1419359Y769512D01*
X1419525Y769557D01*
X1419547Y769568D01*
X1419603Y769579D01*
X1419681Y769612D01*
X1419781Y769657D01*
X1419892Y769723D01*
X1420003Y769790D01*
X1420114Y769868D01*
X1420225Y769956D01*
X1420236Y769979D01*
X1420280Y770023D01*
X1420347Y770101D01*
X1420424Y770212D01*
X1420513Y770356D01*
X1420613Y770523D01*
X1420702Y770711D01*
X1420780Y770922D01*
Y770933D01*
X1420791Y770955D01*
X1420802Y770989D01*
X1420813Y771033D01*
X1420824Y771089D01*
X1420846Y771166D01*
X1420868Y771244D01*
X1420891Y771333D01*
X1420924Y771555D01*
X1420957Y771810D01*
X1420979Y772099D01*
X1420990Y772410D01*
Y772421D01*
Y772465D01*
Y772521D01*
X1420979Y772609D01*
Y772709D01*
X1420968Y772820D01*
X1420957Y772953D01*
X1420946Y773087D01*
X1420891Y773386D01*
X1420824Y773697D01*
X1420724Y773986D01*
X1420658Y774130D01*
X1420591Y774252D01*
Y774263D01*
X1420569Y774285D01*
X1420547Y774319D01*
X1420524Y774363D01*
X1420435Y774474D01*
X1420325Y774607D01*
X1420180Y774752D01*
X1420014Y774896D01*
X1419825Y775018D01*
X1419625Y775118D01*
X1419603Y775129D01*
X1419547Y775140D01*
X1419448Y775173D01*
X1419303Y775207D01*
X1419126Y775229D01*
X1418904Y775262D01*
X1418770Y775273D01*
X1418626D01*
X1418482Y775284D01*
D02*
G37*
G36*
X1371175Y763903D02*
X1368977D01*
Y761161D01*
X1371041D01*
X1371119Y761172D01*
X1371197D01*
X1371286Y761183D01*
X1371496Y761205D01*
X1371730Y761250D01*
X1371963Y761316D01*
X1372174Y761405D01*
X1372274Y761461D01*
X1372351Y761527D01*
X1372373Y761550D01*
X1372418Y761594D01*
X1372484Y761683D01*
X1372562Y761794D01*
X1372640Y761938D01*
X1372706Y762115D01*
X1372751Y762315D01*
X1372773Y762548D01*
Y762560D01*
Y762571D01*
Y762626D01*
X1372762Y762726D01*
X1372740Y762837D01*
X1372717Y762959D01*
X1372673Y763103D01*
X1372606Y763237D01*
X1372529Y763370D01*
X1372518Y763381D01*
X1372484Y763425D01*
X1372429Y763481D01*
X1372362Y763559D01*
X1372262Y763636D01*
X1372151Y763703D01*
X1372029Y763769D01*
X1371885Y763825D01*
X1371874D01*
X1371830Y763836D01*
X1371763Y763847D01*
X1371674Y763869D01*
X1371541Y763880D01*
X1371374Y763892D01*
X1371175Y763903D01*
D02*
G37*
G36*
X1351717Y763958D02*
X1349297D01*
Y761416D01*
X1351583D01*
X1351717Y761427D01*
X1351872Y761439D01*
X1352050Y761450D01*
X1352227Y761472D01*
X1352405Y761505D01*
X1352560Y761550D01*
X1352582Y761561D01*
X1352627Y761583D01*
X1352693Y761616D01*
X1352782Y761661D01*
X1352882Y761727D01*
X1352982Y761805D01*
X1353082Y761905D01*
X1353160Y762016D01*
X1353171Y762027D01*
X1353193Y762071D01*
X1353226Y762138D01*
X1353271Y762226D01*
X1353304Y762326D01*
X1353337Y762437D01*
X1353359Y762571D01*
X1353371Y762704D01*
Y762715D01*
Y762726D01*
X1353359Y762793D01*
X1353348Y762893D01*
X1353326Y763026D01*
X1353271Y763159D01*
X1353204Y763314D01*
X1353104Y763459D01*
X1352971Y763603D01*
X1352949Y763614D01*
X1352893Y763658D01*
X1352804Y763714D01*
X1352660Y763781D01*
X1352494Y763847D01*
X1352272Y763903D01*
X1352016Y763947D01*
X1351717Y763958D01*
D02*
G37*
G36*
X1342004Y829174D02*
X1339984D01*
Y826532D01*
X1342171D01*
X1342404Y826543D01*
X1342504Y826554D01*
X1342593Y826565D01*
X1342604D01*
X1342648Y826577D01*
X1342715Y826588D01*
X1342792Y826610D01*
X1342981Y826676D01*
X1343170Y826765D01*
X1343181Y826776D01*
X1343214Y826798D01*
X1343259Y826832D01*
X1343314Y826876D01*
X1343370Y826943D01*
X1343447Y827009D01*
X1343503Y827098D01*
X1343569Y827198D01*
X1343580Y827209D01*
X1343592Y827243D01*
X1343614Y827309D01*
X1343647Y827387D01*
X1343680Y827476D01*
X1343703Y827587D01*
X1343714Y827720D01*
X1343725Y827853D01*
Y827875D01*
Y827920D01*
X1343714Y828008D01*
X1343692Y828108D01*
X1343669Y828219D01*
X1343625Y828341D01*
X1343569Y828464D01*
X1343492Y828586D01*
X1343481Y828597D01*
X1343447Y828641D01*
X1343403Y828697D01*
X1343336Y828763D01*
X1343248Y828841D01*
X1343136Y828919D01*
X1343014Y828985D01*
X1342870Y829041D01*
X1342848Y829052D01*
X1342803Y829063D01*
X1342704Y829085D01*
X1342581Y829107D01*
X1342426Y829129D01*
X1342237Y829152D01*
X1342004Y829174D01*
D02*
G37*
G36*
X1341805Y832393D02*
X1339984D01*
Y830084D01*
X1341871D01*
X1342015Y830095D01*
X1342171Y830106D01*
X1342326Y830117D01*
X1342482Y830140D01*
X1342604Y830162D01*
X1342626Y830173D01*
X1342670Y830184D01*
X1342737Y830217D01*
X1342826Y830262D01*
X1342914Y830306D01*
X1343014Y830373D01*
X1343114Y830462D01*
X1343192Y830550D01*
X1343203Y830561D01*
X1343225Y830595D01*
X1343259Y830661D01*
X1343292Y830739D01*
X1343325Y830828D01*
X1343358Y830939D01*
X1343381Y831072D01*
X1343392Y831216D01*
Y831238D01*
Y831283D01*
X1343381Y831349D01*
X1343370Y831438D01*
X1343347Y831549D01*
X1343314Y831660D01*
X1343270Y831771D01*
X1343203Y831882D01*
X1343192Y831893D01*
X1343170Y831927D01*
X1343125Y831982D01*
X1343070Y832038D01*
X1342992Y832104D01*
X1342903Y832171D01*
X1342792Y832237D01*
X1342670Y832282D01*
X1342659D01*
X1342604Y832304D01*
X1342526Y832315D01*
X1342404Y832337D01*
X1342237Y832359D01*
X1342049Y832371D01*
X1341805Y832393D01*
D02*
G37*
G36*
X1355591Y832448D02*
X1353171D01*
Y829906D01*
X1355457D01*
X1355591Y829918D01*
X1355746Y829929D01*
X1355923Y829940D01*
X1356101Y829962D01*
X1356279Y829995D01*
X1356434Y830040D01*
X1356456Y830051D01*
X1356501Y830073D01*
X1356567Y830106D01*
X1356656Y830151D01*
X1356756Y830217D01*
X1356856Y830295D01*
X1356956Y830395D01*
X1357033Y830506D01*
X1357045Y830517D01*
X1357067Y830561D01*
X1357100Y830628D01*
X1357144Y830717D01*
X1357178Y830817D01*
X1357211Y830928D01*
X1357233Y831061D01*
X1357244Y831194D01*
Y831205D01*
Y831216D01*
X1357233Y831283D01*
X1357222Y831383D01*
X1357200Y831516D01*
X1357144Y831649D01*
X1357078Y831805D01*
X1356978Y831949D01*
X1356845Y832093D01*
X1356823Y832104D01*
X1356767Y832149D01*
X1356678Y832204D01*
X1356534Y832271D01*
X1356367Y832337D01*
X1356145Y832393D01*
X1355890Y832437D01*
X1355591Y832448D01*
D02*
G37*
G36*
X1418804Y820967D02*
X1416384D01*
Y818425D01*
X1418671D01*
X1418804Y818436D01*
X1418959Y818447D01*
X1419137Y818458D01*
X1419314Y818480D01*
X1419492Y818514D01*
X1419647Y818558D01*
X1419670Y818569D01*
X1419714Y818591D01*
X1419781Y818625D01*
X1419869Y818669D01*
X1419969Y818736D01*
X1420069Y818813D01*
X1420169Y818913D01*
X1420247Y819024D01*
X1420258Y819035D01*
X1420280Y819080D01*
X1420313Y819146D01*
X1420358Y819235D01*
X1420391Y819335D01*
X1420424Y819446D01*
X1420447Y819579D01*
X1420458Y819712D01*
Y819724D01*
Y819735D01*
X1420447Y819801D01*
X1420435Y819901D01*
X1420413Y820034D01*
X1420358Y820167D01*
X1420291Y820323D01*
X1420191Y820467D01*
X1420058Y820611D01*
X1420036Y820623D01*
X1419980Y820667D01*
X1419892Y820723D01*
X1419747Y820789D01*
X1419581Y820856D01*
X1419359Y820911D01*
X1419104Y820956D01*
X1418804Y820967D01*
D02*
G37*
G36*
X1391054Y830406D02*
X1389423D01*
X1389034Y828497D01*
X1390666D01*
X1391054Y830406D01*
D02*
G37*
G36*
X1409646Y832504D02*
Y832493D01*
X1409635Y832470D01*
Y832426D01*
X1409613Y832382D01*
X1409602Y832304D01*
X1409580Y832226D01*
X1409536Y832038D01*
X1409480Y831816D01*
X1409402Y831572D01*
X1409325Y831305D01*
X1409225Y831028D01*
X1408392Y828785D01*
X1410990D01*
X1410190Y830894D01*
Y830906D01*
X1410179Y830939D01*
X1410157Y830994D01*
X1410135Y831061D01*
X1410102Y831139D01*
X1410068Y831238D01*
X1410035Y831349D01*
X1409991Y831460D01*
X1409902Y831716D01*
X1409813Y831982D01*
X1409724Y832249D01*
X1409646Y832504D01*
D02*
G37*
G36*
X1403087Y832393D02*
X1400889D01*
Y829651D01*
X1402953D01*
X1403031Y829662D01*
X1403109D01*
X1403197Y829673D01*
X1403408Y829696D01*
X1403642Y829740D01*
X1403875Y829807D01*
X1404086Y829895D01*
X1404185Y829951D01*
X1404263Y830017D01*
X1404285Y830040D01*
X1404330Y830084D01*
X1404396Y830173D01*
X1404474Y830284D01*
X1404552Y830428D01*
X1404618Y830606D01*
X1404663Y830806D01*
X1404685Y831039D01*
Y831050D01*
Y831061D01*
Y831116D01*
X1404674Y831216D01*
X1404652Y831327D01*
X1404629Y831449D01*
X1404585Y831594D01*
X1404518Y831727D01*
X1404441Y831860D01*
X1404430Y831871D01*
X1404396Y831916D01*
X1404341Y831971D01*
X1404274Y832049D01*
X1404174Y832126D01*
X1404063Y832193D01*
X1403941Y832260D01*
X1403797Y832315D01*
X1403786D01*
X1403741Y832326D01*
X1403675Y832337D01*
X1403586Y832359D01*
X1403453Y832371D01*
X1403286Y832382D01*
X1403087Y832393D01*
D02*
G37*
G36*
X1440082D02*
X1437884D01*
Y829651D01*
X1439949D01*
X1440027Y829662D01*
X1440104D01*
X1440193Y829673D01*
X1440404Y829696D01*
X1440637Y829740D01*
X1440870Y829807D01*
X1441081Y829895D01*
X1441181Y829951D01*
X1441259Y830017D01*
X1441281Y830040D01*
X1441325Y830084D01*
X1441392Y830173D01*
X1441470Y830284D01*
X1441547Y830428D01*
X1441614Y830606D01*
X1441658Y830806D01*
X1441680Y831039D01*
Y831050D01*
Y831061D01*
Y831116D01*
X1441669Y831216D01*
X1441647Y831327D01*
X1441625Y831449D01*
X1441581Y831594D01*
X1441514Y831727D01*
X1441436Y831860D01*
X1441425Y831871D01*
X1441392Y831916D01*
X1441336Y831971D01*
X1441270Y832049D01*
X1441170Y832126D01*
X1441059Y832193D01*
X1440937Y832260D01*
X1440793Y832315D01*
X1440781D01*
X1440737Y832326D01*
X1440670Y832337D01*
X1440582Y832359D01*
X1440448Y832371D01*
X1440282Y832382D01*
X1440082Y832393D01*
D02*
G37*
G36*
X1420624Y832448D02*
X1418204D01*
Y829906D01*
X1420491D01*
X1420624Y829918D01*
X1420780Y829929D01*
X1420957Y829940D01*
X1421135Y829962D01*
X1421312Y829995D01*
X1421468Y830040D01*
X1421490Y830051D01*
X1421534Y830073D01*
X1421601Y830106D01*
X1421690Y830151D01*
X1421790Y830217D01*
X1421890Y830295D01*
X1421989Y830395D01*
X1422067Y830506D01*
X1422078Y830517D01*
X1422101Y830561D01*
X1422134Y830628D01*
X1422178Y830717D01*
X1422211Y830817D01*
X1422245Y830928D01*
X1422267Y831061D01*
X1422278Y831194D01*
Y831205D01*
Y831216D01*
X1422267Y831283D01*
X1422256Y831383D01*
X1422234Y831516D01*
X1422178Y831649D01*
X1422112Y831805D01*
X1422012Y831949D01*
X1421879Y832093D01*
X1421856Y832104D01*
X1421801Y832149D01*
X1421712Y832204D01*
X1421568Y832271D01*
X1421401Y832337D01*
X1421179Y832393D01*
X1420924Y832437D01*
X1420624Y832448D01*
D02*
G37*
G36*
X1334423Y821022D02*
Y821011D01*
X1334412Y820989D01*
Y820945D01*
X1334390Y820900D01*
X1334379Y820822D01*
X1334357Y820745D01*
X1334312Y820556D01*
X1334257Y820334D01*
X1334179Y820090D01*
X1334101Y819823D01*
X1334001Y819546D01*
X1333169Y817304D01*
X1335766D01*
X1334967Y819413D01*
Y819424D01*
X1334956Y819457D01*
X1334934Y819513D01*
X1334911Y819579D01*
X1334878Y819657D01*
X1334845Y819757D01*
X1334812Y819868D01*
X1334767Y819979D01*
X1334678Y820234D01*
X1334590Y820500D01*
X1334501Y820767D01*
X1334423Y821022D01*
D02*
G37*
G36*
X1401266Y820911D02*
X1399068D01*
Y818170D01*
X1401133D01*
X1401211Y818181D01*
X1401288D01*
X1401377Y818192D01*
X1401588Y818214D01*
X1401821Y818258D01*
X1402054Y818325D01*
X1402265Y818414D01*
X1402365Y818469D01*
X1402443Y818536D01*
X1402465Y818558D01*
X1402509Y818603D01*
X1402576Y818691D01*
X1402654Y818802D01*
X1402731Y818947D01*
X1402798Y819124D01*
X1402842Y819324D01*
X1402865Y819557D01*
Y819568D01*
Y819579D01*
Y819635D01*
X1402853Y819735D01*
X1402831Y819846D01*
X1402809Y819968D01*
X1402765Y820112D01*
X1402698Y820245D01*
X1402620Y820378D01*
X1402609Y820389D01*
X1402576Y820434D01*
X1402520Y820489D01*
X1402454Y820567D01*
X1402354Y820645D01*
X1402243Y820711D01*
X1402121Y820778D01*
X1401976Y820834D01*
X1401965D01*
X1401921Y820845D01*
X1401854Y820856D01*
X1401766Y820878D01*
X1401632Y820889D01*
X1401466Y820900D01*
X1401266Y820911D01*
D02*
G37*
G36*
X1407826Y821022D02*
Y821011D01*
X1407815Y820989D01*
Y820945D01*
X1407793Y820900D01*
X1407782Y820822D01*
X1407760Y820745D01*
X1407715Y820556D01*
X1407660Y820334D01*
X1407582Y820090D01*
X1407504Y819823D01*
X1407404Y819546D01*
X1406572Y817304D01*
X1409169D01*
X1408370Y819413D01*
Y819424D01*
X1408359Y819457D01*
X1408337Y819513D01*
X1408315Y819579D01*
X1408281Y819657D01*
X1408248Y819757D01*
X1408215Y819868D01*
X1408170Y819979D01*
X1408081Y820234D01*
X1407993Y820500D01*
X1407904Y820767D01*
X1407826Y821022D01*
D02*
G37*
G36*
X1437662Y809529D02*
X1435465D01*
Y806788D01*
X1437529D01*
X1437607Y806799D01*
X1437685D01*
X1437773Y806810D01*
X1437984Y806832D01*
X1438217Y806877D01*
X1438450Y806943D01*
X1438661Y807032D01*
X1438761Y807087D01*
X1438839Y807154D01*
X1438861Y807176D01*
X1438906Y807221D01*
X1438972Y807309D01*
X1439050Y807421D01*
X1439128Y807565D01*
X1439194Y807742D01*
X1439238Y807942D01*
X1439261Y808175D01*
Y808186D01*
Y808197D01*
Y808253D01*
X1439250Y808353D01*
X1439227Y808464D01*
X1439205Y808586D01*
X1439161Y808730D01*
X1439094Y808864D01*
X1439017Y808997D01*
X1439005Y809008D01*
X1438972Y809052D01*
X1438917Y809108D01*
X1438850Y809185D01*
X1438750Y809263D01*
X1438639Y809330D01*
X1438517Y809396D01*
X1438373Y809452D01*
X1438362D01*
X1438317Y809463D01*
X1438251Y809474D01*
X1438162Y809496D01*
X1438029Y809507D01*
X1437862Y809518D01*
X1437662Y809529D01*
D02*
G37*
G36*
X1418204Y809585D02*
X1415785D01*
Y807043D01*
X1418071D01*
X1418204Y807054D01*
X1418360Y807065D01*
X1418537Y807076D01*
X1418715Y807099D01*
X1418893Y807132D01*
X1419048Y807176D01*
X1419070Y807187D01*
X1419115Y807210D01*
X1419181Y807243D01*
X1419270Y807287D01*
X1419370Y807354D01*
X1419470Y807432D01*
X1419570Y807532D01*
X1419647Y807643D01*
X1419659Y807654D01*
X1419681Y807698D01*
X1419714Y807765D01*
X1419758Y807853D01*
X1419792Y807953D01*
X1419825Y808064D01*
X1419847Y808197D01*
X1419858Y808331D01*
Y808342D01*
Y808353D01*
X1419847Y808419D01*
X1419836Y808519D01*
X1419814Y808653D01*
X1419758Y808786D01*
X1419692Y808941D01*
X1419592Y809085D01*
X1419459Y809230D01*
X1419436Y809241D01*
X1419381Y809285D01*
X1419292Y809341D01*
X1419148Y809407D01*
X1418981Y809474D01*
X1418759Y809529D01*
X1418504Y809574D01*
X1418204Y809585D01*
D02*
G37*
%LPD*%
D24*
X981890Y599948D02*
G03*
X981890Y599948I-1704J0D01*
G01*
X1525270Y584200D02*
X1526540D01*
X1518920Y589280D02*
X1530350D01*
X1512570Y594360D02*
X1536700D01*
X1503680Y600710D02*
X1543050D01*
X673100Y751840D02*
X784860D01*
X673100Y711200D02*
Y751840D01*
Y711200D02*
X675640Y708660D01*
X783590D01*
X784860Y709930D01*
Y751840D01*
X970280Y479393D02*
X982377Y491490D01*
X1042670D01*
X1049020Y485140D01*
Y392430D02*
Y485140D01*
X1037590Y381000D02*
X1049020Y392430D01*
X981710Y381000D02*
X1037590D01*
X970280Y392430D02*
X981710Y381000D01*
X970280Y392430D02*
Y479393D01*
X767080Y1027430D02*
Y1108710D01*
X760730D02*
X767080D01*
X756920Y1112520D02*
X760730Y1108710D01*
X756920Y1112520D02*
Y1174750D01*
X748030Y1183640D02*
X756920Y1174750D01*
X742950Y1183640D02*
X748030D01*
X718820Y1024890D02*
X764540D01*
X716280Y1027430D02*
X718820Y1024890D01*
X716280Y1027430D02*
Y1109980D01*
X764540Y1024890D02*
X767080Y1027430D01*
X687070Y1109980D02*
X716280D01*
X681990Y1115060D02*
X687070Y1109980D01*
X681990Y1115060D02*
Y1178560D01*
X687070Y1183640D01*
X748030D01*
X859790Y698500D02*
X895350D01*
X896620Y699770D01*
Y612140D02*
Y699770D01*
X859790Y612140D02*
X896620D01*
X859790D02*
Y698500D01*
X1123950Y1195070D02*
X1211580D01*
X1212850Y1193800D01*
Y1096010D02*
Y1193800D01*
X1210310Y1093470D02*
X1212850Y1096010D01*
X1123950Y1093470D02*
X1210310D01*
X1123950D02*
Y1195070D01*
X1217930Y1193800D02*
X1314450D01*
Y1094740D02*
Y1193800D01*
X1219200Y1094740D02*
X1314450D01*
X1217930Y1096010D02*
X1219200Y1094740D01*
X1217930Y1096010D02*
Y1193800D01*
X824230Y1195070D02*
X925830D01*
X927100Y1193800D01*
Y1102360D02*
Y1193800D01*
X824230Y1102360D02*
X927100D01*
X824230D02*
Y1195070D01*
X1328420Y1100559D02*
Y1085324D01*
Y1092942D01*
X1338577D01*
Y1100559D01*
Y1085324D01*
X1343655Y1100559D02*
Y1085324D01*
X1351273D01*
X1353812Y1087863D01*
Y1098020D01*
X1351273Y1100559D01*
X1343655D01*
X1358890Y1085324D02*
Y1100559D01*
X1363969Y1095481D01*
X1369047Y1100559D01*
Y1085324D01*
X1374125Y1100559D02*
X1379204D01*
X1376664D01*
Y1085324D01*
X1374125D01*
X1379204D01*
X1402056Y1100559D02*
Y1085324D01*
X1412213D01*
X1424909D02*
X1419830D01*
X1417291Y1087863D01*
Y1092942D01*
X1419830Y1095481D01*
X1424909D01*
X1427448Y1092942D01*
Y1090403D01*
X1417291D01*
X1432526Y1095481D02*
X1437605Y1085324D01*
X1442683Y1095481D01*
X1455379Y1085324D02*
X1450301D01*
X1447761Y1087863D01*
Y1092942D01*
X1450301Y1095481D01*
X1455379D01*
X1457918Y1092942D01*
Y1090403D01*
X1447761D01*
X1462997Y1085324D02*
X1468075D01*
X1465536D01*
Y1100559D01*
X1462997D01*
X1501084Y1098020D02*
X1498545Y1100559D01*
X1493467D01*
X1490927Y1098020D01*
Y1095481D01*
X1493467Y1092942D01*
X1498545D01*
X1501084Y1090403D01*
Y1087863D01*
X1498545Y1085324D01*
X1493467D01*
X1490927Y1087863D01*
X1506163Y1085324D02*
X1511241D01*
X1508702D01*
Y1095481D01*
X1506163D01*
X1521398Y1085324D02*
Y1098020D01*
Y1092942D01*
X1518858D01*
X1523937D01*
X1521398D01*
Y1098020D01*
X1523937Y1100559D01*
X1534093Y1098020D02*
Y1095481D01*
X1531554D01*
X1536633D01*
X1534093D01*
Y1087863D01*
X1536633Y1085324D01*
X1551868D02*
X1546789D01*
X1544250Y1087863D01*
Y1092942D01*
X1546789Y1095481D01*
X1551868D01*
X1554407Y1092942D01*
Y1090403D01*
X1544250D01*
X1559485Y1095481D02*
Y1085324D01*
Y1090403D01*
X1562024Y1092942D01*
X1564564Y1095481D01*
X1567103D01*
X1328420Y1060946D02*
X1333498D01*
X1330959D01*
Y1076181D01*
X1328420Y1073642D01*
X1341116Y1063485D02*
X1343655Y1060946D01*
X1348733D01*
X1351273Y1063485D01*
Y1073642D01*
X1348733Y1076181D01*
X1343655D01*
X1341116Y1073642D01*
Y1071103D01*
X1343655Y1068564D01*
X1351273D01*
X1356351Y1060946D02*
X1361429D01*
X1358890D01*
Y1076181D01*
X1356351Y1073642D01*
X1369047Y1076181D02*
X1379204D01*
Y1073642D01*
X1369047Y1063485D01*
Y1060946D01*
X1328420Y1051803D02*
Y1041646D01*
X1333498Y1036568D01*
X1338577Y1041646D01*
Y1051803D01*
X1343655Y1036568D02*
X1348733D01*
X1346194D01*
Y1051803D01*
X1343655Y1049264D01*
X1356351Y1051803D02*
X1361429D01*
X1358890D01*
Y1036568D01*
X1356351D01*
X1361429D01*
X1369047D02*
X1374125D01*
X1371586D01*
Y1051803D01*
X1369047Y1049264D01*
X1338577Y1024886D02*
X1336037Y1027425D01*
X1330959D01*
X1328420Y1024886D01*
Y1014729D01*
X1330959Y1012190D01*
X1336037D01*
X1338577Y1014729D01*
Y1019808D01*
X1333498D01*
X1343655Y1012190D02*
Y1027425D01*
X1353812Y1012190D01*
Y1027425D01*
X1358890D02*
Y1014729D01*
X1361429Y1012190D01*
X1366508D01*
X1369047Y1014729D01*
Y1027425D01*
X1389360D02*
Y1012190D01*
X1399517D01*
X1404595D02*
X1409674D01*
X1407135D01*
Y1022347D01*
X1404595D01*
X1427448D02*
X1419830D01*
X1417291Y1019808D01*
Y1014729D01*
X1419830Y1012190D01*
X1427448D01*
X1440144D02*
X1435065D01*
X1432526Y1014729D01*
Y1019808D01*
X1435065Y1022347D01*
X1440144D01*
X1442683Y1019808D01*
Y1017268D01*
X1432526D01*
X1447761Y1012190D02*
Y1022347D01*
X1455379D01*
X1457918Y1019808D01*
Y1012190D01*
X1462997D02*
X1470614D01*
X1473153Y1014729D01*
X1470614Y1017268D01*
X1465536D01*
X1462997Y1019808D01*
X1465536Y1022347D01*
X1473153D01*
X1485849Y1012190D02*
X1480771D01*
X1478232Y1014729D01*
Y1019808D01*
X1480771Y1022347D01*
X1485849D01*
X1488388Y1019808D01*
Y1017268D01*
X1478232D01*
X1332227Y662935D02*
X1327148D01*
X1329688D01*
Y650239D01*
X1327148Y647700D01*
X1324609D01*
X1322070Y650239D01*
X1347462Y647700D02*
X1337305D01*
X1347462Y657857D01*
Y660396D01*
X1344923Y662935D01*
X1339844D01*
X1337305Y660396D01*
X991867Y878836D02*
X989327Y881375D01*
X984249D01*
X981710Y878836D01*
Y868679D01*
X984249Y866140D01*
X989327D01*
X991867Y868679D01*
X1007102Y866140D02*
X996945D01*
X1007102Y876297D01*
Y878836D01*
X1004563Y881375D01*
X999484D01*
X996945Y878836D01*
X1012180Y866140D02*
X1017259D01*
X1014719D01*
Y881375D01*
X1012180Y878836D01*
X679450Y721360D02*
Y732786D01*
X685163D01*
X687067Y730882D01*
Y727073D01*
X685163Y725169D01*
X679450D01*
X683259D02*
X687067Y721360D01*
X698494D02*
X690876D01*
X698494Y728978D01*
Y730882D01*
X696590Y732786D01*
X692781D01*
X690876Y730882D01*
X702303D02*
X704207Y732786D01*
X708016D01*
X709920Y730882D01*
Y723264D01*
X708016Y721360D01*
X704207D01*
X702303Y723264D01*
Y730882D01*
X828802Y689676D02*
Y704911D01*
X836420D01*
X838959Y702372D01*
Y697293D01*
X836420Y694754D01*
X828802D01*
X833880D02*
X838959Y689676D01*
X854194Y704911D02*
X844037D01*
Y697293D01*
X849115Y699833D01*
X851655D01*
X854194Y697293D01*
Y692215D01*
X851655Y689676D01*
X846576D01*
X844037Y692215D01*
X919364Y1006953D02*
Y994257D01*
X921903Y991718D01*
X926982D01*
X929521Y994257D01*
Y1006953D01*
X944756Y991718D02*
X934599D01*
X944756Y1001875D01*
Y1004414D01*
X942217Y1006953D01*
X937138D01*
X934599Y1004414D01*
X989330Y519425D02*
Y506729D01*
X991869Y504190D01*
X996947D01*
X999487Y506729D01*
Y519425D01*
X1004565Y504190D02*
X1009643D01*
X1007104D01*
Y519425D01*
X1004565Y516886D01*
X1503680Y648965D02*
X1513837D01*
X1508758D01*
Y633730D01*
X1518915D02*
Y648965D01*
X1526533D01*
X1529072Y646426D01*
Y641348D01*
X1526533Y638808D01*
X1518915D01*
X1534150Y646426D02*
X1536689Y648965D01*
X1541768D01*
X1544307Y646426D01*
Y643887D01*
X1541768Y641348D01*
X1539229D01*
X1541768D01*
X1544307Y638808D01*
Y636269D01*
X1541768Y633730D01*
X1536689D01*
X1534150Y636269D01*
X1285240Y541015D02*
X1295397D01*
X1290318D01*
Y525780D01*
X1300475D02*
Y541015D01*
X1308093D01*
X1310632Y538476D01*
Y533397D01*
X1308093Y530858D01*
X1300475D01*
X1325867Y525780D02*
X1315710D01*
X1325867Y535937D01*
Y538476D01*
X1323328Y541015D01*
X1318249D01*
X1315710Y538476D01*
X1394460Y485135D02*
X1404617D01*
X1399538D01*
Y469900D01*
X1409695D02*
Y485135D01*
X1417313D01*
X1419852Y482596D01*
Y477518D01*
X1417313Y474978D01*
X1409695D01*
X1424930Y469900D02*
X1430009D01*
X1427469D01*
Y485135D01*
X1424930Y482596D01*
X787400Y1055370D02*
X772165D01*
Y1062988D01*
X774704Y1065527D01*
X779782D01*
X782322Y1062988D01*
Y1055370D01*
Y1060448D02*
X787400Y1065527D01*
X774704Y1070605D02*
X772165Y1073144D01*
Y1078223D01*
X774704Y1080762D01*
X777243D01*
X779782Y1078223D01*
Y1075683D01*
Y1078223D01*
X782322Y1080762D01*
X784861D01*
X787400Y1078223D01*
Y1073144D01*
X784861Y1070605D01*
X774704Y1085840D02*
X772165Y1088379D01*
Y1093458D01*
X774704Y1095997D01*
X784861D01*
X787400Y1093458D01*
Y1088379D01*
X784861Y1085840D01*
X774704D01*
X731520Y1061720D02*
X721363D01*
Y1066798D01*
X723056Y1068491D01*
X726442D01*
X728134Y1066798D01*
Y1061720D01*
Y1065106D02*
X731520Y1068491D01*
Y1078648D02*
Y1071877D01*
X724749Y1078648D01*
X723056D01*
X721363Y1076955D01*
Y1073569D01*
X723056Y1071877D01*
X729827Y1082033D02*
X731520Y1083726D01*
Y1087112D01*
X729827Y1088805D01*
X723056D01*
X721363Y1087112D01*
Y1083726D01*
X723056Y1082033D01*
X724749D01*
X726442Y1083726D01*
Y1088805D01*
X688555Y1056640D02*
X673319D01*
Y1064258D01*
X675859Y1066797D01*
X680937D01*
X683476Y1064258D01*
Y1056640D01*
Y1061718D02*
X688555Y1066797D01*
Y1082032D02*
Y1071875D01*
X678398Y1082032D01*
X675859D01*
X673319Y1079493D01*
Y1074414D01*
X675859Y1071875D01*
Y1087110D02*
X673319Y1089649D01*
Y1094728D01*
X675859Y1097267D01*
X678398D01*
X680937Y1094728D01*
X683476Y1097267D01*
X686015D01*
X688555Y1094728D01*
Y1089649D01*
X686015Y1087110D01*
X683476D01*
X680937Y1089649D01*
X678398Y1087110D01*
X675859D01*
X680937Y1089649D02*
Y1094728D01*
X695960Y1150366D02*
Y1165601D01*
X703577D01*
X706117Y1163062D01*
Y1157983D01*
X703577Y1155444D01*
X695960D01*
X701038D02*
X706117Y1150366D01*
X721352D02*
X711195D01*
X721352Y1160523D01*
Y1163062D01*
X718813Y1165601D01*
X713734D01*
X711195Y1163062D01*
X726430Y1165601D02*
X736587D01*
Y1163062D01*
X726430Y1152905D01*
Y1150366D01*
X773430Y1151890D02*
Y1167125D01*
X781048D01*
X783587Y1164586D01*
Y1159508D01*
X781048Y1156968D01*
X773430D01*
X778508D02*
X783587Y1151890D01*
X798822D02*
X788665D01*
X798822Y1162047D01*
Y1164586D01*
X796283Y1167125D01*
X791204D01*
X788665Y1164586D01*
X814057Y1167125D02*
X808979Y1164586D01*
X803900Y1159508D01*
Y1154429D01*
X806439Y1151890D01*
X811518D01*
X814057Y1154429D01*
Y1156968D01*
X811518Y1159508D01*
X803900D01*
X1315720Y666750D02*
X1300485D01*
Y674368D01*
X1303024Y676907D01*
X1308103D01*
X1310642Y674368D01*
Y666750D01*
Y671828D02*
X1315720Y676907D01*
Y692142D02*
Y681985D01*
X1305563Y692142D01*
X1303024D01*
X1300485Y689603D01*
Y684524D01*
X1303024Y681985D01*
X1300485Y707377D02*
Y697220D01*
X1308103D01*
X1305563Y702299D01*
Y704838D01*
X1308103Y707377D01*
X1313181D01*
X1315720Y704838D01*
Y699759D01*
X1313181Y697220D01*
X1277620Y665480D02*
X1262385D01*
Y673098D01*
X1264924Y675637D01*
X1270003D01*
X1272542Y673098D01*
Y665480D01*
Y670558D02*
X1277620Y675637D01*
Y690872D02*
Y680715D01*
X1267463Y690872D01*
X1264924D01*
X1262385Y688333D01*
Y683254D01*
X1264924Y680715D01*
X1277620Y703568D02*
X1262385D01*
X1270003Y695950D01*
Y706107D01*
X1200150Y730250D02*
Y745485D01*
X1207767D01*
X1210307Y742946D01*
Y737868D01*
X1207767Y735328D01*
X1200150D01*
X1205228D02*
X1210307Y730250D01*
X1225542D02*
X1215385D01*
X1225542Y740407D01*
Y742946D01*
X1223003Y745485D01*
X1217924D01*
X1215385Y742946D01*
X1230620D02*
X1233159Y745485D01*
X1238238D01*
X1240777Y742946D01*
Y740407D01*
X1238238Y737868D01*
X1235698D01*
X1238238D01*
X1240777Y735328D01*
Y732789D01*
X1238238Y730250D01*
X1233159D01*
X1230620Y732789D01*
X679450Y645160D02*
Y656586D01*
X685163D01*
X687067Y654682D01*
Y650873D01*
X685163Y648969D01*
X679450D01*
X683259D02*
X687067Y645160D01*
X698494D02*
X690876D01*
X698494Y652777D01*
Y654682D01*
X696590Y656586D01*
X692781D01*
X690876Y654682D01*
X709920Y645160D02*
X702303D01*
X709920Y652777D01*
Y654682D01*
X708016Y656586D01*
X704207D01*
X702303Y654682D01*
X680720Y688340D02*
Y703575D01*
X688337D01*
X690877Y701036D01*
Y695957D01*
X688337Y693418D01*
X680720D01*
X685798D02*
X690877Y688340D01*
X706112D02*
X695955D01*
X706112Y698497D01*
Y701036D01*
X703573Y703575D01*
X698494D01*
X695955Y701036D01*
X711190Y688340D02*
X716268D01*
X713729D01*
Y703575D01*
X711190Y701036D01*
X1224534Y1170940D02*
Y1186175D01*
X1232151D01*
X1234691Y1183636D01*
Y1178558D01*
X1232151Y1176018D01*
X1224534D01*
X1229612D02*
X1234691Y1170940D01*
X1239769D02*
X1244847D01*
X1242308D01*
Y1186175D01*
X1239769Y1183636D01*
X1252465Y1173479D02*
X1255004Y1170940D01*
X1260082D01*
X1262622Y1173479D01*
Y1183636D01*
X1260082Y1186175D01*
X1255004D01*
X1252465Y1183636D01*
Y1181097D01*
X1255004Y1178558D01*
X1262622D01*
X831850Y1170177D02*
Y1185412D01*
X839467D01*
X842007Y1182872D01*
Y1177794D01*
X839467Y1175255D01*
X831850D01*
X836928D02*
X842007Y1170177D01*
X847085D02*
X852163D01*
X849624D01*
Y1185412D01*
X847085Y1182872D01*
X859781D02*
X862320Y1185412D01*
X867399D01*
X869938Y1182872D01*
Y1180333D01*
X867399Y1177794D01*
X869938Y1175255D01*
Y1172716D01*
X867399Y1170177D01*
X862320D01*
X859781Y1172716D01*
Y1175255D01*
X862320Y1177794D01*
X859781Y1180333D01*
Y1182872D01*
X862320Y1177794D02*
X867399D01*
X1270254Y1170686D02*
Y1185921D01*
X1277871D01*
X1280411Y1183382D01*
Y1178304D01*
X1277871Y1175764D01*
X1270254D01*
X1275332D02*
X1280411Y1170686D01*
X1285489D02*
X1290567D01*
X1288028D01*
Y1185921D01*
X1285489Y1183382D01*
X1308342Y1185921D02*
X1303263Y1183382D01*
X1298185Y1178304D01*
Y1173225D01*
X1300724Y1170686D01*
X1305802D01*
X1308342Y1173225D01*
Y1175764D01*
X1305802Y1178304D01*
X1298185D01*
X882142Y1170050D02*
Y1185285D01*
X889760D01*
X892299Y1182745D01*
Y1177667D01*
X889760Y1175128D01*
X882142D01*
X887220D02*
X892299Y1170050D01*
X897377D02*
X902455D01*
X899916D01*
Y1185285D01*
X897377Y1182745D01*
X920230Y1185285D02*
X910073D01*
Y1177667D01*
X915151Y1180206D01*
X917691D01*
X920230Y1177667D01*
Y1172589D01*
X917691Y1170050D01*
X912612D01*
X910073Y1172589D01*
X1174750Y1169670D02*
Y1181096D01*
X1180463D01*
X1182367Y1179192D01*
Y1175383D01*
X1180463Y1173479D01*
X1174750D01*
X1178559D02*
X1182367Y1169670D01*
X1186176D02*
X1189985D01*
X1188081D01*
Y1181096D01*
X1186176Y1179192D01*
X1201411Y1169670D02*
Y1181096D01*
X1195698Y1175383D01*
X1203316D01*
X1127760Y1169670D02*
Y1184905D01*
X1135378D01*
X1137917Y1182366D01*
Y1177288D01*
X1135378Y1174748D01*
X1127760D01*
X1132838D02*
X1137917Y1169670D01*
X1142995D02*
X1148073D01*
X1145534D01*
Y1184905D01*
X1142995Y1182366D01*
X1155691D02*
X1158230Y1184905D01*
X1163308D01*
X1165848Y1182366D01*
Y1179827D01*
X1163308Y1177288D01*
X1160769D01*
X1163308D01*
X1165848Y1174748D01*
Y1172209D01*
X1163308Y1169670D01*
X1158230D01*
X1155691Y1172209D01*
X1030415Y1169670D02*
Y1184905D01*
X1038032D01*
X1040571Y1182366D01*
Y1177288D01*
X1038032Y1174748D01*
X1030415D01*
X1035493D02*
X1040571Y1169670D01*
X1045650D02*
X1050728D01*
X1048189D01*
Y1184905D01*
X1045650Y1182366D01*
X1068502Y1169670D02*
X1058345D01*
X1068502Y1179827D01*
Y1182366D01*
X1065963Y1184905D01*
X1060885D01*
X1058345Y1182366D01*
X982631Y1169670D02*
Y1184905D01*
X990248D01*
X992787Y1182366D01*
Y1177288D01*
X990248Y1174748D01*
X982631D01*
X987709D02*
X992787Y1169670D01*
X997866D02*
X1002944D01*
X1000405D01*
Y1184905D01*
X997866Y1182366D01*
X1010562Y1169670D02*
X1015640D01*
X1013101D01*
Y1184905D01*
X1010562Y1182366D01*
X1080929Y1170940D02*
Y1186175D01*
X1088546D01*
X1091086Y1183636D01*
Y1178558D01*
X1088546Y1176018D01*
X1080929D01*
X1086007D02*
X1091086Y1170940D01*
X1096164D02*
X1101242D01*
X1098703D01*
Y1186175D01*
X1096164Y1183636D01*
X1108860D02*
X1111399Y1186175D01*
X1116477D01*
X1119016Y1183636D01*
Y1173479D01*
X1116477Y1170940D01*
X1111399D01*
X1108860Y1173479D01*
Y1183636D01*
X934847Y1169670D02*
Y1184905D01*
X942465D01*
X945004Y1182366D01*
Y1177288D01*
X942465Y1174748D01*
X934847D01*
X939925D02*
X945004Y1169670D01*
X950082Y1172209D02*
X952621Y1169670D01*
X957700D01*
X960239Y1172209D01*
Y1182366D01*
X957700Y1184905D01*
X952621D01*
X950082Y1182366D01*
Y1179827D01*
X952621Y1177288D01*
X960239D01*
X864448Y675640D02*
Y690875D01*
X872066D01*
X874605Y688336D01*
Y683258D01*
X872066Y680718D01*
X864448D01*
X869527D02*
X874605Y675640D01*
X879684Y688336D02*
X882223Y690875D01*
X887301D01*
X889840Y688336D01*
Y685797D01*
X887301Y683258D01*
X889840Y680718D01*
Y678179D01*
X887301Y675640D01*
X882223D01*
X879684Y678179D01*
Y680718D01*
X882223Y683258D01*
X879684Y685797D01*
Y688336D01*
X882223Y683258D02*
X887301D01*
X791210Y689290D02*
Y704525D01*
X798828D01*
X801367Y701986D01*
Y696908D01*
X798828Y694368D01*
X791210D01*
X796288D02*
X801367Y689290D01*
X816602Y704525D02*
X811523Y701986D01*
X806445Y696908D01*
Y691829D01*
X808984Y689290D01*
X814063D01*
X816602Y691829D01*
Y694368D01*
X814063Y696908D01*
X806445D01*
X976630Y459740D02*
Y474975D01*
X984248D01*
X986787Y472436D01*
Y467357D01*
X984248Y464818D01*
X976630D01*
X981708D02*
X986787Y459740D01*
X999483D02*
Y474975D01*
X991865Y467357D01*
X1002022D01*
X917194Y681357D02*
Y696593D01*
X924811D01*
X927351Y694053D01*
Y688975D01*
X924811Y686436D01*
X917194D01*
X922272D02*
X927351Y681357D01*
X932429Y694053D02*
X934968Y696593D01*
X940047D01*
X942586Y694053D01*
Y691514D01*
X940047Y688975D01*
X937507D01*
X940047D01*
X942586Y686436D01*
Y683897D01*
X940047Y681357D01*
X934968D01*
X932429Y683897D01*
X949836Y681355D02*
Y696590D01*
X957453D01*
X959992Y694051D01*
Y688972D01*
X957453Y686433D01*
X949836D01*
X954914D02*
X959992Y681355D01*
X975227D02*
X965071D01*
X975227Y691512D01*
Y694051D01*
X972688Y696590D01*
X967610D01*
X965071Y694051D01*
X982604Y680085D02*
Y695320D01*
X990222D01*
X992761Y692781D01*
Y687702D01*
X990222Y685163D01*
X982604D01*
X987682D02*
X992761Y680085D01*
X997839D02*
X1002917D01*
X1000378D01*
Y695320D01*
X997839Y692781D01*
X873440Y753211D02*
Y763368D01*
X870901Y765907D01*
X865823D01*
X863284Y763368D01*
Y753211D01*
X865823Y750672D01*
X870901D01*
X868362Y755750D02*
X873440Y750672D01*
X870901D02*
X873440Y753211D01*
X888676Y750672D02*
X878519D01*
X888676Y760829D01*
Y763368D01*
X886136Y765907D01*
X881058D01*
X878519Y763368D01*
X836927Y749553D02*
Y759710D01*
X834388Y762249D01*
X829309D01*
X826770Y759710D01*
Y749553D01*
X829309Y747014D01*
X834388D01*
X831848Y752092D02*
X836927Y747014D01*
X834388D02*
X836927Y749553D01*
X842005Y747014D02*
X847083D01*
X844544D01*
Y762249D01*
X842005Y759710D01*
X684527Y1027425D02*
X679448D01*
X681988D01*
Y1014729D01*
X679448Y1012190D01*
X676909D01*
X674370Y1014729D01*
X689605Y1024886D02*
X692144Y1027425D01*
X697223D01*
X699762Y1024886D01*
Y1022347D01*
X697223Y1019808D01*
X694683D01*
X697223D01*
X699762Y1017268D01*
Y1014729D01*
X697223Y1012190D01*
X692144D01*
X689605Y1014729D01*
X941067Y831846D02*
X938528Y834385D01*
X933449D01*
X930910Y831846D01*
Y821689D01*
X933449Y819150D01*
X938528D01*
X941067Y821689D01*
X956302Y819150D02*
X946145D01*
X956302Y829307D01*
Y831846D01*
X953763Y834385D01*
X948684D01*
X946145Y831846D01*
X971537Y819150D02*
X961380D01*
X971537Y829307D01*
Y831846D01*
X968998Y834385D01*
X963919D01*
X961380Y831846D01*
X1167127Y840736D02*
X1164587Y843275D01*
X1159509D01*
X1156970Y840736D01*
Y830579D01*
X1159509Y828040D01*
X1164587D01*
X1167127Y830579D01*
X1182362Y828040D02*
X1172205D01*
X1182362Y838197D01*
Y840736D01*
X1179823Y843275D01*
X1174744D01*
X1172205Y840736D01*
X1187440D02*
X1189979Y843275D01*
X1195058D01*
X1197597Y840736D01*
Y830579D01*
X1195058Y828040D01*
X1189979D01*
X1187440Y830579D01*
Y840736D01*
X1167127Y868676D02*
X1164587Y871215D01*
X1159509D01*
X1156970Y868676D01*
Y858519D01*
X1159509Y855980D01*
X1164587D01*
X1167127Y858519D01*
X1172205Y855980D02*
X1177283D01*
X1174744D01*
Y871215D01*
X1172205Y868676D01*
X1184901Y858519D02*
X1187440Y855980D01*
X1192518D01*
X1195058Y858519D01*
Y868676D01*
X1192518Y871215D01*
X1187440D01*
X1184901Y868676D01*
Y866137D01*
X1187440Y863597D01*
X1195058D01*
X1165857Y897886D02*
X1163317Y900425D01*
X1158239D01*
X1155700Y897886D01*
Y887729D01*
X1158239Y885190D01*
X1163317D01*
X1165857Y887729D01*
X1170935Y885190D02*
X1176013D01*
X1173474D01*
Y900425D01*
X1170935Y897886D01*
X1183631D02*
X1186170Y900425D01*
X1191248D01*
X1193788Y897886D01*
Y895347D01*
X1191248Y892807D01*
X1193788Y890268D01*
Y887729D01*
X1191248Y885190D01*
X1186170D01*
X1183631Y887729D01*
Y890268D01*
X1186170Y892807D01*
X1183631Y895347D01*
Y897886D01*
X1186170Y892807D02*
X1191248D01*
X1166365Y926463D02*
X1163826Y929003D01*
X1158747D01*
X1156208Y926463D01*
Y916307D01*
X1158747Y913767D01*
X1163826D01*
X1166365Y916307D01*
X1171443Y913767D02*
X1176521D01*
X1173982D01*
Y929003D01*
X1171443Y926463D01*
X1184139Y929003D02*
X1194296D01*
Y926463D01*
X1184139Y916307D01*
Y913767D01*
X1166365Y952112D02*
X1163826Y954651D01*
X1158747D01*
X1156208Y952112D01*
Y941956D01*
X1158747Y939417D01*
X1163826D01*
X1166365Y941956D01*
X1171443Y939417D02*
X1176521D01*
X1173982D01*
Y954651D01*
X1171443Y952112D01*
X1194296Y954651D02*
X1189217Y952112D01*
X1184139Y947034D01*
Y941956D01*
X1186678Y939417D01*
X1191757D01*
X1194296Y941956D01*
Y944495D01*
X1191757Y947034D01*
X1184139D01*
X1166365Y976242D02*
X1163826Y978782D01*
X1158747D01*
X1156208Y976242D01*
Y966086D01*
X1158747Y963547D01*
X1163826D01*
X1166365Y966086D01*
X1171443Y963547D02*
X1176521D01*
X1173982D01*
Y978782D01*
X1171443Y976242D01*
X1194296Y978782D02*
X1184139D01*
Y971164D01*
X1189217Y973703D01*
X1191757D01*
X1194296Y971164D01*
Y966086D01*
X1191757Y963547D01*
X1186678D01*
X1184139Y966086D01*
X1166365Y1005465D02*
X1163826Y1008004D01*
X1158747D01*
X1156208Y1005465D01*
Y995308D01*
X1158747Y992769D01*
X1163826D01*
X1166365Y995308D01*
X1171443Y992769D02*
X1176521D01*
X1173982D01*
Y1008004D01*
X1171443Y1005465D01*
X1191757Y992769D02*
Y1008004D01*
X1184139Y1000387D01*
X1194296D01*
X1166365Y1033380D02*
X1163826Y1035919D01*
X1158747D01*
X1156208Y1033380D01*
Y1023223D01*
X1158747Y1020684D01*
X1163826D01*
X1166365Y1023223D01*
X1171443Y1020684D02*
X1176521D01*
X1173982D01*
Y1035919D01*
X1171443Y1033380D01*
X1184139D02*
X1186678Y1035919D01*
X1191757D01*
X1194296Y1033380D01*
Y1030841D01*
X1191757Y1028301D01*
X1189217D01*
X1191757D01*
X1194296Y1025762D01*
Y1023223D01*
X1191757Y1020684D01*
X1186678D01*
X1184139Y1023223D01*
X1209037Y473183D02*
X1206497Y475722D01*
X1201419D01*
X1198880Y473183D01*
Y463026D01*
X1201419Y460487D01*
X1206497D01*
X1209037Y463026D01*
X1214115Y460487D02*
X1219193D01*
X1216654D01*
Y475722D01*
X1214115Y473183D01*
X1236968Y460487D02*
X1226811D01*
X1236968Y470644D01*
Y473183D01*
X1234428Y475722D01*
X1229350D01*
X1226811Y473183D01*
X1210815Y502903D02*
X1208276Y505442D01*
X1203197D01*
X1200658Y502903D01*
Y492747D01*
X1203197Y490207D01*
X1208276D01*
X1210815Y492747D01*
X1215893Y490207D02*
X1220971D01*
X1218432D01*
Y505442D01*
X1215893Y502903D01*
X1228589Y490207D02*
X1233667D01*
X1231128D01*
Y505442D01*
X1228589Y502903D01*
X1210307Y525004D02*
X1207767Y527543D01*
X1202689D01*
X1200150Y525004D01*
Y514847D01*
X1202689Y512308D01*
X1207767D01*
X1210307Y514847D01*
X1215385Y512308D02*
X1220463D01*
X1217924D01*
Y527543D01*
X1215385Y525004D01*
X1228081D02*
X1230620Y527543D01*
X1235698D01*
X1238238Y525004D01*
Y514847D01*
X1235698Y512308D01*
X1230620D01*
X1228081Y514847D01*
Y525004D01*
X1207767Y552184D02*
X1205228Y554724D01*
X1200149D01*
X1197610Y552184D01*
Y542028D01*
X1200149Y539488D01*
X1205228D01*
X1207767Y542028D01*
X1212845D02*
X1215384Y539488D01*
X1220463D01*
X1223002Y542028D01*
Y552184D01*
X1220463Y554724D01*
X1215384D01*
X1212845Y552184D01*
Y549645D01*
X1215384Y547106D01*
X1223002D01*
X1206497Y579365D02*
X1203958Y581904D01*
X1198879D01*
X1196340Y579365D01*
Y569208D01*
X1198879Y566669D01*
X1203958D01*
X1206497Y569208D01*
X1211575Y579365D02*
X1214114Y581904D01*
X1219193D01*
X1221732Y579365D01*
Y576826D01*
X1219193Y574286D01*
X1221732Y571747D01*
Y569208D01*
X1219193Y566669D01*
X1214114D01*
X1211575Y569208D01*
Y571747D01*
X1214114Y574286D01*
X1211575Y576826D01*
Y579365D01*
X1214114Y574286D02*
X1219193D01*
X1206497Y606545D02*
X1203958Y609085D01*
X1198879D01*
X1196340Y606545D01*
Y596389D01*
X1198879Y593849D01*
X1203958D01*
X1206497Y596389D01*
X1211575Y609085D02*
X1221732D01*
Y606545D01*
X1211575Y596389D01*
Y593849D01*
X1204719Y634996D02*
X1202179Y637535D01*
X1197101D01*
X1194562Y634996D01*
Y624839D01*
X1197101Y622300D01*
X1202179D01*
X1204719Y624839D01*
X1219954Y637535D02*
X1214875Y634996D01*
X1209797Y629917D01*
Y624839D01*
X1212336Y622300D01*
X1217415D01*
X1219954Y624839D01*
Y627378D01*
X1217415Y629917D01*
X1209797D01*
X1205227Y660147D02*
X1202688Y662686D01*
X1197609D01*
X1195070Y660147D01*
Y649990D01*
X1197609Y647451D01*
X1202688D01*
X1205227Y649990D01*
X1220462Y662686D02*
X1210305D01*
Y655069D01*
X1215383Y657608D01*
X1217923D01*
X1220462Y655069D01*
Y649990D01*
X1217923Y647451D01*
X1212844D01*
X1210305Y649990D01*
X953767Y387346D02*
X951227Y389885D01*
X946149D01*
X943610Y387346D01*
Y377189D01*
X946149Y374650D01*
X951227D01*
X953767Y377189D01*
X966463Y374650D02*
Y389885D01*
X958845Y382267D01*
X969002D01*
X909317Y384806D02*
X906777Y387345D01*
X901699D01*
X899160Y384806D01*
Y374649D01*
X901699Y372110D01*
X906777D01*
X909317Y374649D01*
X914395Y384806D02*
X916934Y387345D01*
X922013D01*
X924552Y384806D01*
Y382267D01*
X922013Y379728D01*
X919473D01*
X922013D01*
X924552Y377188D01*
Y374649D01*
X922013Y372110D01*
X916934D01*
X914395Y374649D01*
X864867Y386076D02*
X862327Y388615D01*
X857249D01*
X854710Y386076D01*
Y375919D01*
X857249Y373380D01*
X862327D01*
X864867Y375919D01*
X880102Y373380D02*
X869945D01*
X880102Y383537D01*
Y386076D01*
X877563Y388615D01*
X872484D01*
X869945Y386076D01*
X822957D02*
X820417Y388615D01*
X815339D01*
X812800Y386076D01*
Y375919D01*
X815339Y373380D01*
X820417D01*
X822957Y375919D01*
X828035Y373380D02*
X833113D01*
X830574D01*
Y388615D01*
X828035Y386076D01*
X1014730Y458470D02*
Y473705D01*
X1022347D01*
X1024887Y471166D01*
Y466087D01*
X1022347Y463548D01*
X1014730D01*
X1019808D02*
X1024887Y458470D01*
X1029965Y473705D02*
X1040122D01*
Y471166D01*
X1029965Y461009D01*
Y458470D01*
X671827Y464815D02*
X666748D01*
X669287D01*
Y452119D01*
X666748Y449580D01*
X664209D01*
X661670Y452119D01*
X676905Y449580D02*
X681983D01*
X679444D01*
Y464815D01*
X676905Y462276D01*
X1328420Y1004565D02*
Y989330D01*
X1336037D01*
X1338577Y991869D01*
Y1002026D01*
X1336037Y1004565D01*
X1328420D01*
X1343655Y989330D02*
Y999487D01*
X1351273D01*
X1353812Y996947D01*
Y989330D01*
X1369047Y1004565D02*
X1358890D01*
Y989330D01*
X1369047D01*
X1358890Y996947D02*
X1363969D01*
X1389360Y989330D02*
Y999487D01*
X1394439Y1004565D01*
X1399517Y999487D01*
Y989330D01*
Y996947D01*
X1389360D01*
X1404595Y1004565D02*
Y989330D01*
X1412213D01*
X1414752Y991869D01*
Y994408D01*
X1412213Y996947D01*
X1404595D01*
X1412213D01*
X1414752Y999487D01*
Y1002026D01*
X1412213Y1004565D01*
X1404595D01*
X1282700Y510537D02*
X1292857D01*
X1287778Y515616D02*
Y505459D01*
X1308092Y518155D02*
X1297935D01*
Y510537D01*
X1303013Y513077D01*
X1305553D01*
X1308092Y510537D01*
Y505459D01*
X1305553Y502920D01*
X1300474D01*
X1297935Y505459D01*
X1313170Y518155D02*
Y507998D01*
X1318248Y502920D01*
X1323327Y507998D01*
Y518155D01*
X1513837Y623566D02*
X1511297Y626105D01*
X1506219D01*
X1503680Y623566D01*
Y613409D01*
X1506219Y610870D01*
X1511297D01*
X1513837Y613409D01*
Y618488D01*
X1508758D01*
X1518915Y610870D02*
Y626105D01*
X1529072Y610870D01*
Y626105D01*
X1534150D02*
Y610870D01*
X1541768D01*
X1544307Y613409D01*
Y623566D01*
X1541768Y626105D01*
X1534150D01*
X1379220Y454658D02*
X1389377D01*
X1384298Y459736D02*
Y449579D01*
X1394455Y459736D02*
X1396994Y462275D01*
X1402073D01*
X1404612Y459736D01*
Y457197D01*
X1402073Y454658D01*
X1399533D01*
X1402073D01*
X1404612Y452118D01*
Y449579D01*
X1402073Y447040D01*
X1396994D01*
X1394455Y449579D01*
X1409690Y462275D02*
Y452118D01*
X1414769Y447040D01*
X1419847Y452118D01*
Y462275D01*
X1424925Y459736D02*
X1427464Y462275D01*
X1432543D01*
X1435082Y459736D01*
Y457197D01*
X1432543Y454658D01*
X1430004D01*
X1432543D01*
X1435082Y452118D01*
Y449579D01*
X1432543Y447040D01*
X1427464D01*
X1424925Y449579D01*
D26*
X1404620Y609600D02*
G03*
X1404620Y609600I-3810J0D01*
G01*
X986552Y979424D02*
G03*
X986552Y979424I-2048J0D01*
G01*
D41*
X759717Y1127760D02*
G03*
X759717Y1127760I-762J0D01*
G01*
X1189958Y1161796D02*
G03*
X1189958Y1161796I-762J0D01*
G01*
X1142492Y1164082D02*
G03*
X1142492Y1164082I-762J0D01*
G01*
X987552Y456692D02*
G03*
X987552Y456692I-762J0D01*
G01*
X717550Y725170D02*
G03*
X717550Y725170I-762J0D01*
G01*
X954532Y394208D02*
G03*
X954532Y394208I-762J0D01*
G01*
X911352D02*
G03*
X911352Y394208I-762J0D01*
G01*
X868172D02*
G03*
X868172Y394208I-762J0D01*
G01*
X826262D02*
G03*
X826262Y394208I-762J0D01*
G01*
X1144270Y464297D02*
G03*
X1144270Y464297I-762J0D01*
G01*
Y491477D02*
G03*
X1144270Y491477I-762J0D01*
G01*
Y518658D02*
G03*
X1144270Y518658I-762J0D01*
G01*
Y545838D02*
G03*
X1144270Y545838I-762J0D01*
G01*
Y573019D02*
G03*
X1144270Y573019I-762J0D01*
G01*
Y600200D02*
G03*
X1144270Y600200I-762J0D01*
G01*
Y654560D02*
G03*
X1144270Y654560I-762J0D01*
G01*
Y627380D02*
G03*
X1144270Y627380I-762J0D01*
G01*
X717550Y682110D02*
G03*
X717550Y682110I-762J0D01*
G01*
Y649342D02*
G03*
X717550Y649342I-762J0D01*
G01*
X875792Y612648D02*
G03*
X875792Y612648I-762J0D01*
G01*
X995939D02*
G03*
X995939Y612648I-762J0D01*
G01*
X963170Y613918D02*
G03*
X963170Y613918I-762J0D01*
G01*
X930402D02*
G03*
X930402Y613918I-762J0D01*
G01*
X948182Y1102106D02*
G03*
X948182Y1102106I-762J0D01*
G01*
X1043749D02*
G03*
X1043749Y1102106I-762J0D01*
G01*
X995966D02*
G03*
X995966Y1102106I-762J0D01*
G01*
X1283462Y1161542D02*
G03*
X1283462Y1161542I-762J0D01*
G01*
X895477Y1102613D02*
G03*
X895477Y1102613I-762J0D01*
G01*
X1237742Y1161796D02*
G03*
X1237742Y1161796I-762J0D01*
G01*
X754126Y1127760D02*
G03*
X754126Y1127760I-762J0D01*
G01*
X1020321Y456692D02*
G03*
X1020321Y456692I-762J0D01*
G01*
X1192489Y765810D02*
G03*
X1192489Y765810I-762J0D01*
G01*
X1094391Y1103376D02*
G03*
X1094391Y1103376I-762J0D01*
G01*
X1101598Y835276D02*
G03*
X1101598Y835276I-762J0D01*
G01*
Y863727D02*
G03*
X1101598Y863727I-762J0D01*
G01*
Y891667D02*
G03*
X1101598Y891667I-762J0D01*
G01*
Y918848D02*
G03*
X1101598Y918848I-762J0D01*
G01*
Y946028D02*
G03*
X1101598Y946028I-762J0D01*
G01*
Y973209D02*
G03*
X1101598Y973209I-762J0D01*
G01*
Y1028316D02*
G03*
X1101598Y1028316I-762J0D01*
G01*
Y1000389D02*
G03*
X1101598Y1000389I-762J0D01*
G01*
X751332Y1045210D02*
G03*
X751332Y1045210I-762J0D01*
G01*
X847693Y1102613D02*
G03*
X847693Y1102613I-762J0D01*
G01*
X1374160Y601980D02*
X1376660D01*
X1374160Y706120D02*
X1376660D01*
X1386860Y601980D02*
X1393952D01*
X1357122D02*
X1363960D01*
X1357122D02*
Y706120D01*
X1386860D02*
X1393952D01*
Y601980D02*
Y706120D01*
X1357122D02*
X1363960D01*
X784292Y1137793D02*
X796102D01*
X784292Y1117727D02*
X796102D01*
X1179163Y1124649D02*
Y1136459D01*
X1199229Y1124649D02*
Y1136459D01*
X1131697Y1126935D02*
Y1138745D01*
X1151763Y1126935D02*
Y1138745D01*
X976757Y419545D02*
Y431355D01*
X996823Y419545D02*
Y431355D01*
X742125Y715137D02*
X753935D01*
X742125Y735203D02*
X753935D01*
X963803Y419545D02*
Y431355D01*
X943737Y419545D02*
Y431355D01*
X920623Y419545D02*
Y431355D01*
X900557Y419545D02*
Y431355D01*
X877443Y419545D02*
Y431355D01*
X857377Y419545D02*
Y431355D01*
X835533Y419545D02*
Y431355D01*
X815467Y419545D02*
Y431355D01*
X1159029Y454010D02*
X1182850D01*
X1159029Y474584D02*
X1182850D01*
X1159029Y481190D02*
X1182850D01*
X1159029Y501764D02*
X1182850D01*
X1159029Y508371D02*
X1182850D01*
X1159029Y528945D02*
X1182850D01*
X1159029Y535551D02*
X1182850D01*
X1159029Y556125D02*
X1182850D01*
X1159029Y562732D02*
X1182850D01*
X1159029Y583306D02*
X1182850D01*
X1159029Y589912D02*
X1182850D01*
X1159029Y610486D02*
X1182850D01*
X1159029Y644274D02*
X1182850D01*
X1159029Y664847D02*
X1182850D01*
X1159029Y617093D02*
X1182850D01*
X1159029Y637667D02*
X1182850D01*
X984250Y589881D02*
Y594360D01*
X979771Y520700D02*
X984250D01*
X910590Y589881D02*
Y594360D01*
Y520700D02*
X915069D01*
X984250D02*
Y525179D01*
X979771Y594360D02*
X984250D01*
X910590D02*
X915069D01*
X910590Y520700D02*
Y525179D01*
X742125Y672077D02*
X753935D01*
X742125Y692143D02*
X753935D01*
X742125Y639309D02*
X753935D01*
X742125Y659374D02*
X753935D01*
X885063Y637985D02*
Y649795D01*
X864997Y637985D02*
Y649795D01*
X1005210Y637985D02*
Y649795D01*
X985144Y637985D02*
Y649795D01*
X972441Y639255D02*
Y651065D01*
X952375Y639255D02*
Y651065D01*
X939673Y639255D02*
Y651065D01*
X919607Y639255D02*
Y651065D01*
X957453Y1127443D02*
Y1139253D01*
X937387Y1127443D02*
Y1139253D01*
X1053020Y1127443D02*
Y1139253D01*
X1032954Y1127443D02*
Y1139253D01*
X1005237Y1127443D02*
Y1139253D01*
X985171Y1127443D02*
Y1139253D01*
X1272667Y1124395D02*
Y1136205D01*
X1292733Y1124395D02*
Y1136205D01*
X904748Y1127950D02*
Y1139760D01*
X884682Y1127950D02*
Y1139760D01*
X1226947Y1124649D02*
Y1136459D01*
X1247013Y1124649D02*
Y1136459D01*
X716217Y1137793D02*
X728027D01*
X716217Y1117727D02*
X728027D01*
X1029592Y419545D02*
Y431355D01*
X1009526Y419545D02*
Y431355D01*
X1217065Y775843D02*
X1228875D01*
X1217065Y755777D02*
X1228875D01*
X1083596Y1128713D02*
Y1140523D01*
X1103662Y1128713D02*
Y1140523D01*
X1116357Y824989D02*
X1140179D01*
X1116357Y845564D02*
X1140179D01*
X1116357Y853440D02*
X1140179D01*
X1116357Y874014D02*
X1140179D01*
X1116357Y881380D02*
X1140179D01*
X1116357Y901954D02*
X1140179D01*
X1116357Y908560D02*
X1140179D01*
X1116357Y929135D02*
X1140179D01*
X1116357Y935741D02*
X1140179D01*
X1116357Y956315D02*
X1140179D01*
X1116357Y962922D02*
X1140179D01*
X1116357Y983496D02*
X1140179D01*
X1116357Y1018029D02*
X1140179D01*
X1116357Y1038604D02*
X1140179D01*
X1116357Y990102D02*
X1140179D01*
X1116357Y1010676D02*
X1140179D01*
X760603Y1070547D02*
Y1082357D01*
X740537Y1070547D02*
Y1082357D01*
X856964Y1127950D02*
Y1139760D01*
X836898Y1127950D02*
Y1139760D01*
D42*
X993750Y858400D02*
X1001750D01*
X993750Y843400D02*
X1001750D01*
X950207Y858400D02*
X958207D01*
X950207Y843400D02*
X958207D01*
X828240Y652470D02*
X828240Y645470D01*
X853240D02*
X853240Y652470D01*
X790140Y644200D02*
Y651200D01*
X815140Y644200D02*
Y651200D01*
X832485Y731520D02*
Y737870D01*
Y712470D02*
Y718820D01*
Y737870D02*
X846455D01*
X832485Y712470D02*
X846455D01*
X862330Y720725D02*
X868680Y720725D01*
X881380Y720725D02*
X887730D01*
X862330Y720725D02*
Y734695D01*
X887730Y720725D02*
Y734695D01*
X1260480Y743260D02*
Y750260D01*
X1276980Y743260D02*
Y750260D01*
X1299001Y740720D02*
Y747720D01*
X1315502Y740720D02*
Y747720D01*
X791850Y1070920D02*
Y1077920D01*
X808350Y1070920D02*
Y1077920D01*
X695330Y1070920D02*
Y1077920D01*
X711830Y1070920D02*
Y1077920D01*
D43*
X651256Y1004852D02*
X773684Y1004852D01*
X651256Y852706D02*
Y1004852D01*
Y852706D02*
X773684D01*
X773684Y897537D02*
Y970435D01*
Y1004852D01*
Y897537D02*
X773684Y852706D01*
X992378Y904240D02*
X992378Y899160D01*
X987806D02*
X992378D01*
X922782Y899922D02*
X927100Y899922D01*
X922528Y900176D02*
X922782Y899922D01*
X922528Y900176D02*
X922528Y904240D01*
X922782Y964946D02*
Y969772D01*
X926846D01*
X987806Y970788D02*
X993394Y965200D01*
X651256Y626242D02*
X773684Y626242D01*
X651256Y474096D02*
Y626242D01*
Y474096D02*
X773684Y474096D01*
X773684Y518927D02*
Y591825D01*
Y626242D01*
X773684Y474096D02*
X773684Y518927D01*
D44*
X1375410Y709930D02*
Y714162D01*
Y712046D01*
X1362714D01*
X1364830Y709930D01*
X1362714Y728974D02*
X1364830Y724742D01*
X1369062Y720510D01*
X1373294D01*
X1375410Y722626D01*
Y726858D01*
X1373294Y728974D01*
X1371178D01*
X1369062Y726858D01*
Y720510D01*
X1385150Y708660D02*
X1383034Y710776D01*
Y715008D01*
X1385150Y717124D01*
X1387266D01*
X1389382Y715008D01*
X1391498Y717124D01*
X1393614D01*
X1395730Y715008D01*
Y710776D01*
X1393614Y708660D01*
X1391498D01*
X1389382Y710776D01*
X1387266Y708660D01*
X1385150D01*
X1389382Y710776D02*
Y715008D01*
X1369484Y589280D02*
X1371600Y591396D01*
Y595628D01*
X1369484Y597744D01*
X1361020D01*
X1358904Y595628D01*
Y591396D01*
X1361020Y589280D01*
X1363136D01*
X1365252Y591396D01*
Y597744D01*
X1388110Y594741D02*
Y598973D01*
Y596857D01*
X1375414D01*
X1377530Y594741D01*
M02*
